M48
;Layer_Color=9474304
;FILE_FORMAT=2:4
INCH
;TYPE=PLATED
T1F00S00C0.0098
T2F00S00C0.0118
T3F00S00C0.0157
T4F00S00C0.0197
T5F00S00C0.0394
T6F00S00C0.0512
T7F00S00C0.0571
T8F00S00C0.0949
T9F00S00C0.1260
T10F00S00C0.2087
%
T01
X302362Y186024
Y184646
X292244Y185315
X291890Y185472
X291535Y185315
X290906Y185394
Y185945
Y186614
X291220Y186457
Y186890
Y187283
X289213
X289252Y186968
X289331Y186339
X288937
X288543
X288583Y186890
Y187205
X287520Y186890
X287913Y186457
X287717Y186260
X286614Y186339
X286181
X285866
X285236
X284921
X284606
X284291
X284016Y185630
X283622Y184921
X283898Y184606
X284921
X285039Y183937
X284567
X285512
X286614Y183740
X286890
Y184528
X287874Y184646
X288228
X288150Y185039
X287874
X287992Y183740
X288307Y182795
X287756Y182283
X286220
X285906Y182559
X285630Y182283
X284961Y182559
Y181890
X284843Y180748
X284016Y181535
X283425Y181220
X283661Y182480
X282402Y183189
X282244Y184213
X282559
X281299Y182835
X281496Y180906
Y180118
X281890Y180512
X282874Y179724
Y178937
X283661Y178740
X284567Y178780
X285039Y177756
X283661
X286417
X286968Y180906
X287717Y180630
X289409Y180394
X290315Y180236
Y179252
X291142Y179528
X291732Y180748
X290827Y181260
X291142Y182087
X290787Y182441
Y182756
Y183150
X289409
X289094
X289370Y183819
X289528Y181535
X289882
X292638Y181654
Y181968
X288937Y179449
X286417Y183346
X289724Y186339
Y186654
X282953Y186772
Y187165
X281299Y178937
Y178543
X280433Y178504
X280512Y179409
X280787Y179803
X280276Y180276
X279961Y180118
X279646
X279409Y180591
X278346Y180512
X278150Y180118
X278346Y178937
Y178543
X279409Y178504
X279134Y179331
X278819
X278937Y181299
X278780Y182402
X279094
X279921Y182362
X280630
Y181654
X279921
X280118Y183228
X280433
X280984
Y183858
X279409
X279370Y183228
X279685
X278150Y183307
Y183701
Y184055
X278504
X278543Y185118
X278937
X279370
X279803
X280394Y185512
X280827Y185866
X280945Y186732
Y187126
Y187441
X279528Y187165
X279291Y186772
X279764
X279528Y186378
X278150Y185157
X276762Y185364
X276447
Y187175
X276772Y187244
X275276Y186102
Y184291
Y182480
Y180669
Y178858
X277047Y178701
Y178386
Y177835
X277362
X276762Y179931
X276447
Y181742
X276762
Y183553
X276447
X278386Y182717
X271693
Y182323
Y181929
X271181
Y182323
Y182717
X270669
Y182323
Y181929
Y180906
Y180512
Y180118
X271181
Y180512
Y180906
X271693
Y180512
Y180118
Y179094
Y178701
Y178307
X271181
Y178701
Y179094
X270669
Y178701
Y178307
Y183740
Y184134
Y184528
X271181
Y184134
Y183740
X271693
Y184134
Y184528
Y185551
Y185945
Y186339
X271181
Y185945
Y185551
X270669
Y185945
Y186339
Y187362
X271181
X271693
X264961Y194291
X264370
X270669Y194606
Y195000
Y195394
X271181
Y195000
Y194606
X271693
Y195000
Y195394
Y196417
Y196811
Y197205
X271181
Y196811
Y196417
X270669
Y196811
Y197205
Y198228
Y198622
Y199016
X271181
Y198622
Y198228
X271693
Y198622
Y199016
X275276Y198780
Y196968
Y195157
Y193346
Y191535
Y189724
Y187913
X276447Y188986
X276762
Y190797
X276447
Y192608
X276762
X277047Y194685
Y195000
X276762Y196230
X276447
Y198041
X276762
X278032Y197992
Y198307
X278346
X278032Y197677
Y197205
Y196890
Y196575
X278346
X279921
Y196890
Y197835
Y199213
X278937
X281063Y199016
X280906Y195866
X279921Y195472
X279528
X278898
Y195118
Y194803
X279055Y194488
X279803Y194291
X280039Y194646
X279331Y192874
Y191890
X279370Y190827
X279291Y189921
X279764
X279528Y189528
X279291Y189134
X279764
X279528Y188740
X279291Y188346
X279764
X279528Y187953
X279291Y187559
X279764
X280945Y187992
Y188898
Y189252
X280906Y191102
X271693Y190984
Y191378
Y191772
X271181
Y191378
Y190984
X270669
Y191378
Y191772
Y192795
Y193189
Y193583
X271181
Y193189
Y192795
X271693
Y193189
Y193583
Y189961
Y189567
Y189173
X271181
Y189567
Y189961
X270669
Y189567
Y189173
Y188150
Y187756
X271181
Y188150
X271693
Y187756
X282953Y187520
X283858Y188071
X283740Y188976
X283661Y189370
X283701Y189882
X284016
X283386Y189685
X283425Y190354
X282953
X282008
Y189961
Y189567
Y189134
X283032
X283465Y191181
X283780
X284173Y191024
X284409Y190787
X284646Y190551
X284921Y190315
X285197Y190118
X285433Y189882
Y189016
Y188661
Y188346
Y188032
X286339Y188307
X286890
X287244
X288071Y188189
X287913Y189016
X288110Y190000
X288346Y190236
X288032Y190945
X287953Y191614
X288268
X288701Y191417
X289016Y190906
X289764Y190945
X290236Y191339
Y191772
X289606
X289685Y192717
Y193189
X289528Y193976
X289094Y194488
Y194803
Y195079
X289882Y195354
Y195630
X290236Y195551
X290433Y195354
X291220Y195079
Y194567
X292323Y194528
Y194803
Y195079
Y195394
Y195827
Y196260
X291929Y196654
X291535Y197441
X290945Y197244
X290394Y197638
X290079
X289764
X289488Y197480
X289606Y198307
X289921
X290079Y199213
X289606Y199528
Y199843
X288661
Y199528
Y198622
X287717
Y199528
Y199843
X286654Y198937
Y198622
Y198307
X286339Y198032
X286024Y198622
X285236Y199331
Y199646
X284252
Y199331
X283661Y199606
X283268Y199646
Y199331
X282480Y198622
X281929Y198583
X281496Y198622
Y198228
X282244
X283307Y196772
Y196457
X282677Y196102
Y195669
X282559Y194331
X281890Y194252
X281732Y193898
X281457
X281496Y194488
Y195079
X281929Y194882
X281732Y193346
Y192953
X282283Y192795
X282008Y192244
Y191575
X281299Y191535
X282008Y190748
X282953Y191575
X284094Y191417
X284370Y191654
X284724Y191457
X284803Y192087
X285315Y192008
X285551Y192283
X285079Y192520
X286024Y191654
Y190669
X285709Y190906
X286614Y191142
X287087Y191102
X286850Y190748
X286614Y190512
X287441Y189921
X287165Y189646
X287008Y191732
X287795Y192087
X287559Y192598
X287244Y192835
X286968Y193110
X286693Y193386
X286339Y193740
X285945Y194961
Y195354
Y195748
X285276Y195551
Y194961
X285236Y196457
Y196772
X285551
Y197283
X284921Y196772
X284606
X284291
X287441Y196654
X288189
X288976
X286811Y195866
Y195315
X288228Y193268
X291535Y193504
X292520Y193543
Y193110
Y192717
Y192323
X292126Y194055
X291102Y191339
X291417Y190433
X291811
X290787Y190354
Y188898
X291535
X291850
X289409Y188740
X289252Y187913
Y187598
X289961Y188189
X282992Y193898
X292283Y199803
X292559
X294094
Y200157
X295276Y200394
X304921Y199803
T02
X290453Y196850
Y196457
X290157Y196654
X289862Y196850
Y196457
X287402Y194291
X286142Y194055
X285551Y197598
X284606Y197913
X283465Y197874
T03
X309449Y187205
X309055Y187402
X308661Y187205
X308268Y187402
X307874Y187205
Y186614
Y186024
X308268Y185906
X308858
X306467Y185551
X305679
Y186339
Y187126
X304892
Y186339
X304104
Y187126
X303317
Y186339
Y185551
Y184764
Y183976
X304104
Y184764
Y185551
X304892
Y184764
Y183976
X305679
Y184764
X306467
Y183976
Y186339
Y187126
X302362Y187205
X300984Y187283
X300197
X299409
X298622
X297835
X297047
Y186417
X297835
X297913Y185827
X298425
X299016
X299606
X300197
Y186417
X300984
X300787Y185827
X301339
X301378Y185039
Y184252
Y183386
X301102Y183071
X300591
Y183465
X299803
X299213
Y182677
Y182244
Y181693
Y181102
Y180512
X298622Y180315
X298032
Y181102
X297441
Y180118
Y179134
X298032Y179252
X298622
X299213Y179134
X300157Y179252
X302205
X303543Y179134
X304331
Y180315
Y180906
Y181496
Y182087
Y182677
X303543
Y182087
Y181496
Y180906
Y180315
X303740Y177559
X303150
X304331
X299213
X298622
X298032
Y181693
X298622
Y181102
Y182323
X298032Y182283
X297402Y182087
Y182559
Y183071
X298425Y182756
Y183465
X298780Y183110
X299803Y182677
X299409Y184252
Y185039
Y186417
X298622
X297244Y185827
X310236Y182283
Y181693
X296654Y183465
X295669
X294685
Y184252
Y185039
X294882Y185827
X295472
Y186417
X294685
X293898
X293701Y185827
X293185
X293110Y186417
Y187283
X293898
X294685
X295472
X296260
Y186417
X296063Y185827
X296654
X294291
X293701Y183465
X292126Y178937
X292520Y178346
X294803Y177559
X289764Y177756
X273681Y179528
Y181339
Y183150
Y184961
Y186772
X268622Y186378
X268386Y185551
X268622Y184567
Y182756
X268386Y181929
X268622Y180945
Y179134
X267913Y178425
X266024Y178346
Y177756
Y178937
X262323
Y178346
Y177756
X263425Y183209
X264291
Y184843
Y186024
Y187205
Y188386
Y189567
Y190748
Y191929
Y194744
X263425
X262323Y199016
Y199606
Y200197
X266024
Y199606
Y199016
X267913Y199606
X268622Y199055
Y197244
X268386Y196417
X268622Y195433
Y193622
X268386Y192795
X268622Y191811
Y190000
X268386Y189173
X268622Y188189
X273681Y188583
Y190394
Y192205
Y194016
Y195827
Y197638
Y199449
X293268Y194291
Y193898
X293780
Y194291
X294291
Y193898
X294803
Y194291
X295276
Y193898
X295748
Y194291
X296260
Y193898
X296772
Y194291
X296457Y191142
X296260Y190669
X295472
X295669Y191142
X294882
X294685Y190669
X293898
X294094Y191142
X293307
X293110Y190669
Y189646
Y188858
Y188071
X293898
X294685
X295472
X296260
Y188858
X295472
X294685
X293898
Y189646
X294685
X295472
X296260
X297047
Y188858
Y188071
X297835
X298622
X299409
X300197
X300984
Y188858
X300197
X299409
X298622
X297835
Y189646
X298622
X299409
X300197
X300984
X301772Y189764
X302362
Y189173
Y188583
Y187992
X302953
X303740
X304528
X305315Y188189
Y188780
Y189370
Y189961
Y190551
Y191142
Y191732
X306220Y191535
Y190748
X307008
Y191535
X307795
Y190748
Y189961
Y189173
Y188386
X308583
Y189173
X309370
Y188386
Y189961
Y190748
Y191535
X308583
Y190748
Y189961
X307008
Y189173
Y188386
X306220
Y189173
Y189961
X304528
X303740
X302953
X301772Y189173
Y188583
Y187992
X301732Y190748
X300984Y190669
X301063Y191260
X300197Y190669
X299409
X299606Y191142
X298819
X298622Y190669
X297835
X298032Y191142
X297244
X297047Y190669
X297953Y192717
X298425Y192874
X298032Y194094
X297283Y193898
Y194291
X298031Y195472
X298622
X299213
X299016Y194094
X300197Y192992
X301535
X301575Y194882
X303543Y196496
X304252Y196063
X304213Y198819
X302756Y198622
X298622
Y200394
X307283Y193307
X307677
T04
X310039Y178150
X256693Y178346
X256890Y199803
X310039
T05
X291339Y180236
Y178268
T06
X281329Y177933
X278514
T07
X308587Y182602
X307587
X306587
X305587
Y181602
Y180602
Y179602
X306587
X307587
X308587
Y180602
Y181602
X296776
Y182602
X295776
X294776
X293776
Y181602
Y180602
Y179602
X294776
X295776
X296776
Y180602
X261343
Y181602
Y182602
X260343
X259343
X258343
Y181602
Y180602
Y179602
X259343
X260343
X261343
Y195350
Y196350
Y197350
Y198350
X260343
X259343
X258343
Y197350
Y196350
Y195350
X259343
X260343
X293776
Y196350
Y197350
Y198350
X294776
X295776
X296776
Y197350
Y196350
Y195350
X295776
X294776
X305587
Y196350
Y197350
Y198350
X306587
X307587
X308587
Y197350
Y196350
Y195350
X307587
X306587
T08
X261303Y183992
Y193961
T09
X301181Y181102
X265748
Y196850
X301181
T10
X307087Y181102
X295276
X259843
Y196850
X295276
X307087
M30
