M48
;Layer_Color=9474304
;FILE_FORMAT=4:4
METRIC,LZ
;TYPE=PLATED
T1F00S00C0.2500
T2F00S00C0.4000
T3F00S00C0.6000
T4F00S00C1.0000
T5F00S00C1.3000
T6F00S00C1.4500
T7F00S00C2.4100
;TYPE=NON_PLATED
T8F00S00C0.3000
T9F00S00C2.6000
T10F00S00C3.2000
T11F00S00C5.3000
%
T01
X00645Y-00265
Y-00255
X0065Y-00225
X0066Y-00215
X0065Y-00205
X00645Y-00156
X00673Y-00147
X00677Y-00121
X00669
X00711Y-00111
X00704Y-00103
X00714Y-00085
X0071Y-0007
X00711Y-0006
X00722Y-00067
X0073
X00741
X00749
X00761
X00769
X00808Y-00069
X00813Y-00064
X00821Y-00067
X00829
X00839
X00849
X00859
X00847Y-00051
X00846Y-00043
X0083Y-00045
Y-00053
X00819Y-001
X00812
X00818Y-0011
X00817Y-00137
X00823Y-00157
X00843Y-00148
X00851
X0085Y-00131
X00895Y-00148
Y-00166
X00886Y-00158
X00933Y-00162
Y-0017
X0093Y-00134
X00923Y-00093
X00914Y-00089
X00905Y-00093
X00889Y-00091
Y-00077
Y-0006
X00897Y-00064
Y-00053
Y-00043
X00787Y-00113
Y-00133
X0078
X00775Y-00143
X00752Y-00128
X0074
X00728
X00737Y-00111
X00725Y-0017
X00709Y-00165
X00714Y-00189
X00735
X00699Y-00197
X00712Y-00221
X00705Y-0026
X00725
X0074
X00749
X00765
X00783Y-00245
X00795Y-00255
X00801Y-00229
X00808Y-00212
X00783Y-00221
X00773
X00775Y-00285
X0074
X00705
X00685Y-00255
X00839Y-00242
X00851Y-00218
X00874Y-00222
X00863Y-00189
X00854
X0092Y-00272
X00687Y-00056
Y-00046
X00636Y-00047
Y-00039
Y-00057
X00633Y-00079
X00622Y-00088
X00607Y-00098
X00596
X00585
X00575
X00566Y-00097
X00565Y-00125
Y-00134
Y-00144
X00571Y-00159
X00581Y-00167
X00589
X0061Y-00168
X00628
Y-00186
X0061
X00585Y-00195
X00597Y-00213
X00603Y-00225
X00611
X00619Y-00221
X00632Y-00233
X00625Y-00243
X00623Y-00266
X00597
X0057Y-00265
Y-00255
X00582Y-00245
X0059
X00565Y-00225
X0057Y-00215
X0052975Y-0022975
X0052175
Y-0018375
X0052975
Y-0013775
X0052175
Y-0009175
X0052975
X0053Y-00044
X0052175Y-0004575
X00492Y-00073
Y-00119
Y-00165
Y-00211
Y-00257
X00537Y-00261
Y-00269
Y-00283
X00545
X00401Y-00271
Y-00261
Y-00251
X00388
Y-00261
Y-00271
X00375
Y-00261
Y-00251
Y-00225
Y-00215
Y-00205
X00388
Y-00215
Y-00225
X00401
Y-00215
Y-00205
Y-00179
Y-00169
Y-00159
X00388
Y-00169
Y-00179
X00375
Y-00169
Y-00159
Y-00133
Y-00123
Y-00113
X00388
Y-00123
Y-00133
X00401
Y-00123
Y-00113
Y-00087
Y-00077
Y-00067
X00388
Y-00077
Y-00087
X00375
Y-00077
Y-00067
Y-00041
X00388
X00401
X006Y-00046
X00594Y-00056
X00606
X006Y-00066
X00597Y-0013
X00596Y-00146
X00604
X00615
X00623
X00637
Y-0013
X00574Y-00125
X-0039Y-00072
X00215Y00135
X0023
X00375Y00143
Y00153
Y00163
X00388
Y00153
Y00143
X00401
Y00153
Y00163
Y00189
Y00199
Y00209
X00388
Y00199
Y00189
X00375
Y00199
Y00209
Y00235
Y00245
Y00255
X00388
Y00245
Y00235
X00401
Y00245
Y00255
X00492Y00249
Y00203
Y00157
Y00111
Y00065
Y00019
Y-00027
X0052175Y0000025
X0052975
Y0004625
X0052175
Y0009225
X0052975
Y0013825
X0052175
Y0018425
X0052975
Y0023025
X0052175
X0059Y0023
X00595Y00215
Y00205
X006Y00165
X00635Y0019
X00643Y00205
X00635Y00074
X00637Y00045
X00615
X00599
X00594Y00024
X00606
X006Y00014
X00594Y00004
X00606
X006Y-00006
X00594Y-00016
X00606
X006Y-00026
X00594Y-00036
X00606
X00636Y-00025
Y-00002
Y00007
Y00016
X006Y00074
X00599Y00106
X00401Y00107
Y00117
X00388
Y00107
Y00097
X00401
Y00071
Y00061
Y00051
X00388
Y00061
Y00071
X00375
Y00061
Y00051
Y00025
Y00015
Y00005
X00388
Y00015
Y00025
X00401
Y00015
Y00005
Y-00021
Y-00031
X00388
Y-00021
X00375
Y-00031
Y00097
Y00107
Y00117
X00649Y00125
X00656
Y00111
Y00101
X00673Y00096
X00663Y00072
X00687
X00701Y00083
X007Y00056
X00708
X00716Y00062
X00718Y00052
X00724Y00046
X0073Y0004
X00737Y00034
X00744Y00029
X0075Y00023
Y00001
Y-00008
Y-00016
Y-00024
X00773Y-00017
X00787
X00796
X0081Y-00002
X00837Y-00003
X00859
X00886Y-00002
X00905
X00913
X00912Y00037
X00902
X00886Y00035
X00895Y00058
X00872
Y00069
X00864Y00062
X00856Y00071
X00858Y00095
X00854Y00127
X00843Y0014
Y00148
Y00155
X00863Y00162
Y00169
X00872Y00167
X00877Y00162
X00897Y00155
Y00142
X00925Y00141
Y00148
Y00155
Y00163
Y00174
Y00185
X00915Y00195
X00905Y00215
X0089Y0021
X00876Y0022
X00868
X0086
X00853Y00216
X00856Y00237
X00864
X00856Y00268
Y00276
X00832
Y00268
Y00245
X00808
Y00268
Y00276
X00781Y00253
Y00245
Y00237
X00772
Y00228
X00781
X00745Y00211
Y00198
X00753
X00737
X00729
X00721
X00696
Y0019
X00684Y00223
X00686Y00233
X00695Y00263
Y00271
X0072
Y00263
X00745
Y00271
X00726Y00222
X00745Y0019
X00746Y00167
X00744Y00151
X00754
X00763Y00162
Y00172
X00785Y00175
Y00158
X008Y00143
X00773Y00121
X00782Y00112
X00789Y00105
X00796Y00098
X00804Y00092
X0081Y00079
X00814Y00067
X00822
X00833Y00062
X00834Y00082
X00822Y00113
X00816Y0005
X00818Y00026
X00824Y00032
X00801Y00024
X00794Y00017
X00787Y0001
X0078Y00039
X00786Y00045
X00792Y00054
X00778Y00055
X00765Y00056
X00764Y00041
X00752Y00045
X0074Y0006
X00733Y00079
X00727Y00073
X00757Y0008
X00745277Y00093277
X0079Y0007
X00844Y00048
X00847Y-00027
Y-00035
X0083Y-00037
X0071Y-00023
X00707Y0
X00705Y0001
X00706Y00023
X00714
X00698Y00018
X00689Y00004
X00663
Y00015
Y00025
Y00035
Y00045
X00687Y00035
Y-00037
X007Y00123
X00681Y00141
X00666Y00153
Y00167
X0065Y00205
X00801Y00195
X0082
X0084
X0092Y00225
X00924Y00275
X00931
X0097Y00279
Y00271
X01Y0029
X0092Y00129
X0093Y00116
Y00105
Y00095
Y00085
X00905Y00115
X01287Y00116
X01245Y00275
X01215Y0025
T02
X0107Y-0029
X01085
X011
Y-0025
X01085
X0107
X01055
Y-00225
X0107Y-00215
X01085
Y-002
Y-00185
X0107
Y-002
X01055
X01054Y-00175
Y-00163
Y-0015
X0108Y-00158
X01085Y-00169
X0107Y-0017
X011Y-00171
Y-0016
X01115
Y-0014
X011
X01089Y-00149
X0108Y-0014
X01105Y-0012
Y-001
X0111Y-0008
X01095
X0108
X01067
X0105
X01125
X0114
X01154
X01155Y-001
Y-0012
Y-00142
X01148Y-0015
X01135
Y-0014
X0118Y-0016
X01205Y-00132
X01219
X01233
X01245
Y-00118
Y-00105
X01233
Y-00092
Y-0008
X01245
Y-00092
Y-00067
X01275
Y-0008
Y-00092
Y-00105
Y-00118
Y-0013
X01219Y-00105
Y-00092
Y-0008
X01205
Y-00092
Y-00105
X01185Y-00111
X01175
X01205Y-0022
X01215
X01225
Y-0025
X01215
X01205
X012Y-0029
X01215
X0123
X0137Y-0027
X01385Y-0016
X011Y-00185
Y-002
Y-00215
X01035Y-0014
X0101
X00985
Y-0012
Y-001
X0099Y-0008
X00975
X0096
X009469
X01005
X0102
X01035
X0096Y-0014
X0093Y-002
X00905
X0086Y-00285
X00988Y-0029
X004515Y-0024
Y-00194
Y-00148
Y-00102
Y-00056
X00323Y-00066
X00317Y-00087
X00323Y-00112
Y-00158
X00317Y-00179
X00323Y-00204
Y-0025
X00305Y-00268
X00257Y-0027
Y-00255
Y-00285
X00163
Y-0027
Y-00255
X00191Y-001465
X00213
Y-00105
Y-00075
Y-00045
Y-00015
Y00015
Y00045
Y00075
Y001465
X00191
X00163Y00255
Y0027
Y00285
X00257
Y0027
Y00255
X00305Y0027
X00323Y00256
Y0021
X00317Y00189
X00323Y00164
Y00118
X00317Y00097
X00323Y00072
Y00026
X00317Y00005
X00323Y-0002
X004515Y-0001
Y00036
Y00082
Y00128
Y00174
Y0022
Y00266
X0107Y00165
X01085
X011
X01095Y0013
X0107
X01068Y00095
X0108Y00099
X01125Y00102
X01159
X0116Y0015
X01231Y00163
X01305Y0011
X01315
X01385
Y-0002
X01147Y00058
T03
X01045Y-00066
X01065
X01085
X01105
X01125
X01145
X01045Y-00045
X01025Y-00066
X01005
X00985
X00965
X00945
Y00045
X0095Y00055
X0097
X00965Y00045
X00985
X0099Y00055
X0101
X01005Y00045
X01025
X0103Y00055
X01025Y00125
Y00135
X01012
Y00125
X01
Y00135
X00988
Y00125
X00975
Y00135
X00962
Y00125
X00949
Y00135
X01038
Y00125
X01051
Y00135
X0105Y00055
X01045Y00045
Y00035
Y00015
Y-00005
Y-00025
X01065Y00045
X0107Y00055
X0109
X01085Y00045
X01105
X0111Y00055
X01125Y00045
X01145
X01164
X01165Y0002
X0118
Y00005
X01165
Y-0001
Y-00025
X0118
Y-0001
X01195Y-00025
X01215
X01235
X01255Y-0002
Y-00005
Y0001
Y00025
Y0004
Y00055
Y0007
X01235Y00025
X01215
X01195
T04
X009Y-00272
Y-00222
T05
X0064575Y-002805
X0057425
T06
X012619Y-002381
Y-002127
Y-001873
Y-001619
X012873
X013127
X013381
Y-001873
Y-002127
Y-002381
X013127
X012873
X010381
Y-002127
Y-001873
Y-001619
X010127
X009873
X009619
Y-001873
Y-002127
Y-002381
X009873
X010127
X001381
Y-002127
Y-001873
Y-001619
X001127
X000873
X000619
Y-001873
Y-002127
Y-002381
X000873
X001127
Y001619
X001381
Y001873
Y002127
Y002381
X001127
X000873
X000619
Y002127
Y001873
Y001619
X000873
X009619
Y001873
Y002127
Y002381
X009873
X010127
X010381
Y002127
Y001873
Y001619
X010127
X009873
X012619
Y001873
Y002127
Y002381
X012873
X013127
X013381
Y002127
Y001873
Y001619
X013127
X012873
T07
X001371Y-001266
Y001266
T08
X008625Y0019
Y002
X0087Y00195
X008775Y0019
Y002
T09
X00625Y0025
X00895
T10
X0115Y-002
X0025
Y002
X0115
T11
X013Y-002
X01
X001
Y002
X01
X013
M30
