G04 Layer_Color=32896*
%FSAX24Y24*%
%MOIN*%
G70*
G01*
G75*
%ADD71C,0.0118*%
%ADD73C,0.0079*%
%ADD101C,0.0100*%
%ADD103C,0.0039*%
D71*
X286575Y183586D02*
X286537Y183605D01*
X286481Y183661D01*
Y183268D01*
X286575Y179492D02*
X286537Y179511D01*
X286481Y179567D01*
Y179173D01*
X288082Y179505D02*
X288110Y179561D01*
X288167Y179617D01*
X288223Y179646D01*
X288335D01*
X288391Y179617D01*
X288448Y179561D01*
X288476Y179505D01*
X288504Y179421D01*
Y179280D01*
X288476Y179196D01*
X288448Y179139D01*
X288391Y179083D01*
X288335Y179055D01*
X288223D01*
X288167Y179083D01*
X288110Y179139D01*
X288082Y179196D01*
X287466Y179055D02*
X287691Y179646D01*
X287916Y179055D01*
X287832Y179252D02*
X287551D01*
X287329Y179646D02*
Y179055D01*
Y179646D02*
X286935Y179055D01*
Y179646D02*
Y179055D01*
X285827Y184758D02*
X285883Y184814D01*
X285967Y184842D01*
X286080D01*
X286164Y184814D01*
X286220Y184758D01*
Y184702D01*
X286192Y184646D01*
X286164Y184617D01*
X286108Y184589D01*
X285939Y184533D01*
X285883Y184505D01*
X285855Y184477D01*
X285827Y184421D01*
Y184336D01*
X285883Y184280D01*
X285967Y184252D01*
X286080D01*
X286164Y184280D01*
X286220Y184336D01*
X285329Y184842D02*
X285695D01*
Y184252D01*
X285329D01*
X285695Y184561D02*
X285470D01*
X285231Y184842D02*
Y184252D01*
Y184842D02*
X284978D01*
X284893Y184814D01*
X284865Y184786D01*
X284837Y184730D01*
Y184674D01*
X284865Y184617D01*
X284893Y184589D01*
X284978Y184561D01*
X285231D01*
X285034D02*
X284837Y184252D01*
X284705Y184842D02*
Y184252D01*
X284131D02*
X284356Y184842D01*
X284581Y184252D01*
X284497Y184449D02*
X284216D01*
X283994Y184842D02*
Y184252D01*
X283656D01*
X279921Y186766D02*
X279978Y186822D01*
X280062Y186850D01*
X280174D01*
X280259Y186822D01*
X280315Y186766D01*
Y186710D01*
X280287Y186653D01*
X280259Y186625D01*
X280203Y186597D01*
X280034Y186541D01*
X279978Y186513D01*
X279949Y186485D01*
X279921Y186429D01*
Y186344D01*
X279978Y186288D01*
X280062Y186260D01*
X280174D01*
X280259Y186288D01*
X280315Y186344D01*
X279789Y186850D02*
Y186260D01*
Y186850D02*
X279592D01*
X279508Y186822D01*
X279452Y186766D01*
X279424Y186710D01*
X279396Y186625D01*
Y186485D01*
X279424Y186400D01*
X279452Y186344D01*
X279508Y186288D01*
X279592Y186260D01*
X279789D01*
X278378Y186710D02*
X278406Y186766D01*
X278462Y186822D01*
X278518Y186850D01*
X278631D01*
X278687Y186822D01*
X278743Y186766D01*
X278771Y186710D01*
X278800Y186625D01*
Y186485D01*
X278771Y186400D01*
X278743Y186344D01*
X278687Y186288D01*
X278631Y186260D01*
X278518D01*
X278462Y186288D01*
X278406Y186344D01*
X278378Y186400D01*
X277875Y186653D02*
Y186260D01*
Y186569D02*
X277931Y186625D01*
X277987Y186653D01*
X278071D01*
X278128Y186625D01*
X278184Y186569D01*
X278212Y186485D01*
Y186429D01*
X278184Y186344D01*
X278128Y186288D01*
X278071Y186260D01*
X277987D01*
X277931Y186288D01*
X277875Y186344D01*
X277717Y186653D02*
Y186260D01*
Y186485D02*
X277689Y186569D01*
X277633Y186625D01*
X277577Y186653D01*
X277492D01*
X277101Y186850D02*
Y186260D01*
Y186569D02*
X277158Y186625D01*
X277214Y186653D01*
X277298D01*
X277354Y186625D01*
X277411Y186569D01*
X277439Y186485D01*
Y186429D01*
X277411Y186344D01*
X277354Y186288D01*
X277298Y186260D01*
X277214D01*
X277158Y186288D01*
X277101Y186344D01*
D73*
X287539Y198819D02*
G03*
X287539Y198819I-000335J000000D01*
G01*
X288720Y192717D02*
G03*
X288720Y192717I-000335J000000D01*
G01*
X288524Y198819D02*
G03*
X288524Y198819I-000335J000000D01*
G01*
X287933Y193504D02*
G03*
X287933Y193504I-000335J000000D01*
G01*
X287146Y194291D02*
G03*
X287146Y194291I-000335J000000D01*
G01*
X283406Y197638D02*
G03*
X283406Y197638I-000335J000000D01*
G01*
X284390D02*
G03*
X284390Y197638I-000335J000000D01*
G01*
X285374D02*
G03*
X285374Y197638I-000335J000000D01*
G01*
X286358D02*
G03*
X286358Y197638I-000335J000000D01*
G01*
X287539D02*
G03*
X287539Y197638I-000335J000000D01*
G01*
X288327Y178150D02*
G03*
X288327Y178150I-000335J000000D01*
G01*
X283209Y180315D02*
G03*
X283209Y180315I-000335J000000D01*
G01*
X284193D02*
G03*
X284193Y180315I-000335J000000D01*
G01*
X286161D02*
G03*
X286161Y180315I-000335J000000D01*
G01*
X287736D02*
G03*
X287736Y180315I-000335J000000D01*
G01*
X278937Y195866D02*
X280709D01*
Y197638D01*
X277165Y195866D02*
Y197638D01*
Y195866D02*
X278937D01*
X280709Y197638D02*
Y200591D01*
X277165Y197638D02*
Y200591D01*
X280709D01*
X286673Y182953D02*
Y183110D01*
X286280D02*
X286673D01*
X283406Y182953D02*
Y183110D01*
X283799D01*
X286732Y181457D02*
Y181575D01*
X283346Y181457D02*
X286732D01*
X283346D02*
Y181575D01*
X282618Y198957D02*
Y199114D01*
Y198957D02*
X283012D01*
X285886D02*
Y199114D01*
X285492Y198957D02*
X285886D01*
X282559Y200492D02*
Y200610D01*
X285945D01*
Y200492D02*
Y200610D01*
X286673Y178858D02*
Y179016D01*
X286280D02*
X286673D01*
X283406Y178858D02*
Y179016D01*
X283799D01*
X286732Y177362D02*
Y177480D01*
X283346Y177362D02*
X286732D01*
X283346D02*
Y177480D01*
D101*
X277205Y182756D02*
Y183740D01*
Y182756D02*
X277205D01*
X277795Y182165D01*
X277205Y181181D02*
Y182165D01*
X276811Y181181D02*
X277205D01*
Y183740D02*
Y183937D01*
X276811D02*
X277205D01*
X281220Y179961D02*
Y180361D01*
X281120D01*
X281021Y180261D01*
Y179961D01*
Y180261D01*
X280921Y180361D01*
X280821Y180261D01*
Y179961D01*
X280621D02*
X280421D01*
X280521D01*
Y180361D01*
X280621D01*
X279721D02*
X280021D01*
X280121Y180261D01*
Y180061D01*
X280021Y179961D01*
X279721D01*
X279521Y180361D02*
Y179961D01*
Y180161D01*
X279421Y180261D01*
X279321Y180361D01*
X279221D01*
X278821Y179961D02*
X278621D01*
X278521Y180061D01*
Y180261D01*
X278621Y180361D01*
X278821D01*
X278921Y180261D01*
Y180061D01*
X278821Y179961D01*
X277922Y180460D02*
X278022Y180560D01*
X278221D01*
X278321Y180460D01*
Y180361D01*
X278221Y180261D01*
X278022D01*
X277922Y180161D01*
Y180061D01*
X278022Y179961D01*
X278221D01*
X278321Y180061D01*
X277722Y180560D02*
Y179961D01*
X277422D01*
X277322Y180061D01*
Y180460D01*
X277422Y180560D01*
X277722D01*
D103*
X276299Y178504D02*
X276811D01*
Y178740D01*
X281063D01*
Y178504D02*
Y178740D01*
Y178504D02*
X281929D01*
Y184803D01*
X276299D02*
X281929D01*
X276299Y178504D02*
Y184803D01*
M02*
