G04 Layer_Color=16711935*
%FSAX24Y24*%
%MOIN*%
G70*
G01*
G75*
%ADD118R,0.0513X0.0631*%
%ADD150R,0.0395X0.0710*%
%ADD151R,0.0907X0.1261*%
%ADD164R,0.4489X0.0887*%
%ADD170C,0.2836*%
%ADD172C,0.0828*%
%ADD173C,0.1458*%
%ADD174C,0.0867*%
%ADD175C,0.0080*%
%ADD176C,0.2167*%
%ADD177C,0.0474*%
%ADD178R,0.1378X0.3346*%
%ADD179R,0.0395X0.0741*%
%ADD180R,0.0710X0.0671*%
%ADD181R,0.0588X0.0631*%
%ADD182R,0.0749X0.0671*%
%ADD183R,0.0588X0.0592*%
%ADD184R,0.0671X0.0749*%
G04:AMPARAMS|DCode=185|XSize=67.1mil|YSize=32mil|CornerRadius=7.6mil|HoleSize=0mil|Usage=FLASHONLY|Rotation=0.000|XOffset=0mil|YOffset=0mil|HoleType=Round|Shape=RoundedRectangle|*
%AMROUNDEDRECTD185*
21,1,0.0671,0.0168,0,0,0.0*
21,1,0.0519,0.0320,0,0,0.0*
1,1,0.0152,0.0259,-0.0084*
1,1,0.0152,-0.0259,-0.0084*
1,1,0.0152,-0.0259,0.0084*
1,1,0.0152,0.0259,0.0084*
%
%ADD185ROUNDEDRECTD185*%
G04:AMPARAMS|DCode=186|XSize=47.4mil|YSize=47.4mil|CornerRadius=9.9mil|HoleSize=0mil|Usage=FLASHONLY|Rotation=180.000|XOffset=0mil|YOffset=0mil|HoleType=Round|Shape=RoundedRectangle|*
%AMROUNDEDRECTD186*
21,1,0.0474,0.0276,0,0,180.0*
21,1,0.0276,0.0474,0,0,180.0*
1,1,0.0198,-0.0138,0.0138*
1,1,0.0198,0.0138,0.0138*
1,1,0.0198,0.0138,-0.0138*
1,1,0.0198,-0.0138,-0.0138*
%
%ADD186ROUNDEDRECTD186*%
G04:AMPARAMS|DCode=187|XSize=67.1mil|YSize=32mil|CornerRadius=7.6mil|HoleSize=0mil|Usage=FLASHONLY|Rotation=90.000|XOffset=0mil|YOffset=0mil|HoleType=Round|Shape=RoundedRectangle|*
%AMROUNDEDRECTD187*
21,1,0.0671,0.0168,0,0,90.0*
21,1,0.0519,0.0320,0,0,90.0*
1,1,0.0152,0.0084,0.0259*
1,1,0.0152,0.0084,-0.0259*
1,1,0.0152,-0.0084,-0.0259*
1,1,0.0152,-0.0084,0.0259*
%
%ADD187ROUNDEDRECTD187*%
D118*
X278848Y185669D02*
D03*
X278159D02*
D03*
X284459Y180276D02*
D03*
X285148D02*
D03*
D150*
X284547Y179311D02*
D03*
X285532D02*
D03*
X285039D02*
D03*
X286024D02*
D03*
X284055D02*
D03*
X284744Y198661D02*
D03*
X283760D02*
D03*
X284252D02*
D03*
X283268D02*
D03*
X285236D02*
D03*
X284547Y183406D02*
D03*
X285532D02*
D03*
X285039D02*
D03*
X286024D02*
D03*
X284055D02*
D03*
D151*
X287028Y178150D02*
D03*
X283051D02*
D03*
X282264Y199823D02*
D03*
X286240D02*
D03*
X287028Y182244D02*
D03*
X283051D02*
D03*
D164*
X295276Y193189D02*
D03*
X295276Y191850D02*
D03*
D170*
X265748Y181102D02*
D03*
Y196850D02*
D03*
X301181D02*
D03*
Y181102D02*
D03*
D172*
X281329Y177933D02*
D03*
X278514D02*
D03*
D173*
X261303Y193961D02*
D03*
Y183992D02*
D03*
D174*
X291339Y178268D02*
D03*
Y180236D02*
D03*
X260343Y195350D02*
D03*
X259343D02*
D03*
X258343D02*
D03*
X261343D02*
D03*
Y196350D02*
D03*
Y197350D02*
D03*
Y198350D02*
D03*
X260343D02*
D03*
X259343D02*
D03*
X258343D02*
D03*
Y197350D02*
D03*
Y196350D02*
D03*
X295776Y195350D02*
D03*
X294776D02*
D03*
X293776D02*
D03*
X296776D02*
D03*
Y196350D02*
D03*
Y197350D02*
D03*
Y198350D02*
D03*
X295776D02*
D03*
X294776D02*
D03*
X293776D02*
D03*
Y197350D02*
D03*
Y196350D02*
D03*
X307587Y195350D02*
D03*
X306587D02*
D03*
X305587D02*
D03*
X308587D02*
D03*
Y196350D02*
D03*
Y197350D02*
D03*
Y198350D02*
D03*
X307587D02*
D03*
X306587D02*
D03*
X305587D02*
D03*
Y197350D02*
D03*
Y196350D02*
D03*
X260343Y179602D02*
D03*
X259343D02*
D03*
X258343D02*
D03*
X261343D02*
D03*
Y180602D02*
D03*
Y181602D02*
D03*
Y182602D02*
D03*
X260343D02*
D03*
X259343D02*
D03*
X258343D02*
D03*
Y181602D02*
D03*
Y180602D02*
D03*
X295776Y179602D02*
D03*
X294776D02*
D03*
X293776D02*
D03*
X296776D02*
D03*
Y180602D02*
D03*
Y181602D02*
D03*
Y182602D02*
D03*
X295776D02*
D03*
X294776D02*
D03*
X293776D02*
D03*
Y181602D02*
D03*
Y180602D02*
D03*
X307587Y179602D02*
D03*
X306587D02*
D03*
X305587D02*
D03*
X308587D02*
D03*
Y180602D02*
D03*
Y181602D02*
D03*
Y182602D02*
D03*
X307587D02*
D03*
X306587D02*
D03*
X305587D02*
D03*
Y181602D02*
D03*
Y180602D02*
D03*
D175*
X259843Y196850D02*
D03*
X295276D02*
D03*
X307087D02*
D03*
X259843Y181102D02*
D03*
X307087D02*
D03*
D176*
X295276D02*
D03*
D177*
X256890Y199803D02*
D03*
X256693Y178346D02*
D03*
X310236Y178543D02*
D03*
X310039Y199803D02*
D03*
D178*
X305217Y184941D02*
D03*
D179*
X278504Y184600D02*
D03*
X278071D02*
D03*
X277638D02*
D03*
X277205D02*
D03*
X280236D02*
D03*
X279803D02*
D03*
X279370D02*
D03*
X278937D02*
D03*
D180*
X276654Y184636D02*
D03*
D181*
X276396Y181093D02*
D03*
D182*
X281634Y184636D02*
D03*
D183*
X276396Y184026D02*
D03*
D184*
X281752Y178750D02*
D03*
X276437D02*
D03*
D185*
X277319Y196654D02*
D03*
Y197047D02*
D03*
Y197441D02*
D03*
Y197835D02*
D03*
Y198228D02*
D03*
Y198622D02*
D03*
Y199016D02*
D03*
Y199409D02*
D03*
X280555D02*
D03*
Y199016D02*
D03*
Y198622D02*
D03*
Y198228D02*
D03*
Y197835D02*
D03*
Y197441D02*
D03*
Y197047D02*
D03*
Y196654D02*
D03*
D186*
X278543Y198917D02*
D03*
X277398Y200197D02*
D03*
X279331Y198917D02*
D03*
X280476Y200197D02*
D03*
D187*
X280315Y196024D02*
D03*
X279921D02*
D03*
X279528D02*
D03*
X279134D02*
D03*
X278740D02*
D03*
X278346D02*
D03*
X277953D02*
D03*
X277559D02*
D03*
M02*
