G04 Layer_Color=8388736*
%FSLAX44Y44*%
%MOMM*%
G71*
G01*
G75*
%ADD78C,0.2000*%
%ADD82C,0.4000*%
G04:AMPARAMS|DCode=104|XSize=0.8382mm|YSize=0.7032mm|CornerRadius=0mm|HoleSize=0mm|Usage=FLASHONLY|Rotation=315.000|XOffset=0mm|YOffset=0mm|HoleType=Round|Shape=Rectangle|*
%AMROTATEDRECTD104*
4,1,4,-0.5450,0.0477,-0.0477,0.5450,0.5450,-0.0477,0.0477,-0.5450,-0.5450,0.0477,0.0*
%
%ADD104ROTATEDRECTD104*%

G04:AMPARAMS|DCode=105|XSize=0.8382mm|YSize=0.7032mm|CornerRadius=0mm|HoleSize=0mm|Usage=FLASHONLY|Rotation=45.000|XOffset=0mm|YOffset=0mm|HoleType=Round|Shape=Rectangle|*
%AMROTATEDRECTD105*
4,1,4,-0.0477,-0.5450,-0.5450,-0.0477,0.0477,0.5450,0.5450,0.0477,-0.0477,-0.5450,0.0*
%
%ADD105ROTATEDRECTD105*%

%ADD106R,0.7032X0.8382*%
%ADD107R,0.8382X0.7032*%
%ADD108R,1.3032X1.2032*%
%ADD109R,1.2032X1.3032*%
%ADD110R,1.8032X2.0032*%
%ADD111R,1.6032X1.3032*%
%ADD112R,1.3032X1.6032*%
%ADD113R,1.2032X1.2032*%
%ADD114O,0.8132X1.7232*%
%ADD115R,0.8132X1.7232*%
%ADD116R,1.7032X1.3032*%
%ADD117R,0.8532X1.0532*%
%ADD118R,3.9032X1.5032*%
%ADD119R,9.1032X10.5032*%
%ADD120R,2.5032X1.7232*%
%ADD121R,1.0532X1.0532*%
%ADD122P,1.4894X4X360.0*%
%ADD123R,1.0532X1.0532*%
%ADD124R,1.4032X1.4032*%
%ADD125R,1.0532X0.8532*%
%ADD126R,1.8532X2.2332*%
%ADD127R,1.2032X0.4032*%
G04:AMPARAMS|DCode=128|XSize=0.5232mm|YSize=1.2032mm|CornerRadius=0mm|HoleSize=0mm|Usage=FLASHONLY|Rotation=315.000|XOffset=0mm|YOffset=0mm|HoleType=Round|Shape=Rectangle|*
%AMROTATEDRECTD128*
4,1,4,-0.6104,-0.2404,0.2404,0.6104,0.6104,0.2404,-0.2404,-0.6104,-0.6104,-0.2404,0.0*
%
%ADD128ROTATEDRECTD128*%

G04:AMPARAMS|DCode=129|XSize=0.5232mm|YSize=1.2032mm|CornerRadius=0mm|HoleSize=0mm|Usage=FLASHONLY|Rotation=45.000|XOffset=0mm|YOffset=0mm|HoleType=Round|Shape=Rectangle|*
%AMROTATEDRECTD129*
4,1,4,0.2404,-0.6104,-0.6104,0.2404,-0.2404,0.6104,0.6104,-0.2404,0.2404,-0.6104,0.0*
%
%ADD129ROTATEDRECTD129*%

G04:AMPARAMS|DCode=130|XSize=0.8032mm|YSize=2.0032mm|CornerRadius=0.2516mm|HoleSize=0mm|Usage=FLASHONLY|Rotation=90.000|XOffset=0mm|YOffset=0mm|HoleType=Round|Shape=RoundedRectangle|*
%AMROUNDEDRECTD130*
21,1,0.8032,1.5000,0,0,90.0*
21,1,0.3000,2.0032,0,0,90.0*
1,1,0.5032,0.7500,0.1500*
1,1,0.5032,0.7500,-0.1500*
1,1,0.5032,-0.7500,-0.1500*
1,1,0.5032,-0.7500,0.1500*
%
%ADD130ROUNDEDRECTD130*%
%ADD131R,2.0032X0.8032*%
G04:AMPARAMS|DCode=132|XSize=0.4332mm|YSize=1.0032mm|CornerRadius=0.1476mm|HoleSize=0mm|Usage=FLASHONLY|Rotation=0.000|XOffset=0mm|YOffset=0mm|HoleType=Round|Shape=RoundedRectangle|*
%AMROUNDEDRECTD132*
21,1,0.4332,0.7080,0,0,0.0*
21,1,0.1380,1.0032,0,0,0.0*
1,1,0.2952,0.0690,-0.3540*
1,1,0.2952,-0.0690,-0.3540*
1,1,0.2952,-0.0690,0.3540*
1,1,0.2952,0.0690,0.3540*
%
%ADD132ROUNDEDRECTD132*%
%ADD133R,2.6032X1.8532*%
%ADD134R,0.9032X0.4832*%
%ADD135O,1.4032X2.7032*%
%ADD136R,1.4032X2.7032*%
%ADD137R,2.8032X2.8032*%
%ADD138R,0.5032X0.9532*%
%ADD139R,0.9532X0.5032*%
%ADD140R,1.6032X0.5032*%
%ADD141R,0.5532X1.8032*%
G04:AMPARAMS|DCode=142|XSize=1.8032mm|YSize=0.5532mm|CornerRadius=0.1891mm|HoleSize=0mm|Usage=FLASHONLY|Rotation=270.000|XOffset=0mm|YOffset=0mm|HoleType=Round|Shape=RoundedRectangle|*
%AMROUNDEDRECTD142*
21,1,1.8032,0.1750,0,0,270.0*
21,1,1.4250,0.5532,0,0,270.0*
1,1,0.3782,-0.0875,-0.7125*
1,1,0.3782,-0.0875,0.7125*
1,1,0.3782,0.0875,0.7125*
1,1,0.3782,0.0875,-0.7125*
%
%ADD142ROUNDEDRECTD142*%
%ADD143R,1.9532X2.1032*%
%ADD144R,0.6032X1.6032*%
%ADD145R,1.3532X1.6532*%
%ADD146R,1.0032X1.8032*%
%ADD147R,2.3032X3.2032*%
%ADD148R,1.2032X0.6532*%
%ADD149R,1.6032X0.8032*%
%ADD150R,3.1232X1.4732*%
%ADD151R,1.0032X1.5032*%
%ADD152R,5.5032X1.1532*%
%ADD153R,10.2032X11.0032*%
%ADD154R,4.8032X1.1032*%
%ADD155R,11.0032X10.2032*%
%ADD156R,1.1032X4.8032*%
%ADD157R,6.7032X6.2032*%
%ADD158R,3.2032X1.6032*%
%ADD159R,1.1532X1.1032*%
%ADD160R,1.1532X1.1032*%
%ADD161R,1.1032X1.1532*%
%ADD162R,1.1032X1.1532*%
%ADD163R,1.6032X3.7032*%
%ADD164R,1.3032X2.0032*%
%ADD165R,11.4032X2.2532*%
%ADD166R,3.4032X2.7032*%
%ADD167O,1.4532X0.4532*%
%ADD168R,1.4532X0.4532*%
G04:AMPARAMS|DCode=169|XSize=1.8796mm|YSize=2.2606mm|CornerRadius=0mm|HoleSize=0mm|Usage=FLASHONLY|Rotation=225.000|XOffset=0mm|YOffset=0mm|HoleType=Round|Shape=Rectangle|*
%AMROTATEDRECTD169*
4,1,4,-0.1347,1.4638,1.4638,-0.1347,0.1347,-1.4638,-1.4638,0.1347,-0.1347,1.4638,0.0*
%
%ADD169ROTATEDRECTD169*%

%ADD170C,7.2032*%
%ADD171C,6.2032*%
%ADD172C,0.7032*%
%ADD173C,2.2032*%
%ADD174C,0.2032*%
%ADD175C,2.1032*%
%ADD176C,3.7032*%
G36*
X846633Y188510D02*
X846764Y188484D01*
X846890Y188441D01*
X847009Y188382D01*
X847120Y188308D01*
X847220Y188220D01*
X847308Y188120D01*
X847382Y188009D01*
X847441Y187890D01*
X847484Y187764D01*
X847510Y187633D01*
X847518Y187500D01*
Y177000D01*
X847510Y176867D01*
X847484Y176737D01*
X847441Y176610D01*
X847382Y176491D01*
X847308Y176380D01*
X847220Y176280D01*
X847120Y176192D01*
X847009Y176118D01*
X846890Y176059D01*
X846764Y176017D01*
X846633Y175991D01*
X846500Y175982D01*
X793500D01*
X793367Y175991D01*
X793236Y176017D01*
X793110Y176059D01*
X792991Y176118D01*
X792880Y176192D01*
X792780Y176280D01*
X792692Y176380D01*
X792618Y176491D01*
X792559Y176610D01*
X792516Y176737D01*
X792490Y176867D01*
X792482Y177000D01*
Y187500D01*
X792490Y187633D01*
X792516Y187764D01*
X792559Y187890D01*
X792618Y188009D01*
X792692Y188120D01*
X792780Y188220D01*
X792880Y188308D01*
X792991Y188382D01*
X793110Y188441D01*
X793236Y188484D01*
X793367Y188510D01*
X793500Y188518D01*
X803500D01*
X803531Y188516D01*
X803561Y188516D01*
X803597Y188512D01*
X803633Y188510D01*
X803663Y188503D01*
X803693Y188500D01*
X803728Y188491D01*
X803764Y188484D01*
X803792Y188474D01*
X803822Y188466D01*
X803855Y188452D01*
X803890Y188441D01*
X803917Y188427D01*
X803945Y188416D01*
X803977Y188398D01*
X804009Y188382D01*
X804035Y188365D01*
X804061Y188350D01*
X804090Y188328D01*
X804120Y188308D01*
X804143Y188288D01*
X804167Y188269D01*
X804193Y188244D01*
X804220Y188220D01*
X804240Y188197D01*
X804262Y188176D01*
X804284Y188147D01*
X804308Y188120D01*
X804325Y188094D01*
X804343Y188070D01*
X804362Y188039D01*
X804382Y188009D01*
X804395Y187982D01*
X804411Y187955D01*
X804893Y186990D01*
X806309Y184631D01*
X809169Y181771D01*
X811038Y180370D01*
X813855Y178961D01*
X815680Y178504D01*
X819993Y178025D01*
X823813Y178503D01*
X825645Y178961D01*
X826545Y179411D01*
X829463Y180870D01*
X831331Y182271D01*
X832729Y183669D01*
X834154Y185569D01*
X835627Y188024D01*
X835660Y188071D01*
X835692Y188120D01*
X835698Y188126D01*
X835703Y188133D01*
X835742Y188176D01*
X835780Y188220D01*
X835787Y188226D01*
X835792Y188232D01*
X835837Y188270D01*
X835880Y188308D01*
X835887Y188312D01*
X835894Y188318D01*
X835943Y188349D01*
X835991Y188382D01*
X835999Y188386D01*
X836006Y188390D01*
X836058Y188415D01*
X836110Y188441D01*
X836119Y188444D01*
X836126Y188447D01*
X836181Y188465D01*
X836236Y188484D01*
X836245Y188485D01*
X836253Y188488D01*
X836310Y188498D01*
X836367Y188510D01*
X836376Y188510D01*
X836384Y188512D01*
X836441Y188514D01*
X836500Y188518D01*
X846500D01*
X846633Y188510D01*
D02*
G37*
G36*
Y214009D02*
X846764Y213983D01*
X846890Y213941D01*
X847009Y213882D01*
X847120Y213808D01*
X847220Y213720D01*
X847308Y213620D01*
X847382Y213509D01*
X847441Y213390D01*
X847484Y213263D01*
X847510Y213133D01*
X847518Y213000D01*
Y202500D01*
X847510Y202367D01*
X847484Y202236D01*
X847441Y202110D01*
X847382Y201991D01*
X847308Y201880D01*
X847220Y201780D01*
X847120Y201692D01*
X847009Y201618D01*
X846890Y201559D01*
X846764Y201516D01*
X846633Y201490D01*
X846500Y201482D01*
X836500D01*
X836441Y201486D01*
X836384Y201488D01*
X836376Y201490D01*
X836367Y201490D01*
X836310Y201502D01*
X836253Y201512D01*
X836245Y201515D01*
X836236Y201516D01*
X836181Y201535D01*
X836126Y201553D01*
X836119Y201556D01*
X836110Y201559D01*
X836058Y201585D01*
X836006Y201610D01*
X835999Y201614D01*
X835991Y201618D01*
X835943Y201651D01*
X835894Y201682D01*
X835887Y201688D01*
X835880Y201692D01*
X835837Y201730D01*
X835792Y201768D01*
X835787Y201774D01*
X835780Y201780D01*
X835742Y201824D01*
X835703Y201867D01*
X835698Y201874D01*
X835692Y201880D01*
X835660Y201929D01*
X835627Y201976D01*
X834154Y204431D01*
X832729Y206331D01*
X830351Y208709D01*
X828988Y209618D01*
X826145Y211039D01*
X824320Y211496D01*
X820000Y211975D01*
X815720Y211500D01*
X812891Y210557D01*
X811991Y210107D01*
X809631Y208691D01*
X806291Y205351D01*
X805382Y203988D01*
X804411Y202045D01*
X804395Y202018D01*
X804382Y201991D01*
X804362Y201961D01*
X804343Y201930D01*
X804325Y201906D01*
X804308Y201880D01*
X804284Y201853D01*
X804262Y201824D01*
X804240Y201803D01*
X804220Y201780D01*
X804193Y201756D01*
X804167Y201731D01*
X804143Y201712D01*
X804120Y201692D01*
X804090Y201672D01*
X804061Y201650D01*
X804035Y201635D01*
X804009Y201618D01*
X803977Y201602D01*
X803945Y201584D01*
X803917Y201573D01*
X803890Y201559D01*
X803855Y201548D01*
X803822Y201534D01*
X803792Y201526D01*
X803764Y201516D01*
X803728Y201509D01*
X803693Y201500D01*
X803663Y201497D01*
X803633Y201490D01*
X803597Y201488D01*
X803561Y201484D01*
X803531Y201484D01*
X803500Y201482D01*
X793500D01*
X793367Y201490D01*
X793236Y201516D01*
X793110Y201559D01*
X792991Y201618D01*
X792880Y201692D01*
X792780Y201780D01*
X792692Y201880D01*
X792618Y201991D01*
X792559Y202110D01*
X792516Y202236D01*
X792490Y202367D01*
X792482Y202500D01*
Y213000D01*
X792490Y213133D01*
X792516Y213263D01*
X792559Y213390D01*
X792618Y213509D01*
X792692Y213620D01*
X792780Y213720D01*
X792880Y213808D01*
X792991Y213882D01*
X793110Y213941D01*
X793236Y213983D01*
X793367Y214009D01*
X793500Y214018D01*
X846500D01*
X846633Y214009D01*
D02*
G37*
D78*
X56094Y109287D02*
X56856Y109668D01*
X57617Y110429D01*
X57998Y111191D01*
Y112715D01*
X57617Y113476D01*
X56856Y114238D01*
X56094Y114619D01*
X54951Y115000D01*
X53047D01*
X51904Y114619D01*
X51143Y114238D01*
X50381Y113476D01*
X50000Y112715D01*
Y111191D01*
X50381Y110429D01*
X51143Y109668D01*
X51904Y109287D01*
X53047D01*
Y111191D02*
Y109287D01*
X57998Y107459D02*
X50000D01*
X57998D02*
X50000Y102127D01*
X57998D02*
X50000D01*
X57998Y99917D02*
X50000D01*
X57998D02*
Y97251D01*
X57617Y96109D01*
X56856Y95347D01*
X56094Y94966D01*
X54951Y94585D01*
X53047D01*
X51904Y94966D01*
X51143Y95347D01*
X50381Y96109D01*
X50000Y97251D01*
Y99917D01*
X77998Y107334D02*
X70000D01*
X77998Y110000D02*
Y104668D01*
X76094Y103335D02*
X76475D01*
X77237Y102954D01*
X77617Y102573D01*
X77998Y101811D01*
Y100288D01*
X77617Y99526D01*
X77237Y99145D01*
X76475Y98764D01*
X75713D01*
X74951Y99145D01*
X73809Y99907D01*
X70000Y103716D01*
Y98383D01*
X77998Y77334D02*
X70000D01*
X77998Y80000D02*
Y74668D01*
X76475Y73716D02*
X76856Y72954D01*
X77998Y71811D01*
X70000D01*
X56094Y79287D02*
X56856Y79668D01*
X57617Y80430D01*
X57998Y81191D01*
Y82715D01*
X57617Y83476D01*
X56856Y84238D01*
X56094Y84619D01*
X54951Y85000D01*
X53047D01*
X51904Y84619D01*
X51143Y84238D01*
X50381Y83476D01*
X50000Y82715D01*
Y81191D01*
X50381Y80430D01*
X51143Y79668D01*
X51904Y79287D01*
X56475Y77040D02*
X56856Y76278D01*
X57998Y75135D01*
X50000D01*
X56094Y70793D02*
X56475D01*
X57237Y70413D01*
X57617Y70032D01*
X57998Y69270D01*
Y67747D01*
X57617Y66985D01*
X57237Y66604D01*
X56475Y66223D01*
X55713D01*
X54951Y66604D01*
X53809Y67366D01*
X50000Y71174D01*
Y65842D01*
X56094Y-100713D02*
X56856Y-100332D01*
X57617Y-99570D01*
X57998Y-98809D01*
Y-97285D01*
X57617Y-96524D01*
X56856Y-95762D01*
X56094Y-95381D01*
X54951Y-95000D01*
X53047D01*
X51904Y-95381D01*
X51143Y-95762D01*
X50381Y-96524D01*
X50000Y-97285D01*
Y-98809D01*
X50381Y-99570D01*
X51143Y-100332D01*
X51904Y-100713D01*
X53047D01*
Y-98809D02*
Y-100713D01*
X57998Y-102541D02*
X50000D01*
X57998D02*
X50000Y-107873D01*
X57998D02*
X50000D01*
X57998Y-110083D02*
X50000D01*
X57998D02*
Y-112749D01*
X57617Y-113891D01*
X56856Y-114653D01*
X56094Y-115034D01*
X54951Y-115415D01*
X53047D01*
X51904Y-115034D01*
X51143Y-114653D01*
X50381Y-113891D01*
X50000Y-112749D01*
Y-110083D01*
X76094Y-105713D02*
X76856Y-105332D01*
X77617Y-104571D01*
X77998Y-103809D01*
Y-102285D01*
X77617Y-101524D01*
X76856Y-100762D01*
X76094Y-100381D01*
X74951Y-100000D01*
X73047D01*
X71904Y-100381D01*
X71143Y-100762D01*
X70381Y-101524D01*
X70000Y-102285D01*
Y-103809D01*
X70381Y-104571D01*
X71143Y-105332D01*
X71904Y-105713D01*
X76475Y-107960D02*
X76856Y-108722D01*
X77998Y-109865D01*
X70000D01*
X56094Y-73713D02*
X56856Y-73332D01*
X57617Y-72570D01*
X57998Y-71809D01*
Y-70285D01*
X57617Y-69524D01*
X56856Y-68762D01*
X56094Y-68381D01*
X54951Y-68000D01*
X53047D01*
X51904Y-68381D01*
X51143Y-68762D01*
X50381Y-69524D01*
X50000Y-70285D01*
Y-71809D01*
X50381Y-72570D01*
X51143Y-73332D01*
X51904Y-73713D01*
X56094Y-76341D02*
X56475D01*
X57237Y-76722D01*
X57617Y-77103D01*
X57998Y-77865D01*
Y-79388D01*
X57617Y-80150D01*
X57237Y-80531D01*
X56475Y-80912D01*
X55713D01*
X54951Y-80531D01*
X53809Y-79769D01*
X50000Y-75960D01*
Y-81292D01*
X76094Y-73713D02*
X76856Y-73332D01*
X77617Y-72570D01*
X77998Y-71809D01*
Y-70285D01*
X77617Y-69524D01*
X76856Y-68762D01*
X76094Y-68381D01*
X74951Y-68000D01*
X73047D01*
X71904Y-68381D01*
X71143Y-68762D01*
X70381Y-69524D01*
X70000Y-70285D01*
Y-71809D01*
X70381Y-72570D01*
X71143Y-73332D01*
X71904Y-73713D01*
X77998Y-76722D02*
Y-80912D01*
X74951Y-78626D01*
Y-79769D01*
X74570Y-80531D01*
X74190Y-80912D01*
X73047Y-81292D01*
X72285D01*
X71143Y-80912D01*
X70381Y-80150D01*
X70000Y-79007D01*
Y-77865D01*
X70381Y-76722D01*
X70762Y-76341D01*
X71523Y-75960D01*
X56094Y-44713D02*
X56856Y-44332D01*
X57617Y-43570D01*
X57998Y-42809D01*
Y-41285D01*
X57617Y-40524D01*
X56856Y-39762D01*
X56094Y-39381D01*
X54951Y-39000D01*
X53047D01*
X51904Y-39381D01*
X51143Y-39762D01*
X50381Y-40524D01*
X50000Y-41285D01*
Y-42809D01*
X50381Y-43570D01*
X51143Y-44332D01*
X51904Y-44713D01*
X57998Y-50769D02*
X52666Y-46960D01*
Y-52673D01*
X57998Y-50769D02*
X50000D01*
X76094Y-44713D02*
X76856Y-44332D01*
X77617Y-43570D01*
X77998Y-42809D01*
Y-41285D01*
X77617Y-40524D01*
X76856Y-39762D01*
X76094Y-39381D01*
X74951Y-39000D01*
X73047D01*
X71904Y-39381D01*
X71143Y-39762D01*
X70381Y-40524D01*
X70000Y-41285D01*
Y-42809D01*
X70381Y-43570D01*
X71143Y-44332D01*
X71904Y-44713D01*
X77998Y-51531D02*
Y-47722D01*
X74570Y-47341D01*
X74951Y-47722D01*
X75332Y-48865D01*
Y-50007D01*
X74951Y-51150D01*
X74190Y-51912D01*
X73047Y-52292D01*
X72285D01*
X71143Y-51912D01*
X70381Y-51150D01*
X70000Y-50007D01*
Y-48865D01*
X70381Y-47722D01*
X70762Y-47341D01*
X71523Y-46960D01*
X56094Y-14713D02*
X56856Y-14332D01*
X57617Y-13570D01*
X57998Y-12809D01*
Y-11285D01*
X57617Y-10524D01*
X56856Y-9762D01*
X56094Y-9381D01*
X54951Y-9000D01*
X53047D01*
X51904Y-9381D01*
X51143Y-9762D01*
X50381Y-10524D01*
X50000Y-11285D01*
Y-12809D01*
X50381Y-13570D01*
X51143Y-14332D01*
X51904Y-14713D01*
X56856Y-21531D02*
X57617Y-21150D01*
X57998Y-20007D01*
Y-19246D01*
X57617Y-18103D01*
X56475Y-17341D01*
X54570Y-16960D01*
X52666D01*
X51143Y-17341D01*
X50381Y-18103D01*
X50000Y-19246D01*
Y-19626D01*
X50381Y-20769D01*
X51143Y-21531D01*
X52285Y-21911D01*
X52666D01*
X53809Y-21531D01*
X54570Y-20769D01*
X54951Y-19626D01*
Y-19246D01*
X54570Y-18103D01*
X53809Y-17341D01*
X52666Y-16960D01*
X76094Y-14713D02*
X76856Y-14332D01*
X77617Y-13570D01*
X77998Y-12809D01*
Y-11285D01*
X77617Y-10524D01*
X76856Y-9762D01*
X76094Y-9381D01*
X74951Y-9000D01*
X73047D01*
X71904Y-9381D01*
X71143Y-9762D01*
X70381Y-10524D01*
X70000Y-11285D01*
Y-12809D01*
X70381Y-13570D01*
X71143Y-14332D01*
X71904Y-14713D01*
X77998Y-22292D02*
X70000Y-18484D01*
X77998Y-16960D02*
Y-22292D01*
X56094Y15287D02*
X56856Y15668D01*
X57617Y16430D01*
X57998Y17191D01*
Y18715D01*
X57617Y19476D01*
X56856Y20238D01*
X56094Y20619D01*
X54951Y21000D01*
X53047D01*
X51904Y20619D01*
X51143Y20238D01*
X50381Y19476D01*
X50000Y18715D01*
Y17191D01*
X50381Y16430D01*
X51143Y15668D01*
X51904Y15287D01*
X57998Y11135D02*
X57617Y12278D01*
X56856Y12659D01*
X56094D01*
X55332Y12278D01*
X54951Y11516D01*
X54570Y9993D01*
X54190Y8850D01*
X53428Y8088D01*
X52666Y7708D01*
X51523D01*
X50762Y8088D01*
X50381Y8469D01*
X50000Y9612D01*
Y11135D01*
X50381Y12278D01*
X50762Y12659D01*
X51523Y13040D01*
X52666D01*
X53428Y12659D01*
X54190Y11897D01*
X54570Y10755D01*
X54951Y9231D01*
X55332Y8469D01*
X56094Y8088D01*
X56856D01*
X57617Y8469D01*
X57998Y9612D01*
Y11135D01*
X76094Y15287D02*
X76856Y15668D01*
X77617Y16430D01*
X77998Y17191D01*
Y18715D01*
X77617Y19476D01*
X76856Y20238D01*
X76094Y20619D01*
X74951Y21000D01*
X73047D01*
X71904Y20619D01*
X71143Y20238D01*
X70381Y19476D01*
X70000Y18715D01*
Y17191D01*
X70381Y16430D01*
X71143Y15668D01*
X71904Y15287D01*
X75332Y8088D02*
X74190Y8469D01*
X73428Y9231D01*
X73047Y10374D01*
Y10755D01*
X73428Y11897D01*
X74190Y12659D01*
X75332Y13040D01*
X75713D01*
X76856Y12659D01*
X77617Y11897D01*
X77998Y10755D01*
Y10374D01*
X77617Y9231D01*
X76856Y8469D01*
X75332Y8088D01*
X73428D01*
X71523Y8469D01*
X70381Y9231D01*
X70000Y10374D01*
Y11135D01*
X70381Y12278D01*
X71143Y12659D01*
X56094Y49287D02*
X56856Y49668D01*
X57617Y50430D01*
X57998Y51191D01*
Y52715D01*
X57617Y53477D01*
X56856Y54238D01*
X56094Y54619D01*
X54951Y55000D01*
X53047D01*
X51904Y54619D01*
X51143Y54238D01*
X50381Y53477D01*
X50000Y52715D01*
Y51191D01*
X50381Y50430D01*
X51143Y49668D01*
X51904Y49287D01*
X56475Y47040D02*
X56856Y46278D01*
X57998Y45135D01*
X50000D01*
X57998Y38889D02*
X57617Y40032D01*
X56475Y40793D01*
X54570Y41174D01*
X53428D01*
X51523Y40793D01*
X50381Y40032D01*
X50000Y38889D01*
Y38127D01*
X50381Y36985D01*
X51523Y36223D01*
X53428Y35842D01*
X54570D01*
X56475Y36223D01*
X57617Y36985D01*
X57998Y38127D01*
Y38889D01*
X76094Y48287D02*
X76856Y48668D01*
X77617Y49429D01*
X77998Y50191D01*
Y51715D01*
X77617Y52477D01*
X76856Y53238D01*
X76094Y53619D01*
X74951Y54000D01*
X73047D01*
X71904Y53619D01*
X71143Y53238D01*
X70381Y52477D01*
X70000Y51715D01*
Y50191D01*
X70381Y49429D01*
X71143Y48668D01*
X71904Y48287D01*
X76475Y46040D02*
X76856Y45278D01*
X77998Y44135D01*
X70000D01*
X76475Y40174D02*
X76856Y39413D01*
X77998Y38270D01*
X70000D01*
X1118000Y-242002D02*
Y-252000D01*
X1124665Y-242002D02*
Y-252000D01*
X1118000Y-246763D02*
X1124665D01*
X1133140Y-245335D02*
Y-252000D01*
Y-246763D02*
X1132187Y-245811D01*
X1131235Y-245335D01*
X1129807D01*
X1128855Y-245811D01*
X1127903Y-246763D01*
X1127427Y-248191D01*
Y-249144D01*
X1127903Y-250572D01*
X1128855Y-251524D01*
X1129807Y-252000D01*
X1131235D01*
X1132187Y-251524D01*
X1133140Y-250572D01*
X1135806Y-245335D02*
Y-252000D01*
Y-248191D02*
X1136282Y-246763D01*
X1137234Y-245811D01*
X1138186Y-245335D01*
X1139614D01*
X1146232Y-242002D02*
Y-252000D01*
Y-246763D02*
X1145280Y-245811D01*
X1144328Y-245335D01*
X1142899D01*
X1141947Y-245811D01*
X1140995Y-246763D01*
X1140519Y-248191D01*
Y-249144D01*
X1140995Y-250572D01*
X1141947Y-251524D01*
X1142899Y-252000D01*
X1144328D01*
X1145280Y-251524D01*
X1146232Y-250572D01*
X1148898Y-245335D02*
X1150803Y-252000D01*
X1152707Y-245335D02*
X1150803Y-252000D01*
X1152707Y-245335D02*
X1154611Y-252000D01*
X1156516Y-245335D02*
X1154611Y-252000D01*
X1164561Y-245335D02*
Y-252000D01*
Y-246763D02*
X1163609Y-245811D01*
X1162657Y-245335D01*
X1161229D01*
X1160277Y-245811D01*
X1159324Y-246763D01*
X1158848Y-248191D01*
Y-249144D01*
X1159324Y-250572D01*
X1160277Y-251524D01*
X1161229Y-252000D01*
X1162657D01*
X1163609Y-251524D01*
X1164561Y-250572D01*
X1167227Y-245335D02*
Y-252000D01*
Y-248191D02*
X1167704Y-246763D01*
X1168656Y-245811D01*
X1169608Y-245335D01*
X1171036D01*
X1171941Y-248191D02*
X1177654D01*
Y-247239D01*
X1177178Y-246287D01*
X1176702Y-245811D01*
X1175750Y-245335D01*
X1174321D01*
X1173369Y-245811D01*
X1172417Y-246763D01*
X1171941Y-248191D01*
Y-249144D01*
X1172417Y-250572D01*
X1173369Y-251524D01*
X1174321Y-252000D01*
X1175750D01*
X1176702Y-251524D01*
X1177654Y-250572D01*
X1180272Y-245335D02*
X1179796Y-245811D01*
X1180272Y-246287D01*
X1180748Y-245811D01*
X1180272Y-245335D01*
Y-251048D02*
X1179796Y-251524D01*
X1180272Y-252000D01*
X1180748Y-251524D01*
X1180272Y-251048D01*
D82*
X1109000Y-260006D02*
X1120426Y-290000D01*
X1131852Y-260006D02*
X1120426Y-290000D01*
X1144278Y-260006D02*
X1139993Y-261435D01*
X1137137Y-265720D01*
X1135708Y-272861D01*
Y-277146D01*
X1137137Y-284287D01*
X1139993Y-288572D01*
X1144278Y-290000D01*
X1147135D01*
X1151420Y-288572D01*
X1154276Y-284287D01*
X1155704Y-277146D01*
Y-272861D01*
X1154276Y-265720D01*
X1151420Y-261435D01*
X1147135Y-260006D01*
X1144278D01*
X1163845Y-287143D02*
X1162417Y-288572D01*
X1163845Y-290000D01*
X1165274Y-288572D01*
X1163845Y-287143D01*
X1173272Y-267148D02*
Y-265720D01*
X1174700Y-262863D01*
X1176128Y-261435D01*
X1178985Y-260006D01*
X1184698D01*
X1187555Y-261435D01*
X1188983Y-262863D01*
X1190411Y-265720D01*
Y-268576D01*
X1188983Y-271433D01*
X1186126Y-275717D01*
X1171844Y-290000D01*
X1191839D01*
D104*
X712535Y94536D02*
D03*
X705464Y87465D02*
D03*
X810464Y31465D02*
D03*
X817535Y38535D02*
D03*
X785536Y133535D02*
D03*
X778465Y126465D02*
D03*
X683536Y131536D02*
D03*
X676464Y124465D02*
D03*
X690464Y138464D02*
D03*
X697535Y145535D02*
D03*
X794464Y110464D02*
D03*
X801535Y117535D02*
D03*
X808607Y110464D02*
D03*
X801535Y103393D02*
D03*
X815678Y103393D02*
D03*
X808607Y96322D02*
D03*
X794464Y124607D02*
D03*
X787393Y117536D02*
D03*
D105*
X729464Y4536D02*
D03*
X736535Y-2535D02*
D03*
X805536Y5465D02*
D03*
X798465Y12536D02*
D03*
X798464Y-1607D02*
D03*
X791393Y5465D02*
D03*
X812607Y12536D02*
D03*
X805536Y19607D02*
D03*
D106*
X670000Y62000D02*
D03*
X680000D02*
D03*
X791000Y-79000D02*
D03*
X801000D02*
D03*
X791000Y-69000D02*
D03*
X801000D02*
D03*
X716000Y-229000D02*
D03*
X726000D02*
D03*
X670000Y83000D02*
D03*
X680000D02*
D03*
Y-26000D02*
D03*
X670000D02*
D03*
X680000Y-36000D02*
D03*
X670000D02*
D03*
X704000Y-56000D02*
D03*
X694000D02*
D03*
X704000Y-46000D02*
D03*
X694000D02*
D03*
X670000Y72000D02*
D03*
X680000D02*
D03*
X698000Y-70000D02*
D03*
X688000D02*
D03*
X670000Y-56000D02*
D03*
X680000D02*
D03*
X670000Y-46000D02*
D03*
X680000D02*
D03*
Y-16000D02*
D03*
X670000D02*
D03*
X680000Y-6000D02*
D03*
X670000D02*
D03*
X680000Y4000D02*
D03*
X670000D02*
D03*
X680000Y15000D02*
D03*
X670000D02*
D03*
X680000Y25000D02*
D03*
X670000D02*
D03*
X680000Y45000D02*
D03*
X670000D02*
D03*
X680000Y35000D02*
D03*
X670000D02*
D03*
X717000Y-76000D02*
D03*
X727000D02*
D03*
D107*
X724000Y-56000D02*
D03*
Y-46000D02*
D03*
X812000Y-8000D02*
D03*
Y-18000D02*
D03*
X801000Y-222000D02*
D03*
Y-212000D02*
D03*
X574000Y-188000D02*
D03*
Y-178000D02*
D03*
X878000Y-43000D02*
D03*
Y-53000D02*
D03*
X889000Y-43000D02*
D03*
Y-53000D02*
D03*
X650000Y-145000D02*
D03*
Y-135000D02*
D03*
X660000Y-145000D02*
D03*
Y-135000D02*
D03*
X717000Y10000D02*
D03*
Y0D02*
D03*
X872000Y37000D02*
D03*
Y27000D02*
D03*
X859000Y-85000D02*
D03*
Y-75000D02*
D03*
X849000Y-85000D02*
D03*
Y-75000D02*
D03*
X839000Y-85000D02*
D03*
Y-75000D02*
D03*
X829000Y-85000D02*
D03*
Y-75000D02*
D03*
X920000Y106000D02*
D03*
Y116000D02*
D03*
X821000Y77000D02*
D03*
Y87000D02*
D03*
X585000Y-188000D02*
D03*
Y-178000D02*
D03*
X698000Y10000D02*
D03*
Y0D02*
D03*
D108*
X625500Y-135000D02*
D03*
X608500D02*
D03*
X648500Y-215000D02*
D03*
X631500D02*
D03*
X914500Y168000D02*
D03*
X897500D02*
D03*
X316500Y-236000D02*
D03*
X333500D02*
D03*
X316500Y-190000D02*
D03*
X333500D02*
D03*
X316500Y-144000D02*
D03*
X333500D02*
D03*
X316500Y-98000D02*
D03*
X333500D02*
D03*
X316500Y-52000D02*
D03*
X333500D02*
D03*
X316500Y-6000D02*
D03*
X333500D02*
D03*
X316500Y40000D02*
D03*
X333500D02*
D03*
X316500Y86000D02*
D03*
X333500D02*
D03*
X316500Y132000D02*
D03*
X333500D02*
D03*
X316500Y178000D02*
D03*
X333500D02*
D03*
X316500Y224000D02*
D03*
X333500D02*
D03*
X316500Y270000D02*
D03*
X333500D02*
D03*
X638500Y110000D02*
D03*
X621500D02*
D03*
X923500Y-77000D02*
D03*
X906500D02*
D03*
X923500Y-182000D02*
D03*
X906500D02*
D03*
X491500Y-246000D02*
D03*
X474500D02*
D03*
X491500Y-200000D02*
D03*
X474500D02*
D03*
X491500Y-154000D02*
D03*
X474500D02*
D03*
X491500Y-108000D02*
D03*
X474500D02*
D03*
X491500Y-62000D02*
D03*
X474500D02*
D03*
X491500Y-16000D02*
D03*
X474500D02*
D03*
X491500Y30000D02*
D03*
X474500D02*
D03*
X491500Y76000D02*
D03*
X474500D02*
D03*
X491500Y122000D02*
D03*
X474500D02*
D03*
X491500Y168000D02*
D03*
X474500D02*
D03*
X491500Y214000D02*
D03*
X474500D02*
D03*
X491500Y260000D02*
D03*
X474500D02*
D03*
X491500Y-266000D02*
D03*
X474500D02*
D03*
X491500Y-220000D02*
D03*
X474500D02*
D03*
X491500Y-174000D02*
D03*
X474500D02*
D03*
X491500Y-128000D02*
D03*
X474500D02*
D03*
X491500Y-82000D02*
D03*
X474500D02*
D03*
X491500Y-36000D02*
D03*
X474500D02*
D03*
X491500Y10000D02*
D03*
X474500D02*
D03*
X491500Y56000D02*
D03*
X474500D02*
D03*
X491500Y102000D02*
D03*
X474500D02*
D03*
X491500Y148000D02*
D03*
X474500D02*
D03*
X491500Y194000D02*
D03*
X474500D02*
D03*
X491500Y240000D02*
D03*
X474500D02*
D03*
X897500Y182000D02*
D03*
X914500D02*
D03*
X508500Y-283000D02*
D03*
X525500D02*
D03*
X581500Y70000D02*
D03*
X598500D02*
D03*
X623500Y-83000D02*
D03*
X606500D02*
D03*
D109*
X585000Y-137500D02*
D03*
Y-154500D02*
D03*
X889000Y-121500D02*
D03*
Y-104500D02*
D03*
X701000Y-229500D02*
D03*
Y-212500D02*
D03*
X886000Y24500D02*
D03*
Y7500D02*
D03*
X901000Y24500D02*
D03*
Y7500D02*
D03*
X916000Y24500D02*
D03*
Y7500D02*
D03*
X839000Y-197500D02*
D03*
Y-180500D02*
D03*
Y-214500D02*
D03*
Y-231500D02*
D03*
X202000Y-129500D02*
D03*
Y-146500D02*
D03*
Y129500D02*
D03*
Y146500D02*
D03*
D110*
X815000Y-281000D02*
D03*
X845000D02*
D03*
X860000Y148000D02*
D03*
X830000D02*
D03*
X881000D02*
D03*
X911000D02*
D03*
D111*
X900000Y-28750D02*
D03*
Y-11250D02*
D03*
X918000Y-28750D02*
D03*
Y-11250D02*
D03*
X882000Y-28750D02*
D03*
Y-11250D02*
D03*
X875000Y-67250D02*
D03*
Y-84750D02*
D03*
X526000Y-264750D02*
D03*
Y-247250D02*
D03*
Y-218750D02*
D03*
Y-201250D02*
D03*
Y-172750D02*
D03*
Y-155250D02*
D03*
Y-126750D02*
D03*
Y-109250D02*
D03*
Y-80750D02*
D03*
Y-63250D02*
D03*
Y-34750D02*
D03*
Y-17250D02*
D03*
Y11250D02*
D03*
Y28750D02*
D03*
Y57250D02*
D03*
Y74750D02*
D03*
Y103250D02*
D03*
Y120750D02*
D03*
Y149250D02*
D03*
Y166750D02*
D03*
Y195250D02*
D03*
Y212750D02*
D03*
Y241250D02*
D03*
Y258750D02*
D03*
X909000Y-44250D02*
D03*
Y-61750D02*
D03*
X844000Y286750D02*
D03*
Y269250D02*
D03*
X820000Y286750D02*
D03*
Y269250D02*
D03*
X796000Y286750D02*
D03*
Y269250D02*
D03*
X923000Y-104250D02*
D03*
Y-121750D02*
D03*
X1177000Y58750D02*
D03*
Y41250D02*
D03*
X1045000Y-127750D02*
D03*
Y-110250D02*
D03*
X1105000Y98750D02*
D03*
Y81250D02*
D03*
X905000Y-104250D02*
D03*
Y-121750D02*
D03*
X335000Y-250250D02*
D03*
Y-267750D02*
D03*
Y-204250D02*
D03*
Y-221750D02*
D03*
Y-158250D02*
D03*
Y-175750D02*
D03*
Y-112250D02*
D03*
Y-129750D02*
D03*
Y-66250D02*
D03*
Y-83750D02*
D03*
Y-20250D02*
D03*
Y-37750D02*
D03*
Y25750D02*
D03*
Y8250D02*
D03*
Y71750D02*
D03*
Y54250D02*
D03*
Y117750D02*
D03*
Y100250D02*
D03*
Y163750D02*
D03*
Y146250D02*
D03*
Y209750D02*
D03*
Y192250D02*
D03*
Y255750D02*
D03*
Y238250D02*
D03*
X796000Y236250D02*
D03*
Y253750D02*
D03*
X844000Y236250D02*
D03*
Y253750D02*
D03*
X820000Y236250D02*
D03*
Y253750D02*
D03*
D112*
X923750Y-166000D02*
D03*
X906250D02*
D03*
X598750Y52000D02*
D03*
X581250D02*
D03*
X743250Y232000D02*
D03*
X760750D02*
D03*
X923750Y-148000D02*
D03*
X906250D02*
D03*
X1228750Y-41000D02*
D03*
X1211250D02*
D03*
X886750Y104000D02*
D03*
X869250D02*
D03*
Y125000D02*
D03*
X886750D02*
D03*
X958750Y275000D02*
D03*
X941250D02*
D03*
D113*
X778000Y-232500D02*
D03*
X768500Y-211500D02*
D03*
X787500D02*
D03*
X607000Y-212500D02*
D03*
X616500Y-233500D02*
D03*
X597500D02*
D03*
D114*
X1173650Y-124750D02*
D03*
X1186350D02*
D03*
X1173650Y-61250D02*
D03*
X699350Y-121250D02*
D03*
X686650D02*
D03*
X699350Y-184750D02*
D03*
D115*
X1186350Y-61250D02*
D03*
X686650Y-184750D02*
D03*
D116*
X717000Y-12500D02*
D03*
Y-33500D02*
D03*
X698000Y-12500D02*
D03*
Y-33500D02*
D03*
D117*
X1196250Y-41000D02*
D03*
X1173750D02*
D03*
D118*
X1219000Y-67600D02*
D03*
Y-118400D02*
D03*
D119*
X1325000Y-93000D02*
D03*
D120*
X1215000Y-276400D02*
D03*
Y-233600D02*
D03*
X1085000Y-276400D02*
D03*
Y-233600D02*
D03*
Y178600D02*
D03*
Y221400D02*
D03*
D121*
X1124250Y58000D02*
D03*
X1157750D02*
D03*
X1099750Y-150000D02*
D03*
X1066250D02*
D03*
D122*
X793156Y149844D02*
D03*
X816844Y126156D02*
D03*
D123*
X1080000Y112750D02*
D03*
Y79250D02*
D03*
X872000Y81750D02*
D03*
Y48250D02*
D03*
X905000Y96250D02*
D03*
Y129750D02*
D03*
X859000Y-11750D02*
D03*
Y21750D02*
D03*
X918000Y48250D02*
D03*
Y81750D02*
D03*
X837000Y-11750D02*
D03*
Y21750D02*
D03*
X894000Y81750D02*
D03*
Y48250D02*
D03*
D124*
X617000Y91000D02*
D03*
X645000D02*
D03*
D125*
X644000Y71250D02*
D03*
Y48750D02*
D03*
X615000Y71250D02*
D03*
Y48750D02*
D03*
X508000Y-244750D02*
D03*
Y-267250D02*
D03*
Y-198750D02*
D03*
Y-221250D02*
D03*
Y-152750D02*
D03*
Y-175250D02*
D03*
Y-106750D02*
D03*
Y-129250D02*
D03*
Y-60750D02*
D03*
Y-83250D02*
D03*
Y-14750D02*
D03*
Y-37250D02*
D03*
Y31250D02*
D03*
Y8750D02*
D03*
Y77250D02*
D03*
Y54750D02*
D03*
Y123250D02*
D03*
Y100750D02*
D03*
Y169250D02*
D03*
Y146750D02*
D03*
Y215250D02*
D03*
Y192750D02*
D03*
Y261250D02*
D03*
Y238750D02*
D03*
D126*
X1016000Y275000D02*
D03*
X984000D02*
D03*
D127*
X325000Y-236000D02*
D03*
Y-190000D02*
D03*
Y-144000D02*
D03*
Y-98000D02*
D03*
Y-52000D02*
D03*
Y-6000D02*
D03*
Y40000D02*
D03*
Y86000D02*
D03*
Y132000D02*
D03*
Y178000D02*
D03*
Y224000D02*
D03*
Y270000D02*
D03*
D128*
X766677Y107568D02*
D03*
X770213Y104033D02*
D03*
X773748Y100497D02*
D03*
X777284Y96962D02*
D03*
X780819Y93426D02*
D03*
X784355Y89890D02*
D03*
X787890Y86355D02*
D03*
X791426Y82819D02*
D03*
X794962Y79284D02*
D03*
X798497Y75748D02*
D03*
X802033Y72213D02*
D03*
X805568Y68677D02*
D03*
X745323Y8432D02*
D03*
X741787Y11967D02*
D03*
X738252Y15503D02*
D03*
X734716Y19038D02*
D03*
X731181Y22574D02*
D03*
X727645Y26109D02*
D03*
X724109Y29645D02*
D03*
X720574Y33181D02*
D03*
X717038Y36716D02*
D03*
X713503Y40252D02*
D03*
X709967Y43787D02*
D03*
X706432Y47323D02*
D03*
D129*
X805568D02*
D03*
X802033Y43787D02*
D03*
X798497Y40252D02*
D03*
X794962Y36716D02*
D03*
X791426Y33181D02*
D03*
X787890Y29645D02*
D03*
X784355Y26109D02*
D03*
X780819Y22574D02*
D03*
X777284Y19038D02*
D03*
X773748Y15503D02*
D03*
X770213Y11967D02*
D03*
X766677Y8432D02*
D03*
X706432Y68677D02*
D03*
X709967Y72213D02*
D03*
X713503Y75748D02*
D03*
X717038Y79284D02*
D03*
X720574Y82819D02*
D03*
X724109Y86355D02*
D03*
X727645Y89890D02*
D03*
X731181Y93426D02*
D03*
X734716Y96962D02*
D03*
X738252Y100497D02*
D03*
X741787Y104033D02*
D03*
X745323Y107568D02*
D03*
D130*
X741000Y-17950D02*
D03*
D131*
Y-30650D02*
D03*
Y-43350D02*
D03*
Y-56050D02*
D03*
X793000D02*
D03*
Y-43350D02*
D03*
Y-30650D02*
D03*
Y-17950D02*
D03*
D132*
X870000Y209750D02*
D03*
X880000D02*
D03*
X875000D02*
D03*
X865000D02*
D03*
X860000D02*
D03*
X880000Y180250D02*
D03*
X875000D02*
D03*
X865000D02*
D03*
X860000D02*
D03*
X870000D02*
D03*
D133*
Y195000D02*
D03*
D134*
X854500Y197500D02*
D03*
Y192500D02*
D03*
X885500Y197500D02*
D03*
Y192500D02*
D03*
D135*
X724600Y-189000D02*
D03*
X750000D02*
D03*
X775400D02*
D03*
X800800D02*
D03*
X724600Y-99000D02*
D03*
X750000D02*
D03*
X775400D02*
D03*
D136*
X800800D02*
D03*
D137*
X619000Y-177000D02*
D03*
D138*
X621500Y-157000D02*
D03*
X626500D02*
D03*
X631500D02*
D03*
X606500D02*
D03*
X611500D02*
D03*
X616500D02*
D03*
Y-197000D02*
D03*
X611500D02*
D03*
X606500D02*
D03*
X631500D02*
D03*
X626500D02*
D03*
X621500D02*
D03*
D139*
X639000Y-179500D02*
D03*
Y-184500D02*
D03*
Y-189500D02*
D03*
Y-164500D02*
D03*
Y-169500D02*
D03*
Y-174500D02*
D03*
X599000Y-179500D02*
D03*
Y-184500D02*
D03*
Y-189500D02*
D03*
Y-164500D02*
D03*
Y-169500D02*
D03*
Y-174500D02*
D03*
D140*
X861000Y-40000D02*
D03*
Y-45000D02*
D03*
Y-50000D02*
D03*
Y-35000D02*
D03*
Y-30000D02*
D03*
X817000Y-50000D02*
D03*
Y-45000D02*
D03*
Y-30000D02*
D03*
Y-35000D02*
D03*
Y-40000D02*
D03*
D141*
X830250Y-161000D02*
D03*
X836750D02*
D03*
X843250D02*
D03*
X849750D02*
D03*
X856250D02*
D03*
X862750D02*
D03*
X869250D02*
D03*
X875750D02*
D03*
X830250Y-105000D02*
D03*
X836750D02*
D03*
X843250D02*
D03*
X849750D02*
D03*
X856250D02*
D03*
X862750D02*
D03*
X869250D02*
D03*
D142*
X875750D02*
D03*
D143*
X621250Y-280500D02*
D03*
X598750D02*
D03*
D144*
X610000Y-254000D02*
D03*
X603500D02*
D03*
X597000D02*
D03*
X616500D02*
D03*
X623000D02*
D03*
D145*
X586500Y-258200D02*
D03*
X633500D02*
D03*
D146*
X752500Y-245500D02*
D03*
X727500D02*
D03*
X740000D02*
D03*
X715000D02*
D03*
X765000D02*
D03*
D147*
X689500Y-275000D02*
D03*
X790500D02*
D03*
X669500Y205000D02*
D03*
X770500D02*
D03*
X669500Y276000D02*
D03*
X770500D02*
D03*
D148*
X612000Y178500D02*
D03*
Y129500D02*
D03*
D149*
X588000Y172500D02*
D03*
Y135500D02*
D03*
X636000D02*
D03*
Y172500D02*
D03*
D150*
X191900Y-105000D02*
D03*
Y-75000D02*
D03*
Y-45000D02*
D03*
X192000Y-15000D02*
D03*
X191900Y15000D02*
D03*
Y45000D02*
D03*
Y75000D02*
D03*
Y105000D02*
D03*
X238100Y45000D02*
D03*
Y15000D02*
D03*
Y-75000D02*
D03*
Y-105000D02*
D03*
Y-45000D02*
D03*
Y-15000D02*
D03*
Y75000D02*
D03*
Y105000D02*
D03*
D151*
X695000Y179000D02*
D03*
X745000D02*
D03*
X720000D02*
D03*
X732500D02*
D03*
X707500D02*
D03*
X695000Y250000D02*
D03*
X745000D02*
D03*
X720000D02*
D03*
X732500D02*
D03*
X707500D02*
D03*
D152*
X820000Y217750D02*
D03*
Y172250D02*
D03*
D153*
X1318750Y25000D02*
D03*
D154*
X1219250Y-13100D02*
D03*
Y-400D02*
D03*
Y12300D02*
D03*
Y37700D02*
D03*
Y50370D02*
D03*
Y63100D02*
D03*
D155*
X1105000Y-11250D02*
D03*
X985000D02*
D03*
D156*
X1143100Y-110750D02*
D03*
X1130400D02*
D03*
X1117700D02*
D03*
X1092300D02*
D03*
X1079630D02*
D03*
X1066900D02*
D03*
X1023100D02*
D03*
X1010400D02*
D03*
X997700D02*
D03*
X972300D02*
D03*
X959630D02*
D03*
X946900D02*
D03*
D157*
X1199500Y107000D02*
D03*
D158*
X1137000Y84000D02*
D03*
Y130000D02*
D03*
D159*
X458000Y-265500D02*
D03*
X438000Y-256000D02*
D03*
X458000Y-219500D02*
D03*
X438000Y-210000D02*
D03*
X458000Y-173500D02*
D03*
X438000Y-164000D02*
D03*
X458000Y-127500D02*
D03*
X438000Y-118000D02*
D03*
X458000Y-81500D02*
D03*
X438000Y-72000D02*
D03*
X458000Y-35500D02*
D03*
X438000Y-26000D02*
D03*
X458000Y10500D02*
D03*
X438000Y20000D02*
D03*
X458000Y56500D02*
D03*
X438000Y66000D02*
D03*
X458000Y102500D02*
D03*
X438000Y112000D02*
D03*
X458000Y148500D02*
D03*
X438000Y158000D02*
D03*
X458000Y194500D02*
D03*
X438000Y204000D02*
D03*
X458000Y240500D02*
D03*
X438000Y250000D02*
D03*
X834000Y126500D02*
D03*
X854000Y117000D02*
D03*
X834000Y91500D02*
D03*
X854000Y82000D02*
D03*
X853000Y38500D02*
D03*
X833000Y48000D02*
D03*
X854000Y-179500D02*
D03*
X874000Y-189000D02*
D03*
D160*
X458000Y-246500D02*
D03*
Y-200500D02*
D03*
Y-154500D02*
D03*
Y-108500D02*
D03*
Y-62500D02*
D03*
Y-16500D02*
D03*
Y29500D02*
D03*
Y75500D02*
D03*
Y121500D02*
D03*
Y167500D02*
D03*
Y213500D02*
D03*
Y259500D02*
D03*
X834000Y107500D02*
D03*
Y72500D02*
D03*
X853000Y57500D02*
D03*
X854000Y-198500D02*
D03*
D161*
X765500Y141000D02*
D03*
X756000Y121000D02*
D03*
X702500Y-83000D02*
D03*
X693000Y-103000D02*
D03*
D162*
X746500Y141000D02*
D03*
X683500Y-83000D02*
D03*
D163*
X241500Y-270000D02*
D03*
X178500D02*
D03*
X241500Y270000D02*
D03*
X178500D02*
D03*
X419500Y-256000D02*
D03*
X356500D02*
D03*
X419500Y-210000D02*
D03*
X356500D02*
D03*
X419500Y-164000D02*
D03*
X356500D02*
D03*
X419500Y-118000D02*
D03*
X356500D02*
D03*
X419500Y-72000D02*
D03*
X356500D02*
D03*
X419500Y-26000D02*
D03*
X356500D02*
D03*
X419500Y20000D02*
D03*
X356500D02*
D03*
X419500Y66000D02*
D03*
X356500D02*
D03*
X419500Y112000D02*
D03*
X356500D02*
D03*
X419500Y158000D02*
D03*
X356500D02*
D03*
X419500Y204000D02*
D03*
X356500D02*
D03*
X419500Y250000D02*
D03*
X356500D02*
D03*
D164*
X812500Y-259000D02*
D03*
X839500D02*
D03*
D165*
X1000000Y73000D02*
D03*
X1000002Y107002D02*
D03*
D166*
X1259000Y110000D02*
D03*
X1341000D02*
D03*
D167*
X580250Y34500D02*
D03*
D168*
Y29500D02*
D03*
Y24500D02*
D03*
Y19500D02*
D03*
Y14500D02*
D03*
Y9500D02*
D03*
Y4500D02*
D03*
Y-500D02*
D03*
Y-5500D02*
D03*
Y-10500D02*
D03*
Y-15500D02*
D03*
Y-20500D02*
D03*
Y-25500D02*
D03*
Y-30500D02*
D03*
Y-35500D02*
D03*
Y-40500D02*
D03*
Y-45500D02*
D03*
Y-50500D02*
D03*
Y-55500D02*
D03*
Y-60500D02*
D03*
Y-65500D02*
D03*
Y-70500D02*
D03*
X649750Y34500D02*
D03*
Y29500D02*
D03*
Y24500D02*
D03*
Y19500D02*
D03*
Y14500D02*
D03*
Y9500D02*
D03*
Y4500D02*
D03*
Y-500D02*
D03*
Y-5500D02*
D03*
Y-10500D02*
D03*
Y-15500D02*
D03*
Y-20500D02*
D03*
Y-25500D02*
D03*
Y-30500D02*
D03*
Y-35500D02*
D03*
Y-40500D02*
D03*
Y-45500D02*
D03*
Y-50500D02*
D03*
Y-55500D02*
D03*
Y-60500D02*
D03*
Y-65500D02*
D03*
Y-70500D02*
D03*
D169*
X717434Y131434D02*
D03*
X690566Y104565D02*
D03*
D170*
X1150000Y-200000D02*
D03*
Y200000D02*
D03*
X250000D02*
D03*
Y-200000D02*
D03*
D171*
X625000Y250000D02*
D03*
X895000D02*
D03*
D172*
X870000Y195000D02*
D03*
X862500Y200000D02*
D03*
Y190000D02*
D03*
X877500D02*
D03*
Y200000D02*
D03*
D173*
X1261900Y-212700D02*
D03*
Y-187300D02*
D03*
Y-161900D02*
D03*
X1287300D02*
D03*
X1312700D02*
D03*
X1338100D02*
D03*
Y-187300D02*
D03*
Y-212700D02*
D03*
Y-238100D02*
D03*
X1261900D02*
D03*
X1287300D02*
D03*
X1312700D02*
D03*
X961900Y187300D02*
D03*
Y212700D02*
D03*
Y238100D02*
D03*
X987300D02*
D03*
X1012700D02*
D03*
X1038100D02*
D03*
Y212700D02*
D03*
Y187300D02*
D03*
Y161900D02*
D03*
X961900D02*
D03*
X987300D02*
D03*
X1012700D02*
D03*
X961900Y-212700D02*
D03*
Y-187300D02*
D03*
Y-161900D02*
D03*
X987300D02*
D03*
X1012700D02*
D03*
X1038100D02*
D03*
Y-187300D02*
D03*
Y-212700D02*
D03*
Y-238100D02*
D03*
X961900D02*
D03*
X987300D02*
D03*
X1012700D02*
D03*
X61900Y187300D02*
D03*
Y212700D02*
D03*
Y238100D02*
D03*
X87300D02*
D03*
X112700D02*
D03*
X138100D02*
D03*
Y212700D02*
D03*
Y187300D02*
D03*
Y161900D02*
D03*
X61900D02*
D03*
X87300D02*
D03*
X112700D02*
D03*
X61900Y-212700D02*
D03*
Y-187300D02*
D03*
Y-161900D02*
D03*
X87300D02*
D03*
X112700D02*
D03*
X138100D02*
D03*
Y-187300D02*
D03*
Y-212700D02*
D03*
Y-238100D02*
D03*
X61900D02*
D03*
X87300D02*
D03*
X112700D02*
D03*
X1261900Y187300D02*
D03*
Y212700D02*
D03*
Y238100D02*
D03*
X1287300D02*
D03*
X1312700D02*
D03*
X1338100D02*
D03*
Y212700D02*
D03*
Y187300D02*
D03*
Y161900D02*
D03*
X1261900D02*
D03*
X1287300D02*
D03*
X1312700D02*
D03*
X900000Y-222000D02*
D03*
Y-272000D02*
D03*
D174*
X1300000Y-200000D02*
D03*
X1000000Y200000D02*
D03*
Y-200000D02*
D03*
X100000Y200000D02*
D03*
Y-200000D02*
D03*
X1300000Y200000D02*
D03*
D175*
X574250Y-280500D02*
D03*
X645750D02*
D03*
D176*
X137100Y126600D02*
D03*
Y-126600D02*
D03*
M02*
