G04 Layer_Physical_Order=2*
G04 Layer_Color=36540*
%FSLAX44Y44*%
%MOMM*%
G71*
G01*
G75*
%ADD77C,0.3000*%
%ADD85C,6.0000*%
%ADD86C,0.5000*%
%ADD87C,2.0000*%
%ADD88C,1.9000*%
%ADD90C,0.5500*%
%ADD91C,0.8000*%
G36*
X1356131Y296572D02*
X1362158Y295373D01*
X1367976Y293398D01*
X1373487Y290680D01*
X1378596Y287267D01*
X1383215Y283215D01*
X1387267Y278596D01*
X1390680Y273487D01*
X1393398Y267976D01*
X1395373Y262158D01*
X1396572Y256131D01*
X1396966Y250122D01*
X1396941Y250000D01*
Y-250000D01*
X1396966Y-250122D01*
X1396572Y-256131D01*
X1395373Y-262158D01*
X1393398Y-267976D01*
X1390680Y-273487D01*
X1387267Y-278596D01*
X1383215Y-283215D01*
X1378596Y-287267D01*
X1373487Y-290680D01*
X1367976Y-293398D01*
X1362158Y-295373D01*
X1356131Y-296572D01*
X1350122Y-296966D01*
X1350000Y-296941D01*
X834000D01*
X834000Y-244000D01*
X825000Y-235000D01*
Y-165000D01*
X810000Y-150000D01*
X680000Y-150000D01*
X665000Y-165000D01*
X665000Y-296941D01*
X200000D01*
Y-245000D01*
X175000Y-220000D01*
Y220000D01*
X200000Y245000D01*
Y296941D01*
X1350000D01*
X1350122Y296966D01*
X1356131Y296572D01*
D02*
G37*
G36*
X50000Y296941D02*
X189998D01*
X189998Y249998D01*
X180000Y240000D01*
X160000Y220000D01*
Y-220000D01*
X180000Y-240000D01*
X190000Y-250000D01*
X190000Y-296941D01*
X50000D01*
X49878Y-296966D01*
X43869Y-296572D01*
X37842Y-295373D01*
X32024Y-293398D01*
X26513Y-290680D01*
X21404Y-287267D01*
X16785Y-283215D01*
X12733Y-278596D01*
X9320Y-273487D01*
X6602Y-267976D01*
X4627Y-262158D01*
X3428Y-256131D01*
X3034Y-250122D01*
X3059Y-250000D01*
Y-50000D01*
X40000D01*
Y50000D01*
X3059D01*
Y250000D01*
X3034Y250122D01*
X3428Y256131D01*
X4627Y262158D01*
X6602Y267976D01*
X9320Y273487D01*
X12733Y278596D01*
X16785Y283215D01*
X21404Y287267D01*
X26513Y290680D01*
X32024Y293398D01*
X37842Y295373D01*
X43869Y296572D01*
X49878Y296966D01*
X50000Y296941D01*
D02*
G37*
%LPC*%
G36*
X859000Y-62157D02*
X857147Y-62526D01*
X855575Y-63575D01*
X854706Y-64877D01*
X854239Y-64979D01*
X853761D01*
X853294Y-64877D01*
X852425Y-63575D01*
X850853Y-62526D01*
X849000Y-62157D01*
X847147Y-62526D01*
X845575Y-63575D01*
X844706Y-64877D01*
X844239Y-64979D01*
X843761D01*
X843294Y-64877D01*
X842425Y-63575D01*
X840853Y-62526D01*
X839000Y-62157D01*
X837147Y-62526D01*
X835575Y-63575D01*
X834706Y-64877D01*
X834239Y-64979D01*
X833761D01*
X833294Y-64877D01*
X832424Y-63575D01*
X830853Y-62526D01*
X829000Y-62157D01*
X827147Y-62526D01*
X825575Y-63575D01*
X824526Y-65147D01*
X824157Y-67000D01*
X824526Y-68853D01*
X825575Y-70424D01*
X827147Y-71474D01*
X829000Y-71843D01*
X830853Y-71474D01*
X832424Y-70424D01*
X833294Y-69123D01*
X833761Y-69021D01*
X834239D01*
X834706Y-69123D01*
X835575Y-70424D01*
X837147Y-71474D01*
X839000Y-71843D01*
X840853Y-71474D01*
X842425Y-70424D01*
X843294Y-69123D01*
X843761Y-69021D01*
X844239D01*
X844706Y-69123D01*
X845575Y-70424D01*
X847147Y-71474D01*
X849000Y-71843D01*
X850853Y-71474D01*
X852425Y-70424D01*
X853294Y-69123D01*
X853761Y-69021D01*
X854239D01*
X854706Y-69123D01*
X855575Y-70424D01*
X857147Y-71474D01*
X859000Y-71843D01*
X860853Y-71474D01*
X862425Y-70424D01*
X863474Y-68853D01*
X863843Y-67000D01*
X863474Y-65147D01*
X862425Y-63575D01*
X860853Y-62526D01*
X859000Y-62157D01*
D02*
G37*
G36*
X889000Y-55157D02*
X887147Y-55526D01*
X885575Y-56575D01*
X884526Y-58147D01*
X884157Y-60000D01*
X884526Y-61853D01*
X885575Y-63425D01*
X887147Y-64474D01*
X889000Y-64843D01*
X890853Y-64474D01*
X892425Y-63425D01*
X893474Y-61853D01*
X893843Y-60000D01*
X893474Y-58147D01*
X892425Y-56575D01*
X890853Y-55526D01*
X889000Y-55157D01*
D02*
G37*
G36*
X451500Y-47931D02*
X449412Y-48206D01*
X447466Y-49012D01*
X445794Y-50294D01*
X444512Y-51965D01*
X443706Y-53912D01*
X443431Y-56000D01*
X443706Y-58088D01*
X444512Y-60034D01*
X445794Y-61706D01*
X447466Y-62988D01*
X449412Y-63794D01*
X451500Y-64069D01*
X453588Y-63794D01*
X455535Y-62988D01*
X457206Y-61706D01*
X458488Y-60034D01*
X459294Y-58088D01*
X459569Y-56000D01*
X459294Y-53912D01*
X458488Y-51965D01*
X457206Y-50294D01*
X455535Y-49012D01*
X453588Y-48206D01*
X451500Y-47931D01*
D02*
G37*
G36*
X808000Y-64157D02*
X806147Y-64526D01*
X804576Y-65575D01*
X803526Y-67147D01*
X803157Y-69000D01*
X803526Y-70853D01*
X804576Y-72425D01*
X806147Y-73474D01*
X808000Y-73843D01*
X809853Y-73474D01*
X811425Y-72425D01*
X812474Y-70853D01*
X812843Y-69000D01*
X812474Y-67147D01*
X811425Y-65575D01*
X809853Y-64526D01*
X808000Y-64157D01*
D02*
G37*
G36*
X1045000Y-57931D02*
X1042912Y-58206D01*
X1040965Y-59012D01*
X1039294Y-60294D01*
X1038012Y-61965D01*
X1037206Y-63912D01*
X1036931Y-66000D01*
X1037206Y-68088D01*
X1038012Y-70034D01*
X1039294Y-71706D01*
X1039406Y-71791D01*
X1038765Y-72901D01*
X1037088Y-72206D01*
X1035000Y-71931D01*
X1032912Y-72206D01*
X1031235Y-72901D01*
X1030594Y-71791D01*
X1030706Y-71706D01*
X1031988Y-70034D01*
X1032794Y-68088D01*
X1033069Y-66000D01*
X1032794Y-63912D01*
X1031988Y-61965D01*
X1030706Y-60294D01*
X1029035Y-59012D01*
X1027088Y-58206D01*
X1025000Y-57931D01*
X1022912Y-58206D01*
X1020965Y-59012D01*
X1019294Y-60294D01*
X1018012Y-61965D01*
X1017206Y-63912D01*
X1016931Y-66000D01*
X1017206Y-68088D01*
X1018012Y-70034D01*
X1018623Y-70831D01*
X1018062Y-72186D01*
X1017912Y-72206D01*
X1015965Y-73012D01*
X1014294Y-74294D01*
X1013240Y-75669D01*
X1012765Y-75781D01*
X1012235D01*
X1011760Y-75669D01*
X1010706Y-74294D01*
X1010062Y-73800D01*
Y-72200D01*
X1010706Y-71706D01*
X1011988Y-70034D01*
X1012794Y-68088D01*
X1013069Y-66000D01*
X1012794Y-63912D01*
X1011988Y-61965D01*
X1010706Y-60294D01*
X1009035Y-59012D01*
X1007088Y-58206D01*
X1005000Y-57931D01*
X1002912Y-58206D01*
X1000965Y-59012D01*
X999294Y-60294D01*
X998012Y-61965D01*
X997206Y-63912D01*
X996931Y-66000D01*
X997206Y-68088D01*
X998012Y-70034D01*
X999294Y-71706D01*
X999938Y-72200D01*
Y-73800D01*
X999294Y-74294D01*
X998240Y-75669D01*
X997765Y-75781D01*
X997235D01*
X996760Y-75669D01*
X995706Y-74294D01*
X994035Y-73012D01*
X992088Y-72206D01*
X991938Y-72186D01*
X991377Y-70831D01*
X991988Y-70034D01*
X992794Y-68088D01*
X993069Y-66000D01*
X992794Y-63912D01*
X991988Y-61965D01*
X990706Y-60294D01*
X989035Y-59012D01*
X987088Y-58206D01*
X985000Y-57931D01*
X982912Y-58206D01*
X980965Y-59012D01*
X979294Y-60294D01*
X978012Y-61965D01*
X977206Y-63912D01*
X976931Y-66000D01*
X977206Y-68088D01*
X978012Y-70034D01*
X979294Y-71706D01*
X979406Y-71791D01*
X978765Y-72901D01*
X977088Y-72206D01*
X975000Y-71931D01*
X972912Y-72206D01*
X971235Y-72901D01*
X970594Y-71791D01*
X970706Y-71706D01*
X971988Y-70034D01*
X972794Y-68088D01*
X973069Y-66000D01*
X972794Y-63912D01*
X971988Y-61965D01*
X970706Y-60294D01*
X969035Y-59012D01*
X967088Y-58206D01*
X965000Y-57931D01*
X962912Y-58206D01*
X960965Y-59012D01*
X959294Y-60294D01*
X958012Y-61965D01*
X957206Y-63912D01*
X956931Y-66000D01*
X957206Y-68088D01*
X958012Y-70034D01*
X958623Y-70831D01*
X958062Y-72186D01*
X957912Y-72206D01*
X955965Y-73012D01*
X954294Y-74294D01*
X953012Y-75965D01*
X952918Y-76192D01*
X951655Y-76316D01*
X951226Y-75674D01*
X949241Y-74348D01*
X949125Y-74325D01*
X948995Y-73004D01*
X949035Y-72988D01*
X950706Y-71706D01*
X951988Y-70034D01*
X952794Y-68088D01*
X953069Y-66000D01*
X952794Y-63912D01*
X951988Y-61965D01*
X950706Y-60294D01*
X949035Y-59012D01*
X947088Y-58206D01*
X945000Y-57931D01*
X942912Y-58206D01*
X940965Y-59012D01*
X939294Y-60294D01*
X938012Y-61965D01*
X937206Y-63912D01*
X936931Y-66000D01*
X937206Y-68088D01*
X938012Y-70034D01*
X939294Y-71706D01*
X940965Y-72988D01*
X942912Y-73794D01*
X943071Y-73815D01*
X943379Y-75137D01*
X942574Y-75674D01*
X941248Y-77659D01*
X940782Y-80000D01*
X941248Y-82341D01*
X942574Y-84326D01*
X944559Y-85652D01*
X946900Y-86117D01*
X949241Y-85652D01*
X951226Y-84326D01*
X951655Y-83684D01*
X952918Y-83808D01*
X953012Y-84035D01*
X954294Y-85706D01*
X955965Y-86988D01*
X957912Y-87794D01*
X960000Y-88069D01*
X962088Y-87794D01*
X964035Y-86988D01*
X965706Y-85706D01*
X966760Y-84331D01*
X967235Y-84219D01*
X967765D01*
X968240Y-84331D01*
X969294Y-85706D01*
X970965Y-86988D01*
X972912Y-87794D01*
X975000Y-88069D01*
X977088Y-87794D01*
X979035Y-86988D01*
X980706Y-85706D01*
X981760Y-84331D01*
X982235Y-84219D01*
X982765D01*
X983240Y-84331D01*
X984294Y-85706D01*
X985965Y-86988D01*
X987912Y-87794D01*
X990000Y-88069D01*
X992088Y-87794D01*
X994035Y-86988D01*
X995706Y-85706D01*
X996760Y-84331D01*
X997235Y-84219D01*
X997765D01*
X998240Y-84331D01*
X999294Y-85706D01*
X1000965Y-86988D01*
X1002912Y-87794D01*
X1005000Y-88069D01*
X1007088Y-87794D01*
X1009035Y-86988D01*
X1010706Y-85706D01*
X1011760Y-84331D01*
X1012235Y-84219D01*
X1012765D01*
X1013240Y-84331D01*
X1014294Y-85706D01*
X1015965Y-86988D01*
X1017912Y-87794D01*
X1020000Y-88069D01*
X1022088Y-87794D01*
X1024035Y-86988D01*
X1025706Y-85706D01*
X1026760Y-84331D01*
X1027235Y-84219D01*
X1027765D01*
X1028240Y-84331D01*
X1029294Y-85706D01*
X1030965Y-86988D01*
X1032912Y-87794D01*
X1035000Y-88069D01*
X1037088Y-87794D01*
X1039035Y-86988D01*
X1040706Y-85706D01*
X1041760Y-84331D01*
X1042235Y-84219D01*
X1042765D01*
X1043240Y-84331D01*
X1044294Y-85706D01*
X1045965Y-86988D01*
X1047912Y-87794D01*
X1050000Y-88069D01*
X1052088Y-87794D01*
X1054035Y-86988D01*
X1055706Y-85706D01*
X1056988Y-84035D01*
X1057794Y-82088D01*
X1058069Y-80000D01*
X1057794Y-77912D01*
X1056988Y-75965D01*
X1055706Y-74294D01*
X1054035Y-73012D01*
X1052088Y-72206D01*
X1051938Y-72186D01*
X1051377Y-70831D01*
X1051988Y-70034D01*
X1052794Y-68088D01*
X1053069Y-66000D01*
X1052794Y-63912D01*
X1051988Y-61965D01*
X1050706Y-60294D01*
X1049035Y-59012D01*
X1047088Y-58206D01*
X1045000Y-57931D01*
D02*
G37*
G36*
X600000Y-61157D02*
X598147Y-61526D01*
X596575Y-62575D01*
X595526Y-64147D01*
X595157Y-66000D01*
X595526Y-67853D01*
X596575Y-69425D01*
X598147Y-70474D01*
X600000Y-70843D01*
X601853Y-70474D01*
X603424Y-69425D01*
X604474Y-67853D01*
X604843Y-66000D01*
X604474Y-64147D01*
X603424Y-62575D01*
X601853Y-61526D01*
X600000Y-61157D01*
D02*
G37*
G36*
X778000Y-51157D02*
X776147Y-51526D01*
X774575Y-52575D01*
X773526Y-54147D01*
X773157Y-56000D01*
X773526Y-57853D01*
X774575Y-59425D01*
X776147Y-60474D01*
X778000Y-60843D01*
X779853Y-60474D01*
X781424Y-59425D01*
X782474Y-57853D01*
X782843Y-56000D01*
X782474Y-54147D01*
X781424Y-52575D01*
X779853Y-51526D01*
X778000Y-51157D01*
D02*
G37*
G36*
X830000Y-32157D02*
X828147Y-32526D01*
X826575Y-33575D01*
X825526Y-35147D01*
X825157Y-37000D01*
X825526Y-38853D01*
X826575Y-40424D01*
Y-41575D01*
X825526Y-43147D01*
X825157Y-45000D01*
X825526Y-46853D01*
X826575Y-48425D01*
Y-49576D01*
X825526Y-51147D01*
X825157Y-53000D01*
X825526Y-54853D01*
X826575Y-56425D01*
X828147Y-57474D01*
X830000Y-57843D01*
X831853Y-57474D01*
X833425Y-56425D01*
X834474Y-54853D01*
X834843Y-53000D01*
X834474Y-51147D01*
X833425Y-49576D01*
Y-48425D01*
X834474Y-46853D01*
X834843Y-45000D01*
X834474Y-43147D01*
X833425Y-41575D01*
Y-40424D01*
X834474Y-38853D01*
X834843Y-37000D01*
X834474Y-35147D01*
X833425Y-33575D01*
X831853Y-32526D01*
X830000Y-32157D01*
D02*
G37*
G36*
X213000Y-36931D02*
X210912Y-37206D01*
X208965Y-38012D01*
X207294Y-39294D01*
X206012Y-40965D01*
X205206Y-42912D01*
X204931Y-45000D01*
X205206Y-47088D01*
X206012Y-49035D01*
X207294Y-50706D01*
X208965Y-51988D01*
X210912Y-52794D01*
X213000Y-53069D01*
X215088Y-52794D01*
X217034Y-51988D01*
X218706Y-50706D01*
X219988Y-49035D01*
X220794Y-47088D01*
X221069Y-45000D01*
X220794Y-42912D01*
X219988Y-40965D01*
X218706Y-39294D01*
X217034Y-38012D01*
X215088Y-37206D01*
X213000Y-36931D01*
D02*
G37*
G36*
X746000Y-62157D02*
X744147Y-62526D01*
X742576Y-63575D01*
X741424D01*
X739853Y-62526D01*
X738000Y-62157D01*
X736147Y-62526D01*
X734576Y-63575D01*
X733425D01*
X731853Y-62526D01*
X730000Y-62157D01*
X728147Y-62526D01*
X726575Y-63575D01*
X725424D01*
X723853Y-62526D01*
X722000Y-62157D01*
X720147Y-62526D01*
X718575Y-63575D01*
X717526Y-65147D01*
X717157Y-67000D01*
X717526Y-68853D01*
X718575Y-70424D01*
X720147Y-71474D01*
X722000Y-71843D01*
X723853Y-71474D01*
X725424Y-70424D01*
X726575D01*
X728147Y-71474D01*
X730000Y-71843D01*
X731853Y-71474D01*
X733425Y-70424D01*
X734576D01*
X736147Y-71474D01*
X738000Y-71843D01*
X739853Y-71474D01*
X741424Y-70424D01*
X742576D01*
X744147Y-71474D01*
X746000Y-71843D01*
X747853Y-71474D01*
X749425Y-70424D01*
X750474Y-68853D01*
X750843Y-67000D01*
X750474Y-65147D01*
X749425Y-63575D01*
X747853Y-62526D01*
X746000Y-62157D01*
D02*
G37*
G36*
X594000Y-51157D02*
X592147Y-51526D01*
X590575Y-52575D01*
X589526Y-54147D01*
X589157Y-56000D01*
X589526Y-57853D01*
X590575Y-59425D01*
X592147Y-60474D01*
X594000Y-60843D01*
X595853Y-60474D01*
X597425Y-59425D01*
X598474Y-57853D01*
X598843Y-56000D01*
X598474Y-54147D01*
X597425Y-52575D01*
X595853Y-51526D01*
X594000Y-51157D01*
D02*
G37*
G36*
X687000Y-41157D02*
X685147Y-41526D01*
X683575Y-42575D01*
X682526Y-44147D01*
X682157Y-46000D01*
X682526Y-47853D01*
X683575Y-49425D01*
X684877Y-50294D01*
X684979Y-50761D01*
Y-51239D01*
X684877Y-51706D01*
X683575Y-52575D01*
X682526Y-54147D01*
X682157Y-56000D01*
X682526Y-57853D01*
X683575Y-59425D01*
X685147Y-60474D01*
X687000Y-60843D01*
X688853Y-60474D01*
X690425Y-59425D01*
X691474Y-57853D01*
X691843Y-56000D01*
X691474Y-54147D01*
X690425Y-52575D01*
X689123Y-51706D01*
X689021Y-51239D01*
Y-50761D01*
X689123Y-50294D01*
X690425Y-49425D01*
X691474Y-47853D01*
X691843Y-46000D01*
X691474Y-44147D01*
X690425Y-42575D01*
X688853Y-41526D01*
X687000Y-41157D01*
D02*
G37*
G36*
X704000Y-98157D02*
X702147Y-98526D01*
X700575Y-99575D01*
X699526Y-101147D01*
X699157Y-103000D01*
X699526Y-104853D01*
X700575Y-106425D01*
X702147Y-107474D01*
X704000Y-107843D01*
X705853Y-107474D01*
X707424Y-106425D01*
X708474Y-104853D01*
X708843Y-103000D01*
X708474Y-101147D01*
X707424Y-99575D01*
X705853Y-98526D01*
X704000Y-98157D01*
D02*
G37*
G36*
X905000Y-88157D02*
X903147Y-88526D01*
X901575Y-89575D01*
X900526Y-91147D01*
X900157Y-93000D01*
X900526Y-94853D01*
X901575Y-96425D01*
X903147Y-97474D01*
X905000Y-97843D01*
X906853Y-97474D01*
X908425Y-96425D01*
X909474Y-94853D01*
X909843Y-93000D01*
X909474Y-91147D01*
X908425Y-89575D01*
X906853Y-88526D01*
X905000Y-88157D01*
D02*
G37*
G36*
X923000D02*
X921147Y-88526D01*
X919576Y-89575D01*
X918526Y-91147D01*
X918157Y-93000D01*
X918526Y-94853D01*
X919576Y-96425D01*
X921147Y-97474D01*
X923000Y-97843D01*
X924853Y-97474D01*
X926425Y-96425D01*
X927474Y-94853D01*
X927843Y-93000D01*
X927474Y-91147D01*
X926425Y-89575D01*
X924853Y-88526D01*
X923000Y-88157D01*
D02*
G37*
G36*
X985000Y-91931D02*
X982912Y-92206D01*
X980965Y-93012D01*
X979294Y-94294D01*
X978012Y-95965D01*
X977206Y-97912D01*
X976931Y-100000D01*
X977206Y-102088D01*
X978012Y-104035D01*
X979294Y-105706D01*
X980965Y-106988D01*
X982912Y-107794D01*
X985000Y-108069D01*
X987088Y-107794D01*
X989035Y-106988D01*
X990706Y-105706D01*
X991988Y-104035D01*
X992794Y-102088D01*
X993069Y-100000D01*
X992794Y-97912D01*
X991988Y-95965D01*
X990706Y-94294D01*
X989035Y-93012D01*
X987088Y-92206D01*
X985000Y-91931D01*
D02*
G37*
G36*
X1105000D02*
X1102912Y-92206D01*
X1100965Y-93012D01*
X1099294Y-94294D01*
X1098012Y-95965D01*
X1097206Y-97912D01*
X1096931Y-100000D01*
X1097206Y-102088D01*
X1098012Y-104035D01*
X1099294Y-105706D01*
X1100965Y-106988D01*
X1102912Y-107794D01*
X1105000Y-108069D01*
X1107088Y-107794D01*
X1109035Y-106988D01*
X1110706Y-105706D01*
X1111988Y-104035D01*
X1112794Y-102088D01*
X1113069Y-100000D01*
X1112794Y-97912D01*
X1111988Y-95965D01*
X1110706Y-94294D01*
X1109035Y-93012D01*
X1107088Y-92206D01*
X1105000Y-91931D01*
D02*
G37*
G36*
X1155000D02*
X1152912Y-92206D01*
X1150965Y-93012D01*
X1149294Y-94294D01*
X1148012Y-95965D01*
X1147206Y-97912D01*
X1146931Y-100000D01*
X1147206Y-102088D01*
X1148012Y-104035D01*
X1149294Y-105706D01*
X1150965Y-106988D01*
X1152912Y-107794D01*
X1155000Y-108069D01*
X1157088Y-107794D01*
X1159035Y-106988D01*
X1160706Y-105706D01*
X1161988Y-104035D01*
X1162794Y-102088D01*
X1163069Y-100000D01*
X1162794Y-97912D01*
X1161988Y-95965D01*
X1160706Y-94294D01*
X1159035Y-93012D01*
X1157088Y-92206D01*
X1155000Y-91931D01*
D02*
G37*
G36*
X1145000Y-57931D02*
X1142912Y-58206D01*
X1140965Y-59012D01*
X1139294Y-60294D01*
X1138012Y-61965D01*
X1137206Y-63912D01*
X1136931Y-66000D01*
X1137206Y-68088D01*
X1138012Y-70034D01*
X1138623Y-70831D01*
X1138062Y-72186D01*
X1137912Y-72206D01*
X1135965Y-73012D01*
X1134294Y-74294D01*
X1133240Y-75669D01*
X1132765Y-75781D01*
X1132235D01*
X1131760Y-75669D01*
X1130706Y-74294D01*
X1130062Y-73800D01*
Y-72200D01*
X1130706Y-71706D01*
X1131988Y-70034D01*
X1132794Y-68088D01*
X1133069Y-66000D01*
X1132794Y-63912D01*
X1131988Y-61965D01*
X1130706Y-60294D01*
X1129035Y-59012D01*
X1127088Y-58206D01*
X1125000Y-57931D01*
X1122912Y-58206D01*
X1120965Y-59012D01*
X1119294Y-60294D01*
X1118012Y-61965D01*
X1117206Y-63912D01*
X1116931Y-66000D01*
X1117206Y-68088D01*
X1118012Y-70034D01*
X1119294Y-71706D01*
X1119938Y-72200D01*
Y-73800D01*
X1119294Y-74294D01*
X1118240Y-75669D01*
X1117765Y-75781D01*
X1117235D01*
X1116760Y-75669D01*
X1115706Y-74294D01*
X1114035Y-73012D01*
X1112088Y-72206D01*
X1111938Y-72186D01*
X1111377Y-70831D01*
X1111988Y-70034D01*
X1112794Y-68088D01*
X1113069Y-66000D01*
X1112794Y-63912D01*
X1111988Y-61965D01*
X1110706Y-60294D01*
X1109035Y-59012D01*
X1107088Y-58206D01*
X1105000Y-57931D01*
X1102912Y-58206D01*
X1100965Y-59012D01*
X1099294Y-60294D01*
X1098012Y-61965D01*
X1097206Y-63912D01*
X1096931Y-66000D01*
X1097206Y-68088D01*
X1098012Y-70034D01*
X1099294Y-71706D01*
X1099406Y-71791D01*
X1098765Y-72901D01*
X1097088Y-72206D01*
X1095000Y-71931D01*
X1092912Y-72206D01*
X1091235Y-72901D01*
X1090594Y-71791D01*
X1090706Y-71706D01*
X1091988Y-70034D01*
X1092794Y-68088D01*
X1093069Y-66000D01*
X1092794Y-63912D01*
X1091988Y-61965D01*
X1090706Y-60294D01*
X1089035Y-59012D01*
X1087088Y-58206D01*
X1085000Y-57931D01*
X1082912Y-58206D01*
X1080965Y-59012D01*
X1079294Y-60294D01*
X1078012Y-61965D01*
X1077206Y-63912D01*
X1076931Y-66000D01*
X1077206Y-68088D01*
X1078012Y-70034D01*
X1078623Y-70831D01*
X1078062Y-72186D01*
X1077912Y-72206D01*
X1075965Y-73012D01*
X1074294Y-74294D01*
X1073012Y-75965D01*
X1072957Y-76099D01*
X1071693Y-76224D01*
X1071326Y-75674D01*
X1069341Y-74348D01*
X1069158Y-74312D01*
X1069027Y-72991D01*
X1069035Y-72988D01*
X1070706Y-71706D01*
X1071988Y-70034D01*
X1072794Y-68088D01*
X1073069Y-66000D01*
X1072794Y-63912D01*
X1071988Y-61965D01*
X1070706Y-60294D01*
X1069035Y-59012D01*
X1067088Y-58206D01*
X1065000Y-57931D01*
X1062912Y-58206D01*
X1060965Y-59012D01*
X1059294Y-60294D01*
X1058012Y-61965D01*
X1057206Y-63912D01*
X1056931Y-66000D01*
X1057206Y-68088D01*
X1058012Y-70034D01*
X1059294Y-71706D01*
X1060965Y-72988D01*
X1062912Y-73794D01*
X1063154Y-73826D01*
X1063463Y-75148D01*
X1062674Y-75674D01*
X1061348Y-77659D01*
X1060882Y-80000D01*
X1061348Y-82341D01*
X1062674Y-84326D01*
X1064659Y-85652D01*
X1067000Y-86117D01*
X1069341Y-85652D01*
X1071326Y-84326D01*
X1071693Y-83776D01*
X1072957Y-83901D01*
X1073012Y-84035D01*
X1074294Y-85706D01*
X1075965Y-86988D01*
X1077912Y-87794D01*
X1080000Y-88069D01*
X1082088Y-87794D01*
X1084035Y-86988D01*
X1085706Y-85706D01*
X1086760Y-84331D01*
X1087235Y-84219D01*
X1087765D01*
X1088240Y-84331D01*
X1089294Y-85706D01*
X1090965Y-86988D01*
X1092912Y-87794D01*
X1095000Y-88069D01*
X1097088Y-87794D01*
X1099035Y-86988D01*
X1100706Y-85706D01*
X1101760Y-84331D01*
X1102235Y-84219D01*
X1102765D01*
X1103240Y-84331D01*
X1104294Y-85706D01*
X1105965Y-86988D01*
X1107912Y-87794D01*
X1110000Y-88069D01*
X1112088Y-87794D01*
X1114035Y-86988D01*
X1115706Y-85706D01*
X1116760Y-84331D01*
X1117235Y-84219D01*
X1117765D01*
X1118240Y-84331D01*
X1119294Y-85706D01*
X1120965Y-86988D01*
X1122912Y-87794D01*
X1125000Y-88069D01*
X1127088Y-87794D01*
X1129035Y-86988D01*
X1130706Y-85706D01*
X1131760Y-84331D01*
X1132235Y-84219D01*
X1132765D01*
X1133240Y-84331D01*
X1134294Y-85706D01*
X1135965Y-86988D01*
X1137912Y-87794D01*
X1140000Y-88069D01*
X1142088Y-87794D01*
X1144035Y-86988D01*
X1145706Y-85706D01*
X1146200Y-85062D01*
X1147800D01*
X1148294Y-85706D01*
X1149966Y-86988D01*
X1151912Y-87794D01*
X1154000Y-88069D01*
X1156088Y-87794D01*
X1158035Y-86988D01*
X1159706Y-85706D01*
X1160988Y-84035D01*
X1161794Y-82088D01*
X1162069Y-80000D01*
X1161794Y-77912D01*
X1160988Y-75965D01*
X1159706Y-74294D01*
X1158035Y-73012D01*
X1156088Y-72206D01*
X1154000Y-71931D01*
X1151924Y-72204D01*
X1151891Y-72179D01*
X1151127Y-71156D01*
X1151988Y-70034D01*
X1152794Y-68088D01*
X1153069Y-66000D01*
X1152794Y-63912D01*
X1151988Y-61965D01*
X1150706Y-60294D01*
X1149035Y-59012D01*
X1147088Y-58206D01*
X1145000Y-57931D01*
D02*
G37*
G36*
X323000Y-57931D02*
X320912Y-58206D01*
X318965Y-59012D01*
X317294Y-60294D01*
X316012Y-61965D01*
X315206Y-63912D01*
X314931Y-66000D01*
X315206Y-68088D01*
X316012Y-70034D01*
X317294Y-71706D01*
X318965Y-72988D01*
X320912Y-73794D01*
X323000Y-74069D01*
X325088Y-73794D01*
X327034Y-72988D01*
X328706Y-71706D01*
X329988Y-70034D01*
X330794Y-68088D01*
X331069Y-66000D01*
X330794Y-63912D01*
X329988Y-61965D01*
X328706Y-60294D01*
X327034Y-59012D01*
X325088Y-58206D01*
X323000Y-57931D01*
D02*
G37*
G36*
X1245000Y-58931D02*
X1242912Y-59206D01*
X1240965Y-60012D01*
X1239294Y-61294D01*
X1238012Y-62965D01*
X1237206Y-64912D01*
X1236931Y-67000D01*
X1237206Y-69088D01*
X1238012Y-71034D01*
X1238909Y-72203D01*
X1238722Y-73526D01*
X1238546Y-73781D01*
X1238289Y-73904D01*
X1238185Y-73894D01*
X1237035Y-73012D01*
X1235088Y-72206D01*
X1233000Y-71931D01*
X1230912Y-72206D01*
X1228966Y-73012D01*
X1227294Y-74294D01*
X1226800Y-74938D01*
X1225200D01*
X1224706Y-74294D01*
X1223035Y-73012D01*
X1221088Y-72206D01*
X1219000Y-71931D01*
X1216912Y-72206D01*
X1214966Y-73012D01*
X1213294Y-74294D01*
X1212800Y-74938D01*
X1211200D01*
X1210706Y-74294D01*
X1209035Y-73012D01*
X1207088Y-72206D01*
X1205000Y-71931D01*
X1202912Y-72206D01*
X1200965Y-73012D01*
X1199294Y-74294D01*
X1198012Y-75965D01*
X1197206Y-77912D01*
X1196931Y-80000D01*
X1197206Y-82088D01*
X1198012Y-84035D01*
X1198805Y-85069D01*
X1199177Y-86000D01*
X1198805Y-86931D01*
X1198012Y-87965D01*
X1197206Y-89912D01*
X1196931Y-92000D01*
X1197206Y-94088D01*
X1198012Y-96034D01*
X1199288Y-97698D01*
X1199502Y-97987D01*
Y-99013D01*
X1199288Y-99302D01*
X1198012Y-100965D01*
X1197206Y-102912D01*
X1196931Y-105000D01*
X1197206Y-107088D01*
X1198012Y-109035D01*
X1199294Y-110706D01*
X1200965Y-111988D01*
X1202912Y-112794D01*
X1205000Y-113069D01*
X1207088Y-112794D01*
X1209035Y-111988D01*
X1210706Y-110706D01*
X1211200Y-110062D01*
X1212800D01*
X1213294Y-110706D01*
X1214966Y-111988D01*
X1216912Y-112794D01*
X1219000Y-113069D01*
X1221088Y-112794D01*
X1223035Y-111988D01*
X1224706Y-110706D01*
X1225200Y-110062D01*
X1226800D01*
X1227294Y-110706D01*
X1228966Y-111988D01*
X1230912Y-112794D01*
X1233000Y-113069D01*
X1235088Y-112794D01*
X1237035Y-111988D01*
X1238185Y-111105D01*
X1238289Y-111096D01*
X1238546Y-111219D01*
X1238732Y-111490D01*
X1238961Y-112729D01*
X1238012Y-113966D01*
X1237206Y-115912D01*
X1236931Y-118000D01*
X1237206Y-120088D01*
X1238012Y-122035D01*
X1239294Y-123706D01*
X1239938Y-124200D01*
Y-125800D01*
X1239294Y-126294D01*
X1238706D01*
X1237035Y-125012D01*
X1235088Y-124206D01*
X1233000Y-123931D01*
X1230912Y-124206D01*
X1228966Y-125012D01*
X1227294Y-126294D01*
X1226800Y-126938D01*
X1225200D01*
X1224706Y-126294D01*
X1223035Y-125012D01*
X1221088Y-124206D01*
X1219000Y-123931D01*
X1216912Y-124206D01*
X1214966Y-125012D01*
X1213294Y-126294D01*
X1212800Y-126938D01*
X1211200D01*
X1210706Y-126294D01*
X1209035Y-125012D01*
X1207088Y-124206D01*
X1205000Y-123931D01*
X1202912Y-124206D01*
X1200965Y-125012D01*
X1199294Y-126294D01*
X1198012Y-127965D01*
X1197206Y-129912D01*
X1196931Y-132000D01*
X1197206Y-134088D01*
X1198012Y-136034D01*
X1199294Y-137706D01*
X1200965Y-138988D01*
X1202912Y-139794D01*
X1205000Y-140069D01*
X1207088Y-139794D01*
X1209035Y-138988D01*
X1210706Y-137706D01*
X1211200Y-137062D01*
X1212800D01*
X1213294Y-137706D01*
X1214966Y-138988D01*
X1216912Y-139794D01*
X1219000Y-140069D01*
X1221088Y-139794D01*
X1223035Y-138988D01*
X1224706Y-137706D01*
X1225200Y-137062D01*
X1226800D01*
X1227294Y-137706D01*
X1228966Y-138988D01*
X1230912Y-139794D01*
X1233000Y-140069D01*
X1235088Y-139794D01*
X1237035Y-138988D01*
X1238677Y-137728D01*
X1239798Y-138160D01*
X1239876Y-139356D01*
X1237116Y-142116D01*
X1236232Y-143439D01*
X1235922Y-145000D01*
X1235922Y-145000D01*
Y-255000D01*
X1235922Y-255000D01*
X1236232Y-256561D01*
X1237116Y-257884D01*
X1242116Y-262884D01*
X1243439Y-263768D01*
X1245000Y-264078D01*
X1245000Y-264078D01*
X1355000D01*
X1355000Y-264078D01*
X1356561Y-263768D01*
X1357884Y-262884D01*
X1362884Y-257884D01*
X1363768Y-256561D01*
X1364078Y-255000D01*
X1364078Y-255000D01*
Y-145000D01*
X1364078Y-145000D01*
X1363768Y-143439D01*
X1362884Y-142116D01*
X1357884Y-137116D01*
X1356561Y-136232D01*
X1355000Y-135922D01*
X1355000Y-135922D01*
X1253178D01*
X1252472Y-134866D01*
X1252794Y-134088D01*
X1253069Y-132000D01*
X1252794Y-129912D01*
X1251988Y-127965D01*
X1250706Y-126294D01*
X1250062Y-125800D01*
Y-124200D01*
X1250706Y-123706D01*
X1251988Y-122035D01*
X1252794Y-120088D01*
X1253069Y-118000D01*
X1252794Y-115912D01*
X1251988Y-113966D01*
X1250712Y-112302D01*
X1250498Y-112013D01*
Y-110987D01*
X1250712Y-110698D01*
X1251988Y-109035D01*
X1252794Y-107088D01*
X1253069Y-105000D01*
X1252794Y-102912D01*
X1251988Y-100965D01*
X1250712Y-99302D01*
X1250498Y-99013D01*
Y-97987D01*
X1250712Y-97698D01*
X1251988Y-96034D01*
X1252794Y-94088D01*
X1253069Y-92000D01*
X1252794Y-89912D01*
X1251988Y-87965D01*
X1251195Y-86931D01*
X1250823Y-86000D01*
X1251195Y-85069D01*
X1251988Y-84035D01*
X1252794Y-82088D01*
X1253069Y-80000D01*
X1252794Y-77912D01*
X1251988Y-75965D01*
X1250712Y-74302D01*
X1250498Y-74013D01*
Y-72987D01*
X1250712Y-72698D01*
X1251988Y-71034D01*
X1252794Y-69088D01*
X1253069Y-67000D01*
X1252794Y-64912D01*
X1251988Y-62965D01*
X1250706Y-61294D01*
X1249035Y-60012D01*
X1247088Y-59206D01*
X1245000Y-58931D01*
D02*
G37*
G36*
X317000Y-78931D02*
X314912Y-79206D01*
X312966Y-80012D01*
X311294Y-81294D01*
X310012Y-82965D01*
X309206Y-84912D01*
X308931Y-87000D01*
X309206Y-89088D01*
X310012Y-91034D01*
X311294Y-92706D01*
X312966Y-93988D01*
X314912Y-94794D01*
X317000Y-95069D01*
X319088Y-94794D01*
X321035Y-93988D01*
X322706Y-92706D01*
X323988Y-91034D01*
X324794Y-89088D01*
X325069Y-87000D01*
X324794Y-84912D01*
X323988Y-82965D01*
X322706Y-81294D01*
X321035Y-80012D01*
X319088Y-79206D01*
X317000Y-78931D01*
D02*
G37*
G36*
X213000Y-66931D02*
X210912Y-67206D01*
X208965Y-68012D01*
X207294Y-69294D01*
X206012Y-70965D01*
X205206Y-72912D01*
X204931Y-75000D01*
X205206Y-77088D01*
X206012Y-79035D01*
X207294Y-80706D01*
X208965Y-81988D01*
X210912Y-82794D01*
X213000Y-83069D01*
X215088Y-82794D01*
X217034Y-81988D01*
X218706Y-80706D01*
X219988Y-79035D01*
X220794Y-77088D01*
X221069Y-75000D01*
X220794Y-72912D01*
X219988Y-70965D01*
X218706Y-69294D01*
X217034Y-68012D01*
X215088Y-67206D01*
X213000Y-66931D01*
D02*
G37*
G36*
X492000Y-68157D02*
X490147Y-68526D01*
X488576Y-69576D01*
X487526Y-71147D01*
X487157Y-73000D01*
X487526Y-74853D01*
X488576Y-76425D01*
X490147Y-77474D01*
X492000Y-77843D01*
X493853Y-77474D01*
X495425Y-76425D01*
X496474Y-74853D01*
X496843Y-73000D01*
X496474Y-71147D01*
X495425Y-69576D01*
X493853Y-68526D01*
X492000Y-68157D01*
D02*
G37*
G36*
X1045000Y-36931D02*
X1042912Y-37206D01*
X1040965Y-38012D01*
X1039294Y-39294D01*
X1038012Y-40965D01*
X1037206Y-42912D01*
X1036931Y-45000D01*
X1037206Y-47088D01*
X1038012Y-49035D01*
X1039294Y-50706D01*
X1040965Y-51988D01*
X1042912Y-52794D01*
X1045000Y-53069D01*
X1047088Y-52794D01*
X1049035Y-51988D01*
X1050706Y-50706D01*
X1051988Y-49035D01*
X1052794Y-47088D01*
X1053069Y-45000D01*
X1052794Y-42912D01*
X1051988Y-40965D01*
X1050706Y-39294D01*
X1049035Y-38012D01*
X1047088Y-37206D01*
X1045000Y-36931D01*
D02*
G37*
G36*
X594000Y-11157D02*
X592147Y-11526D01*
X590575Y-12575D01*
X589526Y-14147D01*
X589157Y-16000D01*
X589526Y-17853D01*
X590575Y-19425D01*
X592147Y-20474D01*
X594000Y-20843D01*
X595853Y-20474D01*
X597425Y-19425D01*
X598474Y-17853D01*
X598843Y-16000D01*
X598474Y-14147D01*
X597425Y-12575D01*
X595853Y-11526D01*
X594000Y-11157D01*
D02*
G37*
G36*
X774000Y-9157D02*
X772147Y-9526D01*
X770575Y-10575D01*
X769526Y-12147D01*
X769157Y-14000D01*
X769526Y-15853D01*
X770575Y-17425D01*
X772147Y-18474D01*
X774000Y-18843D01*
X775853Y-18474D01*
X777425Y-17425D01*
X778474Y-15853D01*
X778843Y-14000D01*
X778474Y-12147D01*
X777425Y-10575D01*
X775853Y-9526D01*
X774000Y-9157D01*
D02*
G37*
G36*
X451500Y-1931D02*
X449412Y-2206D01*
X447466Y-3012D01*
X445794Y-4294D01*
X444512Y-5965D01*
X443706Y-7912D01*
X443431Y-10000D01*
X443706Y-12088D01*
X444512Y-14035D01*
X445794Y-15706D01*
X447466Y-16988D01*
X449412Y-17794D01*
X451500Y-18069D01*
X453588Y-17794D01*
X455535Y-16988D01*
X457206Y-15706D01*
X458488Y-14035D01*
X459294Y-12088D01*
X459569Y-10000D01*
X459294Y-7912D01*
X458488Y-5965D01*
X457206Y-4294D01*
X455535Y-3012D01*
X453588Y-2206D01*
X451500Y-1931D01*
D02*
G37*
G36*
X323000Y-11931D02*
X320912Y-12206D01*
X318965Y-13012D01*
X317294Y-14294D01*
X316012Y-15965D01*
X315206Y-17912D01*
X314931Y-20000D01*
X315206Y-22088D01*
X316012Y-24035D01*
X317294Y-25706D01*
X318965Y-26988D01*
X320912Y-27794D01*
X323000Y-28069D01*
X325088Y-27794D01*
X327034Y-26988D01*
X328706Y-25706D01*
X329988Y-24035D01*
X330794Y-22088D01*
X331069Y-20000D01*
X330794Y-17912D01*
X329988Y-15965D01*
X328706Y-14294D01*
X327034Y-13012D01*
X325088Y-12206D01*
X323000Y-11931D01*
D02*
G37*
G36*
X1255000Y63069D02*
X1252912Y62794D01*
X1250965Y61988D01*
X1249294Y60706D01*
X1248012Y59035D01*
X1247206Y57088D01*
X1246931Y55000D01*
X1247206Y52912D01*
X1248012Y50965D01*
X1249294Y49294D01*
X1250669Y48240D01*
X1250781Y47765D01*
Y47235D01*
X1250669Y46760D01*
X1249294Y45706D01*
X1248012Y44035D01*
X1247206Y42088D01*
X1246931Y40000D01*
X1247206Y37912D01*
X1248012Y35965D01*
X1249294Y34294D01*
X1250669Y33240D01*
X1250781Y32765D01*
Y32235D01*
X1250669Y31760D01*
X1249294Y30706D01*
X1248012Y29035D01*
X1247206Y27088D01*
X1246931Y25000D01*
X1247206Y22912D01*
X1248012Y20965D01*
X1249294Y19294D01*
X1250669Y18240D01*
X1250781Y17765D01*
Y17235D01*
X1250669Y16760D01*
X1249294Y15706D01*
X1248012Y14035D01*
X1247206Y12088D01*
X1246931Y10000D01*
X1247206Y7912D01*
X1248012Y5965D01*
X1249294Y4294D01*
X1250669Y3240D01*
X1250781Y2765D01*
Y2235D01*
X1250669Y1760D01*
X1249294Y706D01*
X1248012Y-966D01*
X1247206Y-2912D01*
X1246931Y-5000D01*
X1247206Y-7088D01*
X1248012Y-9035D01*
X1249294Y-10706D01*
X1250669Y-11760D01*
X1250781Y-12235D01*
Y-12765D01*
X1250669Y-13240D01*
X1249294Y-14294D01*
X1248012Y-15965D01*
X1247206Y-17912D01*
X1246931Y-20000D01*
X1247206Y-22088D01*
X1248012Y-24035D01*
X1249294Y-25706D01*
X1250965Y-26988D01*
X1252912Y-27794D01*
X1255000Y-28069D01*
X1257088Y-27794D01*
X1259035Y-26988D01*
X1260706Y-25706D01*
X1261988Y-24035D01*
X1262794Y-22088D01*
X1263069Y-20000D01*
X1262794Y-17912D01*
X1261988Y-15965D01*
X1260706Y-14294D01*
X1259331Y-13240D01*
X1259219Y-12765D01*
Y-12235D01*
X1259331Y-11760D01*
X1260706Y-10706D01*
X1261988Y-9035D01*
X1262794Y-7088D01*
X1263069Y-5000D01*
X1262794Y-2912D01*
X1261988Y-966D01*
X1260706Y706D01*
X1259331Y1760D01*
X1259219Y2235D01*
Y2765D01*
X1259331Y3240D01*
X1260706Y4294D01*
X1261988Y5965D01*
X1262794Y7912D01*
X1263069Y10000D01*
X1262794Y12088D01*
X1261988Y14035D01*
X1260706Y15706D01*
X1259331Y16760D01*
X1259219Y17235D01*
Y17765D01*
X1259331Y18240D01*
X1260706Y19294D01*
X1261988Y20965D01*
X1262794Y22912D01*
X1263069Y25000D01*
X1262794Y27088D01*
X1261988Y29035D01*
X1260706Y30706D01*
X1259331Y31760D01*
X1259219Y32235D01*
Y32765D01*
X1259331Y33240D01*
X1260706Y34294D01*
X1261988Y35965D01*
X1262794Y37912D01*
X1263069Y40000D01*
X1262794Y42088D01*
X1261988Y44035D01*
X1260706Y45706D01*
X1259331Y46760D01*
X1259219Y47235D01*
Y47765D01*
X1259331Y48240D01*
X1260706Y49294D01*
X1261988Y50965D01*
X1262794Y52912D01*
X1263069Y55000D01*
X1262794Y57088D01*
X1261988Y59035D01*
X1260706Y60706D01*
X1259035Y61988D01*
X1257088Y62794D01*
X1255000Y63069D01*
D02*
G37*
G36*
X213000Y-6931D02*
X210912Y-7206D01*
X208965Y-8012D01*
X207294Y-9294D01*
X206012Y-10965D01*
X205206Y-12912D01*
X204931Y-15000D01*
X205206Y-17088D01*
X206012Y-19035D01*
X207294Y-20706D01*
X208965Y-21988D01*
X210912Y-22794D01*
X213000Y-23069D01*
X215088Y-22794D01*
X217034Y-21988D01*
X218706Y-20706D01*
X219988Y-19035D01*
X220794Y-17088D01*
X221069Y-15000D01*
X220794Y-12912D01*
X219988Y-10965D01*
X218706Y-9294D01*
X217034Y-8012D01*
X215088Y-7206D01*
X213000Y-6931D01*
D02*
G37*
G36*
X600000Y-1157D02*
X598147Y-1526D01*
X596575Y-2575D01*
X595526Y-4147D01*
X595157Y-6000D01*
X595526Y-7853D01*
X596575Y-9424D01*
X598147Y-10474D01*
X600000Y-10843D01*
X601853Y-10474D01*
X603424Y-9424D01*
X604474Y-7853D01*
X604843Y-6000D01*
X604474Y-4147D01*
X603424Y-2575D01*
X601853Y-1526D01*
X600000Y-1157D01*
D02*
G37*
G36*
X859000Y1843D02*
X857147Y1474D01*
X855575Y425D01*
X854526Y-1147D01*
X854157Y-3000D01*
X854526Y-4853D01*
X855575Y-6424D01*
X857147Y-7474D01*
X859000Y-7843D01*
X860853Y-7474D01*
X862425Y-6424D01*
X863474Y-4853D01*
X863843Y-3000D01*
X863474Y-1147D01*
X862425Y425D01*
X860853Y1474D01*
X859000Y1843D01*
D02*
G37*
G36*
X886000Y2843D02*
X884147Y2474D01*
X882576Y1425D01*
X881526Y-147D01*
X881157Y-2000D01*
X881526Y-3853D01*
X882576Y-5425D01*
X884147Y-6474D01*
X886000Y-6843D01*
X887853Y-6474D01*
X889425Y-5425D01*
X890474Y-3853D01*
X890843Y-2000D01*
X890474Y-147D01*
X889425Y1425D01*
X887853Y2474D01*
X886000Y2843D01*
D02*
G37*
G36*
X802000Y-4157D02*
X800147Y-4526D01*
X798575Y-5576D01*
X797526Y-7147D01*
X797157Y-9000D01*
X797526Y-10853D01*
X798575Y-12425D01*
X800147Y-13474D01*
X802000Y-13843D01*
X803853Y-13474D01*
X805425Y-12425D01*
X806474Y-10853D01*
X806843Y-9000D01*
X806474Y-7147D01*
X805425Y-5576D01*
X803853Y-4526D01*
X802000Y-4157D01*
D02*
G37*
G36*
X1045000Y3069D02*
X1042912Y2794D01*
X1040965Y1988D01*
X1039294Y706D01*
X1038012Y-966D01*
X1037206Y-2912D01*
X1036931Y-5000D01*
X1037206Y-7088D01*
X1038012Y-9035D01*
X1039294Y-10706D01*
X1040965Y-11988D01*
X1042912Y-12794D01*
X1045000Y-13069D01*
X1047088Y-12794D01*
X1049035Y-11988D01*
X1050706Y-10706D01*
X1051988Y-9035D01*
X1052794Y-7088D01*
X1053069Y-5000D01*
X1052794Y-2912D01*
X1051988Y-966D01*
X1050706Y706D01*
X1049035Y1988D01*
X1047088Y2794D01*
X1045000Y3069D01*
D02*
G37*
G36*
X751000Y-3157D02*
X749147Y-3526D01*
X747575Y-4575D01*
X746526Y-6147D01*
X746157Y-8000D01*
X746526Y-9853D01*
X747575Y-11425D01*
X749147Y-12474D01*
X751000Y-12843D01*
X752853Y-12474D01*
X754425Y-11425D01*
X755474Y-9853D01*
X755843Y-8000D01*
X755474Y-6147D01*
X754425Y-4575D01*
X752853Y-3526D01*
X751000Y-3157D01*
D02*
G37*
G36*
X778000Y-38157D02*
X776147Y-38526D01*
X774575Y-39575D01*
X773526Y-41147D01*
X773157Y-43000D01*
X773526Y-44853D01*
X774575Y-46424D01*
X776147Y-47474D01*
X778000Y-47843D01*
X779853Y-47474D01*
X781424Y-46424D01*
X782474Y-44853D01*
X782843Y-43000D01*
X782474Y-41147D01*
X781424Y-39575D01*
X779853Y-38526D01*
X778000Y-38157D01*
D02*
G37*
G36*
X847000Y-22157D02*
X845147Y-22526D01*
X843576Y-23575D01*
X842526Y-25147D01*
X842157Y-27000D01*
X842526Y-28853D01*
X843576Y-30424D01*
Y-31576D01*
X842526Y-33147D01*
X842157Y-35000D01*
X842526Y-36853D01*
X843576Y-38424D01*
Y-38907D01*
X842576Y-39575D01*
X841526Y-41147D01*
X841157Y-43000D01*
X841526Y-44853D01*
X842576Y-46424D01*
X844147Y-47474D01*
X846000Y-47843D01*
X847853Y-47474D01*
X849425Y-46424D01*
X850474Y-44853D01*
X850843Y-43000D01*
X850474Y-41147D01*
X849907Y-40298D01*
X850119Y-38628D01*
X850425Y-38425D01*
X851474Y-36853D01*
X851843Y-35000D01*
X851474Y-33147D01*
X850425Y-31576D01*
Y-30424D01*
X851474Y-28853D01*
X851843Y-27000D01*
X851474Y-25147D01*
X850425Y-23575D01*
X848853Y-22526D01*
X847000Y-22157D01*
D02*
G37*
G36*
X768000Y-45157D02*
X766147Y-45526D01*
X764576Y-46575D01*
X763425D01*
X761853Y-45526D01*
X760000Y-45157D01*
X758147Y-45526D01*
X756575Y-46575D01*
X755526Y-48147D01*
X755157Y-50000D01*
X755526Y-51853D01*
X756575Y-53425D01*
X758147Y-54474D01*
X760000Y-54843D01*
X761853Y-54474D01*
X763425Y-53425D01*
X764576D01*
X766147Y-54474D01*
X768000Y-54843D01*
X769853Y-54474D01*
X771424Y-53425D01*
X772474Y-51853D01*
X772843Y-50000D01*
X772474Y-48147D01*
X771424Y-46575D01*
X769853Y-45526D01*
X768000Y-45157D01*
D02*
G37*
G36*
X636000Y-34157D02*
X634147Y-34526D01*
X632575Y-35575D01*
X631526Y-37147D01*
X631157Y-39000D01*
X631526Y-40853D01*
X632575Y-42425D01*
Y-43576D01*
X631526Y-45147D01*
X631157Y-47000D01*
X631526Y-48853D01*
X632575Y-50425D01*
X634147Y-51474D01*
X636000Y-51843D01*
X637853Y-51474D01*
X639425Y-50425D01*
X640474Y-48853D01*
X640843Y-47000D01*
X640474Y-45147D01*
X639425Y-43576D01*
Y-42425D01*
X640474Y-40853D01*
X640843Y-39000D01*
X640474Y-37147D01*
X639425Y-35575D01*
X637853Y-34526D01*
X636000Y-34157D01*
D02*
G37*
G36*
X600000Y-41157D02*
X598147Y-41526D01*
X596575Y-42575D01*
X595526Y-44147D01*
X595157Y-46000D01*
X595526Y-47853D01*
X596575Y-49425D01*
X598147Y-50474D01*
X600000Y-50843D01*
X601853Y-50474D01*
X603424Y-49425D01*
X604474Y-47853D01*
X604843Y-46000D01*
X604474Y-44147D01*
X603424Y-42575D01*
X601853Y-41526D01*
X600000Y-41157D01*
D02*
G37*
G36*
X714000D02*
X712147Y-41526D01*
X710575Y-42575D01*
X709526Y-44147D01*
X709157Y-46000D01*
X709526Y-47853D01*
X710575Y-49425D01*
X712147Y-50474D01*
X714000Y-50843D01*
X715853Y-50474D01*
X717424Y-49425D01*
X718474Y-47853D01*
X718843Y-46000D01*
X718474Y-44147D01*
X717424Y-42575D01*
X715853Y-41526D01*
X714000Y-41157D01*
D02*
G37*
G36*
X1235000Y-16931D02*
X1232912Y-17206D01*
X1230965Y-18012D01*
X1229294Y-19294D01*
X1228012Y-20965D01*
X1227206Y-22912D01*
X1226931Y-25000D01*
X1227206Y-27088D01*
X1228012Y-29035D01*
X1229294Y-30706D01*
X1230965Y-31988D01*
X1232912Y-32794D01*
X1235000Y-33069D01*
X1237088Y-32794D01*
X1239035Y-31988D01*
X1240706Y-30706D01*
X1241988Y-29035D01*
X1242794Y-27088D01*
X1243069Y-25000D01*
X1242794Y-22912D01*
X1241988Y-20965D01*
X1240706Y-19294D01*
X1239035Y-18012D01*
X1237088Y-17206D01*
X1235000Y-16931D01*
D02*
G37*
G36*
X492000Y-22157D02*
X490147Y-22526D01*
X488576Y-23575D01*
X487526Y-25147D01*
X487157Y-27000D01*
X487526Y-28853D01*
X488576Y-30425D01*
X490147Y-31474D01*
X492000Y-31843D01*
X493853Y-31474D01*
X495425Y-30425D01*
X496474Y-28853D01*
X496843Y-27000D01*
X496474Y-25147D01*
X495425Y-23575D01*
X493853Y-22526D01*
X492000Y-22157D01*
D02*
G37*
G36*
X600000Y-21157D02*
X598147Y-21526D01*
X596575Y-22575D01*
X595526Y-24147D01*
X595157Y-26000D01*
X595526Y-27853D01*
X596575Y-29425D01*
X598147Y-30474D01*
X600000Y-30843D01*
X601853Y-30474D01*
X603424Y-29425D01*
X604474Y-27853D01*
X604843Y-26000D01*
X604474Y-24147D01*
X603424Y-22575D01*
X601853Y-21526D01*
X600000Y-21157D01*
D02*
G37*
G36*
X594000Y-31157D02*
X592147Y-31526D01*
X590575Y-32575D01*
X589526Y-34147D01*
X589157Y-36000D01*
X589526Y-37853D01*
X590575Y-39425D01*
X592147Y-40474D01*
X594000Y-40843D01*
X595853Y-40474D01*
X597425Y-39425D01*
X598474Y-37853D01*
X598843Y-36000D01*
X598474Y-34147D01*
X597425Y-32575D01*
X595853Y-31526D01*
X594000Y-31157D01*
D02*
G37*
G36*
X1045000Y-16931D02*
X1042912Y-17206D01*
X1040965Y-18012D01*
X1039294Y-19294D01*
X1038012Y-20965D01*
X1037206Y-22912D01*
X1036931Y-25000D01*
X1037206Y-27088D01*
X1038012Y-29035D01*
X1039294Y-30706D01*
X1040965Y-31988D01*
X1042912Y-32794D01*
X1045000Y-33069D01*
X1047088Y-32794D01*
X1049035Y-31988D01*
X1050706Y-30706D01*
X1051988Y-29035D01*
X1052794Y-27088D01*
X1053069Y-25000D01*
X1052794Y-22912D01*
X1051988Y-20965D01*
X1050706Y-19294D01*
X1049035Y-18012D01*
X1047088Y-17206D01*
X1045000Y-16931D01*
D02*
G37*
G36*
X1215000D02*
X1212912Y-17206D01*
X1210965Y-18012D01*
X1209294Y-19294D01*
X1208012Y-20965D01*
X1207206Y-22912D01*
X1206931Y-25000D01*
X1207206Y-27088D01*
X1208012Y-29035D01*
X1209294Y-30706D01*
X1210965Y-31988D01*
X1212912Y-32794D01*
X1215000Y-33069D01*
X1217088Y-32794D01*
X1219035Y-31988D01*
X1220706Y-30706D01*
X1221988Y-29035D01*
X1222794Y-27088D01*
X1223069Y-25000D01*
X1222794Y-22912D01*
X1221988Y-20965D01*
X1220706Y-19294D01*
X1219035Y-18012D01*
X1217088Y-17206D01*
X1215000Y-16931D01*
D02*
G37*
G36*
X250000Y-158642D02*
X244602Y-158995D01*
X239296Y-160051D01*
X234173Y-161790D01*
X229321Y-164182D01*
X224823Y-167188D01*
X220755Y-170755D01*
X217188Y-174823D01*
X214182Y-179321D01*
X211790Y-184173D01*
X210051Y-189296D01*
X208995Y-194602D01*
X208641Y-200000D01*
X208995Y-205398D01*
X210051Y-210704D01*
X211790Y-215827D01*
X214182Y-220679D01*
X217188Y-225177D01*
X220755Y-229245D01*
X224823Y-232812D01*
X229321Y-235818D01*
X234173Y-238210D01*
X239296Y-239949D01*
X244602Y-241005D01*
X250000Y-241359D01*
X255398Y-241005D01*
X260704Y-239949D01*
X265827Y-238210D01*
X270679Y-235818D01*
X275177Y-232812D01*
X279245Y-229245D01*
X282812Y-225177D01*
X285818Y-220679D01*
X288210Y-215827D01*
X289949Y-210704D01*
X291005Y-205398D01*
X291359Y-200000D01*
X291005Y-194602D01*
X289949Y-189296D01*
X288210Y-184173D01*
X285818Y-179321D01*
X282812Y-174823D01*
X279245Y-170755D01*
X275177Y-167188D01*
X270679Y-164182D01*
X265827Y-161790D01*
X260704Y-160051D01*
X255398Y-158995D01*
X250000Y-158642D01*
D02*
G37*
G36*
X1055001Y-130921D02*
X1055000Y-130921D01*
X945000Y-130922D01*
X943439Y-131232D01*
X942116Y-132116D01*
X942116Y-132116D01*
X937116Y-137116D01*
X937116Y-137116D01*
X936232Y-138439D01*
X935921Y-140000D01*
X935921Y-140000D01*
X935922Y-255000D01*
X935922Y-255000D01*
X936232Y-256561D01*
X937116Y-257884D01*
X942116Y-262884D01*
X943439Y-263768D01*
X945000Y-264078D01*
X945000Y-264078D01*
X1055000D01*
X1055000Y-264078D01*
X1056561Y-263768D01*
X1057884Y-262884D01*
X1062884Y-257884D01*
X1063617Y-256787D01*
X1064582Y-256358D01*
X1064724Y-256322D01*
X1065109Y-256331D01*
X1065965Y-256988D01*
X1067912Y-257794D01*
X1070000Y-258069D01*
X1072088Y-257794D01*
X1074035Y-256988D01*
X1075706Y-255706D01*
X1076760Y-254331D01*
X1077235Y-254219D01*
X1077765D01*
X1078240Y-254331D01*
X1079294Y-255706D01*
X1080965Y-256988D01*
X1082912Y-257794D01*
X1085000Y-258069D01*
X1087088Y-257794D01*
X1089035Y-256988D01*
X1090706Y-255706D01*
X1091760Y-254331D01*
X1092235Y-254219D01*
X1092765D01*
X1093240Y-254331D01*
X1094294Y-255706D01*
X1095965Y-256988D01*
X1097912Y-257794D01*
X1100000Y-258069D01*
X1102088Y-257794D01*
X1104035Y-256988D01*
X1105706Y-255706D01*
X1106988Y-254035D01*
X1107794Y-252088D01*
X1108069Y-250000D01*
X1107794Y-247912D01*
X1106988Y-245965D01*
X1105706Y-244294D01*
X1104035Y-243012D01*
X1102088Y-242206D01*
X1100000Y-241931D01*
X1097912Y-242206D01*
X1095965Y-243012D01*
X1094294Y-244294D01*
X1093240Y-245669D01*
X1092765Y-245781D01*
X1092235D01*
X1091760Y-245669D01*
X1090706Y-244294D01*
X1089035Y-243012D01*
X1087088Y-242206D01*
X1085000Y-241931D01*
X1082912Y-242206D01*
X1080965Y-243012D01*
X1079294Y-244294D01*
X1078240Y-245669D01*
X1077765Y-245781D01*
X1077235D01*
X1076760Y-245669D01*
X1075706Y-244294D01*
X1074035Y-243012D01*
X1072088Y-242206D01*
X1070000Y-241931D01*
X1067912Y-242206D01*
X1065965Y-243012D01*
X1065348Y-243486D01*
X1064078Y-242859D01*
Y-222141D01*
X1065348Y-221514D01*
X1065965Y-221988D01*
X1067912Y-222794D01*
X1070000Y-223069D01*
X1072088Y-222794D01*
X1074035Y-221988D01*
X1075706Y-220706D01*
X1076760Y-219331D01*
X1077235Y-219219D01*
X1077765D01*
X1078240Y-219331D01*
X1079294Y-220706D01*
X1080965Y-221988D01*
X1082912Y-222794D01*
X1085000Y-223069D01*
X1087088Y-222794D01*
X1089035Y-221988D01*
X1090706Y-220706D01*
X1091760Y-219331D01*
X1092235Y-219219D01*
X1092765D01*
X1093240Y-219331D01*
X1094294Y-220706D01*
X1095965Y-221988D01*
X1097912Y-222794D01*
X1100000Y-223069D01*
X1102088Y-222794D01*
X1104035Y-221988D01*
X1105706Y-220706D01*
X1106988Y-219035D01*
X1107794Y-217088D01*
X1108069Y-215000D01*
X1107794Y-212912D01*
X1106988Y-210965D01*
X1105706Y-209294D01*
X1104331Y-208240D01*
X1104219Y-207765D01*
Y-207235D01*
X1104331Y-206760D01*
X1105706Y-205706D01*
X1106988Y-204035D01*
X1107545Y-202690D01*
X1108832Y-202902D01*
X1108995Y-205398D01*
X1110051Y-210704D01*
X1111790Y-215827D01*
X1114183Y-220679D01*
X1117188Y-225177D01*
X1120755Y-229245D01*
X1124822Y-232812D01*
X1129321Y-235818D01*
X1134173Y-238210D01*
X1139296Y-239949D01*
X1144602Y-241005D01*
X1150000Y-241359D01*
X1155398Y-241005D01*
X1160704Y-239949D01*
X1165827Y-238210D01*
X1170679Y-235818D01*
X1175178Y-232812D01*
X1179245Y-229245D01*
X1182812Y-225177D01*
X1185818Y-220679D01*
X1188210Y-215827D01*
X1189949Y-210704D01*
X1191005Y-205398D01*
X1191359Y-200000D01*
X1191005Y-194602D01*
X1189949Y-189296D01*
X1188210Y-184173D01*
X1185818Y-179321D01*
X1182812Y-174823D01*
X1179245Y-170755D01*
X1175178Y-167188D01*
X1170679Y-164182D01*
X1165827Y-161790D01*
X1160704Y-160051D01*
X1155398Y-158995D01*
X1151175Y-158719D01*
X1150963Y-157432D01*
X1152035Y-156988D01*
X1153706Y-155706D01*
X1154988Y-154035D01*
X1155794Y-152088D01*
X1156069Y-150000D01*
X1156060Y-149930D01*
X1157088Y-149794D01*
X1159035Y-148988D01*
X1160706Y-147706D01*
X1161988Y-146034D01*
X1162794Y-144088D01*
X1163069Y-142000D01*
X1162794Y-139912D01*
X1161988Y-137965D01*
X1160706Y-136294D01*
X1159035Y-135012D01*
X1157088Y-134206D01*
X1155000Y-133931D01*
X1152912Y-134206D01*
X1150965Y-135012D01*
X1149294Y-136294D01*
X1148012Y-137965D01*
X1147206Y-139912D01*
X1146931Y-142000D01*
X1146940Y-142071D01*
X1145912Y-142206D01*
X1143966Y-143012D01*
X1143703Y-143214D01*
X1142660Y-142413D01*
X1142794Y-142088D01*
X1143069Y-140000D01*
X1142794Y-137912D01*
X1141988Y-135965D01*
X1140706Y-134294D01*
X1139035Y-133012D01*
X1137088Y-132206D01*
X1135000Y-131931D01*
X1132912Y-132206D01*
X1130965Y-133012D01*
X1129294Y-134294D01*
X1128012Y-135965D01*
X1127206Y-137912D01*
X1126931Y-140000D01*
X1127206Y-142088D01*
X1128012Y-144035D01*
X1128753Y-145000D01*
X1128012Y-145965D01*
X1127206Y-147912D01*
X1126931Y-150000D01*
X1127206Y-152088D01*
X1128012Y-154035D01*
X1129294Y-155706D01*
X1130965Y-156988D01*
X1132912Y-157794D01*
X1135000Y-158069D01*
X1137088Y-157794D01*
X1139035Y-156988D01*
X1140698Y-155711D01*
X1140987Y-155498D01*
X1142013D01*
X1142302Y-155711D01*
X1143966Y-156988D01*
X1145584Y-157658D01*
X1145371Y-158945D01*
X1144602Y-158995D01*
X1139296Y-160051D01*
X1134173Y-161790D01*
X1129321Y-164182D01*
X1124822Y-167188D01*
X1120755Y-170755D01*
X1117188Y-174823D01*
X1114183Y-179321D01*
X1111790Y-184173D01*
X1110051Y-189296D01*
X1108995Y-194602D01*
X1108832Y-197098D01*
X1107545Y-197310D01*
X1106988Y-195965D01*
X1105706Y-194294D01*
X1104331Y-193240D01*
X1104219Y-192765D01*
Y-192235D01*
X1104331Y-191760D01*
X1105706Y-190706D01*
X1106988Y-189035D01*
X1107794Y-187088D01*
X1108069Y-185000D01*
X1107794Y-182912D01*
X1106988Y-180965D01*
X1105706Y-179294D01*
X1105062Y-178800D01*
Y-177200D01*
X1105706Y-176706D01*
X1106988Y-175035D01*
X1107794Y-173088D01*
X1108069Y-171000D01*
X1107794Y-168912D01*
X1106988Y-166966D01*
X1105863Y-165500D01*
X1106760Y-164331D01*
X1107235Y-164219D01*
X1107765D01*
X1108240Y-164331D01*
X1109294Y-165706D01*
X1110965Y-166988D01*
X1112912Y-167794D01*
X1115000Y-168069D01*
X1117088Y-167794D01*
X1119035Y-166988D01*
X1120706Y-165706D01*
X1121988Y-164035D01*
X1122794Y-162088D01*
X1123069Y-160000D01*
X1122794Y-157912D01*
X1121988Y-155965D01*
X1120706Y-154294D01*
X1119035Y-153012D01*
X1117088Y-152206D01*
X1115000Y-151931D01*
X1112912Y-152206D01*
X1110965Y-153012D01*
X1109294Y-154294D01*
X1108240Y-155669D01*
X1107765Y-155781D01*
X1107235D01*
X1106760Y-155669D01*
X1105706Y-154294D01*
X1104035Y-153012D01*
X1102088Y-152206D01*
X1100000Y-151931D01*
X1097912Y-152206D01*
X1097537Y-152361D01*
X1096639Y-151463D01*
X1096794Y-151088D01*
X1097069Y-149000D01*
X1097021Y-148635D01*
X1098196Y-147831D01*
X1100000Y-148069D01*
X1102088Y-147794D01*
X1104035Y-146988D01*
X1105706Y-145706D01*
X1106760Y-144331D01*
X1107235Y-144219D01*
X1107765D01*
X1108240Y-144331D01*
X1109294Y-145706D01*
X1110965Y-146988D01*
X1112912Y-147794D01*
X1115000Y-148069D01*
X1117088Y-147794D01*
X1119035Y-146988D01*
X1120706Y-145706D01*
X1121988Y-144035D01*
X1122794Y-142088D01*
X1123069Y-140000D01*
X1122794Y-137912D01*
X1121988Y-135965D01*
X1120706Y-134294D01*
X1119035Y-133012D01*
X1117088Y-132206D01*
X1115000Y-131931D01*
X1112912Y-132206D01*
X1110965Y-133012D01*
X1109294Y-134294D01*
X1108240Y-135669D01*
X1107765Y-135781D01*
X1107235D01*
X1106760Y-135669D01*
X1105706Y-134294D01*
X1104035Y-133012D01*
X1102088Y-132206D01*
X1100000Y-131931D01*
X1097912Y-132206D01*
X1095965Y-133012D01*
X1094294Y-134294D01*
X1093012Y-135965D01*
X1092206Y-137912D01*
X1091931Y-140000D01*
X1091979Y-140365D01*
X1090804Y-141168D01*
X1089224Y-140960D01*
X1088640Y-140614D01*
X1088386Y-140360D01*
X1088040Y-139776D01*
X1087794Y-137912D01*
X1086988Y-135965D01*
X1085706Y-134294D01*
X1084035Y-133012D01*
X1082088Y-132206D01*
X1080000Y-131931D01*
X1077912Y-132206D01*
X1075965Y-133012D01*
X1074294Y-134294D01*
X1073012Y-135965D01*
X1072206Y-137912D01*
X1071931Y-140000D01*
X1072206Y-142088D01*
X1073012Y-144035D01*
X1074294Y-145706D01*
X1075965Y-146988D01*
X1077912Y-147794D01*
X1079777Y-148040D01*
X1080015Y-148181D01*
X1080150Y-148676D01*
X1080133Y-148820D01*
X1079262Y-150028D01*
X1077912Y-150206D01*
X1075965Y-151012D01*
X1074294Y-152294D01*
X1073012Y-153966D01*
X1072206Y-155912D01*
X1071931Y-158000D01*
X1072206Y-160088D01*
X1072602Y-161044D01*
X1072449Y-161389D01*
X1071686Y-162153D01*
X1070000Y-161931D01*
X1067912Y-162206D01*
X1065965Y-163012D01*
X1065348Y-163486D01*
X1064078Y-162859D01*
X1064078Y-140000D01*
X1063924Y-139224D01*
X1063768Y-138440D01*
X1063768Y-138440D01*
X1063768Y-138439D01*
X1063176Y-137554D01*
X1062884Y-137116D01*
X1062884Y-137116D01*
X1062884Y-137116D01*
X1057884Y-132116D01*
X1057884Y-132116D01*
X1057884Y-132116D01*
X1057176Y-131643D01*
X1056561Y-131232D01*
X1056561Y-131232D01*
X1056561Y-131232D01*
X1055898Y-131100D01*
X1055001Y-130921D01*
D02*
G37*
G36*
X900000Y-209896D02*
X896867Y-210309D01*
X893948Y-211518D01*
X891441Y-213442D01*
X889518Y-215948D01*
X888309Y-218867D01*
X887896Y-222000D01*
X888309Y-225133D01*
X889518Y-228052D01*
X891441Y-230558D01*
X893948Y-232482D01*
X896867Y-233691D01*
X900000Y-234104D01*
X903133Y-233691D01*
X906052Y-232482D01*
X908559Y-230558D01*
X910482Y-228052D01*
X911691Y-225133D01*
X912104Y-222000D01*
X911691Y-218867D01*
X910482Y-215948D01*
X908559Y-213442D01*
X906052Y-211518D01*
X903133Y-210309D01*
X900000Y-209896D01*
D02*
G37*
G36*
X451500Y-231931D02*
X449412Y-232206D01*
X447466Y-233012D01*
X445794Y-234294D01*
X444512Y-235965D01*
X443706Y-237912D01*
X443431Y-240000D01*
X443706Y-242088D01*
X444512Y-244035D01*
X445794Y-245706D01*
X447466Y-246988D01*
X449412Y-247794D01*
X451500Y-248069D01*
X453588Y-247794D01*
X455535Y-246988D01*
X457206Y-245706D01*
X458488Y-244035D01*
X459294Y-242088D01*
X459569Y-240000D01*
X459294Y-237912D01*
X458488Y-235965D01*
X457206Y-234294D01*
X455535Y-233012D01*
X453588Y-232206D01*
X451500Y-231931D01*
D02*
G37*
G36*
X1225000Y-241931D02*
X1222912Y-242206D01*
X1220965Y-243012D01*
X1220000Y-243753D01*
X1219035Y-243012D01*
X1217088Y-242206D01*
X1215000Y-241931D01*
X1212912Y-242206D01*
X1210965Y-243012D01*
X1210000Y-243753D01*
X1209035Y-243012D01*
X1207088Y-242206D01*
X1205000Y-241931D01*
X1202912Y-242206D01*
X1200965Y-243012D01*
X1199294Y-244294D01*
X1198012Y-245965D01*
X1197206Y-247912D01*
X1196931Y-250000D01*
X1197206Y-252088D01*
X1198012Y-254035D01*
X1199294Y-255706D01*
X1200965Y-256988D01*
X1202912Y-257794D01*
X1205000Y-258069D01*
X1207088Y-257794D01*
X1209035Y-256988D01*
X1210000Y-256247D01*
X1210965Y-256988D01*
X1212912Y-257794D01*
X1215000Y-258069D01*
X1217088Y-257794D01*
X1219035Y-256988D01*
X1220000Y-256247D01*
X1220965Y-256988D01*
X1222912Y-257794D01*
X1225000Y-258069D01*
X1227088Y-257794D01*
X1229035Y-256988D01*
X1230706Y-255706D01*
X1231988Y-254035D01*
X1232794Y-252088D01*
X1233069Y-250000D01*
X1232794Y-247912D01*
X1231988Y-245965D01*
X1230706Y-244294D01*
X1229035Y-243012D01*
X1227088Y-242206D01*
X1225000Y-241931D01*
D02*
G37*
G36*
X590000Y-240157D02*
X588147Y-240526D01*
X586836Y-241402D01*
X586000Y-241504D01*
X585164Y-241402D01*
X583853Y-240526D01*
X582000Y-240157D01*
X580147Y-240526D01*
X578575Y-241575D01*
X577526Y-243147D01*
X577157Y-245000D01*
X577526Y-246853D01*
X578575Y-248424D01*
X580147Y-249474D01*
X582000Y-249843D01*
X583853Y-249474D01*
X585424Y-248424D01*
X586576D01*
X588147Y-249474D01*
X590000Y-249843D01*
X591853Y-249474D01*
X593424Y-248424D01*
X594474Y-246853D01*
X594843Y-245000D01*
X594474Y-243147D01*
X593424Y-241575D01*
X591853Y-240526D01*
X590000Y-240157D01*
D02*
G37*
G36*
X492000Y-206157D02*
X490147Y-206526D01*
X488576Y-207575D01*
X487526Y-209147D01*
X487157Y-211000D01*
X487526Y-212853D01*
X488576Y-214425D01*
X490147Y-215474D01*
X492000Y-215843D01*
X493853Y-215474D01*
X495425Y-214425D01*
X496474Y-212853D01*
X496843Y-211000D01*
X496474Y-209147D01*
X495425Y-207575D01*
X493853Y-206526D01*
X492000Y-206157D01*
D02*
G37*
G36*
X1225000Y-211931D02*
X1222912Y-212206D01*
X1220965Y-213012D01*
X1220000Y-213753D01*
X1219035Y-213012D01*
X1217088Y-212206D01*
X1215000Y-211931D01*
X1212912Y-212206D01*
X1210965Y-213012D01*
X1210000Y-213753D01*
X1209035Y-213012D01*
X1207088Y-212206D01*
X1205000Y-211931D01*
X1202912Y-212206D01*
X1200965Y-213012D01*
X1199294Y-214294D01*
X1198012Y-215965D01*
X1197206Y-217912D01*
X1196931Y-220000D01*
X1197206Y-222088D01*
X1198012Y-224035D01*
X1199294Y-225706D01*
X1200965Y-226988D01*
X1202912Y-227794D01*
X1205000Y-228069D01*
X1207088Y-227794D01*
X1209035Y-226988D01*
X1210000Y-226247D01*
X1210965Y-226988D01*
X1212912Y-227794D01*
X1215000Y-228069D01*
X1217088Y-227794D01*
X1219035Y-226988D01*
X1220000Y-226247D01*
X1220965Y-226988D01*
X1222912Y-227794D01*
X1225000Y-228069D01*
X1227088Y-227794D01*
X1229035Y-226988D01*
X1230706Y-225706D01*
X1231988Y-224035D01*
X1232794Y-222088D01*
X1233069Y-220000D01*
X1232794Y-217912D01*
X1231988Y-215965D01*
X1230706Y-214294D01*
X1229035Y-213012D01*
X1227088Y-212206D01*
X1225000Y-211931D01*
D02*
G37*
G36*
X323000Y-195931D02*
X320912Y-196206D01*
X318965Y-197012D01*
X317294Y-198294D01*
X316012Y-199965D01*
X315206Y-201912D01*
X314931Y-204000D01*
X315206Y-206088D01*
X316012Y-208034D01*
X317294Y-209706D01*
X318965Y-210988D01*
X320912Y-211794D01*
X323000Y-212069D01*
X325088Y-211794D01*
X327034Y-210988D01*
X328706Y-209706D01*
X329988Y-208034D01*
X330794Y-206088D01*
X331069Y-204000D01*
X330794Y-201912D01*
X329988Y-199965D01*
X328706Y-198294D01*
X327034Y-197012D01*
X325088Y-196206D01*
X323000Y-195931D01*
D02*
G37*
G36*
X874000Y-217157D02*
X872147Y-217526D01*
X870575Y-218575D01*
X869526Y-220147D01*
X869157Y-222000D01*
X869526Y-223853D01*
X870575Y-225424D01*
X872147Y-226474D01*
X874000Y-226843D01*
X875853Y-226474D01*
X877425Y-225424D01*
X878474Y-223853D01*
X878843Y-222000D01*
X878474Y-220147D01*
X877425Y-218575D01*
X875853Y-217526D01*
X874000Y-217157D01*
D02*
G37*
G36*
X851000Y-213157D02*
X849147Y-213526D01*
X847575Y-214575D01*
X846526Y-216147D01*
X846157Y-218000D01*
X846526Y-219853D01*
X847575Y-221425D01*
X849147Y-222474D01*
X851000Y-222843D01*
X852853Y-222474D01*
X854425Y-221425D01*
X855474Y-219853D01*
X855843Y-218000D01*
X855474Y-216147D01*
X854425Y-214575D01*
X852853Y-213526D01*
X851000Y-213157D01*
D02*
G37*
G36*
X611000Y-220157D02*
X609147Y-220526D01*
X607575Y-221576D01*
X606424D01*
X604853Y-220526D01*
X603000Y-220157D01*
X601147Y-220526D01*
X599575Y-221576D01*
X598526Y-223147D01*
X598157Y-225000D01*
X598526Y-226853D01*
X599575Y-228425D01*
X601147Y-229474D01*
X603000Y-229843D01*
X604853Y-229474D01*
X606424Y-228425D01*
X607575D01*
X609147Y-229474D01*
X611000Y-229843D01*
X612853Y-229474D01*
X614425Y-228425D01*
X615474Y-226853D01*
X615843Y-225000D01*
X615474Y-223147D01*
X614425Y-221576D01*
X612853Y-220526D01*
X611000Y-220157D01*
D02*
G37*
G36*
X585682Y-281770D02*
X575520D01*
Y-291932D01*
X577252Y-291704D01*
X580050Y-290545D01*
X582452Y-288702D01*
X584295Y-286300D01*
X585454Y-283502D01*
X585682Y-281770D01*
D02*
G37*
G36*
X900000Y-259896D02*
X896867Y-260309D01*
X893948Y-261518D01*
X891441Y-263442D01*
X889518Y-265948D01*
X888309Y-268867D01*
X887896Y-272000D01*
X888309Y-275133D01*
X889518Y-278052D01*
X891441Y-280558D01*
X893948Y-282482D01*
X896867Y-283691D01*
X900000Y-284104D01*
X903133Y-283691D01*
X906052Y-282482D01*
X908559Y-280558D01*
X910482Y-278052D01*
X911691Y-275133D01*
X912104Y-272000D01*
X911691Y-268867D01*
X910482Y-265948D01*
X908559Y-263442D01*
X906052Y-261518D01*
X903133Y-260309D01*
X900000Y-259896D01*
D02*
G37*
G36*
X572980Y-269068D02*
X571248Y-269296D01*
X568450Y-270455D01*
X566048Y-272298D01*
X564205Y-274700D01*
X563046Y-277498D01*
X562818Y-279230D01*
X572980D01*
Y-269068D01*
D02*
G37*
G36*
Y-281770D02*
X562818D01*
X563046Y-283502D01*
X564205Y-286300D01*
X566048Y-288702D01*
X568450Y-290545D01*
X571248Y-291704D01*
X572980Y-291932D01*
Y-281770D01*
D02*
G37*
G36*
X657182Y-281770D02*
X647020D01*
Y-291932D01*
X648752Y-291704D01*
X651550Y-290545D01*
X653952Y-288702D01*
X655795Y-286300D01*
X656954Y-283502D01*
X657182Y-281770D01*
D02*
G37*
G36*
X644480D02*
X634318D01*
X634546Y-283502D01*
X635705Y-286300D01*
X637548Y-288702D01*
X639950Y-290545D01*
X642748Y-291704D01*
X644480Y-291932D01*
Y-281770D01*
D02*
G37*
G36*
X305000Y-261882D02*
X302659Y-262348D01*
X300674Y-263674D01*
X299348Y-265659D01*
X298883Y-268000D01*
X299348Y-270341D01*
X300674Y-272326D01*
X302659Y-273652D01*
X305000Y-274118D01*
X307341Y-273652D01*
X309326Y-272326D01*
X310652Y-270341D01*
X311117Y-268000D01*
X310652Y-265659D01*
X309326Y-263674D01*
X307341Y-262348D01*
X305000Y-261882D01*
D02*
G37*
G36*
X492000Y-252157D02*
X490147Y-252526D01*
X488576Y-253575D01*
X487526Y-255147D01*
X487157Y-257000D01*
X487526Y-258853D01*
X488576Y-260424D01*
X490147Y-261474D01*
X492000Y-261843D01*
X493853Y-261474D01*
X495425Y-260424D01*
X496474Y-258853D01*
X496843Y-257000D01*
X496474Y-255147D01*
X495425Y-253575D01*
X493853Y-252526D01*
X492000Y-252157D01*
D02*
G37*
G36*
X323000Y-241931D02*
X320912Y-242206D01*
X318965Y-243012D01*
X317294Y-244294D01*
X316012Y-245965D01*
X315206Y-247912D01*
X314931Y-250000D01*
X315206Y-252088D01*
X316012Y-254035D01*
X317294Y-255706D01*
X318965Y-256988D01*
X320912Y-257794D01*
X323000Y-258069D01*
X325088Y-257794D01*
X327034Y-256988D01*
X328706Y-255706D01*
X329988Y-254035D01*
X330794Y-252088D01*
X331069Y-250000D01*
X330794Y-247912D01*
X329988Y-245965D01*
X328706Y-244294D01*
X327034Y-243012D01*
X325088Y-242206D01*
X323000Y-241931D01*
D02*
G37*
G36*
X575520Y-269068D02*
Y-279230D01*
X585682D01*
X585454Y-277498D01*
X584295Y-274700D01*
X582452Y-272298D01*
X580050Y-270455D01*
X577252Y-269296D01*
X575520Y-269068D01*
D02*
G37*
G36*
X644480Y-269068D02*
X642748Y-269296D01*
X639950Y-270455D01*
X637548Y-272298D01*
X635705Y-274700D01*
X634546Y-277498D01*
X634318Y-279230D01*
X644480D01*
Y-269068D01*
D02*
G37*
G36*
X647020Y-269068D02*
Y-279230D01*
X657182D01*
X656954Y-277498D01*
X655795Y-274700D01*
X653952Y-272298D01*
X651550Y-270455D01*
X648752Y-269296D01*
X647020Y-269068D01*
D02*
G37*
G36*
X451500Y-185931D02*
X449412Y-186206D01*
X447466Y-187012D01*
X445794Y-188294D01*
X444512Y-189965D01*
X443706Y-191912D01*
X443431Y-194000D01*
X443706Y-196088D01*
X444512Y-198034D01*
X445794Y-199706D01*
X447466Y-200988D01*
X449412Y-201794D01*
X451500Y-202069D01*
X453588Y-201794D01*
X455535Y-200988D01*
X457206Y-199706D01*
X458488Y-198034D01*
X459294Y-196088D01*
X459569Y-194000D01*
X459294Y-191912D01*
X458488Y-189965D01*
X457206Y-188294D01*
X455535Y-187012D01*
X453588Y-186206D01*
X451500Y-185931D01*
D02*
G37*
G36*
X1105000Y-111931D02*
X1102912Y-112206D01*
X1100965Y-113012D01*
X1099294Y-114294D01*
X1098012Y-115965D01*
X1097206Y-117912D01*
X1096931Y-120000D01*
X1097206Y-122088D01*
X1098012Y-124035D01*
X1099294Y-125706D01*
X1100965Y-126988D01*
X1102912Y-127794D01*
X1105000Y-128069D01*
X1107088Y-127794D01*
X1109035Y-126988D01*
X1110706Y-125706D01*
X1111988Y-124035D01*
X1112794Y-122088D01*
X1113069Y-120000D01*
X1112794Y-117912D01*
X1111988Y-115965D01*
X1110706Y-114294D01*
X1109035Y-113012D01*
X1107088Y-112206D01*
X1105000Y-111931D01*
D02*
G37*
G36*
X1155000D02*
X1152912Y-112206D01*
X1150965Y-113012D01*
X1149294Y-114294D01*
X1148012Y-115965D01*
X1147206Y-117912D01*
X1146931Y-120000D01*
X1147206Y-122088D01*
X1148012Y-124035D01*
X1149294Y-125706D01*
X1150965Y-126988D01*
X1152912Y-127794D01*
X1155000Y-128069D01*
X1157088Y-127794D01*
X1159035Y-126988D01*
X1160706Y-125706D01*
X1161988Y-124035D01*
X1162794Y-122088D01*
X1163069Y-120000D01*
X1162794Y-117912D01*
X1161988Y-115965D01*
X1160706Y-114294D01*
X1159035Y-113012D01*
X1157088Y-112206D01*
X1155000Y-111931D01*
D02*
G37*
G36*
X492000Y-114157D02*
X490147Y-114526D01*
X488576Y-115576D01*
X487526Y-117147D01*
X487157Y-119000D01*
X487526Y-120853D01*
X488576Y-122425D01*
X490147Y-123474D01*
X492000Y-123843D01*
X493853Y-123474D01*
X495425Y-122425D01*
X496474Y-120853D01*
X496843Y-119000D01*
X496474Y-117147D01*
X495425Y-115576D01*
X493853Y-114526D01*
X492000Y-114157D01*
D02*
G37*
G36*
X623000Y-141157D02*
X621147Y-141526D01*
X619576Y-142575D01*
X618424D01*
X616853Y-141526D01*
X615000Y-141157D01*
X613147Y-141526D01*
X611575Y-142575D01*
X610526Y-144147D01*
X610157Y-146000D01*
X610526Y-147853D01*
X611575Y-149424D01*
X613147Y-150474D01*
X615000Y-150843D01*
X616853Y-150474D01*
X618424Y-149424D01*
X619576D01*
X621147Y-150474D01*
X623000Y-150843D01*
X624853Y-150474D01*
X626425Y-149424D01*
X627474Y-147853D01*
X627843Y-146000D01*
X627474Y-144147D01*
X626425Y-142575D01*
X624853Y-141526D01*
X623000Y-141157D01*
D02*
G37*
G36*
X783000Y-120157D02*
X781147Y-120526D01*
X779576Y-121575D01*
X778526Y-123147D01*
X778157Y-125000D01*
X778526Y-126853D01*
X779576Y-128425D01*
X781147Y-129474D01*
X783000Y-129843D01*
X784853Y-129474D01*
X786425Y-128425D01*
X787474Y-126853D01*
X787843Y-125000D01*
X787474Y-123147D01*
X786425Y-121575D01*
X784853Y-120526D01*
X783000Y-120157D01*
D02*
G37*
G36*
X985000Y-111931D02*
X982912Y-112206D01*
X980965Y-113012D01*
X979294Y-114294D01*
X978012Y-115965D01*
X977206Y-117912D01*
X976931Y-120000D01*
X977206Y-122088D01*
X978012Y-124035D01*
X979294Y-125706D01*
X980965Y-126988D01*
X982912Y-127794D01*
X985000Y-128069D01*
X987088Y-127794D01*
X989035Y-126988D01*
X990706Y-125706D01*
X991988Y-124035D01*
X992794Y-122088D01*
X993069Y-120000D01*
X992794Y-117912D01*
X991988Y-115965D01*
X990706Y-114294D01*
X989035Y-113012D01*
X987088Y-112206D01*
X985000Y-111931D01*
D02*
G37*
G36*
X1185000Y-104882D02*
X1182659Y-105348D01*
X1180674Y-106674D01*
X1179348Y-108659D01*
X1178883Y-111000D01*
X1179348Y-113341D01*
X1180674Y-115326D01*
X1182659Y-116652D01*
X1185000Y-117118D01*
X1187341Y-116652D01*
X1189326Y-115326D01*
X1190652Y-113341D01*
X1191117Y-111000D01*
X1190652Y-108659D01*
X1189326Y-106674D01*
X1187341Y-105348D01*
X1185000Y-104882D01*
D02*
G37*
G36*
X213000Y-98883D02*
X210659Y-99348D01*
X208674Y-100674D01*
X207348Y-102659D01*
X206882Y-105000D01*
X207348Y-107341D01*
X208674Y-109326D01*
X210659Y-110652D01*
X213000Y-111117D01*
X215341Y-110652D01*
X217326Y-109326D01*
X218652Y-107341D01*
X219118Y-105000D01*
X218652Y-102659D01*
X217326Y-100674D01*
X215341Y-99348D01*
X213000Y-98883D01*
D02*
G37*
G36*
X451500Y-93931D02*
X449412Y-94206D01*
X447466Y-95012D01*
X445794Y-96294D01*
X444512Y-97965D01*
X443706Y-99912D01*
X443431Y-102000D01*
X443706Y-104088D01*
X444512Y-106034D01*
X445794Y-107706D01*
X447466Y-108988D01*
X449412Y-109794D01*
X451500Y-110069D01*
X453588Y-109794D01*
X455535Y-108988D01*
X457206Y-107706D01*
X458488Y-106034D01*
X459294Y-104088D01*
X459569Y-102000D01*
X459294Y-99912D01*
X458488Y-97965D01*
X457206Y-96294D01*
X455535Y-95012D01*
X453588Y-94206D01*
X451500Y-93931D01*
D02*
G37*
G36*
X660000Y-120157D02*
X658147Y-120526D01*
X656575Y-121575D01*
X655706Y-122877D01*
X655239Y-122979D01*
X654761D01*
X654294Y-122877D01*
X653425Y-121575D01*
X651853Y-120526D01*
X650000Y-120157D01*
X648147Y-120526D01*
X646575Y-121575D01*
X645526Y-123147D01*
X645157Y-125000D01*
X645526Y-126853D01*
X646575Y-128425D01*
X648147Y-129474D01*
X650000Y-129843D01*
X651853Y-129474D01*
X653425Y-128425D01*
X654294Y-127123D01*
X654761Y-127021D01*
X655239D01*
X655706Y-127123D01*
X656575Y-128425D01*
X658147Y-129474D01*
X660000Y-129843D01*
X661853Y-129474D01*
X663425Y-128425D01*
X664474Y-126853D01*
X664843Y-125000D01*
X664474Y-123147D01*
X663425Y-121575D01*
X661853Y-120526D01*
X660000Y-120157D01*
D02*
G37*
G36*
X594000Y-101157D02*
X592147Y-101526D01*
X590575Y-102575D01*
X589526Y-104147D01*
X589157Y-106000D01*
X589526Y-107853D01*
X590575Y-109424D01*
X591877Y-110294D01*
X591979Y-110761D01*
Y-111239D01*
X591877Y-111706D01*
X590575Y-112575D01*
X589526Y-114147D01*
X589157Y-116000D01*
X589526Y-117853D01*
X590575Y-119425D01*
X592147Y-120474D01*
X594000Y-120843D01*
X595853Y-120474D01*
X597425Y-119425D01*
X598474Y-117853D01*
X598843Y-116000D01*
X598474Y-114147D01*
X597425Y-112575D01*
X596123Y-111706D01*
X596021Y-111239D01*
Y-110761D01*
X596123Y-110294D01*
X597425Y-109424D01*
X598474Y-107853D01*
X598843Y-106000D01*
X598474Y-104147D01*
X597425Y-102575D01*
X595853Y-101526D01*
X594000Y-101157D01*
D02*
G37*
G36*
X323000Y-103931D02*
X320912Y-104206D01*
X318965Y-105012D01*
X317294Y-106294D01*
X316012Y-107965D01*
X315206Y-109912D01*
X314931Y-112000D01*
X315206Y-114088D01*
X316012Y-116034D01*
X317294Y-117706D01*
X318965Y-118988D01*
X320912Y-119794D01*
X323000Y-120069D01*
X325088Y-119794D01*
X327034Y-118988D01*
X328706Y-117706D01*
X329988Y-116034D01*
X330794Y-114088D01*
X331069Y-112000D01*
X330794Y-109912D01*
X329988Y-107965D01*
X328706Y-106294D01*
X327034Y-105012D01*
X325088Y-104206D01*
X323000Y-103931D01*
D02*
G37*
G36*
X895000Y-161157D02*
X893147Y-161526D01*
X891575Y-162575D01*
X890526Y-164147D01*
X890157Y-166000D01*
X890526Y-167853D01*
X891575Y-169425D01*
X893147Y-170474D01*
X895000Y-170843D01*
X896853Y-170474D01*
X898425Y-169425D01*
X899474Y-167853D01*
X899843Y-166000D01*
X899474Y-164147D01*
X898425Y-162575D01*
X896853Y-161526D01*
X895000Y-161157D01*
D02*
G37*
G36*
X492000Y-160157D02*
X490147Y-160526D01*
X488576Y-161575D01*
X487526Y-163147D01*
X487157Y-165000D01*
X487526Y-166853D01*
X488576Y-168425D01*
X490147Y-169474D01*
X492000Y-169843D01*
X493853Y-169474D01*
X495425Y-168425D01*
X496474Y-166853D01*
X496843Y-165000D01*
X496474Y-163147D01*
X495425Y-161575D01*
X493853Y-160526D01*
X492000Y-160157D01*
D02*
G37*
G36*
X323000Y-149931D02*
X320912Y-150206D01*
X318965Y-151012D01*
X317294Y-152294D01*
X316012Y-153966D01*
X315206Y-155912D01*
X314931Y-158000D01*
X315206Y-160088D01*
X316012Y-162034D01*
X317294Y-163706D01*
X318965Y-164988D01*
X320912Y-165794D01*
X323000Y-166069D01*
X325088Y-165794D01*
X327034Y-164988D01*
X328706Y-163706D01*
X329988Y-162034D01*
X330794Y-160088D01*
X331069Y-158000D01*
X330794Y-155912D01*
X329988Y-153966D01*
X328706Y-152294D01*
X327034Y-151012D01*
X325088Y-150206D01*
X323000Y-149931D01*
D02*
G37*
G36*
X585000Y-190157D02*
X583147Y-190526D01*
X581575Y-191575D01*
X580526Y-193147D01*
X580157Y-195000D01*
X580526Y-196853D01*
X581575Y-198424D01*
X583147Y-199474D01*
X585000Y-199843D01*
X586853Y-199474D01*
X588425Y-198424D01*
X589474Y-196853D01*
X589843Y-195000D01*
X589474Y-193147D01*
X588425Y-191575D01*
X586853Y-190526D01*
X585000Y-190157D01*
D02*
G37*
G36*
X863000Y-184157D02*
X861147Y-184526D01*
X859575Y-185575D01*
X858526Y-187147D01*
X858157Y-189000D01*
X858526Y-190853D01*
X859575Y-192425D01*
X861147Y-193474D01*
X863000Y-193843D01*
X864853Y-193474D01*
X866425Y-192425D01*
X867474Y-190853D01*
X867843Y-189000D01*
X867474Y-187147D01*
X866425Y-185575D01*
X864853Y-184526D01*
X863000Y-184157D01*
D02*
G37*
G36*
X317000Y-170931D02*
X314912Y-171206D01*
X312966Y-172012D01*
X311294Y-173294D01*
X310012Y-174965D01*
X309206Y-176912D01*
X308931Y-179000D01*
X309206Y-181088D01*
X310012Y-183034D01*
X311294Y-184706D01*
X312966Y-185988D01*
X314912Y-186794D01*
X317000Y-187069D01*
X319088Y-186794D01*
X321035Y-185988D01*
X322706Y-184706D01*
X323988Y-183034D01*
X324794Y-181088D01*
X325069Y-179000D01*
X324794Y-176912D01*
X323988Y-174965D01*
X322706Y-173294D01*
X321035Y-172012D01*
X319088Y-171206D01*
X317000Y-170931D01*
D02*
G37*
G36*
X604000Y-141157D02*
X602147Y-141526D01*
X600575Y-142575D01*
X599526Y-144147D01*
X599157Y-146000D01*
X599526Y-147853D01*
X600575Y-149424D01*
X602147Y-150474D01*
X604000Y-150843D01*
X605853Y-150474D01*
X607425Y-149424D01*
X608474Y-147853D01*
X608843Y-146000D01*
X608474Y-144147D01*
X607425Y-142575D01*
X605853Y-141526D01*
X604000Y-141157D01*
D02*
G37*
G36*
X851000Y-143157D02*
X849147Y-143526D01*
X847576Y-144576D01*
X846424D01*
X844853Y-143526D01*
X843000Y-143157D01*
X841147Y-143526D01*
X839575Y-144576D01*
X838526Y-146147D01*
X838157Y-148000D01*
X838526Y-149853D01*
X839575Y-151425D01*
X841147Y-152474D01*
X843000Y-152843D01*
X844853Y-152474D01*
X846424Y-151425D01*
X847576D01*
X849147Y-152474D01*
X851000Y-152843D01*
X852853Y-152474D01*
X854425Y-151425D01*
X855474Y-149853D01*
X855843Y-148000D01*
X855474Y-146147D01*
X854425Y-144576D01*
X852853Y-143526D01*
X851000Y-143157D01*
D02*
G37*
G36*
X589000Y-162157D02*
X587147Y-162526D01*
X585575Y-163575D01*
X584425D01*
X582853Y-162526D01*
X581000Y-162157D01*
X579147Y-162526D01*
X577575Y-163575D01*
X576526Y-165147D01*
X576157Y-167000D01*
X576526Y-168853D01*
X577575Y-170425D01*
X579147Y-171474D01*
X581000Y-171843D01*
X582853Y-171474D01*
X584425Y-170425D01*
X585575D01*
X587147Y-171474D01*
X589000Y-171843D01*
X590853Y-171474D01*
X592425Y-170425D01*
X593474Y-168853D01*
X593843Y-167000D01*
X593474Y-165147D01*
X592425Y-163575D01*
X590853Y-162526D01*
X589000Y-162157D01*
D02*
G37*
G36*
X451500Y-139931D02*
X449412Y-140206D01*
X447466Y-141012D01*
X445794Y-142294D01*
X444512Y-143966D01*
X443706Y-145912D01*
X443431Y-148000D01*
X443706Y-150088D01*
X444512Y-152035D01*
X445794Y-153706D01*
X447466Y-154988D01*
X449412Y-155794D01*
X451500Y-156069D01*
X453588Y-155794D01*
X455535Y-154988D01*
X457206Y-153706D01*
X458488Y-152035D01*
X459294Y-150088D01*
X459569Y-148000D01*
X459294Y-145912D01*
X458488Y-143966D01*
X457206Y-142294D01*
X455535Y-141012D01*
X453588Y-140206D01*
X451500Y-139931D01*
D02*
G37*
G36*
X895000Y-143157D02*
X893147Y-143526D01*
X891575Y-144576D01*
X890526Y-146147D01*
X890157Y-148000D01*
X890526Y-149853D01*
X891575Y-151425D01*
X893147Y-152474D01*
X895000Y-152843D01*
X896853Y-152474D01*
X898425Y-151425D01*
X899474Y-149853D01*
X899843Y-148000D01*
X899474Y-146147D01*
X898425Y-144576D01*
X896853Y-143526D01*
X895000Y-143157D01*
D02*
G37*
G36*
X317000Y13069D02*
X314912Y12794D01*
X312966Y11988D01*
X311294Y10706D01*
X310012Y9035D01*
X309206Y7088D01*
X308931Y5000D01*
X309206Y2912D01*
X310012Y966D01*
X311294Y-706D01*
X312966Y-1988D01*
X314912Y-2794D01*
X317000Y-3069D01*
X319088Y-2794D01*
X321035Y-1988D01*
X322706Y-706D01*
X323988Y966D01*
X324794Y2912D01*
X325069Y5000D01*
X324794Y7088D01*
X323988Y9035D01*
X322706Y10706D01*
X321035Y11988D01*
X319088Y12794D01*
X317000Y13069D01*
D02*
G37*
G36*
X215000Y139843D02*
X213147Y139474D01*
X211575Y138425D01*
X210526Y136853D01*
X210157Y135000D01*
X210526Y133147D01*
X211575Y131575D01*
X213147Y130526D01*
X215000Y130157D01*
X216853Y130526D01*
X218425Y131575D01*
X219474Y133147D01*
X219843Y135000D01*
X219474Y136853D01*
X218425Y138425D01*
X216853Y139474D01*
X215000Y139843D01*
D02*
G37*
G36*
X230000D02*
X228147Y139474D01*
X226575Y138425D01*
X225526Y136853D01*
X225157Y135000D01*
X225526Y133147D01*
X226575Y131575D01*
X228147Y130526D01*
X230000Y130157D01*
X231853Y130526D01*
X233425Y131575D01*
X234474Y133147D01*
X234843Y135000D01*
X234474Y136853D01*
X233425Y138425D01*
X231853Y139474D01*
X230000Y139843D01*
D02*
G37*
G36*
X1051000Y143069D02*
X1048912Y142794D01*
X1046965Y141988D01*
X1045302Y140711D01*
X1045013Y140498D01*
X1043987D01*
X1043698Y140711D01*
X1042035Y141988D01*
X1040088Y142794D01*
X1038000Y143069D01*
X1035912Y142794D01*
X1033966Y141988D01*
X1032302Y140711D01*
X1032013Y140498D01*
X1030987D01*
X1030698Y140711D01*
X1029035Y141988D01*
X1027088Y142794D01*
X1025000Y143069D01*
X1022912Y142794D01*
X1020965Y141988D01*
X1019302Y140711D01*
X1019013Y140498D01*
X1017987D01*
X1017698Y140711D01*
X1016034Y141988D01*
X1014088Y142794D01*
X1012000Y143069D01*
X1009912Y142794D01*
X1007965Y141988D01*
X1006294Y140706D01*
X1005706D01*
X1004035Y141988D01*
X1002088Y142794D01*
X1000000Y143069D01*
X997912Y142794D01*
X995965Y141988D01*
X994294Y140706D01*
X993706D01*
X992035Y141988D01*
X990088Y142794D01*
X988000Y143069D01*
X985912Y142794D01*
X983966Y141988D01*
X982302Y140711D01*
X982013Y140498D01*
X980987D01*
X980698Y140711D01*
X979035Y141988D01*
X977088Y142794D01*
X975000Y143069D01*
X972912Y142794D01*
X970965Y141988D01*
X969302Y140711D01*
X969013Y140498D01*
X967987D01*
X967698Y140711D01*
X966034Y141988D01*
X964088Y142794D01*
X962000Y143069D01*
X959912Y142794D01*
X957965Y141988D01*
X956302Y140711D01*
X956013Y140498D01*
X954987D01*
X954698Y140711D01*
X953035Y141988D01*
X951088Y142794D01*
X949000Y143069D01*
X946912Y142794D01*
X944966Y141988D01*
X943294Y140706D01*
X942012Y139035D01*
X941206Y137088D01*
X940931Y135000D01*
X941206Y132912D01*
X942012Y130965D01*
X942753Y130000D01*
X942012Y129035D01*
X941206Y127088D01*
X940931Y125000D01*
X941206Y122912D01*
X942012Y120965D01*
X943294Y119294D01*
X944966Y118012D01*
X946912Y117206D01*
X949000Y116931D01*
X951088Y117206D01*
X953035Y118012D01*
X954698Y119289D01*
X954987Y119502D01*
X956013D01*
X956302Y119289D01*
X957965Y118012D01*
X959912Y117206D01*
X962000Y116931D01*
X964088Y117206D01*
X966034Y118012D01*
X967698Y119289D01*
X967987Y119502D01*
X969013D01*
X969302Y119289D01*
X970965Y118012D01*
X972912Y117206D01*
X975000Y116931D01*
X977088Y117206D01*
X979035Y118012D01*
X980698Y119289D01*
X980987Y119502D01*
X982013D01*
X982302Y119289D01*
X983966Y118012D01*
X985912Y117206D01*
X988000Y116931D01*
X990088Y117206D01*
X992035Y118012D01*
X993706Y119294D01*
X994294D01*
X995965Y118012D01*
X997912Y117206D01*
X1000000Y116931D01*
X1002088Y117206D01*
X1004035Y118012D01*
X1005706Y119294D01*
X1006294D01*
X1007965Y118012D01*
X1009912Y117206D01*
X1012000Y116931D01*
X1014088Y117206D01*
X1016034Y118012D01*
X1017698Y119289D01*
X1017987Y119502D01*
X1019013D01*
X1019302Y119289D01*
X1020965Y118012D01*
X1022912Y117206D01*
X1025000Y116931D01*
X1027088Y117206D01*
X1029035Y118012D01*
X1030698Y119289D01*
X1030987Y119502D01*
X1032013D01*
X1032302Y119289D01*
X1033966Y118012D01*
X1035912Y117206D01*
X1038000Y116931D01*
X1040088Y117206D01*
X1042035Y118012D01*
X1043698Y119289D01*
X1043987Y119502D01*
X1045013D01*
X1045302Y119289D01*
X1046965Y118012D01*
X1048912Y117206D01*
X1051000Y116931D01*
X1053088Y117206D01*
X1055034Y118012D01*
X1056706Y119294D01*
X1057988Y120965D01*
X1058794Y122912D01*
X1059069Y125000D01*
X1058794Y127088D01*
X1057988Y129035D01*
X1057247Y130000D01*
X1057988Y130965D01*
X1058794Y132912D01*
X1059069Y135000D01*
X1058794Y137088D01*
X1057988Y139035D01*
X1056706Y140706D01*
X1055034Y141988D01*
X1053088Y142794D01*
X1051000Y143069D01*
D02*
G37*
G36*
X451500Y136069D02*
X449412Y135794D01*
X447466Y134988D01*
X445794Y133706D01*
X444512Y132035D01*
X443706Y130088D01*
X443431Y128000D01*
X443706Y125912D01*
X444512Y123966D01*
X445794Y122294D01*
X447466Y121012D01*
X449412Y120206D01*
X451500Y119931D01*
X453588Y120206D01*
X455535Y121012D01*
X457206Y122294D01*
X458488Y123966D01*
X459294Y125912D01*
X459569Y128000D01*
X459294Y130088D01*
X458488Y132035D01*
X457206Y133706D01*
X455535Y134988D01*
X453588Y135794D01*
X451500Y136069D01*
D02*
G37*
G36*
X854000Y131843D02*
X852147Y131474D01*
X850575Y130425D01*
X849526Y128853D01*
X849157Y127000D01*
X849526Y125147D01*
X850575Y123575D01*
X852147Y122526D01*
X854000Y122157D01*
X855853Y122526D01*
X857424Y123575D01*
X858474Y125147D01*
X858843Y127000D01*
X858474Y128853D01*
X857424Y130425D01*
X855853Y131474D01*
X854000Y131843D01*
D02*
G37*
G36*
X920000Y133843D02*
X918147Y133474D01*
X916575Y132425D01*
X915526Y130853D01*
X915157Y129000D01*
X915526Y127147D01*
X916575Y125575D01*
X918147Y124526D01*
X920000Y124157D01*
X921853Y124526D01*
X923425Y125575D01*
X924474Y127147D01*
X924843Y129000D01*
X924474Y130853D01*
X923425Y132425D01*
X921853Y133474D01*
X920000Y133843D01*
D02*
G37*
G36*
X323000Y172069D02*
X320912Y171794D01*
X318965Y170988D01*
X317294Y169706D01*
X316012Y168034D01*
X315206Y166088D01*
X314931Y164000D01*
X315206Y161912D01*
X316012Y159965D01*
X317294Y158294D01*
X318965Y157012D01*
X320912Y156206D01*
X323000Y155931D01*
X325088Y156206D01*
X327034Y157012D01*
X328706Y158294D01*
X329988Y159965D01*
X330794Y161912D01*
X331069Y164000D01*
X330794Y166088D01*
X329988Y168034D01*
X328706Y169706D01*
X327034Y170988D01*
X325088Y171794D01*
X323000Y172069D01*
D02*
G37*
G36*
X863000Y173843D02*
X861147Y173474D01*
X859575Y172425D01*
X858526Y170853D01*
X858157Y169000D01*
X858526Y167147D01*
X859575Y165576D01*
Y165424D01*
X858526Y163853D01*
X858157Y162000D01*
X858526Y160147D01*
X859575Y158575D01*
X861147Y157526D01*
X863000Y157157D01*
X864853Y157526D01*
X866425Y158575D01*
X867474Y160147D01*
X867843Y162000D01*
X867474Y163853D01*
X866425Y165424D01*
Y165576D01*
X867474Y167147D01*
X867843Y169000D01*
X867474Y170853D01*
X866425Y172425D01*
X864853Y173474D01*
X863000Y173843D01*
D02*
G37*
G36*
X250000Y241359D02*
X244602Y241005D01*
X239296Y239949D01*
X234173Y238210D01*
X229321Y235818D01*
X224823Y232812D01*
X220755Y229245D01*
X217188Y225177D01*
X214182Y220679D01*
X211790Y215827D01*
X210051Y210704D01*
X208995Y205398D01*
X208641Y200000D01*
X208995Y194602D01*
X210051Y189296D01*
X211790Y184173D01*
X214182Y179321D01*
X217188Y174823D01*
X220755Y170755D01*
X224823Y167188D01*
X229321Y164182D01*
X234173Y161790D01*
X239296Y160051D01*
X244602Y158995D01*
X250000Y158642D01*
X255398Y158995D01*
X260704Y160051D01*
X265827Y161790D01*
X270679Y164182D01*
X275177Y167188D01*
X279245Y170755D01*
X282812Y174823D01*
X285818Y179321D01*
X288210Y184173D01*
X289949Y189296D01*
X291005Y194602D01*
X291359Y200000D01*
X291005Y205398D01*
X289949Y210704D01*
X288210Y215827D01*
X285818Y220679D01*
X282812Y225177D01*
X279245Y229245D01*
X275177Y232812D01*
X270679Y235818D01*
X265827Y238210D01*
X260704Y239949D01*
X255398Y241005D01*
X250000Y241359D01*
D02*
G37*
G36*
X492000Y161843D02*
X490147Y161474D01*
X488576Y160424D01*
X487526Y158853D01*
X487157Y157000D01*
X487526Y155147D01*
X488576Y153575D01*
X490147Y152526D01*
X492000Y152157D01*
X493853Y152526D01*
X495425Y153575D01*
X496474Y155147D01*
X496843Y157000D01*
X496474Y158853D01*
X495425Y160424D01*
X493853Y161474D01*
X492000Y161843D01*
D02*
G37*
G36*
X785000Y162843D02*
X783147Y162474D01*
X781575Y161425D01*
X780526Y159853D01*
X780157Y158000D01*
X780526Y156147D01*
X781575Y154575D01*
X783147Y153526D01*
X785000Y153157D01*
X786853Y153526D01*
X788425Y154575D01*
X789474Y156147D01*
X789843Y158000D01*
X789474Y159853D01*
X788425Y161425D01*
X786853Y162474D01*
X785000Y162843D01*
D02*
G37*
G36*
X757000Y164843D02*
X755147Y164474D01*
X753576Y163425D01*
X752526Y161853D01*
X752157Y160000D01*
X752526Y158147D01*
X753576Y156575D01*
X755147Y155526D01*
X757000Y155157D01*
X758853Y155526D01*
X760425Y156575D01*
X761474Y158147D01*
X761843Y160000D01*
X761474Y161853D01*
X760425Y163425D01*
X758853Y164474D01*
X757000Y164843D01*
D02*
G37*
G36*
X317000Y105069D02*
X314912Y104794D01*
X312966Y103988D01*
X311294Y102706D01*
X310012Y101034D01*
X309206Y99088D01*
X308931Y97000D01*
X309206Y94912D01*
X310012Y92965D01*
X311294Y91294D01*
X312966Y90012D01*
X314912Y89206D01*
X317000Y88931D01*
X319088Y89206D01*
X321035Y90012D01*
X322706Y91294D01*
X323988Y92965D01*
X324794Y94912D01*
X325069Y97000D01*
X324794Y99088D01*
X323988Y101034D01*
X322706Y102706D01*
X321035Y103988D01*
X319088Y104794D01*
X317000Y105069D01*
D02*
G37*
G36*
X1080000Y105118D02*
X1077659Y104652D01*
X1075674Y103326D01*
X1074348Y101341D01*
X1073883Y99000D01*
X1074348Y96659D01*
X1075674Y94674D01*
X1077659Y93348D01*
X1080000Y92882D01*
X1082341Y93348D01*
X1084326Y94674D01*
X1085652Y96659D01*
X1086117Y99000D01*
X1085652Y101341D01*
X1084326Y103326D01*
X1082341Y104652D01*
X1080000Y105118D01*
D02*
G37*
G36*
X655000Y116808D02*
X653238Y116576D01*
X651596Y115896D01*
X650186Y114814D01*
X649104Y113404D01*
X648424Y111762D01*
X648192Y110000D01*
X648424Y108238D01*
X649104Y106596D01*
X650186Y105186D01*
X651596Y104104D01*
X653238Y103424D01*
X655000Y103192D01*
X656762Y103424D01*
X658404Y104104D01*
X659814Y105186D01*
X660896Y106596D01*
X661576Y108238D01*
X661808Y110000D01*
X661576Y111762D01*
X660896Y113404D01*
X659814Y114814D01*
X658404Y115896D01*
X656762Y116576D01*
X655000Y116808D01*
D02*
G37*
G36*
X701000Y87843D02*
X699147Y87474D01*
X697575Y86425D01*
X696526Y84853D01*
X696157Y83000D01*
X696526Y81147D01*
X697575Y79576D01*
X699147Y78526D01*
X701000Y78157D01*
X702853Y78526D01*
X704425Y79576D01*
X705474Y81147D01*
X705843Y83000D01*
X705474Y84853D01*
X704425Y86425D01*
X702853Y87474D01*
X701000Y87843D01*
D02*
G37*
G36*
X930000Y111808D02*
X928238Y111576D01*
X926596Y110896D01*
X925186Y109814D01*
X924104Y108404D01*
X923424Y106762D01*
X923192Y105000D01*
X923424Y103238D01*
X924104Y101596D01*
X925186Y100186D01*
Y99814D01*
X924104Y98404D01*
X923424Y96762D01*
X923192Y95000D01*
X923424Y93238D01*
X924104Y91596D01*
X924592Y90960D01*
X925089Y90000D01*
X924592Y89040D01*
X924104Y88404D01*
X923424Y86762D01*
X923192Y85000D01*
X923424Y83238D01*
X924104Y81596D01*
X925186Y80186D01*
X926596Y79104D01*
X928238Y78424D01*
X930000Y78192D01*
X931762Y78424D01*
X933404Y79104D01*
X934814Y80186D01*
X935896Y81596D01*
X936576Y83238D01*
X936808Y85000D01*
X936576Y86762D01*
X935896Y88404D01*
X935408Y89040D01*
X934911Y90000D01*
X935408Y90960D01*
X935896Y91596D01*
X936576Y93238D01*
X936808Y95000D01*
X936576Y96762D01*
X935896Y98404D01*
X934814Y99814D01*
Y100186D01*
X935896Y101596D01*
X936576Y103238D01*
X936808Y105000D01*
X936576Y106762D01*
X935896Y108404D01*
X934814Y109814D01*
X933404Y110896D01*
X931762Y111576D01*
X930000Y111808D01*
D02*
G37*
G36*
X782000Y116843D02*
X780147Y116474D01*
X778576Y115425D01*
X777526Y113853D01*
X777157Y112000D01*
X777526Y110147D01*
X778576Y108575D01*
X780147Y107526D01*
X782000Y107157D01*
X783447Y107445D01*
X783639Y107339D01*
X784340Y106639D01*
X784445Y106447D01*
X784157Y105000D01*
X784526Y103147D01*
X785575Y101575D01*
X787147Y100526D01*
X789000Y100157D01*
X790447Y100445D01*
X790639Y100340D01*
X791339Y99639D01*
X791445Y99447D01*
X791157Y98000D01*
X791526Y96147D01*
X792576Y94576D01*
X794147Y93526D01*
X796000Y93157D01*
X797853Y93526D01*
X798213Y93766D01*
X799356Y93003D01*
X799157Y92000D01*
X799526Y90147D01*
X800575Y88575D01*
X802147Y87526D01*
X804000Y87157D01*
X805853Y87526D01*
X807424Y88575D01*
X808474Y90147D01*
X808843Y92000D01*
X808474Y93853D01*
X807424Y95424D01*
X805853Y96474D01*
X804000Y96843D01*
X802147Y96474D01*
X801787Y96234D01*
X800644Y96997D01*
X800843Y98000D01*
X800474Y99853D01*
X799425Y101425D01*
X797853Y102474D01*
X796000Y102843D01*
X794553Y102555D01*
X794361Y102661D01*
X793661Y103361D01*
X793555Y103553D01*
X793843Y105000D01*
X793474Y106853D01*
X792425Y108425D01*
X790853Y109474D01*
X789000Y109843D01*
X787553Y109555D01*
X787361Y109661D01*
X786661Y110361D01*
X786555Y110553D01*
X786843Y112000D01*
X786474Y113853D01*
X785425Y115425D01*
X783853Y116474D01*
X782000Y116843D01*
D02*
G37*
G36*
X323000Y126069D02*
X320912Y125794D01*
X318965Y124988D01*
X317294Y123706D01*
X316012Y122035D01*
X315206Y120088D01*
X314931Y118000D01*
X315206Y115912D01*
X316012Y113966D01*
X317294Y112294D01*
X318965Y111012D01*
X320912Y110206D01*
X323000Y109931D01*
X325088Y110206D01*
X327034Y111012D01*
X328706Y112294D01*
X329988Y113966D01*
X330794Y115912D01*
X331069Y118000D01*
X330794Y120088D01*
X329988Y122035D01*
X328706Y123706D01*
X327034Y124988D01*
X325088Y125794D01*
X323000Y126069D01*
D02*
G37*
G36*
X773000Y125843D02*
X771147Y125474D01*
X769575Y124425D01*
X768526Y122853D01*
X768157Y121000D01*
X768526Y119147D01*
X769575Y117576D01*
X771147Y116526D01*
X773000Y116157D01*
X774853Y116526D01*
X776425Y117576D01*
X777474Y119147D01*
X777843Y121000D01*
X777474Y122853D01*
X776425Y124425D01*
X774853Y125474D01*
X773000Y125843D01*
D02*
G37*
G36*
X1315000Y118069D02*
X1312912Y117794D01*
X1310966Y116988D01*
X1310000Y116247D01*
X1309034Y116988D01*
X1307088Y117794D01*
X1305000Y118069D01*
X1302912Y117794D01*
X1300966Y116988D01*
X1299294Y115706D01*
X1298012Y114035D01*
X1297206Y112088D01*
X1296931Y110000D01*
X1297206Y107912D01*
X1298012Y105965D01*
X1299294Y104294D01*
X1300966Y103012D01*
X1302912Y102206D01*
X1305000Y101931D01*
X1307088Y102206D01*
X1309034Y103012D01*
X1310000Y103753D01*
X1310966Y103012D01*
X1312912Y102206D01*
X1315000Y101931D01*
X1317088Y102206D01*
X1319034Y103012D01*
X1320706Y104294D01*
X1321988Y105965D01*
X1322794Y107912D01*
X1323069Y110000D01*
X1322794Y112088D01*
X1321988Y114035D01*
X1320706Y115706D01*
X1319034Y116988D01*
X1317088Y117794D01*
X1315000Y118069D01*
D02*
G37*
G36*
X492000Y115843D02*
X490147Y115474D01*
X488576Y114425D01*
X487526Y112853D01*
X487157Y111000D01*
X487526Y109147D01*
X488576Y107576D01*
X490147Y106526D01*
X492000Y106157D01*
X493853Y106526D01*
X495425Y107576D01*
X496474Y109147D01*
X496843Y111000D01*
X496474Y112853D01*
X495425Y114425D01*
X493853Y115474D01*
X492000Y115843D01*
D02*
G37*
G36*
X822000Y117843D02*
X820147Y117474D01*
X818576Y116425D01*
X817526Y114853D01*
X817157Y113000D01*
X817526Y111147D01*
X818576Y109575D01*
X820147Y108526D01*
X822000Y108157D01*
X823853Y108526D01*
X825425Y109575D01*
X826474Y111147D01*
X826843Y113000D01*
X826474Y114853D01*
X825425Y116425D01*
X823853Y117474D01*
X822000Y117843D01*
D02*
G37*
G36*
X1150000Y241359D02*
X1144602Y241005D01*
X1139296Y239949D01*
X1134173Y238210D01*
X1129321Y235818D01*
X1124822Y232812D01*
X1120755Y229245D01*
X1117188Y225177D01*
X1114183Y220679D01*
X1111790Y215827D01*
X1110051Y210704D01*
X1108995Y205398D01*
X1108642Y200000D01*
X1108995Y194602D01*
X1110051Y189296D01*
X1111790Y184173D01*
X1114183Y179321D01*
X1117188Y174823D01*
X1120755Y170755D01*
X1124822Y167188D01*
X1129321Y164182D01*
X1134173Y161790D01*
X1139296Y160051D01*
X1144602Y158995D01*
X1150000Y158642D01*
X1155398Y158995D01*
X1160704Y160051D01*
X1165827Y161790D01*
X1170679Y164182D01*
X1175178Y167188D01*
X1179245Y170755D01*
X1182812Y174823D01*
X1185818Y179321D01*
X1188210Y184173D01*
X1189949Y189296D01*
X1191005Y194602D01*
X1191359Y200000D01*
X1191005Y205398D01*
X1189949Y210704D01*
X1188210Y215827D01*
X1185818Y220679D01*
X1182812Y225177D01*
X1179245Y229245D01*
X1175178Y232812D01*
X1170679Y235818D01*
X1165827Y238210D01*
X1160704Y239949D01*
X1155398Y241005D01*
X1150000Y241359D01*
D02*
G37*
G36*
X1038100Y252221D02*
X1034445Y251740D01*
X1031040Y250329D01*
X1028115Y248085D01*
X1026152Y245527D01*
X1025809Y245424D01*
X1024991D01*
X1024648Y245527D01*
X1022685Y248085D01*
X1019760Y250329D01*
X1016355Y251740D01*
X1012700Y252221D01*
X1009045Y251740D01*
X1005640Y250329D01*
X1002715Y248085D01*
X1000752Y245527D01*
X1000409Y245424D01*
X999591D01*
X999248Y245527D01*
X997285Y248085D01*
X994360Y250329D01*
X990955Y251740D01*
X987300Y252221D01*
X983645Y251740D01*
X980240Y250329D01*
X977315Y248085D01*
X975352Y245527D01*
X975009Y245424D01*
X974191D01*
X973848Y245527D01*
X971885Y248085D01*
X968960Y250329D01*
X965555Y251740D01*
X961900Y252221D01*
X958245Y251740D01*
X954840Y250329D01*
X951915Y248085D01*
X949671Y245160D01*
X948260Y241755D01*
X947779Y238100D01*
X948260Y234445D01*
X949671Y231040D01*
X951915Y228115D01*
X954473Y226152D01*
X954576Y225809D01*
Y224991D01*
X954473Y224648D01*
X951915Y222685D01*
X949671Y219760D01*
X948260Y216355D01*
X947779Y212700D01*
X948260Y209045D01*
X949671Y205640D01*
X951915Y202715D01*
X954473Y200752D01*
X954576Y200409D01*
Y199591D01*
X954473Y199248D01*
X951915Y197285D01*
X949671Y194360D01*
X948260Y190955D01*
X947779Y187300D01*
X948260Y183645D01*
X949671Y180240D01*
X951915Y177315D01*
X954473Y175352D01*
X954576Y175009D01*
Y174191D01*
X954473Y173848D01*
X951915Y171885D01*
X949671Y168960D01*
X948260Y165555D01*
X947779Y161900D01*
X948260Y158245D01*
X949671Y154840D01*
X951915Y151915D01*
X954840Y149671D01*
X958245Y148260D01*
X961900Y147779D01*
X965555Y148260D01*
X968960Y149671D01*
X971885Y151915D01*
X973848Y154473D01*
X974191Y154576D01*
X975009D01*
X975352Y154473D01*
X977315Y151915D01*
X980240Y149671D01*
X983645Y148260D01*
X987300Y147779D01*
X990955Y148260D01*
X994360Y149671D01*
X997285Y151915D01*
X999248Y154473D01*
X999591Y154576D01*
X1000409D01*
X1000752Y154473D01*
X1002715Y151915D01*
X1005640Y149671D01*
X1009045Y148260D01*
X1012700Y147779D01*
X1016355Y148260D01*
X1019760Y149671D01*
X1022685Y151915D01*
X1024648Y154473D01*
X1024991Y154576D01*
X1025809D01*
X1026152Y154473D01*
X1028115Y151915D01*
X1031040Y149671D01*
X1034445Y148260D01*
X1038100Y147779D01*
X1041755Y148260D01*
X1045160Y149671D01*
X1048085Y151915D01*
X1050329Y154840D01*
X1051740Y158245D01*
X1052221Y161900D01*
X1051740Y165555D01*
X1050329Y168960D01*
X1048085Y171885D01*
X1045527Y173848D01*
X1045424Y174191D01*
Y175009D01*
X1045527Y175352D01*
X1048085Y177315D01*
X1050329Y180240D01*
X1051740Y183645D01*
X1052221Y187300D01*
X1051740Y190955D01*
X1050329Y194360D01*
X1048085Y197285D01*
X1045527Y199248D01*
X1045424Y199591D01*
Y200409D01*
X1045527Y200752D01*
X1048085Y202715D01*
X1050329Y205640D01*
X1051740Y209045D01*
X1052221Y212700D01*
X1051740Y216355D01*
X1050329Y219760D01*
X1048085Y222685D01*
X1045527Y224648D01*
X1045424Y224991D01*
Y225809D01*
X1045527Y226152D01*
X1048085Y228115D01*
X1050329Y231040D01*
X1051740Y234445D01*
X1052221Y238100D01*
X1051740Y241755D01*
X1050329Y245160D01*
X1048085Y248085D01*
X1045160Y250329D01*
X1041755Y251740D01*
X1038100Y252221D01*
D02*
G37*
G36*
X323000Y264069D02*
X320912Y263794D01*
X318965Y262988D01*
X317294Y261706D01*
X316012Y260035D01*
X315206Y258088D01*
X314931Y256000D01*
X315206Y253912D01*
X316012Y251966D01*
X317294Y250294D01*
X318965Y249012D01*
X320912Y248206D01*
X323000Y247931D01*
X325088Y248206D01*
X327034Y249012D01*
X328706Y250294D01*
X329988Y251966D01*
X330794Y253912D01*
X331069Y256000D01*
X330794Y258088D01*
X329988Y260035D01*
X328706Y261706D01*
X327034Y262988D01*
X325088Y263794D01*
X323000Y264069D01*
D02*
G37*
G36*
X451500Y274069D02*
X449412Y273794D01*
X447466Y272988D01*
X445794Y271706D01*
X444512Y270035D01*
X443706Y268088D01*
X443431Y266000D01*
X443706Y263912D01*
X444512Y261966D01*
X445794Y260294D01*
X447466Y259012D01*
X449412Y258206D01*
X451500Y257931D01*
X453588Y258206D01*
X455535Y259012D01*
X457206Y260294D01*
X458488Y261966D01*
X459294Y263912D01*
X459569Y266000D01*
X459294Y268088D01*
X458488Y270035D01*
X457206Y271706D01*
X455535Y272988D01*
X453588Y273794D01*
X451500Y274069D01*
D02*
G37*
G36*
X781000Y257843D02*
X779147Y257474D01*
X777575Y256425D01*
X776526Y254853D01*
X776157Y253000D01*
X776526Y251147D01*
X777575Y249576D01*
Y248424D01*
X776526Y246853D01*
X776157Y245000D01*
X776526Y243147D01*
X777575Y241576D01*
Y240424D01*
X776526Y238853D01*
X776157Y237000D01*
X776526Y235147D01*
X777575Y233575D01*
X779147Y232526D01*
X781000Y232157D01*
X782853Y232526D01*
X784425Y233575D01*
X785474Y235147D01*
X785843Y237000D01*
X785474Y238853D01*
X784425Y240424D01*
Y241576D01*
X785474Y243147D01*
X785843Y245000D01*
X785474Y246853D01*
X784425Y248424D01*
Y249576D01*
X785474Y251147D01*
X785843Y253000D01*
X785474Y254853D01*
X784425Y256425D01*
X782853Y257474D01*
X781000Y257843D01*
D02*
G37*
G36*
X856000Y241843D02*
X854147Y241474D01*
X852575Y240425D01*
X851526Y238853D01*
X851157Y237000D01*
X851526Y235147D01*
X852575Y233575D01*
X854147Y232526D01*
X856000Y232157D01*
X857853Y232526D01*
X859425Y233575D01*
X860474Y235147D01*
X860843Y237000D01*
X860474Y238853D01*
X859425Y240425D01*
X857853Y241474D01*
X856000Y241843D01*
D02*
G37*
G36*
X492000Y253843D02*
X490147Y253474D01*
X488576Y252425D01*
X487526Y250853D01*
X487157Y249000D01*
X487526Y247147D01*
X488576Y245575D01*
X490147Y244526D01*
X492000Y244157D01*
X493853Y244526D01*
X495425Y245575D01*
X496474Y247147D01*
X496843Y249000D01*
X496474Y250853D01*
X495425Y252425D01*
X493853Y253474D01*
X492000Y253843D01*
D02*
G37*
G36*
X1355000Y264078D02*
X1355000Y264078D01*
X1245000D01*
X1245000Y264078D01*
X1243439Y263768D01*
X1242116Y262884D01*
X1237116Y257884D01*
X1236232Y256561D01*
X1235922Y255000D01*
X1235922Y255000D01*
Y145000D01*
X1235922Y145000D01*
X1236232Y143439D01*
X1237116Y142116D01*
X1242116Y137116D01*
X1243439Y136232D01*
X1245000Y135922D01*
X1245000Y135922D01*
X1355000D01*
X1355000Y135922D01*
X1356561Y136232D01*
X1357884Y137116D01*
X1362884Y142116D01*
X1363768Y143439D01*
X1364078Y145000D01*
X1364078Y145000D01*
Y255000D01*
X1364078Y255000D01*
X1363768Y256561D01*
X1362884Y257884D01*
X1357884Y262884D01*
X1356561Y263768D01*
X1356302Y263819D01*
X1355000Y264078D01*
D02*
G37*
G36*
X970000Y285808D02*
X968238Y285576D01*
X966596Y284896D01*
X965186Y283814D01*
X964104Y282404D01*
X963424Y280762D01*
X963192Y279000D01*
X963424Y277238D01*
X964104Y275596D01*
X964561Y275000D01*
X964104Y274404D01*
X963424Y272762D01*
X963192Y271000D01*
X963424Y269238D01*
X964104Y267596D01*
X965186Y266186D01*
X966596Y265104D01*
X968238Y264424D01*
X970000Y264192D01*
X971762Y264424D01*
X973404Y265104D01*
X974814Y266186D01*
X975896Y267596D01*
X976576Y269238D01*
X976808Y271000D01*
X976576Y272762D01*
X975896Y274404D01*
X975439Y275000D01*
X975896Y275596D01*
X976576Y277238D01*
X976808Y279000D01*
X976576Y280762D01*
X975896Y282404D01*
X974814Y283814D01*
X973404Y284896D01*
X971762Y285576D01*
X970000Y285808D01*
D02*
G37*
G36*
X931000Y279843D02*
X929147Y279474D01*
X928527Y279060D01*
X927500Y278468D01*
X926473Y279060D01*
X925853Y279474D01*
X924000Y279843D01*
X922147Y279474D01*
X920575Y278425D01*
X919526Y276853D01*
X919157Y275000D01*
X919526Y273147D01*
X920575Y271576D01*
X922147Y270526D01*
X924000Y270157D01*
X925853Y270526D01*
X926473Y270940D01*
X927500Y271532D01*
X928527Y270940D01*
X929147Y270526D01*
X931000Y270157D01*
X932853Y270526D01*
X934425Y271576D01*
X935474Y273147D01*
X935843Y275000D01*
X935474Y276853D01*
X934425Y278425D01*
X932853Y279474D01*
X931000Y279843D01*
D02*
G37*
G36*
X695000Y275843D02*
X693147Y275474D01*
X691575Y274424D01*
X690526Y272853D01*
X690157Y271000D01*
X690526Y269147D01*
X691575Y267575D01*
Y266425D01*
X690526Y264853D01*
X690157Y263000D01*
X690526Y261147D01*
X691575Y259576D01*
X693147Y258526D01*
X695000Y258157D01*
X696853Y258526D01*
X698425Y259576D01*
X699474Y261147D01*
X699843Y263000D01*
X699474Y264853D01*
X698425Y266425D01*
Y267575D01*
X699474Y269147D01*
X699843Y271000D01*
X699474Y272853D01*
X698425Y274424D01*
X696853Y275474D01*
X695000Y275843D01*
D02*
G37*
G36*
X720000D02*
X718147Y275474D01*
X716575Y274424D01*
X715526Y272853D01*
X715157Y271000D01*
X715526Y269147D01*
X716575Y267575D01*
Y266425D01*
X715526Y264853D01*
X715157Y263000D01*
X715526Y261147D01*
X716575Y259576D01*
X718147Y258526D01*
X720000Y258157D01*
X721853Y258526D01*
X723425Y259576D01*
X724474Y261147D01*
X724843Y263000D01*
X724474Y264853D01*
X723425Y266425D01*
Y267575D01*
X724474Y269147D01*
X724843Y271000D01*
X724474Y272853D01*
X723425Y274424D01*
X721853Y275474D01*
X720000Y275843D01*
D02*
G37*
G36*
X305000Y278069D02*
X302912Y277794D01*
X300965Y276988D01*
X299294Y275706D01*
X298012Y274035D01*
X297206Y272088D01*
X296931Y270000D01*
X297206Y267912D01*
X298012Y265965D01*
X299294Y264294D01*
X300965Y263012D01*
X302912Y262206D01*
X305000Y261931D01*
X307088Y262206D01*
X309035Y263012D01*
X310706Y264294D01*
X311988Y265965D01*
X312794Y267912D01*
X313069Y270000D01*
X312794Y272088D01*
X311988Y274035D01*
X310706Y275706D01*
X309035Y276988D01*
X307088Y277794D01*
X305000Y278069D01*
D02*
G37*
G36*
X492000Y207843D02*
X490147Y207474D01*
X488576Y206425D01*
X487526Y204853D01*
X487157Y203000D01*
X487526Y201147D01*
X488576Y199575D01*
X490147Y198526D01*
X492000Y198157D01*
X493853Y198526D01*
X495425Y199575D01*
X496474Y201147D01*
X496843Y203000D01*
X496474Y204853D01*
X495425Y206425D01*
X493853Y207474D01*
X492000Y207843D01*
D02*
G37*
G36*
X595000Y219843D02*
X593147Y219474D01*
X591575Y218425D01*
X590526Y216853D01*
X590157Y215000D01*
X590526Y213147D01*
X591575Y211575D01*
X592877Y210706D01*
X592979Y210239D01*
Y209761D01*
X592877Y209294D01*
X591575Y208425D01*
X590526Y206853D01*
X590157Y205000D01*
X590526Y203147D01*
X591575Y201575D01*
X593147Y200526D01*
X595000Y200157D01*
X596853Y200526D01*
X598425Y201575D01*
X599474Y203147D01*
X599843Y205000D01*
X599474Y206853D01*
X598425Y208425D01*
X597123Y209294D01*
X597021Y209761D01*
Y210239D01*
X597123Y210706D01*
X598425Y211575D01*
X599474Y213147D01*
X599843Y215000D01*
X599474Y216853D01*
X598425Y218425D01*
X596853Y219474D01*
X595000Y219843D01*
D02*
G37*
G36*
X745000Y202843D02*
X743147Y202474D01*
X741575Y201425D01*
X740424D01*
X738853Y202474D01*
X737000Y202843D01*
X735147Y202474D01*
X733576Y201425D01*
X732424D01*
X730853Y202474D01*
X729000Y202843D01*
X727147Y202474D01*
X725575Y201425D01*
X724425D01*
X722853Y202474D01*
X721000Y202843D01*
X719147Y202474D01*
X717576Y201425D01*
X716526Y199853D01*
X716157Y198000D01*
X716526Y196147D01*
X717576Y194576D01*
X719147Y193526D01*
X721000Y193157D01*
X722853Y193526D01*
X724425Y194576D01*
X725575D01*
X727147Y193526D01*
X729000Y193157D01*
X730853Y193526D01*
X732424Y194576D01*
X733576D01*
X735147Y193526D01*
X737000Y193157D01*
X738853Y193526D01*
X740089Y194351D01*
X741037Y194037D01*
X741351Y193089D01*
X740526Y191853D01*
X740157Y190000D01*
X740526Y188147D01*
X741575Y186575D01*
X743147Y185526D01*
X745000Y185157D01*
X746853Y185526D01*
X748425Y186575D01*
X749474Y188147D01*
X749843Y190000D01*
X749474Y191853D01*
X748425Y193424D01*
Y194576D01*
X749474Y196147D01*
X749843Y198000D01*
X749474Y199853D01*
X748425Y201425D01*
X746853Y202474D01*
X745000Y202843D01*
D02*
G37*
G36*
X451500Y182069D02*
X449412Y181794D01*
X447466Y180988D01*
X445794Y179706D01*
X444512Y178034D01*
X443706Y176088D01*
X443431Y174000D01*
X443706Y171912D01*
X444512Y169965D01*
X445794Y168294D01*
X447466Y167012D01*
X449412Y166206D01*
X451500Y165931D01*
X453588Y166206D01*
X455535Y167012D01*
X457206Y168294D01*
X458488Y169965D01*
X459294Y171912D01*
X459569Y174000D01*
X459294Y176088D01*
X458488Y178034D01*
X457206Y179706D01*
X455535Y180988D01*
X453588Y181794D01*
X451500Y182069D01*
D02*
G37*
G36*
X640000Y184843D02*
X638147Y184474D01*
X636575Y183425D01*
X635526Y181853D01*
X635157Y180000D01*
X635526Y178147D01*
X636575Y176575D01*
X638147Y175526D01*
X640000Y175157D01*
X641853Y175526D01*
X643425Y176575D01*
X644474Y178147D01*
X644843Y180000D01*
X644474Y181853D01*
X643425Y183425D01*
X641853Y184474D01*
X640000Y184843D01*
D02*
G37*
G36*
X317000Y197069D02*
X314912Y196794D01*
X312966Y195988D01*
X311294Y194706D01*
X310012Y193034D01*
X309206Y191088D01*
X308931Y189000D01*
X309206Y186912D01*
X310012Y184965D01*
X311294Y183294D01*
X312966Y182012D01*
X314912Y181206D01*
X317000Y180931D01*
X319088Y181206D01*
X321035Y182012D01*
X322706Y183294D01*
X323988Y184965D01*
X324794Y186912D01*
X325069Y189000D01*
X324794Y191088D01*
X323988Y193034D01*
X322706Y194706D01*
X321035Y195988D01*
X319088Y196794D01*
X317000Y197069D01*
D02*
G37*
G36*
X451500Y228069D02*
X449412Y227794D01*
X447466Y226988D01*
X445794Y225706D01*
X444512Y224035D01*
X443706Y222088D01*
X443431Y220000D01*
X443706Y217912D01*
X444512Y215965D01*
X445794Y214294D01*
X447466Y213012D01*
X449412Y212206D01*
X451500Y211931D01*
X453588Y212206D01*
X455535Y213012D01*
X457206Y214294D01*
X458488Y215965D01*
X459294Y217912D01*
X459569Y220000D01*
X459294Y222088D01*
X458488Y224035D01*
X457206Y225706D01*
X455535Y226988D01*
X453588Y227794D01*
X451500Y228069D01*
D02*
G37*
G36*
X772000Y232843D02*
X770147Y232474D01*
X768576Y231425D01*
X767526Y229853D01*
X767157Y228000D01*
X767526Y226147D01*
X768576Y224575D01*
X770147Y223526D01*
X772000Y223157D01*
X773853Y223526D01*
X775425Y224575D01*
X776474Y226147D01*
X776843Y228000D01*
X776474Y229853D01*
X775425Y231425D01*
X773853Y232474D01*
X772000Y232843D01*
D02*
G37*
G36*
X876000Y224843D02*
X874147Y224474D01*
X872576Y223424D01*
X871424D01*
X869853Y224474D01*
X868000Y224843D01*
X866147Y224474D01*
X864575Y223424D01*
X863526Y221853D01*
X863157Y220000D01*
X863526Y218147D01*
X864575Y216575D01*
X866147Y215526D01*
X868000Y215157D01*
X869853Y215526D01*
X871424Y216575D01*
X872576D01*
X874147Y215526D01*
X876000Y215157D01*
X877853Y215526D01*
X879425Y216575D01*
X880474Y218147D01*
X880843Y220000D01*
X880474Y221853D01*
X879425Y223424D01*
X877853Y224474D01*
X876000Y224843D01*
D02*
G37*
G36*
X323000Y218069D02*
X320912Y217794D01*
X318965Y216988D01*
X317294Y215706D01*
X316012Y214035D01*
X315206Y212088D01*
X314931Y210000D01*
X315206Y207912D01*
X316012Y205965D01*
X317294Y204294D01*
X318965Y203012D01*
X320912Y202206D01*
X323000Y201931D01*
X325088Y202206D01*
X327034Y203012D01*
X328706Y204294D01*
X329988Y205965D01*
X330794Y207912D01*
X331069Y210000D01*
X330794Y212088D01*
X329988Y214035D01*
X328706Y215706D01*
X327034Y216988D01*
X325088Y217794D01*
X323000Y218069D01*
D02*
G37*
G36*
X745000Y215843D02*
X743147Y215474D01*
X741575Y214425D01*
X740526Y212853D01*
X740157Y211000D01*
X740526Y209147D01*
X741575Y207575D01*
X743147Y206526D01*
X745000Y206157D01*
X746853Y206526D01*
X748425Y207575D01*
X749474Y209147D01*
X749843Y211000D01*
X749474Y212853D01*
X748425Y214425D01*
X746853Y215474D01*
X745000Y215843D01*
D02*
G37*
G36*
X650000Y211808D02*
X648238Y211576D01*
X646596Y210896D01*
X646500Y210823D01*
X646404Y210896D01*
X644762Y211576D01*
X643000Y211808D01*
X641238Y211576D01*
X639596Y210896D01*
X638186Y209814D01*
X637104Y208404D01*
X636424Y206762D01*
X636192Y205000D01*
X636424Y203238D01*
X637104Y201596D01*
X638186Y200186D01*
X639596Y199104D01*
X641238Y198424D01*
X643000Y198192D01*
X644762Y198424D01*
X646404Y199104D01*
X646500Y199177D01*
X646596Y199104D01*
X648238Y198424D01*
X650000Y198192D01*
X651762Y198424D01*
X653404Y199104D01*
X654814Y200186D01*
X655896Y201596D01*
X656576Y203238D01*
X656808Y205000D01*
X656576Y206762D01*
X655896Y208404D01*
X654814Y209814D01*
X653404Y210896D01*
X651762Y211576D01*
X650000Y211808D01*
D02*
G37*
G36*
X810000Y83843D02*
X808147Y83474D01*
X806575Y82424D01*
X805526Y80853D01*
X805157Y79000D01*
X805526Y77147D01*
X806575Y75575D01*
X808147Y74526D01*
X810000Y74157D01*
X811853Y74526D01*
X813425Y75575D01*
X814474Y77147D01*
X814843Y79000D01*
X814474Y80853D01*
X813425Y82424D01*
X811853Y83474D01*
X810000Y83843D01*
D02*
G37*
G36*
X1050000Y63069D02*
X1047912Y62794D01*
X1045965Y61988D01*
X1044294Y60706D01*
X1043012Y59035D01*
X1042206Y57088D01*
X1041931Y55000D01*
X1042206Y52912D01*
X1042351Y52562D01*
X1040965Y51988D01*
X1039294Y50706D01*
X1038012Y49035D01*
X1037206Y47088D01*
X1036931Y45000D01*
X1037206Y42912D01*
X1038012Y40965D01*
X1038753Y40000D01*
X1038012Y39035D01*
X1037206Y37088D01*
X1036931Y35000D01*
X1037206Y32912D01*
X1038012Y30965D01*
X1039294Y29294D01*
X1040965Y28012D01*
X1042912Y27206D01*
X1045000Y26931D01*
X1047088Y27206D01*
X1049035Y28012D01*
X1050706Y29294D01*
X1051988Y30965D01*
X1052794Y32912D01*
X1053069Y35000D01*
X1052794Y37088D01*
X1051988Y39035D01*
X1051247Y40000D01*
X1051988Y40965D01*
X1052794Y42912D01*
X1053069Y45000D01*
X1052794Y47088D01*
X1052649Y47438D01*
X1054035Y48012D01*
X1055706Y49294D01*
X1056988Y50965D01*
X1057794Y52912D01*
X1058069Y55000D01*
X1057794Y57088D01*
X1056988Y59035D01*
X1055706Y60706D01*
X1054035Y61988D01*
X1052088Y62794D01*
X1050000Y63069D01*
D02*
G37*
G36*
X824000Y36843D02*
X822147Y36474D01*
X820575Y35425D01*
X819526Y33853D01*
X819157Y32000D01*
X819526Y30147D01*
X820575Y28575D01*
X822147Y27526D01*
X824000Y27157D01*
X825853Y27526D01*
X827425Y28575D01*
X828474Y30147D01*
X828843Y32000D01*
X828474Y33853D01*
X827425Y35425D01*
X825853Y36474D01*
X824000Y36843D01*
D02*
G37*
G36*
X451500Y44069D02*
X449412Y43794D01*
X447466Y42988D01*
X445794Y41706D01*
X444512Y40034D01*
X443706Y38088D01*
X443431Y36000D01*
X443706Y33912D01*
X444512Y31965D01*
X445794Y30294D01*
X447466Y29012D01*
X449412Y28206D01*
X451500Y27931D01*
X453588Y28206D01*
X455535Y29012D01*
X457206Y30294D01*
X458488Y31965D01*
X459294Y33912D01*
X459569Y36000D01*
X459294Y38088D01*
X458488Y40034D01*
X457206Y41706D01*
X455535Y42988D01*
X453588Y43794D01*
X451500Y44069D01*
D02*
G37*
G36*
X801000Y28843D02*
X799147Y28474D01*
X797575Y27425D01*
X796526Y25853D01*
X796157Y24000D01*
X796445Y22553D01*
X796340Y22361D01*
X795639Y21660D01*
X795447Y21555D01*
X794000Y21843D01*
X792147Y21474D01*
X790575Y20424D01*
X789526Y18853D01*
X789157Y17000D01*
X789445Y15553D01*
X789340Y15361D01*
X788639Y14660D01*
X788447Y14555D01*
X787000Y14843D01*
X785147Y14474D01*
X783575Y13425D01*
X782526Y11853D01*
X782157Y10000D01*
X782526Y8147D01*
X783575Y6575D01*
X785147Y5526D01*
X787000Y5157D01*
X788853Y5526D01*
X790425Y6575D01*
X791474Y8147D01*
X791843Y10000D01*
X791555Y11447D01*
X791661Y11639D01*
X792361Y12340D01*
X792553Y12445D01*
X794000Y12157D01*
X795853Y12526D01*
X797425Y13575D01*
X798474Y15147D01*
X798843Y17000D01*
X798555Y18447D01*
X798661Y18639D01*
X799361Y19339D01*
X799553Y19445D01*
X801000Y19157D01*
X802853Y19526D01*
X804425Y20575D01*
X805474Y22147D01*
X805843Y24000D01*
X805474Y25853D01*
X804425Y27425D01*
X802853Y28474D01*
X801000Y28843D01*
D02*
G37*
G36*
X772000Y33843D02*
X770147Y33474D01*
X768576Y32424D01*
X767526Y30853D01*
X767157Y29000D01*
X767526Y27147D01*
X768576Y25575D01*
X770147Y24526D01*
X772000Y24157D01*
X773853Y24526D01*
X775425Y25575D01*
X776474Y27147D01*
X776843Y29000D01*
X776474Y30853D01*
X775425Y32424D01*
X773853Y33474D01*
X772000Y33843D01*
D02*
G37*
G36*
X1195000Y33069D02*
X1192912Y32794D01*
X1190965Y31988D01*
X1189294Y30706D01*
X1188012Y29035D01*
X1187206Y27088D01*
X1187065Y26020D01*
X1185738Y25664D01*
X1185706Y25706D01*
X1184035Y26988D01*
X1182088Y27794D01*
X1180000Y28069D01*
X1177912Y27794D01*
X1175965Y26988D01*
X1174294Y25706D01*
X1173240Y24331D01*
X1172765Y24219D01*
X1172235D01*
X1171760Y24331D01*
X1170706Y25706D01*
X1169035Y26988D01*
X1167088Y27794D01*
X1165000Y28069D01*
X1162912Y27794D01*
X1160965Y26988D01*
X1159294Y25706D01*
X1158012Y24035D01*
X1157206Y22088D01*
X1156931Y20000D01*
X1157206Y17912D01*
X1158012Y15965D01*
X1159294Y14294D01*
X1160669Y13240D01*
X1160781Y12765D01*
Y12235D01*
X1160669Y11760D01*
X1159294Y10706D01*
X1158012Y9035D01*
X1157206Y7088D01*
X1156931Y5000D01*
X1157206Y2912D01*
X1158012Y966D01*
X1159294Y-706D01*
X1160669Y-1760D01*
X1160781Y-2235D01*
Y-2765D01*
X1160669Y-3240D01*
X1159294Y-4294D01*
X1158012Y-5965D01*
X1157206Y-7912D01*
X1156931Y-10000D01*
X1157206Y-12088D01*
X1158012Y-14035D01*
X1159294Y-15706D01*
X1160669Y-16760D01*
X1160781Y-17235D01*
Y-17765D01*
X1160669Y-18240D01*
X1159294Y-19294D01*
X1158012Y-20965D01*
X1157206Y-22912D01*
X1156931Y-25000D01*
X1157206Y-27088D01*
X1158012Y-29035D01*
X1159294Y-30706D01*
X1160965Y-31988D01*
X1162912Y-32794D01*
X1165000Y-33069D01*
X1167088Y-32794D01*
X1169035Y-31988D01*
X1170706Y-30706D01*
X1171760Y-29331D01*
X1172235Y-29219D01*
X1172765D01*
X1173240Y-29331D01*
X1174294Y-30706D01*
X1175965Y-31988D01*
X1177912Y-32794D01*
X1180000Y-33069D01*
X1182088Y-32794D01*
X1184035Y-31988D01*
X1185706Y-30706D01*
X1186760Y-29331D01*
X1187235Y-29219D01*
X1187765D01*
X1188240Y-29331D01*
X1189294Y-30706D01*
X1190965Y-31988D01*
X1192912Y-32794D01*
X1195000Y-33069D01*
X1197088Y-32794D01*
X1199035Y-31988D01*
X1200706Y-30706D01*
X1201988Y-29035D01*
X1202794Y-27088D01*
X1203069Y-25000D01*
X1202794Y-22912D01*
X1201988Y-20965D01*
X1200706Y-19294D01*
X1199035Y-18012D01*
X1197088Y-17206D01*
X1195000Y-16931D01*
X1192912Y-17206D01*
X1190965Y-18012D01*
X1189294Y-19294D01*
X1188240Y-20669D01*
X1187765Y-20781D01*
X1187235D01*
X1186760Y-20669D01*
X1185706Y-19294D01*
X1184331Y-18240D01*
X1184219Y-17765D01*
Y-17235D01*
X1184331Y-16760D01*
X1185706Y-15706D01*
X1186988Y-14035D01*
X1187794Y-12088D01*
X1188069Y-10000D01*
X1187794Y-7912D01*
X1186988Y-5965D01*
X1185706Y-4294D01*
X1184331Y-3240D01*
X1184219Y-2765D01*
Y-2235D01*
X1184331Y-1760D01*
X1185706Y-706D01*
X1186988Y966D01*
X1187794Y2912D01*
X1188069Y5000D01*
X1187794Y7088D01*
X1186988Y9035D01*
X1185706Y10706D01*
X1184331Y11760D01*
X1184219Y12235D01*
Y12765D01*
X1184331Y13240D01*
X1185706Y14294D01*
X1186988Y15965D01*
X1187794Y17912D01*
X1187935Y18980D01*
X1189262Y19336D01*
X1189294Y19294D01*
X1190965Y18012D01*
X1192912Y17206D01*
X1195000Y16931D01*
X1197088Y17206D01*
X1199035Y18012D01*
X1200706Y19294D01*
X1201988Y20965D01*
X1202794Y22912D01*
X1203069Y25000D01*
X1202794Y27088D01*
X1201988Y29035D01*
X1200706Y30706D01*
X1199035Y31988D01*
X1197088Y32794D01*
X1195000Y33069D01*
D02*
G37*
G36*
X950000Y63069D02*
X947912Y62794D01*
X945965Y61988D01*
X944294Y60706D01*
X943012Y59035D01*
X942206Y57088D01*
X941931Y55000D01*
X942206Y52912D01*
X942351Y52562D01*
X940965Y51988D01*
X939294Y50706D01*
X938012Y49035D01*
X937206Y47088D01*
X936931Y45000D01*
X937206Y42912D01*
X938012Y40965D01*
X939294Y39294D01*
X940965Y38012D01*
X942912Y37206D01*
X945000Y36931D01*
X947088Y37206D01*
X949035Y38012D01*
X950706Y39294D01*
X951988Y40965D01*
X952794Y42912D01*
X953069Y45000D01*
X952794Y47088D01*
X952649Y47438D01*
X954035Y48012D01*
X955706Y49294D01*
X956988Y50965D01*
X957794Y52912D01*
X958069Y55000D01*
X957794Y57088D01*
X956988Y59035D01*
X955706Y60706D01*
X954035Y61988D01*
X952088Y62794D01*
X950000Y63069D01*
D02*
G37*
G36*
X970000D02*
X967912Y62794D01*
X965965Y61988D01*
X964294Y60706D01*
X963012Y59035D01*
X962206Y57088D01*
X961931Y55000D01*
X962206Y52912D01*
X962351Y52562D01*
X960965Y51988D01*
X959294Y50706D01*
X958012Y49035D01*
X957206Y47088D01*
X956931Y45000D01*
X957206Y42912D01*
X958012Y40965D01*
X959294Y39294D01*
X960965Y38012D01*
X962912Y37206D01*
X965000Y36931D01*
X967088Y37206D01*
X969035Y38012D01*
X970706Y39294D01*
X971988Y40965D01*
X972794Y42912D01*
X973069Y45000D01*
X972794Y47088D01*
X972649Y47438D01*
X974035Y48012D01*
X975706Y49294D01*
X976988Y50965D01*
X977794Y52912D01*
X978069Y55000D01*
X977794Y57088D01*
X976988Y59035D01*
X975706Y60706D01*
X974035Y61988D01*
X972088Y62794D01*
X970000Y63069D01*
D02*
G37*
G36*
X990000D02*
X987912Y62794D01*
X985965Y61988D01*
X984294Y60706D01*
X983012Y59035D01*
X982206Y57088D01*
X981931Y55000D01*
X982206Y52912D01*
X982351Y52562D01*
X980965Y51988D01*
X979294Y50706D01*
X978012Y49035D01*
X977206Y47088D01*
X976931Y45000D01*
X977206Y42912D01*
X978012Y40965D01*
X979294Y39294D01*
X980965Y38012D01*
X982912Y37206D01*
X985000Y36931D01*
X987088Y37206D01*
X989035Y38012D01*
X990706Y39294D01*
X991988Y40965D01*
X992794Y42912D01*
X993069Y45000D01*
X992794Y47088D01*
X992649Y47438D01*
X994035Y48012D01*
X995706Y49294D01*
X996988Y50965D01*
X997794Y52912D01*
X998069Y55000D01*
X997794Y57088D01*
X996988Y59035D01*
X995706Y60706D01*
X994035Y61988D01*
X992088Y62794D01*
X990000Y63069D01*
D02*
G37*
G36*
X886000Y41808D02*
X884238Y41576D01*
X882596Y40896D01*
X881186Y39814D01*
X880104Y38404D01*
X879424Y36762D01*
X879192Y35000D01*
X879424Y33238D01*
X880104Y31596D01*
X881186Y30186D01*
X882596Y29104D01*
X884238Y28424D01*
X886000Y28192D01*
X887762Y28424D01*
X889404Y29104D01*
X890814Y30186D01*
X891896Y31596D01*
X892576Y33238D01*
X892808Y35000D01*
X892576Y36762D01*
X891896Y38404D01*
X890814Y39814D01*
X889404Y40896D01*
X887762Y41576D01*
X886000Y41808D01*
D02*
G37*
G36*
X687000Y39843D02*
X685147Y39474D01*
X683575Y38425D01*
X682526Y36853D01*
X682157Y35000D01*
X682526Y33147D01*
X683575Y31576D01*
X685147Y30526D01*
X687000Y30157D01*
X688853Y30526D01*
X690425Y31576D01*
X691474Y33147D01*
X691843Y35000D01*
X691474Y36853D01*
X690425Y38425D01*
X688853Y39474D01*
X687000Y39843D01*
D02*
G37*
G36*
X213000Y53069D02*
X210912Y52794D01*
X208965Y51988D01*
X207294Y50706D01*
X206012Y49035D01*
X205206Y47088D01*
X204931Y45000D01*
X205206Y42912D01*
X206012Y40965D01*
X207294Y39294D01*
X208965Y38012D01*
X210912Y37206D01*
X213000Y36931D01*
X215088Y37206D01*
X217034Y38012D01*
X218706Y39294D01*
X219988Y40965D01*
X220794Y42912D01*
X221069Y45000D01*
X220794Y47088D01*
X219988Y49035D01*
X218706Y50706D01*
X217034Y51988D01*
X215088Y52794D01*
X213000Y53069D01*
D02*
G37*
G36*
X594000Y28843D02*
X592147Y28474D01*
X590575Y27425D01*
X589526Y25853D01*
X589157Y24000D01*
X589526Y22147D01*
X590575Y20575D01*
X592147Y19526D01*
X594000Y19157D01*
X595853Y19526D01*
X597425Y20575D01*
X598474Y22147D01*
X598843Y24000D01*
X598474Y25853D01*
X597425Y27425D01*
X595853Y28474D01*
X594000Y28843D01*
D02*
G37*
G36*
X213000Y23069D02*
X210912Y22794D01*
X208965Y21988D01*
X207294Y20706D01*
X206012Y19035D01*
X205206Y17088D01*
X204931Y15000D01*
X205206Y12912D01*
X206012Y10965D01*
X207294Y9294D01*
X208965Y8012D01*
X210912Y7206D01*
X213000Y6931D01*
X215088Y7206D01*
X217034Y8012D01*
X218706Y9294D01*
X219988Y10965D01*
X220794Y12912D01*
X221069Y15000D01*
X220794Y17088D01*
X219988Y19035D01*
X218706Y20706D01*
X217034Y21988D01*
X215088Y22794D01*
X213000Y23069D01*
D02*
G37*
G36*
X1045000D02*
X1042912Y22794D01*
X1040965Y21988D01*
X1039294Y20706D01*
X1038012Y19035D01*
X1037206Y17088D01*
X1036931Y15000D01*
X1037206Y12912D01*
X1038012Y10965D01*
X1039294Y9294D01*
X1040965Y8012D01*
X1042912Y7206D01*
X1045000Y6931D01*
X1047088Y7206D01*
X1049035Y8012D01*
X1050706Y9294D01*
X1051988Y10965D01*
X1052794Y12912D01*
X1053069Y15000D01*
X1052794Y17088D01*
X1051988Y19035D01*
X1050706Y20706D01*
X1049035Y21988D01*
X1047088Y22794D01*
X1045000Y23069D01*
D02*
G37*
G36*
X600000Y18843D02*
X598147Y18474D01*
X596575Y17425D01*
X595526Y15853D01*
X595157Y14000D01*
X595526Y12147D01*
X596575Y10575D01*
X598147Y9526D01*
X600000Y9157D01*
X601853Y9526D01*
X603424Y10575D01*
X604474Y12147D01*
X604843Y14000D01*
X604474Y15853D01*
X603424Y17425D01*
X601853Y18474D01*
X600000Y18843D01*
D02*
G37*
G36*
X594000Y8843D02*
X592147Y8474D01*
X590575Y7424D01*
X589526Y5853D01*
X589157Y4000D01*
X589526Y2147D01*
X590575Y575D01*
X592147Y-474D01*
X594000Y-843D01*
X595853Y-474D01*
X597425Y575D01*
X598474Y2147D01*
X598843Y4000D01*
X598474Y5853D01*
X597425Y7424D01*
X595853Y8474D01*
X594000Y8843D01*
D02*
G37*
G36*
X913000Y2843D02*
X911147Y2474D01*
X909576Y1425D01*
X908425D01*
X906853Y2474D01*
X905000Y2843D01*
X903147Y2474D01*
X901575Y1425D01*
X900526Y-147D01*
X900157Y-2000D01*
X900526Y-3853D01*
X901575Y-5425D01*
X903147Y-6474D01*
X905000Y-6843D01*
X906853Y-6474D01*
X908425Y-5425D01*
X909576D01*
X911147Y-6474D01*
X913000Y-6843D01*
X914853Y-6474D01*
X916425Y-5425D01*
X917474Y-3853D01*
X917843Y-2000D01*
X917474Y-147D01*
X916425Y1425D01*
X914853Y2474D01*
X913000Y2843D01*
D02*
G37*
G36*
X698000Y22843D02*
X696147Y22474D01*
X694575Y21425D01*
X693526Y19853D01*
X693157Y18000D01*
X693526Y16147D01*
X694575Y14575D01*
X696147Y13526D01*
X698000Y13157D01*
X699853Y13526D01*
X700327Y13842D01*
X701243Y12926D01*
X700526Y11853D01*
X700157Y10000D01*
X700526Y8147D01*
X701575Y6575D01*
X703147Y5526D01*
X705000Y5157D01*
X706853Y5526D01*
X708425Y6575D01*
X709474Y8147D01*
X709843Y10000D01*
X709474Y11853D01*
X708425Y13425D01*
X706853Y14474D01*
X705000Y14843D01*
X703147Y14474D01*
X702673Y14158D01*
X701757Y15073D01*
X702474Y16147D01*
X702843Y18000D01*
X702474Y19853D01*
X701425Y21425D01*
X699853Y22474D01*
X698000Y22843D01*
D02*
G37*
G36*
X1235000Y33069D02*
X1232912Y32794D01*
X1230965Y31988D01*
X1229294Y30706D01*
X1228012Y29035D01*
X1227206Y27088D01*
X1226931Y25000D01*
X1227206Y22912D01*
X1228012Y20965D01*
X1229294Y19294D01*
X1230965Y18012D01*
X1232912Y17206D01*
X1235000Y16931D01*
X1237088Y17206D01*
X1239035Y18012D01*
X1240706Y19294D01*
X1241988Y20965D01*
X1242794Y22912D01*
X1243069Y25000D01*
X1242794Y27088D01*
X1241988Y29035D01*
X1240706Y30706D01*
X1239035Y31988D01*
X1237088Y32794D01*
X1235000Y33069D01*
D02*
G37*
G36*
X323000Y34069D02*
X320912Y33794D01*
X318965Y32988D01*
X317294Y31706D01*
X316012Y30034D01*
X315206Y28088D01*
X314931Y26000D01*
X315206Y23912D01*
X316012Y21965D01*
X317294Y20294D01*
X318965Y19012D01*
X320912Y18206D01*
X323000Y17931D01*
X325088Y18206D01*
X327034Y19012D01*
X328706Y20294D01*
X329988Y21965D01*
X330794Y23912D01*
X331069Y26000D01*
X330794Y28088D01*
X329988Y30034D01*
X328706Y31706D01*
X327034Y32988D01*
X325088Y33794D01*
X323000Y34069D01*
D02*
G37*
G36*
X714000Y27843D02*
X712147Y27474D01*
X710575Y26425D01*
X709526Y24853D01*
X709157Y23000D01*
X709526Y21147D01*
X710575Y19575D01*
X712147Y18526D01*
X714000Y18157D01*
X715853Y18526D01*
X717424Y19575D01*
X718474Y21147D01*
X718843Y23000D01*
X718474Y24853D01*
X717424Y26425D01*
X715853Y27474D01*
X714000Y27843D01*
D02*
G37*
G36*
X663000Y49843D02*
X661147Y49474D01*
X659575Y48425D01*
X658526Y46853D01*
X658157Y45000D01*
X658526Y43147D01*
X659575Y41575D01*
X660877Y40706D01*
X660979Y40239D01*
Y39761D01*
X660877Y39294D01*
X659575Y38425D01*
X658526Y36853D01*
X658157Y35000D01*
X658526Y33147D01*
X659575Y31576D01*
X660877Y30706D01*
X660979Y30239D01*
Y29761D01*
X660877Y29294D01*
X659575Y28425D01*
X658526Y26853D01*
X658157Y25000D01*
X658526Y23147D01*
X659575Y21575D01*
X660877Y20706D01*
X660979Y20239D01*
Y19761D01*
X660877Y19294D01*
X659575Y18425D01*
X658526Y16853D01*
X658157Y15000D01*
X658526Y13147D01*
X659575Y11575D01*
X661147Y10526D01*
X663000Y10157D01*
X664853Y10526D01*
X666424Y11575D01*
X667474Y13147D01*
X667843Y15000D01*
X667474Y16853D01*
X666424Y18425D01*
X665123Y19294D01*
X665021Y19761D01*
Y20239D01*
X665123Y20706D01*
X666424Y21575D01*
X667474Y23147D01*
X667843Y25000D01*
X667474Y26853D01*
X666424Y28425D01*
X665123Y29294D01*
X665021Y29761D01*
Y30239D01*
X665123Y30706D01*
X666424Y31576D01*
X667474Y33147D01*
X667843Y35000D01*
X667474Y36853D01*
X666424Y38425D01*
X665123Y39294D01*
X665021Y39761D01*
Y40239D01*
X665123Y40706D01*
X666424Y41575D01*
X667474Y43147D01*
X667843Y45000D01*
X667474Y46853D01*
X666424Y48425D01*
X664853Y49474D01*
X663000Y49843D01*
D02*
G37*
G36*
X492000Y23843D02*
X490147Y23474D01*
X488576Y22424D01*
X487526Y20853D01*
X487157Y19000D01*
X487526Y17147D01*
X488576Y15575D01*
X490147Y14526D01*
X492000Y14157D01*
X493853Y14526D01*
X495425Y15575D01*
X496474Y17147D01*
X496843Y19000D01*
X496474Y20853D01*
X495425Y22424D01*
X493853Y23474D01*
X492000Y23843D01*
D02*
G37*
G36*
X1215000Y33069D02*
X1212912Y32794D01*
X1210965Y31988D01*
X1209294Y30706D01*
X1208012Y29035D01*
X1207206Y27088D01*
X1206931Y25000D01*
X1207206Y22912D01*
X1208012Y20965D01*
X1209294Y19294D01*
X1210965Y18012D01*
X1212912Y17206D01*
X1215000Y16931D01*
X1217088Y17206D01*
X1219035Y18012D01*
X1220706Y19294D01*
X1221988Y20965D01*
X1222794Y22912D01*
X1223069Y25000D01*
X1222794Y27088D01*
X1221988Y29035D01*
X1220706Y30706D01*
X1219035Y31988D01*
X1217088Y32794D01*
X1215000Y33069D01*
D02*
G37*
G36*
X833000Y66843D02*
X831147Y66474D01*
X829576Y65425D01*
X828526Y63853D01*
X828157Y62000D01*
X828526Y60147D01*
X829576Y58575D01*
X831147Y57526D01*
X833000Y57157D01*
X834853Y57526D01*
X836425Y58575D01*
X837474Y60147D01*
X837843Y62000D01*
X837474Y63853D01*
X836425Y65425D01*
X834853Y66474D01*
X833000Y66843D01*
D02*
G37*
G36*
X492000Y69843D02*
X490147Y69474D01*
X488576Y68425D01*
X487526Y66853D01*
X487157Y65000D01*
X487526Y63147D01*
X488576Y61575D01*
X490147Y60526D01*
X492000Y60157D01*
X493853Y60526D01*
X495425Y61575D01*
X496474Y63147D01*
X496843Y65000D01*
X496474Y66853D01*
X495425Y68425D01*
X493853Y69474D01*
X492000Y69843D01*
D02*
G37*
G36*
X716000Y66843D02*
X714147Y66474D01*
X712575Y65425D01*
X711526Y63853D01*
X711157Y62000D01*
X711356Y60998D01*
X710213Y60234D01*
X709853Y60474D01*
X708000Y60843D01*
X706147Y60474D01*
X704576Y59425D01*
X703425D01*
X701853Y60474D01*
X700000Y60843D01*
X698147Y60474D01*
X696575Y59425D01*
X695526Y57853D01*
X695157Y56000D01*
X695526Y54147D01*
X696575Y52575D01*
X698147Y51526D01*
X700000Y51157D01*
X701853Y51526D01*
X703425Y52575D01*
X704576D01*
X706147Y51526D01*
X708000Y51157D01*
X709853Y51526D01*
X711425Y52575D01*
X712096Y53581D01*
X712210Y53752D01*
X713407Y53256D01*
X713371Y53075D01*
X713157Y52000D01*
X713526Y50147D01*
X714576Y48575D01*
X716147Y47526D01*
X718000Y47157D01*
X718323Y47221D01*
X719221Y46323D01*
X719157Y46000D01*
X719526Y44147D01*
X720575Y42575D01*
X722147Y41526D01*
X724000Y41157D01*
X724323Y41221D01*
X725221Y40323D01*
X725157Y40000D01*
X725526Y38147D01*
X726575Y36575D01*
X728147Y35526D01*
X730000Y35157D01*
X731137Y35383D01*
X732230Y34366D01*
X732157Y34000D01*
X732526Y32147D01*
X733575Y30575D01*
X735147Y29526D01*
X737000Y29157D01*
X737930Y29342D01*
X739040Y29033D01*
X739274Y28413D01*
X739526Y27147D01*
X740575Y25575D01*
X742147Y24526D01*
X744000Y24157D01*
X744323Y24221D01*
X745221Y23323D01*
X745157Y23000D01*
X745526Y21147D01*
X746575Y19575D01*
X748147Y18526D01*
X750000Y18157D01*
X751853Y18526D01*
X753425Y19575D01*
X754474Y21147D01*
X754843Y23000D01*
X754474Y24853D01*
X753425Y26425D01*
X751853Y27474D01*
X750000Y27843D01*
X749677Y27779D01*
X748779Y28677D01*
X748843Y29000D01*
X748474Y30853D01*
X747425Y32424D01*
X745853Y33474D01*
X744000Y33843D01*
X743070Y33658D01*
X741960Y33967D01*
X741726Y34587D01*
X741474Y35853D01*
X740425Y37425D01*
X738853Y38474D01*
X737000Y38843D01*
X735863Y38617D01*
X734770Y39634D01*
X734843Y40000D01*
X734474Y41853D01*
X733425Y43425D01*
X731853Y44474D01*
X730000Y44843D01*
X729677Y44779D01*
X728779Y45677D01*
X728843Y46000D01*
X728474Y47853D01*
X727425Y49425D01*
X725853Y50474D01*
X724000Y50843D01*
X723677Y50779D01*
X722779Y51677D01*
X722843Y52000D01*
X722474Y53853D01*
X721425Y55425D01*
X719853Y56474D01*
X718861Y56672D01*
X718593Y58020D01*
X719425Y58575D01*
X720474Y60147D01*
X720843Y62000D01*
X720474Y63853D01*
X719425Y65425D01*
X717853Y66474D01*
X716000Y66843D01*
D02*
G37*
G36*
X451500Y90069D02*
X449412Y89794D01*
X447466Y88988D01*
X445794Y87706D01*
X444512Y86034D01*
X443706Y84088D01*
X443431Y82000D01*
X443706Y79912D01*
X444512Y77965D01*
X445794Y76294D01*
X447466Y75012D01*
X449412Y74206D01*
X451500Y73931D01*
X453588Y74206D01*
X455535Y75012D01*
X457206Y76294D01*
X458488Y77965D01*
X459294Y79912D01*
X459569Y82000D01*
X459294Y84088D01*
X458488Y86034D01*
X457206Y87706D01*
X455535Y88988D01*
X453588Y89794D01*
X451500Y90069D01*
D02*
G37*
G36*
X687000Y76843D02*
X685147Y76474D01*
X683575Y75424D01*
X682526Y73853D01*
X682157Y72000D01*
X682526Y70147D01*
X683575Y68575D01*
X685147Y67526D01*
X687000Y67157D01*
X688853Y67526D01*
X690425Y68575D01*
X691474Y70147D01*
X691843Y72000D01*
X691474Y73853D01*
X690425Y75424D01*
X688853Y76474D01*
X687000Y76843D01*
D02*
G37*
G36*
X792000Y58843D02*
X790147Y58474D01*
X788575Y57425D01*
X787526Y55853D01*
X787157Y54000D01*
X787526Y52147D01*
X788575Y50575D01*
X790147Y49526D01*
X792000Y49157D01*
X793853Y49526D01*
X795424Y50575D01*
X796474Y52147D01*
X796843Y54000D01*
X796474Y55853D01*
X795424Y57425D01*
X793853Y58474D01*
X792000Y58843D01*
D02*
G37*
G36*
X872000Y73843D02*
X870147Y73474D01*
X868576Y72425D01*
X867526Y70853D01*
X867157Y69000D01*
X867526Y67147D01*
X867842Y66673D01*
X866926Y65757D01*
X865853Y66474D01*
X864000Y66843D01*
X862147Y66474D01*
X860575Y65425D01*
X859526Y63853D01*
X859157Y62000D01*
X859526Y60147D01*
X860575Y58575D01*
X862147Y57526D01*
X864000Y57157D01*
X865853Y57526D01*
X865944Y57586D01*
X867355Y57002D01*
X867526Y56147D01*
X868576Y54576D01*
X870147Y53526D01*
X872000Y53157D01*
X873853Y53526D01*
X875425Y54576D01*
X876474Y56147D01*
X876843Y58000D01*
X876474Y59853D01*
X875425Y61425D01*
X873853Y62474D01*
X872000Y62843D01*
X870147Y62474D01*
X870056Y62414D01*
X868644Y62998D01*
X868474Y63853D01*
X868158Y64327D01*
X869073Y65243D01*
X870147Y64526D01*
X872000Y64157D01*
X873853Y64526D01*
X875425Y65575D01*
X876474Y67147D01*
X876843Y69000D01*
X876474Y70853D01*
X875425Y72425D01*
X873853Y73474D01*
X872000Y73843D01*
D02*
G37*
G36*
X213000Y83069D02*
X210912Y82794D01*
X208965Y81988D01*
X207294Y80706D01*
X206012Y79035D01*
X205206Y77088D01*
X204931Y75000D01*
X205206Y72912D01*
X206012Y70965D01*
X207294Y69294D01*
X208965Y68012D01*
X210912Y67206D01*
X213000Y66931D01*
X215088Y67206D01*
X217034Y68012D01*
X218706Y69294D01*
X219988Y70965D01*
X220794Y72912D01*
X221069Y75000D01*
X220794Y77088D01*
X219988Y79035D01*
X218706Y80706D01*
X217034Y81988D01*
X215088Y82794D01*
X213000Y83069D01*
D02*
G37*
G36*
X663000Y76843D02*
X661147Y76474D01*
X659575Y75424D01*
X658526Y73853D01*
X658157Y72000D01*
X658526Y70147D01*
X659575Y68575D01*
X661147Y67526D01*
X663000Y67157D01*
X664853Y67526D01*
X666424Y68575D01*
X667474Y70147D01*
X667843Y72000D01*
X667474Y73853D01*
X666424Y75424D01*
X664853Y76474D01*
X663000Y76843D01*
D02*
G37*
G36*
X814000Y71843D02*
X812147Y71474D01*
X810575Y70424D01*
X809526Y68853D01*
X809157Y67000D01*
X809526Y65147D01*
X810575Y63575D01*
X812147Y62526D01*
X814000Y62157D01*
X815853Y62526D01*
X817425Y63575D01*
X818474Y65147D01*
X818843Y67000D01*
X818474Y68853D01*
X817425Y70424D01*
X815853Y71474D01*
X814000Y71843D01*
D02*
G37*
G36*
X323000Y80069D02*
X320912Y79794D01*
X318965Y78988D01*
X317294Y77706D01*
X316012Y76034D01*
X315206Y74088D01*
X314931Y72000D01*
X315206Y69912D01*
X316012Y67965D01*
X317294Y66294D01*
X318965Y65012D01*
X320912Y64206D01*
X323000Y63931D01*
X325088Y64206D01*
X327034Y65012D01*
X328706Y66294D01*
X329988Y67965D01*
X330794Y69912D01*
X331069Y72000D01*
X330794Y74088D01*
X329988Y76034D01*
X328706Y77706D01*
X327034Y78988D01*
X325088Y79794D01*
X323000Y80069D01*
D02*
G37*
G36*
X790000Y74843D02*
X788147Y74474D01*
X786575Y73425D01*
X785526Y71853D01*
X785157Y70000D01*
X785526Y68147D01*
X786575Y66575D01*
X788147Y65526D01*
X790000Y65157D01*
X791853Y65526D01*
X793425Y66575D01*
X794474Y68147D01*
X794843Y70000D01*
X794474Y71853D01*
X793425Y73425D01*
X791853Y74474D01*
X790000Y74843D01*
D02*
G37*
G36*
X1090000Y63069D02*
X1087912Y62794D01*
X1085965Y61988D01*
X1084294Y60706D01*
X1083012Y59035D01*
X1082206Y57088D01*
X1081931Y55000D01*
X1082206Y52912D01*
X1082351Y52562D01*
X1080965Y51988D01*
X1079294Y50706D01*
X1078012Y49035D01*
X1077206Y47088D01*
X1076931Y45000D01*
X1077206Y42912D01*
X1078012Y40965D01*
X1079294Y39294D01*
X1080965Y38012D01*
X1082912Y37206D01*
X1085000Y36931D01*
X1087088Y37206D01*
X1089035Y38012D01*
X1090706Y39294D01*
X1091988Y40965D01*
X1092794Y42912D01*
X1093069Y45000D01*
X1092794Y47088D01*
X1092649Y47438D01*
X1094035Y48012D01*
X1095706Y49294D01*
X1096988Y50965D01*
X1097794Y52912D01*
X1098069Y55000D01*
X1097794Y57088D01*
X1096988Y59035D01*
X1095706Y60706D01*
X1094035Y61988D01*
X1092088Y62794D01*
X1090000Y63069D01*
D02*
G37*
G36*
X1110000D02*
X1107912Y62794D01*
X1105965Y61988D01*
X1104294Y60706D01*
X1103012Y59035D01*
X1102206Y57088D01*
X1101931Y55000D01*
X1102206Y52912D01*
X1102351Y52562D01*
X1100965Y51988D01*
X1099294Y50706D01*
X1098012Y49035D01*
X1097206Y47088D01*
X1096931Y45000D01*
X1097206Y42912D01*
X1098012Y40965D01*
X1099294Y39294D01*
X1100965Y38012D01*
X1102912Y37206D01*
X1105000Y36931D01*
X1107088Y37206D01*
X1109035Y38012D01*
X1110706Y39294D01*
X1111988Y40965D01*
X1112794Y42912D01*
X1113069Y45000D01*
X1112794Y47088D01*
X1112649Y47438D01*
X1114035Y48012D01*
X1115706Y49294D01*
X1116988Y50965D01*
X1117794Y52912D01*
X1118069Y55000D01*
X1117794Y57088D01*
X1116988Y59035D01*
X1115706Y60706D01*
X1114035Y61988D01*
X1112088Y62794D01*
X1110000Y63069D01*
D02*
G37*
G36*
X1125000Y53069D02*
X1122912Y52794D01*
X1120965Y51988D01*
X1119294Y50706D01*
X1118012Y49035D01*
X1117206Y47088D01*
X1116931Y45000D01*
X1117206Y42912D01*
X1118012Y40965D01*
X1119294Y39294D01*
X1120965Y38012D01*
X1122912Y37206D01*
X1125000Y36931D01*
X1127088Y37206D01*
X1129035Y38012D01*
X1130706Y39294D01*
X1131988Y40965D01*
X1132794Y42912D01*
X1133069Y45000D01*
X1132794Y47088D01*
X1131988Y49035D01*
X1130706Y50706D01*
X1129035Y51988D01*
X1127088Y52794D01*
X1125000Y53069D01*
D02*
G37*
G36*
X1010000Y63069D02*
X1007912Y62794D01*
X1005965Y61988D01*
X1004294Y60706D01*
X1003012Y59035D01*
X1002206Y57088D01*
X1001931Y55000D01*
X1002206Y52912D01*
X1002351Y52562D01*
X1000965Y51988D01*
X999294Y50706D01*
X998012Y49035D01*
X997206Y47088D01*
X996931Y45000D01*
X997206Y42912D01*
X998012Y40965D01*
X999294Y39294D01*
X1000965Y38012D01*
X1002912Y37206D01*
X1005000Y36931D01*
X1007088Y37206D01*
X1009035Y38012D01*
X1010706Y39294D01*
X1011988Y40965D01*
X1012794Y42912D01*
X1013069Y45000D01*
X1012794Y47088D01*
X1012649Y47438D01*
X1014035Y48012D01*
X1015706Y49294D01*
X1016988Y50965D01*
X1017794Y52912D01*
X1018069Y55000D01*
X1017794Y57088D01*
X1016988Y59035D01*
X1015706Y60706D01*
X1014035Y61988D01*
X1012088Y62794D01*
X1010000Y63069D01*
D02*
G37*
G36*
X1030000D02*
X1027912Y62794D01*
X1025965Y61988D01*
X1024294Y60706D01*
X1023012Y59035D01*
X1022206Y57088D01*
X1021931Y55000D01*
X1022206Y52912D01*
X1022351Y52562D01*
X1020965Y51988D01*
X1019294Y50706D01*
X1018012Y49035D01*
X1017206Y47088D01*
X1016931Y45000D01*
X1017206Y42912D01*
X1018012Y40965D01*
X1019294Y39294D01*
X1020965Y38012D01*
X1022912Y37206D01*
X1025000Y36931D01*
X1027088Y37206D01*
X1029035Y38012D01*
X1030706Y39294D01*
X1031988Y40965D01*
X1032794Y42912D01*
X1033069Y45000D01*
X1032794Y47088D01*
X1032649Y47438D01*
X1034035Y48012D01*
X1035706Y49294D01*
X1036988Y50965D01*
X1037794Y52912D01*
X1038069Y55000D01*
X1037794Y57088D01*
X1036988Y59035D01*
X1035706Y60706D01*
X1034035Y61988D01*
X1032088Y62794D01*
X1030000Y63069D01*
D02*
G37*
G36*
X1070000D02*
X1067912Y62794D01*
X1065965Y61988D01*
X1064294Y60706D01*
X1063012Y59035D01*
X1062206Y57088D01*
X1061931Y55000D01*
X1062206Y52912D01*
X1062351Y52562D01*
X1060965Y51988D01*
X1059294Y50706D01*
X1058012Y49035D01*
X1057206Y47088D01*
X1056931Y45000D01*
X1057206Y42912D01*
X1058012Y40965D01*
X1059294Y39294D01*
X1060965Y38012D01*
X1062912Y37206D01*
X1065000Y36931D01*
X1067088Y37206D01*
X1069035Y38012D01*
X1070706Y39294D01*
X1071988Y40965D01*
X1072794Y42912D01*
X1073069Y45000D01*
X1072794Y47088D01*
X1072649Y47438D01*
X1074035Y48012D01*
X1075706Y49294D01*
X1076988Y50965D01*
X1077794Y52912D01*
X1078069Y55000D01*
X1077794Y57088D01*
X1076988Y59035D01*
X1075706Y60706D01*
X1074035Y61988D01*
X1072088Y62794D01*
X1070000Y63069D01*
D02*
G37*
G36*
X912000Y43808D02*
X910238Y43576D01*
X908596Y42896D01*
X907186Y41814D01*
X906814D01*
X905404Y42896D01*
X903762Y43576D01*
X902000Y43808D01*
X900238Y43576D01*
X898596Y42896D01*
X897186Y41814D01*
X896104Y40404D01*
X895424Y38762D01*
X895192Y37000D01*
X895424Y35238D01*
X896104Y33596D01*
X897186Y32186D01*
X898596Y31104D01*
X900238Y30424D01*
X902000Y30192D01*
X903762Y30424D01*
X905404Y31104D01*
X906814Y32186D01*
X907186D01*
X908596Y31104D01*
X910238Y30424D01*
X912000Y30192D01*
X913762Y30424D01*
X915404Y31104D01*
X916814Y32186D01*
X917896Y33596D01*
X918576Y35238D01*
X918808Y37000D01*
X918576Y38762D01*
X917896Y40404D01*
X916814Y41814D01*
X915404Y42896D01*
X913762Y43576D01*
X912000Y43808D01*
D02*
G37*
G36*
X786000Y49843D02*
X784147Y49474D01*
X782575Y48425D01*
X781526Y46853D01*
X781157Y45000D01*
X781221Y44677D01*
X780323Y43779D01*
X780000Y43843D01*
X778147Y43474D01*
X776575Y42425D01*
X775526Y40853D01*
X775157Y39000D01*
X775526Y37147D01*
X776575Y35575D01*
X778147Y34526D01*
X780000Y34157D01*
X781853Y34526D01*
X783425Y35575D01*
X784474Y37147D01*
X784843Y39000D01*
X784779Y39323D01*
X785677Y40221D01*
X786000Y40157D01*
X787853Y40526D01*
X789425Y41575D01*
X790474Y43147D01*
X790843Y45000D01*
X790474Y46853D01*
X789425Y48425D01*
X787853Y49474D01*
X786000Y49843D01*
D02*
G37*
G36*
X816000Y54843D02*
X814147Y54474D01*
X812575Y53425D01*
X811526Y51853D01*
X811157Y50000D01*
X811526Y48147D01*
X812575Y46575D01*
X814147Y45526D01*
X816000Y45157D01*
X817853Y45526D01*
X819425Y46575D01*
X820474Y48147D01*
X820843Y50000D01*
X820474Y51853D01*
X819425Y53425D01*
X817853Y54474D01*
X816000Y54843D01*
D02*
G37*
G36*
X1147000Y64118D02*
X1144659Y63652D01*
X1142674Y62326D01*
X1141348Y60341D01*
X1140882Y58000D01*
X1141348Y55659D01*
X1142478Y53967D01*
X1142318Y52841D01*
X1142167Y52486D01*
X1140965Y51988D01*
X1139294Y50706D01*
X1138012Y49035D01*
X1137206Y47088D01*
X1136931Y45000D01*
X1137206Y42912D01*
X1138012Y40965D01*
X1139294Y39294D01*
X1140965Y38012D01*
X1142912Y37206D01*
X1145000Y36931D01*
X1147088Y37206D01*
X1149035Y38012D01*
X1150706Y39294D01*
X1151988Y40965D01*
X1152794Y42912D01*
X1153069Y45000D01*
X1152794Y47088D01*
X1151988Y49035D01*
X1150706Y50706D01*
X1149963Y51276D01*
X1150042Y52816D01*
X1151326Y53674D01*
X1152652Y55659D01*
X1153118Y58000D01*
X1152652Y60341D01*
X1151326Y62326D01*
X1149341Y63652D01*
X1147000Y64118D01*
D02*
G37*
G36*
X733000Y83843D02*
X731147Y83474D01*
X729576Y82424D01*
X728526Y80853D01*
X728157Y79000D01*
X728526Y77147D01*
X729576Y75575D01*
X731147Y74526D01*
X733000Y74157D01*
X734853Y74526D01*
X736425Y75575D01*
X737474Y77147D01*
X737843Y79000D01*
X737474Y80853D01*
X736425Y82424D01*
X734853Y83474D01*
X733000Y83843D01*
D02*
G37*
G36*
X1164000Y53069D02*
X1161912Y52794D01*
X1159966Y51988D01*
X1158294Y50706D01*
X1157012Y49035D01*
X1156206Y47088D01*
X1155931Y45000D01*
X1156206Y42912D01*
X1157012Y40965D01*
X1158294Y39294D01*
X1159966Y38012D01*
X1161912Y37206D01*
X1164000Y36931D01*
X1166088Y37206D01*
X1168035Y38012D01*
X1169706Y39294D01*
X1170988Y40965D01*
X1171794Y42912D01*
X1172069Y45000D01*
X1171794Y47088D01*
X1170988Y49035D01*
X1169706Y50706D01*
X1168035Y51988D01*
X1166088Y52794D01*
X1164000Y53069D01*
D02*
G37*
%LPD*%
G36*
X1360000Y-145000D02*
Y-255000D01*
X1355000Y-260000D01*
X1245000D01*
X1240000Y-255000D01*
Y-145000D01*
X1245000Y-140000D01*
X1355000D01*
X1360000Y-145000D01*
D02*
G37*
G36*
X1060000Y-140000D02*
X1060000Y-255000D01*
X1055000Y-260000D01*
X945000D01*
X940000Y-255000D01*
X940000Y-140000D01*
X945000Y-135000D01*
X1055000Y-135000D01*
X1060000Y-140000D01*
D02*
G37*
G36*
X1360000Y255000D02*
Y145000D01*
X1355000Y140000D01*
X1245000D01*
X1240000Y145000D01*
Y255000D01*
X1245000Y260000D01*
X1355000D01*
X1360000Y255000D01*
D02*
G37*
%LPC*%
G36*
X137100Y-107006D02*
X133277Y-107382D01*
X129602Y-108497D01*
X126214Y-110308D01*
X123245Y-112745D01*
X120808Y-115714D01*
X118997Y-119101D01*
X117882Y-122777D01*
X117506Y-126600D01*
X117882Y-130423D01*
X118997Y-134098D01*
X120808Y-137486D01*
X123245Y-140455D01*
X126214Y-142892D01*
X129602Y-144703D01*
X133277Y-145818D01*
X137100Y-146194D01*
X140923Y-145818D01*
X144598Y-144703D01*
X147986Y-142892D01*
X150955Y-140455D01*
X153392Y-137486D01*
X155203Y-134098D01*
X156318Y-130423D01*
X156694Y-126600D01*
X156318Y-122777D01*
X155203Y-119101D01*
X153392Y-115714D01*
X150955Y-112745D01*
X147986Y-110308D01*
X144598Y-108497D01*
X140923Y-107382D01*
X137100Y-107006D01*
D02*
G37*
G36*
Y146194D02*
X133277Y145818D01*
X129602Y144703D01*
X126214Y142892D01*
X123245Y140455D01*
X120808Y137486D01*
X118997Y134098D01*
X117882Y130423D01*
X117506Y126600D01*
X117882Y122777D01*
X118997Y119102D01*
X120808Y115714D01*
X123245Y112745D01*
X126214Y110308D01*
X129602Y108497D01*
X133277Y107382D01*
X137100Y107006D01*
X140923Y107382D01*
X144598Y108497D01*
X147986Y110308D01*
X150955Y112745D01*
X153392Y115714D01*
X155203Y119102D01*
X156318Y122777D01*
X156694Y126600D01*
X156318Y130423D01*
X155203Y134098D01*
X153392Y137486D01*
X150955Y140455D01*
X147986Y142892D01*
X144598Y144703D01*
X140923Y145818D01*
X137100Y146194D01*
D02*
G37*
%LPD*%
D77*
X25235Y24048D02*
X26187D01*
X28091Y23096D01*
X29044Y22143D01*
X29996Y20239D01*
Y16430D01*
X29044Y14526D01*
X28091Y13574D01*
X26187Y12622D01*
X24283D01*
X22378Y13574D01*
X19522Y15478D01*
X10000Y25000D01*
Y11669D01*
D85*
X625000Y250000D02*
D03*
X895000D02*
D03*
D86*
X870000Y195000D02*
D03*
X862500Y200000D02*
D03*
Y190000D02*
D03*
X877500D02*
D03*
Y200000D02*
D03*
D87*
X1261900Y-212700D02*
D03*
Y-187300D02*
D03*
Y-161900D02*
D03*
X1287300D02*
D03*
X1312700D02*
D03*
X1338100D02*
D03*
Y-187300D02*
D03*
Y-212700D02*
D03*
Y-238100D02*
D03*
X1261900D02*
D03*
X1287300D02*
D03*
X1312700D02*
D03*
X961900Y-212700D02*
D03*
Y-187300D02*
D03*
Y-161900D02*
D03*
X987300D02*
D03*
X1012700D02*
D03*
X1038100D02*
D03*
Y-187300D02*
D03*
Y-212700D02*
D03*
Y-238100D02*
D03*
X961900D02*
D03*
X987300D02*
D03*
X1012700D02*
D03*
X61900Y187300D02*
D03*
Y212700D02*
D03*
Y238100D02*
D03*
X87300D02*
D03*
X112700D02*
D03*
X138100D02*
D03*
Y212700D02*
D03*
Y187300D02*
D03*
Y161900D02*
D03*
X61900D02*
D03*
X87300D02*
D03*
X112700D02*
D03*
X61900Y-212700D02*
D03*
Y-187300D02*
D03*
Y-161900D02*
D03*
X87300D02*
D03*
X112700D02*
D03*
X138100D02*
D03*
Y-187300D02*
D03*
Y-212700D02*
D03*
Y-238100D02*
D03*
X61900D02*
D03*
X87300D02*
D03*
X112700D02*
D03*
X1261900Y187300D02*
D03*
Y212700D02*
D03*
Y238100D02*
D03*
X1287300D02*
D03*
X1312700D02*
D03*
X1338100D02*
D03*
Y212700D02*
D03*
Y187300D02*
D03*
Y161900D02*
D03*
X1261900D02*
D03*
X1287300D02*
D03*
X1312700D02*
D03*
D88*
X574250Y-280500D02*
D03*
X645750D02*
D03*
D90*
X575000Y225000D02*
D03*
X920000D02*
D03*
X905000Y215000D02*
D03*
X864000Y237000D02*
D03*
X656000Y86000D02*
D03*
Y96000D02*
D03*
X844000Y48000D02*
D03*
X856000Y71000D02*
D03*
X895000Y58000D02*
D03*
X785000Y175000D02*
D03*
X599000Y91000D02*
D03*
X605000Y155000D02*
D03*
X636000Y-2000D02*
D03*
Y16000D02*
D03*
Y7000D02*
D03*
X375000Y235000D02*
D03*
X401000D02*
D03*
Y255000D02*
D03*
X375000D02*
D03*
X388000Y235000D02*
D03*
X375000Y245000D02*
D03*
X388000D02*
D03*
X401000D02*
D03*
X388000Y255000D02*
D03*
X375000Y189000D02*
D03*
X401000D02*
D03*
Y209000D02*
D03*
X375000D02*
D03*
X388000Y189000D02*
D03*
X375000Y199000D02*
D03*
X388000D02*
D03*
X401000D02*
D03*
X388000Y209000D02*
D03*
X375000Y143000D02*
D03*
X401000D02*
D03*
Y163000D02*
D03*
X375000D02*
D03*
X388000Y143000D02*
D03*
X375000Y153000D02*
D03*
X388000D02*
D03*
X401000D02*
D03*
X388000Y163000D02*
D03*
X375000Y97000D02*
D03*
X401000D02*
D03*
Y117000D02*
D03*
X375000D02*
D03*
X388000Y97000D02*
D03*
X375000Y107000D02*
D03*
X388000D02*
D03*
X401000D02*
D03*
X388000Y117000D02*
D03*
X375000Y51000D02*
D03*
X401000D02*
D03*
Y71000D02*
D03*
X375000D02*
D03*
X388000Y51000D02*
D03*
X375000Y61000D02*
D03*
X388000D02*
D03*
X401000D02*
D03*
X388000Y71000D02*
D03*
X375000Y5000D02*
D03*
X401000D02*
D03*
Y25000D02*
D03*
X375000D02*
D03*
X388000Y5000D02*
D03*
X375000Y15000D02*
D03*
X388000D02*
D03*
X401000D02*
D03*
X388000Y25000D02*
D03*
X375000Y-41000D02*
D03*
X401000D02*
D03*
Y-21000D02*
D03*
X375000D02*
D03*
X388000Y-41000D02*
D03*
X375000Y-31000D02*
D03*
X388000D02*
D03*
X401000D02*
D03*
X388000Y-21000D02*
D03*
X375000Y-87000D02*
D03*
X401000D02*
D03*
Y-67000D02*
D03*
X375000D02*
D03*
X388000Y-87000D02*
D03*
X375000Y-77000D02*
D03*
X388000D02*
D03*
X401000D02*
D03*
X388000Y-67000D02*
D03*
X375000Y-133000D02*
D03*
X401000D02*
D03*
Y-113000D02*
D03*
X375000D02*
D03*
X388000Y-133000D02*
D03*
X375000Y-123000D02*
D03*
X388000D02*
D03*
X401000D02*
D03*
X388000Y-113000D02*
D03*
X375000Y-179000D02*
D03*
X401000D02*
D03*
Y-159000D02*
D03*
X375000D02*
D03*
X388000Y-179000D02*
D03*
X375000Y-169000D02*
D03*
X388000D02*
D03*
X401000D02*
D03*
X388000Y-159000D02*
D03*
X375000Y-225000D02*
D03*
X401000D02*
D03*
Y-205000D02*
D03*
X375000D02*
D03*
X388000Y-225000D02*
D03*
X375000Y-215000D02*
D03*
X388000D02*
D03*
X401000D02*
D03*
X388000Y-205000D02*
D03*
Y-251000D02*
D03*
X401000Y-261000D02*
D03*
X388000D02*
D03*
X375000D02*
D03*
X388000Y-271000D02*
D03*
X375000Y-251000D02*
D03*
X401000D02*
D03*
Y-271000D02*
D03*
X375000D02*
D03*
X530000Y-44000D02*
D03*
X821000Y-67000D02*
D03*
X714000D02*
D03*
X707000Y0D02*
D03*
X706000Y23000D02*
D03*
X751000Y0D02*
D03*
X529750Y230250D02*
D03*
X521750D02*
D03*
X529750Y184250D02*
D03*
X521750D02*
D03*
X529750Y138250D02*
D03*
X521750D02*
D03*
X529750Y92250D02*
D03*
X521750D02*
D03*
X529750Y46250D02*
D03*
X521750D02*
D03*
X529750Y250D02*
D03*
X521750D02*
D03*
Y-45750D02*
D03*
X529750Y-91750D02*
D03*
X521750D02*
D03*
X529750Y-137750D02*
D03*
X521750D02*
D03*
X529750Y-183750D02*
D03*
X521750D02*
D03*
X529750Y-229750D02*
D03*
X521750D02*
D03*
X537000Y-261000D02*
D03*
Y-269000D02*
D03*
X897000Y-64000D02*
D03*
X865000Y-58000D02*
D03*
X637000Y-129000D02*
D03*
X650000Y-265000D02*
D03*
Y-255000D02*
D03*
X570000Y-265000D02*
D03*
Y-255000D02*
D03*
X784000Y-69000D02*
D03*
X727000Y73000D02*
D03*
X700000Y123000D02*
D03*
X681000Y141000D02*
D03*
X645000Y-156000D02*
D03*
X597000Y-266000D02*
D03*
X623000D02*
D03*
X625000Y-243000D02*
D03*
X632000Y-233000D02*
D03*
X619000Y-221000D02*
D03*
X597000Y-213000D02*
D03*
X650000Y-225000D02*
D03*
Y-205000D02*
D03*
X660000Y-215000D02*
D03*
X610000Y-186000D02*
D03*
X628000D02*
D03*
Y-168000D02*
D03*
X610000D02*
D03*
X637000Y-146000D02*
D03*
X781000Y228000D02*
D03*
X832000Y245000D02*
D03*
X808000D02*
D03*
Y276000D02*
D03*
X832000D02*
D03*
Y268000D02*
D03*
X808000D02*
D03*
X843000Y140000D02*
D03*
Y155000D02*
D03*
Y148000D02*
D03*
X925000Y141000D02*
D03*
Y148000D02*
D03*
Y155000D02*
D03*
Y163000D02*
D03*
Y174000D02*
D03*
Y185000D02*
D03*
X872000Y167000D02*
D03*
X877000Y162000D02*
D03*
X545000Y-283000D02*
D03*
X537000D02*
D03*
X914000Y-92000D02*
D03*
X889000Y-91000D02*
D03*
Y-77000D02*
D03*
X897000Y-53000D02*
D03*
X847000Y-51000D02*
D03*
X839000Y-245000D02*
D03*
X854000Y-189000D02*
D03*
X823000Y-157000D02*
D03*
X930000Y-134000D02*
D03*
X887000Y-154000D02*
D03*
Y-142000D02*
D03*
X870000Y-140000D02*
D03*
X933000Y-162000D02*
D03*
Y-170000D02*
D03*
X745000Y263000D02*
D03*
Y271000D02*
D03*
X686000Y233000D02*
D03*
X684000Y223000D02*
D03*
X696000Y190000D02*
D03*
Y198000D02*
D03*
X860000Y220000D02*
D03*
X915000Y195000D02*
D03*
X897000Y155000D02*
D03*
Y142000D02*
D03*
X853000Y216000D02*
D03*
X840000Y195000D02*
D03*
X820000D02*
D03*
X801000D02*
D03*
X856000Y268000D02*
D03*
Y276000D02*
D03*
X890000Y210000D02*
D03*
X834000Y82000D02*
D03*
X822000Y67000D02*
D03*
X897000Y-43000D02*
D03*
X686000Y-31000D02*
D03*
X689000Y4000D02*
D03*
X714000Y-56000D02*
D03*
X596000Y-146000D02*
D03*
X772000Y237000D02*
D03*
X645000Y-100000D02*
D03*
Y-80000D02*
D03*
X670000Y-90000D02*
D03*
X596000Y-83000D02*
D03*
X562000D02*
D03*
X606000Y-56000D02*
D03*
Y-36000D02*
D03*
Y-16000D02*
D03*
Y4000D02*
D03*
Y24000D02*
D03*
X615000Y41000D02*
D03*
X637000D02*
D03*
X599000D02*
D03*
X726000Y222000D02*
D03*
X746000Y93000D02*
D03*
X774000Y57000D02*
D03*
X753000Y198000D02*
D03*
X757000Y168000D02*
D03*
X596000Y-129000D02*
D03*
X800000Y143000D02*
D03*
X711000Y-111000D02*
D03*
X737000D02*
D03*
X837000Y-3000D02*
D03*
X930000Y116000D02*
D03*
X858000Y95000D02*
D03*
X757000Y80000D02*
D03*
X818000Y26000D02*
D03*
X905000Y115000D02*
D03*
X747000Y151000D02*
D03*
D91*
X163000Y-285000D02*
D03*
Y-270000D02*
D03*
Y-255000D02*
D03*
Y255000D02*
D03*
Y270000D02*
D03*
Y285000D02*
D03*
X213000Y-146500D02*
D03*
X191000D02*
D03*
X213000Y146500D02*
D03*
X191000D02*
D03*
X930000Y-200000D02*
D03*
X905000D02*
D03*
X1100000Y165000D02*
D03*
X1070000D02*
D03*
X1085000D02*
D03*
X257000Y285000D02*
D03*
X1175000Y-111000D02*
D03*
X1055000Y-200000D02*
D03*
Y-225000D02*
D03*
Y-250000D02*
D03*
X1035000Y-140000D02*
D03*
X1010000D02*
D03*
X960000D02*
D03*
X985000D02*
D03*
X257000Y-285000D02*
D03*
Y-270000D02*
D03*
Y-255000D02*
D03*
Y270000D02*
D03*
Y255000D02*
D03*
X1125000Y102000D02*
D03*
X1070000Y130000D02*
D03*
X1095000D02*
D03*
X1068000Y95000D02*
D03*
X1255000Y75000D02*
D03*
X1159000Y102000D02*
D03*
X1160000Y150000D02*
D03*
X1231000Y163000D02*
D03*
X1385000Y110000D02*
D03*
Y-20000D02*
D03*
Y-160000D02*
D03*
X1370000Y-270000D02*
D03*
X1215000Y-290000D02*
D03*
X1200000D02*
D03*
X1230000D02*
D03*
X1085000D02*
D03*
X1100000D02*
D03*
X1070000D02*
D03*
X1180000Y-160000D02*
D03*
X860000Y-285000D02*
D03*
X988000Y-290000D02*
D03*
X1054000Y-150000D02*
D03*
Y-163000D02*
D03*
Y-175000D02*
D03*
M02*
