G04 Layer_Color=8388736*
%FSAX24Y24*%
%MOIN*%
G70*
G01*
G75*
%ADD71C,0.0157*%
%ADD74C,0.0079*%
%ADD111R,0.0513X0.0631*%
%ADD112R,0.1537X0.0592*%
%ADD113R,0.3584X0.4135*%
%ADD114O,0.0320X0.0678*%
%ADD115R,0.0320X0.0678*%
%ADD116R,0.0513X0.0474*%
%ADD117R,0.0671X0.0513*%
%ADD118R,0.0631X0.0513*%
%ADD119R,0.0277X0.0330*%
G04:AMPARAMS|DCode=120|XSize=33mil|YSize=27.7mil|CornerRadius=0mil|HoleSize=0mil|Usage=FLASHONLY|Rotation=135.000|XOffset=0mil|YOffset=0mil|HoleType=Round|Shape=Rectangle|*
%AMROTATEDRECTD120*
4,1,4,0.0215,-0.0019,0.0019,-0.0215,-0.0215,0.0019,-0.0019,0.0215,0.0215,-0.0019,0.0*
%
%ADD120ROTATEDRECTD120*%

G04:AMPARAMS|DCode=121|XSize=74mil|YSize=89mil|CornerRadius=0mil|HoleSize=0mil|Usage=FLASHONLY|Rotation=225.000|XOffset=0mil|YOffset=0mil|HoleType=Round|Shape=Rectangle|*
%AMROTATEDRECTD121*
4,1,4,-0.0053,0.0576,0.0576,-0.0053,0.0053,-0.0576,-0.0576,0.0053,-0.0053,0.0576,0.0*
%
%ADD121ROTATEDRECTD121*%

%ADD122R,0.0572X0.0178*%
%ADD123O,0.0572X0.0178*%
%ADD124R,0.0330X0.0277*%
%ADD125R,0.0513X0.0671*%
%ADD126R,0.0474X0.0513*%
G04:AMPARAMS|DCode=127|XSize=33mil|YSize=27.7mil|CornerRadius=0mil|HoleSize=0mil|Usage=FLASHONLY|Rotation=45.000|XOffset=0mil|YOffset=0mil|HoleType=Round|Shape=Rectangle|*
%AMROTATEDRECTD127*
4,1,4,-0.0019,-0.0215,-0.0215,-0.0019,0.0019,0.0215,0.0215,0.0019,-0.0019,-0.0215,0.0*
%
%ADD127ROTATEDRECTD127*%

%ADD128R,0.0631X0.1458*%
%ADD129R,0.1340X0.1064*%
%ADD130R,0.4489X0.0887*%
%ADD131R,0.0434X0.0454*%
%ADD132R,0.0434X0.0454*%
%ADD133R,0.0454X0.0434*%
%ADD134R,0.0454X0.0434*%
%ADD135R,0.4332X0.4017*%
%ADD136R,0.0434X0.1891*%
%ADD137R,0.4017X0.4332*%
%ADD138R,0.1891X0.0434*%
%ADD139R,0.2167X0.0454*%
%ADD140R,0.0395X0.0592*%
%ADD141R,0.0907X0.1261*%
%ADD142R,0.1230X0.0580*%
%ADD143R,0.0395X0.0710*%
%ADD144R,0.0769X0.0828*%
%ADD145R,0.0237X0.0631*%
%ADD146R,0.0533X0.0651*%
G04:AMPARAMS|DCode=147|XSize=71mil|YSize=21.8mil|CornerRadius=7.4mil|HoleSize=0mil|Usage=FLASHONLY|Rotation=270.000|XOffset=0mil|YOffset=0mil|HoleType=Round|Shape=RoundedRectangle|*
%AMROUNDEDRECTD147*
21,1,0.0710,0.0069,0,0,270.0*
21,1,0.0561,0.0218,0,0,270.0*
1,1,0.0149,-0.0034,-0.0281*
1,1,0.0149,-0.0034,0.0281*
1,1,0.0149,0.0034,0.0281*
1,1,0.0149,0.0034,-0.0281*
%
%ADD147ROUNDEDRECTD147*%
%ADD148R,0.0218X0.0710*%
%ADD149R,0.0631X0.0198*%
%ADD150R,0.0375X0.0198*%
%ADD151R,0.0198X0.0375*%
%ADD152R,0.1104X0.1104*%
%ADD153O,0.0552X0.1064*%
%ADD154R,0.0552X0.1064*%
G04:AMPARAMS|DCode=155|XSize=17.1mil|YSize=39.5mil|CornerRadius=5.8mil|HoleSize=0mil|Usage=FLASHONLY|Rotation=0.000|XOffset=0mil|YOffset=0mil|HoleType=Round|Shape=RoundedRectangle|*
%AMROUNDEDRECTD155*
21,1,0.0171,0.0279,0,0,0.0*
21,1,0.0054,0.0395,0,0,0.0*
1,1,0.0116,0.0027,-0.0139*
1,1,0.0116,-0.0027,-0.0139*
1,1,0.0116,-0.0027,0.0139*
1,1,0.0116,0.0027,0.0139*
%
%ADD155ROUNDEDRECTD155*%
%ADD156R,0.1025X0.0730*%
%ADD157R,0.0356X0.0190*%
G04:AMPARAMS|DCode=158|XSize=20.6mil|YSize=47.4mil|CornerRadius=0mil|HoleSize=0mil|Usage=FLASHONLY|Rotation=315.000|XOffset=0mil|YOffset=0mil|HoleType=Round|Shape=Rectangle|*
%AMROTATEDRECTD158*
4,1,4,-0.0240,-0.0095,0.0095,0.0240,0.0240,0.0095,-0.0095,-0.0240,-0.0240,-0.0095,0.0*
%
%ADD158ROTATEDRECTD158*%

G04:AMPARAMS|DCode=159|XSize=20.6mil|YSize=47.4mil|CornerRadius=0mil|HoleSize=0mil|Usage=FLASHONLY|Rotation=45.000|XOffset=0mil|YOffset=0mil|HoleType=Round|Shape=Rectangle|*
%AMROTATEDRECTD159*
4,1,4,0.0095,-0.0240,-0.0240,0.0095,-0.0095,0.0240,0.0240,-0.0095,0.0095,-0.0240,0.0*
%
%ADD159ROTATEDRECTD159*%

%ADD160R,0.0474X0.0159*%
%ADD161R,0.0730X0.0879*%
%ADD162R,0.0986X0.0678*%
%ADD163R,0.0415X0.0336*%
%ADD164R,0.0415X0.0415*%
%ADD165R,0.0552X0.0552*%
%ADD166R,0.0415X0.0415*%
%ADD167P,0.0586X4X360.0*%
%ADD168R,0.0474X0.0474*%
%ADD169R,0.0710X0.0789*%
%ADD170R,0.2639X0.2442*%
%ADD171R,0.1261X0.0631*%
%ADD172C,0.0474*%
%ADD173C,0.0867*%
%ADD174C,0.0080*%
%ADD175C,0.2167*%
%ADD176C,0.1458*%
%ADD177C,0.0828*%
%ADD178C,0.0277*%
%ADD179C,0.2836*%
G36*
X289238Y196398D02*
X289243Y196397D01*
X289248Y196395D01*
X289252Y196393D01*
X289257Y196390D01*
X289261Y196387D01*
X289264Y196383D01*
X289267Y196378D01*
X289269Y196374D01*
X289271Y196369D01*
X289272Y196364D01*
X289272Y196358D01*
Y195945D01*
X289272Y195940D01*
X289271Y195935D01*
X289269Y195930D01*
X289267Y195925D01*
X289264Y195920D01*
X289261Y195917D01*
X289257Y195913D01*
X289252Y195910D01*
X289248Y195908D01*
X289243Y195906D01*
X289238Y195905D01*
X289232Y195905D01*
X287146D01*
X287140Y195905D01*
X287135Y195906D01*
X287130Y195908D01*
X287126Y195910D01*
X287121Y195913D01*
X287117Y195917D01*
X287114Y195920D01*
X287111Y195925D01*
X287109Y195930D01*
X287107Y195935D01*
X287106Y195940D01*
X287106Y195945D01*
Y196358D01*
X287106Y196364D01*
X287107Y196369D01*
X287109Y196374D01*
X287111Y196378D01*
X287114Y196383D01*
X287117Y196387D01*
X287121Y196390D01*
X287126Y196393D01*
X287130Y196395D01*
X287135Y196397D01*
X287140Y196398D01*
X287146Y196398D01*
X287539D01*
X287541Y196398D01*
X287542Y196398D01*
X287543Y196398D01*
X287545Y196398D01*
X287546Y196398D01*
X287547Y196398D01*
X287548Y196397D01*
X287550Y196397D01*
X287551Y196397D01*
X287552Y196396D01*
X287553Y196396D01*
X287555Y196395D01*
X287556Y196395D01*
X287557Y196394D01*
X287558Y196394D01*
X287559Y196393D01*
X287560Y196392D01*
X287561Y196392D01*
X287563Y196391D01*
X287564Y196390D01*
X287565Y196389D01*
X287566Y196389D01*
X287567Y196388D01*
X287568Y196387D01*
X287569Y196386D01*
X287569Y196385D01*
X287570Y196384D01*
X287571Y196383D01*
X287572Y196382D01*
X287573Y196381D01*
X287573Y196379D01*
X287574Y196378D01*
X287575Y196377D01*
X287575Y196376D01*
X287594Y196338D01*
X287650Y196245D01*
X287763Y196133D01*
X287836Y196078D01*
X287947Y196022D01*
X288019Y196004D01*
X288189Y195985D01*
X288339Y196004D01*
X288411Y196022D01*
X288447Y196040D01*
X288562Y196097D01*
X288635Y196152D01*
X288690Y196207D01*
X288746Y196282D01*
X288804Y196379D01*
X288806Y196381D01*
X288807Y196383D01*
X288807Y196383D01*
X288807Y196383D01*
X288809Y196385D01*
X288810Y196387D01*
X288810Y196387D01*
X288811Y196387D01*
X288812Y196389D01*
X288814Y196390D01*
X288814Y196390D01*
X288815Y196390D01*
X288817Y196392D01*
X288819Y196393D01*
X288819Y196393D01*
X288819Y196393D01*
X288821Y196394D01*
X288823Y196395D01*
X288824Y196395D01*
X288824Y196396D01*
X288826Y196396D01*
X288828Y196397D01*
X288829Y196397D01*
X288829Y196397D01*
X288831Y196398D01*
X288833Y196398D01*
X288834Y196398D01*
X288834Y196398D01*
X288836Y196398D01*
X288839Y196398D01*
X289232D01*
X289238Y196398D01*
D02*
G37*
G36*
Y197402D02*
X289243Y197401D01*
X289248Y197399D01*
X289252Y197397D01*
X289257Y197394D01*
X289261Y197391D01*
X289264Y197387D01*
X289267Y197382D01*
X289269Y197378D01*
X289271Y197373D01*
X289272Y197367D01*
X289272Y197362D01*
Y196949D01*
X289272Y196944D01*
X289271Y196938D01*
X289269Y196933D01*
X289267Y196929D01*
X289264Y196924D01*
X289261Y196920D01*
X289257Y196917D01*
X289252Y196914D01*
X289248Y196912D01*
X289243Y196910D01*
X289238Y196909D01*
X289232Y196909D01*
X288839D01*
X288836Y196909D01*
X288834Y196909D01*
X288834Y196909D01*
X288833Y196909D01*
X288831Y196910D01*
X288829Y196910D01*
X288829Y196910D01*
X288828Y196910D01*
X288826Y196911D01*
X288824Y196912D01*
X288824Y196912D01*
X288823Y196912D01*
X288821Y196913D01*
X288819Y196914D01*
X288819Y196914D01*
X288819Y196914D01*
X288817Y196915D01*
X288815Y196917D01*
X288814Y196917D01*
X288814Y196917D01*
X288812Y196919D01*
X288811Y196920D01*
X288810Y196920D01*
X288810Y196920D01*
X288809Y196922D01*
X288807Y196924D01*
X288807Y196924D01*
X288807Y196924D01*
X288806Y196926D01*
X288804Y196928D01*
X288746Y197025D01*
X288690Y197100D01*
X288597Y197193D01*
X288543Y197229D01*
X288431Y197285D01*
X288359Y197303D01*
X288189Y197322D01*
X288020Y197303D01*
X287909Y197266D01*
X287874Y197248D01*
X287781Y197193D01*
X287649Y197061D01*
X287613Y197007D01*
X287575Y196931D01*
X287575Y196930D01*
X287574Y196929D01*
X287573Y196928D01*
X287573Y196926D01*
X287572Y196925D01*
X287571Y196924D01*
X287570Y196923D01*
X287569Y196922D01*
X287569Y196921D01*
X287568Y196920D01*
X287567Y196920D01*
X287566Y196919D01*
X287565Y196918D01*
X287564Y196917D01*
X287563Y196916D01*
X287561Y196915D01*
X287560Y196915D01*
X287559Y196914D01*
X287558Y196913D01*
X287557Y196913D01*
X287556Y196912D01*
X287555Y196912D01*
X287553Y196911D01*
X287552Y196911D01*
X287551Y196910D01*
X287550Y196910D01*
X287548Y196910D01*
X287547Y196909D01*
X287546Y196909D01*
X287545Y196909D01*
X287543Y196909D01*
X287542Y196909D01*
X287541Y196909D01*
X287539Y196909D01*
X287146D01*
X287140Y196909D01*
X287135Y196910D01*
X287130Y196912D01*
X287126Y196914D01*
X287121Y196917D01*
X287117Y196920D01*
X287114Y196924D01*
X287111Y196929D01*
X287109Y196933D01*
X287107Y196938D01*
X287106Y196944D01*
X287106Y196949D01*
Y197362D01*
X287106Y197367D01*
X287107Y197373D01*
X287109Y197378D01*
X287111Y197382D01*
X287114Y197387D01*
X287117Y197391D01*
X287121Y197394D01*
X287126Y197397D01*
X287130Y197399D01*
X287135Y197401D01*
X287140Y197402D01*
X287146Y197402D01*
X289232D01*
X289238Y197402D01*
D02*
G37*
D71*
X257283Y199134D02*
X256181Y198714D01*
X257283Y198294D02*
X256181Y198714D01*
X257283Y197838D02*
X257231Y197995D01*
X257073Y198100D01*
X256811Y198152D01*
X256653D01*
X256391Y198100D01*
X256234Y197995D01*
X256181Y197838D01*
Y197733D01*
X256234Y197575D01*
X256391Y197470D01*
X256653Y197418D01*
X256811D01*
X257073Y197470D01*
X257231Y197575D01*
X257283Y197733D01*
Y197838D01*
X256286Y197119D02*
X256234Y197171D01*
X256181Y197119D01*
X256234Y197066D01*
X256286Y197119D01*
X257073Y196825D02*
X257126Y196720D01*
X257283Y196562D01*
X256181D01*
X257283Y195702D02*
X257231Y195859D01*
X257073Y195964D01*
X256811Y196016D01*
X256653D01*
X256391Y195964D01*
X256234Y195859D01*
X256181Y195702D01*
Y195597D01*
X256234Y195439D01*
X256391Y195334D01*
X256653Y195282D01*
X256811D01*
X257073Y195334D01*
X257231Y195439D01*
X257283Y195597D01*
Y195702D01*
D74*
X258114Y193279D02*
X258144Y193294D01*
X258174Y193324D01*
X258189Y193354D01*
Y193414D01*
X258174Y193444D01*
X258144Y193474D01*
X258114Y193489D01*
X258069Y193504D01*
X257994D01*
X257949Y193489D01*
X257919Y193474D01*
X257889Y193444D01*
X257874Y193414D01*
Y193354D01*
X257889Y193324D01*
X257919Y193294D01*
X257949Y193279D01*
X257994D01*
Y193354D02*
Y193279D01*
X258189Y193207D02*
X257874D01*
X258189D02*
X257874Y192997D01*
X258189D02*
X257874D01*
X258189Y192910D02*
X257874D01*
X258189D02*
Y192805D01*
X258174Y192760D01*
X258144Y192730D01*
X258114Y192715D01*
X258069Y192700D01*
X257994D01*
X257949Y192715D01*
X257919Y192730D01*
X257889Y192760D01*
X257874Y192805D01*
Y192910D01*
X258976Y193202D02*
X258661D01*
X258976Y193307D02*
Y193097D01*
X258916Y193060D02*
X258931Y193030D01*
X258976Y192985D01*
X258661D01*
X258976Y192021D02*
X258661D01*
X258976Y192126D02*
Y191916D01*
Y191789D02*
X258961Y191834D01*
X258916Y191864D01*
X258841Y191879D01*
X258796D01*
X258721Y191864D01*
X258676Y191834D01*
X258661Y191789D01*
Y191759D01*
X258676Y191714D01*
X258721Y191684D01*
X258796Y191669D01*
X258841D01*
X258916Y191684D01*
X258961Y191714D01*
X258976Y191759D01*
Y191789D01*
X258114Y192019D02*
X258144Y192034D01*
X258174Y192064D01*
X258189Y192094D01*
Y192154D01*
X258174Y192184D01*
X258144Y192214D01*
X258114Y192229D01*
X258069Y192244D01*
X257994D01*
X257949Y192229D01*
X257919Y192214D01*
X257889Y192184D01*
X257874Y192154D01*
Y192094D01*
X257889Y192064D01*
X257919Y192034D01*
X257949Y192019D01*
X258129Y191931D02*
X258144Y191901D01*
X258189Y191856D01*
X257874D01*
X258129Y191700D02*
X258144Y191670D01*
X258189Y191625D01*
X257874D01*
X258114Y185011D02*
X258144Y185026D01*
X258174Y185056D01*
X258189Y185086D01*
Y185146D01*
X258174Y185176D01*
X258144Y185206D01*
X258114Y185221D01*
X258069Y185236D01*
X257994D01*
X257949Y185221D01*
X257919Y185206D01*
X257889Y185176D01*
X257874Y185146D01*
Y185086D01*
X257889Y185056D01*
X257919Y185026D01*
X257949Y185011D01*
X258189Y184833D02*
X258174Y184878D01*
X258129Y184908D01*
X258054Y184923D01*
X258009D01*
X257934Y184908D01*
X257889Y184878D01*
X257874Y184833D01*
Y184803D01*
X257889Y184758D01*
X257934Y184728D01*
X258009Y184713D01*
X258054D01*
X258129Y184728D01*
X258174Y184758D01*
X258189Y184803D01*
Y184833D01*
X258009Y184642D02*
Y184373D01*
X258901Y185011D02*
X258931Y185026D01*
X258961Y185056D01*
X258976Y185086D01*
Y185146D01*
X258961Y185176D01*
X258931Y185206D01*
X258901Y185221D01*
X258856Y185236D01*
X258781D01*
X258736Y185221D01*
X258706Y185206D01*
X258676Y185176D01*
X258661Y185146D01*
Y185086D01*
X258676Y185056D01*
X258706Y185026D01*
X258736Y185011D01*
X258976Y184833D02*
X258961Y184878D01*
X258916Y184908D01*
X258841Y184923D01*
X258796D01*
X258721Y184908D01*
X258676Y184878D01*
X258661Y184833D01*
Y184803D01*
X258676Y184758D01*
X258721Y184728D01*
X258796Y184713D01*
X258841D01*
X258916Y184728D01*
X258961Y184758D01*
X258976Y184803D01*
Y184833D01*
X258931Y184507D02*
X258661D01*
X258796Y184642D02*
Y184373D01*
X258114Y186074D02*
X258144Y186089D01*
X258174Y186119D01*
X258189Y186149D01*
Y186209D01*
X258174Y186239D01*
X258144Y186269D01*
X258114Y186284D01*
X258069Y186299D01*
X257994D01*
X257949Y186284D01*
X257919Y186269D01*
X257889Y186239D01*
X257874Y186209D01*
Y186149D01*
X257889Y186119D01*
X257919Y186089D01*
X257949Y186074D01*
X258129Y185986D02*
X258144Y185956D01*
X258189Y185911D01*
X257874D01*
X258901Y186074D02*
X258931Y186089D01*
X258961Y186119D01*
X258976Y186149D01*
Y186209D01*
X258961Y186239D01*
X258931Y186269D01*
X258901Y186284D01*
X258856Y186299D01*
X258781D01*
X258736Y186284D01*
X258706Y186269D01*
X258676Y186239D01*
X258661Y186209D01*
Y186149D01*
X258676Y186119D01*
X258706Y186089D01*
X258736Y186074D01*
X258901Y185971D02*
X258916D01*
X258946Y185956D01*
X258961Y185941D01*
X258976Y185911D01*
Y185851D01*
X258961Y185821D01*
X258946Y185806D01*
X258916Y185791D01*
X258886D01*
X258856Y185806D01*
X258811Y185836D01*
X258661Y185986D01*
Y185776D01*
X258114Y187216D02*
X258144Y187231D01*
X258174Y187261D01*
X258189Y187291D01*
Y187351D01*
X258174Y187381D01*
X258144Y187411D01*
X258114Y187426D01*
X258069Y187441D01*
X257994D01*
X257949Y187426D01*
X257919Y187411D01*
X257889Y187381D01*
X257874Y187351D01*
Y187291D01*
X257889Y187261D01*
X257919Y187231D01*
X257949Y187216D01*
X258189Y187098D02*
Y186933D01*
X258069Y187023D01*
Y186978D01*
X258054Y186948D01*
X258039Y186933D01*
X257994Y186918D01*
X257964D01*
X257919Y186933D01*
X257889Y186963D01*
X257874Y187008D01*
Y187053D01*
X257889Y187098D01*
X257904Y187113D01*
X257934Y187128D01*
X258901Y187216D02*
X258931Y187231D01*
X258961Y187261D01*
X258976Y187291D01*
Y187351D01*
X258961Y187381D01*
X258931Y187411D01*
X258901Y187426D01*
X258856Y187441D01*
X258781D01*
X258736Y187426D01*
X258706Y187411D01*
X258676Y187381D01*
X258661Y187351D01*
Y187291D01*
X258676Y187261D01*
X258706Y187231D01*
X258736Y187216D01*
X258976Y186978D02*
X258766Y187128D01*
Y186903D01*
X258976Y186978D02*
X258661D01*
X258114Y188397D02*
X258144Y188412D01*
X258174Y188442D01*
X258189Y188472D01*
Y188532D01*
X258174Y188562D01*
X258144Y188592D01*
X258114Y188607D01*
X258069Y188622D01*
X257994D01*
X257949Y188607D01*
X257919Y188592D01*
X257889Y188562D01*
X257874Y188532D01*
Y188472D01*
X257889Y188442D01*
X257919Y188412D01*
X257949Y188397D01*
X258189Y188129D02*
Y188279D01*
X258054Y188294D01*
X258069Y188279D01*
X258084Y188234D01*
Y188189D01*
X258069Y188144D01*
X258039Y188114D01*
X257994Y188099D01*
X257964D01*
X257919Y188114D01*
X257889Y188144D01*
X257874Y188189D01*
Y188234D01*
X257889Y188279D01*
X257904Y188294D01*
X257934Y188309D01*
X258901Y188397D02*
X258931Y188412D01*
X258961Y188442D01*
X258976Y188472D01*
Y188532D01*
X258961Y188562D01*
X258931Y188592D01*
X258901Y188607D01*
X258856Y188622D01*
X258781D01*
X258736Y188607D01*
X258706Y188592D01*
X258676Y188562D01*
X258661Y188532D01*
Y188472D01*
X258676Y188442D01*
X258706Y188412D01*
X258736Y188397D01*
X258931Y188129D02*
X258961Y188144D01*
X258976Y188189D01*
Y188219D01*
X258961Y188264D01*
X258916Y188294D01*
X258841Y188309D01*
X258766D01*
X258706Y188294D01*
X258676Y188264D01*
X258661Y188219D01*
Y188204D01*
X258676Y188159D01*
X258706Y188129D01*
X258751Y188114D01*
X258766D01*
X258811Y188129D01*
X258841Y188159D01*
X258856Y188204D01*
Y188219D01*
X258841Y188264D01*
X258811Y188294D01*
X258766Y188309D01*
X258114Y189578D02*
X258144Y189593D01*
X258174Y189623D01*
X258189Y189653D01*
Y189713D01*
X258174Y189743D01*
X258144Y189773D01*
X258114Y189788D01*
X258069Y189803D01*
X257994D01*
X257949Y189788D01*
X257919Y189773D01*
X257889Y189743D01*
X257874Y189713D01*
Y189653D01*
X257889Y189623D01*
X257919Y189593D01*
X257949Y189578D01*
X258189Y189280D02*
X257874Y189430D01*
X258189Y189490D02*
Y189280D01*
X258901Y189578D02*
X258931Y189593D01*
X258961Y189623D01*
X258976Y189653D01*
Y189713D01*
X258961Y189743D01*
X258931Y189773D01*
X258901Y189788D01*
X258856Y189803D01*
X258781D01*
X258736Y189788D01*
X258706Y189773D01*
X258676Y189743D01*
X258661Y189713D01*
Y189653D01*
X258676Y189623D01*
X258706Y189593D01*
X258736Y189578D01*
X258976Y189415D02*
X258961Y189460D01*
X258931Y189475D01*
X258901D01*
X258871Y189460D01*
X258856Y189430D01*
X258841Y189370D01*
X258826Y189325D01*
X258796Y189295D01*
X258766Y189280D01*
X258721D01*
X258691Y189295D01*
X258676Y189310D01*
X258661Y189355D01*
Y189415D01*
X258676Y189460D01*
X258691Y189475D01*
X258721Y189490D01*
X258766D01*
X258796Y189475D01*
X258826Y189445D01*
X258841Y189400D01*
X258856Y189340D01*
X258871Y189310D01*
X258901Y189295D01*
X258931D01*
X258961Y189310D01*
X258976Y189355D01*
Y189415D01*
X258114Y190759D02*
X258144Y190774D01*
X258174Y190804D01*
X258189Y190834D01*
Y190894D01*
X258174Y190924D01*
X258144Y190954D01*
X258114Y190969D01*
X258069Y190984D01*
X257994D01*
X257949Y190969D01*
X257919Y190954D01*
X257889Y190924D01*
X257874Y190894D01*
Y190834D01*
X257889Y190804D01*
X257919Y190774D01*
X257949Y190759D01*
X258084Y190476D02*
X258039Y190491D01*
X258009Y190521D01*
X257994Y190566D01*
Y190581D01*
X258009Y190626D01*
X258039Y190656D01*
X258084Y190671D01*
X258099D01*
X258144Y190656D01*
X258174Y190626D01*
X258189Y190581D01*
Y190566D01*
X258174Y190521D01*
X258144Y190491D01*
X258084Y190476D01*
X258009D01*
X257934Y190491D01*
X257889Y190521D01*
X257874Y190566D01*
Y190596D01*
X257889Y190641D01*
X257919Y190656D01*
X258901Y190877D02*
X258931Y190892D01*
X258961Y190922D01*
X258976Y190952D01*
Y191012D01*
X258961Y191042D01*
X258931Y191072D01*
X258901Y191087D01*
X258856Y191102D01*
X258781D01*
X258736Y191087D01*
X258706Y191072D01*
X258676Y191042D01*
X258661Y191012D01*
Y190952D01*
X258676Y190922D01*
X258706Y190892D01*
X258736Y190877D01*
X258916Y190789D02*
X258931Y190759D01*
X258976Y190714D01*
X258661D01*
X258976Y190468D02*
X258961Y190513D01*
X258916Y190543D01*
X258841Y190558D01*
X258796D01*
X258721Y190543D01*
X258676Y190513D01*
X258661Y190468D01*
Y190438D01*
X258676Y190393D01*
X258721Y190363D01*
X258796Y190348D01*
X258841D01*
X258916Y190363D01*
X258961Y190393D01*
X258976Y190438D01*
Y190468D01*
X257835Y198504D02*
X257441D01*
X257835Y198242D02*
X257441D01*
X257647Y198504D02*
Y198242D01*
X257703Y197908D02*
X257441D01*
X257647D02*
X257685Y197945D01*
X257703Y197983D01*
Y198039D01*
X257685Y198077D01*
X257647Y198114D01*
X257591Y198133D01*
X257553D01*
X257497Y198114D01*
X257460Y198077D01*
X257441Y198039D01*
Y197983D01*
X257460Y197945D01*
X257497Y197908D01*
X257703Y197803D02*
X257441D01*
X257591D02*
X257647Y197784D01*
X257685Y197747D01*
X257703Y197709D01*
Y197653D01*
X257835Y197392D02*
X257441D01*
X257647D02*
X257685Y197430D01*
X257703Y197467D01*
Y197524D01*
X257685Y197561D01*
X257647Y197599D01*
X257591Y197617D01*
X257553D01*
X257497Y197599D01*
X257460Y197561D01*
X257441Y197524D01*
Y197467D01*
X257460Y197430D01*
X257497Y197392D01*
X257703Y197287D02*
X257441Y197213D01*
X257703Y197138D02*
X257441Y197213D01*
X257703Y197138D02*
X257441Y197063D01*
X257703Y196988D02*
X257441Y197063D01*
X257703Y196671D02*
X257441D01*
X257647D02*
X257685Y196708D01*
X257703Y196746D01*
Y196802D01*
X257685Y196840D01*
X257647Y196877D01*
X257591Y196896D01*
X257553D01*
X257497Y196877D01*
X257460Y196840D01*
X257441Y196802D01*
Y196746D01*
X257460Y196708D01*
X257497Y196671D01*
X257703Y196566D02*
X257441D01*
X257591D02*
X257647Y196547D01*
X257685Y196510D01*
X257703Y196472D01*
Y196416D01*
X257591Y196380D02*
Y196155D01*
X257628D01*
X257666Y196174D01*
X257685Y196193D01*
X257703Y196230D01*
Y196287D01*
X257685Y196324D01*
X257647Y196362D01*
X257591Y196380D01*
X257553D01*
X257497Y196362D01*
X257460Y196324D01*
X257441Y196287D01*
Y196230D01*
X257460Y196193D01*
X257497Y196155D01*
X257703Y196052D02*
X257685Y196071D01*
X257666Y196052D01*
X257685Y196034D01*
X257703Y196052D01*
X257478D02*
X257460Y196071D01*
X257441Y196052D01*
X257460Y196034D01*
X257478Y196052D01*
D111*
X285758Y180512D02*
D03*
X286447D02*
D03*
X292963Y199803D02*
D03*
X293652D02*
D03*
X290817Y193898D02*
D03*
X290128D02*
D03*
Y193071D02*
D03*
X290817D02*
D03*
X291585Y183150D02*
D03*
X292274D02*
D03*
X288888Y178780D02*
D03*
X288199D02*
D03*
X285856Y198110D02*
D03*
X285167D02*
D03*
X279478Y191417D02*
D03*
X278789D02*
D03*
X292274Y181811D02*
D03*
X291585D02*
D03*
X288888Y177913D02*
D03*
X288199D02*
D03*
D112*
X309094Y184551D02*
D03*
Y186551D02*
D03*
D113*
X304921Y185551D02*
D03*
D114*
X283439Y184203D02*
D03*
X282939D02*
D03*
X283439Y181703D02*
D03*
X302612Y184065D02*
D03*
X302112Y186565D02*
D03*
X302612D02*
D03*
D115*
X282939Y181703D02*
D03*
X302112Y184065D02*
D03*
D116*
X276594Y177835D02*
D03*
X275925D02*
D03*
X279468Y192402D02*
D03*
X278799D02*
D03*
X291909Y196142D02*
D03*
X291240D02*
D03*
X274587Y198425D02*
D03*
X275256D02*
D03*
X274587Y196614D02*
D03*
X275256D02*
D03*
X274587Y194803D02*
D03*
X275256D02*
D03*
X274587Y192992D02*
D03*
X275256D02*
D03*
X274587Y191181D02*
D03*
X275256D02*
D03*
X274587Y189370D02*
D03*
X275256D02*
D03*
X274587Y187559D02*
D03*
X275256D02*
D03*
X274587Y185748D02*
D03*
X275256D02*
D03*
X274587Y183937D02*
D03*
X275256D02*
D03*
X274587Y182126D02*
D03*
X275256D02*
D03*
X274587Y180315D02*
D03*
X275256D02*
D03*
X274587Y178504D02*
D03*
X275256D02*
D03*
X274587Y199213D02*
D03*
X275256D02*
D03*
X274587Y197402D02*
D03*
X275256D02*
D03*
X274587Y195591D02*
D03*
X275256D02*
D03*
X274587Y193780D02*
D03*
X275256D02*
D03*
X274587Y191968D02*
D03*
X275256D02*
D03*
X274587Y190157D02*
D03*
X275256D02*
D03*
X274587Y188346D02*
D03*
X275256D02*
D03*
X274587Y186535D02*
D03*
X275256D02*
D03*
X274587Y184724D02*
D03*
X275256D02*
D03*
X274587Y182913D02*
D03*
X275256D02*
D03*
X274587Y181102D02*
D03*
X275256D02*
D03*
X274587Y179291D02*
D03*
X275256D02*
D03*
X291594Y182480D02*
D03*
X292264D02*
D03*
X291594Y185945D02*
D03*
X292264D02*
D03*
X278406Y184685D02*
D03*
X279075D02*
D03*
X280374Y193898D02*
D03*
X281043D02*
D03*
X268366Y199606D02*
D03*
X269035D02*
D03*
X268366Y197795D02*
D03*
X269035D02*
D03*
X268366Y195984D02*
D03*
X269035D02*
D03*
X268366Y194173D02*
D03*
X269035D02*
D03*
X268366Y192362D02*
D03*
X269035D02*
D03*
X268366Y190551D02*
D03*
X269035D02*
D03*
X268366Y188740D02*
D03*
X269035D02*
D03*
X268366Y186929D02*
D03*
X269035D02*
D03*
X268366Y185118D02*
D03*
X269035D02*
D03*
X268366Y183307D02*
D03*
X269035D02*
D03*
X268366Y181496D02*
D03*
X269035D02*
D03*
X268366Y179685D02*
D03*
X269035D02*
D03*
X291240Y195591D02*
D03*
X291909D02*
D03*
X280768Y180512D02*
D03*
X281437D02*
D03*
X279862Y183661D02*
D03*
X280532D02*
D03*
X302697Y183268D02*
D03*
X302028D02*
D03*
D117*
X303543Y195059D02*
D03*
Y195886D02*
D03*
X283386Y188484D02*
D03*
Y187657D02*
D03*
X284134Y188484D02*
D03*
Y187657D02*
D03*
D118*
X290118Y189262D02*
D03*
Y189951D02*
D03*
X288189Y198967D02*
D03*
Y198278D02*
D03*
X289134Y198967D02*
D03*
Y198278D02*
D03*
X287244Y198967D02*
D03*
Y198278D02*
D03*
X269094Y198356D02*
D03*
Y199045D02*
D03*
Y196545D02*
D03*
Y197234D02*
D03*
Y194734D02*
D03*
Y195423D02*
D03*
Y192923D02*
D03*
Y193612D02*
D03*
Y191112D02*
D03*
Y191801D02*
D03*
Y189301D02*
D03*
Y189990D02*
D03*
Y187490D02*
D03*
Y188179D02*
D03*
Y185679D02*
D03*
Y186368D02*
D03*
Y183868D02*
D03*
Y184557D02*
D03*
Y182057D02*
D03*
Y182746D02*
D03*
Y180246D02*
D03*
Y180935D02*
D03*
Y178435D02*
D03*
Y179124D02*
D03*
X291693Y184183D02*
D03*
Y184872D02*
D03*
X299409Y192175D02*
D03*
Y192864D02*
D03*
X297047Y184636D02*
D03*
Y183947D02*
D03*
X302244Y190600D02*
D03*
Y191289D02*
D03*
X292402Y184183D02*
D03*
Y184872D02*
D03*
X287244Y200266D02*
D03*
Y199577D02*
D03*
X288189Y200266D02*
D03*
Y199577D02*
D03*
X289134Y200266D02*
D03*
Y199577D02*
D03*
X291693Y187234D02*
D03*
Y186545D02*
D03*
X276614Y198474D02*
D03*
Y199163D02*
D03*
Y196663D02*
D03*
Y197352D02*
D03*
Y194852D02*
D03*
Y195541D02*
D03*
Y193041D02*
D03*
Y193730D02*
D03*
Y191230D02*
D03*
Y191919D02*
D03*
Y189419D02*
D03*
Y190108D02*
D03*
Y187608D02*
D03*
Y188297D02*
D03*
Y185797D02*
D03*
Y186486D02*
D03*
Y183986D02*
D03*
Y184675D02*
D03*
Y182175D02*
D03*
Y182864D02*
D03*
Y180364D02*
D03*
Y181053D02*
D03*
Y178553D02*
D03*
Y179242D02*
D03*
X290354Y186329D02*
D03*
Y185640D02*
D03*
X290630Y187844D02*
D03*
Y188533D02*
D03*
X292047Y187844D02*
D03*
Y188533D02*
D03*
X291339Y187844D02*
D03*
Y188533D02*
D03*
X290984Y184183D02*
D03*
Y184872D02*
D03*
X309409Y185207D02*
D03*
Y185896D02*
D03*
D119*
X289882Y190472D02*
D03*
X290276D02*
D03*
X284134Y185984D02*
D03*
X284528D02*
D03*
X282677Y190354D02*
D03*
X282283D02*
D03*
X282677Y190748D02*
D03*
X282283D02*
D03*
X282677Y189961D02*
D03*
X282283D02*
D03*
X282677Y189567D02*
D03*
X282283D02*
D03*
X282677Y189134D02*
D03*
X282283D02*
D03*
X282677Y188740D02*
D03*
X282283D02*
D03*
X282677Y188346D02*
D03*
X282283D02*
D03*
Y187165D02*
D03*
X282677D02*
D03*
X282283Y186772D02*
D03*
X282677D02*
D03*
X283386Y186220D02*
D03*
X282992D02*
D03*
X289016Y190039D02*
D03*
X289409D02*
D03*
X282283Y191575D02*
D03*
X282677D02*
D03*
X282283Y192441D02*
D03*
X282677D02*
D03*
X283228Y187165D02*
D03*
X283622D02*
D03*
X283228Y186772D02*
D03*
X283622D02*
D03*
X282283Y187559D02*
D03*
X282677D02*
D03*
X282283Y187953D02*
D03*
X282677D02*
D03*
Y192008D02*
D03*
X282283D02*
D03*
X284488Y179961D02*
D03*
X284094D02*
D03*
X287441Y186260D02*
D03*
X287047D02*
D03*
X287441Y185866D02*
D03*
X287047D02*
D03*
X282677Y191181D02*
D03*
X282283D02*
D03*
D120*
X282580Y194982D02*
D03*
X282302Y194703D02*
D03*
X287184Y193882D02*
D03*
X286905Y193604D02*
D03*
X288019Y193047D02*
D03*
X287740Y192769D02*
D03*
X287740Y193325D02*
D03*
X287462Y193047D02*
D03*
X283368Y194706D02*
D03*
X283089Y194428D02*
D03*
X282538Y193877D02*
D03*
X282816Y194155D02*
D03*
X286554Y193955D02*
D03*
X286832Y194234D02*
D03*
X288092Y190494D02*
D03*
X287814Y190215D02*
D03*
X283719Y192459D02*
D03*
X283997Y192738D02*
D03*
D121*
X283093Y193093D02*
D03*
X284151Y194151D02*
D03*
D122*
X281486Y186201D02*
D03*
Y186398D02*
D03*
Y186594D02*
D03*
Y186791D02*
D03*
Y186988D02*
D03*
Y187185D02*
D03*
Y187382D02*
D03*
Y187579D02*
D03*
Y187776D02*
D03*
Y187972D02*
D03*
Y188169D02*
D03*
Y188366D02*
D03*
Y188563D02*
D03*
Y188760D02*
D03*
Y188957D02*
D03*
Y189154D02*
D03*
Y189350D02*
D03*
Y189547D02*
D03*
Y189744D02*
D03*
Y189941D02*
D03*
Y190138D02*
D03*
Y190335D02*
D03*
X278750Y186201D02*
D03*
Y186398D02*
D03*
Y186594D02*
D03*
Y186791D02*
D03*
Y186988D02*
D03*
Y187185D02*
D03*
Y187382D02*
D03*
Y187579D02*
D03*
Y187776D02*
D03*
Y187972D02*
D03*
Y188169D02*
D03*
Y188366D02*
D03*
Y188563D02*
D03*
Y188760D02*
D03*
Y188957D02*
D03*
Y189154D02*
D03*
Y189350D02*
D03*
Y189547D02*
D03*
Y189744D02*
D03*
Y189941D02*
D03*
Y190138D02*
D03*
D123*
Y190335D02*
D03*
D124*
X290827Y181535D02*
D03*
Y181929D02*
D03*
X286260Y195748D02*
D03*
Y195354D02*
D03*
X283386Y189370D02*
D03*
Y188976D02*
D03*
X278937Y181575D02*
D03*
Y181968D02*
D03*
X288228Y192008D02*
D03*
Y192402D02*
D03*
X292126Y193150D02*
D03*
Y193543D02*
D03*
X288543Y185630D02*
D03*
Y186024D02*
D03*
X288937Y185630D02*
D03*
Y186024D02*
D03*
X289331Y185630D02*
D03*
Y186024D02*
D03*
X289724Y185630D02*
D03*
Y186024D02*
D03*
X284134Y189370D02*
D03*
Y188976D02*
D03*
X281968Y183268D02*
D03*
Y183661D02*
D03*
X281417Y183268D02*
D03*
Y183661D02*
D03*
X290906Y186890D02*
D03*
Y187283D02*
D03*
X290472Y186890D02*
D03*
Y187283D02*
D03*
X278504Y181968D02*
D03*
Y181575D02*
D03*
X287441Y180630D02*
D03*
Y180236D02*
D03*
X300157Y178937D02*
D03*
Y178543D02*
D03*
X279921Y197559D02*
D03*
Y197165D02*
D03*
X300157Y177795D02*
D03*
Y178189D02*
D03*
D125*
X290532Y199213D02*
D03*
X291358D02*
D03*
D126*
X263858Y194744D02*
D03*
Y194075D02*
D03*
Y183209D02*
D03*
Y183878D02*
D03*
X288937Y179862D02*
D03*
Y180532D02*
D03*
Y181870D02*
D03*
Y181201D02*
D03*
X291968Y189272D02*
D03*
Y189941D02*
D03*
X291378Y189272D02*
D03*
Y189941D02*
D03*
X290787Y189272D02*
D03*
Y189941D02*
D03*
X283425Y180610D02*
D03*
Y179941D02*
D03*
X278425Y197776D02*
D03*
Y197106D02*
D03*
X279016Y197776D02*
D03*
Y198445D02*
D03*
X278937Y182894D02*
D03*
Y183563D02*
D03*
X279016Y197106D02*
D03*
Y196437D02*
D03*
X302205Y178681D02*
D03*
Y178012D02*
D03*
D127*
X287898Y189470D02*
D03*
X287620Y189748D02*
D03*
X287341Y188913D02*
D03*
X287063Y189192D02*
D03*
X287620Y189192D02*
D03*
X287341Y189470D02*
D03*
X284903Y188877D02*
D03*
X284625Y189155D02*
D03*
D128*
X272421Y198819D02*
D03*
X269941D02*
D03*
X272421Y197008D02*
D03*
X269941D02*
D03*
X272421Y195197D02*
D03*
X269941D02*
D03*
X272421Y193386D02*
D03*
X269941D02*
D03*
X272421Y191575D02*
D03*
X269941D02*
D03*
X272421Y189764D02*
D03*
X269941D02*
D03*
X272421Y187953D02*
D03*
X269941D02*
D03*
X272421Y186142D02*
D03*
X269941D02*
D03*
X272421Y184331D02*
D03*
X269941D02*
D03*
X272421Y182520D02*
D03*
X269941D02*
D03*
X272421Y180709D02*
D03*
X269941D02*
D03*
X272421Y178898D02*
D03*
X269941D02*
D03*
X265413Y199606D02*
D03*
X262933D02*
D03*
X265413Y178346D02*
D03*
X262933D02*
D03*
D129*
X308701Y193307D02*
D03*
X305472D02*
D03*
D130*
X295276Y191850D02*
D03*
X295276Y193189D02*
D03*
D131*
X287028Y187756D02*
D03*
X286654Y186968D02*
D03*
X285650Y187756D02*
D03*
X285276Y186968D02*
D03*
X283563Y185709D02*
D03*
X283189Y184921D02*
D03*
X286043Y194528D02*
D03*
X285669Y193740D02*
D03*
D132*
X286280Y187756D02*
D03*
X284902D02*
D03*
X282815Y185709D02*
D03*
X285295Y194528D02*
D03*
D133*
X289528Y181909D02*
D03*
X290315Y181535D02*
D03*
X289370Y190532D02*
D03*
X288583Y190906D02*
D03*
X288740Y192618D02*
D03*
X289528Y192244D02*
D03*
X288740Y193996D02*
D03*
X289528Y193622D02*
D03*
X273937Y198445D02*
D03*
X273150Y198819D02*
D03*
X273937Y196634D02*
D03*
X273150Y197008D02*
D03*
X273937Y194823D02*
D03*
X273150Y195197D02*
D03*
X273937Y193012D02*
D03*
X273150Y193386D02*
D03*
X273937Y191201D02*
D03*
X273150Y191575D02*
D03*
X273937Y189390D02*
D03*
X273150Y189764D02*
D03*
X273937Y187579D02*
D03*
X273150Y187953D02*
D03*
X273937Y185768D02*
D03*
X273150Y186142D02*
D03*
X273937Y183957D02*
D03*
X273150Y184331D02*
D03*
X273937Y182146D02*
D03*
X273150Y182520D02*
D03*
X273937Y180335D02*
D03*
X273150Y180709D02*
D03*
X273937Y178524D02*
D03*
X273150Y178898D02*
D03*
X301575Y178346D02*
D03*
X300787Y178720D02*
D03*
D134*
X289528Y181161D02*
D03*
X289370Y191280D02*
D03*
X288740Y191870D02*
D03*
Y193248D02*
D03*
X273937Y199193D02*
D03*
Y197382D02*
D03*
Y195571D02*
D03*
Y193760D02*
D03*
Y191949D02*
D03*
Y190138D02*
D03*
Y188327D02*
D03*
Y186516D02*
D03*
Y184705D02*
D03*
Y182894D02*
D03*
Y181083D02*
D03*
Y179272D02*
D03*
X300787Y177972D02*
D03*
D135*
X294685Y188533D02*
D03*
X299409D02*
D03*
D136*
X296185Y184616D02*
D03*
X295685D02*
D03*
X295185D02*
D03*
X294185D02*
D03*
X293686D02*
D03*
X293185D02*
D03*
X300909D02*
D03*
X300409D02*
D03*
X299909D02*
D03*
X298909D02*
D03*
X298411D02*
D03*
X297909D02*
D03*
D137*
X307825Y189961D02*
D03*
D138*
X303907Y188461D02*
D03*
Y188961D02*
D03*
Y189461D02*
D03*
Y190461D02*
D03*
Y190959D02*
D03*
Y191461D02*
D03*
D139*
X288189Y197549D02*
D03*
Y195758D02*
D03*
D140*
X283760Y198819D02*
D03*
X284744D02*
D03*
X284252D02*
D03*
X285236D02*
D03*
X283268D02*
D03*
X283760Y196024D02*
D03*
X284744D02*
D03*
X284252D02*
D03*
X285236D02*
D03*
X283268D02*
D03*
D141*
X286240Y199843D02*
D03*
X282264D02*
D03*
X286240Y197047D02*
D03*
X282264D02*
D03*
X287028Y178150D02*
D03*
X283051D02*
D03*
D142*
X265280Y193110D02*
D03*
Y191929D02*
D03*
Y188386D02*
D03*
Y187205D02*
D03*
Y184843D02*
D03*
Y186024D02*
D03*
Y189567D02*
D03*
Y190748D02*
D03*
X263461Y193110D02*
D03*
Y191929D02*
D03*
Y190748D02*
D03*
Y189567D02*
D03*
X263465Y188386D02*
D03*
X263461Y187205D02*
D03*
Y186024D02*
D03*
Y184843D02*
D03*
D143*
X286024Y179311D02*
D03*
X284055D02*
D03*
X285039D02*
D03*
X284547D02*
D03*
X285532D02*
D03*
D144*
X280364Y177933D02*
D03*
X279478D02*
D03*
D145*
X279921Y178976D02*
D03*
X279665D02*
D03*
X279409D02*
D03*
X280177D02*
D03*
X280433D02*
D03*
D146*
X278996Y178811D02*
D03*
X280846D02*
D03*
D147*
X290384Y184843D02*
D03*
D148*
X290128D02*
D03*
X289872D02*
D03*
X289616D02*
D03*
X289360D02*
D03*
X289104D02*
D03*
X288848D02*
D03*
X288593D02*
D03*
X290384Y182638D02*
D03*
X290128D02*
D03*
X289872D02*
D03*
X289616D02*
D03*
X289360D02*
D03*
X289104D02*
D03*
X288848D02*
D03*
X288593D02*
D03*
D149*
X288071Y187402D02*
D03*
Y187598D02*
D03*
Y187795D02*
D03*
Y187205D02*
D03*
Y187008D02*
D03*
X289803Y187795D02*
D03*
Y187598D02*
D03*
Y187008D02*
D03*
Y187205D02*
D03*
Y187402D02*
D03*
D150*
X279488Y182106D02*
D03*
Y182303D02*
D03*
Y182500D02*
D03*
Y181516D02*
D03*
Y181713D02*
D03*
Y181909D02*
D03*
X281063Y182106D02*
D03*
Y182303D02*
D03*
Y182500D02*
D03*
Y181516D02*
D03*
Y181713D02*
D03*
Y181909D02*
D03*
D151*
X280374Y181220D02*
D03*
X280571D02*
D03*
X280768D02*
D03*
X279783D02*
D03*
X279980D02*
D03*
X280177D02*
D03*
Y182795D02*
D03*
X279980D02*
D03*
X279783D02*
D03*
X280768D02*
D03*
X280571D02*
D03*
X280374D02*
D03*
D152*
X280276Y182008D02*
D03*
D153*
X284425Y181535D02*
D03*
X285425D02*
D03*
X286425D02*
D03*
X287425D02*
D03*
X284425Y185079D02*
D03*
X285425D02*
D03*
X286425D02*
D03*
D154*
X287425D02*
D03*
D155*
X290157Y197234D02*
D03*
X290551D02*
D03*
X290354D02*
D03*
X289961D02*
D03*
X289764D02*
D03*
X290551Y196073D02*
D03*
X290354D02*
D03*
X289961D02*
D03*
X289764D02*
D03*
X290157D02*
D03*
D156*
Y196654D02*
D03*
D157*
X289547Y196752D02*
D03*
Y196555D02*
D03*
X290768Y196752D02*
D03*
Y196555D02*
D03*
D158*
X286090Y193211D02*
D03*
X286229Y193072D02*
D03*
X286368Y192933D02*
D03*
X286507Y192794D02*
D03*
X286646Y192655D02*
D03*
X286786Y192515D02*
D03*
X286925Y192376D02*
D03*
X287064Y192237D02*
D03*
X287203Y192098D02*
D03*
X287342Y191959D02*
D03*
X287482Y191819D02*
D03*
X287621Y191680D02*
D03*
X285249Y189308D02*
D03*
X285110Y189448D02*
D03*
X284971Y189587D02*
D03*
X284831Y189726D02*
D03*
X284692Y189865D02*
D03*
X284553Y190004D02*
D03*
X284414Y190144D02*
D03*
X284275Y190283D02*
D03*
X284135Y190422D02*
D03*
X283996Y190561D02*
D03*
X283857Y190700D02*
D03*
X283718Y190839D02*
D03*
D159*
X287621D02*
D03*
X287482Y190700D02*
D03*
X287342Y190561D02*
D03*
X287203Y190422D02*
D03*
X287064Y190283D02*
D03*
X286925Y190144D02*
D03*
X286786Y190004D02*
D03*
X286646Y189865D02*
D03*
X286507Y189726D02*
D03*
X286368Y189587D02*
D03*
X286229Y189448D02*
D03*
X286090Y189308D02*
D03*
X283718Y191680D02*
D03*
X283857Y191819D02*
D03*
X283996Y191959D02*
D03*
X284135Y192098D02*
D03*
X284275Y192237D02*
D03*
X284414Y192376D02*
D03*
X284553Y192515D02*
D03*
X284692Y192655D02*
D03*
X284831Y192794D02*
D03*
X284971Y192933D02*
D03*
X285110Y193072D02*
D03*
X285249Y193211D02*
D03*
D160*
X268701Y199606D02*
D03*
Y197795D02*
D03*
Y195984D02*
D03*
Y194173D02*
D03*
Y192362D02*
D03*
Y190551D02*
D03*
Y188740D02*
D03*
Y186929D02*
D03*
Y185118D02*
D03*
Y183307D02*
D03*
Y181496D02*
D03*
Y179685D02*
D03*
D161*
X294646Y199803D02*
D03*
X295906D02*
D03*
D162*
X298622Y197693D02*
D03*
Y196008D02*
D03*
Y179780D02*
D03*
Y178094D02*
D03*
X303740Y179780D02*
D03*
Y178094D02*
D03*
D163*
X275906Y198376D02*
D03*
Y199262D02*
D03*
Y196565D02*
D03*
Y197451D02*
D03*
Y194754D02*
D03*
Y195640D02*
D03*
Y192943D02*
D03*
Y193829D02*
D03*
Y191132D02*
D03*
Y192018D02*
D03*
Y189321D02*
D03*
Y190207D02*
D03*
Y187510D02*
D03*
Y188396D02*
D03*
Y185699D02*
D03*
Y186585D02*
D03*
Y183888D02*
D03*
Y184774D02*
D03*
Y182077D02*
D03*
Y182963D02*
D03*
Y180266D02*
D03*
Y181152D02*
D03*
Y178455D02*
D03*
Y179341D02*
D03*
D164*
X280315Y192431D02*
D03*
Y191112D02*
D03*
X281299Y192431D02*
D03*
Y191112D02*
D03*
X291102Y190955D02*
D03*
Y192274D02*
D03*
X288543Y189596D02*
D03*
Y188278D02*
D03*
X292047Y192274D02*
D03*
Y190955D02*
D03*
X289370Y189596D02*
D03*
Y188278D02*
D03*
X291535Y194085D02*
D03*
Y192766D02*
D03*
X290236Y190955D02*
D03*
Y192274D02*
D03*
X298425Y192096D02*
D03*
Y193415D02*
D03*
X310315Y186211D02*
D03*
Y184892D02*
D03*
D165*
X281299Y193150D02*
D03*
X280197D02*
D03*
D166*
X297884Y183071D02*
D03*
X299203D02*
D03*
X301486Y191260D02*
D03*
X300167D02*
D03*
D167*
X288065Y193943D02*
D03*
X287132Y194876D02*
D03*
D168*
X279429Y179783D02*
D03*
X280177D02*
D03*
X279803Y180610D02*
D03*
D169*
X291772Y194803D02*
D03*
X290591D02*
D03*
X288583D02*
D03*
X289764D02*
D03*
D170*
X303130Y193189D02*
D03*
D171*
X300669Y192283D02*
D03*
Y194094D02*
D03*
D172*
X310039Y178150D02*
D03*
Y199803D02*
D03*
X256693Y178346D02*
D03*
X256890Y199803D02*
D03*
D173*
X305587Y180602D02*
D03*
Y181602D02*
D03*
Y182602D02*
D03*
X306587D02*
D03*
X307587D02*
D03*
X308587D02*
D03*
Y181602D02*
D03*
Y180602D02*
D03*
Y179602D02*
D03*
X305587D02*
D03*
X306587D02*
D03*
X307587D02*
D03*
X293776Y180602D02*
D03*
Y181602D02*
D03*
Y182602D02*
D03*
X294776D02*
D03*
X295776D02*
D03*
X296776D02*
D03*
Y181602D02*
D03*
Y180602D02*
D03*
Y179602D02*
D03*
X293776D02*
D03*
X294776D02*
D03*
X295776D02*
D03*
X258343Y180602D02*
D03*
Y181602D02*
D03*
Y182602D02*
D03*
X259343D02*
D03*
X260343D02*
D03*
X261343D02*
D03*
Y181602D02*
D03*
Y180602D02*
D03*
Y179602D02*
D03*
X258343D02*
D03*
X259343D02*
D03*
X260343D02*
D03*
X305587Y196350D02*
D03*
Y197350D02*
D03*
Y198350D02*
D03*
X306587D02*
D03*
X307587D02*
D03*
X308587D02*
D03*
Y197350D02*
D03*
Y196350D02*
D03*
Y195350D02*
D03*
X305587D02*
D03*
X306587D02*
D03*
X307587D02*
D03*
X293776Y196350D02*
D03*
Y197350D02*
D03*
Y198350D02*
D03*
X294776D02*
D03*
X295776D02*
D03*
X296776D02*
D03*
Y197350D02*
D03*
Y196350D02*
D03*
Y195350D02*
D03*
X293776D02*
D03*
X294776D02*
D03*
X295776D02*
D03*
X258343Y196350D02*
D03*
Y197350D02*
D03*
Y198350D02*
D03*
X259343D02*
D03*
X260343D02*
D03*
X261343D02*
D03*
Y197350D02*
D03*
Y196350D02*
D03*
Y195350D02*
D03*
X258343D02*
D03*
X259343D02*
D03*
X260343D02*
D03*
X291339Y180236D02*
D03*
Y178268D02*
D03*
D174*
X307087Y181102D02*
D03*
X259843D02*
D03*
X307087Y196850D02*
D03*
X295276D02*
D03*
X259843D02*
D03*
D175*
X295276Y181102D02*
D03*
D176*
X261303Y183992D02*
D03*
Y193961D02*
D03*
D177*
X278514Y177933D02*
D03*
X281329D02*
D03*
D178*
X290157Y196654D02*
D03*
X289862Y196850D02*
D03*
Y196457D02*
D03*
X290453D02*
D03*
Y196850D02*
D03*
D179*
X301181Y181102D02*
D03*
Y196850D02*
D03*
X265748D02*
D03*
Y181102D02*
D03*
M02*
