G04 Layer_Physical_Order=4*
G04 Layer_Color=16711680*
%FSLAX44Y44*%
%MOMM*%
G71*
G01*
G75*
%ADD20R,1.1000X1.4000*%
%ADD51R,2.1000X3.0000*%
%ADD52R,0.8000X1.6000*%
%ADD65R,11.2000X2.0500*%
%ADD71C,0.8000*%
%ADD73C,0.5000*%
%ADD74C,0.2000*%
%ADD75C,0.4000*%
%ADD76C,0.6000*%
%ADD77C,0.3000*%
%ADD79C,1.0000*%
%ADD80C,7.0000*%
%ADD81C,0.5000*%
%ADD82C,2.0000*%
%ADD83C,1.9000*%
%ADD84C,3.5000*%
%ADD85C,0.5500*%
%ADD86C,0.8000*%
%ADD87R,0.8000X1.6800*%
%ADD88R,1.6000X1.5000*%
%ADD89R,1.2900X1.4000*%
%ADD90R,1.7000X1.5000*%
%ADD91R,1.2900X1.3000*%
%ADD92R,1.5000X1.7000*%
G04:AMPARAMS|DCode=93|XSize=1.5mm|YSize=0.61mm|CornerRadius=0.0915mm|HoleSize=0mm|Usage=FLASHONLY|Rotation=90.000|XOffset=0mm|YOffset=0mm|HoleType=Round|Shape=RoundedRectangle|*
%AMROUNDEDRECTD93*
21,1,1.5000,0.4270,0,0,90.0*
21,1,1.3170,0.6100,0,0,90.0*
1,1,0.1830,0.2135,0.6585*
1,1,0.1830,0.2135,-0.6585*
1,1,0.1830,-0.2135,-0.6585*
1,1,0.1830,-0.2135,0.6585*
%
%ADD93ROUNDEDRECTD93*%
G04:AMPARAMS|DCode=94|XSize=1.5mm|YSize=0.61mm|CornerRadius=0.0915mm|HoleSize=0mm|Usage=FLASHONLY|Rotation=180.000|XOffset=0mm|YOffset=0mm|HoleType=Round|Shape=RoundedRectangle|*
%AMROUNDEDRECTD94*
21,1,1.5000,0.4270,0,0,180.0*
21,1,1.3170,0.6100,0,0,180.0*
1,1,0.1830,-0.6585,0.2135*
1,1,0.1830,0.6585,0.2135*
1,1,0.1830,0.6585,-0.2135*
1,1,0.1830,-0.6585,-0.2135*
%
%ADD94ROUNDEDRECTD94*%
G04:AMPARAMS|DCode=95|XSize=1mm|YSize=1mm|CornerRadius=0.15mm|HoleSize=0mm|Usage=FLASHONLY|Rotation=180.000|XOffset=0mm|YOffset=0mm|HoleType=Round|Shape=RoundedRectangle|*
%AMROUNDEDRECTD95*
21,1,1.0000,0.7000,0,0,180.0*
21,1,0.7000,1.0000,0,0,180.0*
1,1,0.3000,-0.3500,0.3500*
1,1,0.3000,0.3500,0.3500*
1,1,0.3000,0.3500,-0.3500*
1,1,0.3000,-0.3500,-0.3500*
%
%ADD95ROUNDEDRECTD95*%
G36*
X815000Y-170000D02*
X815000Y-240000D01*
X825000Y-250000D01*
X825000Y-296941D01*
X675000D01*
X675000Y-170000D01*
X685000Y-160000D01*
X805000Y-160000D01*
X815000Y-170000D01*
D02*
G37*
G36*
X50000Y296941D02*
X189998D01*
X189998Y249998D01*
X180000Y240000D01*
X160000Y220000D01*
Y-220000D01*
X180000Y-240000D01*
X190000Y-250000D01*
X190000Y-296941D01*
X50000D01*
X49878Y-296966D01*
X43869Y-296572D01*
X37842Y-295373D01*
X32024Y-293398D01*
X26513Y-290680D01*
X21404Y-287267D01*
X16785Y-283215D01*
X12733Y-278596D01*
X9320Y-273487D01*
X6602Y-267976D01*
X4627Y-262158D01*
X3428Y-256131D01*
X3034Y-250122D01*
X3059Y-250000D01*
Y-50000D01*
X40000D01*
Y50000D01*
X3059D01*
Y250000D01*
X3034Y250122D01*
X3428Y256131D01*
X4627Y262158D01*
X6602Y267976D01*
X9320Y273487D01*
X12733Y278596D01*
X16785Y283215D01*
X21404Y287267D01*
X26513Y290680D01*
X32024Y293398D01*
X37842Y295373D01*
X43869Y296572D01*
X49878Y296966D01*
X50000Y296941D01*
D02*
G37*
G36*
X1356131Y296572D02*
X1362158Y295373D01*
X1367976Y293398D01*
X1373487Y290680D01*
X1378596Y287267D01*
X1383215Y283215D01*
X1387267Y278596D01*
X1390680Y273487D01*
X1393398Y267976D01*
X1395373Y262158D01*
X1396572Y256131D01*
X1396966Y250122D01*
X1396941Y250000D01*
Y-250000D01*
X1396966Y-250122D01*
X1396572Y-256131D01*
X1395373Y-262158D01*
X1393398Y-267976D01*
X1390680Y-273487D01*
X1387267Y-278596D01*
X1383215Y-283215D01*
X1378596Y-287267D01*
X1373487Y-290680D01*
X1367976Y-293398D01*
X1362158Y-295373D01*
X1356131Y-296572D01*
X1350122Y-296966D01*
X1350000Y-296941D01*
X834000D01*
X834000Y-244000D01*
X825000Y-235000D01*
Y-165000D01*
X810000Y-150000D01*
X771000D01*
Y-138210D01*
X771112Y-138098D01*
X787000D01*
X788951Y-137710D01*
X790605Y-136605D01*
X791710Y-134951D01*
X792098Y-133000D01*
X791710Y-131049D01*
X790605Y-129395D01*
X788951Y-128290D01*
X787000Y-127902D01*
X769000D01*
X767049Y-128290D01*
X765395Y-129395D01*
X763290Y-131500D01*
X759000D01*
Y-131500D01*
X758500D01*
Y-131500D01*
X746500D01*
Y-131500D01*
X746000D01*
X744805Y-131319D01*
X744223Y-130230D01*
X744474Y-129853D01*
X744843Y-128000D01*
X744474Y-126147D01*
X743425Y-124575D01*
X741853Y-123526D01*
X740000Y-123157D01*
X738147Y-123526D01*
X736575Y-124575D01*
X735526Y-126147D01*
X735157Y-128000D01*
X735526Y-129853D01*
X735777Y-130230D01*
X735195Y-131319D01*
X734000Y-131500D01*
X733500D01*
X732523Y-130792D01*
X732223Y-130230D01*
X732474Y-129853D01*
X732843Y-128000D01*
X732474Y-126147D01*
X731424Y-124575D01*
X729853Y-123526D01*
X728000Y-123157D01*
X726147Y-123526D01*
X724575Y-124575D01*
X723526Y-126147D01*
X723157Y-128000D01*
X723526Y-129853D01*
X723777Y-130230D01*
X723098Y-131500D01*
X721500D01*
Y-150000D01*
X680000D01*
X665000Y-165000D01*
X665000Y-296941D01*
X200000D01*
Y-245000D01*
X175000Y-220000D01*
Y220000D01*
X200000Y245000D01*
Y296941D01*
X485000D01*
X485000Y269999D01*
X490000Y265000D01*
X534343Y265000D01*
Y262865D01*
X534569Y261728D01*
X535213Y260763D01*
Y259237D01*
X534569Y258272D01*
X534343Y257135D01*
Y252865D01*
X534569Y251728D01*
X535213Y250763D01*
Y249237D01*
X534569Y248272D01*
X534343Y247135D01*
Y242865D01*
X534569Y241728D01*
X535213Y240763D01*
Y239237D01*
X534569Y238272D01*
X534343Y237135D01*
Y232865D01*
X534569Y231728D01*
X535213Y230763D01*
Y229237D01*
X534569Y228272D01*
X534343Y227135D01*
Y222865D01*
X534569Y221728D01*
X535213Y220763D01*
Y219237D01*
X534569Y218272D01*
X534343Y217135D01*
Y212865D01*
X534569Y211728D01*
X535213Y210763D01*
Y209237D01*
X534569Y208272D01*
X534343Y207135D01*
Y202865D01*
X534569Y201728D01*
X535213Y200763D01*
X536178Y200119D01*
X537315Y199893D01*
X550485D01*
X551622Y200119D01*
X552587Y200763D01*
X552692Y200922D01*
X557173D01*
X557526Y199147D01*
X558575Y197575D01*
X560147Y196526D01*
X562000Y196157D01*
X563853Y196526D01*
X565424Y197575D01*
X566474Y199147D01*
X566843Y201000D01*
X566474Y202853D01*
X566078Y203446D01*
Y206554D01*
X566474Y207147D01*
X566843Y209000D01*
X566474Y210853D01*
X565424Y212425D01*
X563853Y213474D01*
X562000Y213843D01*
X560147Y213474D01*
X558575Y212425D01*
X557526Y210853D01*
X557173Y209078D01*
X552692D01*
X552587Y209237D01*
Y210763D01*
X553231Y211728D01*
X553457Y212865D01*
Y217135D01*
X553231Y218272D01*
X552587Y219237D01*
Y220763D01*
X553231Y221728D01*
X553457Y222865D01*
Y227135D01*
X553231Y228272D01*
X552587Y229237D01*
Y230763D01*
X553231Y231728D01*
X553457Y232865D01*
Y237135D01*
X553231Y238272D01*
X552587Y239237D01*
Y240763D01*
X553231Y241728D01*
X553457Y242865D01*
Y247135D01*
X553231Y248272D01*
X552587Y249237D01*
Y250763D01*
X553231Y251728D01*
X553457Y252865D01*
Y257135D01*
X553231Y258272D01*
X552587Y259237D01*
Y260763D01*
X553231Y261728D01*
X553457Y262865D01*
Y265000D01*
X616543Y265000D01*
Y262865D01*
X616769Y261728D01*
X617413Y260763D01*
Y259237D01*
X616769Y258272D01*
X616543Y257135D01*
Y252865D01*
X616769Y251728D01*
X617413Y250763D01*
Y249237D01*
X616769Y248272D01*
X616543Y247135D01*
Y242865D01*
X616769Y241728D01*
X617413Y240763D01*
Y239237D01*
X616769Y238272D01*
X616543Y237135D01*
Y232865D01*
X616769Y231728D01*
X617413Y230763D01*
Y229237D01*
X616769Y228272D01*
X616543Y227135D01*
Y222865D01*
X616769Y221728D01*
X617413Y220763D01*
Y219237D01*
X616769Y218272D01*
X616543Y217135D01*
Y212865D01*
X616769Y211728D01*
X617413Y210763D01*
Y209237D01*
X616769Y208272D01*
X616543Y207135D01*
Y202865D01*
X616769Y201728D01*
X617413Y200763D01*
X618378Y200119D01*
X619515Y199893D01*
X632685D01*
X633822Y200119D01*
X634787Y200763D01*
X635431Y201728D01*
X635657Y202865D01*
Y207135D01*
X635431Y208272D01*
X634787Y209237D01*
Y210763D01*
X635431Y211728D01*
X635657Y212865D01*
Y217135D01*
X635431Y218272D01*
X634787Y219237D01*
Y220763D01*
X635431Y221728D01*
X635657Y222865D01*
Y227135D01*
X635431Y228272D01*
X634787Y229237D01*
Y230763D01*
X635431Y231728D01*
X635657Y232865D01*
Y237135D01*
X635431Y238272D01*
X634787Y239237D01*
Y240763D01*
X635431Y241728D01*
X635657Y242865D01*
Y247135D01*
X635431Y248272D01*
X634787Y249237D01*
Y250763D01*
X635431Y251728D01*
X635657Y252865D01*
Y257135D01*
X635431Y258272D01*
X634787Y259237D01*
Y260763D01*
X635431Y261728D01*
X635657Y262865D01*
Y265000D01*
X650000Y265000D01*
X655000Y270000D01*
Y296941D01*
X1350000D01*
X1350122Y296966D01*
X1356131Y296572D01*
D02*
G37*
%LPC*%
G36*
X783000Y-216157D02*
X781147Y-216526D01*
X779576Y-217575D01*
X778706Y-218877D01*
X778239Y-218979D01*
X777761D01*
X777294Y-218877D01*
X776425Y-217575D01*
X774853Y-216526D01*
X773000Y-216157D01*
X771147Y-216526D01*
X769575Y-217575D01*
X768526Y-219147D01*
X768157Y-221000D01*
X768526Y-222853D01*
X769575Y-224424D01*
X771147Y-225474D01*
X773000Y-225843D01*
X774853Y-225474D01*
X776425Y-224424D01*
X777294Y-223123D01*
X777761Y-223021D01*
X778239D01*
X778706Y-223123D01*
X779576Y-224424D01*
X781147Y-225474D01*
X783000Y-225843D01*
X784853Y-225474D01*
X786425Y-224424D01*
X787474Y-222853D01*
X787843Y-221000D01*
X787474Y-219147D01*
X786425Y-217575D01*
X784853Y-216526D01*
X783000Y-216157D01*
D02*
G37*
G36*
X808000Y-207157D02*
X806147Y-207526D01*
X804576Y-208575D01*
X803526Y-210147D01*
X803157Y-212000D01*
X803526Y-213853D01*
X804576Y-215425D01*
X806147Y-216474D01*
X808000Y-216843D01*
X809853Y-216474D01*
X811425Y-215425D01*
X812474Y-213853D01*
X812843Y-212000D01*
X812474Y-210147D01*
X811425Y-208575D01*
X809853Y-207526D01*
X808000Y-207157D01*
D02*
G37*
G36*
X750250Y-212000D02*
X735250D01*
Y-230000D01*
X736431D01*
Y-235500D01*
X734000D01*
X734000Y-235500D01*
X733500D01*
Y-235500D01*
X732730Y-235500D01*
X731069D01*
Y-230000D01*
X732750D01*
Y-212000D01*
X717750D01*
Y-230000D01*
X723931D01*
Y-235500D01*
X721500D01*
Y-255500D01*
X721500Y-255500D01*
X721457Y-256752D01*
X720526Y-258147D01*
X720157Y-260000D01*
X720526Y-261853D01*
X721431Y-263209D01*
Y-269000D01*
X721703Y-270366D01*
X722477Y-271523D01*
X725477Y-274523D01*
X726634Y-275297D01*
X728000Y-275569D01*
X753000D01*
X754366Y-275297D01*
X755523Y-274523D01*
X758523Y-271523D01*
X759297Y-270366D01*
X759569Y-269000D01*
Y-262707D01*
X760839Y-262322D01*
X761575Y-263424D01*
X763147Y-264474D01*
X765000Y-264843D01*
X766853Y-264474D01*
X768425Y-263424D01*
X769474Y-261853D01*
X769843Y-260000D01*
X769474Y-258147D01*
X768569Y-256791D01*
Y-255500D01*
X771000D01*
Y-235500D01*
X759000D01*
X759000Y-235500D01*
X758500D01*
Y-235500D01*
X757730Y-235500D01*
X746500D01*
Y-235500D01*
X746000D01*
Y-235500D01*
X743569D01*
Y-230000D01*
X750250D01*
Y-212000D01*
D02*
G37*
G36*
X137100Y-107006D02*
X133277Y-107382D01*
X129602Y-108497D01*
X126214Y-110308D01*
X123245Y-112745D01*
X120808Y-115714D01*
X118997Y-119101D01*
X117882Y-122777D01*
X117506Y-126600D01*
X117882Y-130423D01*
X118997Y-134098D01*
X120808Y-137486D01*
X123245Y-140455D01*
X126214Y-142892D01*
X129602Y-144703D01*
X133277Y-145818D01*
X137100Y-146194D01*
X140923Y-145818D01*
X144598Y-144703D01*
X147986Y-142892D01*
X150955Y-140455D01*
X153392Y-137486D01*
X155203Y-134098D01*
X156318Y-130423D01*
X156694Y-126600D01*
X156318Y-122777D01*
X155203Y-119101D01*
X153392Y-115714D01*
X150955Y-112745D01*
X147986Y-110308D01*
X144598Y-108497D01*
X140923Y-107382D01*
X137100Y-107006D01*
D02*
G37*
G36*
Y146194D02*
X133277Y145818D01*
X129602Y144703D01*
X126214Y142892D01*
X123245Y140455D01*
X120808Y137486D01*
X118997Y134098D01*
X117882Y130423D01*
X117506Y126600D01*
X117882Y122777D01*
X118997Y119102D01*
X120808Y115714D01*
X123245Y112745D01*
X126214Y110308D01*
X129602Y108497D01*
X133277Y107382D01*
X137100Y107006D01*
X140923Y107382D01*
X144598Y108497D01*
X147986Y110308D01*
X150955Y112745D01*
X153392Y115714D01*
X155203Y119102D01*
X156318Y122777D01*
X156694Y126600D01*
X156318Y130423D01*
X155203Y134098D01*
X153392Y137486D01*
X150955Y140455D01*
X147986Y142892D01*
X144598Y144703D01*
X140923Y145818D01*
X137100Y146194D01*
D02*
G37*
G36*
X590250Y-75000D02*
X575250D01*
Y-91912D01*
X575018Y-93068D01*
X574118Y-93333D01*
X573147Y-93526D01*
X571575Y-94576D01*
X570526Y-96147D01*
X570157Y-98000D01*
X570451Y-99480D01*
X569714Y-100750D01*
X568000D01*
Y-121550D01*
X569065D01*
X569744Y-122820D01*
X569526Y-123147D01*
X569157Y-125000D01*
X569526Y-126853D01*
X570575Y-128425D01*
X572147Y-129474D01*
X574000Y-129843D01*
X575853Y-129474D01*
X577425Y-128425D01*
X578474Y-126853D01*
X578843Y-125000D01*
X578474Y-123147D01*
X578256Y-122820D01*
X578935Y-121550D01*
X624000D01*
Y-100750D01*
X612286D01*
X611549Y-99480D01*
X611843Y-98000D01*
X611474Y-96147D01*
X610425Y-94576D01*
X608853Y-93526D01*
X607000Y-93157D01*
X605147Y-93526D01*
X603576Y-94576D01*
X602526Y-96147D01*
X602157Y-98000D01*
X602276Y-98601D01*
X601500Y-99587D01*
X600723Y-98601D01*
X600843Y-98000D01*
X600474Y-96147D01*
X599425Y-94576D01*
X597853Y-93526D01*
X596000Y-93157D01*
X594147Y-93526D01*
X592575Y-94576D01*
X591526Y-96147D01*
X591368Y-96939D01*
X590098Y-96814D01*
Y-93000D01*
X590250D01*
Y-75000D01*
D02*
G37*
G36*
X558000Y-100750D02*
X535000D01*
Y-121550D01*
X548431D01*
Y-130000D01*
X548703Y-131366D01*
X549477Y-132523D01*
X553477Y-136523D01*
X554634Y-137297D01*
X556000Y-137569D01*
X561791D01*
X563147Y-138474D01*
X565000Y-138843D01*
X566853Y-138474D01*
X568424Y-137425D01*
X569474Y-135853D01*
X569843Y-134000D01*
X569474Y-132147D01*
X568424Y-130576D01*
X566853Y-129526D01*
X565000Y-129157D01*
X563147Y-129526D01*
X561791Y-130431D01*
X557478D01*
X555569Y-128522D01*
Y-121550D01*
X558000D01*
Y-100750D01*
D02*
G37*
G36*
X492000Y-112192D02*
X490238Y-112424D01*
X488596Y-113104D01*
X487186Y-114186D01*
X486104Y-115596D01*
X485424Y-117238D01*
X485192Y-119000D01*
X485424Y-120762D01*
X486104Y-122404D01*
X487186Y-123814D01*
X488596Y-124896D01*
X490238Y-125576D01*
X492000Y-125808D01*
X493762Y-125576D01*
X495404Y-124896D01*
X496814Y-123814D01*
X497896Y-122404D01*
X498576Y-120762D01*
X498808Y-119000D01*
X498576Y-117238D01*
X497896Y-115596D01*
X496814Y-114186D01*
X495404Y-113104D01*
X493762Y-112424D01*
X492000Y-112192D01*
D02*
G37*
G36*
X905000Y-86192D02*
X903238Y-86424D01*
X901596Y-87104D01*
X900186Y-88186D01*
X899104Y-89596D01*
X898424Y-91238D01*
X898192Y-93000D01*
X898424Y-94762D01*
X899104Y-96404D01*
X900186Y-97814D01*
X901596Y-98896D01*
X903238Y-99576D01*
X905000Y-99808D01*
X906762Y-99576D01*
X908404Y-98896D01*
X909814Y-97814D01*
X910896Y-96404D01*
X911576Y-94762D01*
X911808Y-93000D01*
X911576Y-91238D01*
X910896Y-89596D01*
X909814Y-88186D01*
X908404Y-87104D01*
X906762Y-86424D01*
X905000Y-86192D01*
D02*
G37*
G36*
X451500Y-93931D02*
X333000D01*
X330912Y-94206D01*
X328965Y-95012D01*
X327294Y-96294D01*
X317294Y-106294D01*
X316012Y-107965D01*
X315206Y-109912D01*
X314931Y-112000D01*
X315206Y-114088D01*
X316012Y-116034D01*
X317294Y-117706D01*
X318965Y-118988D01*
X320912Y-119794D01*
X323000Y-120069D01*
X325088Y-119794D01*
X327034Y-118988D01*
X328706Y-117706D01*
X336342Y-110069D01*
X451500D01*
X453588Y-109794D01*
X455535Y-108988D01*
X457206Y-107706D01*
X458488Y-106034D01*
X459294Y-104088D01*
X459569Y-102000D01*
X459294Y-99912D01*
X458488Y-97965D01*
X457206Y-96294D01*
X455535Y-95012D01*
X453588Y-94206D01*
X451500Y-93931D01*
D02*
G37*
G36*
Y-139931D02*
X333000D01*
X330912Y-140206D01*
X328965Y-141012D01*
X327294Y-142294D01*
X317294Y-152294D01*
X316012Y-153966D01*
X315206Y-155912D01*
X314931Y-158000D01*
X315206Y-160088D01*
X316012Y-162034D01*
X317294Y-163706D01*
X318965Y-164988D01*
X320912Y-165794D01*
X323000Y-166069D01*
X325088Y-165794D01*
X327034Y-164988D01*
X328706Y-163706D01*
X336342Y-156069D01*
X451500D01*
X453588Y-155794D01*
X455535Y-154988D01*
X457206Y-153706D01*
X458488Y-152035D01*
X459294Y-150088D01*
X459569Y-148000D01*
X459294Y-145912D01*
X458488Y-143966D01*
X457206Y-142294D01*
X455535Y-141012D01*
X453588Y-140206D01*
X451500Y-139931D01*
D02*
G37*
G36*
X492000Y-158192D02*
X490238Y-158424D01*
X488596Y-159104D01*
X487186Y-160186D01*
X486104Y-161596D01*
X485424Y-163238D01*
X485192Y-165000D01*
X485424Y-166762D01*
X486104Y-168404D01*
X487186Y-169814D01*
X488596Y-170896D01*
X490238Y-171576D01*
X492000Y-171808D01*
X493762Y-171576D01*
X495404Y-170896D01*
X496814Y-169814D01*
X497896Y-168404D01*
X498576Y-166762D01*
X498808Y-165000D01*
X498576Y-163238D01*
X497896Y-161596D01*
X496814Y-160186D01*
X495404Y-159104D01*
X493762Y-158424D01*
X492000Y-158192D01*
D02*
G37*
G36*
X704000Y-98157D02*
X702147Y-98526D01*
X700575Y-99575D01*
X699526Y-101147D01*
X699157Y-103000D01*
X699526Y-104853D01*
X700575Y-106425D01*
X700941Y-106669D01*
Y-131733D01*
X699733Y-132941D01*
X592000D01*
X590830Y-133174D01*
X589837Y-133837D01*
X586837Y-136837D01*
X586174Y-137830D01*
X585941Y-139000D01*
X585941Y-139000D01*
Y-163331D01*
X585791Y-163431D01*
X584209D01*
X582853Y-162526D01*
X581000Y-162157D01*
X579147Y-162526D01*
X577791Y-163431D01*
X577000D01*
X575634Y-163703D01*
X574477Y-164477D01*
X572477Y-166477D01*
X571703Y-167634D01*
X571431Y-169000D01*
Y-204000D01*
X571703Y-205366D01*
X572477Y-206523D01*
X574477Y-208523D01*
X575634Y-209297D01*
X577000Y-209569D01*
X582431D01*
Y-239803D01*
X582000Y-240157D01*
X580147Y-240526D01*
X578575Y-241575D01*
X577526Y-243147D01*
X577157Y-245000D01*
X577526Y-246853D01*
X578575Y-248424D01*
X580147Y-249474D01*
X582000Y-249843D01*
X583853Y-249474D01*
X584446Y-249078D01*
X587554D01*
X588147Y-249474D01*
X590000Y-249843D01*
X591853Y-249474D01*
X593424Y-248424D01*
X594474Y-246853D01*
X594843Y-245000D01*
X594474Y-243147D01*
X593424Y-241575D01*
X591853Y-240526D01*
X590000Y-240157D01*
X589569Y-239803D01*
Y-208000D01*
X589297Y-206634D01*
X588523Y-205477D01*
X586523Y-203477D01*
X585366Y-202703D01*
X584000Y-202431D01*
X578569D01*
Y-172499D01*
X579839Y-171612D01*
X581000Y-171843D01*
X582853Y-171474D01*
X584209Y-170569D01*
X585791D01*
X587147Y-171474D01*
X589000Y-171843D01*
X590853Y-171474D01*
X592425Y-170425D01*
X593474Y-168853D01*
X593843Y-167000D01*
X593474Y-165147D01*
X592425Y-163575D01*
X592059Y-163331D01*
Y-140267D01*
X593267Y-139059D01*
X701000D01*
X701000Y-139059D01*
X702170Y-138826D01*
X703163Y-138163D01*
X706163Y-135163D01*
X706826Y-134171D01*
X707059Y-133000D01*
Y-106669D01*
X707424Y-106425D01*
X708474Y-104853D01*
X708843Y-103000D01*
X708474Y-101147D01*
X707424Y-99575D01*
X705853Y-98526D01*
X704000Y-98157D01*
D02*
G37*
G36*
X623000Y-141157D02*
X621147Y-141526D01*
X619576Y-142575D01*
X618424D01*
X616853Y-141526D01*
X615000Y-141157D01*
X613147Y-141526D01*
X611575Y-142575D01*
X610526Y-144147D01*
X610157Y-146000D01*
X610526Y-147853D01*
X611575Y-149424D01*
X613147Y-150474D01*
X613941Y-150632D01*
Y-195733D01*
X602837Y-206837D01*
X602174Y-207829D01*
X601941Y-209000D01*
X601941Y-209000D01*
Y-220368D01*
X601147Y-220526D01*
X599575Y-221576D01*
X598526Y-223147D01*
X598157Y-225000D01*
X598526Y-226853D01*
X599575Y-228425D01*
X601147Y-229474D01*
X603000Y-229843D01*
X604853Y-229474D01*
X606424Y-228425D01*
X607575D01*
X609147Y-229474D01*
X611000Y-229843D01*
X612853Y-229474D01*
X614425Y-228425D01*
X615474Y-226853D01*
X615843Y-225000D01*
X615474Y-223147D01*
X614425Y-221576D01*
X612853Y-220526D01*
X612059Y-220368D01*
Y-212267D01*
X623163Y-201163D01*
X623163Y-201163D01*
X623826Y-200170D01*
X624059Y-199000D01*
Y-150632D01*
X624853Y-150474D01*
X626425Y-149424D01*
X627474Y-147853D01*
X627843Y-146000D01*
X627474Y-144147D01*
X626425Y-142575D01*
X624853Y-141526D01*
X623000Y-141157D01*
D02*
G37*
G36*
X923000Y-86192D02*
X921238Y-86424D01*
X919596Y-87104D01*
X918186Y-88186D01*
X917104Y-89596D01*
X916424Y-91238D01*
X916192Y-93000D01*
X916424Y-94762D01*
X917104Y-96404D01*
X918186Y-97814D01*
X919596Y-98896D01*
X921238Y-99576D01*
X923000Y-99808D01*
X924762Y-99576D01*
X926404Y-98896D01*
X927814Y-97814D01*
X928896Y-96404D01*
X929576Y-94762D01*
X929808Y-93000D01*
X929576Y-91238D01*
X928896Y-89596D01*
X927814Y-88186D01*
X926404Y-87104D01*
X924762Y-86424D01*
X923000Y-86192D01*
D02*
G37*
G36*
X584000Y160843D02*
X582147Y160474D01*
X580575Y159424D01*
X579526Y157853D01*
X579157Y156000D01*
X579526Y154147D01*
X580575Y152576D01*
Y151425D01*
X579526Y149853D01*
X579157Y148000D01*
X579526Y146147D01*
X580575Y144575D01*
X582147Y143526D01*
X584000Y143157D01*
X585853Y143526D01*
X587425Y144575D01*
X588474Y146147D01*
X588633Y146941D01*
X591733D01*
X591941Y146733D01*
Y112000D01*
X591941Y112000D01*
X592174Y110829D01*
X592837Y109837D01*
X594837Y107837D01*
X595830Y107174D01*
X597000Y106941D01*
X619733D01*
X619941Y106733D01*
Y-44000D01*
X619941Y-44000D01*
X620174Y-45170D01*
X620837Y-46163D01*
X623837Y-49163D01*
X623837Y-49163D01*
X624829Y-49826D01*
X626000Y-50059D01*
X626000Y-50059D01*
X632331D01*
X632575Y-50425D01*
X634147Y-51474D01*
X636000Y-51843D01*
X637853Y-51474D01*
X639425Y-50425D01*
X639669Y-50059D01*
X661733D01*
X669837Y-58163D01*
X669837Y-58163D01*
X670829Y-58826D01*
X672000Y-59059D01*
X683331D01*
X683575Y-59425D01*
X685147Y-60474D01*
X687000Y-60843D01*
X688853Y-60474D01*
X690425Y-59425D01*
X691474Y-57853D01*
X691843Y-56000D01*
X691474Y-54147D01*
X690425Y-52575D01*
X689123Y-51706D01*
X689021Y-51239D01*
Y-50761D01*
X689123Y-50294D01*
X690425Y-49425D01*
X691474Y-47853D01*
X691843Y-46000D01*
X691474Y-44147D01*
X690425Y-42575D01*
X688853Y-41526D01*
X687000Y-41157D01*
X685147Y-41526D01*
X683575Y-42575D01*
X683331Y-42941D01*
X674267D01*
X668163Y-36837D01*
X667170Y-36174D01*
X666000Y-35941D01*
X666000Y-35941D01*
X639669D01*
X639425Y-35575D01*
X637853Y-34526D01*
X636000Y-34157D01*
X634147Y-34526D01*
X632575Y-35575D01*
X631390Y-35064D01*
X631059Y-34733D01*
Y112000D01*
X631059Y112000D01*
X630826Y113170D01*
X630163Y114163D01*
X630163Y114163D01*
X627163Y117163D01*
X626171Y117826D01*
X625000Y118059D01*
X625000Y118059D01*
X603267D01*
X603059Y118267D01*
Y150000D01*
X602826Y151171D01*
X602163Y152163D01*
X602163Y152163D01*
X598163Y156163D01*
X597170Y156826D01*
X596000Y157059D01*
X596000Y157059D01*
X588633D01*
X588474Y157853D01*
X587425Y159424D01*
X585853Y160474D01*
X584000Y160843D01*
D02*
G37*
G36*
X889000Y-55157D02*
X887147Y-55526D01*
X885575Y-56575D01*
X884526Y-58147D01*
X884157Y-60000D01*
X884526Y-61853D01*
X885575Y-63425D01*
X887147Y-64474D01*
X889000Y-64843D01*
X890853Y-64474D01*
X892425Y-63425D01*
X893474Y-61853D01*
X893843Y-60000D01*
X893474Y-58147D01*
X892425Y-56575D01*
X890853Y-55526D01*
X889000Y-55157D01*
D02*
G37*
G36*
X847000Y-22157D02*
X845147Y-22526D01*
X843576Y-23575D01*
X842526Y-25147D01*
X842157Y-27000D01*
X842526Y-28853D01*
X843576Y-30424D01*
Y-31576D01*
X842526Y-33147D01*
X842157Y-35000D01*
X842526Y-36853D01*
X843093Y-37702D01*
X842881Y-39372D01*
X842576Y-39575D01*
X841526Y-41147D01*
X841157Y-43000D01*
X841526Y-44853D01*
X842576Y-46424D01*
X844147Y-47474D01*
X846000Y-47843D01*
X847853Y-47474D01*
X849425Y-46424D01*
X850474Y-44853D01*
X850843Y-43000D01*
X850474Y-41147D01*
X849907Y-40298D01*
X850119Y-38628D01*
X850425Y-38425D01*
X851474Y-36853D01*
X851843Y-35000D01*
X851474Y-33147D01*
X850425Y-31576D01*
Y-30424D01*
X851474Y-28853D01*
X851843Y-27000D01*
X851474Y-25147D01*
X850425Y-23575D01*
X848853Y-22526D01*
X847000Y-22157D01*
D02*
G37*
G36*
X859000Y1843D02*
X857147Y1474D01*
X855575Y425D01*
X854526Y-1147D01*
X854157Y-3000D01*
X854526Y-4853D01*
X855575Y-6424D01*
X857147Y-7474D01*
X859000Y-7843D01*
X860853Y-7474D01*
X862425Y-6424D01*
X863474Y-4853D01*
X863843Y-3000D01*
X863474Y-1147D01*
X862425Y425D01*
X860853Y1474D01*
X859000Y1843D01*
D02*
G37*
G36*
X451500Y-1931D02*
X333000D01*
X330912Y-2206D01*
X328965Y-3012D01*
X327294Y-4294D01*
X317294Y-14294D01*
X316012Y-15965D01*
X315206Y-17912D01*
X314931Y-20000D01*
X315206Y-22088D01*
X316012Y-24035D01*
X317294Y-25706D01*
X318965Y-26988D01*
X320912Y-27794D01*
X323000Y-28069D01*
X325088Y-27794D01*
X327034Y-26988D01*
X328706Y-25706D01*
X336342Y-18069D01*
X451500D01*
X453588Y-17794D01*
X455535Y-16988D01*
X457206Y-15706D01*
X458488Y-14035D01*
X459294Y-12088D01*
X459569Y-10000D01*
X459294Y-7912D01*
X458488Y-5965D01*
X457206Y-4294D01*
X455535Y-3012D01*
X453588Y-2206D01*
X451500Y-1931D01*
D02*
G37*
G36*
X633000Y-72192D02*
X631238Y-72424D01*
X629596Y-73104D01*
X628186Y-74186D01*
X627104Y-75596D01*
X626424Y-77238D01*
X626192Y-79000D01*
X626424Y-80762D01*
X626742Y-81529D01*
X625699Y-82330D01*
X625404Y-82104D01*
X623762Y-81424D01*
X622000Y-81192D01*
X620238Y-81424D01*
X618596Y-82104D01*
X617186Y-83186D01*
X616104Y-84596D01*
X615424Y-86238D01*
X615192Y-88000D01*
X615424Y-89762D01*
X616104Y-91404D01*
X617186Y-92814D01*
X618596Y-93896D01*
X620238Y-94576D01*
X622000Y-94808D01*
X623762Y-94576D01*
X625404Y-93896D01*
X626814Y-92814D01*
X627896Y-91404D01*
X628576Y-89762D01*
X628808Y-88000D01*
X628576Y-86238D01*
X628258Y-85471D01*
X629301Y-84670D01*
X629596Y-84896D01*
X631238Y-85576D01*
X633000Y-85808D01*
X634762Y-85576D01*
X636404Y-84896D01*
X637814Y-83814D01*
X638896Y-82404D01*
X639576Y-80762D01*
X639808Y-79000D01*
X639576Y-77238D01*
X638896Y-75596D01*
X637814Y-74186D01*
X636404Y-73104D01*
X634762Y-72424D01*
X633000Y-72192D01*
D02*
G37*
G36*
X213000Y-36931D02*
X210912Y-37206D01*
X208965Y-38012D01*
X207294Y-39294D01*
X206012Y-40965D01*
X205206Y-42912D01*
X204931Y-45000D01*
X205206Y-47088D01*
X206012Y-49035D01*
X207294Y-50706D01*
X208965Y-51988D01*
X210912Y-52794D01*
X213000Y-53069D01*
X215088Y-52794D01*
X217034Y-51988D01*
X217597Y-51556D01*
X291284D01*
X293444Y-53716D01*
Y-82000D01*
X293667Y-83697D01*
X294322Y-85278D01*
X295364Y-86636D01*
X300364Y-91636D01*
X301722Y-92678D01*
X303303Y-93333D01*
X305000Y-93556D01*
X312403D01*
X312966Y-93988D01*
X314912Y-94794D01*
X317000Y-95069D01*
X319088Y-94794D01*
X321035Y-93988D01*
X322706Y-92706D01*
X323988Y-91034D01*
X324794Y-89088D01*
X325069Y-87000D01*
X324794Y-84912D01*
X323988Y-82965D01*
X322706Y-81294D01*
X321035Y-80012D01*
X319088Y-79206D01*
X317000Y-78931D01*
X314912Y-79206D01*
X312966Y-80012D01*
X312403Y-80444D01*
X307716D01*
X306556Y-79284D01*
Y-51000D01*
X306333Y-49303D01*
X305678Y-47722D01*
X304636Y-46364D01*
X298636Y-40364D01*
X297278Y-39322D01*
X295697Y-38667D01*
X294000Y-38444D01*
X217597D01*
X217034Y-38012D01*
X215088Y-37206D01*
X213000Y-36931D01*
D02*
G37*
G36*
X813000Y-58902D02*
X811049Y-59290D01*
X809395Y-60395D01*
X804395Y-65395D01*
X803290Y-67049D01*
X802902Y-69000D01*
X803290Y-70951D01*
X804395Y-72605D01*
X806049Y-73710D01*
X808000Y-74098D01*
X809951Y-73710D01*
X811605Y-72605D01*
X816605Y-67605D01*
X817710Y-65951D01*
X818098Y-64000D01*
X817710Y-62049D01*
X816605Y-60395D01*
X814951Y-59290D01*
X813000Y-58902D01*
D02*
G37*
G36*
X859000Y-62157D02*
X857147Y-62526D01*
X855575Y-63575D01*
X854706Y-64877D01*
X854239Y-64979D01*
X853761D01*
X853294Y-64877D01*
X852425Y-63575D01*
X850853Y-62526D01*
X849000Y-62157D01*
X847147Y-62526D01*
X845575Y-63575D01*
X844706Y-64877D01*
X844239Y-64979D01*
X843761D01*
X843294Y-64877D01*
X842425Y-63575D01*
X840853Y-62526D01*
X839000Y-62157D01*
X837147Y-62526D01*
X835575Y-63575D01*
X834706Y-64877D01*
X834239Y-64979D01*
X833761D01*
X833294Y-64877D01*
X832424Y-63575D01*
X830853Y-62526D01*
X829000Y-62157D01*
X827147Y-62526D01*
X825575Y-63575D01*
X824526Y-65147D01*
X824157Y-67000D01*
X824526Y-68853D01*
X825575Y-70424D01*
X827147Y-71474D01*
X829000Y-71843D01*
X830853Y-71474D01*
X832424Y-70424D01*
X833294Y-69123D01*
X833761Y-69021D01*
X834239D01*
X834706Y-69123D01*
X835575Y-70424D01*
X837147Y-71474D01*
X839000Y-71843D01*
X840853Y-71474D01*
X842425Y-70424D01*
X843294Y-69123D01*
X843761Y-69021D01*
X844239D01*
X844706Y-69123D01*
X845575Y-70424D01*
X847147Y-71474D01*
X849000Y-71843D01*
X850853Y-71474D01*
X852425Y-70424D01*
X853294Y-69123D01*
X853761Y-69021D01*
X854239D01*
X854706Y-69123D01*
X855575Y-70424D01*
X857147Y-71474D01*
X859000Y-71843D01*
X860853Y-71474D01*
X862425Y-70424D01*
X863474Y-68853D01*
X863843Y-67000D01*
X863474Y-65147D01*
X862425Y-63575D01*
X860853Y-62526D01*
X859000Y-62157D01*
D02*
G37*
G36*
X451500Y-47931D02*
X333000D01*
X330912Y-48206D01*
X328965Y-49012D01*
X327294Y-50294D01*
X317294Y-60294D01*
X316012Y-61965D01*
X315206Y-63912D01*
X314931Y-66000D01*
X315206Y-68088D01*
X316012Y-70034D01*
X317294Y-71706D01*
X318965Y-72988D01*
X320912Y-73794D01*
X323000Y-74069D01*
X325088Y-73794D01*
X327034Y-72988D01*
X328706Y-71706D01*
X336342Y-64069D01*
X451500D01*
X453588Y-63794D01*
X455535Y-62988D01*
X457206Y-61706D01*
X458488Y-60034D01*
X459294Y-58088D01*
X459569Y-56000D01*
X459294Y-53912D01*
X458488Y-51965D01*
X457206Y-50294D01*
X455535Y-49012D01*
X453588Y-48206D01*
X451500Y-47931D01*
D02*
G37*
G36*
X604000Y-141157D02*
X602147Y-141526D01*
X600575Y-142575D01*
X599526Y-144147D01*
X599157Y-146000D01*
X599526Y-147853D01*
X600575Y-149424D01*
X600941Y-149669D01*
Y-173733D01*
X599733Y-174941D01*
X587000D01*
X585830Y-175174D01*
X584837Y-175837D01*
X582837Y-177837D01*
X582174Y-178829D01*
X581941Y-180000D01*
X581941Y-180000D01*
Y-191331D01*
X581575Y-191575D01*
X580526Y-193147D01*
X580157Y-195000D01*
X580526Y-196853D01*
X581575Y-198424D01*
X583147Y-199474D01*
X585000Y-199843D01*
X586853Y-199474D01*
X588425Y-198424D01*
X589474Y-196853D01*
X589843Y-195000D01*
X589474Y-193147D01*
X588425Y-191575D01*
X588059Y-191331D01*
Y-181267D01*
X588267Y-181059D01*
X601000D01*
X601000Y-181059D01*
X602170Y-180826D01*
X603163Y-180163D01*
X606163Y-177163D01*
X606826Y-176171D01*
X607059Y-175000D01*
Y-149669D01*
X607425Y-149424D01*
X608474Y-147853D01*
X608843Y-146000D01*
X608474Y-144147D01*
X607425Y-142575D01*
X605853Y-141526D01*
X604000Y-141157D01*
D02*
G37*
G36*
X575520Y-269068D02*
Y-279230D01*
X585682D01*
X585454Y-277498D01*
X584295Y-274700D01*
X582452Y-272298D01*
X580050Y-270455D01*
X577252Y-269296D01*
X575520Y-269068D01*
D02*
G37*
G36*
X572980Y-269068D02*
X571248Y-269296D01*
X568450Y-270455D01*
X566048Y-272298D01*
X564205Y-274700D01*
X563046Y-277498D01*
X562818Y-279230D01*
X572980D01*
Y-269068D01*
D02*
G37*
G36*
X644480Y-269068D02*
X642748Y-269296D01*
X639950Y-270455D01*
X637548Y-272298D01*
X635705Y-274700D01*
X634546Y-277498D01*
X634318Y-279230D01*
X644480D01*
Y-269068D01*
D02*
G37*
G36*
X213000Y-98883D02*
X210659Y-99348D01*
X208674Y-100674D01*
X207348Y-102659D01*
X206882Y-105000D01*
X207348Y-107341D01*
X208674Y-109326D01*
X210659Y-110652D01*
X213000Y-111117D01*
X215341Y-110652D01*
X216933Y-109588D01*
X256099D01*
X260412Y-113900D01*
Y-121232D01*
X260761Y-122988D01*
X261756Y-124477D01*
X277412Y-140133D01*
Y-164000D01*
X277761Y-165756D01*
X278756Y-167244D01*
X294412Y-182901D01*
Y-262000D01*
X294761Y-263756D01*
X295756Y-265244D01*
X298975Y-268463D01*
X299348Y-270341D01*
X300674Y-272326D01*
X302659Y-273652D01*
X305000Y-274118D01*
X307341Y-273652D01*
X309326Y-272326D01*
X310652Y-270341D01*
X311117Y-268000D01*
X310652Y-265659D01*
X309326Y-263674D01*
X307341Y-262348D01*
X305463Y-261975D01*
X303588Y-260100D01*
Y-181000D01*
X303239Y-179244D01*
X302244Y-177756D01*
X286588Y-162099D01*
Y-138232D01*
X286239Y-136476D01*
X285244Y-134988D01*
X269588Y-119332D01*
Y-112000D01*
X269239Y-110244D01*
X268244Y-108756D01*
X261244Y-101756D01*
X259756Y-100761D01*
X258000Y-100412D01*
X216933D01*
X215341Y-99348D01*
X213000Y-98883D01*
D02*
G37*
G36*
X647020Y-269068D02*
Y-279230D01*
X657182D01*
X656954Y-277498D01*
X655795Y-274700D01*
X653952Y-272298D01*
X651550Y-270455D01*
X648752Y-269296D01*
X647020Y-269068D01*
D02*
G37*
G36*
X657182Y-281770D02*
X647020D01*
Y-291932D01*
X648752Y-291704D01*
X651550Y-290545D01*
X653952Y-288702D01*
X655795Y-286300D01*
X656954Y-283502D01*
X657182Y-281770D01*
D02*
G37*
G36*
X572980Y-281770D02*
X562818D01*
X563046Y-283502D01*
X564205Y-286300D01*
X566048Y-288702D01*
X568450Y-290545D01*
X571248Y-291704D01*
X572980Y-291932D01*
Y-281770D01*
D02*
G37*
G36*
X644480Y-281770D02*
X634318D01*
X634546Y-283502D01*
X635705Y-286300D01*
X637548Y-288702D01*
X639950Y-290545D01*
X642748Y-291704D01*
X644480Y-291932D01*
Y-281770D01*
D02*
G37*
G36*
X900000Y-259896D02*
X896867Y-260309D01*
X893948Y-261518D01*
X891441Y-263442D01*
X889518Y-265948D01*
X888309Y-268867D01*
X887896Y-272000D01*
X888309Y-275133D01*
X889518Y-278052D01*
X891441Y-280558D01*
X893948Y-282482D01*
X896867Y-283691D01*
X900000Y-284104D01*
X903133Y-283691D01*
X906052Y-282482D01*
X908559Y-280558D01*
X910482Y-278052D01*
X910877Y-277098D01*
X920000D01*
X921951Y-276710D01*
X923605Y-275605D01*
X924710Y-273951D01*
X925098Y-272000D01*
X924710Y-270049D01*
X923605Y-268395D01*
X921951Y-267290D01*
X920000Y-266902D01*
X910877D01*
X910482Y-265948D01*
X908559Y-263442D01*
X906052Y-261518D01*
X903133Y-260309D01*
X900000Y-259896D01*
D02*
G37*
G36*
X585682Y-281770D02*
X575520D01*
Y-291932D01*
X577252Y-291704D01*
X580050Y-290545D01*
X582452Y-288702D01*
X584295Y-286300D01*
X585454Y-283502D01*
X585682Y-281770D01*
D02*
G37*
G36*
X492000Y-250192D02*
X490238Y-250424D01*
X488596Y-251104D01*
X487186Y-252186D01*
X486104Y-253596D01*
X485424Y-255238D01*
X485192Y-257000D01*
X485424Y-258762D01*
X486104Y-260404D01*
X487186Y-261814D01*
X488596Y-262896D01*
X490238Y-263576D01*
X492000Y-263808D01*
X493762Y-263576D01*
X495404Y-262896D01*
X496814Y-261814D01*
X497896Y-260404D01*
X498576Y-258762D01*
X498808Y-257000D01*
X498576Y-255238D01*
X497896Y-253596D01*
X496814Y-252186D01*
X495404Y-251104D01*
X493762Y-250424D01*
X492000Y-250192D01*
D02*
G37*
G36*
Y-204192D02*
X490238Y-204424D01*
X488596Y-205104D01*
X487186Y-206186D01*
X486104Y-207596D01*
X485424Y-209238D01*
X485192Y-211000D01*
X485424Y-212762D01*
X486104Y-214404D01*
X487186Y-215814D01*
X488596Y-216896D01*
X490238Y-217576D01*
X492000Y-217808D01*
X493762Y-217576D01*
X495404Y-216896D01*
X496814Y-215814D01*
X497896Y-214404D01*
X498576Y-212762D01*
X498808Y-211000D01*
X498576Y-209238D01*
X497896Y-207596D01*
X496814Y-206186D01*
X495404Y-205104D01*
X493762Y-204424D01*
X492000Y-204192D01*
D02*
G37*
G36*
X213000Y-66931D02*
X210912Y-67206D01*
X208965Y-68012D01*
X207294Y-69294D01*
X206012Y-70965D01*
X205206Y-72912D01*
X204931Y-75000D01*
X205206Y-77088D01*
X206012Y-79035D01*
X207294Y-80706D01*
X208965Y-81988D01*
X210912Y-82794D01*
X213000Y-83069D01*
X215088Y-82794D01*
X217034Y-81988D01*
X217597Y-81556D01*
X277284D01*
X278444Y-82716D01*
Y-110000D01*
X278667Y-111697D01*
X279322Y-113278D01*
X280364Y-114636D01*
X293444Y-127716D01*
Y-158000D01*
X293667Y-159697D01*
X294322Y-161278D01*
X295364Y-162636D01*
X309333Y-176605D01*
X309206Y-176912D01*
X308931Y-179000D01*
X309206Y-181088D01*
X310012Y-183034D01*
X311294Y-184706D01*
X312966Y-185988D01*
X314912Y-186794D01*
X317000Y-187069D01*
X319088Y-186794D01*
X321035Y-185988D01*
X322706Y-184706D01*
X323988Y-183034D01*
X324794Y-181088D01*
X325069Y-179000D01*
X324794Y-176912D01*
X323988Y-174965D01*
X323461Y-174279D01*
X323333Y-173303D01*
X322678Y-171722D01*
X321636Y-170364D01*
X306556Y-155284D01*
Y-125000D01*
X306333Y-123303D01*
X305678Y-121722D01*
X304636Y-120364D01*
X291556Y-107284D01*
Y-80000D01*
X291333Y-78303D01*
X290678Y-76722D01*
X289636Y-75364D01*
X284636Y-70364D01*
X283278Y-69322D01*
X281697Y-68667D01*
X280000Y-68444D01*
X217597D01*
X217034Y-68012D01*
X215088Y-67206D01*
X213000Y-66931D01*
D02*
G37*
G36*
X451500Y-185931D02*
X333000D01*
X330912Y-186206D01*
X328965Y-187012D01*
X327294Y-188294D01*
X317294Y-198294D01*
X316012Y-199965D01*
X315206Y-201912D01*
X314931Y-204000D01*
X315206Y-206088D01*
X316012Y-208034D01*
X317294Y-209706D01*
X318965Y-210988D01*
X320912Y-211794D01*
X323000Y-212069D01*
X325088Y-211794D01*
X327034Y-210988D01*
X328706Y-209706D01*
X336342Y-202069D01*
X451500D01*
X453588Y-201794D01*
X455535Y-200988D01*
X457206Y-199706D01*
X458488Y-198034D01*
X459294Y-196088D01*
X459569Y-194000D01*
X459294Y-191912D01*
X458488Y-189965D01*
X457206Y-188294D01*
X455535Y-187012D01*
X453588Y-186206D01*
X451500Y-185931D01*
D02*
G37*
G36*
X250000Y-158642D02*
X244602Y-158995D01*
X239296Y-160051D01*
X234173Y-161790D01*
X229321Y-164182D01*
X224823Y-167188D01*
X220755Y-170755D01*
X217188Y-174823D01*
X214182Y-179321D01*
X211790Y-184173D01*
X210051Y-189296D01*
X208995Y-194602D01*
X208641Y-200000D01*
X208995Y-205398D01*
X210051Y-210704D01*
X211790Y-215827D01*
X214182Y-220679D01*
X217188Y-225177D01*
X220755Y-229245D01*
X224823Y-232812D01*
X229321Y-235818D01*
X234173Y-238210D01*
X239296Y-239949D01*
X244602Y-241005D01*
X250000Y-241359D01*
X255398Y-241005D01*
X260704Y-239949D01*
X265827Y-238210D01*
X270679Y-235818D01*
X275177Y-232812D01*
X279245Y-229245D01*
X282812Y-225177D01*
X285818Y-220679D01*
X288210Y-215827D01*
X289949Y-210704D01*
X291005Y-205398D01*
X291359Y-200000D01*
X291005Y-194602D01*
X289949Y-189296D01*
X288210Y-184173D01*
X285818Y-179321D01*
X282812Y-174823D01*
X279245Y-170755D01*
X275177Y-167188D01*
X270679Y-164182D01*
X265827Y-161790D01*
X260704Y-160051D01*
X255398Y-158995D01*
X250000Y-158642D01*
D02*
G37*
G36*
X451500Y-231931D02*
X333000D01*
X330912Y-232206D01*
X328965Y-233012D01*
X327294Y-234294D01*
X317294Y-244294D01*
X316012Y-245965D01*
X315206Y-247912D01*
X314931Y-250000D01*
X315206Y-252088D01*
X316012Y-254035D01*
X317294Y-255706D01*
X318965Y-256988D01*
X320912Y-257794D01*
X323000Y-258069D01*
X325088Y-257794D01*
X327034Y-256988D01*
X328706Y-255706D01*
X336342Y-248069D01*
X451500D01*
X453588Y-247794D01*
X455535Y-246988D01*
X457206Y-245706D01*
X458488Y-244035D01*
X459294Y-242088D01*
X459569Y-240000D01*
X459294Y-237912D01*
X458488Y-235965D01*
X457206Y-234294D01*
X455535Y-233012D01*
X453588Y-232206D01*
X451500Y-231931D01*
D02*
G37*
G36*
X528900Y-191250D02*
X512000D01*
Y-209250D01*
X517391D01*
Y-212450D01*
X517391Y-212450D01*
X517624Y-213620D01*
X518287Y-214613D01*
X520837Y-217163D01*
X520837Y-217163D01*
X521829Y-217826D01*
X523000Y-218059D01*
X523000Y-218059D01*
X566331D01*
X566575Y-218425D01*
X568147Y-219474D01*
X570000Y-219843D01*
X571853Y-219474D01*
X573425Y-218425D01*
X574474Y-216853D01*
X574843Y-215000D01*
X574474Y-213147D01*
X573425Y-211575D01*
X571853Y-210526D01*
X570000Y-210157D01*
X568147Y-210526D01*
X566575Y-211575D01*
X566331Y-211941D01*
X524267D01*
X523509Y-211183D01*
Y-209250D01*
X528900D01*
Y-191250D01*
D02*
G37*
G36*
X900000Y-209896D02*
X896867Y-210309D01*
X893948Y-211518D01*
X891441Y-213442D01*
X889518Y-215948D01*
X889123Y-216902D01*
X874000D01*
X872049Y-217290D01*
X870395Y-218395D01*
X869290Y-220049D01*
X868902Y-222000D01*
X869290Y-223951D01*
X870395Y-225605D01*
X872049Y-226710D01*
X874000Y-227098D01*
X889123D01*
X889518Y-228052D01*
X891441Y-230558D01*
X893948Y-232482D01*
X896867Y-233691D01*
X900000Y-234104D01*
X903133Y-233691D01*
X906052Y-232482D01*
X908559Y-230558D01*
X910482Y-228052D01*
X911691Y-225133D01*
X912104Y-222000D01*
X911691Y-218867D01*
X910482Y-215948D01*
X908559Y-213442D01*
X906052Y-211518D01*
X903133Y-210309D01*
X900000Y-209896D01*
D02*
G37*
G36*
X1150000Y241359D02*
X1144602Y241005D01*
X1139296Y239949D01*
X1134173Y238210D01*
X1129321Y235818D01*
X1124822Y232812D01*
X1120755Y229245D01*
X1117188Y225177D01*
X1114183Y220679D01*
X1111790Y215827D01*
X1110051Y210704D01*
X1108995Y205398D01*
X1108642Y200000D01*
X1108995Y194602D01*
X1110051Y189296D01*
X1111790Y184173D01*
X1114183Y179321D01*
X1117188Y174823D01*
X1120755Y170755D01*
X1124822Y167188D01*
X1129321Y164182D01*
X1134173Y161790D01*
X1139296Y160051D01*
X1144602Y158995D01*
X1150000Y158642D01*
X1155398Y158995D01*
X1160704Y160051D01*
X1165827Y161790D01*
X1170679Y164182D01*
X1175178Y167188D01*
X1179245Y170755D01*
X1182812Y174823D01*
X1185818Y179321D01*
X1188210Y184173D01*
X1189949Y189296D01*
X1191005Y194602D01*
X1191359Y200000D01*
X1191005Y205398D01*
X1189949Y210704D01*
X1188210Y215827D01*
X1185818Y220679D01*
X1182812Y225177D01*
X1179245Y229245D01*
X1175178Y232812D01*
X1170679Y235818D01*
X1165827Y238210D01*
X1160704Y239949D01*
X1155398Y241005D01*
X1150000Y241359D01*
D02*
G37*
G36*
X230000Y139843D02*
X228147Y139474D01*
X226575Y138425D01*
X225526Y136853D01*
X225157Y135000D01*
X225526Y133147D01*
X226575Y131575D01*
X228147Y130526D01*
X230000Y130157D01*
X231853Y130526D01*
X233425Y131575D01*
X234474Y133147D01*
X234843Y135000D01*
X234474Y136853D01*
X233425Y138425D01*
X231853Y139474D01*
X230000Y139843D01*
D02*
G37*
G36*
X610000Y205843D02*
X608147Y205474D01*
X606575Y204425D01*
X606331Y204059D01*
X582000D01*
X580830Y203826D01*
X579837Y203163D01*
X577837Y201163D01*
X577174Y200170D01*
X576941Y199000D01*
X576941Y199000D01*
Y193622D01*
X576232Y192561D01*
X575922Y191000D01*
Y187792D01*
X575763Y187687D01*
X574236D01*
X573272Y188331D01*
X572135Y188557D01*
X567865D01*
X566728Y188331D01*
X565764Y187687D01*
X564236D01*
X563272Y188331D01*
X562135Y188557D01*
X557865D01*
X556728Y188331D01*
X555764Y187687D01*
X554236D01*
X553272Y188331D01*
X552135Y188557D01*
X547865D01*
X546728Y188331D01*
X545763Y187687D01*
X545119Y186722D01*
X544893Y185585D01*
Y172415D01*
X545119Y171278D01*
X545763Y170313D01*
X546728Y169669D01*
X547865Y169443D01*
X552135D01*
X553272Y169669D01*
X554236Y170313D01*
X555764D01*
X556728Y169669D01*
X557865Y169443D01*
X562135D01*
X563272Y169669D01*
X564236Y170313D01*
X565764D01*
X566728Y169669D01*
X567865Y169443D01*
X572135D01*
X573272Y169669D01*
X574236Y170313D01*
X575763D01*
X576728Y169669D01*
X577865Y169443D01*
X582135D01*
X583272Y169669D01*
X584236Y170313D01*
X585763D01*
X586728Y169669D01*
X587865Y169443D01*
X592135D01*
X593272Y169669D01*
X594236Y170313D01*
X594695D01*
X595922Y169109D01*
Y167446D01*
X595526Y166853D01*
X595157Y165000D01*
X595526Y163147D01*
X596575Y161575D01*
X598147Y160526D01*
X600000Y160157D01*
X601853Y160526D01*
X603424Y161575D01*
X604294Y162877D01*
X604761Y162979D01*
X605239D01*
X605706Y162877D01*
X606575Y161575D01*
X608147Y160526D01*
X610000Y160157D01*
X611853Y160526D01*
X613425Y161575D01*
X614474Y163147D01*
X614735Y164456D01*
X616030D01*
X616232Y163439D01*
X616941Y162378D01*
Y148607D01*
X615671Y147928D01*
X614853Y148474D01*
X613000Y148843D01*
X611147Y148474D01*
X609575Y147424D01*
X608526Y145853D01*
X608157Y144000D01*
X608526Y142147D01*
X609575Y140575D01*
X611147Y139526D01*
X613000Y139157D01*
X614853Y139526D01*
X616424Y140575D01*
X616669Y140941D01*
X618000D01*
X618000Y140941D01*
X619170Y141174D01*
X620163Y141837D01*
X622163Y143837D01*
X622826Y144830D01*
X623059Y146000D01*
Y162378D01*
X623768Y163439D01*
X624078Y165000D01*
Y170208D01*
X624237Y170313D01*
X624881Y171278D01*
X625107Y172415D01*
Y185585D01*
X624881Y186722D01*
X624237Y187687D01*
X623272Y188331D01*
X622135Y188557D01*
X617865D01*
X616728Y188331D01*
X615764Y187687D01*
X614236D01*
X613560Y188139D01*
X613382Y189225D01*
X613425Y189576D01*
X614474Y191147D01*
X614843Y193000D01*
X614474Y194853D01*
X613425Y196425D01*
Y197575D01*
X614474Y199147D01*
X614843Y201000D01*
X614474Y202853D01*
X613425Y204425D01*
X611853Y205474D01*
X610000Y205843D01*
D02*
G37*
G36*
X451500Y228069D02*
X333000D01*
X330912Y227794D01*
X328965Y226988D01*
X327294Y225706D01*
X317294Y215706D01*
X316012Y214035D01*
X315206Y212088D01*
X314931Y210000D01*
X315206Y207912D01*
X316012Y205965D01*
X317294Y204294D01*
X318965Y203012D01*
X320912Y202206D01*
X323000Y201931D01*
X325088Y202206D01*
X327034Y203012D01*
X328706Y204294D01*
X336342Y211931D01*
X451500D01*
X453588Y212206D01*
X455535Y213012D01*
X457206Y214294D01*
X458488Y215965D01*
X459294Y217912D01*
X459569Y220000D01*
X459294Y222088D01*
X458488Y224035D01*
X457206Y225706D01*
X455535Y226988D01*
X453588Y227794D01*
X451500Y228069D01*
D02*
G37*
G36*
X745000Y203098D02*
X743049Y202710D01*
X741697Y201806D01*
X740424Y201425D01*
X738853Y202474D01*
X737000Y202843D01*
X735147Y202474D01*
X733576Y201425D01*
X732424D01*
X730853Y202474D01*
X729000Y202843D01*
X727147Y202474D01*
X725575Y201425D01*
X724425D01*
X722853Y202474D01*
X721000Y202843D01*
X719147Y202474D01*
X717576Y201425D01*
X716526Y199853D01*
X716157Y198000D01*
X716526Y196147D01*
X717576Y194576D01*
X717941Y194331D01*
Y152000D01*
X717941Y152000D01*
X718174Y150829D01*
X718837Y149837D01*
X785837Y82837D01*
X785837Y82837D01*
X786829Y82174D01*
X788000Y81941D01*
X797000D01*
X797000Y81941D01*
X798170Y82174D01*
X799163Y82837D01*
X803568Y87243D01*
X804000Y87157D01*
X805853Y87526D01*
X807424Y88575D01*
X808474Y90147D01*
X808843Y92000D01*
X808474Y93853D01*
X807424Y95424D01*
X805853Y96474D01*
X804000Y96843D01*
X802147Y96474D01*
X801787Y96234D01*
X800644Y96997D01*
X800843Y98000D01*
X800474Y99853D01*
X799425Y101425D01*
X797853Y102474D01*
X796000Y102843D01*
X794147Y102474D01*
X792576Y101425D01*
X791526Y99853D01*
X791157Y98000D01*
X790172Y97059D01*
X786267D01*
X778527Y104799D01*
X778705Y105228D01*
X779151Y105971D01*
X780171Y106174D01*
X781163Y106837D01*
X781569Y107243D01*
X782000Y107157D01*
X783853Y107526D01*
X785425Y108575D01*
X786474Y110147D01*
X786843Y112000D01*
X786474Y113853D01*
X785425Y115425D01*
X783853Y116474D01*
X782000Y116843D01*
X780147Y116474D01*
X778576Y115425D01*
X777526Y113853D01*
X777448Y113462D01*
X776233Y113093D01*
X774093Y115232D01*
X774462Y116448D01*
X774853Y116526D01*
X776425Y117576D01*
X777474Y119147D01*
X777843Y121000D01*
X777474Y122853D01*
X776425Y124425D01*
X774853Y125474D01*
X773000Y125843D01*
X771147Y125474D01*
X769575Y124425D01*
X768526Y122853D01*
X768448Y122462D01*
X767233Y122093D01*
X740059Y149267D01*
Y186109D01*
X741329Y186495D01*
X741395Y186395D01*
X743049Y185290D01*
X745000Y184902D01*
X746951Y185290D01*
X748605Y186395D01*
X749710Y188049D01*
X750098Y190000D01*
Y198000D01*
X749710Y199951D01*
X748605Y201605D01*
X746951Y202710D01*
X745000Y203098D01*
D02*
G37*
G36*
X215000Y139843D02*
X213147Y139474D01*
X211575Y138425D01*
X210526Y136853D01*
X210157Y135000D01*
X210526Y133147D01*
X211575Y131575D01*
X213147Y130526D01*
X215000Y130157D01*
X216853Y130526D01*
X218425Y131575D01*
X219474Y133147D01*
X219843Y135000D01*
X219474Y136853D01*
X218425Y138425D01*
X216853Y139474D01*
X215000Y139843D01*
D02*
G37*
G36*
X1315000Y118069D02*
X1305000D01*
X1302912Y117794D01*
X1300966Y116988D01*
X1299294Y115706D01*
X1298012Y114035D01*
X1297206Y112088D01*
X1296931Y110000D01*
X1297206Y107912D01*
X1298012Y105965D01*
X1299294Y104294D01*
X1300966Y103012D01*
X1302912Y102206D01*
X1305000Y101931D01*
X1315000D01*
X1317088Y102206D01*
X1319034Y103012D01*
X1320706Y104294D01*
X1321988Y105965D01*
X1322794Y107912D01*
X1323069Y110000D01*
X1322794Y112088D01*
X1321988Y114035D01*
X1320706Y115706D01*
X1319034Y116988D01*
X1317088Y117794D01*
X1315000Y118069D01*
D02*
G37*
G36*
X451500Y136069D02*
X333000D01*
X330912Y135794D01*
X328965Y134988D01*
X327294Y133706D01*
X317294Y123706D01*
X316012Y122035D01*
X315206Y120088D01*
X314931Y118000D01*
X315206Y115912D01*
X316012Y113966D01*
X317294Y112294D01*
X318965Y111012D01*
X320912Y110206D01*
X323000Y109931D01*
X325088Y110206D01*
X327034Y111012D01*
X328706Y112294D01*
X336342Y119931D01*
X451500D01*
X453588Y120206D01*
X455535Y121012D01*
X457206Y122294D01*
X458488Y123966D01*
X459294Y125912D01*
X459569Y128000D01*
X459294Y130088D01*
X458488Y132035D01*
X457206Y133706D01*
X455535Y134988D01*
X453588Y135794D01*
X451500Y136069D01*
D02*
G37*
G36*
X695000Y276098D02*
X693049Y275710D01*
X691395Y274605D01*
X690290Y272951D01*
X689902Y271000D01*
Y263000D01*
Y256000D01*
X689000D01*
Y236000D01*
X700230D01*
X701000Y236000D01*
X702270Y236000D01*
X704441D01*
Y230767D01*
X687837Y214163D01*
X687174Y213171D01*
X686941Y212000D01*
X686941Y212000D01*
Y147000D01*
X686941Y147000D01*
X687174Y145829D01*
X687837Y144837D01*
X732373Y100302D01*
Y98699D01*
X722837Y89163D01*
X707837Y74163D01*
X707837Y74163D01*
X705792Y72118D01*
X690059D01*
X688888Y71885D01*
X687896Y71222D01*
X687896Y71221D01*
X687431Y70757D01*
X687000Y70843D01*
X685147Y70474D01*
X683575Y69425D01*
X682526Y67853D01*
X682157Y66000D01*
X682526Y64147D01*
X683575Y62575D01*
X683945Y62329D01*
X683559Y61059D01*
X666441D01*
X666055Y62329D01*
X666424Y62575D01*
X667474Y64147D01*
X667843Y66000D01*
X667474Y67853D01*
X666424Y69425D01*
X664853Y70474D01*
X663000Y70843D01*
X661147Y70474D01*
X659575Y69425D01*
X658526Y67853D01*
X658157Y66000D01*
X658526Y64147D01*
X659575Y62575D01*
X659945Y62329D01*
X659559Y61059D01*
X646000D01*
X644829Y60826D01*
X643837Y60163D01*
X640837Y57163D01*
X640174Y56171D01*
X639941Y55000D01*
X639941Y55000D01*
Y-16000D01*
X639941Y-16000D01*
X640174Y-17171D01*
X640837Y-18163D01*
X645837Y-23163D01*
X646830Y-23826D01*
X648000Y-24059D01*
X648000Y-24059D01*
X694733D01*
X696941Y-26267D01*
Y-67733D01*
X692733Y-71941D01*
X676000D01*
X676000Y-71941D01*
X674829Y-72174D01*
X673837Y-72837D01*
X668837Y-77837D01*
X668174Y-78829D01*
X667941Y-80000D01*
X667941Y-80000D01*
Y-116368D01*
X667147Y-116526D01*
X665575Y-117576D01*
X664526Y-119147D01*
X664157Y-121000D01*
X664526Y-122853D01*
X665575Y-124425D01*
X667147Y-125474D01*
X669000Y-125843D01*
X670853Y-125474D01*
X672164Y-124599D01*
X673000Y-124495D01*
X673836Y-124599D01*
X675147Y-125474D01*
X677000Y-125843D01*
X678853Y-125474D01*
X680424Y-124425D01*
X681474Y-122853D01*
X681843Y-121000D01*
X681474Y-119147D01*
X680424Y-117576D01*
X678853Y-116526D01*
X678059Y-116368D01*
Y-83267D01*
X679267Y-82059D01*
X696000D01*
X696000Y-82059D01*
X697170Y-81826D01*
X698163Y-81163D01*
X706163Y-73163D01*
X706163Y-73163D01*
X706826Y-72171D01*
X707059Y-71000D01*
X707059Y-71000D01*
Y-23000D01*
X707059Y-23000D01*
X706826Y-21829D01*
X706163Y-20837D01*
X706163Y-20837D01*
X700163Y-14837D01*
X699171Y-14174D01*
X698000Y-13941D01*
X698000Y-13941D01*
X651267D01*
X650059Y-12733D01*
Y49733D01*
X650267Y49941D01*
X659559D01*
X659945Y48671D01*
X659575Y48425D01*
X658526Y46853D01*
X658157Y45000D01*
X658526Y43147D01*
X659575Y41575D01*
X660877Y40706D01*
X660979Y40239D01*
Y39761D01*
X660877Y39294D01*
X659575Y38425D01*
X658526Y36853D01*
X658157Y35000D01*
X658526Y33147D01*
X659575Y31576D01*
X660877Y30706D01*
X660979Y30239D01*
Y29761D01*
X660877Y29294D01*
X659575Y28425D01*
X658526Y26853D01*
X658157Y25000D01*
X658526Y23147D01*
X659575Y21575D01*
X660877Y20706D01*
X660979Y20239D01*
Y19761D01*
X660877Y19294D01*
X659575Y18425D01*
X658526Y16853D01*
X658157Y15000D01*
X658526Y13147D01*
X659575Y11575D01*
X661147Y10526D01*
X663000Y10157D01*
X664853Y10526D01*
X666424Y11575D01*
X666669Y11941D01*
X695000D01*
X695000Y11941D01*
X696171Y12174D01*
X697163Y12837D01*
X697569Y13243D01*
X698000Y13157D01*
X699853Y13526D01*
X700327Y13842D01*
X701243Y12926D01*
X700526Y11853D01*
X700157Y10000D01*
X700526Y8147D01*
X701575Y6575D01*
X703147Y5526D01*
X705000Y5157D01*
X706853Y5526D01*
X708425Y6575D01*
X709474Y8147D01*
X709843Y10000D01*
X709474Y11853D01*
X708425Y13425D01*
X706853Y14474D01*
X705000Y14843D01*
X703147Y14474D01*
X702673Y14158D01*
X701757Y15073D01*
X702474Y16147D01*
X702843Y18000D01*
X702474Y19853D01*
X701425Y21425D01*
X699853Y22474D01*
X698000Y22843D01*
X696147Y22474D01*
X694575Y21425D01*
X693526Y19853D01*
X693169Y18059D01*
X666669D01*
X666424Y18425D01*
X665123Y19294D01*
X665021Y19761D01*
Y20239D01*
X665123Y20706D01*
X666424Y21575D01*
X667474Y23147D01*
X667831Y24941D01*
X689000D01*
X689000Y24941D01*
X690171Y25174D01*
X691163Y25837D01*
X698267Y32941D01*
X726000D01*
X726000Y32941D01*
X727170Y33174D01*
X728163Y33837D01*
X729568Y35243D01*
X730000Y35157D01*
X730874Y35331D01*
X731886Y34472D01*
X731908Y33234D01*
X729837Y31163D01*
X729174Y30171D01*
X728941Y29000D01*
X728941Y29000D01*
Y25044D01*
X727768Y24558D01*
X727163Y25163D01*
X726171Y25826D01*
X725000Y26059D01*
X725000Y26059D01*
X717669D01*
X717424Y26425D01*
X715853Y27474D01*
X714000Y27843D01*
X712147Y27474D01*
X710575Y26425D01*
X709526Y24853D01*
X709157Y23000D01*
X709526Y21147D01*
X710575Y19575D01*
X712147Y18526D01*
X714000Y18157D01*
X715853Y18526D01*
X717424Y19575D01*
X717669Y19941D01*
X723733D01*
X723941Y19733D01*
Y-55733D01*
X718837Y-60837D01*
X718174Y-61830D01*
X717941Y-63000D01*
X717941Y-63000D01*
Y-63331D01*
X717576Y-63575D01*
X716526Y-65147D01*
X716157Y-67000D01*
X716526Y-68853D01*
X717576Y-70424D01*
X719147Y-71474D01*
X721000Y-71843D01*
X722853Y-71474D01*
X724425Y-70424D01*
X725575D01*
X727147Y-71474D01*
X729000Y-71843D01*
X730853Y-71474D01*
X732424Y-70424D01*
X733576D01*
X735147Y-71474D01*
X737000Y-71843D01*
X738853Y-71474D01*
X740424Y-70424D01*
X741575D01*
X743147Y-71474D01*
X745000Y-71843D01*
X746853Y-71474D01*
X748425Y-70424D01*
X749474Y-68853D01*
X749843Y-67000D01*
X749474Y-65147D01*
X748425Y-63575D01*
X748059Y-63331D01*
Y-62000D01*
X747826Y-60830D01*
X747163Y-59837D01*
X745059Y-57733D01*
Y-27441D01*
X746329Y-27055D01*
X746575Y-27425D01*
X748147Y-28474D01*
X750000Y-28843D01*
X751853Y-28474D01*
X752671Y-27928D01*
X753941Y-28607D01*
Y-58733D01*
X752837Y-59837D01*
X752174Y-60830D01*
X751941Y-62000D01*
X751941Y-62000D01*
Y-76000D01*
X751941Y-76000D01*
X752174Y-77171D01*
X752837Y-78163D01*
X756837Y-82163D01*
X756837Y-82163D01*
X757830Y-82826D01*
X759000Y-83059D01*
X759000Y-83059D01*
X772407D01*
X772941Y-83593D01*
Y-118000D01*
X772941Y-118000D01*
X773174Y-119171D01*
X773837Y-120163D01*
X775837Y-122163D01*
X776830Y-122826D01*
X778000Y-123059D01*
X826733D01*
X828941Y-125267D01*
Y-214000D01*
X828941Y-214000D01*
X829174Y-215170D01*
X829837Y-216163D01*
X833837Y-220163D01*
X833837Y-220163D01*
X834829Y-220826D01*
X836000Y-221059D01*
X847331D01*
X847575Y-221425D01*
X849147Y-222474D01*
X851000Y-222843D01*
X852853Y-222474D01*
X854425Y-221425D01*
X855474Y-219853D01*
X855843Y-218000D01*
X855474Y-216147D01*
X854425Y-214575D01*
X852853Y-213526D01*
X851000Y-213157D01*
X849147Y-213526D01*
X847575Y-214575D01*
X847331Y-214941D01*
X837267D01*
X835059Y-212733D01*
Y-181044D01*
X836232Y-180558D01*
X837837Y-182163D01*
X837837Y-182163D01*
X838829Y-182826D01*
X840000Y-183059D01*
X840000Y-183059D01*
X858733D01*
X859831Y-184157D01*
X859751Y-185458D01*
X859575Y-185575D01*
X858526Y-187147D01*
X858157Y-189000D01*
X858526Y-190853D01*
X859575Y-192425D01*
X861147Y-193474D01*
X863000Y-193843D01*
X864853Y-193474D01*
X866425Y-192425D01*
X867474Y-190853D01*
X867843Y-189000D01*
X867474Y-187147D01*
X866425Y-185575D01*
X866059Y-185331D01*
Y-183000D01*
X866059Y-183000D01*
X865826Y-181829D01*
X865163Y-180837D01*
X865163Y-180837D01*
X862163Y-177837D01*
X861171Y-177174D01*
X860000Y-176941D01*
X860000Y-176941D01*
X841267D01*
X840059Y-175733D01*
Y-168181D01*
X841329Y-167655D01*
X841837Y-168163D01*
X841837Y-168163D01*
X842830Y-168826D01*
X844000Y-169059D01*
X844000Y-169059D01*
X891331D01*
X891575Y-169425D01*
X893147Y-170474D01*
X895000Y-170843D01*
X896853Y-170474D01*
X898425Y-169425D01*
X899474Y-167853D01*
X899843Y-166000D01*
X899474Y-164147D01*
X898425Y-162575D01*
X896853Y-161526D01*
X895000Y-161157D01*
X893147Y-161526D01*
X891575Y-162575D01*
X891331Y-162941D01*
X846059D01*
Y-154317D01*
X847329Y-153691D01*
X847596Y-153896D01*
X849238Y-154576D01*
X851000Y-154808D01*
X852762Y-154576D01*
X854404Y-153896D01*
X855444Y-153098D01*
X890556D01*
X891596Y-153896D01*
X893238Y-154576D01*
X895000Y-154808D01*
X896762Y-154576D01*
X898404Y-153896D01*
X899814Y-152814D01*
X900896Y-151404D01*
X901576Y-149762D01*
X901808Y-148000D01*
X901576Y-146238D01*
X900896Y-144596D01*
X899814Y-143186D01*
X898404Y-142104D01*
X896762Y-141424D01*
X895000Y-141192D01*
X893238Y-141424D01*
X891596Y-142104D01*
X890556Y-142902D01*
X855444D01*
X854404Y-142104D01*
X852762Y-141424D01*
X851000Y-141192D01*
X849238Y-141424D01*
X847596Y-142104D01*
X846186Y-143186D01*
X845562Y-143999D01*
X844853Y-143526D01*
X843000Y-143157D01*
X841329Y-143489D01*
X840330Y-143089D01*
X840059Y-142944D01*
Y-93000D01*
X840059Y-93000D01*
X839826Y-91830D01*
X839163Y-90837D01*
X839163Y-90837D01*
X836163Y-87837D01*
X835171Y-87174D01*
X834000Y-86941D01*
X834000Y-86941D01*
X800267D01*
X799059Y-85733D01*
Y-56496D01*
X800326Y-55229D01*
X807829D01*
X807830Y-55229D01*
X809000Y-54997D01*
X809992Y-54333D01*
X812163Y-52163D01*
X812163Y-52163D01*
X812826Y-51171D01*
X813059Y-50000D01*
Y-15000D01*
X813059Y-15000D01*
X812826Y-13829D01*
X812163Y-12837D01*
X794163Y5163D01*
X793170Y5826D01*
X792000Y6059D01*
X792000Y6059D01*
X785593D01*
X784059Y7593D01*
Y21733D01*
X809267Y46941D01*
X812331D01*
X812575Y46575D01*
X814147Y45526D01*
X816000Y45157D01*
X817853Y45526D01*
X819425Y46575D01*
X820474Y48147D01*
X820843Y50000D01*
X820511Y51671D01*
X820911Y52670D01*
X821056Y52941D01*
X870000D01*
X870000Y52941D01*
X871171Y53174D01*
X871341Y53288D01*
X872000Y53157D01*
X873853Y53526D01*
X875425Y54576D01*
X876474Y56147D01*
X876843Y58000D01*
X876474Y59853D01*
X875425Y61425D01*
X873853Y62474D01*
X872000Y62843D01*
X870147Y62474D01*
X870056Y62414D01*
X868644Y62998D01*
X868474Y63853D01*
X868158Y64327D01*
X869073Y65243D01*
X870147Y64526D01*
X872000Y64157D01*
X873853Y64526D01*
X875425Y65575D01*
X876474Y67147D01*
X876843Y69000D01*
X876474Y70853D01*
X875425Y72425D01*
X873853Y73474D01*
X872000Y73843D01*
X870147Y73474D01*
X868576Y72425D01*
X867526Y70853D01*
X867157Y69000D01*
X867526Y67147D01*
X867842Y66673D01*
X866926Y65757D01*
X865853Y66474D01*
X864000Y66843D01*
X862147Y66474D01*
X860575Y65425D01*
X860331Y65059D01*
X847267D01*
X847059Y65267D01*
Y82000D01*
X846826Y83171D01*
X846163Y84163D01*
X846163Y84163D01*
X823093Y107232D01*
X823462Y108448D01*
X823853Y108526D01*
X825425Y109575D01*
X826474Y111147D01*
X826843Y113000D01*
X826474Y114853D01*
X825425Y116425D01*
X823853Y117474D01*
X822000Y117843D01*
X820147Y117474D01*
X818576Y116425D01*
X817526Y114853D01*
X817448Y114462D01*
X816232Y114093D01*
X780059Y150267D01*
Y154559D01*
X781329Y154945D01*
X781575Y154575D01*
X783147Y153526D01*
X785000Y153157D01*
X786853Y153526D01*
X788425Y154575D01*
X788669Y154941D01*
X795733D01*
X837837Y112837D01*
X837837Y112837D01*
X838829Y112174D01*
X840000Y111941D01*
X840000Y111941D01*
X874000D01*
X874000Y111941D01*
X875171Y112174D01*
X876163Y112837D01*
X878163Y114837D01*
X878826Y115829D01*
X879059Y117000D01*
Y125733D01*
X879267Y125941D01*
X916331D01*
X916575Y125575D01*
X918147Y124526D01*
X920000Y124157D01*
X921853Y124526D01*
X923425Y125575D01*
X924474Y127147D01*
X924843Y129000D01*
X924474Y130853D01*
X923425Y132425D01*
X921853Y133474D01*
X920000Y133843D01*
X918147Y133474D01*
X916575Y132425D01*
X916331Y132059D01*
X878000D01*
X876830Y131826D01*
X875837Y131163D01*
X873837Y129163D01*
X873174Y128170D01*
X872941Y127000D01*
X872941Y127000D01*
Y118267D01*
X872733Y118059D01*
X841267D01*
X799163Y160163D01*
X798170Y160826D01*
X797000Y161059D01*
X797000Y161059D01*
X788669D01*
X788425Y161425D01*
X786853Y162474D01*
X785000Y162843D01*
X783147Y162474D01*
X781575Y161425D01*
X781329Y161055D01*
X780059Y161441D01*
Y223000D01*
X780059Y223000D01*
X779826Y224170D01*
X779163Y225163D01*
X776757Y227569D01*
X776843Y228000D01*
X776474Y229853D01*
X775425Y231425D01*
X773853Y232474D01*
X772000Y232843D01*
X770147Y232474D01*
X768576Y231425D01*
X767526Y229853D01*
X767157Y228000D01*
X767526Y226147D01*
X768576Y224575D01*
X770147Y223526D01*
X772000Y223157D01*
X772431Y223243D01*
X773941Y221733D01*
Y207044D01*
X772768Y206558D01*
X766163Y213163D01*
X765171Y213826D01*
X764000Y214059D01*
X764000Y214059D01*
X748669D01*
X748425Y214425D01*
X746853Y215474D01*
X745000Y215843D01*
X743147Y215474D01*
X741575Y214425D01*
X740526Y212853D01*
X740157Y211000D01*
X740526Y209147D01*
X741575Y207575D01*
X743147Y206526D01*
X745000Y206157D01*
X746853Y206526D01*
X748425Y207575D01*
X748669Y207941D01*
X762733D01*
X768941Y201733D01*
Y176267D01*
X767843Y175169D01*
X766542Y175249D01*
X766425Y175425D01*
X764853Y176474D01*
X763000Y176843D01*
X761147Y176474D01*
X759575Y175425D01*
X758526Y173853D01*
X758157Y172000D01*
X758526Y170147D01*
X759575Y168575D01*
X760877Y167706D01*
X760979Y167239D01*
Y166761D01*
X760877Y166294D01*
X759575Y165425D01*
X758526Y163853D01*
X758157Y162000D01*
X758526Y160147D01*
X759575Y158575D01*
X761147Y157526D01*
X763000Y157157D01*
X764853Y157526D01*
X766425Y158575D01*
X766669Y158941D01*
X768733D01*
X768941Y158733D01*
Y145000D01*
X768941Y145000D01*
X769174Y143829D01*
X769837Y142837D01*
X816941Y95733D01*
Y90267D01*
X810431Y83757D01*
X810000Y83843D01*
X808147Y83474D01*
X806575Y82424D01*
X805526Y80853D01*
X805157Y79000D01*
X805526Y77147D01*
X806575Y75575D01*
X808147Y74526D01*
X810000Y74157D01*
X811853Y74526D01*
X813425Y75575D01*
X814474Y77147D01*
X814843Y79000D01*
X814757Y79431D01*
X822163Y86837D01*
X822163Y86837D01*
X822826Y87830D01*
X823059Y89000D01*
Y96819D01*
X823487Y97141D01*
X824274Y97400D01*
X840941Y80733D01*
Y64000D01*
X840941Y64000D01*
X841174Y62829D01*
X841837Y61837D01*
X843345Y60329D01*
X842819Y59059D01*
X838056D01*
X837911Y59331D01*
X837511Y60329D01*
X837843Y62000D01*
X837474Y63853D01*
X836425Y65425D01*
X834853Y66474D01*
X833000Y66843D01*
X831147Y66474D01*
X829576Y65425D01*
X829164Y64809D01*
X819660D01*
X818660Y66079D01*
X818843Y67000D01*
X818474Y68853D01*
X817425Y70424D01*
X815853Y71474D01*
X814000Y71843D01*
X812147Y71474D01*
X810575Y70424D01*
X810331Y70059D01*
X808267D01*
X799163Y79163D01*
X798170Y79826D01*
X797000Y80059D01*
X797000Y80059D01*
X784267D01*
X713059Y151267D01*
Y207733D01*
X713267Y207941D01*
X730000D01*
X730000Y207941D01*
X731171Y208174D01*
X732163Y208837D01*
X734663Y211337D01*
X734663Y211337D01*
X735326Y212330D01*
X735559Y213500D01*
Y236000D01*
X738500D01*
Y256000D01*
X727270D01*
X726500Y256000D01*
X725230Y256000D01*
X714770D01*
X714000Y256000D01*
X712730Y256000D01*
X700996Y256000D01*
X700098Y256898D01*
Y263000D01*
Y271000D01*
X699710Y272951D01*
X698605Y274605D01*
X696951Y275710D01*
X695000Y276098D01*
D02*
G37*
G36*
X650000Y252060D02*
X648173Y251820D01*
X646470Y251115D01*
X645007Y249992D01*
X643885Y248530D01*
X643180Y246827D01*
X642940Y245000D01*
Y235000D01*
Y128601D01*
X642886Y128530D01*
X642180Y126827D01*
X641940Y125000D01*
X642180Y123173D01*
X642886Y121470D01*
X644008Y120008D01*
X645470Y118885D01*
X647173Y118180D01*
X649000Y117940D01*
X656000D01*
X657827Y118180D01*
X659530Y118885D01*
X660993Y120008D01*
X662114Y121470D01*
X662820Y123173D01*
X663060Y125000D01*
X662820Y126827D01*
X662114Y128530D01*
X660993Y129993D01*
X659530Y131115D01*
X657827Y131820D01*
X657060Y131921D01*
Y235000D01*
Y245000D01*
X656820Y246827D01*
X656115Y248530D01*
X654992Y249992D01*
X653530Y251115D01*
X651827Y251820D01*
X650000Y252060D01*
D02*
G37*
G36*
X492000Y255808D02*
X490238Y255576D01*
X488596Y254896D01*
X487186Y253814D01*
X486104Y252404D01*
X485424Y250762D01*
X485192Y249000D01*
X485424Y247238D01*
X486104Y245596D01*
X487186Y244186D01*
X488596Y243104D01*
X490238Y242424D01*
X492000Y242192D01*
X493762Y242424D01*
X495404Y243104D01*
X496444Y243902D01*
X503902D01*
Y206104D01*
X502632Y205578D01*
X501605Y206605D01*
X499951Y207710D01*
X498000Y208098D01*
X496444D01*
X495404Y208896D01*
X493762Y209576D01*
X492000Y209808D01*
X490238Y209576D01*
X488596Y208896D01*
X487186Y207814D01*
X486104Y206404D01*
X485424Y204762D01*
X485192Y203000D01*
X485424Y201238D01*
X486104Y199596D01*
X487186Y198186D01*
X488596Y197104D01*
X490238Y196424D01*
X492000Y196192D01*
X493632Y196407D01*
X494054Y196320D01*
X494902Y195753D01*
Y164247D01*
X494054Y163680D01*
X493632Y163593D01*
X492000Y163808D01*
X490238Y163576D01*
X488596Y162896D01*
X487186Y161814D01*
X486104Y160404D01*
X485424Y158762D01*
X485192Y157000D01*
X485424Y155238D01*
X486104Y153596D01*
X486902Y152556D01*
Y122000D01*
X487290Y120049D01*
X488395Y118395D01*
X488662Y118128D01*
X488314Y116680D01*
X487186Y115814D01*
X486104Y114404D01*
X485424Y112762D01*
X485192Y111000D01*
X485424Y109238D01*
X486104Y107596D01*
X487186Y106186D01*
X488596Y105104D01*
X490238Y104424D01*
X492000Y104192D01*
X493762Y104424D01*
X495404Y105104D01*
X496444Y105902D01*
X552902D01*
Y67967D01*
X551729Y67481D01*
X550605Y68605D01*
X548951Y69710D01*
X547000Y70098D01*
X496444D01*
X495404Y70896D01*
X493762Y71576D01*
X492000Y71808D01*
X490238Y71576D01*
X488596Y70896D01*
X487186Y69814D01*
X486104Y68404D01*
X485424Y66762D01*
X485192Y65000D01*
X485424Y63238D01*
X486104Y61596D01*
X487186Y60186D01*
X488596Y59104D01*
X490238Y58424D01*
X492000Y58192D01*
X493762Y58424D01*
X495404Y59104D01*
X496444Y59902D01*
X544888D01*
X544902Y59888D01*
Y21967D01*
X543729Y21481D01*
X542605Y22605D01*
X540951Y23710D01*
X539000Y24098D01*
X496444D01*
X495404Y24896D01*
X493762Y25576D01*
X492000Y25808D01*
X490238Y25576D01*
X488596Y24896D01*
X487186Y23814D01*
X486104Y22404D01*
X485424Y20762D01*
X485192Y19000D01*
X485424Y17238D01*
X486104Y15596D01*
X487186Y14186D01*
X488596Y13104D01*
X490238Y12424D01*
X492000Y12192D01*
X493762Y12424D01*
X495404Y13104D01*
X496444Y13902D01*
X536888D01*
X536902Y13888D01*
Y-22896D01*
X535632Y-23423D01*
X535605Y-23395D01*
X533951Y-22290D01*
X532000Y-21902D01*
X496444D01*
X495404Y-21104D01*
X493762Y-20424D01*
X492000Y-20192D01*
X490238Y-20424D01*
X488596Y-21104D01*
X487186Y-22186D01*
X486104Y-23596D01*
X485424Y-25238D01*
X485192Y-27000D01*
X485424Y-28762D01*
X486104Y-30404D01*
X487186Y-31814D01*
X488596Y-32896D01*
X490238Y-33576D01*
X492000Y-33808D01*
X493762Y-33576D01*
X495404Y-32896D01*
X496444Y-32098D01*
X528843D01*
Y-34000D01*
X529231Y-35951D01*
X530336Y-37605D01*
X532337Y-39605D01*
X533990Y-40710D01*
X535255Y-40961D01*
X535523Y-42310D01*
X535395Y-42395D01*
X530395Y-47395D01*
X529290Y-49049D01*
X528902Y-51000D01*
Y-67902D01*
X496444D01*
X495404Y-67104D01*
X493762Y-66424D01*
X492000Y-66192D01*
X490238Y-66424D01*
X488596Y-67104D01*
X487186Y-68186D01*
X486104Y-69596D01*
X485424Y-71238D01*
X485192Y-73000D01*
X485424Y-74762D01*
X486104Y-76404D01*
X487186Y-77814D01*
X488596Y-78896D01*
X490238Y-79576D01*
X492000Y-79808D01*
X493762Y-79576D01*
X495404Y-78896D01*
X496444Y-78098D01*
X532000D01*
X533951Y-77710D01*
X535605Y-76605D01*
X537605Y-74605D01*
X538710Y-72951D01*
X539098Y-71000D01*
Y-53112D01*
X541112Y-51098D01*
X587653D01*
X588279Y-52368D01*
X588104Y-52596D01*
X587424Y-54238D01*
X587192Y-56000D01*
X587424Y-57762D01*
X588104Y-59404D01*
X589186Y-60814D01*
X590596Y-61896D01*
X592238Y-62576D01*
X592712Y-62639D01*
X593512Y-64025D01*
X593424Y-64238D01*
X593192Y-66000D01*
X593424Y-67762D01*
X594104Y-69404D01*
X595186Y-70814D01*
X596596Y-71896D01*
X598238Y-72576D01*
X600000Y-72808D01*
X601762Y-72576D01*
X603404Y-71896D01*
X604814Y-70814D01*
X605896Y-69404D01*
X606576Y-67762D01*
X606808Y-66000D01*
X606576Y-64238D01*
X605896Y-62596D01*
X604814Y-61186D01*
X603404Y-60104D01*
X601762Y-59424D01*
X601288Y-59361D01*
X600488Y-57975D01*
X600576Y-57762D01*
X600808Y-56000D01*
X600576Y-54238D01*
X600488Y-54025D01*
X601288Y-52639D01*
X601762Y-52576D01*
X603404Y-51896D01*
X604814Y-50814D01*
X605896Y-49404D01*
X606576Y-47762D01*
X606808Y-46000D01*
X606576Y-44238D01*
X605896Y-42596D01*
X604814Y-41186D01*
X603404Y-40104D01*
X601762Y-39424D01*
X601288Y-39361D01*
X600488Y-37975D01*
X600576Y-37762D01*
X600808Y-36000D01*
X600576Y-34238D01*
X600488Y-34025D01*
X601288Y-32639D01*
X601762Y-32576D01*
X603404Y-31896D01*
X604814Y-30814D01*
X605896Y-29404D01*
X606576Y-27762D01*
X606808Y-26000D01*
X606576Y-24238D01*
X605896Y-22596D01*
X604814Y-21186D01*
X603404Y-20104D01*
X601762Y-19424D01*
X601288Y-19361D01*
X600488Y-17975D01*
X600576Y-17762D01*
X600808Y-16000D01*
X600576Y-14238D01*
X600488Y-14025D01*
X601288Y-12639D01*
X601762Y-12576D01*
X603404Y-11896D01*
X604814Y-10814D01*
X605896Y-9404D01*
X606576Y-7762D01*
X606808Y-6000D01*
X606576Y-4238D01*
X605896Y-2596D01*
X604814Y-1186D01*
X603404Y-104D01*
X601762Y576D01*
X601288Y639D01*
X600488Y2025D01*
X600576Y2238D01*
X600808Y4000D01*
X600576Y5762D01*
X600488Y5975D01*
X601288Y7361D01*
X601762Y7424D01*
X603404Y8104D01*
X604814Y9186D01*
X605896Y10596D01*
X606576Y12238D01*
X606808Y14000D01*
X606576Y15762D01*
X605896Y17404D01*
X604814Y18814D01*
X603404Y19896D01*
X601762Y20576D01*
X601288Y20639D01*
X600488Y22025D01*
X600576Y22238D01*
X600808Y24000D01*
X600576Y25762D01*
X599896Y27404D01*
X598814Y28814D01*
X597404Y29896D01*
X595762Y30576D01*
X594000Y30808D01*
X592238Y30576D01*
X590596Y29896D01*
X589556Y29098D01*
X587098D01*
Y133000D01*
X586710Y134951D01*
X585605Y136605D01*
X582605Y139605D01*
X580951Y140710D01*
X579000Y141098D01*
X514098D01*
Y247000D01*
X513710Y248951D01*
X512605Y250605D01*
X510605Y252605D01*
X508951Y253710D01*
X507000Y254098D01*
X496444D01*
X495404Y254896D01*
X493762Y255576D01*
X492000Y255808D01*
D02*
G37*
G36*
X868000Y264843D02*
X866147Y264474D01*
X864575Y263424D01*
X863526Y261853D01*
X863157Y260000D01*
X863526Y258147D01*
X864575Y256575D01*
X866147Y255526D01*
X868000Y255157D01*
X869853Y255526D01*
X871424Y256575D01*
X872474Y258147D01*
X872843Y260000D01*
X872474Y261853D01*
X871424Y263424D01*
X869853Y264474D01*
X868000Y264843D01*
D02*
G37*
G36*
X451500Y274069D02*
X333000D01*
X330912Y273794D01*
X328965Y272988D01*
X327294Y271706D01*
X317294Y261706D01*
X316012Y260035D01*
X315206Y258088D01*
X314931Y256000D01*
X315206Y253912D01*
X316012Y251966D01*
X317294Y250294D01*
X318965Y249012D01*
X320912Y248206D01*
X323000Y247931D01*
X325088Y248206D01*
X327034Y249012D01*
X328706Y250294D01*
X336342Y257931D01*
X451500D01*
X453588Y258206D01*
X455535Y259012D01*
X457206Y260294D01*
X458488Y261966D01*
X459294Y263912D01*
X459569Y266000D01*
X459294Y268088D01*
X458488Y270035D01*
X457206Y271706D01*
X455535Y272988D01*
X453588Y273794D01*
X451500Y274069D01*
D02*
G37*
G36*
X720000Y276098D02*
X718049Y275710D01*
X716395Y274605D01*
X715290Y272951D01*
X714902Y271000D01*
Y263000D01*
X715290Y261049D01*
X716395Y259395D01*
X718049Y258290D01*
X720000Y257902D01*
X721951Y258290D01*
X723605Y259395D01*
X724710Y261049D01*
X725098Y263000D01*
Y271000D01*
X724710Y272951D01*
X723605Y274605D01*
X721951Y275710D01*
X720000Y276098D01*
D02*
G37*
G36*
X970000Y285808D02*
X968238Y285576D01*
X966596Y284896D01*
X965186Y283814D01*
X964104Y282404D01*
X963424Y280762D01*
X963192Y279000D01*
X963424Y277238D01*
X964104Y275596D01*
X964561Y275000D01*
X964104Y274404D01*
X963424Y272762D01*
X963192Y271000D01*
X963424Y269238D01*
X964104Y267596D01*
X965186Y266186D01*
X966277Y265348D01*
X965890Y264078D01*
X945000D01*
X945000Y264078D01*
X943439Y263768D01*
X942116Y262884D01*
X942116Y262884D01*
X938368Y259135D01*
X937098Y259662D01*
Y275000D01*
X936710Y276951D01*
X935605Y278605D01*
X933951Y279710D01*
X932000Y280098D01*
X924000D01*
X922049Y279710D01*
X920395Y278605D01*
X919290Y276951D01*
X918902Y275000D01*
X919290Y273049D01*
X920395Y271395D01*
X922049Y270290D01*
X924000Y269902D01*
X926902D01*
Y211112D01*
X925888Y210098D01*
X905000D01*
X903049Y209710D01*
X901395Y208605D01*
X896395Y203605D01*
X895290Y201951D01*
X894902Y200000D01*
Y187112D01*
X892888Y185098D01*
X868000D01*
X866049Y184710D01*
X864395Y183605D01*
X859395Y178605D01*
X858290Y176951D01*
X857902Y175000D01*
Y169000D01*
Y162000D01*
X858290Y160049D01*
X859395Y158395D01*
X861049Y157290D01*
X863000Y156902D01*
X864951Y157290D01*
X866605Y158395D01*
X867710Y160049D01*
X868098Y162000D01*
Y172888D01*
X870112Y174902D01*
X895000D01*
X896951Y175290D01*
X898605Y176395D01*
X903605Y181395D01*
X904710Y183049D01*
X905098Y185000D01*
Y197888D01*
X907112Y199902D01*
X928000D01*
X929951Y200290D01*
X931605Y201395D01*
X934652Y204442D01*
X935922Y203916D01*
X935921Y110457D01*
X935294Y110093D01*
X934651Y109939D01*
X933404Y110896D01*
X931762Y111576D01*
X930000Y111808D01*
X928238Y111576D01*
X926596Y110896D01*
X925186Y109814D01*
X924104Y108404D01*
X923424Y106762D01*
X923192Y105000D01*
X923424Y103238D01*
X924104Y101596D01*
X925186Y100186D01*
Y99814D01*
X924104Y98404D01*
X923424Y96762D01*
X923192Y95000D01*
X923424Y93238D01*
X924104Y91596D01*
X924592Y90960D01*
X925089Y90000D01*
X924592Y89040D01*
X924104Y88404D01*
X923424Y86762D01*
X923192Y85000D01*
X923424Y83238D01*
X924104Y81596D01*
X925186Y80186D01*
X926596Y79104D01*
X928238Y78424D01*
X930000Y78192D01*
X931762Y78424D01*
X931929Y78493D01*
X932648Y77416D01*
X932117Y76884D01*
X932116Y76884D01*
X931233Y75561D01*
X930922Y74001D01*
X930922Y74000D01*
X930923Y-66001D01*
X931087Y-66829D01*
X931233Y-67562D01*
X931233Y-67562D01*
X931233Y-67562D01*
X931711Y-68277D01*
X932117Y-68885D01*
X937116Y-73884D01*
X937116Y-73884D01*
X938075Y-74525D01*
X938439Y-74768D01*
X938439D01*
X938439Y-74768D01*
X939125Y-74904D01*
X939401Y-75276D01*
X939765Y-76321D01*
X939765Y-76321D01*
X939106Y-77912D01*
X939007Y-78664D01*
X938853Y-78726D01*
X938439Y-78809D01*
X938122Y-79021D01*
X937768Y-79163D01*
X937467Y-79458D01*
X937116Y-79693D01*
X936904Y-80010D01*
X936632Y-80277D01*
X936467Y-80665D01*
X936232Y-81016D01*
X936158Y-81390D01*
X936008Y-81741D01*
X936004Y-82163D01*
X935922Y-82577D01*
X935922Y-155000D01*
Y-255000D01*
X935922Y-255000D01*
X936232Y-256561D01*
X937116Y-257884D01*
X942116Y-262884D01*
X943439Y-263768D01*
X945000Y-264078D01*
X945000Y-264078D01*
X1100000Y-264078D01*
X1100000Y-264078D01*
X1101561Y-263768D01*
X1102884Y-262884D01*
X1102884Y-262883D01*
X1107884Y-257884D01*
X1107884Y-257884D01*
X1108768Y-256561D01*
X1109079Y-255000D01*
X1109079Y-255000D01*
X1109078Y-211791D01*
X1110348Y-211581D01*
X1111790Y-215827D01*
X1114183Y-220679D01*
X1117188Y-225177D01*
X1120755Y-229245D01*
X1124822Y-232812D01*
X1129321Y-235818D01*
X1134173Y-238210D01*
X1139296Y-239949D01*
X1144602Y-241005D01*
X1150000Y-241359D01*
X1155398Y-241005D01*
X1160704Y-239949D01*
X1165827Y-238210D01*
X1170679Y-235818D01*
X1175178Y-232812D01*
X1179245Y-229245D01*
X1182812Y-225177D01*
X1185818Y-220679D01*
X1188210Y-215827D01*
X1189652Y-211581D01*
X1190922Y-211791D01*
Y-255000D01*
X1190922Y-255000D01*
X1191232Y-256561D01*
X1192116Y-257884D01*
X1197116Y-262884D01*
X1198439Y-263768D01*
X1200000Y-264078D01*
X1200000Y-264078D01*
X1359999Y-264079D01*
X1360000Y-264079D01*
X1361560Y-263768D01*
X1362883Y-262884D01*
X1362883Y-262884D01*
X1367884Y-257884D01*
X1367884Y-257884D01*
X1368472Y-257004D01*
X1368768Y-256561D01*
X1369078Y-255000D01*
X1369078Y-255000D01*
X1369078Y-155000D01*
X1369078Y-155000D01*
X1369078Y-155000D01*
X1368768Y-153440D01*
X1368768Y-153440D01*
X1368768Y-153439D01*
X1368153Y-152520D01*
X1367884Y-152116D01*
X1367883Y-152116D01*
X1367883Y-152116D01*
X1363863Y-148096D01*
X1363884Y-147884D01*
X1363884Y-147884D01*
X1368884Y-142884D01*
X1368884Y-142884D01*
X1369768Y-141561D01*
X1370078Y-140000D01*
X1370078Y-140000D01*
X1370078Y77000D01*
X1369908Y77853D01*
X1369768Y78560D01*
X1369768Y78560D01*
X1369768Y78561D01*
X1369176Y79446D01*
X1368884Y79883D01*
X1368884Y79884D01*
X1368884Y79884D01*
X1363884Y84883D01*
X1363884Y84884D01*
X1363884Y84884D01*
X1363226Y85323D01*
X1362561Y85768D01*
X1362561Y85768D01*
X1362561Y85768D01*
X1361958Y85888D01*
X1361001Y86078D01*
X1361001Y86078D01*
X1361000Y86078D01*
X1274000Y86078D01*
X1274000Y86078D01*
X1272439Y85768D01*
X1272439Y85768D01*
X1272439Y85768D01*
X1271116Y84884D01*
X1271116Y84884D01*
X1267000Y80768D01*
X1262884Y84883D01*
X1262884Y84883D01*
X1261561Y85768D01*
X1260000Y86078D01*
X1260000Y86078D01*
X1060000Y86078D01*
Y87250D01*
X944960D01*
X943605Y88605D01*
X941951Y89710D01*
X941502Y89799D01*
X941234Y91147D01*
X941605Y91395D01*
X942961Y92752D01*
X1059998D01*
Y95574D01*
X1062885Y98460D01*
X1063769Y99783D01*
X1064080Y101344D01*
X1064079Y101344D01*
X1064079Y255000D01*
X1064079Y255000D01*
X1063768Y256561D01*
X1062884Y257884D01*
X1057884Y262884D01*
X1057883Y262884D01*
X1056560Y263768D01*
X1056560Y263768D01*
X1056560Y263768D01*
X1054999Y264078D01*
X1054999Y264078D01*
X974110Y264078D01*
X973723Y265348D01*
X974814Y266186D01*
X975896Y267596D01*
X976576Y269238D01*
X976808Y271000D01*
X976576Y272762D01*
X975896Y274404D01*
X975439Y275000D01*
X975896Y275596D01*
X976576Y277238D01*
X976808Y279000D01*
X976576Y280762D01*
X975896Y282404D01*
X974814Y283814D01*
X973404Y284896D01*
X971762Y285576D01*
X970000Y285808D01*
D02*
G37*
G36*
X1355000Y264078D02*
X1355000Y264078D01*
X1245000D01*
X1245000Y264078D01*
X1243439Y263768D01*
X1242116Y262884D01*
X1237116Y257884D01*
X1236232Y256561D01*
X1235922Y255000D01*
X1235922Y255000D01*
Y145000D01*
X1235922Y145000D01*
X1236232Y143439D01*
X1237116Y142116D01*
X1242116Y137116D01*
X1243439Y136232D01*
X1245000Y135922D01*
X1245000Y135922D01*
X1355000D01*
X1355000Y135922D01*
X1356561Y136232D01*
X1357884Y137116D01*
X1362884Y142116D01*
X1363768Y143439D01*
X1364078Y145000D01*
X1364078Y145000D01*
Y255000D01*
X1364078Y255000D01*
X1363768Y256561D01*
X1362884Y257884D01*
X1357884Y262884D01*
X1356561Y263768D01*
X1356302Y263819D01*
X1355000Y264078D01*
D02*
G37*
G36*
X598500Y259569D02*
X591500D01*
X590134Y259297D01*
X588977Y258523D01*
X588203Y257366D01*
X587931Y256000D01*
Y249000D01*
X588203Y247634D01*
X588977Y246477D01*
X590134Y245703D01*
X591500Y245431D01*
X598500D01*
X599866Y245703D01*
X601023Y246477D01*
X601797Y247634D01*
X602069Y249000D01*
Y256000D01*
X601797Y257366D01*
X601023Y258523D01*
X599866Y259297D01*
X598500Y259569D01*
D02*
G37*
G36*
X305000Y278069D02*
X302912Y277794D01*
X300965Y276988D01*
X299294Y275706D01*
X298012Y274035D01*
X297206Y272088D01*
X297113Y271385D01*
X292364Y266636D01*
X291322Y265278D01*
X290667Y263697D01*
X290444Y262000D01*
Y213198D01*
X289174Y212989D01*
X288210Y215827D01*
X285818Y220679D01*
X282812Y225177D01*
X279245Y229245D01*
X275177Y232812D01*
X270679Y235818D01*
X265827Y238210D01*
X260704Y239949D01*
X255398Y241005D01*
X250000Y241359D01*
X244602Y241005D01*
X239296Y239949D01*
X234173Y238210D01*
X229321Y235818D01*
X224823Y232812D01*
X220755Y229245D01*
X217188Y225177D01*
X214182Y220679D01*
X211790Y215827D01*
X210051Y210704D01*
X208995Y205398D01*
X208641Y200000D01*
X208995Y194602D01*
X210051Y189296D01*
X211790Y184173D01*
X214182Y179321D01*
X217188Y174823D01*
X220755Y170755D01*
X224823Y167188D01*
X229321Y164182D01*
X234173Y161790D01*
X239296Y160051D01*
X244602Y158995D01*
X250000Y158642D01*
X255398Y158995D01*
X260704Y160051D01*
X265827Y161790D01*
X270679Y164182D01*
X275177Y167188D01*
X279245Y170755D01*
X282812Y174823D01*
X285818Y179321D01*
X288210Y184173D01*
X289174Y187012D01*
X290444Y186802D01*
Y162716D01*
X255364Y127636D01*
X254322Y126278D01*
X253667Y124697D01*
X253444Y123000D01*
Y85716D01*
X249284Y81556D01*
X217597D01*
X217034Y81988D01*
X215088Y82794D01*
X213000Y83069D01*
X210912Y82794D01*
X208965Y81988D01*
X207294Y80706D01*
X206012Y79035D01*
X205206Y77088D01*
X204931Y75000D01*
X205206Y72912D01*
X206012Y70965D01*
X207294Y69294D01*
X208965Y68012D01*
X210912Y67206D01*
X213000Y66931D01*
X215088Y67206D01*
X217034Y68012D01*
X217597Y68444D01*
X252000D01*
X253697Y68667D01*
X255278Y69322D01*
X256636Y70364D01*
X264636Y78364D01*
X265678Y79722D01*
X266333Y81303D01*
X266556Y83000D01*
Y120284D01*
X301636Y155364D01*
X302174Y156065D01*
X303444Y155634D01*
Y144716D01*
X275364Y116636D01*
X274322Y115278D01*
X273667Y113697D01*
X273444Y112000D01*
Y58716D01*
X266284Y51556D01*
X217597D01*
X217034Y51988D01*
X215088Y52794D01*
X213000Y53069D01*
X210912Y52794D01*
X208965Y51988D01*
X207294Y50706D01*
X206012Y49035D01*
X205206Y47088D01*
X204931Y45000D01*
X205206Y42912D01*
X206012Y40965D01*
X207294Y39294D01*
X208965Y38012D01*
X210912Y37206D01*
X213000Y36931D01*
X215088Y37206D01*
X217034Y38012D01*
X217597Y38444D01*
X269000D01*
X270697Y38667D01*
X272278Y39322D01*
X273636Y40364D01*
X284636Y51364D01*
X285678Y52722D01*
X286333Y54303D01*
X286556Y56000D01*
Y109284D01*
X314636Y137364D01*
X315678Y138722D01*
X316333Y140303D01*
X316556Y142000D01*
Y157260D01*
X317826Y157886D01*
X318965Y157012D01*
X320912Y156206D01*
X323000Y155931D01*
X325088Y156206D01*
X327034Y157012D01*
X328706Y158294D01*
X336342Y165931D01*
X451500D01*
X453588Y166206D01*
X455535Y167012D01*
X457206Y168294D01*
X458488Y169965D01*
X459294Y171912D01*
X459569Y174000D01*
X459294Y176088D01*
X458488Y178034D01*
X457206Y179706D01*
X455535Y180988D01*
X453588Y181794D01*
X451500Y182069D01*
X333000D01*
X330912Y181794D01*
X328965Y180988D01*
X327294Y179706D01*
X324506Y176917D01*
X324083Y177057D01*
X323369Y177576D01*
X323556Y179000D01*
Y184403D01*
X323988Y184965D01*
X324794Y186912D01*
X325069Y189000D01*
X324794Y191088D01*
X323988Y193034D01*
X322706Y194706D01*
X321035Y195988D01*
X319088Y196794D01*
X317000Y197069D01*
X314912Y196794D01*
X312966Y195988D01*
X311294Y194706D01*
X310012Y193034D01*
X309206Y191088D01*
X308931Y189000D01*
X309206Y186912D01*
X310012Y184965D01*
X310444Y184403D01*
Y181716D01*
X305364Y176636D01*
X304826Y175935D01*
X303556Y176366D01*
Y259284D01*
X306385Y262113D01*
X307088Y262206D01*
X309035Y263012D01*
X310706Y264294D01*
X311988Y265965D01*
X312794Y267912D01*
X313069Y270000D01*
X312794Y272088D01*
X311988Y274035D01*
X310706Y275706D01*
X309035Y276988D01*
X307088Y277794D01*
X305000Y278069D01*
D02*
G37*
G36*
X856000Y241843D02*
X854147Y241474D01*
X852575Y240425D01*
X851526Y238853D01*
X851157Y237000D01*
X851526Y235147D01*
X852575Y233575D01*
X852941Y233331D01*
Y230000D01*
X852941Y230000D01*
X853174Y228829D01*
X853837Y227837D01*
X855837Y225837D01*
X856830Y225174D01*
X858000Y224941D01*
X863573D01*
X863954Y224537D01*
X864575Y223424D01*
X863526Y221853D01*
X863157Y220000D01*
X863526Y218147D01*
X864575Y216575D01*
X866147Y215526D01*
X868000Y215157D01*
X869853Y215526D01*
X871424Y216575D01*
X871772D01*
X872941Y215457D01*
Y213267D01*
X872733Y213059D01*
X852000D01*
X850829Y212826D01*
X849837Y212163D01*
X847837Y210163D01*
X847174Y209170D01*
X846941Y208000D01*
X846941Y208000D01*
Y131000D01*
X846941Y131000D01*
X847174Y129830D01*
X847837Y128837D01*
X849243Y127431D01*
X849157Y127000D01*
X849526Y125147D01*
X850575Y123575D01*
X852147Y122526D01*
X854000Y122157D01*
X855853Y122526D01*
X857424Y123575D01*
X858474Y125147D01*
X858843Y127000D01*
X858474Y128853D01*
X857424Y130425D01*
X855853Y131474D01*
X854000Y131843D01*
X853059Y132828D01*
Y206733D01*
X853267Y206941D01*
X874000D01*
X874000Y206941D01*
X875171Y207174D01*
X876163Y207837D01*
X878163Y209837D01*
X878826Y210830D01*
X879059Y212000D01*
Y216331D01*
X879425Y216575D01*
X880474Y218147D01*
X880843Y220000D01*
X880474Y221853D01*
X879425Y223424D01*
X877853Y224474D01*
X876000Y224843D01*
X874147Y224474D01*
X872576Y223424D01*
X872227D01*
X871059Y224543D01*
Y226000D01*
X870826Y227171D01*
X870163Y228163D01*
X868163Y230163D01*
X867170Y230826D01*
X866000Y231059D01*
X866000Y231059D01*
X859267D01*
X859059Y231267D01*
Y233331D01*
X859425Y233575D01*
X860474Y235147D01*
X860843Y237000D01*
X860474Y238853D01*
X859425Y240425D01*
X857853Y241474D01*
X856000Y241843D01*
D02*
G37*
G36*
X562000Y233843D02*
X560147Y233474D01*
X558575Y232425D01*
X557526Y230853D01*
X557157Y229000D01*
X557526Y227147D01*
X557922Y226554D01*
Y223446D01*
X557526Y222853D01*
X557157Y221000D01*
X557526Y219147D01*
X558575Y217575D01*
X560147Y216526D01*
X562000Y216157D01*
X563853Y216526D01*
X565424Y217575D01*
X566474Y219147D01*
X566843Y221000D01*
X566474Y222853D01*
X566078Y223446D01*
Y226554D01*
X566474Y227147D01*
X566843Y229000D01*
X566474Y230853D01*
X565424Y232425D01*
X563853Y233474D01*
X562000Y233843D01*
D02*
G37*
G36*
X578500Y259569D02*
X571500D01*
X570134Y259297D01*
X568977Y258523D01*
X568203Y257366D01*
X567931Y256000D01*
Y249000D01*
X568203Y247634D01*
X568977Y246477D01*
X570134Y245703D01*
X571500Y245431D01*
X578500D01*
X579866Y245703D01*
X581023Y246477D01*
X581797Y247634D01*
X582069Y249000D01*
Y256000D01*
X581797Y257366D01*
X581023Y258523D01*
X579866Y259297D01*
X578500Y259569D01*
D02*
G37*
G36*
X781000Y257843D02*
X779147Y257474D01*
X777575Y256425D01*
X776526Y254853D01*
X776157Y253000D01*
X776526Y251147D01*
X777575Y249576D01*
Y248424D01*
X776526Y246853D01*
X776157Y245000D01*
X776526Y243147D01*
X777575Y241576D01*
Y240424D01*
X776526Y238853D01*
X776157Y237000D01*
X776526Y235147D01*
X777575Y233575D01*
X779147Y232526D01*
X781000Y232157D01*
X782853Y232526D01*
X784425Y233575D01*
X785474Y235147D01*
X785843Y237000D01*
X785474Y238853D01*
X784425Y240424D01*
Y241576D01*
X785474Y243147D01*
X785843Y245000D01*
X785474Y246853D01*
X784425Y248424D01*
Y249576D01*
X785474Y251147D01*
X785843Y253000D01*
X785474Y254853D01*
X784425Y256425D01*
X782853Y257474D01*
X781000Y257843D01*
D02*
G37*
G36*
X669000Y239843D02*
X667147Y239474D01*
X665575Y238425D01*
X664526Y236853D01*
X664157Y235000D01*
X664526Y233147D01*
X665575Y231576D01*
X665941Y231331D01*
Y99000D01*
X665941Y99000D01*
X666174Y97830D01*
X666837Y96837D01*
X667243Y96432D01*
X667157Y96000D01*
X667526Y94147D01*
X668575Y92576D01*
X670147Y91526D01*
X672000Y91157D01*
X673853Y91526D01*
X675425Y92576D01*
X676474Y94147D01*
X676843Y96000D01*
X676474Y97853D01*
X675425Y99425D01*
X673853Y100474D01*
X672059Y100831D01*
Y231331D01*
X672425Y231576D01*
X673474Y233147D01*
X673843Y235000D01*
X673474Y236853D01*
X672425Y238425D01*
X670853Y239474D01*
X669000Y239843D01*
D02*
G37*
G36*
X912000Y43808D02*
X910238Y43576D01*
X908596Y42896D01*
X907186Y41814D01*
X906814D01*
X905404Y42896D01*
X903762Y43576D01*
X902000Y43808D01*
X900238Y43576D01*
X898596Y42896D01*
X897186Y41814D01*
X896104Y40404D01*
X895424Y38762D01*
X895192Y37000D01*
X895424Y35238D01*
X896104Y33596D01*
X897186Y32186D01*
X898596Y31104D01*
X900238Y30424D01*
X902000Y30192D01*
X903762Y30424D01*
X905404Y31104D01*
X906814Y32186D01*
X907186D01*
X908596Y31104D01*
X910238Y30424D01*
X912000Y30192D01*
X913762Y30424D01*
X915404Y31104D01*
X916814Y32186D01*
X917896Y33596D01*
X918576Y35238D01*
X918808Y37000D01*
X918576Y38762D01*
X917896Y40404D01*
X916814Y41814D01*
X915404Y42896D01*
X913762Y43576D01*
X912000Y43808D01*
D02*
G37*
G36*
X913000Y2843D02*
X911147Y2474D01*
X909836Y1599D01*
X909000Y1496D01*
X908164Y1599D01*
X906853Y2474D01*
X905000Y2843D01*
X903147Y2474D01*
X901575Y1425D01*
X900526Y-147D01*
X900157Y-2000D01*
X900526Y-3853D01*
X901575Y-5425D01*
X903147Y-6474D01*
X905000Y-6843D01*
X906853Y-6474D01*
X908425Y-5425D01*
X909576D01*
X911147Y-6474D01*
X913000Y-6843D01*
X914853Y-6474D01*
X916425Y-5425D01*
X917474Y-3853D01*
X917843Y-2000D01*
X917474Y-147D01*
X916425Y1425D01*
X914853Y2474D01*
X913000Y2843D01*
D02*
G37*
G36*
X663000Y8843D02*
X661147Y8474D01*
X659575Y7424D01*
X658526Y5853D01*
X658157Y4000D01*
X658526Y2147D01*
X659575Y575D01*
X661147Y-474D01*
X663000Y-843D01*
X664853Y-474D01*
X666424Y575D01*
X667474Y2147D01*
X667843Y4000D01*
X667474Y5853D01*
X666424Y7424D01*
X664853Y8474D01*
X663000Y8843D01*
D02*
G37*
G36*
X451500Y44069D02*
X333000D01*
X330912Y43794D01*
X328965Y42988D01*
X327294Y41706D01*
X317294Y31706D01*
X316012Y30034D01*
X315206Y28088D01*
X314931Y26000D01*
X315206Y23912D01*
X316012Y21965D01*
X317294Y20294D01*
X318965Y19012D01*
X320912Y18206D01*
X323000Y17931D01*
X325088Y18206D01*
X327034Y19012D01*
X328706Y20294D01*
X336342Y27931D01*
X451500D01*
X453588Y28206D01*
X455535Y29012D01*
X457206Y30294D01*
X458488Y31965D01*
X459294Y33912D01*
X459569Y36000D01*
X459294Y38088D01*
X458488Y40034D01*
X457206Y41706D01*
X455535Y42988D01*
X453588Y43794D01*
X451500Y44069D01*
D02*
G37*
G36*
X801000Y28843D02*
X799147Y28474D01*
X797575Y27425D01*
X796526Y25853D01*
X796157Y24000D01*
X796445Y22553D01*
X796340Y22361D01*
X795639Y21660D01*
X795447Y21555D01*
X794000Y21843D01*
X792147Y21474D01*
X790575Y20424D01*
X789526Y18853D01*
X789157Y17000D01*
X789526Y15147D01*
X790575Y13575D01*
X792147Y12526D01*
X794000Y12157D01*
X795853Y12526D01*
X797425Y13575D01*
X797669Y13941D01*
X799557D01*
X809466Y4032D01*
X809048Y2654D01*
X808147Y2474D01*
X806575Y1425D01*
X805526Y-147D01*
X805157Y-2000D01*
X805526Y-3853D01*
X806575Y-5425D01*
X808147Y-6474D01*
X810000Y-6843D01*
X811853Y-6474D01*
X813425Y-5425D01*
X814474Y-3853D01*
X815858Y-3409D01*
X815941Y-3443D01*
Y-51000D01*
X815941Y-51000D01*
X816174Y-52171D01*
X816837Y-53163D01*
X818837Y-55163D01*
X819829Y-55826D01*
X821000Y-56059D01*
X826331D01*
X826575Y-56425D01*
X828147Y-57474D01*
X830000Y-57843D01*
X831853Y-57474D01*
X833425Y-56425D01*
X834474Y-54853D01*
X834843Y-53000D01*
X834474Y-51147D01*
X833425Y-49576D01*
Y-48425D01*
X834474Y-46853D01*
X834843Y-45000D01*
X834474Y-43147D01*
X833425Y-41575D01*
X831853Y-40526D01*
X830000Y-40157D01*
X828147Y-40526D01*
X827329Y-41072D01*
X826059Y-40393D01*
Y2000D01*
X826059Y2000D01*
X825826Y3171D01*
X825163Y4163D01*
X825163Y4163D01*
X805757Y23569D01*
X805843Y24000D01*
X805474Y25853D01*
X804425Y27425D01*
X802853Y28474D01*
X801000Y28843D01*
D02*
G37*
G36*
X824000Y36843D02*
X822147Y36474D01*
X820575Y35425D01*
X819526Y33853D01*
X819157Y32000D01*
X819526Y30147D01*
X820575Y28575D01*
X822147Y27526D01*
X824000Y27157D01*
X825853Y27526D01*
X827425Y28575D01*
X828474Y30147D01*
X828843Y32000D01*
X828474Y33853D01*
X827425Y35425D01*
X825853Y36474D01*
X824000Y36843D01*
D02*
G37*
G36*
X886000Y41808D02*
X884238Y41576D01*
X882596Y40896D01*
X881186Y39814D01*
X880104Y38404D01*
X879424Y36762D01*
X879192Y35000D01*
X879424Y33238D01*
X880104Y31596D01*
X881186Y30186D01*
X882596Y29104D01*
X884238Y28424D01*
X886000Y28192D01*
X887762Y28424D01*
X889404Y29104D01*
X890814Y30186D01*
X891896Y31596D01*
X892576Y33238D01*
X892808Y35000D01*
X892576Y36762D01*
X891896Y38404D01*
X890814Y39814D01*
X889404Y40896D01*
X887762Y41576D01*
X886000Y41808D01*
D02*
G37*
G36*
X663000Y92843D02*
X661147Y92474D01*
X659575Y91425D01*
X658526Y89853D01*
X658157Y88000D01*
X658526Y86147D01*
X659575Y84575D01*
X661147Y83526D01*
X663000Y83157D01*
X664853Y83526D01*
X666424Y84575D01*
X667474Y86147D01*
X667843Y88000D01*
X667474Y89853D01*
X666424Y91425D01*
X664853Y92474D01*
X663000Y92843D01*
D02*
G37*
G36*
X1080000Y107069D02*
X1077912Y106794D01*
X1075965Y105988D01*
X1074294Y104706D01*
X1073012Y103034D01*
X1072206Y101088D01*
X1071931Y99000D01*
X1072206Y96912D01*
X1073012Y94965D01*
X1074294Y93294D01*
X1075965Y92012D01*
X1077912Y91206D01*
X1080000Y90931D01*
X1082088Y91206D01*
X1084035Y92012D01*
X1085706Y93294D01*
X1086988Y94965D01*
X1087794Y96912D01*
X1088069Y99000D01*
X1087794Y101088D01*
X1086988Y103034D01*
X1085706Y104706D01*
X1084035Y105988D01*
X1082088Y106794D01*
X1080000Y107069D01*
D02*
G37*
G36*
X317000Y105069D02*
X314912Y104794D01*
X312966Y103988D01*
X312403Y103556D01*
X305000D01*
X303303Y103333D01*
X301722Y102678D01*
X300364Y101636D01*
X295364Y96636D01*
X294322Y95278D01*
X293667Y93697D01*
X293444Y92000D01*
Y32716D01*
X282284Y21556D01*
X217597D01*
X217034Y21988D01*
X215088Y22794D01*
X213000Y23069D01*
X210912Y22794D01*
X208965Y21988D01*
X207294Y20706D01*
X206012Y19035D01*
X205206Y17088D01*
X204931Y15000D01*
X205206Y12912D01*
X206012Y10965D01*
X207294Y9294D01*
X208965Y8012D01*
X210912Y7206D01*
X213000Y6931D01*
X215088Y7206D01*
X217034Y8012D01*
X217597Y8444D01*
X285000D01*
X286697Y8667D01*
X288278Y9322D01*
X289636Y10364D01*
X304636Y25364D01*
X305678Y26722D01*
X306333Y28303D01*
X306556Y30000D01*
Y89284D01*
X307716Y90444D01*
X312403D01*
X312966Y90012D01*
X314912Y89206D01*
X317000Y88931D01*
X319088Y89206D01*
X321035Y90012D01*
X322706Y91294D01*
X323988Y92965D01*
X324794Y94912D01*
X325069Y97000D01*
X324794Y99088D01*
X323988Y101034D01*
X322706Y102706D01*
X321035Y103988D01*
X319088Y104794D01*
X317000Y105069D01*
D02*
G37*
G36*
X886000Y2843D02*
X884147Y2474D01*
X882576Y1425D01*
X881526Y-147D01*
X881157Y-2000D01*
X881526Y-3853D01*
X882576Y-5425D01*
X884147Y-6474D01*
X886000Y-6843D01*
X887853Y-6474D01*
X889425Y-5425D01*
X890474Y-3853D01*
X890843Y-2000D01*
X890474Y-147D01*
X889425Y1425D01*
X887853Y2474D01*
X886000Y2843D01*
D02*
G37*
G36*
X451500Y90069D02*
X333000D01*
X330912Y89794D01*
X328965Y88988D01*
X327294Y87706D01*
X317294Y77706D01*
X316012Y76034D01*
X315206Y74088D01*
X314931Y72000D01*
X315206Y69912D01*
X316012Y67965D01*
X317294Y66294D01*
X318965Y65012D01*
X320912Y64206D01*
X323000Y63931D01*
X325088Y64206D01*
X327034Y65012D01*
X328706Y66294D01*
X336342Y73931D01*
X451500D01*
X453588Y74206D01*
X455535Y75012D01*
X457206Y76294D01*
X458488Y77965D01*
X459294Y79912D01*
X459569Y82000D01*
X459294Y84088D01*
X458488Y86034D01*
X457206Y87706D01*
X455535Y88988D01*
X453588Y89794D01*
X451500Y90069D01*
D02*
G37*
G36*
X317000Y13069D02*
X314912Y12794D01*
X312966Y11988D01*
X312403Y11556D01*
X305000D01*
X303303Y11333D01*
X301722Y10678D01*
X300364Y9636D01*
X295364Y4636D01*
X294322Y3278D01*
X293667Y1697D01*
X293444Y0D01*
Y-7284D01*
X292284Y-8444D01*
X217597D01*
X217034Y-8012D01*
X215088Y-7206D01*
X213000Y-6931D01*
X210912Y-7206D01*
X208965Y-8012D01*
X207294Y-9294D01*
X206012Y-10965D01*
X205206Y-12912D01*
X204931Y-15000D01*
X205206Y-17088D01*
X206012Y-19035D01*
X207294Y-20706D01*
X208965Y-21988D01*
X210912Y-22794D01*
X213000Y-23069D01*
X215088Y-22794D01*
X217034Y-21988D01*
X217597Y-21556D01*
X295000D01*
X296697Y-21333D01*
X298278Y-20678D01*
X299636Y-19636D01*
X304636Y-14636D01*
X305678Y-13278D01*
X306333Y-11697D01*
X306556Y-10000D01*
Y-2716D01*
X307716Y-1556D01*
X312403D01*
X312966Y-1988D01*
X314912Y-2794D01*
X317000Y-3069D01*
X319088Y-2794D01*
X321035Y-1988D01*
X322706Y-706D01*
X323988Y966D01*
X324794Y2912D01*
X325069Y5000D01*
X324794Y7088D01*
X323988Y9035D01*
X322706Y10706D01*
X321035Y11988D01*
X319088Y12794D01*
X317000Y13069D01*
D02*
G37*
%LPD*%
G36*
X753941Y18393D02*
Y-3393D01*
X752671Y-4072D01*
X751853Y-3526D01*
X750000Y-3157D01*
X748147Y-3526D01*
X746575Y-4575D01*
X746329Y-4945D01*
X745059Y-4559D01*
Y13733D01*
X749569Y18243D01*
X750000Y18157D01*
X751853Y18526D01*
X752671Y19072D01*
X753941Y18393D01*
D02*
G37*
G36*
X772898Y27264D02*
X773941Y26000D01*
X773941Y26000D01*
Y3000D01*
X773941Y3000D01*
X774174Y1830D01*
X774837Y837D01*
X779837Y-4163D01*
X779837Y-4163D01*
X780829Y-4826D01*
X782000Y-5059D01*
X788733D01*
X794907Y-11232D01*
X794538Y-12448D01*
X794147Y-12526D01*
X792576Y-13575D01*
X792264Y-14042D01*
X790736D01*
X790425Y-13575D01*
X788853Y-12526D01*
X787000Y-12157D01*
X785147Y-12526D01*
X783575Y-13575D01*
X782526Y-15147D01*
X782157Y-17000D01*
X782526Y-18853D01*
X783575Y-20424D01*
X785147Y-21474D01*
X787000Y-21843D01*
X788853Y-21474D01*
X790425Y-20424D01*
X790736Y-19958D01*
X792264D01*
X792576Y-20424D01*
X794147Y-21474D01*
X796000Y-21843D01*
X797853Y-21474D01*
X799425Y-20424D01*
X800024Y-19527D01*
X801563Y-19140D01*
X801674Y-19170D01*
X801941Y-19368D01*
Y-44733D01*
X801733Y-44941D01*
X794000D01*
X792830Y-45174D01*
X791837Y-45837D01*
X788837Y-48837D01*
X788174Y-49830D01*
X787941Y-51000D01*
X787941Y-51000D01*
Y-107000D01*
X787941Y-107000D01*
X788174Y-108170D01*
X788837Y-109163D01*
X791837Y-112163D01*
X792830Y-112826D01*
X794000Y-113059D01*
X814331D01*
X814575Y-113425D01*
X816147Y-114474D01*
X818000Y-114843D01*
X819853Y-114474D01*
X821424Y-113425D01*
X822474Y-111853D01*
X822843Y-110000D01*
X822474Y-108147D01*
X821424Y-106575D01*
X820658Y-106063D01*
X820926Y-104715D01*
X820951Y-104710D01*
X822605Y-103605D01*
X823710Y-101951D01*
X824098Y-100000D01*
X823710Y-98049D01*
X822605Y-96395D01*
X820951Y-95290D01*
X819000Y-94902D01*
X812000D01*
X810049Y-95290D01*
X808395Y-96395D01*
X807290Y-98049D01*
X806902Y-100000D01*
X807290Y-101951D01*
X808395Y-103605D01*
X810049Y-104710D01*
X812000Y-105098D01*
X813686D01*
X814297Y-106368D01*
X813839Y-106941D01*
X795267D01*
X794059Y-105733D01*
Y-91044D01*
X795232Y-90558D01*
X796837Y-92163D01*
X796837Y-92163D01*
X797830Y-92826D01*
X799000Y-93059D01*
X799000Y-93059D01*
X832733D01*
X833941Y-94267D01*
Y-119956D01*
X832768Y-120442D01*
X830163Y-117837D01*
X829171Y-117174D01*
X828000Y-116941D01*
X828000Y-116941D01*
X779267D01*
X779059Y-116733D01*
Y-82326D01*
X779059Y-82326D01*
X778826Y-81155D01*
X778163Y-80163D01*
X775837Y-77837D01*
X774845Y-77174D01*
X773674Y-76941D01*
X773674Y-76941D01*
X760267D01*
X758059Y-74733D01*
Y-72056D01*
X758331Y-71911D01*
X759329Y-71511D01*
X761000Y-71843D01*
X762853Y-71474D01*
X764425Y-70424D01*
X765575D01*
X767147Y-71474D01*
X769000Y-71843D01*
X770853Y-71474D01*
X772425Y-70424D01*
X773474Y-68853D01*
X773843Y-67000D01*
X773474Y-65147D01*
X772425Y-63575D01*
X772059Y-63331D01*
Y-63000D01*
X771826Y-61830D01*
X771163Y-60837D01*
X769059Y-58733D01*
Y-21607D01*
X770329Y-20928D01*
X771147Y-21474D01*
X773000Y-21843D01*
X774853Y-21474D01*
X776425Y-20424D01*
X777474Y-18853D01*
X777843Y-17000D01*
X777474Y-15147D01*
X776425Y-13575D01*
X774853Y-12526D01*
X773000Y-12157D01*
X771147Y-12526D01*
X770329Y-13072D01*
X769059Y-12393D01*
Y23733D01*
X772629Y27304D01*
X772898Y27264D01*
D02*
G37*
G36*
X729441Y214767D02*
X728733Y214059D01*
X712000D01*
X712000Y214059D01*
X710829Y213826D01*
X709837Y213163D01*
X709837Y213163D01*
X707837Y211163D01*
X707174Y210170D01*
X706941Y209000D01*
X706941Y209000D01*
Y150000D01*
X706941Y150000D01*
X707174Y148829D01*
X707837Y147837D01*
X780837Y74837D01*
X781829Y74174D01*
X783000Y73941D01*
X783000Y73941D01*
X785393D01*
X786072Y72671D01*
X785526Y71853D01*
X785157Y70000D01*
X785526Y68147D01*
X786575Y66575D01*
X788147Y65526D01*
X790000Y65157D01*
X790431Y65243D01*
X796087Y59587D01*
X796087Y59587D01*
X797079Y58924D01*
X798250Y58691D01*
X803569D01*
X804096Y57421D01*
X792061Y45387D01*
X790683Y45805D01*
X790474Y46853D01*
X789425Y48425D01*
X787853Y49474D01*
X786000Y49843D01*
X785341Y49712D01*
X785171Y49826D01*
X784000Y50059D01*
X784000Y50059D01*
X779000D01*
X779000Y50059D01*
X777830Y49826D01*
X776837Y49163D01*
X769768Y42093D01*
X768552Y42462D01*
X768474Y42853D01*
X767425Y44425D01*
X765853Y45474D01*
X764000Y45843D01*
X762147Y45474D01*
X760575Y44425D01*
X759526Y42853D01*
X759157Y41000D01*
X759526Y39147D01*
X760575Y37575D01*
X762147Y36526D01*
X762538Y36448D01*
X762907Y35232D01*
X759837Y32163D01*
X759174Y31170D01*
X758971Y30151D01*
X758228Y29704D01*
X757799Y29527D01*
X724973Y62353D01*
X725299Y63823D01*
X726425Y64575D01*
X727474Y66147D01*
X727843Y68000D01*
X727474Y69853D01*
X726425Y71424D01*
X724853Y72474D01*
X723000Y72843D01*
X721147Y72474D01*
X719575Y71424D01*
X718526Y69853D01*
X718157Y68000D01*
X718230Y67634D01*
X717137Y66617D01*
X716000Y66843D01*
X714147Y66474D01*
X712575Y65425D01*
X711526Y63853D01*
X711304Y62741D01*
X710836Y62504D01*
X709939Y62387D01*
X708163Y64163D01*
X707265Y64763D01*
X707236Y65155D01*
X707418Y66072D01*
X708229Y66233D01*
X709222Y66896D01*
X712163Y69837D01*
X712163Y69837D01*
X725000Y82674D01*
X729277Y78397D01*
X729526Y77147D01*
X730575Y75575D01*
X732147Y74526D01*
X734000Y74157D01*
X734323Y74221D01*
X735221Y73323D01*
X735157Y73000D01*
X735526Y71147D01*
X736575Y69576D01*
X738147Y68526D01*
X740000Y68157D01*
X741853Y68526D01*
X743425Y69576D01*
X744474Y71147D01*
X744843Y73000D01*
X744474Y74853D01*
X743425Y76425D01*
X741853Y77474D01*
X740000Y77843D01*
X739677Y77779D01*
X738779Y78677D01*
X738843Y79000D01*
X738474Y80853D01*
X737425Y82424D01*
X735853Y83474D01*
X734000Y83843D01*
X732735Y83591D01*
X729326Y87000D01*
X738163Y95837D01*
X738163Y95837D01*
X738826Y96829D01*
X739059Y98000D01*
Y101000D01*
X739059Y101000D01*
X738826Y102170D01*
X738163Y103163D01*
X738163Y103163D01*
X693059Y148267D01*
Y210733D01*
X709663Y227337D01*
X709663Y227337D01*
X710326Y228330D01*
X710559Y229500D01*
X710559Y229500D01*
Y235102D01*
X711457Y236000D01*
X713500Y236000D01*
X714770Y236000D01*
X716941D01*
Y222267D01*
X716733Y222059D01*
X709326D01*
X709326Y222059D01*
X708155Y221826D01*
X707163Y221163D01*
X707163Y221163D01*
X699837Y213837D01*
X699174Y212845D01*
X698941Y211674D01*
X698941Y211674D01*
Y147000D01*
X698941Y147000D01*
X699174Y145829D01*
X699837Y144837D01*
X775941Y68733D01*
Y67000D01*
X775941Y67000D01*
X776174Y65830D01*
X776837Y64837D01*
X787243Y54431D01*
X787157Y54000D01*
X787526Y52147D01*
X788575Y50575D01*
X790147Y49526D01*
X792000Y49157D01*
X793853Y49526D01*
X795424Y50575D01*
X796474Y52147D01*
X796843Y54000D01*
X796474Y55853D01*
X795424Y57425D01*
X793853Y58474D01*
X792000Y58843D01*
X791569Y58757D01*
X782059Y68267D01*
Y70000D01*
X782059Y70000D01*
X781826Y71171D01*
X781163Y72163D01*
X781163Y72163D01*
X705059Y148267D01*
Y210407D01*
X710593Y215941D01*
X718000D01*
X718000Y215941D01*
X719171Y216174D01*
X720163Y216837D01*
X722163Y218837D01*
X722826Y219830D01*
X723059Y221000D01*
Y235102D01*
X723957Y236000D01*
X726000Y236000D01*
X727270Y236000D01*
X729441D01*
Y214767D01*
D02*
G37*
%LPC*%
G36*
X741000Y94843D02*
X739147Y94474D01*
X737575Y93425D01*
X736526Y91853D01*
X736157Y90000D01*
X736526Y88147D01*
X737575Y86575D01*
X739147Y85526D01*
X741000Y85157D01*
X742853Y85526D01*
X744425Y86575D01*
X745474Y88147D01*
X745843Y90000D01*
X745474Y91853D01*
X744425Y93425D01*
X742853Y94474D01*
X741000Y94843D01*
D02*
G37*
G36*
X750000Y85843D02*
X748147Y85474D01*
X746575Y84424D01*
X745526Y82853D01*
X745157Y81000D01*
X745526Y79147D01*
X746575Y77575D01*
X748147Y76526D01*
X750000Y76157D01*
X751853Y76526D01*
X753425Y77575D01*
X754474Y79147D01*
X754843Y81000D01*
X754474Y82853D01*
X753425Y84424D01*
X751853Y85474D01*
X750000Y85843D01*
D02*
G37*
G36*
X765000Y69843D02*
X763147Y69474D01*
X761575Y68425D01*
X760526Y66853D01*
X760157Y65000D01*
X760526Y63147D01*
X761575Y61575D01*
X763147Y60526D01*
X765000Y60157D01*
X766853Y60526D01*
X768425Y61575D01*
X769474Y63147D01*
X769843Y65000D01*
X769474Y66853D01*
X768425Y68425D01*
X766853Y69474D01*
X765000Y69843D01*
D02*
G37*
%LPD*%
G36*
X1361000Y82000D02*
X1366000Y77000D01*
X1366000Y-140000D01*
X1361000Y-145000D01*
X1255000Y-145000D01*
Y-39000D01*
X1260000Y-34000D01*
X1266000Y-34000D01*
X1269000Y-31000D01*
Y77000D01*
X1274000Y82000D01*
X1361000Y82000D01*
D02*
G37*
G36*
X1260000Y82000D02*
X1265000Y77000D01*
X1265000Y-25000D01*
X1260000Y-30000D01*
X1185000D01*
X1180000Y-35000D01*
X1180000Y-66000D01*
X1175000Y-71000D01*
X940000Y-71000D01*
X935001Y-66001D01*
X935000Y74001D01*
X943000Y82000D01*
X1260000Y82000D01*
D02*
G37*
G36*
X1055000Y260000D02*
X1060000Y255000D01*
X1060001Y101344D01*
X1055657Y97000D01*
X940000Y97000D01*
X940000Y255000D01*
X945000Y260000D01*
X1055000Y260000D01*
D02*
G37*
G36*
X1160000Y-80000D02*
X1160000Y-150000D01*
X1154998Y-155002D01*
X1129998Y-155002D01*
X1105000Y-180000D01*
X1105000Y-255000D01*
X1100000Y-260000D01*
X945000Y-260000D01*
X940000Y-255000D01*
Y-155000D01*
X940000Y-82577D01*
X941248Y-82341D01*
X942574Y-84326D01*
X944559Y-85652D01*
X946900Y-86117D01*
X949241Y-85652D01*
X951226Y-84326D01*
X952552Y-82341D01*
X953018Y-80000D01*
X952552Y-77659D01*
X951624Y-76270D01*
X952303Y-75000D01*
X1061597Y-75000D01*
X1062276Y-76270D01*
X1061348Y-77659D01*
X1060882Y-80000D01*
X1061348Y-82341D01*
X1062674Y-84326D01*
X1064659Y-85652D01*
X1067000Y-86117D01*
X1069341Y-85652D01*
X1071326Y-84326D01*
X1072652Y-82341D01*
X1073118Y-80000D01*
X1072652Y-77659D01*
X1071724Y-76270D01*
X1072403Y-75000D01*
X1155000Y-75000D01*
X1160000Y-80000D01*
D02*
G37*
G36*
X1250000Y-145000D02*
X1255000Y-150000D01*
X1360000Y-150000D01*
X1365000Y-155000D01*
X1365000Y-255000D01*
X1360000Y-260000D01*
X1200000Y-260000D01*
X1195000Y-255000D01*
Y-60000D01*
X1200000Y-55000D01*
X1250000Y-55000D01*
X1250000Y-145000D01*
D02*
G37*
G36*
X1252980Y-35252D02*
X1252116Y-36116D01*
X1252116Y-36116D01*
X1251232Y-37439D01*
X1250921Y-39000D01*
X1250921Y-39000D01*
Y-50165D01*
X1250000Y-50922D01*
X1200000Y-50922D01*
X1198439Y-51232D01*
X1197116Y-52116D01*
X1197116Y-52116D01*
X1192116Y-57116D01*
X1191232Y-58439D01*
X1190922Y-60000D01*
X1190922Y-60000D01*
Y-106777D01*
X1189652Y-107162D01*
X1189326Y-106674D01*
X1187341Y-105348D01*
X1185000Y-104882D01*
X1182659Y-105348D01*
X1180674Y-106674D01*
X1179348Y-108659D01*
X1178883Y-111000D01*
X1179348Y-113341D01*
X1180674Y-115326D01*
X1182659Y-116652D01*
X1185000Y-117118D01*
X1187341Y-116652D01*
X1189326Y-115326D01*
X1189652Y-114838D01*
X1190922Y-115223D01*
Y-188209D01*
X1189652Y-188419D01*
X1188210Y-184173D01*
X1185818Y-179321D01*
X1182812Y-174823D01*
X1179245Y-170755D01*
X1175178Y-167188D01*
X1170679Y-164182D01*
X1165827Y-161790D01*
X1160704Y-160051D01*
X1157794Y-159472D01*
X1157609Y-159102D01*
X1157526Y-158124D01*
X1157881Y-157886D01*
X1157882Y-157886D01*
X1162884Y-152884D01*
X1162884Y-152884D01*
X1163768Y-151561D01*
X1164078Y-150000D01*
X1164078Y-150000D01*
X1164078Y-80000D01*
X1164078Y-80000D01*
X1163768Y-78439D01*
X1162884Y-77116D01*
X1162884Y-77116D01*
X1162019Y-76252D01*
X1162505Y-75078D01*
X1175000D01*
X1175000Y-75078D01*
X1176561Y-74768D01*
X1177884Y-73884D01*
X1177884Y-73884D01*
X1182884Y-68884D01*
X1182884Y-68884D01*
X1183768Y-67561D01*
X1184079Y-66000D01*
X1184079Y-66000D01*
X1184079Y-36689D01*
X1186689Y-34078D01*
X1252495D01*
X1252980Y-35252D01*
D02*
G37*
%LPC*%
G36*
X1147000Y64118D02*
X1144659Y63652D01*
X1142674Y62326D01*
X1141348Y60341D01*
X1140882Y58000D01*
X1141348Y55659D01*
X1142674Y53674D01*
X1144659Y52348D01*
X1147000Y51883D01*
X1149341Y52348D01*
X1151326Y53674D01*
X1152652Y55659D01*
X1153118Y58000D01*
X1152652Y60341D01*
X1151326Y62326D01*
X1149341Y63652D01*
X1147000Y64118D01*
D02*
G37*
%LPD*%
G36*
X1360000Y255000D02*
Y145000D01*
X1355000Y140000D01*
X1245000D01*
X1240000Y145000D01*
Y255000D01*
X1245000Y260000D01*
X1355000D01*
X1360000Y255000D01*
D02*
G37*
D20*
X582750Y-84000D02*
D03*
X565250D02*
D03*
X725250Y-221000D02*
D03*
X742750D02*
D03*
D51*
X689500Y-275000D02*
D03*
X790500D02*
D03*
X770500Y275500D02*
D03*
X669500D02*
D03*
X689500Y-171000D02*
D03*
X790500D02*
D03*
D52*
X715000Y-245500D02*
D03*
X765000D02*
D03*
X740000D02*
D03*
X752500D02*
D03*
X727500D02*
D03*
X745000Y246000D02*
D03*
X695000D02*
D03*
X720000D02*
D03*
X707500D02*
D03*
X732500D02*
D03*
X715000Y-141500D02*
D03*
X765000D02*
D03*
X740000D02*
D03*
X752500D02*
D03*
X727500D02*
D03*
D65*
X999998Y107002D02*
D03*
X1000000Y73000D02*
D03*
D71*
X333000Y-240000D02*
X451500D01*
X323000Y-250000D02*
X333000Y-240000D01*
X323000Y-204000D02*
X333000Y-194000D01*
X451500D01*
X323000Y-158000D02*
X333000Y-148000D01*
X451500D01*
X323000Y-112000D02*
X333000Y-102000D01*
X451500D01*
X323000Y-66000D02*
X333000Y-56000D01*
X451500D01*
X323000Y-20000D02*
X333000Y-10000D01*
X451500D01*
X323000Y26000D02*
X333000Y36000D01*
X451500D01*
X323000Y118000D02*
X333000Y128000D01*
X451500D01*
X323000Y164000D02*
X333000Y174000D01*
X451500D01*
X323000Y72000D02*
X333000Y82000D01*
X451500D01*
X323000Y210000D02*
X333000Y220000D01*
X451500D01*
X323000Y256000D02*
X333000Y266000D01*
X451500D01*
X1305000Y110000D02*
X1315000D01*
D73*
X297000Y262000D02*
X305000Y270000D01*
X297000Y160000D02*
Y262000D01*
X260000Y123000D02*
X297000Y160000D01*
X310000Y142000D02*
Y172000D01*
X317000Y179000D01*
Y189000D01*
X265000Y-121232D02*
X282000Y-138232D01*
Y-164000D02*
Y-138232D01*
Y-164000D02*
X299000Y-181000D01*
X265000Y-121232D02*
Y-112000D01*
X258000Y-105000D02*
X265000Y-112000D01*
X299000Y-262000D02*
Y-181000D01*
X300000Y0D02*
X305000Y5000D01*
X300000Y-10000D02*
Y0D01*
X295000Y-15000D02*
X300000Y-10000D01*
X305000Y97000D02*
X317000D01*
X300000Y92000D02*
X305000Y97000D01*
X300000Y30000D02*
Y92000D01*
X285000Y15000D02*
X300000Y30000D01*
Y-158000D02*
X317000Y-175000D01*
X300000Y-158000D02*
Y-125000D01*
X317000Y-179000D02*
Y-175000D01*
X280000Y-75000D02*
X285000Y-80000D01*
Y-110000D02*
Y-80000D01*
Y-110000D02*
X300000Y-125000D01*
X294000Y-45000D02*
X300000Y-51000D01*
Y-82000D02*
Y-51000D01*
Y-82000D02*
X305000Y-87000D01*
X299000Y-262000D02*
X305000Y-268000D01*
Y-87000D02*
X317000D01*
X305000Y5000D02*
X317000D01*
X213000Y-105000D02*
X258000D01*
X213000Y-75000D02*
X280000D01*
X213000Y-45000D02*
X294000D01*
X213000Y-15000D02*
X295000D01*
X213000Y15000D02*
X285000D01*
X280000Y112000D02*
X310000Y142000D01*
X213000Y45000D02*
X269000D01*
X280000Y56000D01*
Y112000D01*
X213000Y75000D02*
X252000D01*
X260000Y83000D01*
Y123000D01*
D74*
X509000Y138000D02*
Y247000D01*
X492000Y249000D02*
X507000D01*
X509000Y247000D01*
X584000Y148000D02*
X586000Y150000D01*
X593000D01*
X584000Y156000D02*
X586000Y154000D01*
X596000D01*
X613000Y144000D02*
X618000D01*
X620000Y146000D01*
Y165000D01*
X582000Y26000D02*
Y133000D01*
X492000Y249000D02*
X492000Y249000D01*
X509000Y138000D02*
X511000Y136000D01*
X579000D01*
X582000Y133000D01*
X694000Y62000D02*
X706000D01*
X690000Y58000D02*
X694000Y62000D01*
X646000Y58000D02*
X690000D01*
X707059Y69059D02*
X710000Y72000D01*
X690059Y69059D02*
X707059D01*
X687000Y66000D02*
X690059Y69059D01*
X574000Y16000D02*
Y125000D01*
X492000Y203000D02*
X498000D01*
X500000Y201000D01*
Y130000D02*
Y201000D01*
Y130000D02*
X502000Y128000D01*
X571000D01*
X574000Y125000D01*
X566000Y6000D02*
Y118000D01*
X564000Y120000D02*
X566000Y118000D01*
X494000Y120000D02*
X564000D01*
X492000Y122000D02*
X494000Y120000D01*
X492000Y122000D02*
Y157000D01*
X643000Y55000D02*
X646000Y58000D01*
X643000Y-16000D02*
Y55000D01*
X649000Y53000D02*
X697000D01*
X647000Y51000D02*
X649000Y53000D01*
X647000Y-14000D02*
Y51000D01*
X697000Y53000D02*
X700000Y56000D01*
X991000Y82000D02*
X1000000Y73000D01*
X943000Y82000D02*
X991000D01*
X940000Y85000D02*
X943000Y82000D01*
X930000Y85000D02*
X940000D01*
X950002Y107002D02*
X999998D01*
X938000Y95000D02*
X950002Y107002D01*
X930000Y95000D02*
X938000D01*
X762000Y-62000D02*
Y30000D01*
X761000Y-63000D02*
X762000Y-62000D01*
X761000Y-67000D02*
Y-63000D01*
X757000Y-60000D02*
Y26000D01*
X755000Y-62000D02*
X757000Y-60000D01*
X755000Y-76000D02*
Y-62000D01*
X766000Y-60000D02*
Y25000D01*
Y-60000D02*
X769000Y-63000D01*
Y-67000D02*
Y-63000D01*
X755000Y-76000D02*
X759000Y-80000D01*
X773674D01*
X704000Y-71000D02*
Y-23000D01*
X696000Y-79000D02*
X704000Y-71000D01*
X678000Y-79000D02*
X696000D01*
Y-21000D02*
X700000Y-25000D01*
Y-69000D02*
Y-25000D01*
X694000Y-75000D02*
X700000Y-69000D01*
X698000Y-17000D02*
X704000Y-23000D01*
X676000Y-75000D02*
X694000D01*
X721000Y62000D02*
X757000Y26000D01*
X778000Y-120000D02*
X828000D01*
X776000Y-118000D02*
X778000Y-120000D01*
X776000Y-118000D02*
Y-82326D01*
X773674Y-80000D02*
X776000Y-82326D01*
X805000Y-46000D02*
Y-17000D01*
X790000Y-2000D02*
X805000Y-17000D01*
X782000Y-2000D02*
X790000D01*
X777000Y3000D02*
X782000Y-2000D01*
X777000Y3000D02*
Y26000D01*
X792000Y3000D02*
X810000Y-15000D01*
X784326Y3000D02*
X792000D01*
X781000Y6326D02*
X784326Y3000D01*
X781000Y6326D02*
Y23000D01*
X791000Y-107000D02*
Y-51000D01*
X803000Y-48000D02*
X805000Y-46000D01*
X794000Y-48000D02*
X803000D01*
X791000Y-51000D02*
X794000Y-48000D01*
X810000Y-50000D02*
Y-15000D01*
X807830Y-52171D02*
X810000Y-50000D01*
X799059Y-52171D02*
X807830D01*
X796000Y-55229D02*
X799059Y-52171D01*
X796000Y-87000D02*
Y-55229D01*
X520450Y-212450D02*
Y-200250D01*
Y-212450D02*
X523000Y-215000D01*
X570000D01*
X779000Y67000D02*
Y70000D01*
Y67000D02*
X792000Y54000D01*
X682000Y48000D02*
X714000D01*
X679000Y45000D02*
X682000Y48000D01*
X663000Y45000D02*
X679000D01*
X685000Y42000D02*
X720000D01*
X678000Y35000D02*
X685000Y42000D01*
X663000Y35000D02*
X678000D01*
X796000Y-87000D02*
X799000Y-90000D01*
X834000D01*
X837000Y-93000D01*
Y-177000D02*
Y-93000D01*
X762000Y30000D02*
X779000Y47000D01*
X784000D01*
X786000Y45000D01*
X766000Y25000D02*
X780000Y39000D01*
X675000Y-119000D02*
X677000Y-121000D01*
X675000Y-119000D02*
Y-82000D01*
X671000Y-119000D02*
Y-80000D01*
X669000Y-121000D02*
X671000Y-119000D01*
X828000Y-120000D02*
X832000Y-124000D01*
Y-214000D02*
Y-124000D01*
X794000Y-110000D02*
X818000D01*
X791000Y-107000D02*
X794000Y-110000D01*
X671000Y-80000D02*
X676000Y-75000D01*
X675000Y-82000D02*
X678000Y-79000D01*
X607000Y-111150D02*
X607000Y-111150D01*
Y-98000D01*
X596000Y-111150D02*
X596000Y-111150D01*
Y-98000D01*
X819000Y-51000D02*
Y-1176D01*
X800824Y17000D02*
X819000Y-1176D01*
X794000Y17000D02*
X800824D01*
X823000Y-43000D02*
Y2000D01*
X801000Y24000D02*
X823000Y2000D01*
X770000Y162000D02*
X772000Y160000D01*
Y145000D02*
Y160000D01*
Y145000D02*
X820000Y97000D01*
X772000Y175000D02*
Y203000D01*
X769000Y172000D02*
X772000Y175000D01*
X763000Y172000D02*
X769000D01*
X763000Y162000D02*
X770000D01*
X764000Y211000D02*
X772000Y203000D01*
Y228000D02*
X777000Y223000D01*
Y149000D02*
Y223000D01*
Y149000D02*
X844000Y82000D01*
X749000Y-264000D02*
Y-260000D01*
X747000Y-266000D02*
X749000Y-264000D01*
X735000Y-266000D02*
X747000D01*
X732223Y-263223D02*
X735000Y-266000D01*
X732223Y-263223D02*
Y-256770D01*
X727500Y-252047D02*
X732223Y-256770D01*
X727500Y-252047D02*
Y-245500D01*
X863000Y-189000D02*
Y-183000D01*
X860000Y-180000D02*
X863000Y-183000D01*
X840000Y-180000D02*
X860000D01*
X837000Y-177000D02*
X840000Y-180000D01*
X807000Y56000D02*
X870000D01*
X781000Y23000D02*
X808000Y50000D01*
X777000Y26000D02*
X807000Y56000D01*
X870000D02*
X872000Y58000D01*
X844000Y64000D02*
Y82000D01*
Y64000D02*
X846000Y62000D01*
X864000D01*
X790000Y70000D02*
X798250Y61750D01*
X832750D01*
X833000Y62000D01*
X836000Y-218000D02*
X851000D01*
X832000Y-214000D02*
X836000Y-218000D01*
X582000Y26000D02*
X584000Y24000D01*
X594000D01*
X574000Y16000D02*
X576000Y14000D01*
X566000Y6000D02*
X568000Y4000D01*
X594000D01*
X492000Y111000D02*
X556000D01*
X558000Y109000D01*
Y-4000D02*
Y109000D01*
Y-4000D02*
X560000Y-6000D01*
X492000Y65000D02*
X547000D01*
X550000Y62000D01*
Y-14000D02*
Y62000D01*
Y-14000D02*
X552000Y-16000D01*
X492000Y19000D02*
X539000D01*
X542000Y16000D01*
Y-24000D02*
Y16000D01*
Y-24000D02*
X544000Y-26000D01*
X492000Y-27000D02*
X532000D01*
X533941Y-28941D01*
Y-34000D02*
Y-28941D01*
Y-34000D02*
X535941Y-36000D01*
X594000D01*
X532000Y-73000D02*
X534000Y-71000D01*
X492000Y-73000D02*
X532000D01*
X714000Y23000D02*
X725000D01*
X727000Y21000D01*
X851000Y-148000D02*
X895000D01*
X844000Y-166000D02*
X895000D01*
X843000Y-165000D02*
X844000Y-166000D01*
X843000Y-165000D02*
Y-148000D01*
X876000Y212000D02*
Y220000D01*
X874000Y210000D02*
X876000Y212000D01*
X850000Y208000D02*
X852000Y210000D01*
X874000D01*
X868000Y220000D02*
Y226000D01*
X866000Y228000D02*
X868000Y226000D01*
X858000Y228000D02*
X866000D01*
X856000Y230000D02*
X858000Y228000D01*
X856000Y230000D02*
Y237000D01*
X663000Y15000D02*
X695000D01*
X698000Y18000D01*
X720000Y42000D02*
X724000Y46000D01*
X726000Y36000D02*
X730000Y40000D01*
X663000Y25000D02*
X666000Y28000D01*
X714000Y48000D02*
X718000Y52000D01*
X666000Y28000D02*
X689000D01*
X697000Y36000D01*
X726000D01*
X673000Y-46000D02*
X687000D01*
X666000Y-39000D02*
X673000Y-46000D01*
X636000Y-39000D02*
X666000D01*
X672000Y-56000D02*
X687000D01*
X663000Y-47000D02*
X672000Y-56000D01*
X636000Y-47000D02*
X663000D01*
X604000Y-175000D02*
Y-146000D01*
X601000Y-178000D02*
X604000Y-175000D01*
X621000Y-148000D02*
X623000Y-146000D01*
X617000Y-197000D02*
Y-148000D01*
X615000Y-146000D02*
X617000Y-148000D01*
X621000Y-199000D02*
Y-148000D01*
X609000Y-223000D02*
X611000Y-225000D01*
X609000Y-223000D02*
Y-211000D01*
X621000Y-199000D01*
X603000Y-225000D02*
X605000Y-223000D01*
Y-209000D01*
X617000Y-197000D01*
X819000Y-51000D02*
X821000Y-53000D01*
X830000D01*
X823000Y-43000D02*
X825000Y-45000D01*
X830000D01*
X647000Y-14000D02*
X650000Y-17000D01*
X708000Y56000D02*
Y60000D01*
X706000Y62000D02*
X708000Y60000D01*
X650000Y-17000D02*
X698000D01*
X648000Y-21000D02*
X696000D01*
X643000Y-16000D02*
X648000Y-21000D01*
X585000Y-195000D02*
Y-180000D01*
X587000Y-178000D01*
X601000D01*
X552000Y-16000D02*
X594000D01*
X779000Y109000D02*
X782000Y112000D01*
X776000Y109000D02*
X779000D01*
X737000Y148000D02*
X776000Y109000D01*
X737000Y148000D02*
Y198000D01*
X792000Y94000D02*
X796000Y98000D01*
X785000Y94000D02*
X792000D01*
X729000Y150000D02*
X785000Y94000D01*
X729000Y150000D02*
Y198000D01*
X721000Y152000D02*
Y198000D01*
X576000Y14000D02*
X600000D01*
X560000Y-6000D02*
X600000D01*
X544000Y-26000D02*
X600000D01*
X721000Y152000D02*
X788000Y85000D01*
X797000D01*
X804000Y92000D01*
X807000Y67000D02*
X814000D01*
X732500Y213500D02*
Y246000D01*
X720000Y221000D02*
Y246000D01*
X797000Y77000D02*
X807000Y67000D01*
X710000Y150000D02*
X783000Y77000D01*
X797000D01*
X702000Y147000D02*
X779000Y70000D01*
X712000Y211000D02*
X730000D01*
X710000Y209000D02*
X712000Y211000D01*
X710000Y150000D02*
Y209000D01*
X730000Y211000D02*
X732500Y213500D01*
X718000Y219000D02*
X720000Y221000D01*
X710000Y72000D02*
X725000Y87000D01*
X736000Y98000D01*
Y101000D01*
X690000Y147000D02*
X736000Y101000D01*
X702000Y147000D02*
Y211674D01*
X709326Y219000D01*
X718000D01*
X690000Y212000D02*
X707500Y229500D01*
Y246000D01*
X690000Y147000D02*
Y212000D01*
X810000Y79000D02*
X820000Y89000D01*
Y97000D01*
X745000Y211000D02*
X764000D01*
X850000Y131000D02*
Y208000D01*
Y131000D02*
X854000Y127000D01*
X631000Y-39000D02*
X636000D01*
X628000Y-36000D02*
X631000Y-39000D01*
X626000Y-47000D02*
X636000D01*
X623000Y-44000D02*
X626000Y-47000D01*
X732000Y29000D02*
X737000Y34000D01*
Y22000D02*
X744000Y29000D01*
X742000Y15000D02*
X750000Y23000D01*
X742000Y-59000D02*
Y15000D01*
X589000Y-167000D02*
Y-139000D01*
X592000Y-136000D01*
X701000D01*
X704000Y-133000D01*
Y-103000D01*
X876000Y127000D02*
X878000Y129000D01*
X876000Y117000D02*
Y127000D01*
X874000Y115000D02*
X876000Y117000D01*
X785000Y158000D02*
X797000D01*
X840000Y115000D01*
X874000D01*
X878000Y129000D02*
X920000D01*
X716000Y62000D02*
X721000D01*
X808000Y50000D02*
X816000D01*
X534000Y-71000D02*
Y-51000D01*
X539000Y-46000D01*
X600000D01*
X595000Y112000D02*
X597000Y110000D01*
X621000D01*
X623000Y108000D01*
Y-44000D02*
Y108000D01*
X600000Y117000D02*
X602000Y115000D01*
X625000D01*
X628000Y112000D01*
Y-36000D02*
Y112000D01*
X737000Y-67000D02*
Y22000D01*
X742000Y-59000D02*
X745000Y-62000D01*
Y-67000D02*
Y-62000D01*
X721000Y-67000D02*
Y-63000D01*
X727000Y-57000D01*
Y21000D01*
X729000Y-67000D02*
Y-63000D01*
X732000Y-60000D01*
Y29000D01*
X725000Y87000D02*
X733000Y79000D01*
X734000D01*
X592000Y193000D02*
X610000D01*
X590000Y191000D02*
X592000Y193000D01*
X582000Y201000D02*
X610000D01*
X580000Y179000D02*
X580000Y179000D01*
X593000Y150000D02*
X595000Y148000D01*
Y112000D02*
Y148000D01*
X596000Y154000D02*
X600000Y150000D01*
Y117000D02*
Y150000D01*
X580000Y191000D02*
Y199000D01*
X582000Y201000D01*
X669000Y99000D02*
X672000Y96000D01*
X669000Y99000D02*
Y235000D01*
D75*
X562000Y205000D02*
Y209000D01*
Y201000D02*
Y205000D01*
X562000Y205000D02*
X562000Y205000D01*
X543900Y205000D02*
X562000D01*
X562000Y221000D02*
Y229000D01*
X586000Y-245000D02*
X590000D01*
X582000D02*
X586000D01*
X590000Y179000D02*
Y191000D01*
X600000Y165000D02*
Y179000D01*
X610000Y165000D02*
Y179000D01*
X620000Y165000D02*
Y179000D01*
X580000Y179000D02*
Y191000D01*
D76*
X808000Y-69000D02*
X813000Y-64000D01*
X812000Y-100000D02*
X819000D01*
X780000Y-133000D02*
X787000D01*
X769000D02*
X780000D01*
X874000Y-222000D02*
X900000D01*
Y-272000D02*
X920000D01*
X695000Y246000D02*
Y263000D01*
Y271000D01*
X931000Y275000D02*
X932000D01*
X900000Y200000D02*
X905000Y205000D01*
X900000Y185000D02*
Y200000D01*
X895000Y180000D02*
X900000Y185000D01*
X868000Y180000D02*
X895000D01*
X863000Y175000D02*
X868000Y180000D01*
X863000Y162000D02*
Y169000D01*
Y175000D01*
X905000Y205000D02*
X928000D01*
X932000Y209000D01*
Y275000D01*
X720000Y263000D02*
Y271000D01*
X745000Y190000D02*
Y198000D01*
X924000Y275000D02*
X931000D01*
X765000Y-141500D02*
Y-137000D01*
X769000Y-133000D01*
X582750Y-84000D02*
X585000Y-86250D01*
Y-98000D02*
Y-88000D01*
Y-86250D01*
X585000Y-111150D02*
Y-98000D01*
X649000Y125000D02*
X650000D01*
X656000D01*
X650000D02*
Y235000D01*
Y245000D01*
D77*
X575000Y-204000D02*
Y-169000D01*
X586000Y-245000D02*
Y-208000D01*
X575000Y-204000D02*
X577000Y-206000D01*
X584000D01*
X586000Y-208000D01*
X552000Y-130000D02*
Y-111150D01*
X574000Y-125000D02*
Y-111150D01*
X724250Y-221000D02*
X727500Y-224250D01*
Y-245500D02*
Y-224250D01*
X740000Y-222750D02*
X741750Y-221000D01*
X740000Y-245500D02*
Y-222750D01*
X725000Y-269000D02*
Y-260000D01*
Y-269000D02*
X728000Y-272000D01*
X753000D01*
X756000Y-269000D01*
Y-256047D01*
X752500Y-252547D02*
X756000Y-256047D01*
X752500Y-252547D02*
Y-245500D01*
X740000Y-260000D02*
Y-245500D01*
X765000Y-260000D02*
Y-245500D01*
X581000Y-167000D02*
X589000D01*
X575000Y-169000D02*
X577000Y-167000D01*
X581000D01*
X728000Y-141000D02*
Y-128000D01*
X740000Y-141500D02*
Y-128000D01*
X552000Y-130000D02*
X556000Y-134000D01*
X565000D01*
X29996Y-30478D02*
X16665Y-40000D01*
Y-25717D01*
X29996Y-30478D02*
X10000D01*
D79*
X1385000Y-160000D02*
D03*
Y125000D02*
D03*
X25000Y-65000D02*
D03*
Y65000D02*
D03*
Y275000D02*
D03*
Y-275000D02*
D03*
X1375000D02*
D03*
Y275000D02*
D03*
D80*
X1150000Y-200000D02*
D03*
Y200000D02*
D03*
X250000D02*
D03*
Y-200000D02*
D03*
D81*
X877500Y200000D02*
D03*
Y190000D02*
D03*
X862500D02*
D03*
Y200000D02*
D03*
X870000Y195000D02*
D03*
D82*
X1312700Y-238100D02*
D03*
X1287300D02*
D03*
X1261900D02*
D03*
X1338100D02*
D03*
Y-212700D02*
D03*
Y-187300D02*
D03*
Y-161900D02*
D03*
X1312700D02*
D03*
X1287300D02*
D03*
X1261900D02*
D03*
Y-187300D02*
D03*
Y-212700D02*
D03*
X1012700Y161900D02*
D03*
X987300D02*
D03*
X961900D02*
D03*
X1038100D02*
D03*
Y187300D02*
D03*
Y212700D02*
D03*
Y238100D02*
D03*
X1012700D02*
D03*
X987300D02*
D03*
X961900D02*
D03*
Y212700D02*
D03*
Y187300D02*
D03*
X1012700Y-238100D02*
D03*
X987300D02*
D03*
X961900D02*
D03*
X1038100D02*
D03*
Y-212700D02*
D03*
Y-187300D02*
D03*
Y-161900D02*
D03*
X1012700D02*
D03*
X987300D02*
D03*
X961900D02*
D03*
Y-187300D02*
D03*
Y-212700D02*
D03*
X112700Y161900D02*
D03*
X87300D02*
D03*
X61900D02*
D03*
X138100D02*
D03*
Y187300D02*
D03*
Y212700D02*
D03*
Y238100D02*
D03*
X112700D02*
D03*
X87300D02*
D03*
X61900D02*
D03*
Y212700D02*
D03*
Y187300D02*
D03*
X112700Y-238100D02*
D03*
X87300D02*
D03*
X61900D02*
D03*
X138100D02*
D03*
Y-212700D02*
D03*
Y-187300D02*
D03*
Y-161900D02*
D03*
X112700D02*
D03*
X87300D02*
D03*
X61900D02*
D03*
Y-187300D02*
D03*
Y-212700D02*
D03*
X1312700Y161900D02*
D03*
X1287300D02*
D03*
X1261900D02*
D03*
X1338100D02*
D03*
Y187300D02*
D03*
Y212700D02*
D03*
Y238100D02*
D03*
X1312700D02*
D03*
X1287300D02*
D03*
X1261900D02*
D03*
Y212700D02*
D03*
Y187300D02*
D03*
X900000Y-222000D02*
D03*
Y-272000D02*
D03*
D83*
X645750Y-280500D02*
D03*
X574250D02*
D03*
D84*
X137100Y126600D02*
D03*
Y-126600D02*
D03*
D85*
X859000Y-59000D02*
D03*
X588000Y140000D02*
D03*
X597000Y223000D02*
D03*
Y207000D02*
D03*
X570000Y237000D02*
D03*
X562000D02*
D03*
X570000Y193000D02*
D03*
X562000D02*
D03*
Y209000D02*
D03*
Y201000D02*
D03*
X529750Y184250D02*
D03*
X521750D02*
D03*
X529750Y230250D02*
D03*
X521750D02*
D03*
X741000Y90000D02*
D03*
X732000Y63000D02*
D03*
X635000Y54000D02*
D03*
X645000Y65000D02*
D03*
X680000Y170000D02*
D03*
X661000Y244000D02*
D03*
X585000Y260000D02*
D03*
X610000D02*
D03*
X613000Y144000D02*
D03*
X750000Y81000D02*
D03*
X740000Y73000D02*
D03*
X584000Y148000D02*
D03*
X537000Y145000D02*
D03*
Y153000D02*
D03*
X723000Y68000D02*
D03*
X663000Y77000D02*
D03*
Y88000D02*
D03*
X850000Y-131000D02*
D03*
X752000Y45000D02*
D03*
X673000Y-147000D02*
D03*
X1287000Y116000D02*
D03*
X1215000Y250000D02*
D03*
X1245000Y275000D02*
D03*
X1000000Y290000D02*
D03*
X750000Y-16000D02*
D03*
Y-24000D02*
D03*
X710000Y-23000D02*
D03*
X761000Y-67000D02*
D03*
X769000D02*
D03*
X750000Y-8000D02*
D03*
X663000Y4000D02*
D03*
X787000Y-17000D02*
D03*
X796000D02*
D03*
X645000Y-255000D02*
D03*
Y-265000D02*
D03*
X565000Y-144000D02*
D03*
X571000Y-159000D02*
D03*
X565000Y-225000D02*
D03*
X570000Y-215000D02*
D03*
X582000Y-245000D02*
D03*
X813000Y-64000D02*
D03*
X622000Y-88000D02*
D03*
X819000Y-100000D02*
D03*
X812000D02*
D03*
X764000Y41000D02*
D03*
X669000Y-121000D02*
D03*
X677000D02*
D03*
X633000Y-79000D02*
D03*
X787000Y-133000D02*
D03*
X780000D02*
D03*
X818000Y-110000D02*
D03*
X709000Y-165000D02*
D03*
X636000Y-57000D02*
D03*
Y-25000D02*
D03*
X565000Y-125000D02*
D03*
X585000Y-98000D02*
D03*
X575000D02*
D03*
X607000D02*
D03*
X596000D02*
D03*
X574000Y-125000D02*
D03*
X810000Y-2000D02*
D03*
X566000Y-97000D02*
D03*
X763000Y172000D02*
D03*
Y162000D02*
D03*
X920000Y-272000D02*
D03*
X725000Y-260000D02*
D03*
X740000Y-285000D02*
D03*
X749000Y-260000D02*
D03*
X765000D02*
D03*
X740000D02*
D03*
X911000Y260000D02*
D03*
X905000Y215000D02*
D03*
X864000Y237000D02*
D03*
X656000Y101000D02*
D03*
Y111000D02*
D03*
X846000Y-43000D02*
D03*
X792000Y54000D02*
D03*
X808000Y-212000D02*
D03*
X844000Y48000D02*
D03*
X856000Y71000D02*
D03*
X895000Y58000D02*
D03*
X864000Y62000D02*
D03*
X833000D02*
D03*
X874000Y-222000D02*
D03*
X863000Y-189000D02*
D03*
X851000Y-218000D02*
D03*
X790000Y70000D02*
D03*
X785000Y175000D02*
D03*
X595000Y99000D02*
D03*
X636000Y-2000D02*
D03*
Y7000D02*
D03*
X375000Y235000D02*
D03*
X401000D02*
D03*
Y255000D02*
D03*
X375000D02*
D03*
X388000Y235000D02*
D03*
X375000Y245000D02*
D03*
X388000D02*
D03*
X401000D02*
D03*
X388000Y255000D02*
D03*
X375000Y189000D02*
D03*
X401000D02*
D03*
Y209000D02*
D03*
X375000D02*
D03*
X388000Y189000D02*
D03*
X375000Y199000D02*
D03*
X388000D02*
D03*
X401000D02*
D03*
X388000Y209000D02*
D03*
X375000Y143000D02*
D03*
X401000D02*
D03*
Y163000D02*
D03*
X375000D02*
D03*
X388000Y143000D02*
D03*
X375000Y153000D02*
D03*
X388000D02*
D03*
X401000D02*
D03*
X388000Y163000D02*
D03*
X375000Y97000D02*
D03*
X401000D02*
D03*
Y117000D02*
D03*
X375000D02*
D03*
X388000Y97000D02*
D03*
X375000Y107000D02*
D03*
X388000D02*
D03*
X401000D02*
D03*
X388000Y117000D02*
D03*
X375000Y51000D02*
D03*
X401000D02*
D03*
Y71000D02*
D03*
X375000D02*
D03*
X388000Y51000D02*
D03*
X375000Y61000D02*
D03*
X388000D02*
D03*
X401000D02*
D03*
X388000Y71000D02*
D03*
X375000Y5000D02*
D03*
X401000D02*
D03*
Y25000D02*
D03*
X375000D02*
D03*
X388000Y5000D02*
D03*
X375000Y15000D02*
D03*
X388000D02*
D03*
X401000D02*
D03*
X388000Y25000D02*
D03*
X375000Y-41000D02*
D03*
X401000D02*
D03*
Y-21000D02*
D03*
X375000D02*
D03*
X388000Y-41000D02*
D03*
X375000Y-31000D02*
D03*
X388000D02*
D03*
X401000D02*
D03*
X388000Y-21000D02*
D03*
X375000Y-87000D02*
D03*
X401000D02*
D03*
Y-67000D02*
D03*
X375000D02*
D03*
X388000Y-87000D02*
D03*
X375000Y-77000D02*
D03*
X388000D02*
D03*
X401000D02*
D03*
X388000Y-67000D02*
D03*
X375000Y-133000D02*
D03*
X401000D02*
D03*
Y-113000D02*
D03*
X375000D02*
D03*
X388000Y-133000D02*
D03*
X375000Y-123000D02*
D03*
X388000D02*
D03*
X401000D02*
D03*
X388000Y-113000D02*
D03*
X375000Y-179000D02*
D03*
X401000D02*
D03*
Y-159000D02*
D03*
X375000D02*
D03*
X388000Y-179000D02*
D03*
X375000Y-169000D02*
D03*
X388000D02*
D03*
X401000D02*
D03*
X388000Y-159000D02*
D03*
X375000Y-225000D02*
D03*
X401000D02*
D03*
Y-205000D02*
D03*
X375000D02*
D03*
X388000Y-225000D02*
D03*
X375000Y-215000D02*
D03*
X388000D02*
D03*
X401000D02*
D03*
X388000Y-205000D02*
D03*
Y-251000D02*
D03*
X401000Y-261000D02*
D03*
X388000D02*
D03*
X375000D02*
D03*
X388000Y-271000D02*
D03*
X375000Y-251000D02*
D03*
X401000D02*
D03*
Y-271000D02*
D03*
X375000D02*
D03*
X530000Y-44000D02*
D03*
X821000Y-67000D02*
D03*
X714000Y-85000D02*
D03*
X744000Y29000D02*
D03*
X839000Y-67000D02*
D03*
X714000Y23000D02*
D03*
X859000Y-67000D02*
D03*
X737000Y34000D02*
D03*
X849000Y-67000D02*
D03*
X829000D02*
D03*
X750000Y23000D02*
D03*
X705000Y10000D02*
D03*
X707000Y0D02*
D03*
X706000Y23000D02*
D03*
X750000Y1000D02*
D03*
X529750Y92250D02*
D03*
X521750D02*
D03*
X529750Y46250D02*
D03*
X521750D02*
D03*
X529750Y250D02*
D03*
X521750D02*
D03*
Y-45750D02*
D03*
X529750Y-91750D02*
D03*
X521750D02*
D03*
X529750Y-137750D02*
D03*
X521750D02*
D03*
X529750Y-183750D02*
D03*
X521750D02*
D03*
X529750Y-229750D02*
D03*
X521750D02*
D03*
X537000Y-261000D02*
D03*
Y-269000D02*
D03*
X897000Y-64000D02*
D03*
X783000Y-221000D02*
D03*
X773000D02*
D03*
X637000Y-130000D02*
D03*
X570000Y-265000D02*
D03*
Y-255000D02*
D03*
X590000Y-245000D02*
D03*
X859000Y-3000D02*
D03*
X787000Y-113000D02*
D03*
X808000Y-69000D02*
D03*
X687000Y-46000D02*
D03*
Y-56000D02*
D03*
X663000Y66000D02*
D03*
X687000D02*
D03*
X645000Y-156000D02*
D03*
X597000Y-266000D02*
D03*
X623000D02*
D03*
X625000Y-243000D02*
D03*
X632000Y-233000D02*
D03*
X619000Y-221000D02*
D03*
X597000Y-213000D02*
D03*
X603000Y-225000D02*
D03*
X611000D02*
D03*
X650000D02*
D03*
Y-205000D02*
D03*
X660000Y-215000D02*
D03*
X604000Y-146000D02*
D03*
X610000Y-186000D02*
D03*
X628000D02*
D03*
Y-168000D02*
D03*
X610000D02*
D03*
X637000Y-146000D02*
D03*
X623000D02*
D03*
X615000D02*
D03*
X781000Y228000D02*
D03*
Y253000D02*
D03*
Y245000D02*
D03*
Y237000D02*
D03*
X832000Y245000D02*
D03*
X808000D02*
D03*
Y276000D02*
D03*
X832000D02*
D03*
Y268000D02*
D03*
X808000D02*
D03*
X931000Y275000D02*
D03*
X970000Y271000D02*
D03*
Y279000D02*
D03*
X843000Y140000D02*
D03*
Y155000D02*
D03*
Y148000D02*
D03*
X925000Y141000D02*
D03*
Y148000D02*
D03*
Y155000D02*
D03*
Y163000D02*
D03*
Y174000D02*
D03*
Y185000D02*
D03*
X863000Y162000D02*
D03*
Y169000D02*
D03*
X872000Y167000D02*
D03*
X877000Y162000D02*
D03*
X545000Y-283000D02*
D03*
X537000D02*
D03*
X914000Y-89000D02*
D03*
X889000Y-91000D02*
D03*
Y-77000D02*
D03*
X897000Y-53000D02*
D03*
X889000Y-60000D02*
D03*
X847000Y-51000D02*
D03*
Y-27000D02*
D03*
Y-35000D02*
D03*
X886000Y-2000D02*
D03*
Y35000D02*
D03*
X905000Y-93000D02*
D03*
X923000D02*
D03*
X839000Y-242000D02*
D03*
X854000Y-189000D02*
D03*
X823000Y-157000D02*
D03*
X895000Y-166000D02*
D03*
X843000Y-148000D02*
D03*
X851000D02*
D03*
X795000Y-255000D02*
D03*
X775000Y-285000D02*
D03*
X705000D02*
D03*
Y-260000D02*
D03*
X685000Y-255000D02*
D03*
X699000Y-197000D02*
D03*
X714000Y-189000D02*
D03*
X735000D02*
D03*
X725000Y-170000D02*
D03*
X801000Y-229000D02*
D03*
X783000Y-245000D02*
D03*
X712000Y-221000D02*
D03*
X930000Y-134000D02*
D03*
X886000Y-158000D02*
D03*
X895000Y-148000D02*
D03*
X933000Y-162000D02*
D03*
Y-170000D02*
D03*
X492000Y-257000D02*
D03*
Y-211000D02*
D03*
Y-165000D02*
D03*
Y-119000D02*
D03*
Y-73000D02*
D03*
Y-27000D02*
D03*
Y19000D02*
D03*
Y111000D02*
D03*
Y157000D02*
D03*
Y65000D02*
D03*
Y203000D02*
D03*
Y249000D02*
D03*
X745000Y190000D02*
D03*
X720000Y263000D02*
D03*
Y271000D02*
D03*
X695000Y263000D02*
D03*
Y271000D02*
D03*
X745000Y263000D02*
D03*
Y271000D02*
D03*
X686000Y233000D02*
D03*
Y223000D02*
D03*
X696000Y190000D02*
D03*
Y198000D02*
D03*
X745000D02*
D03*
X860000Y220000D02*
D03*
X854000Y127000D02*
D03*
X915000Y195000D02*
D03*
X897000Y155000D02*
D03*
Y142000D02*
D03*
X868000Y220000D02*
D03*
X876000D02*
D03*
X853000Y216000D02*
D03*
X840000Y195000D02*
D03*
X820000D02*
D03*
X801000D02*
D03*
X856000Y237000D02*
D03*
Y268000D02*
D03*
Y276000D02*
D03*
X890000Y210000D02*
D03*
X782000Y112000D02*
D03*
X796000Y98000D02*
D03*
X804000Y92000D02*
D03*
X834000Y82000D02*
D03*
X810000Y79000D02*
D03*
X822000Y67000D02*
D03*
X897000Y-43000D02*
D03*
X930000Y95000D02*
D03*
Y85000D02*
D03*
X913000Y-2000D02*
D03*
X905000D02*
D03*
X912000Y37000D02*
D03*
X902000D02*
D03*
X687000Y35000D02*
D03*
Y-37000D02*
D03*
X663000Y35000D02*
D03*
Y15000D02*
D03*
Y25000D02*
D03*
Y45000D02*
D03*
X698000Y18000D02*
D03*
X730000Y40000D02*
D03*
X724000Y46000D02*
D03*
X718000Y52000D02*
D03*
X636000Y-39000D02*
D03*
Y-47000D02*
D03*
X704000Y-103000D02*
D03*
X824000Y32000D02*
D03*
X801000Y24000D02*
D03*
X794000Y17000D02*
D03*
X830000Y-45000D02*
D03*
Y-53000D02*
D03*
X700000Y56000D02*
D03*
X786000Y45000D02*
D03*
X780000Y39000D02*
D03*
X708000Y56000D02*
D03*
X689000Y4000D02*
D03*
X585000Y-195000D02*
D03*
X581000Y-167000D02*
D03*
X589000D02*
D03*
X596000Y-146000D02*
D03*
X772000Y228000D02*
D03*
Y237000D02*
D03*
X594000Y-56000D02*
D03*
Y-36000D02*
D03*
Y-16000D02*
D03*
Y4000D02*
D03*
Y24000D02*
D03*
X814000Y67000D02*
D03*
X737000Y198000D02*
D03*
X729000D02*
D03*
X721000D02*
D03*
X773000Y121000D02*
D03*
X600000Y14000D02*
D03*
Y-6000D02*
D03*
Y-26000D02*
D03*
Y-46000D02*
D03*
Y-66000D02*
D03*
X606000Y-56000D02*
D03*
Y-36000D02*
D03*
Y-16000D02*
D03*
Y4000D02*
D03*
Y24000D02*
D03*
X596000Y47000D02*
D03*
X726000Y222000D02*
D03*
X780000Y55000D02*
D03*
X745000Y211000D02*
D03*
X753000Y198000D02*
D03*
X746000Y167000D02*
D03*
X230000Y135000D02*
D03*
X215000D02*
D03*
X597000Y-130000D02*
D03*
X785000Y158000D02*
D03*
X800000Y143000D02*
D03*
X920000Y129000D02*
D03*
X716000Y62000D02*
D03*
X872000Y69000D02*
D03*
Y58000D02*
D03*
X711000Y-111000D02*
D03*
X737000D02*
D03*
X837000Y-3000D02*
D03*
X930000Y105000D02*
D03*
Y116000D02*
D03*
X822000Y113000D02*
D03*
X858000Y95000D02*
D03*
X818000Y26000D02*
D03*
X905000Y115000D02*
D03*
X924000Y275000D02*
D03*
X744000Y151000D02*
D03*
X773000Y-17000D02*
D03*
X728000Y-128000D02*
D03*
X740000D02*
D03*
X752000D02*
D03*
X775000Y-143000D02*
D03*
X649000Y125000D02*
D03*
X656000D02*
D03*
X595000Y74000D02*
D03*
X816000Y50000D02*
D03*
X565000Y-134000D02*
D03*
X650000Y245000D02*
D03*
Y235000D02*
D03*
X584000Y156000D02*
D03*
X721000Y-67000D02*
D03*
X729000D02*
D03*
X737000D02*
D03*
X745000D02*
D03*
X672000Y96000D02*
D03*
X734000Y79000D02*
D03*
X765000Y65000D02*
D03*
X610000Y201000D02*
D03*
X562000Y221000D02*
D03*
Y229000D02*
D03*
X610000Y193000D02*
D03*
X600000Y165000D02*
D03*
X610000D02*
D03*
X677000Y136000D02*
D03*
X688000Y125000D02*
D03*
X635000Y150000D02*
D03*
X660000D02*
D03*
X635000Y175000D02*
D03*
X584000Y165000D02*
D03*
X607000Y135000D02*
D03*
X669000Y235000D02*
D03*
X639000Y205000D02*
D03*
Y255000D02*
D03*
X610000Y211000D02*
D03*
X868000Y260000D02*
D03*
X789000Y105000D02*
D03*
D86*
X1354000Y-130000D02*
D03*
X1334000D02*
D03*
X1314000D02*
D03*
X1294000D02*
D03*
Y-110000D02*
D03*
Y-90000D02*
D03*
Y-70000D02*
D03*
Y-50000D02*
D03*
X1358000Y65000D02*
D03*
Y45000D02*
D03*
Y25000D02*
D03*
Y5000D02*
D03*
Y-15000D02*
D03*
X1318000Y65000D02*
D03*
Y45000D02*
D03*
Y25000D02*
D03*
Y5000D02*
D03*
Y-15000D02*
D03*
X1338000D02*
D03*
Y5000D02*
D03*
Y25000D02*
D03*
Y45000D02*
D03*
Y65000D02*
D03*
X1314000Y-50000D02*
D03*
Y-70000D02*
D03*
Y-90000D02*
D03*
Y-110000D02*
D03*
X1334000Y-50000D02*
D03*
Y-70000D02*
D03*
Y-90000D02*
D03*
Y-110000D02*
D03*
X1354000Y-50000D02*
D03*
Y-70000D02*
D03*
Y-90000D02*
D03*
Y-110000D02*
D03*
X1298000Y-15000D02*
D03*
Y5000D02*
D03*
Y25000D02*
D03*
Y45000D02*
D03*
Y65000D02*
D03*
X1278000Y-15000D02*
D03*
Y5000D02*
D03*
Y25000D02*
D03*
Y45000D02*
D03*
Y65000D02*
D03*
X945000Y-65000D02*
D03*
X965000D02*
D03*
X985000D02*
D03*
X1005000D02*
D03*
X1025000D02*
D03*
X1045000D02*
D03*
X1065000D02*
D03*
X1085000D02*
D03*
X1105000D02*
D03*
X1125000D02*
D03*
X1145000D02*
D03*
X945000Y-43000D02*
D03*
X965000D02*
D03*
X985000D02*
D03*
X1005000D02*
D03*
X1025000D02*
D03*
X1045000D02*
D03*
X1065000D02*
D03*
X1085000D02*
D03*
X1105000D02*
D03*
X1125000D02*
D03*
X1145000D02*
D03*
X945000Y-23000D02*
D03*
X965000D02*
D03*
X985000D02*
D03*
X1005000D02*
D03*
X1025000D02*
D03*
X1045000D02*
D03*
X1065000D02*
D03*
X1085000D02*
D03*
X1105000D02*
D03*
X1125000D02*
D03*
X1145000D02*
D03*
X945000Y-3000D02*
D03*
X965000D02*
D03*
X985000D02*
D03*
X1005000D02*
D03*
X1025000D02*
D03*
X1045000D02*
D03*
X1065000D02*
D03*
X1085000D02*
D03*
X1105000D02*
D03*
X1125000D02*
D03*
X1145000D02*
D03*
X945000Y17000D02*
D03*
X965000D02*
D03*
X985000D02*
D03*
X1005000D02*
D03*
X1025000D02*
D03*
X1045000D02*
D03*
X1065000D02*
D03*
X1085000D02*
D03*
X1105000D02*
D03*
X1125000D02*
D03*
X1145000D02*
D03*
X305000Y270000D02*
D03*
X1255000Y70000D02*
D03*
X163000Y-285000D02*
D03*
Y-270000D02*
D03*
Y-255000D02*
D03*
Y255000D02*
D03*
Y270000D02*
D03*
Y285000D02*
D03*
X213000Y-146500D02*
D03*
X191000D02*
D03*
X213000Y146500D02*
D03*
X191000D02*
D03*
X930000Y-200000D02*
D03*
X905000D02*
D03*
X1154000Y-80000D02*
D03*
X1140000D02*
D03*
X1125000D02*
D03*
X1110000D02*
D03*
X1095000D02*
D03*
X1080000D02*
D03*
X1050000D02*
D03*
X1035000D02*
D03*
X1020000D02*
D03*
X1005000D02*
D03*
X990000D02*
D03*
X975000D02*
D03*
X960000D02*
D03*
X1100000Y165000D02*
D03*
X1070000D02*
D03*
X1085000D02*
D03*
X257000Y285000D02*
D03*
X1155000Y-142000D02*
D03*
X1148000Y-150000D02*
D03*
X1219000Y-132000D02*
D03*
X1185000Y-111000D02*
D03*
X1315000Y110000D02*
D03*
X1305000D02*
D03*
X1175000Y-111000D02*
D03*
X1255000Y55000D02*
D03*
Y40000D02*
D03*
Y25000D02*
D03*
Y10000D02*
D03*
Y-5000D02*
D03*
Y-20000D02*
D03*
X1195000Y-25000D02*
D03*
X1215000D02*
D03*
X1235000D02*
D03*
Y25000D02*
D03*
X1215000D02*
D03*
X1195000D02*
D03*
X1180000Y-25000D02*
D03*
Y-10000D02*
D03*
Y5000D02*
D03*
Y20000D02*
D03*
X1165000D02*
D03*
Y5000D02*
D03*
Y-10000D02*
D03*
Y-25000D02*
D03*
X1164000Y45000D02*
D03*
X1145000Y43000D02*
D03*
X1125000D02*
D03*
X946900Y-80000D02*
D03*
X1110000Y55000D02*
D03*
X1105000Y43000D02*
D03*
X1090000Y55000D02*
D03*
X1085000Y43000D02*
D03*
X1070000Y55000D02*
D03*
X1065000Y43000D02*
D03*
X1050000Y55000D02*
D03*
X1045000Y43000D02*
D03*
X1030000Y55000D02*
D03*
X1025000Y43000D02*
D03*
X1010000Y55000D02*
D03*
X1005000Y43000D02*
D03*
X990000Y55000D02*
D03*
X985000Y43000D02*
D03*
X970000Y55000D02*
D03*
X965000Y43000D02*
D03*
X950000Y55000D02*
D03*
X945000Y43000D02*
D03*
X1147000Y58000D02*
D03*
X1225000Y-250000D02*
D03*
X1215000D02*
D03*
X1205000D02*
D03*
Y-220000D02*
D03*
X1225000D02*
D03*
X1215000D02*
D03*
X1245000Y-105000D02*
D03*
Y-92000D02*
D03*
Y-80000D02*
D03*
X1205000Y-132000D02*
D03*
X1233000D02*
D03*
Y-92000D02*
D03*
X1219000D02*
D03*
X1205000D02*
D03*
Y-80000D02*
D03*
X1233000D02*
D03*
X1219000D02*
D03*
Y-105000D02*
D03*
X1233000D02*
D03*
X1205000D02*
D03*
X1245000Y-132000D02*
D03*
Y-118000D02*
D03*
Y-67000D02*
D03*
X1100000Y-171000D02*
D03*
X1055000Y-200000D02*
D03*
Y-225000D02*
D03*
Y-250000D02*
D03*
X1070000D02*
D03*
X1100000D02*
D03*
X1085000D02*
D03*
X1100000Y-185000D02*
D03*
Y-200000D02*
D03*
Y-215000D02*
D03*
X1070000D02*
D03*
Y-185000D02*
D03*
Y-200000D02*
D03*
X1085000Y-215000D02*
D03*
Y-200000D02*
D03*
Y-185000D02*
D03*
Y-169000D02*
D03*
X1070000Y-170000D02*
D03*
X1100000Y-160000D02*
D03*
X1080000Y-158000D02*
D03*
Y-140000D02*
D03*
X1089000Y-149000D02*
D03*
X1100000Y-140000D02*
D03*
X1115000Y-160000D02*
D03*
X1105000Y-120000D02*
D03*
Y-100000D02*
D03*
X1115000Y-140000D02*
D03*
X1135000Y-150000D02*
D03*
Y-140000D02*
D03*
X1155000Y-120000D02*
D03*
Y-100000D02*
D03*
X1035000Y-140000D02*
D03*
X1010000D02*
D03*
X960000D02*
D03*
X985000D02*
D03*
Y-120000D02*
D03*
Y-100000D02*
D03*
X257000Y-285000D02*
D03*
Y-270000D02*
D03*
Y-255000D02*
D03*
X323000Y-250000D02*
D03*
X451500Y-240000D02*
D03*
X323000Y-204000D02*
D03*
X451500Y-194000D02*
D03*
X323000Y-158000D02*
D03*
X451500Y-148000D02*
D03*
X323000Y-112000D02*
D03*
X451500Y-102000D02*
D03*
X323000Y-66000D02*
D03*
X451500Y-56000D02*
D03*
X323000Y-20000D02*
D03*
X451500Y-10000D02*
D03*
X323000Y26000D02*
D03*
X451500Y36000D02*
D03*
X323000Y118000D02*
D03*
X451500Y128000D02*
D03*
X323000Y164000D02*
D03*
X451500Y174000D02*
D03*
X323000Y72000D02*
D03*
X451500Y82000D02*
D03*
X323000Y210000D02*
D03*
X451500Y220000D02*
D03*
X323000Y256000D02*
D03*
X451500Y266000D02*
D03*
X305000Y-268000D02*
D03*
X317000Y-179000D02*
D03*
Y-87000D02*
D03*
Y5000D02*
D03*
Y97000D02*
D03*
Y189000D02*
D03*
X1051000Y125000D02*
D03*
Y135000D02*
D03*
X949000Y125000D02*
D03*
Y135000D02*
D03*
X962000D02*
D03*
Y125000D02*
D03*
X975000Y135000D02*
D03*
Y125000D02*
D03*
X988000Y135000D02*
D03*
Y125000D02*
D03*
X1038000D02*
D03*
Y135000D02*
D03*
X1025000Y125000D02*
D03*
Y135000D02*
D03*
X1012000Y125000D02*
D03*
Y135000D02*
D03*
X1000000Y125000D02*
D03*
Y135000D02*
D03*
X257000Y270000D02*
D03*
Y255000D02*
D03*
X213000Y45000D02*
D03*
Y-105000D02*
D03*
Y-75000D02*
D03*
Y-45000D02*
D03*
Y-15000D02*
D03*
Y15000D02*
D03*
Y75000D02*
D03*
X1160000Y150000D02*
D03*
X1231000Y163000D02*
D03*
X1215000Y-290000D02*
D03*
X1200000D02*
D03*
X1230000D02*
D03*
X1085000D02*
D03*
X1100000D02*
D03*
X1070000D02*
D03*
X1180000Y-160000D02*
D03*
X860000Y-285000D02*
D03*
X988000Y-290000D02*
D03*
X1067000Y-80000D02*
D03*
X1054000Y-150000D02*
D03*
Y-163000D02*
D03*
Y-175000D02*
D03*
X1275000Y-78000D02*
D03*
Y-90000D02*
D03*
Y-102000D02*
D03*
Y-115000D02*
D03*
Y-128000D02*
D03*
X1068000Y95000D02*
D03*
X1080000Y99000D02*
D03*
X1070000Y130000D02*
D03*
X1095000D02*
D03*
X1125000Y102000D02*
D03*
X1159000D02*
D03*
X1260000Y-128000D02*
D03*
Y-115000D02*
D03*
Y-102000D02*
D03*
Y-90000D02*
D03*
Y-78000D02*
D03*
Y-66000D02*
D03*
X1275000D02*
D03*
D87*
X574000Y-111150D02*
D03*
X563000D02*
D03*
X552000D02*
D03*
X541000D02*
D03*
X618000D02*
D03*
X607000D02*
D03*
X596000D02*
D03*
X585000D02*
D03*
D88*
X527000Y-110250D02*
D03*
D89*
X520450Y-200250D02*
D03*
D90*
X653500Y-110250D02*
D03*
D91*
X520450Y-125750D02*
D03*
D92*
X656500Y-259750D02*
D03*
X521500D02*
D03*
D93*
X550000Y179000D02*
D03*
X560000D02*
D03*
X570000D02*
D03*
X580000D02*
D03*
X590000D02*
D03*
X600000D02*
D03*
X610000D02*
D03*
X620000D02*
D03*
D94*
X626100Y195000D02*
D03*
Y205000D02*
D03*
Y215000D02*
D03*
Y225000D02*
D03*
Y235000D02*
D03*
Y245000D02*
D03*
Y255000D02*
D03*
Y265000D02*
D03*
X543900D02*
D03*
Y255000D02*
D03*
Y245000D02*
D03*
Y235000D02*
D03*
Y225000D02*
D03*
Y215000D02*
D03*
Y205000D02*
D03*
Y195000D02*
D03*
D95*
X624100Y285000D02*
D03*
X595000Y252500D02*
D03*
X545900Y285000D02*
D03*
X575000Y252500D02*
D03*
M02*
