G04 Layer_Color=128*
%FSLAX44Y44*%
%MOMM*%
G71*
G01*
G75*
%ADD12R,1.1000X1.4000*%
%ADD49R,0.8000X1.6000*%
%ADD50R,2.1000X3.0000*%
%ADD67R,11.2000X2.0500*%
%ADD90R,1.5000X1.7000*%
%ADD91R,1.2900X1.3000*%
%ADD92R,1.7000X1.5000*%
%ADD93R,1.2900X1.4000*%
%ADD94R,1.6000X1.5000*%
%ADD95R,0.8000X1.6800*%
D12*
X582750Y-84000D02*
D03*
X565250D02*
D03*
X725250Y-221000D02*
D03*
X742750D02*
D03*
D49*
X727500Y-245500D02*
D03*
X752500D02*
D03*
X740000D02*
D03*
X765000D02*
D03*
X715000D02*
D03*
X732500Y246000D02*
D03*
X707500D02*
D03*
X720000D02*
D03*
X695000D02*
D03*
X745000D02*
D03*
X727500Y-141500D02*
D03*
X752500D02*
D03*
X740000D02*
D03*
X765000D02*
D03*
X715000D02*
D03*
D50*
X790500Y-275000D02*
D03*
X689500D02*
D03*
X669500Y275500D02*
D03*
X770500D02*
D03*
X790500Y-171000D02*
D03*
X689500D02*
D03*
D67*
X1000000Y73000D02*
D03*
X999998Y107002D02*
D03*
D90*
X521500Y-259750D02*
D03*
X656500D02*
D03*
D91*
X520450Y-125750D02*
D03*
D92*
X653500Y-110250D02*
D03*
D93*
X520450Y-200250D02*
D03*
D94*
X527000Y-110250D02*
D03*
D95*
X585000Y-111150D02*
D03*
X596000D02*
D03*
X607000D02*
D03*
X618000D02*
D03*
X541000D02*
D03*
X552000D02*
D03*
X563000D02*
D03*
X574000D02*
D03*
M02*
