G04 Layer_Color=128*
%FSLAX44Y44*%
%MOMM*%
G71*
G01*
G75*
%ADD20R,1.1000X1.4000*%
%ADD51R,2.1000X3.0000*%
%ADD52R,0.8000X1.6000*%
%ADD65R,11.2000X2.0500*%
%ADD87R,0.8000X1.6800*%
%ADD88R,1.6000X1.5000*%
%ADD89R,1.2900X1.4000*%
%ADD90R,1.7000X1.5000*%
%ADD91R,1.2900X1.3000*%
%ADD92R,1.5000X1.7000*%
G04:AMPARAMS|DCode=93|XSize=1.5mm|YSize=0.61mm|CornerRadius=0.0915mm|HoleSize=0mm|Usage=FLASHONLY|Rotation=90.000|XOffset=0mm|YOffset=0mm|HoleType=Round|Shape=RoundedRectangle|*
%AMROUNDEDRECTD93*
21,1,1.5000,0.4270,0,0,90.0*
21,1,1.3170,0.6100,0,0,90.0*
1,1,0.1830,0.2135,0.6585*
1,1,0.1830,0.2135,-0.6585*
1,1,0.1830,-0.2135,-0.6585*
1,1,0.1830,-0.2135,0.6585*
%
%ADD93ROUNDEDRECTD93*%
G04:AMPARAMS|DCode=94|XSize=1.5mm|YSize=0.61mm|CornerRadius=0.0915mm|HoleSize=0mm|Usage=FLASHONLY|Rotation=180.000|XOffset=0mm|YOffset=0mm|HoleType=Round|Shape=RoundedRectangle|*
%AMROUNDEDRECTD94*
21,1,1.5000,0.4270,0,0,180.0*
21,1,1.3170,0.6100,0,0,180.0*
1,1,0.1830,-0.6585,0.2135*
1,1,0.1830,0.6585,0.2135*
1,1,0.1830,0.6585,-0.2135*
1,1,0.1830,-0.6585,-0.2135*
%
%ADD94ROUNDEDRECTD94*%
G04:AMPARAMS|DCode=95|XSize=1mm|YSize=1mm|CornerRadius=0.15mm|HoleSize=0mm|Usage=FLASHONLY|Rotation=180.000|XOffset=0mm|YOffset=0mm|HoleType=Round|Shape=RoundedRectangle|*
%AMROUNDEDRECTD95*
21,1,1.0000,0.7000,0,0,180.0*
21,1,0.7000,1.0000,0,0,180.0*
1,1,0.3000,-0.3500,0.3500*
1,1,0.3000,0.3500,0.3500*
1,1,0.3000,0.3500,-0.3500*
1,1,0.3000,-0.3500,-0.3500*
%
%ADD95ROUNDEDRECTD95*%
D20*
X582750Y-84000D02*
D03*
X565250D02*
D03*
X725250Y-221000D02*
D03*
X742750D02*
D03*
D51*
X689500Y-275000D02*
D03*
X790500D02*
D03*
X770500Y275500D02*
D03*
X669500D02*
D03*
X689500Y-171000D02*
D03*
X790500D02*
D03*
D52*
X715000Y-245500D02*
D03*
X765000D02*
D03*
X740000D02*
D03*
X752500D02*
D03*
X727500D02*
D03*
X745000Y246000D02*
D03*
X695000D02*
D03*
X720000D02*
D03*
X707500D02*
D03*
X732500D02*
D03*
X715000Y-141500D02*
D03*
X765000D02*
D03*
X740000D02*
D03*
X752500D02*
D03*
X727500D02*
D03*
D65*
X999998Y107002D02*
D03*
X1000000Y73000D02*
D03*
D87*
X574000Y-111150D02*
D03*
X563000D02*
D03*
X552000D02*
D03*
X541000D02*
D03*
X618000D02*
D03*
X607000D02*
D03*
X596000D02*
D03*
X585000D02*
D03*
D88*
X527000Y-110250D02*
D03*
D89*
X520450Y-200250D02*
D03*
D90*
X653500Y-110250D02*
D03*
D91*
X520450Y-125750D02*
D03*
D92*
X656500Y-259750D02*
D03*
X521500D02*
D03*
D93*
X550000Y179000D02*
D03*
X560000D02*
D03*
X570000D02*
D03*
X580000D02*
D03*
X590000D02*
D03*
X600000D02*
D03*
X610000D02*
D03*
X620000D02*
D03*
D94*
X626100Y195000D02*
D03*
Y205000D02*
D03*
Y215000D02*
D03*
Y225000D02*
D03*
Y235000D02*
D03*
Y245000D02*
D03*
Y255000D02*
D03*
Y265000D02*
D03*
X543900D02*
D03*
Y255000D02*
D03*
Y245000D02*
D03*
Y235000D02*
D03*
Y225000D02*
D03*
Y215000D02*
D03*
Y205000D02*
D03*
Y195000D02*
D03*
D95*
X624100Y285000D02*
D03*
X595000Y252500D02*
D03*
X545900Y285000D02*
D03*
X575000Y252500D02*
D03*
M02*
