G04 Layer_Physical_Order=2*
G04 Layer_Color=36540*
%FSLAX44Y44*%
%MOMM*%
G71*
G01*
G75*
%ADD77C,0.3000*%
%ADD79C,1.0000*%
%ADD81C,0.5000*%
%ADD82C,2.0000*%
%ADD83C,1.9000*%
%ADD85C,0.5500*%
%ADD86C,0.8000*%
G36*
X1356131Y296572D02*
X1362158Y295373D01*
X1367976Y293398D01*
X1373487Y290680D01*
X1378596Y287267D01*
X1383215Y283215D01*
X1387267Y278596D01*
X1390680Y273487D01*
X1393398Y267976D01*
X1395373Y262158D01*
X1396572Y256131D01*
X1396966Y250122D01*
X1396941Y250000D01*
Y-250000D01*
X1396966Y-250122D01*
X1396572Y-256131D01*
X1395373Y-262158D01*
X1393398Y-267976D01*
X1390680Y-273487D01*
X1387267Y-278596D01*
X1383215Y-283215D01*
X1378596Y-287267D01*
X1373487Y-290680D01*
X1367976Y-293398D01*
X1362158Y-295373D01*
X1356131Y-296572D01*
X1350122Y-296966D01*
X1350000Y-296941D01*
X834000D01*
X834000Y-244000D01*
X825000Y-235000D01*
Y-165000D01*
X810000Y-150000D01*
X680000Y-150000D01*
X665000Y-165000D01*
X665000Y-296941D01*
X200000D01*
Y-245000D01*
X175000Y-220000D01*
Y220000D01*
X200000Y245000D01*
Y296941D01*
X485000D01*
X485000Y269999D01*
X490000Y265000D01*
X650000Y265000D01*
X655000Y270000D01*
Y296941D01*
X1350000D01*
X1350122Y296966D01*
X1356131Y296572D01*
D02*
G37*
G36*
X50000Y296941D02*
X189998D01*
X189998Y249998D01*
X180000Y240000D01*
X160000Y220000D01*
Y-220000D01*
X180000Y-240000D01*
X190000Y-250000D01*
X190000Y-296941D01*
X50000D01*
X49878Y-296966D01*
X43869Y-296572D01*
X37842Y-295373D01*
X32024Y-293398D01*
X26513Y-290680D01*
X21404Y-287267D01*
X16785Y-283215D01*
X12733Y-278596D01*
X9320Y-273487D01*
X6602Y-267976D01*
X4627Y-262158D01*
X3428Y-256131D01*
X3034Y-250122D01*
X3059Y-250000D01*
Y-50000D01*
X40000D01*
Y50000D01*
X3059D01*
Y250000D01*
X3034Y250122D01*
X3428Y256131D01*
X4627Y262158D01*
X6602Y267976D01*
X9320Y273487D01*
X12733Y278596D01*
X16785Y283215D01*
X21404Y287267D01*
X26513Y290680D01*
X32024Y293398D01*
X37842Y295373D01*
X43869Y296572D01*
X49878Y296966D01*
X50000Y296941D01*
D02*
G37*
%LPC*%
G36*
X636000Y-34157D02*
X634147Y-34526D01*
X632575Y-35575D01*
X631526Y-37147D01*
X631157Y-39000D01*
X631526Y-40853D01*
X632575Y-42425D01*
Y-43576D01*
X631526Y-45147D01*
X631157Y-47000D01*
X631526Y-48853D01*
X632575Y-50425D01*
X634147Y-51474D01*
X636000Y-51843D01*
X637853Y-51474D01*
X639425Y-50425D01*
X640474Y-48853D01*
X640843Y-47000D01*
X640474Y-45147D01*
X639425Y-43576D01*
Y-42425D01*
X640474Y-40853D01*
X640843Y-39000D01*
X640474Y-37147D01*
X639425Y-35575D01*
X637853Y-34526D01*
X636000Y-34157D01*
D02*
G37*
G36*
X213000Y-36931D02*
X210912Y-37206D01*
X208965Y-38012D01*
X207294Y-39294D01*
X206012Y-40965D01*
X205206Y-42912D01*
X204931Y-45000D01*
X205206Y-47088D01*
X206012Y-49035D01*
X207294Y-50706D01*
X208965Y-51988D01*
X210912Y-52794D01*
X213000Y-53069D01*
X215088Y-52794D01*
X217034Y-51988D01*
X218706Y-50706D01*
X219988Y-49035D01*
X220794Y-47088D01*
X221069Y-45000D01*
X220794Y-42912D01*
X219988Y-40965D01*
X218706Y-39294D01*
X217034Y-38012D01*
X215088Y-37206D01*
X213000Y-36931D01*
D02*
G37*
G36*
X965000Y-34931D02*
X962912Y-35206D01*
X960965Y-36012D01*
X959294Y-37294D01*
X958012Y-38965D01*
X957206Y-40912D01*
X956931Y-43000D01*
X957206Y-45088D01*
X958012Y-47035D01*
X959294Y-48706D01*
X960965Y-49988D01*
X962912Y-50794D01*
X965000Y-51069D01*
X967088Y-50794D01*
X969035Y-49988D01*
X970706Y-48706D01*
X971988Y-47035D01*
X972794Y-45088D01*
X973069Y-43000D01*
X972794Y-40912D01*
X971988Y-38965D01*
X970706Y-37294D01*
X969035Y-36012D01*
X967088Y-35206D01*
X965000Y-34931D01*
D02*
G37*
G36*
X945000D02*
X942912Y-35206D01*
X940965Y-36012D01*
X939294Y-37294D01*
X938012Y-38965D01*
X937206Y-40912D01*
X936931Y-43000D01*
X937206Y-45088D01*
X938012Y-47035D01*
X939294Y-48706D01*
X940965Y-49988D01*
X942912Y-50794D01*
X945000Y-51069D01*
X947088Y-50794D01*
X949035Y-49988D01*
X950706Y-48706D01*
X951988Y-47035D01*
X952794Y-45088D01*
X953069Y-43000D01*
X952794Y-40912D01*
X951988Y-38965D01*
X950706Y-37294D01*
X949035Y-36012D01*
X947088Y-35206D01*
X945000Y-34931D01*
D02*
G37*
G36*
X830000Y-40157D02*
X828147Y-40526D01*
X826575Y-41575D01*
X825526Y-43147D01*
X825157Y-45000D01*
X825526Y-46853D01*
X826575Y-48425D01*
Y-49576D01*
X825526Y-51147D01*
X825157Y-53000D01*
X825526Y-54853D01*
X826575Y-56425D01*
X828147Y-57474D01*
X830000Y-57843D01*
X831853Y-57474D01*
X833425Y-56425D01*
X834474Y-54853D01*
X834843Y-53000D01*
X834474Y-51147D01*
X833425Y-49576D01*
Y-48425D01*
X834474Y-46853D01*
X834843Y-45000D01*
X834474Y-43147D01*
X833425Y-41575D01*
X831853Y-40526D01*
X830000Y-40157D01*
D02*
G37*
G36*
X1314000Y-41931D02*
X1311912Y-42206D01*
X1309966Y-43012D01*
X1308294Y-44294D01*
X1307012Y-45965D01*
X1306206Y-47912D01*
X1305931Y-50000D01*
X1306206Y-52088D01*
X1307012Y-54035D01*
X1308294Y-55706D01*
X1309966Y-56988D01*
X1311912Y-57794D01*
X1314000Y-58069D01*
X1316088Y-57794D01*
X1318035Y-56988D01*
X1319706Y-55706D01*
X1320988Y-54035D01*
X1321794Y-52088D01*
X1322069Y-50000D01*
X1321794Y-47912D01*
X1320988Y-45965D01*
X1319706Y-44294D01*
X1318035Y-43012D01*
X1316088Y-42206D01*
X1314000Y-41931D01*
D02*
G37*
G36*
X1294000D02*
X1291912Y-42206D01*
X1289966Y-43012D01*
X1288294Y-44294D01*
X1287012Y-45965D01*
X1286206Y-47912D01*
X1285931Y-50000D01*
X1286206Y-52088D01*
X1287012Y-54035D01*
X1288294Y-55706D01*
X1289966Y-56988D01*
X1291912Y-57794D01*
X1294000Y-58069D01*
X1296088Y-57794D01*
X1298035Y-56988D01*
X1299706Y-55706D01*
X1300988Y-54035D01*
X1301794Y-52088D01*
X1302069Y-50000D01*
X1301794Y-47912D01*
X1300988Y-45965D01*
X1299706Y-44294D01*
X1298035Y-43012D01*
X1296088Y-42206D01*
X1294000Y-41931D01*
D02*
G37*
G36*
X1354000D02*
X1351912Y-42206D01*
X1349966Y-43012D01*
X1348294Y-44294D01*
X1347012Y-45965D01*
X1346206Y-47912D01*
X1345931Y-50000D01*
X1346206Y-52088D01*
X1347012Y-54035D01*
X1348294Y-55706D01*
X1349966Y-56988D01*
X1351912Y-57794D01*
X1354000Y-58069D01*
X1356088Y-57794D01*
X1358035Y-56988D01*
X1359706Y-55706D01*
X1360988Y-54035D01*
X1361794Y-52088D01*
X1362069Y-50000D01*
X1361794Y-47912D01*
X1360988Y-45965D01*
X1359706Y-44294D01*
X1358035Y-43012D01*
X1356088Y-42206D01*
X1354000Y-41931D01*
D02*
G37*
G36*
X1334000D02*
X1331912Y-42206D01*
X1329966Y-43012D01*
X1328294Y-44294D01*
X1327012Y-45965D01*
X1326206Y-47912D01*
X1325931Y-50000D01*
X1326206Y-52088D01*
X1327012Y-54035D01*
X1328294Y-55706D01*
X1329966Y-56988D01*
X1331912Y-57794D01*
X1334000Y-58069D01*
X1336088Y-57794D01*
X1338035Y-56988D01*
X1339706Y-55706D01*
X1340988Y-54035D01*
X1341794Y-52088D01*
X1342069Y-50000D01*
X1341794Y-47912D01*
X1340988Y-45965D01*
X1339706Y-44294D01*
X1338035Y-43012D01*
X1336088Y-42206D01*
X1334000Y-41931D01*
D02*
G37*
G36*
X1105000Y-34931D02*
X1102912Y-35206D01*
X1100965Y-36012D01*
X1099294Y-37294D01*
X1098012Y-38965D01*
X1097206Y-40912D01*
X1096931Y-43000D01*
X1097206Y-45088D01*
X1098012Y-47035D01*
X1099294Y-48706D01*
X1100965Y-49988D01*
X1102912Y-50794D01*
X1105000Y-51069D01*
X1107088Y-50794D01*
X1109035Y-49988D01*
X1110706Y-48706D01*
X1111988Y-47035D01*
X1112794Y-45088D01*
X1113069Y-43000D01*
X1112794Y-40912D01*
X1111988Y-38965D01*
X1110706Y-37294D01*
X1109035Y-36012D01*
X1107088Y-35206D01*
X1105000Y-34931D01*
D02*
G37*
G36*
X1085000D02*
X1082912Y-35206D01*
X1080965Y-36012D01*
X1079294Y-37294D01*
X1078012Y-38965D01*
X1077206Y-40912D01*
X1076931Y-43000D01*
X1077206Y-45088D01*
X1078012Y-47035D01*
X1079294Y-48706D01*
X1080965Y-49988D01*
X1082912Y-50794D01*
X1085000Y-51069D01*
X1087088Y-50794D01*
X1089035Y-49988D01*
X1090706Y-48706D01*
X1091988Y-47035D01*
X1092794Y-45088D01*
X1093069Y-43000D01*
X1092794Y-40912D01*
X1091988Y-38965D01*
X1090706Y-37294D01*
X1089035Y-36012D01*
X1087088Y-35206D01*
X1085000Y-34931D01*
D02*
G37*
G36*
X1145000D02*
X1142912Y-35206D01*
X1140965Y-36012D01*
X1139294Y-37294D01*
X1138012Y-38965D01*
X1137206Y-40912D01*
X1136931Y-43000D01*
X1137206Y-45088D01*
X1138012Y-47035D01*
X1139294Y-48706D01*
X1140965Y-49988D01*
X1142912Y-50794D01*
X1145000Y-51069D01*
X1147088Y-50794D01*
X1149035Y-49988D01*
X1150706Y-48706D01*
X1151988Y-47035D01*
X1152794Y-45088D01*
X1153069Y-43000D01*
X1152794Y-40912D01*
X1151988Y-38965D01*
X1150706Y-37294D01*
X1149035Y-36012D01*
X1147088Y-35206D01*
X1145000Y-34931D01*
D02*
G37*
G36*
X1125000D02*
X1122912Y-35206D01*
X1120965Y-36012D01*
X1119294Y-37294D01*
X1118012Y-38965D01*
X1117206Y-40912D01*
X1116931Y-43000D01*
X1117206Y-45088D01*
X1118012Y-47035D01*
X1119294Y-48706D01*
X1120965Y-49988D01*
X1122912Y-50794D01*
X1125000Y-51069D01*
X1127088Y-50794D01*
X1129035Y-49988D01*
X1130706Y-48706D01*
X1131988Y-47035D01*
X1132794Y-45088D01*
X1133069Y-43000D01*
X1132794Y-40912D01*
X1131988Y-38965D01*
X1130706Y-37294D01*
X1129035Y-36012D01*
X1127088Y-35206D01*
X1125000Y-34931D01*
D02*
G37*
G36*
X1065000D02*
X1062912Y-35206D01*
X1060965Y-36012D01*
X1059294Y-37294D01*
X1058012Y-38965D01*
X1057206Y-40912D01*
X1056931Y-43000D01*
X1057206Y-45088D01*
X1058012Y-47035D01*
X1059294Y-48706D01*
X1060965Y-49988D01*
X1062912Y-50794D01*
X1065000Y-51069D01*
X1067088Y-50794D01*
X1069035Y-49988D01*
X1070706Y-48706D01*
X1071988Y-47035D01*
X1072794Y-45088D01*
X1073069Y-43000D01*
X1072794Y-40912D01*
X1071988Y-38965D01*
X1070706Y-37294D01*
X1069035Y-36012D01*
X1067088Y-35206D01*
X1065000Y-34931D01*
D02*
G37*
G36*
X1005000D02*
X1002912Y-35206D01*
X1000965Y-36012D01*
X999294Y-37294D01*
X998012Y-38965D01*
X997206Y-40912D01*
X996931Y-43000D01*
X997206Y-45088D01*
X998012Y-47035D01*
X999294Y-48706D01*
X1000965Y-49988D01*
X1002912Y-50794D01*
X1005000Y-51069D01*
X1007088Y-50794D01*
X1009035Y-49988D01*
X1010706Y-48706D01*
X1011988Y-47035D01*
X1012794Y-45088D01*
X1013069Y-43000D01*
X1012794Y-40912D01*
X1011988Y-38965D01*
X1010706Y-37294D01*
X1009035Y-36012D01*
X1007088Y-35206D01*
X1005000Y-34931D01*
D02*
G37*
G36*
X985000D02*
X982912Y-35206D01*
X980965Y-36012D01*
X979294Y-37294D01*
X978012Y-38965D01*
X977206Y-40912D01*
X976931Y-43000D01*
X977206Y-45088D01*
X978012Y-47035D01*
X979294Y-48706D01*
X980965Y-49988D01*
X982912Y-50794D01*
X985000Y-51069D01*
X987088Y-50794D01*
X989035Y-49988D01*
X990706Y-48706D01*
X991988Y-47035D01*
X992794Y-45088D01*
X993069Y-43000D01*
X992794Y-40912D01*
X991988Y-38965D01*
X990706Y-37294D01*
X989035Y-36012D01*
X987088Y-35206D01*
X985000Y-34931D01*
D02*
G37*
G36*
X1045000D02*
X1042912Y-35206D01*
X1040965Y-36012D01*
X1039294Y-37294D01*
X1038012Y-38965D01*
X1037206Y-40912D01*
X1036931Y-43000D01*
X1037206Y-45088D01*
X1038012Y-47035D01*
X1039294Y-48706D01*
X1040965Y-49988D01*
X1042912Y-50794D01*
X1045000Y-51069D01*
X1047088Y-50794D01*
X1049035Y-49988D01*
X1050706Y-48706D01*
X1051988Y-47035D01*
X1052794Y-45088D01*
X1053069Y-43000D01*
X1052794Y-40912D01*
X1051988Y-38965D01*
X1050706Y-37294D01*
X1049035Y-36012D01*
X1047088Y-35206D01*
X1045000Y-34931D01*
D02*
G37*
G36*
X1025000D02*
X1022912Y-35206D01*
X1020965Y-36012D01*
X1019294Y-37294D01*
X1018012Y-38965D01*
X1017206Y-40912D01*
X1016931Y-43000D01*
X1017206Y-45088D01*
X1018012Y-47035D01*
X1019294Y-48706D01*
X1020965Y-49988D01*
X1022912Y-50794D01*
X1025000Y-51069D01*
X1027088Y-50794D01*
X1029035Y-49988D01*
X1030706Y-48706D01*
X1031988Y-47035D01*
X1032794Y-45088D01*
X1033069Y-43000D01*
X1032794Y-40912D01*
X1031988Y-38965D01*
X1030706Y-37294D01*
X1029035Y-36012D01*
X1027088Y-35206D01*
X1025000Y-34931D01*
D02*
G37*
G36*
X1354000Y-61931D02*
X1351912Y-62206D01*
X1349966Y-63012D01*
X1348294Y-64294D01*
X1347012Y-65965D01*
X1346206Y-67912D01*
X1345931Y-70000D01*
X1346206Y-72088D01*
X1347012Y-74035D01*
X1348294Y-75706D01*
X1349966Y-76988D01*
X1351912Y-77794D01*
X1354000Y-78069D01*
X1356088Y-77794D01*
X1358035Y-76988D01*
X1359706Y-75706D01*
X1360988Y-74035D01*
X1361794Y-72088D01*
X1362069Y-70000D01*
X1361794Y-67912D01*
X1360988Y-65965D01*
X1359706Y-64294D01*
X1358035Y-63012D01*
X1356088Y-62206D01*
X1354000Y-61931D01*
D02*
G37*
G36*
X1334000D02*
X1331912Y-62206D01*
X1329966Y-63012D01*
X1328294Y-64294D01*
X1327012Y-65965D01*
X1326206Y-67912D01*
X1325931Y-70000D01*
X1326206Y-72088D01*
X1327012Y-74035D01*
X1328294Y-75706D01*
X1329966Y-76988D01*
X1331912Y-77794D01*
X1334000Y-78069D01*
X1336088Y-77794D01*
X1338035Y-76988D01*
X1339706Y-75706D01*
X1340988Y-74035D01*
X1341794Y-72088D01*
X1342069Y-70000D01*
X1341794Y-67912D01*
X1340988Y-65965D01*
X1339706Y-64294D01*
X1338035Y-63012D01*
X1336088Y-62206D01*
X1334000Y-61931D01*
D02*
G37*
G36*
X323000Y-57931D02*
X320912Y-58206D01*
X318965Y-59012D01*
X317294Y-60294D01*
X316012Y-61965D01*
X315206Y-63912D01*
X314931Y-66000D01*
X315206Y-68088D01*
X316012Y-70034D01*
X317294Y-71706D01*
X318965Y-72988D01*
X320912Y-73794D01*
X323000Y-74069D01*
X325088Y-73794D01*
X327034Y-72988D01*
X328706Y-71706D01*
X329988Y-70034D01*
X330794Y-68088D01*
X331069Y-66000D01*
X330794Y-63912D01*
X329988Y-61965D01*
X328706Y-60294D01*
X327034Y-59012D01*
X325088Y-58206D01*
X323000Y-57931D01*
D02*
G37*
G36*
X1145000Y-56931D02*
X1142912Y-57206D01*
X1140965Y-58012D01*
X1139294Y-59294D01*
X1138012Y-60965D01*
X1137206Y-62912D01*
X1136931Y-65000D01*
X1137206Y-67088D01*
X1138012Y-69035D01*
X1139294Y-70706D01*
X1139336Y-70738D01*
X1138980Y-72065D01*
X1137912Y-72206D01*
X1135965Y-73012D01*
X1134294Y-74294D01*
X1133240Y-75669D01*
X1132765Y-75781D01*
X1132235D01*
X1131760Y-75669D01*
X1130706Y-74294D01*
X1129331Y-73240D01*
X1129219Y-72765D01*
Y-72235D01*
X1129331Y-71760D01*
X1130706Y-70706D01*
X1131988Y-69035D01*
X1132794Y-67088D01*
X1133069Y-65000D01*
X1132794Y-62912D01*
X1131988Y-60965D01*
X1130706Y-59294D01*
X1129035Y-58012D01*
X1127088Y-57206D01*
X1125000Y-56931D01*
X1122912Y-57206D01*
X1120965Y-58012D01*
X1119294Y-59294D01*
X1118012Y-60965D01*
X1117206Y-62912D01*
X1116931Y-65000D01*
X1117206Y-67088D01*
X1118012Y-69035D01*
X1119294Y-70706D01*
X1120669Y-71760D01*
X1120781Y-72235D01*
Y-72765D01*
X1120669Y-73240D01*
X1119294Y-74294D01*
X1118240Y-75669D01*
X1117765Y-75781D01*
X1117235D01*
X1116760Y-75669D01*
X1115706Y-74294D01*
X1114035Y-73012D01*
X1112088Y-72206D01*
X1111020Y-72065D01*
X1110664Y-70738D01*
X1110706Y-70706D01*
X1111988Y-69035D01*
X1112794Y-67088D01*
X1113069Y-65000D01*
X1112794Y-62912D01*
X1111988Y-60965D01*
X1110706Y-59294D01*
X1109035Y-58012D01*
X1107088Y-57206D01*
X1105000Y-56931D01*
X1102912Y-57206D01*
X1100965Y-58012D01*
X1099294Y-59294D01*
X1098012Y-60965D01*
X1097206Y-62912D01*
X1096931Y-65000D01*
X1097206Y-67088D01*
X1098012Y-69035D01*
X1099294Y-70706D01*
X1100965Y-71988D01*
X1102912Y-72794D01*
X1103980Y-72935D01*
X1104336Y-74262D01*
X1104294Y-74294D01*
X1103240Y-75669D01*
X1102765Y-75781D01*
X1102235D01*
X1101760Y-75669D01*
X1100706Y-74294D01*
X1099035Y-73012D01*
X1097088Y-72206D01*
X1095000Y-71931D01*
X1092912Y-72206D01*
X1090965Y-73012D01*
X1089294Y-74294D01*
X1088240Y-75669D01*
X1087765Y-75781D01*
X1087235D01*
X1086760Y-75669D01*
X1085706Y-74294D01*
X1085664Y-74262D01*
X1086020Y-72935D01*
X1087088Y-72794D01*
X1089035Y-71988D01*
X1090706Y-70706D01*
X1091988Y-69035D01*
X1092794Y-67088D01*
X1093069Y-65000D01*
X1092794Y-62912D01*
X1091988Y-60965D01*
X1090706Y-59294D01*
X1089035Y-58012D01*
X1087088Y-57206D01*
X1085000Y-56931D01*
X1082912Y-57206D01*
X1080965Y-58012D01*
X1079294Y-59294D01*
X1078012Y-60965D01*
X1077206Y-62912D01*
X1076931Y-65000D01*
X1077206Y-67088D01*
X1078012Y-69035D01*
X1079294Y-70706D01*
X1079336Y-70738D01*
X1078980Y-72065D01*
X1077912Y-72206D01*
X1075965Y-73012D01*
X1074302Y-74289D01*
X1074013Y-74502D01*
X1072987D01*
X1072698Y-74289D01*
X1071034Y-73012D01*
X1070224Y-72676D01*
X1070032Y-71222D01*
X1070706Y-70706D01*
X1071988Y-69035D01*
X1072794Y-67088D01*
X1073069Y-65000D01*
X1072794Y-62912D01*
X1071988Y-60965D01*
X1070706Y-59294D01*
X1069035Y-58012D01*
X1067088Y-57206D01*
X1065000Y-56931D01*
X1062912Y-57206D01*
X1060965Y-58012D01*
X1059294Y-59294D01*
X1058012Y-60965D01*
X1057206Y-62912D01*
X1056931Y-65000D01*
X1057206Y-67088D01*
X1058012Y-69035D01*
X1059294Y-70706D01*
X1060965Y-71988D01*
X1061776Y-72324D01*
X1061968Y-73778D01*
X1061294Y-74294D01*
X1060012Y-75965D01*
X1059206Y-77912D01*
X1059140Y-78409D01*
X1057859D01*
X1057794Y-77912D01*
X1056988Y-75965D01*
X1055706Y-74294D01*
X1054035Y-73012D01*
X1052088Y-72206D01*
X1051020Y-72065D01*
X1050664Y-70738D01*
X1050706Y-70706D01*
X1051988Y-69035D01*
X1052794Y-67088D01*
X1053069Y-65000D01*
X1052794Y-62912D01*
X1051988Y-60965D01*
X1050706Y-59294D01*
X1049035Y-58012D01*
X1047088Y-57206D01*
X1045000Y-56931D01*
X1042912Y-57206D01*
X1040965Y-58012D01*
X1039294Y-59294D01*
X1038012Y-60965D01*
X1037206Y-62912D01*
X1036931Y-65000D01*
X1037206Y-67088D01*
X1038012Y-69035D01*
X1039294Y-70706D01*
X1040965Y-71988D01*
X1042912Y-72794D01*
X1043980Y-72935D01*
X1044336Y-74262D01*
X1044294Y-74294D01*
X1043240Y-75669D01*
X1042765Y-75781D01*
X1042235D01*
X1041760Y-75669D01*
X1040706Y-74294D01*
X1039035Y-73012D01*
X1037088Y-72206D01*
X1035000Y-71931D01*
X1032912Y-72206D01*
X1030965Y-73012D01*
X1029294Y-74294D01*
X1028240Y-75669D01*
X1027765Y-75781D01*
X1027235D01*
X1026760Y-75669D01*
X1025706Y-74294D01*
X1025664Y-74262D01*
X1026020Y-72935D01*
X1027088Y-72794D01*
X1029035Y-71988D01*
X1030706Y-70706D01*
X1031988Y-69035D01*
X1032794Y-67088D01*
X1033069Y-65000D01*
X1032794Y-62912D01*
X1031988Y-60965D01*
X1030706Y-59294D01*
X1029035Y-58012D01*
X1027088Y-57206D01*
X1025000Y-56931D01*
X1022912Y-57206D01*
X1020965Y-58012D01*
X1019294Y-59294D01*
X1018012Y-60965D01*
X1017206Y-62912D01*
X1016931Y-65000D01*
X1017206Y-67088D01*
X1018012Y-69035D01*
X1019294Y-70706D01*
X1019336Y-70738D01*
X1018980Y-72065D01*
X1017912Y-72206D01*
X1015965Y-73012D01*
X1014294Y-74294D01*
X1013240Y-75669D01*
X1012765Y-75781D01*
X1012235D01*
X1011760Y-75669D01*
X1010706Y-74294D01*
X1009331Y-73240D01*
X1009219Y-72765D01*
Y-72235D01*
X1009331Y-71760D01*
X1010706Y-70706D01*
X1011988Y-69035D01*
X1012794Y-67088D01*
X1013069Y-65000D01*
X1012794Y-62912D01*
X1011988Y-60965D01*
X1010706Y-59294D01*
X1009035Y-58012D01*
X1007088Y-57206D01*
X1005000Y-56931D01*
X1002912Y-57206D01*
X1000965Y-58012D01*
X999294Y-59294D01*
X998012Y-60965D01*
X997206Y-62912D01*
X996931Y-65000D01*
X997206Y-67088D01*
X998012Y-69035D01*
X999294Y-70706D01*
X1000669Y-71760D01*
X1000781Y-72235D01*
Y-72765D01*
X1000669Y-73240D01*
X999294Y-74294D01*
X998240Y-75669D01*
X997765Y-75781D01*
X997235D01*
X996760Y-75669D01*
X995706Y-74294D01*
X994035Y-73012D01*
X992088Y-72206D01*
X991020Y-72065D01*
X990664Y-70738D01*
X990706Y-70706D01*
X991988Y-69035D01*
X992794Y-67088D01*
X993069Y-65000D01*
X992794Y-62912D01*
X991988Y-60965D01*
X990706Y-59294D01*
X989035Y-58012D01*
X987088Y-57206D01*
X985000Y-56931D01*
X982912Y-57206D01*
X980965Y-58012D01*
X979294Y-59294D01*
X978012Y-60965D01*
X977206Y-62912D01*
X976931Y-65000D01*
X977206Y-67088D01*
X978012Y-69035D01*
X979294Y-70706D01*
X980965Y-71988D01*
X982912Y-72794D01*
X983980Y-72935D01*
X984336Y-74262D01*
X984294Y-74294D01*
X983240Y-75669D01*
X982765Y-75781D01*
X982235D01*
X981760Y-75669D01*
X980706Y-74294D01*
X979035Y-73012D01*
X977088Y-72206D01*
X975000Y-71931D01*
X972912Y-72206D01*
X970965Y-73012D01*
X969294Y-74294D01*
X968240Y-75669D01*
X967765Y-75781D01*
X967235D01*
X966760Y-75669D01*
X965706Y-74294D01*
X965664Y-74262D01*
X966020Y-72935D01*
X967088Y-72794D01*
X969035Y-71988D01*
X970706Y-70706D01*
X971988Y-69035D01*
X972794Y-67088D01*
X973069Y-65000D01*
X972794Y-62912D01*
X971988Y-60965D01*
X970706Y-59294D01*
X969035Y-58012D01*
X967088Y-57206D01*
X965000Y-56931D01*
X962912Y-57206D01*
X960965Y-58012D01*
X959294Y-59294D01*
X958012Y-60965D01*
X957206Y-62912D01*
X956931Y-65000D01*
X957206Y-67088D01*
X958012Y-69035D01*
X959294Y-70706D01*
X959336Y-70738D01*
X958980Y-72065D01*
X957912Y-72206D01*
X955965Y-73012D01*
X954294Y-74294D01*
X954085Y-74567D01*
X952815D01*
X952606Y-74294D01*
X950935Y-73012D01*
X950189Y-72703D01*
X949997Y-71249D01*
X950706Y-70706D01*
X951988Y-69035D01*
X952794Y-67088D01*
X953069Y-65000D01*
X952794Y-62912D01*
X951988Y-60965D01*
X950706Y-59294D01*
X949035Y-58012D01*
X947088Y-57206D01*
X945000Y-56931D01*
X942912Y-57206D01*
X940965Y-58012D01*
X939294Y-59294D01*
X938012Y-60965D01*
X937206Y-62912D01*
X936931Y-65000D01*
X937206Y-67088D01*
X938012Y-69035D01*
X939294Y-70706D01*
X940965Y-71988D01*
X941711Y-72297D01*
X941903Y-73751D01*
X941194Y-74294D01*
X939912Y-75965D01*
X939106Y-77912D01*
X938831Y-80000D01*
X939106Y-82088D01*
X939912Y-84035D01*
X941194Y-85706D01*
X942866Y-86988D01*
X944812Y-87794D01*
X946900Y-88069D01*
X948988Y-87794D01*
X950935Y-86988D01*
X952606Y-85706D01*
X952815Y-85433D01*
X954085D01*
X954294Y-85706D01*
X955965Y-86988D01*
X957912Y-87794D01*
X960000Y-88069D01*
X962088Y-87794D01*
X964035Y-86988D01*
X965706Y-85706D01*
X966760Y-84331D01*
X967235Y-84219D01*
X967765D01*
X968240Y-84331D01*
X969294Y-85706D01*
X970965Y-86988D01*
X972912Y-87794D01*
X975000Y-88069D01*
X977088Y-87794D01*
X979035Y-86988D01*
X980706Y-85706D01*
X981760Y-84331D01*
X982235Y-84219D01*
X982765D01*
X983240Y-84331D01*
X984294Y-85706D01*
X985965Y-86988D01*
X987912Y-87794D01*
X990000Y-88069D01*
X992088Y-87794D01*
X994035Y-86988D01*
X995706Y-85706D01*
X996760Y-84331D01*
X997235Y-84219D01*
X997765D01*
X998240Y-84331D01*
X999294Y-85706D01*
X1000965Y-86988D01*
X1002912Y-87794D01*
X1005000Y-88069D01*
X1007088Y-87794D01*
X1009035Y-86988D01*
X1010706Y-85706D01*
X1011760Y-84331D01*
X1012235Y-84219D01*
X1012765D01*
X1013240Y-84331D01*
X1014294Y-85706D01*
X1015965Y-86988D01*
X1017912Y-87794D01*
X1020000Y-88069D01*
X1022088Y-87794D01*
X1024035Y-86988D01*
X1025706Y-85706D01*
X1026760Y-84331D01*
X1027235Y-84219D01*
X1027765D01*
X1028240Y-84331D01*
X1029294Y-85706D01*
X1030965Y-86988D01*
X1032912Y-87794D01*
X1035000Y-88069D01*
X1037088Y-87794D01*
X1039035Y-86988D01*
X1040706Y-85706D01*
X1041760Y-84331D01*
X1042235Y-84219D01*
X1042765D01*
X1043240Y-84331D01*
X1044294Y-85706D01*
X1045965Y-86988D01*
X1047912Y-87794D01*
X1050000Y-88069D01*
X1052088Y-87794D01*
X1054035Y-86988D01*
X1055706Y-85706D01*
X1056988Y-84035D01*
X1057794Y-82088D01*
X1057859Y-81591D01*
X1059140D01*
X1059206Y-82088D01*
X1060012Y-84035D01*
X1061294Y-85706D01*
X1062965Y-86988D01*
X1064912Y-87794D01*
X1067000Y-88069D01*
X1069088Y-87794D01*
X1071034Y-86988D01*
X1072698Y-85711D01*
X1072987Y-85498D01*
X1074013D01*
X1074302Y-85711D01*
X1075965Y-86988D01*
X1077912Y-87794D01*
X1080000Y-88069D01*
X1082088Y-87794D01*
X1084035Y-86988D01*
X1085706Y-85706D01*
X1086760Y-84331D01*
X1087235Y-84219D01*
X1087765D01*
X1088240Y-84331D01*
X1089294Y-85706D01*
X1090965Y-86988D01*
X1092912Y-87794D01*
X1095000Y-88069D01*
X1097088Y-87794D01*
X1099035Y-86988D01*
X1100706Y-85706D01*
X1101760Y-84331D01*
X1102235Y-84219D01*
X1102765D01*
X1103240Y-84331D01*
X1104294Y-85706D01*
X1105965Y-86988D01*
X1107912Y-87794D01*
X1110000Y-88069D01*
X1112088Y-87794D01*
X1114035Y-86988D01*
X1115706Y-85706D01*
X1116760Y-84331D01*
X1117235Y-84219D01*
X1117765D01*
X1118240Y-84331D01*
X1119294Y-85706D01*
X1120965Y-86988D01*
X1122912Y-87794D01*
X1125000Y-88069D01*
X1127088Y-87794D01*
X1129035Y-86988D01*
X1130706Y-85706D01*
X1131760Y-84331D01*
X1132235Y-84219D01*
X1132765D01*
X1133240Y-84331D01*
X1134294Y-85706D01*
X1135965Y-86988D01*
X1137912Y-87794D01*
X1140000Y-88069D01*
X1142088Y-87794D01*
X1144035Y-86988D01*
X1145706Y-85706D01*
X1146200Y-85062D01*
X1147800D01*
X1148294Y-85706D01*
X1149966Y-86988D01*
X1151912Y-87794D01*
X1154000Y-88069D01*
X1156088Y-87794D01*
X1158035Y-86988D01*
X1159706Y-85706D01*
X1160988Y-84035D01*
X1161794Y-82088D01*
X1162069Y-80000D01*
X1161794Y-77912D01*
X1160988Y-75965D01*
X1159706Y-74294D01*
X1158035Y-73012D01*
X1156088Y-72206D01*
X1154000Y-71931D01*
X1151912Y-72206D01*
X1149966Y-73012D01*
X1148294Y-74294D01*
X1147830Y-74899D01*
X1146596Y-74900D01*
X1146012Y-74147D01*
X1146452Y-72878D01*
X1147088Y-72794D01*
X1149035Y-71988D01*
X1150706Y-70706D01*
X1151988Y-69035D01*
X1152794Y-67088D01*
X1153069Y-65000D01*
X1152794Y-62912D01*
X1151988Y-60965D01*
X1150706Y-59294D01*
X1149035Y-58012D01*
X1147088Y-57206D01*
X1145000Y-56931D01*
D02*
G37*
G36*
X1314000Y-61931D02*
X1311912Y-62206D01*
X1309966Y-63012D01*
X1308294Y-64294D01*
X1307012Y-65965D01*
X1306206Y-67912D01*
X1305931Y-70000D01*
X1306206Y-72088D01*
X1307012Y-74035D01*
X1308294Y-75706D01*
X1309966Y-76988D01*
X1311912Y-77794D01*
X1314000Y-78069D01*
X1316088Y-77794D01*
X1318035Y-76988D01*
X1319706Y-75706D01*
X1320988Y-74035D01*
X1321794Y-72088D01*
X1322069Y-70000D01*
X1321794Y-67912D01*
X1320988Y-65965D01*
X1319706Y-64294D01*
X1318035Y-63012D01*
X1316088Y-62206D01*
X1314000Y-61931D01*
D02*
G37*
G36*
X633000Y-72192D02*
X631238Y-72424D01*
X629596Y-73104D01*
X628186Y-74186D01*
X627104Y-75596D01*
X626424Y-77238D01*
X626192Y-79000D01*
X626424Y-80762D01*
X626742Y-81529D01*
X625699Y-82330D01*
X625404Y-82104D01*
X623762Y-81424D01*
X622000Y-81192D01*
X620238Y-81424D01*
X618596Y-82104D01*
X617186Y-83186D01*
X616104Y-84596D01*
X615424Y-86238D01*
X615192Y-88000D01*
X615424Y-89762D01*
X616104Y-91404D01*
X617186Y-92814D01*
X618596Y-93896D01*
X620238Y-94576D01*
X622000Y-94808D01*
X623762Y-94576D01*
X625404Y-93896D01*
X626814Y-92814D01*
X627896Y-91404D01*
X628576Y-89762D01*
X628808Y-88000D01*
X628576Y-86238D01*
X628258Y-85471D01*
X629301Y-84670D01*
X629596Y-84896D01*
X631238Y-85576D01*
X633000Y-85808D01*
X634762Y-85576D01*
X636404Y-84896D01*
X637814Y-83814D01*
X638896Y-82404D01*
X639576Y-80762D01*
X639808Y-79000D01*
X639576Y-77238D01*
X638896Y-75596D01*
X637814Y-74186D01*
X636404Y-73104D01*
X634762Y-72424D01*
X633000Y-72192D01*
D02*
G37*
G36*
X213000Y-66931D02*
X210912Y-67206D01*
X208965Y-68012D01*
X207294Y-69294D01*
X206012Y-70965D01*
X205206Y-72912D01*
X204931Y-75000D01*
X205206Y-77088D01*
X206012Y-79035D01*
X207294Y-80706D01*
X208965Y-81988D01*
X210912Y-82794D01*
X213000Y-83069D01*
X215088Y-82794D01*
X217034Y-81988D01*
X218706Y-80706D01*
X219988Y-79035D01*
X220794Y-77088D01*
X221069Y-75000D01*
X220794Y-72912D01*
X219988Y-70965D01*
X218706Y-69294D01*
X217034Y-68012D01*
X215088Y-67206D01*
X213000Y-66931D01*
D02*
G37*
G36*
X1294000Y-61931D02*
X1291912Y-62206D01*
X1289966Y-63012D01*
X1288294Y-64294D01*
X1287012Y-65965D01*
X1286206Y-67912D01*
X1285931Y-70000D01*
X1286206Y-72088D01*
X1287012Y-74035D01*
X1288294Y-75706D01*
X1289966Y-76988D01*
X1291912Y-77794D01*
X1294000Y-78069D01*
X1296088Y-77794D01*
X1298035Y-76988D01*
X1299706Y-75706D01*
X1300988Y-74035D01*
X1301794Y-72088D01*
X1302069Y-70000D01*
X1301794Y-67912D01*
X1300988Y-65965D01*
X1299706Y-64294D01*
X1298035Y-63012D01*
X1296088Y-62206D01*
X1294000Y-61931D01*
D02*
G37*
G36*
X492000Y-66192D02*
X490238Y-66424D01*
X488596Y-67104D01*
X487186Y-68186D01*
X486104Y-69596D01*
X485424Y-71238D01*
X485192Y-73000D01*
X485424Y-74762D01*
X486104Y-76404D01*
X487186Y-77814D01*
X488596Y-78896D01*
X490238Y-79576D01*
X492000Y-79808D01*
X493762Y-79576D01*
X495404Y-78896D01*
X496814Y-77814D01*
X497896Y-76404D01*
X498576Y-74762D01*
X498808Y-73000D01*
X498576Y-71238D01*
X497896Y-69596D01*
X496814Y-68186D01*
X495404Y-67104D01*
X493762Y-66424D01*
X492000Y-66192D01*
D02*
G37*
G36*
X769000Y-62157D02*
X767147Y-62526D01*
X765575Y-63575D01*
X764425D01*
X762853Y-62526D01*
X761000Y-62157D01*
X759147Y-62526D01*
X757575Y-63575D01*
X756526Y-65147D01*
X756157Y-67000D01*
X756526Y-68853D01*
X757575Y-70424D01*
X759147Y-71474D01*
X761000Y-71843D01*
X762853Y-71474D01*
X764425Y-70424D01*
X765575D01*
X767147Y-71474D01*
X769000Y-71843D01*
X770853Y-71474D01*
X772425Y-70424D01*
X773474Y-68853D01*
X773843Y-67000D01*
X773474Y-65147D01*
X772425Y-63575D01*
X770853Y-62526D01*
X769000Y-62157D01*
D02*
G37*
G36*
X745000D02*
X743147Y-62526D01*
X741575Y-63575D01*
X740424D01*
X738853Y-62526D01*
X737000Y-62157D01*
X735147Y-62526D01*
X733576Y-63575D01*
X732424D01*
X730853Y-62526D01*
X729000Y-62157D01*
X727147Y-62526D01*
X725575Y-63575D01*
X724425D01*
X722853Y-62526D01*
X721000Y-62157D01*
X719147Y-62526D01*
X717576Y-63575D01*
X716526Y-65147D01*
X716157Y-67000D01*
X716526Y-68853D01*
X717576Y-70424D01*
X719147Y-71474D01*
X721000Y-71843D01*
X722853Y-71474D01*
X724425Y-70424D01*
X725575D01*
X727147Y-71474D01*
X729000Y-71843D01*
X730853Y-71474D01*
X732424Y-70424D01*
X733576D01*
X735147Y-71474D01*
X737000Y-71843D01*
X738853Y-71474D01*
X740424Y-70424D01*
X741575D01*
X743147Y-71474D01*
X745000Y-71843D01*
X746853Y-71474D01*
X748425Y-70424D01*
X749474Y-68853D01*
X749843Y-67000D01*
X749474Y-65147D01*
X748425Y-63575D01*
X746853Y-62526D01*
X745000Y-62157D01*
D02*
G37*
G36*
X687000Y-41157D02*
X685147Y-41526D01*
X683575Y-42575D01*
X682526Y-44147D01*
X682157Y-46000D01*
X682526Y-47853D01*
X683575Y-49425D01*
X684877Y-50294D01*
X684979Y-50761D01*
Y-51239D01*
X684877Y-51706D01*
X683575Y-52575D01*
X682526Y-54147D01*
X682157Y-56000D01*
X682526Y-57853D01*
X683575Y-59425D01*
X685147Y-60474D01*
X687000Y-60843D01*
X688853Y-60474D01*
X690425Y-59425D01*
X691474Y-57853D01*
X691843Y-56000D01*
X691474Y-54147D01*
X690425Y-52575D01*
X689123Y-51706D01*
X689021Y-51239D01*
Y-50761D01*
X689123Y-50294D01*
X690425Y-49425D01*
X691474Y-47853D01*
X691843Y-46000D01*
X691474Y-44147D01*
X690425Y-42575D01*
X688853Y-41526D01*
X687000Y-41157D01*
D02*
G37*
G36*
X1275000Y-57931D02*
X1272912Y-58206D01*
X1270965Y-59012D01*
X1269294Y-60294D01*
X1268240Y-61669D01*
X1267765Y-61781D01*
X1267235D01*
X1266760Y-61669D01*
X1265706Y-60294D01*
X1264035Y-59012D01*
X1262088Y-58206D01*
X1260000Y-57931D01*
X1257912Y-58206D01*
X1255965Y-59012D01*
X1254294Y-60294D01*
X1253012Y-61965D01*
X1252945Y-62127D01*
X1251491Y-62318D01*
X1250706Y-61294D01*
X1249035Y-60012D01*
X1247088Y-59206D01*
X1245000Y-58931D01*
X1242912Y-59206D01*
X1240965Y-60012D01*
X1239294Y-61294D01*
X1238012Y-62965D01*
X1237206Y-64912D01*
X1236931Y-67000D01*
X1237206Y-69088D01*
X1238012Y-71034D01*
X1238909Y-72203D01*
X1238722Y-73526D01*
X1238546Y-73781D01*
X1238289Y-73904D01*
X1238185Y-73894D01*
X1237035Y-73012D01*
X1235088Y-72206D01*
X1233000Y-71931D01*
X1230912Y-72206D01*
X1228966Y-73012D01*
X1227294Y-74294D01*
X1226800Y-74938D01*
X1225200D01*
X1224706Y-74294D01*
X1223035Y-73012D01*
X1221088Y-72206D01*
X1219000Y-71931D01*
X1216912Y-72206D01*
X1214966Y-73012D01*
X1213294Y-74294D01*
X1212800Y-74938D01*
X1211200D01*
X1210706Y-74294D01*
X1209035Y-73012D01*
X1207088Y-72206D01*
X1205000Y-71931D01*
X1202912Y-72206D01*
X1200965Y-73012D01*
X1199294Y-74294D01*
X1198012Y-75965D01*
X1197206Y-77912D01*
X1196931Y-80000D01*
X1197206Y-82088D01*
X1198012Y-84035D01*
X1198805Y-85069D01*
X1199177Y-86000D01*
X1198805Y-86931D01*
X1198012Y-87965D01*
X1197206Y-89912D01*
X1196931Y-92000D01*
X1197206Y-94088D01*
X1198012Y-96034D01*
X1199288Y-97698D01*
X1199502Y-97987D01*
Y-99013D01*
X1199288Y-99302D01*
X1198012Y-100965D01*
X1197206Y-102912D01*
X1196931Y-105000D01*
X1197206Y-107088D01*
X1198012Y-109035D01*
X1199294Y-110706D01*
X1200965Y-111988D01*
X1202912Y-112794D01*
X1205000Y-113069D01*
X1207088Y-112794D01*
X1209035Y-111988D01*
X1210706Y-110706D01*
X1211200Y-110062D01*
X1212800D01*
X1213294Y-110706D01*
X1214966Y-111988D01*
X1216912Y-112794D01*
X1219000Y-113069D01*
X1221088Y-112794D01*
X1223035Y-111988D01*
X1224706Y-110706D01*
X1225200Y-110062D01*
X1226800D01*
X1227294Y-110706D01*
X1228966Y-111988D01*
X1230912Y-112794D01*
X1233000Y-113069D01*
X1235088Y-112794D01*
X1237035Y-111988D01*
X1238069Y-111194D01*
X1238232Y-111129D01*
X1238534Y-111329D01*
X1238581Y-111391D01*
X1238802Y-112936D01*
X1238012Y-113966D01*
X1237206Y-115912D01*
X1236931Y-118000D01*
X1237206Y-120088D01*
X1238012Y-122035D01*
X1239294Y-123706D01*
X1239938Y-124200D01*
Y-125453D01*
X1238789Y-126093D01*
X1238069Y-125806D01*
X1237035Y-125012D01*
X1235088Y-124206D01*
X1233000Y-123931D01*
X1230912Y-124206D01*
X1228966Y-125012D01*
X1227294Y-126294D01*
X1226800Y-126938D01*
X1225200D01*
X1224706Y-126294D01*
X1223035Y-125012D01*
X1221088Y-124206D01*
X1219000Y-123931D01*
X1216912Y-124206D01*
X1214966Y-125012D01*
X1213294Y-126294D01*
X1212800Y-126938D01*
X1211200D01*
X1210706Y-126294D01*
X1209035Y-125012D01*
X1207088Y-124206D01*
X1205000Y-123931D01*
X1202912Y-124206D01*
X1200965Y-125012D01*
X1199294Y-126294D01*
X1198012Y-127965D01*
X1197206Y-129912D01*
X1196931Y-132000D01*
X1197206Y-134088D01*
X1198012Y-136034D01*
X1199294Y-137706D01*
X1200965Y-138988D01*
X1202912Y-139794D01*
X1205000Y-140069D01*
X1207088Y-139794D01*
X1209035Y-138988D01*
X1210706Y-137706D01*
X1211200Y-137062D01*
X1212800D01*
X1213294Y-137706D01*
X1214966Y-138988D01*
X1216912Y-139794D01*
X1219000Y-140069D01*
X1221088Y-139794D01*
X1223035Y-138988D01*
X1224706Y-137706D01*
X1225200Y-137062D01*
X1226800D01*
X1227294Y-137706D01*
X1228966Y-138988D01*
X1230912Y-139794D01*
X1233000Y-140069D01*
X1235088Y-139794D01*
X1237035Y-138988D01*
X1238677Y-137728D01*
X1239798Y-138160D01*
X1239876Y-139356D01*
X1237116Y-142116D01*
X1236232Y-143439D01*
X1235922Y-145000D01*
X1235922Y-145000D01*
Y-255000D01*
X1235922Y-255000D01*
X1236232Y-256561D01*
X1237116Y-257884D01*
X1242116Y-262884D01*
X1243439Y-263768D01*
X1245000Y-264078D01*
X1245000Y-264078D01*
X1355000D01*
X1355000Y-264078D01*
X1356561Y-263768D01*
X1357884Y-262884D01*
X1362884Y-257884D01*
X1363768Y-256561D01*
X1364078Y-255000D01*
X1364078Y-255000D01*
Y-145000D01*
X1364078Y-145000D01*
X1363768Y-143439D01*
X1362884Y-142116D01*
X1358773Y-138005D01*
X1358893Y-136329D01*
X1359706Y-135706D01*
X1360988Y-134035D01*
X1361794Y-132088D01*
X1362069Y-130000D01*
X1361794Y-127912D01*
X1360988Y-125965D01*
X1359706Y-124294D01*
X1358035Y-123012D01*
X1356088Y-122206D01*
X1354000Y-121931D01*
X1351912Y-122206D01*
X1349966Y-123012D01*
X1348294Y-124294D01*
X1347012Y-125965D01*
X1346206Y-127912D01*
X1345931Y-130000D01*
X1346206Y-132088D01*
X1347012Y-134035D01*
X1347486Y-134652D01*
X1346859Y-135922D01*
X1341141D01*
X1340515Y-134652D01*
X1340988Y-134035D01*
X1341794Y-132088D01*
X1342069Y-130000D01*
X1341794Y-127912D01*
X1340988Y-125965D01*
X1339706Y-124294D01*
X1338035Y-123012D01*
X1336088Y-122206D01*
X1334000Y-121931D01*
X1331912Y-122206D01*
X1329966Y-123012D01*
X1328294Y-124294D01*
X1327012Y-125965D01*
X1326206Y-127912D01*
X1325931Y-130000D01*
X1326206Y-132088D01*
X1327012Y-134035D01*
X1327486Y-134652D01*
X1326859Y-135922D01*
X1321141D01*
X1320515Y-134652D01*
X1320988Y-134035D01*
X1321794Y-132088D01*
X1322069Y-130000D01*
X1321794Y-127912D01*
X1320988Y-125965D01*
X1319706Y-124294D01*
X1318035Y-123012D01*
X1316088Y-122206D01*
X1314000Y-121931D01*
X1311912Y-122206D01*
X1309966Y-123012D01*
X1308294Y-124294D01*
X1307012Y-125965D01*
X1306206Y-127912D01*
X1305931Y-130000D01*
X1306206Y-132088D01*
X1307012Y-134035D01*
X1307486Y-134652D01*
X1306859Y-135922D01*
X1301141D01*
X1300514Y-134652D01*
X1300988Y-134035D01*
X1301794Y-132088D01*
X1302069Y-130000D01*
X1301794Y-127912D01*
X1300988Y-125965D01*
X1299706Y-124294D01*
X1298035Y-123012D01*
X1296088Y-122206D01*
X1294000Y-121931D01*
X1291912Y-122206D01*
X1289966Y-123012D01*
X1288294Y-124294D01*
X1287012Y-125965D01*
X1286206Y-127912D01*
X1285931Y-130000D01*
X1286206Y-132088D01*
X1287012Y-134035D01*
X1287486Y-134652D01*
X1286859Y-135922D01*
X1279904D01*
X1279473Y-134652D01*
X1280706Y-133706D01*
X1281988Y-132035D01*
X1282794Y-130088D01*
X1283069Y-128000D01*
X1282794Y-125912D01*
X1281988Y-123966D01*
X1280712Y-122302D01*
X1280498Y-122013D01*
Y-120987D01*
X1280712Y-120698D01*
X1281988Y-119035D01*
X1282794Y-117088D01*
X1283069Y-115000D01*
X1282794Y-112912D01*
X1281988Y-110965D01*
X1280712Y-109302D01*
X1280498Y-109013D01*
Y-107987D01*
X1280712Y-107698D01*
X1281988Y-106034D01*
X1282794Y-104088D01*
X1283069Y-102000D01*
X1282794Y-99912D01*
X1281988Y-97965D01*
X1281194Y-96931D01*
X1280823Y-96000D01*
X1281194Y-95069D01*
X1281988Y-94035D01*
X1282794Y-92088D01*
X1283069Y-90000D01*
X1282794Y-87912D01*
X1281988Y-85965D01*
X1281194Y-84931D01*
X1280823Y-84000D01*
X1281194Y-83069D01*
X1281988Y-82035D01*
X1282794Y-80088D01*
X1283069Y-78000D01*
X1282794Y-75912D01*
X1281988Y-73966D01*
X1281194Y-72931D01*
X1280823Y-72000D01*
X1281194Y-71069D01*
X1281988Y-70034D01*
X1282794Y-68088D01*
X1283069Y-66000D01*
X1282794Y-63912D01*
X1281988Y-61965D01*
X1280706Y-60294D01*
X1279035Y-59012D01*
X1277088Y-58206D01*
X1275000Y-57931D01*
D02*
G37*
G36*
X451500Y-47931D02*
X449412Y-48206D01*
X447466Y-49012D01*
X445794Y-50294D01*
X444512Y-51965D01*
X443706Y-53912D01*
X443431Y-56000D01*
X443706Y-58088D01*
X444512Y-60034D01*
X445794Y-61706D01*
X447466Y-62988D01*
X449412Y-63794D01*
X451500Y-64069D01*
X453588Y-63794D01*
X455535Y-62988D01*
X457206Y-61706D01*
X458488Y-60034D01*
X459294Y-58088D01*
X459569Y-56000D01*
X459294Y-53912D01*
X458488Y-51965D01*
X457206Y-50294D01*
X455535Y-49012D01*
X453588Y-48206D01*
X451500Y-47931D01*
D02*
G37*
G36*
X594000Y30808D02*
X592238Y30576D01*
X590596Y29896D01*
X589186Y28814D01*
X588104Y27404D01*
X587424Y25762D01*
X587192Y24000D01*
X587424Y22238D01*
X588104Y20596D01*
X589186Y19186D01*
X590596Y18104D01*
X592238Y17424D01*
X592712Y17361D01*
X593512Y15975D01*
X593424Y15762D01*
X593192Y14000D01*
X593424Y12238D01*
X593512Y12025D01*
X592712Y10639D01*
X592238Y10576D01*
X590596Y9896D01*
X589186Y8814D01*
X588104Y7404D01*
X587424Y5762D01*
X587192Y4000D01*
X587424Y2238D01*
X588104Y596D01*
X589186Y-814D01*
X590596Y-1896D01*
X592238Y-2576D01*
X592712Y-2639D01*
X593512Y-4025D01*
X593424Y-4238D01*
X593192Y-6000D01*
X593424Y-7762D01*
X593512Y-7975D01*
X592712Y-9361D01*
X592238Y-9424D01*
X590596Y-10104D01*
X589186Y-11186D01*
X588104Y-12596D01*
X587424Y-14238D01*
X587192Y-16000D01*
X587424Y-17762D01*
X588104Y-19404D01*
X589186Y-20814D01*
X590596Y-21896D01*
X592238Y-22576D01*
X592712Y-22639D01*
X593512Y-24025D01*
X593424Y-24238D01*
X593192Y-26000D01*
X593424Y-27762D01*
X593512Y-27975D01*
X592712Y-29361D01*
X592238Y-29424D01*
X590596Y-30104D01*
X589186Y-31186D01*
X588104Y-32596D01*
X587424Y-34238D01*
X587192Y-36000D01*
X587424Y-37762D01*
X588104Y-39404D01*
X589186Y-40814D01*
X590596Y-41896D01*
X592238Y-42576D01*
X592712Y-42639D01*
X593512Y-44025D01*
X593424Y-44238D01*
X593192Y-46000D01*
X593424Y-47762D01*
X593512Y-47975D01*
X592712Y-49361D01*
X592238Y-49424D01*
X590596Y-50104D01*
X589186Y-51186D01*
X588104Y-52596D01*
X587424Y-54238D01*
X587192Y-56000D01*
X587424Y-57762D01*
X588104Y-59404D01*
X589186Y-60814D01*
X590596Y-61896D01*
X592238Y-62576D01*
X592712Y-62639D01*
X593512Y-64025D01*
X593424Y-64238D01*
X593192Y-66000D01*
X593424Y-67762D01*
X594104Y-69404D01*
X595186Y-70814D01*
X596596Y-71896D01*
X598238Y-72576D01*
X600000Y-72808D01*
X601762Y-72576D01*
X603404Y-71896D01*
X604814Y-70814D01*
X605896Y-69404D01*
X606576Y-67762D01*
X606808Y-66000D01*
X606576Y-64238D01*
X605896Y-62596D01*
X604814Y-61186D01*
X603404Y-60104D01*
X601762Y-59424D01*
X601288Y-59361D01*
X600488Y-57975D01*
X600576Y-57762D01*
X600808Y-56000D01*
X600576Y-54238D01*
X600488Y-54025D01*
X601288Y-52639D01*
X601762Y-52576D01*
X603404Y-51896D01*
X604814Y-50814D01*
X605896Y-49404D01*
X606576Y-47762D01*
X606808Y-46000D01*
X606576Y-44238D01*
X605896Y-42596D01*
X604814Y-41186D01*
X603404Y-40104D01*
X601762Y-39424D01*
X601288Y-39361D01*
X600488Y-37975D01*
X600576Y-37762D01*
X600808Y-36000D01*
X600576Y-34238D01*
X600488Y-34025D01*
X601288Y-32639D01*
X601762Y-32576D01*
X603404Y-31896D01*
X604814Y-30814D01*
X605896Y-29404D01*
X606576Y-27762D01*
X606808Y-26000D01*
X606576Y-24238D01*
X605896Y-22596D01*
X604814Y-21186D01*
X603404Y-20104D01*
X601762Y-19424D01*
X601288Y-19361D01*
X600488Y-17975D01*
X600576Y-17762D01*
X600808Y-16000D01*
X600576Y-14238D01*
X600488Y-14025D01*
X601288Y-12639D01*
X601762Y-12576D01*
X603404Y-11896D01*
X604814Y-10814D01*
X605896Y-9404D01*
X606576Y-7762D01*
X606808Y-6000D01*
X606576Y-4238D01*
X605896Y-2596D01*
X604814Y-1186D01*
X603404Y-104D01*
X601762Y576D01*
X601288Y639D01*
X600488Y2025D01*
X600576Y2238D01*
X600808Y4000D01*
X600576Y5762D01*
X600488Y5975D01*
X601288Y7361D01*
X601762Y7424D01*
X603404Y8104D01*
X604814Y9186D01*
X605896Y10596D01*
X606576Y12238D01*
X606808Y14000D01*
X606576Y15762D01*
X605896Y17404D01*
X604814Y18814D01*
X603404Y19896D01*
X601762Y20576D01*
X601288Y20639D01*
X600488Y22025D01*
X600576Y22238D01*
X600808Y24000D01*
X600576Y25762D01*
X599896Y27404D01*
X598814Y28814D01*
X597404Y29896D01*
X595762Y30576D01*
X594000Y30808D01*
D02*
G37*
G36*
X813000Y-59157D02*
X811147Y-59526D01*
X809575Y-60575D01*
X808526Y-62147D01*
X808369Y-62935D01*
X808000Y-64157D01*
X806147Y-64526D01*
X804576Y-65575D01*
X803526Y-67147D01*
X803157Y-69000D01*
X803526Y-70853D01*
X804576Y-72425D01*
X806147Y-73474D01*
X808000Y-73843D01*
X809853Y-73474D01*
X811425Y-72425D01*
X812474Y-70853D01*
X812631Y-70065D01*
X813000Y-68843D01*
X814853Y-68474D01*
X816425Y-67425D01*
X817474Y-65853D01*
X817843Y-64000D01*
X817474Y-62147D01*
X816425Y-60575D01*
X814853Y-59526D01*
X813000Y-59157D01*
D02*
G37*
G36*
X889000Y-55157D02*
X887147Y-55526D01*
X885575Y-56575D01*
X884526Y-58147D01*
X884157Y-60000D01*
X884526Y-61853D01*
X885575Y-63425D01*
X887147Y-64474D01*
X889000Y-64843D01*
X890853Y-64474D01*
X892425Y-63425D01*
X893474Y-61853D01*
X893843Y-60000D01*
X893474Y-58147D01*
X892425Y-56575D01*
X890853Y-55526D01*
X889000Y-55157D01*
D02*
G37*
G36*
X859000Y-62157D02*
X857147Y-62526D01*
X855575Y-63575D01*
X854706Y-64877D01*
X854239Y-64979D01*
X853761D01*
X853294Y-64877D01*
X852425Y-63575D01*
X850853Y-62526D01*
X849000Y-62157D01*
X847147Y-62526D01*
X845575Y-63575D01*
X844706Y-64877D01*
X844239Y-64979D01*
X843761D01*
X843294Y-64877D01*
X842425Y-63575D01*
X840853Y-62526D01*
X839000Y-62157D01*
X837147Y-62526D01*
X835575Y-63575D01*
X834706Y-64877D01*
X834239Y-64979D01*
X833761D01*
X833294Y-64877D01*
X832424Y-63575D01*
X830853Y-62526D01*
X829000Y-62157D01*
X827147Y-62526D01*
X825575Y-63575D01*
X824526Y-65147D01*
X824157Y-67000D01*
X824526Y-68853D01*
X825575Y-70424D01*
X827147Y-71474D01*
X829000Y-71843D01*
X830853Y-71474D01*
X832424Y-70424D01*
X833294Y-69123D01*
X833761Y-69021D01*
X834239D01*
X834706Y-69123D01*
X835575Y-70424D01*
X837147Y-71474D01*
X839000Y-71843D01*
X840853Y-71474D01*
X842425Y-70424D01*
X843294Y-69123D01*
X843761Y-69021D01*
X844239D01*
X844706Y-69123D01*
X845575Y-70424D01*
X847147Y-71474D01*
X849000Y-71843D01*
X850853Y-71474D01*
X852425Y-70424D01*
X853294Y-69123D01*
X853761Y-69021D01*
X854239D01*
X854706Y-69123D01*
X855575Y-70424D01*
X857147Y-71474D01*
X859000Y-71843D01*
X860853Y-71474D01*
X862425Y-70424D01*
X863474Y-68853D01*
X863843Y-67000D01*
X863474Y-65147D01*
X862425Y-63575D01*
X860853Y-62526D01*
X859000Y-62157D01*
D02*
G37*
G36*
X773000Y-12157D02*
X771147Y-12526D01*
X769575Y-13575D01*
X768526Y-15147D01*
X768157Y-17000D01*
X768526Y-18853D01*
X769575Y-20424D01*
X771147Y-21474D01*
X773000Y-21843D01*
X774853Y-21474D01*
X776425Y-20424D01*
X777474Y-18853D01*
X777843Y-17000D01*
X777474Y-15147D01*
X776425Y-13575D01*
X774853Y-12526D01*
X773000Y-12157D01*
D02*
G37*
G36*
X1358000Y-6931D02*
X1355912Y-7206D01*
X1353965Y-8012D01*
X1352294Y-9294D01*
X1351012Y-10965D01*
X1350206Y-12912D01*
X1349931Y-15000D01*
X1350206Y-17088D01*
X1351012Y-19035D01*
X1352294Y-20706D01*
X1353965Y-21988D01*
X1355912Y-22794D01*
X1358000Y-23069D01*
X1360088Y-22794D01*
X1362034Y-21988D01*
X1363706Y-20706D01*
X1364988Y-19035D01*
X1365794Y-17088D01*
X1366069Y-15000D01*
X1365794Y-12912D01*
X1364988Y-10965D01*
X1363706Y-9294D01*
X1362034Y-8012D01*
X1360088Y-7206D01*
X1358000Y-6931D01*
D02*
G37*
G36*
X796000Y-12157D02*
X794147Y-12526D01*
X792576Y-13575D01*
X792264Y-14042D01*
X790736D01*
X790425Y-13575D01*
X788853Y-12526D01*
X787000Y-12157D01*
X785147Y-12526D01*
X783575Y-13575D01*
X782526Y-15147D01*
X782157Y-17000D01*
X782526Y-18853D01*
X783575Y-20424D01*
X785147Y-21474D01*
X787000Y-21843D01*
X788853Y-21474D01*
X790425Y-20424D01*
X790736Y-19958D01*
X792264D01*
X792576Y-20424D01*
X794147Y-21474D01*
X796000Y-21843D01*
X797853Y-21474D01*
X799425Y-20424D01*
X800474Y-18853D01*
X800843Y-17000D01*
X800474Y-15147D01*
X799425Y-13575D01*
X797853Y-12526D01*
X796000Y-12157D01*
D02*
G37*
G36*
X451500Y-1931D02*
X449412Y-2206D01*
X447466Y-3012D01*
X445794Y-4294D01*
X444512Y-5965D01*
X443706Y-7912D01*
X443431Y-10000D01*
X443706Y-12088D01*
X444512Y-14035D01*
X445794Y-15706D01*
X447466Y-16988D01*
X449412Y-17794D01*
X451500Y-18069D01*
X453588Y-17794D01*
X455535Y-16988D01*
X457206Y-15706D01*
X458488Y-14035D01*
X459294Y-12088D01*
X459569Y-10000D01*
X459294Y-7912D01*
X458488Y-5965D01*
X457206Y-4294D01*
X455535Y-3012D01*
X453588Y-2206D01*
X451500Y-1931D01*
D02*
G37*
G36*
X1338000Y-6931D02*
X1335912Y-7206D01*
X1333965Y-8012D01*
X1332294Y-9294D01*
X1331012Y-10965D01*
X1330206Y-12912D01*
X1329931Y-15000D01*
X1330206Y-17088D01*
X1331012Y-19035D01*
X1332294Y-20706D01*
X1333965Y-21988D01*
X1335912Y-22794D01*
X1338000Y-23069D01*
X1340088Y-22794D01*
X1342034Y-21988D01*
X1343706Y-20706D01*
X1344988Y-19035D01*
X1345794Y-17088D01*
X1346069Y-15000D01*
X1345794Y-12912D01*
X1344988Y-10965D01*
X1343706Y-9294D01*
X1342034Y-8012D01*
X1340088Y-7206D01*
X1338000Y-6931D01*
D02*
G37*
G36*
X1278000D02*
X1275912Y-7206D01*
X1273966Y-8012D01*
X1272294Y-9294D01*
X1271012Y-10965D01*
X1270206Y-12912D01*
X1269931Y-15000D01*
X1270206Y-17088D01*
X1271012Y-19035D01*
X1272294Y-20706D01*
X1273966Y-21988D01*
X1275912Y-22794D01*
X1278000Y-23069D01*
X1280088Y-22794D01*
X1282034Y-21988D01*
X1283706Y-20706D01*
X1284988Y-19035D01*
X1285794Y-17088D01*
X1286069Y-15000D01*
X1285794Y-12912D01*
X1284988Y-10965D01*
X1283706Y-9294D01*
X1282034Y-8012D01*
X1280088Y-7206D01*
X1278000Y-6931D01*
D02*
G37*
G36*
X213000D02*
X210912Y-7206D01*
X208965Y-8012D01*
X207294Y-9294D01*
X206012Y-10965D01*
X205206Y-12912D01*
X204931Y-15000D01*
X205206Y-17088D01*
X206012Y-19035D01*
X207294Y-20706D01*
X208965Y-21988D01*
X210912Y-22794D01*
X213000Y-23069D01*
X215088Y-22794D01*
X217034Y-21988D01*
X218706Y-20706D01*
X219988Y-19035D01*
X220794Y-17088D01*
X221069Y-15000D01*
X220794Y-12912D01*
X219988Y-10965D01*
X218706Y-9294D01*
X217034Y-8012D01*
X215088Y-7206D01*
X213000Y-6931D01*
D02*
G37*
G36*
X1318000D02*
X1315912Y-7206D01*
X1313965Y-8012D01*
X1312294Y-9294D01*
X1311012Y-10965D01*
X1310206Y-12912D01*
X1309931Y-15000D01*
X1310206Y-17088D01*
X1311012Y-19035D01*
X1312294Y-20706D01*
X1313965Y-21988D01*
X1315912Y-22794D01*
X1318000Y-23069D01*
X1320088Y-22794D01*
X1322034Y-21988D01*
X1323706Y-20706D01*
X1324988Y-19035D01*
X1325794Y-17088D01*
X1326069Y-15000D01*
X1325794Y-12912D01*
X1324988Y-10965D01*
X1323706Y-9294D01*
X1322034Y-8012D01*
X1320088Y-7206D01*
X1318000Y-6931D01*
D02*
G37*
G36*
X1298000D02*
X1295912Y-7206D01*
X1293965Y-8012D01*
X1292294Y-9294D01*
X1291012Y-10965D01*
X1290206Y-12912D01*
X1289931Y-15000D01*
X1290206Y-17088D01*
X1291012Y-19035D01*
X1292294Y-20706D01*
X1293965Y-21988D01*
X1295912Y-22794D01*
X1298000Y-23069D01*
X1300088Y-22794D01*
X1302034Y-21988D01*
X1303706Y-20706D01*
X1304988Y-19035D01*
X1305794Y-17088D01*
X1306069Y-15000D01*
X1305794Y-12912D01*
X1304988Y-10965D01*
X1303706Y-9294D01*
X1302034Y-8012D01*
X1300088Y-7206D01*
X1298000Y-6931D01*
D02*
G37*
G36*
X1045000Y5069D02*
X1042912Y4794D01*
X1040965Y3988D01*
X1039294Y2706D01*
X1038012Y1035D01*
X1037206Y-912D01*
X1036931Y-3000D01*
X1037206Y-5088D01*
X1038012Y-7035D01*
X1039294Y-8706D01*
X1040965Y-9988D01*
X1042912Y-10794D01*
X1045000Y-11069D01*
X1047088Y-10794D01*
X1049035Y-9988D01*
X1050706Y-8706D01*
X1051988Y-7035D01*
X1052794Y-5088D01*
X1053069Y-3000D01*
X1052794Y-912D01*
X1051988Y1035D01*
X1050706Y2706D01*
X1049035Y3988D01*
X1047088Y4794D01*
X1045000Y5069D01*
D02*
G37*
G36*
X1025000D02*
X1022912Y4794D01*
X1020965Y3988D01*
X1019294Y2706D01*
X1018012Y1035D01*
X1017206Y-912D01*
X1016931Y-3000D01*
X1017206Y-5088D01*
X1018012Y-7035D01*
X1019294Y-8706D01*
X1020965Y-9988D01*
X1022912Y-10794D01*
X1025000Y-11069D01*
X1027088Y-10794D01*
X1029035Y-9988D01*
X1030706Y-8706D01*
X1031988Y-7035D01*
X1032794Y-5088D01*
X1033069Y-3000D01*
X1032794Y-912D01*
X1031988Y1035D01*
X1030706Y2706D01*
X1029035Y3988D01*
X1027088Y4794D01*
X1025000Y5069D01*
D02*
G37*
G36*
X1085000D02*
X1082912Y4794D01*
X1080965Y3988D01*
X1079294Y2706D01*
X1078012Y1035D01*
X1077206Y-912D01*
X1076931Y-3000D01*
X1077206Y-5088D01*
X1078012Y-7035D01*
X1079294Y-8706D01*
X1080965Y-9988D01*
X1082912Y-10794D01*
X1085000Y-11069D01*
X1087088Y-10794D01*
X1089035Y-9988D01*
X1090706Y-8706D01*
X1091988Y-7035D01*
X1092794Y-5088D01*
X1093069Y-3000D01*
X1092794Y-912D01*
X1091988Y1035D01*
X1090706Y2706D01*
X1089035Y3988D01*
X1087088Y4794D01*
X1085000Y5069D01*
D02*
G37*
G36*
X1065000D02*
X1062912Y4794D01*
X1060965Y3988D01*
X1059294Y2706D01*
X1058012Y1035D01*
X1057206Y-912D01*
X1056931Y-3000D01*
X1057206Y-5088D01*
X1058012Y-7035D01*
X1059294Y-8706D01*
X1060965Y-9988D01*
X1062912Y-10794D01*
X1065000Y-11069D01*
X1067088Y-10794D01*
X1069035Y-9988D01*
X1070706Y-8706D01*
X1071988Y-7035D01*
X1072794Y-5088D01*
X1073069Y-3000D01*
X1072794Y-912D01*
X1071988Y1035D01*
X1070706Y2706D01*
X1069035Y3988D01*
X1067088Y4794D01*
X1065000Y5069D01*
D02*
G37*
G36*
X1005000D02*
X1002912Y4794D01*
X1000965Y3988D01*
X999294Y2706D01*
X998012Y1035D01*
X997206Y-912D01*
X996931Y-3000D01*
X997206Y-5088D01*
X998012Y-7035D01*
X999294Y-8706D01*
X1000965Y-9988D01*
X1002912Y-10794D01*
X1005000Y-11069D01*
X1007088Y-10794D01*
X1009035Y-9988D01*
X1010706Y-8706D01*
X1011988Y-7035D01*
X1012794Y-5088D01*
X1013069Y-3000D01*
X1012794Y-912D01*
X1011988Y1035D01*
X1010706Y2706D01*
X1009035Y3988D01*
X1007088Y4794D01*
X1005000Y5069D01*
D02*
G37*
G36*
X945000D02*
X942912Y4794D01*
X940965Y3988D01*
X939294Y2706D01*
X938012Y1035D01*
X937206Y-912D01*
X936931Y-3000D01*
X937206Y-5088D01*
X938012Y-7035D01*
X939294Y-8706D01*
X940965Y-9988D01*
X942912Y-10794D01*
X945000Y-11069D01*
X947088Y-10794D01*
X949035Y-9988D01*
X950706Y-8706D01*
X951988Y-7035D01*
X952794Y-5088D01*
X953069Y-3000D01*
X952794Y-912D01*
X951988Y1035D01*
X950706Y2706D01*
X949035Y3988D01*
X947088Y4794D01*
X945000Y5069D01*
D02*
G37*
G36*
X750000Y-3157D02*
X748147Y-3526D01*
X746575Y-4575D01*
X745526Y-6147D01*
X745157Y-8000D01*
X745526Y-9853D01*
X746575Y-11425D01*
X748147Y-12474D01*
X750000Y-12843D01*
X751853Y-12474D01*
X753425Y-11425D01*
X754474Y-9853D01*
X754843Y-8000D01*
X754474Y-6147D01*
X753425Y-4575D01*
X751853Y-3526D01*
X750000Y-3157D01*
D02*
G37*
G36*
X985000Y5069D02*
X982912Y4794D01*
X980965Y3988D01*
X979294Y2706D01*
X978012Y1035D01*
X977206Y-912D01*
X976931Y-3000D01*
X977206Y-5088D01*
X978012Y-7035D01*
X979294Y-8706D01*
X980965Y-9988D01*
X982912Y-10794D01*
X985000Y-11069D01*
X987088Y-10794D01*
X989035Y-9988D01*
X990706Y-8706D01*
X991988Y-7035D01*
X992794Y-5088D01*
X993069Y-3000D01*
X992794Y-912D01*
X991988Y1035D01*
X990706Y2706D01*
X989035Y3988D01*
X987088Y4794D01*
X985000Y5069D01*
D02*
G37*
G36*
X965000D02*
X962912Y4794D01*
X960965Y3988D01*
X959294Y2706D01*
X958012Y1035D01*
X957206Y-912D01*
X956931Y-3000D01*
X957206Y-5088D01*
X958012Y-7035D01*
X959294Y-8706D01*
X960965Y-9988D01*
X962912Y-10794D01*
X965000Y-11069D01*
X967088Y-10794D01*
X969035Y-9988D01*
X970706Y-8706D01*
X971988Y-7035D01*
X972794Y-5088D01*
X973069Y-3000D01*
X972794Y-912D01*
X971988Y1035D01*
X970706Y2706D01*
X969035Y3988D01*
X967088Y4794D01*
X965000Y5069D01*
D02*
G37*
G36*
X985000Y-14931D02*
X982912Y-15206D01*
X980965Y-16012D01*
X979294Y-17294D01*
X978012Y-18966D01*
X977206Y-20912D01*
X976931Y-23000D01*
X977206Y-25088D01*
X978012Y-27034D01*
X979294Y-28706D01*
X980965Y-29988D01*
X982912Y-30794D01*
X985000Y-31069D01*
X987088Y-30794D01*
X989035Y-29988D01*
X990706Y-28706D01*
X991988Y-27034D01*
X992794Y-25088D01*
X993069Y-23000D01*
X992794Y-20912D01*
X991988Y-18966D01*
X990706Y-17294D01*
X989035Y-16012D01*
X987088Y-15206D01*
X985000Y-14931D01*
D02*
G37*
G36*
X965000D02*
X962912Y-15206D01*
X960965Y-16012D01*
X959294Y-17294D01*
X958012Y-18966D01*
X957206Y-20912D01*
X956931Y-23000D01*
X957206Y-25088D01*
X958012Y-27034D01*
X959294Y-28706D01*
X960965Y-29988D01*
X962912Y-30794D01*
X965000Y-31069D01*
X967088Y-30794D01*
X969035Y-29988D01*
X970706Y-28706D01*
X971988Y-27034D01*
X972794Y-25088D01*
X973069Y-23000D01*
X972794Y-20912D01*
X971988Y-18966D01*
X970706Y-17294D01*
X969035Y-16012D01*
X967088Y-15206D01*
X965000Y-14931D01*
D02*
G37*
G36*
X1025000D02*
X1022912Y-15206D01*
X1020965Y-16012D01*
X1019294Y-17294D01*
X1018012Y-18966D01*
X1017206Y-20912D01*
X1016931Y-23000D01*
X1017206Y-25088D01*
X1018012Y-27034D01*
X1019294Y-28706D01*
X1020965Y-29988D01*
X1022912Y-30794D01*
X1025000Y-31069D01*
X1027088Y-30794D01*
X1029035Y-29988D01*
X1030706Y-28706D01*
X1031988Y-27034D01*
X1032794Y-25088D01*
X1033069Y-23000D01*
X1032794Y-20912D01*
X1031988Y-18966D01*
X1030706Y-17294D01*
X1029035Y-16012D01*
X1027088Y-15206D01*
X1025000Y-14931D01*
D02*
G37*
G36*
X1005000D02*
X1002912Y-15206D01*
X1000965Y-16012D01*
X999294Y-17294D01*
X998012Y-18966D01*
X997206Y-20912D01*
X996931Y-23000D01*
X997206Y-25088D01*
X998012Y-27034D01*
X999294Y-28706D01*
X1000965Y-29988D01*
X1002912Y-30794D01*
X1005000Y-31069D01*
X1007088Y-30794D01*
X1009035Y-29988D01*
X1010706Y-28706D01*
X1011988Y-27034D01*
X1012794Y-25088D01*
X1013069Y-23000D01*
X1012794Y-20912D01*
X1011988Y-18966D01*
X1010706Y-17294D01*
X1009035Y-16012D01*
X1007088Y-15206D01*
X1005000Y-14931D01*
D02*
G37*
G36*
X945000D02*
X942912Y-15206D01*
X940965Y-16012D01*
X939294Y-17294D01*
X938012Y-18966D01*
X937206Y-20912D01*
X936931Y-23000D01*
X937206Y-25088D01*
X938012Y-27034D01*
X939294Y-28706D01*
X940965Y-29988D01*
X942912Y-30794D01*
X945000Y-31069D01*
X947088Y-30794D01*
X949035Y-29988D01*
X950706Y-28706D01*
X951988Y-27034D01*
X952794Y-25088D01*
X953069Y-23000D01*
X952794Y-20912D01*
X951988Y-18966D01*
X950706Y-17294D01*
X949035Y-16012D01*
X947088Y-15206D01*
X945000Y-14931D01*
D02*
G37*
G36*
X492000Y-20192D02*
X490238Y-20424D01*
X488596Y-21104D01*
X487186Y-22186D01*
X486104Y-23596D01*
X485424Y-25238D01*
X485192Y-27000D01*
X485424Y-28762D01*
X486104Y-30404D01*
X487186Y-31814D01*
X488596Y-32896D01*
X490238Y-33576D01*
X492000Y-33808D01*
X493762Y-33576D01*
X495404Y-32896D01*
X496814Y-31814D01*
X497896Y-30404D01*
X498576Y-28762D01*
X498808Y-27000D01*
X498576Y-25238D01*
X497896Y-23596D01*
X496814Y-22186D01*
X495404Y-21104D01*
X493762Y-20424D01*
X492000Y-20192D01*
D02*
G37*
G36*
X847000Y-22157D02*
X845147Y-22526D01*
X843576Y-23575D01*
X842526Y-25147D01*
X842157Y-27000D01*
X842526Y-28853D01*
X843576Y-30424D01*
Y-31576D01*
X842526Y-33147D01*
X842157Y-35000D01*
X842526Y-36853D01*
X843093Y-37702D01*
X842881Y-39372D01*
X842576Y-39575D01*
X841526Y-41147D01*
X841157Y-43000D01*
X841526Y-44853D01*
X842576Y-46424D01*
X844147Y-47474D01*
X846000Y-47843D01*
X847853Y-47474D01*
X849425Y-46424D01*
X850474Y-44853D01*
X850843Y-43000D01*
X850474Y-41147D01*
X849907Y-40298D01*
X850119Y-38628D01*
X850425Y-38425D01*
X851474Y-36853D01*
X851843Y-35000D01*
X851474Y-33147D01*
X850425Y-31576D01*
Y-30424D01*
X851474Y-28853D01*
X851843Y-27000D01*
X851474Y-25147D01*
X850425Y-23575D01*
X848853Y-22526D01*
X847000Y-22157D01*
D02*
G37*
G36*
X1235000Y-16931D02*
X1232912Y-17206D01*
X1230965Y-18012D01*
X1229294Y-19294D01*
X1228012Y-20965D01*
X1227206Y-22912D01*
X1226931Y-25000D01*
X1227206Y-27088D01*
X1228012Y-29035D01*
X1229294Y-30706D01*
X1230965Y-31988D01*
X1232912Y-32794D01*
X1235000Y-33069D01*
X1237088Y-32794D01*
X1239035Y-31988D01*
X1240706Y-30706D01*
X1241988Y-29035D01*
X1242794Y-27088D01*
X1243069Y-25000D01*
X1242794Y-22912D01*
X1241988Y-20965D01*
X1240706Y-19294D01*
X1239035Y-18012D01*
X1237088Y-17206D01*
X1235000Y-16931D01*
D02*
G37*
G36*
X1215000D02*
X1212912Y-17206D01*
X1210965Y-18012D01*
X1209294Y-19294D01*
X1208012Y-20965D01*
X1207206Y-22912D01*
X1206931Y-25000D01*
X1207206Y-27088D01*
X1208012Y-29035D01*
X1209294Y-30706D01*
X1210965Y-31988D01*
X1212912Y-32794D01*
X1215000Y-33069D01*
X1217088Y-32794D01*
X1219035Y-31988D01*
X1220706Y-30706D01*
X1221988Y-29035D01*
X1222794Y-27088D01*
X1223069Y-25000D01*
X1222794Y-22912D01*
X1221988Y-20965D01*
X1220706Y-19294D01*
X1219035Y-18012D01*
X1217088Y-17206D01*
X1215000Y-16931D01*
D02*
G37*
G36*
X750000Y-19157D02*
X748147Y-19526D01*
X746575Y-20575D01*
X745526Y-22147D01*
X745157Y-24000D01*
X745526Y-25853D01*
X746575Y-27425D01*
X748147Y-28474D01*
X750000Y-28843D01*
X751853Y-28474D01*
X753425Y-27425D01*
X754474Y-25853D01*
X754843Y-24000D01*
X754474Y-22147D01*
X753425Y-20575D01*
X751853Y-19526D01*
X750000Y-19157D01*
D02*
G37*
G36*
X1145000Y-14931D02*
X1142912Y-15206D01*
X1140965Y-16012D01*
X1139294Y-17294D01*
X1138012Y-18966D01*
X1137206Y-20912D01*
X1136931Y-23000D01*
X1137206Y-25088D01*
X1138012Y-27034D01*
X1139294Y-28706D01*
X1140965Y-29988D01*
X1142912Y-30794D01*
X1145000Y-31069D01*
X1147088Y-30794D01*
X1149035Y-29988D01*
X1150706Y-28706D01*
X1151988Y-27034D01*
X1152794Y-25088D01*
X1153069Y-23000D01*
X1152794Y-20912D01*
X1151988Y-18966D01*
X1150706Y-17294D01*
X1149035Y-16012D01*
X1147088Y-15206D01*
X1145000Y-14931D01*
D02*
G37*
G36*
X1255000Y78069D02*
X1252912Y77794D01*
X1250965Y76988D01*
X1249294Y75706D01*
X1248012Y74035D01*
X1247206Y72088D01*
X1246931Y70000D01*
X1247206Y67912D01*
X1248012Y65965D01*
X1249294Y64294D01*
X1250669Y63240D01*
X1250781Y62765D01*
Y62235D01*
X1250669Y61760D01*
X1249294Y60706D01*
X1248012Y59035D01*
X1247206Y57088D01*
X1246931Y55000D01*
X1247206Y52912D01*
X1248012Y50965D01*
X1249294Y49294D01*
X1250669Y48240D01*
X1250781Y47765D01*
Y47235D01*
X1250669Y46760D01*
X1249294Y45706D01*
X1248012Y44035D01*
X1247206Y42088D01*
X1246931Y40000D01*
X1247206Y37912D01*
X1248012Y35965D01*
X1249294Y34294D01*
X1250669Y33240D01*
X1250781Y32765D01*
Y32235D01*
X1250669Y31760D01*
X1249294Y30706D01*
X1248012Y29035D01*
X1247206Y27088D01*
X1246931Y25000D01*
X1247206Y22912D01*
X1248012Y20965D01*
X1249294Y19294D01*
X1250669Y18240D01*
X1250781Y17765D01*
Y17235D01*
X1250669Y16760D01*
X1249294Y15706D01*
X1248012Y14035D01*
X1247206Y12088D01*
X1246931Y10000D01*
X1247206Y7912D01*
X1248012Y5965D01*
X1249294Y4294D01*
X1250669Y3240D01*
X1250781Y2765D01*
Y2235D01*
X1250669Y1760D01*
X1249294Y706D01*
X1248012Y-966D01*
X1247206Y-2912D01*
X1246931Y-5000D01*
X1247206Y-7088D01*
X1248012Y-9035D01*
X1249294Y-10706D01*
X1250669Y-11760D01*
X1250781Y-12235D01*
Y-12765D01*
X1250669Y-13240D01*
X1249294Y-14294D01*
X1248012Y-15965D01*
X1247206Y-17912D01*
X1246931Y-20000D01*
X1247206Y-22088D01*
X1248012Y-24035D01*
X1249294Y-25706D01*
X1250965Y-26988D01*
X1252912Y-27794D01*
X1255000Y-28069D01*
X1257088Y-27794D01*
X1259035Y-26988D01*
X1260706Y-25706D01*
X1261988Y-24035D01*
X1262794Y-22088D01*
X1263069Y-20000D01*
X1262794Y-17912D01*
X1261988Y-15965D01*
X1260706Y-14294D01*
X1259331Y-13240D01*
X1259219Y-12765D01*
Y-12235D01*
X1259331Y-11760D01*
X1260706Y-10706D01*
X1261988Y-9035D01*
X1262794Y-7088D01*
X1263069Y-5000D01*
X1262794Y-2912D01*
X1261988Y-966D01*
X1260706Y706D01*
X1259331Y1760D01*
X1259219Y2235D01*
Y2765D01*
X1259331Y3240D01*
X1260706Y4294D01*
X1261988Y5965D01*
X1262794Y7912D01*
X1263069Y10000D01*
X1262794Y12088D01*
X1261988Y14035D01*
X1260706Y15706D01*
X1259331Y16760D01*
X1259219Y17235D01*
Y17765D01*
X1259331Y18240D01*
X1260706Y19294D01*
X1261988Y20965D01*
X1262794Y22912D01*
X1263069Y25000D01*
X1262794Y27088D01*
X1261988Y29035D01*
X1260706Y30706D01*
X1259331Y31760D01*
X1259219Y32235D01*
Y32765D01*
X1259331Y33240D01*
X1260706Y34294D01*
X1261988Y35965D01*
X1262794Y37912D01*
X1263069Y40000D01*
X1262794Y42088D01*
X1261988Y44035D01*
X1260706Y45706D01*
X1259331Y46760D01*
X1259219Y47235D01*
Y47765D01*
X1259331Y48240D01*
X1260706Y49294D01*
X1261988Y50965D01*
X1262794Y52912D01*
X1263069Y55000D01*
X1262794Y57088D01*
X1261988Y59035D01*
X1260706Y60706D01*
X1259331Y61760D01*
X1259219Y62235D01*
Y62765D01*
X1259331Y63240D01*
X1260706Y64294D01*
X1261988Y65965D01*
X1262794Y67912D01*
X1263069Y70000D01*
X1262794Y72088D01*
X1261988Y74035D01*
X1260706Y75706D01*
X1259035Y76988D01*
X1257088Y77794D01*
X1255000Y78069D01*
D02*
G37*
G36*
X323000Y-11931D02*
X320912Y-12206D01*
X318965Y-13012D01*
X317294Y-14294D01*
X316012Y-15965D01*
X315206Y-17912D01*
X314931Y-20000D01*
X315206Y-22088D01*
X316012Y-24035D01*
X317294Y-25706D01*
X318965Y-26988D01*
X320912Y-27794D01*
X323000Y-28069D01*
X325088Y-27794D01*
X327034Y-26988D01*
X328706Y-25706D01*
X329988Y-24035D01*
X330794Y-22088D01*
X331069Y-20000D01*
X330794Y-17912D01*
X329988Y-15965D01*
X328706Y-14294D01*
X327034Y-13012D01*
X325088Y-12206D01*
X323000Y-11931D01*
D02*
G37*
G36*
X1125000Y-14931D02*
X1122912Y-15206D01*
X1120965Y-16012D01*
X1119294Y-17294D01*
X1118012Y-18966D01*
X1117206Y-20912D01*
X1116931Y-23000D01*
X1117206Y-25088D01*
X1118012Y-27034D01*
X1119294Y-28706D01*
X1120965Y-29988D01*
X1122912Y-30794D01*
X1125000Y-31069D01*
X1127088Y-30794D01*
X1129035Y-29988D01*
X1130706Y-28706D01*
X1131988Y-27034D01*
X1132794Y-25088D01*
X1133069Y-23000D01*
X1132794Y-20912D01*
X1131988Y-18966D01*
X1130706Y-17294D01*
X1129035Y-16012D01*
X1127088Y-15206D01*
X1125000Y-14931D01*
D02*
G37*
G36*
X1065000D02*
X1062912Y-15206D01*
X1060965Y-16012D01*
X1059294Y-17294D01*
X1058012Y-18966D01*
X1057206Y-20912D01*
X1056931Y-23000D01*
X1057206Y-25088D01*
X1058012Y-27034D01*
X1059294Y-28706D01*
X1060965Y-29988D01*
X1062912Y-30794D01*
X1065000Y-31069D01*
X1067088Y-30794D01*
X1069035Y-29988D01*
X1070706Y-28706D01*
X1071988Y-27034D01*
X1072794Y-25088D01*
X1073069Y-23000D01*
X1072794Y-20912D01*
X1071988Y-18966D01*
X1070706Y-17294D01*
X1069035Y-16012D01*
X1067088Y-15206D01*
X1065000Y-14931D01*
D02*
G37*
G36*
X1045000D02*
X1042912Y-15206D01*
X1040965Y-16012D01*
X1039294Y-17294D01*
X1038012Y-18966D01*
X1037206Y-20912D01*
X1036931Y-23000D01*
X1037206Y-25088D01*
X1038012Y-27034D01*
X1039294Y-28706D01*
X1040965Y-29988D01*
X1042912Y-30794D01*
X1045000Y-31069D01*
X1047088Y-30794D01*
X1049035Y-29988D01*
X1050706Y-28706D01*
X1051988Y-27034D01*
X1052794Y-25088D01*
X1053069Y-23000D01*
X1052794Y-20912D01*
X1051988Y-18966D01*
X1050706Y-17294D01*
X1049035Y-16012D01*
X1047088Y-15206D01*
X1045000Y-14931D01*
D02*
G37*
G36*
X1105000D02*
X1102912Y-15206D01*
X1100965Y-16012D01*
X1099294Y-17294D01*
X1098012Y-18966D01*
X1097206Y-20912D01*
X1096931Y-23000D01*
X1097206Y-25088D01*
X1098012Y-27034D01*
X1099294Y-28706D01*
X1100965Y-29988D01*
X1102912Y-30794D01*
X1105000Y-31069D01*
X1107088Y-30794D01*
X1109035Y-29988D01*
X1110706Y-28706D01*
X1111988Y-27034D01*
X1112794Y-25088D01*
X1113069Y-23000D01*
X1112794Y-20912D01*
X1111988Y-18966D01*
X1110706Y-17294D01*
X1109035Y-16012D01*
X1107088Y-15206D01*
X1105000Y-14931D01*
D02*
G37*
G36*
X1085000D02*
X1082912Y-15206D01*
X1080965Y-16012D01*
X1079294Y-17294D01*
X1078012Y-18966D01*
X1077206Y-20912D01*
X1076931Y-23000D01*
X1077206Y-25088D01*
X1078012Y-27034D01*
X1079294Y-28706D01*
X1080965Y-29988D01*
X1082912Y-30794D01*
X1085000Y-31069D01*
X1087088Y-30794D01*
X1089035Y-29988D01*
X1090706Y-28706D01*
X1091988Y-27034D01*
X1092794Y-25088D01*
X1093069Y-23000D01*
X1092794Y-20912D01*
X1091988Y-18966D01*
X1090706Y-17294D01*
X1089035Y-16012D01*
X1087088Y-15206D01*
X1085000Y-14931D01*
D02*
G37*
G36*
X317000Y-78931D02*
X314912Y-79206D01*
X312966Y-80012D01*
X311294Y-81294D01*
X310012Y-82965D01*
X309206Y-84912D01*
X308931Y-87000D01*
X309206Y-89088D01*
X310012Y-91034D01*
X311294Y-92706D01*
X312966Y-93988D01*
X314912Y-94794D01*
X317000Y-95069D01*
X319088Y-94794D01*
X321035Y-93988D01*
X322706Y-92706D01*
X323988Y-91034D01*
X324794Y-89088D01*
X325069Y-87000D01*
X324794Y-84912D01*
X323988Y-82965D01*
X322706Y-81294D01*
X321035Y-80012D01*
X319088Y-79206D01*
X317000Y-78931D01*
D02*
G37*
G36*
X1225000Y-211931D02*
X1222912Y-212206D01*
X1220965Y-213012D01*
X1220000Y-213753D01*
X1219035Y-213012D01*
X1217088Y-212206D01*
X1215000Y-211931D01*
X1212912Y-212206D01*
X1210965Y-213012D01*
X1210000Y-213753D01*
X1209035Y-213012D01*
X1207088Y-212206D01*
X1205000Y-211931D01*
X1202912Y-212206D01*
X1200965Y-213012D01*
X1199294Y-214294D01*
X1198012Y-215965D01*
X1197206Y-217912D01*
X1196931Y-220000D01*
X1197206Y-222088D01*
X1198012Y-224035D01*
X1199294Y-225706D01*
X1200965Y-226988D01*
X1202912Y-227794D01*
X1205000Y-228069D01*
X1207088Y-227794D01*
X1209035Y-226988D01*
X1210000Y-226247D01*
X1210965Y-226988D01*
X1212912Y-227794D01*
X1215000Y-228069D01*
X1217088Y-227794D01*
X1219035Y-226988D01*
X1220000Y-226247D01*
X1220965Y-226988D01*
X1222912Y-227794D01*
X1225000Y-228069D01*
X1227088Y-227794D01*
X1229035Y-226988D01*
X1230706Y-225706D01*
X1231988Y-224035D01*
X1232794Y-222088D01*
X1233069Y-220000D01*
X1232794Y-217912D01*
X1231988Y-215965D01*
X1230706Y-214294D01*
X1229035Y-213012D01*
X1227088Y-212206D01*
X1225000Y-211931D01*
D02*
G37*
G36*
X492000Y-204192D02*
X490238Y-204424D01*
X488596Y-205104D01*
X487186Y-206186D01*
X486104Y-207596D01*
X485424Y-209238D01*
X485192Y-211000D01*
X485424Y-212762D01*
X486104Y-214404D01*
X487186Y-215814D01*
X488596Y-216896D01*
X490238Y-217576D01*
X492000Y-217808D01*
X493762Y-217576D01*
X495404Y-216896D01*
X496814Y-215814D01*
X497896Y-214404D01*
X498576Y-212762D01*
X498808Y-211000D01*
X498576Y-209238D01*
X497896Y-207596D01*
X496814Y-206186D01*
X495404Y-205104D01*
X493762Y-204424D01*
X492000Y-204192D01*
D02*
G37*
G36*
X451500Y-185931D02*
X449412Y-186206D01*
X447466Y-187012D01*
X445794Y-188294D01*
X444512Y-189965D01*
X443706Y-191912D01*
X443431Y-194000D01*
X443706Y-196088D01*
X444512Y-198034D01*
X445794Y-199706D01*
X447466Y-200988D01*
X449412Y-201794D01*
X451500Y-202069D01*
X453588Y-201794D01*
X455535Y-200988D01*
X457206Y-199706D01*
X458488Y-198034D01*
X459294Y-196088D01*
X459569Y-194000D01*
X459294Y-191912D01*
X458488Y-189965D01*
X457206Y-188294D01*
X455535Y-187012D01*
X453588Y-186206D01*
X451500Y-185931D01*
D02*
G37*
G36*
X323000Y-195931D02*
X320912Y-196206D01*
X318965Y-197012D01*
X317294Y-198294D01*
X316012Y-199965D01*
X315206Y-201912D01*
X314931Y-204000D01*
X315206Y-206088D01*
X316012Y-208034D01*
X317294Y-209706D01*
X318965Y-210988D01*
X320912Y-211794D01*
X323000Y-212069D01*
X325088Y-211794D01*
X327034Y-210988D01*
X328706Y-209706D01*
X329988Y-208034D01*
X330794Y-206088D01*
X331069Y-204000D01*
X330794Y-201912D01*
X329988Y-199965D01*
X328706Y-198294D01*
X327034Y-197012D01*
X325088Y-196206D01*
X323000Y-195931D01*
D02*
G37*
G36*
X570000Y-210157D02*
X568147Y-210526D01*
X566575Y-211575D01*
X565526Y-213147D01*
X565157Y-215000D01*
X565526Y-216853D01*
X566575Y-218425D01*
X568147Y-219474D01*
X570000Y-219843D01*
X571853Y-219474D01*
X573425Y-218425D01*
X574474Y-216853D01*
X574843Y-215000D01*
X574474Y-213147D01*
X573425Y-211575D01*
X571853Y-210526D01*
X570000Y-210157D01*
D02*
G37*
G36*
X874000Y-217157D02*
X872147Y-217526D01*
X870575Y-218575D01*
X869526Y-220147D01*
X869157Y-222000D01*
X869526Y-223853D01*
X870575Y-225424D01*
X872147Y-226474D01*
X874000Y-226843D01*
X875853Y-226474D01*
X877425Y-225424D01*
X878474Y-223853D01*
X878843Y-222000D01*
X878474Y-220147D01*
X877425Y-218575D01*
X875853Y-217526D01*
X874000Y-217157D01*
D02*
G37*
G36*
X900000Y-209896D02*
X896867Y-210309D01*
X893948Y-211518D01*
X891441Y-213442D01*
X889518Y-215948D01*
X888309Y-218867D01*
X887896Y-222000D01*
X888309Y-225133D01*
X889518Y-228052D01*
X891441Y-230558D01*
X893948Y-232482D01*
X896867Y-233691D01*
X900000Y-234104D01*
X903133Y-233691D01*
X906052Y-232482D01*
X908559Y-230558D01*
X910482Y-228052D01*
X911691Y-225133D01*
X912104Y-222000D01*
X911691Y-218867D01*
X910482Y-215948D01*
X908559Y-213442D01*
X906052Y-211518D01*
X903133Y-210309D01*
X900000Y-209896D01*
D02*
G37*
G36*
X611000Y-220157D02*
X609147Y-220526D01*
X607575Y-221576D01*
X606424D01*
X604853Y-220526D01*
X603000Y-220157D01*
X601147Y-220526D01*
X599575Y-221576D01*
X598526Y-223147D01*
X598157Y-225000D01*
X598526Y-226853D01*
X599575Y-228425D01*
X601147Y-229474D01*
X603000Y-229843D01*
X604853Y-229474D01*
X606424Y-228425D01*
X607575D01*
X609147Y-229474D01*
X611000Y-229843D01*
X612853Y-229474D01*
X614425Y-228425D01*
X615474Y-226853D01*
X615843Y-225000D01*
X615474Y-223147D01*
X614425Y-221576D01*
X612853Y-220526D01*
X611000Y-220157D01*
D02*
G37*
G36*
X851000Y-213157D02*
X849147Y-213526D01*
X847575Y-214575D01*
X846526Y-216147D01*
X846157Y-218000D01*
X846526Y-219853D01*
X847575Y-221425D01*
X849147Y-222474D01*
X851000Y-222843D01*
X852853Y-222474D01*
X854425Y-221425D01*
X855474Y-219853D01*
X855843Y-218000D01*
X855474Y-216147D01*
X854425Y-214575D01*
X852853Y-213526D01*
X851000Y-213157D01*
D02*
G37*
G36*
X589000Y-162157D02*
X587147Y-162526D01*
X585575Y-163575D01*
X584425D01*
X582853Y-162526D01*
X581000Y-162157D01*
X579147Y-162526D01*
X577575Y-163575D01*
X576526Y-165147D01*
X576157Y-167000D01*
X576526Y-168853D01*
X577575Y-170425D01*
X579147Y-171474D01*
X581000Y-171843D01*
X582853Y-171474D01*
X584425Y-170425D01*
X585575D01*
X587147Y-171474D01*
X589000Y-171843D01*
X590853Y-171474D01*
X592425Y-170425D01*
X593474Y-168853D01*
X593843Y-167000D01*
X593474Y-165147D01*
X592425Y-163575D01*
X590853Y-162526D01*
X589000Y-162157D01*
D02*
G37*
G36*
X323000Y-149931D02*
X320912Y-150206D01*
X318965Y-151012D01*
X317294Y-152294D01*
X316012Y-153966D01*
X315206Y-155912D01*
X314931Y-158000D01*
X315206Y-160088D01*
X316012Y-162034D01*
X317294Y-163706D01*
X318965Y-164988D01*
X320912Y-165794D01*
X323000Y-166069D01*
X325088Y-165794D01*
X327034Y-164988D01*
X328706Y-163706D01*
X329988Y-162034D01*
X330794Y-160088D01*
X331069Y-158000D01*
X330794Y-155912D01*
X329988Y-153966D01*
X328706Y-152294D01*
X327034Y-151012D01*
X325088Y-150206D01*
X323000Y-149931D01*
D02*
G37*
G36*
X895000Y-141192D02*
X893238Y-141424D01*
X891596Y-142104D01*
X890186Y-143186D01*
X889104Y-144596D01*
X888424Y-146238D01*
X888192Y-148000D01*
X888424Y-149762D01*
X889104Y-151404D01*
X890186Y-152814D01*
X891596Y-153896D01*
X893238Y-154576D01*
X895000Y-154808D01*
X896762Y-154576D01*
X898404Y-153896D01*
X899814Y-152814D01*
X900896Y-151404D01*
X901576Y-149762D01*
X901808Y-148000D01*
X901576Y-146238D01*
X900896Y-144596D01*
X899814Y-143186D01*
X898404Y-142104D01*
X896762Y-141424D01*
X895000Y-141192D01*
D02*
G37*
G36*
X451500Y-139931D02*
X449412Y-140206D01*
X447466Y-141012D01*
X445794Y-142294D01*
X444512Y-143966D01*
X443706Y-145912D01*
X443431Y-148000D01*
X443706Y-150088D01*
X444512Y-152035D01*
X445794Y-153706D01*
X447466Y-154988D01*
X449412Y-155794D01*
X451500Y-156069D01*
X453588Y-155794D01*
X455535Y-154988D01*
X457206Y-153706D01*
X458488Y-152035D01*
X459294Y-150088D01*
X459569Y-148000D01*
X459294Y-145912D01*
X458488Y-143966D01*
X457206Y-142294D01*
X455535Y-141012D01*
X453588Y-140206D01*
X451500Y-139931D01*
D02*
G37*
G36*
X895000Y-161157D02*
X893147Y-161526D01*
X891575Y-162575D01*
X890526Y-164147D01*
X890157Y-166000D01*
X890526Y-167853D01*
X891575Y-169425D01*
X893147Y-170474D01*
X895000Y-170843D01*
X896853Y-170474D01*
X898425Y-169425D01*
X899474Y-167853D01*
X899843Y-166000D01*
X899474Y-164147D01*
X898425Y-162575D01*
X896853Y-161526D01*
X895000Y-161157D01*
D02*
G37*
G36*
X863000Y-184157D02*
X861147Y-184526D01*
X859575Y-185575D01*
X858526Y-187147D01*
X858157Y-189000D01*
X858526Y-190853D01*
X859575Y-192425D01*
X861147Y-193474D01*
X863000Y-193843D01*
X864853Y-193474D01*
X866425Y-192425D01*
X867474Y-190853D01*
X867843Y-189000D01*
X867474Y-187147D01*
X866425Y-185575D01*
X864853Y-184526D01*
X863000Y-184157D01*
D02*
G37*
G36*
X585000Y-190157D02*
X583147Y-190526D01*
X581575Y-191575D01*
X580526Y-193147D01*
X580157Y-195000D01*
X580526Y-196853D01*
X581575Y-198424D01*
X583147Y-199474D01*
X585000Y-199843D01*
X586853Y-199474D01*
X588425Y-198424D01*
X589474Y-196853D01*
X589843Y-195000D01*
X589474Y-193147D01*
X588425Y-191575D01*
X586853Y-190526D01*
X585000Y-190157D01*
D02*
G37*
G36*
X492000Y-158192D02*
X490238Y-158424D01*
X488596Y-159104D01*
X487186Y-160186D01*
X486104Y-161596D01*
X485424Y-163238D01*
X485192Y-165000D01*
X485424Y-166762D01*
X486104Y-168404D01*
X487186Y-169814D01*
X488596Y-170896D01*
X490238Y-171576D01*
X492000Y-171808D01*
X493762Y-171576D01*
X495404Y-170896D01*
X496814Y-169814D01*
X497896Y-168404D01*
X498576Y-166762D01*
X498808Y-165000D01*
X498576Y-163238D01*
X497896Y-161596D01*
X496814Y-160186D01*
X495404Y-159104D01*
X493762Y-158424D01*
X492000Y-158192D01*
D02*
G37*
G36*
X317000Y-170931D02*
X314912Y-171206D01*
X312966Y-172012D01*
X311294Y-173294D01*
X310012Y-174965D01*
X309206Y-176912D01*
X308931Y-179000D01*
X309206Y-181088D01*
X310012Y-183034D01*
X311294Y-184706D01*
X312966Y-185988D01*
X314912Y-186794D01*
X317000Y-187069D01*
X319088Y-186794D01*
X321035Y-185988D01*
X322706Y-184706D01*
X323988Y-183034D01*
X324794Y-181088D01*
X325069Y-179000D01*
X324794Y-176912D01*
X323988Y-174965D01*
X322706Y-173294D01*
X321035Y-172012D01*
X319088Y-171206D01*
X317000Y-170931D01*
D02*
G37*
G36*
X575520Y-269068D02*
Y-279230D01*
X585682D01*
X585454Y-277498D01*
X584295Y-274700D01*
X582452Y-272298D01*
X580050Y-270455D01*
X577252Y-269296D01*
X575520Y-269068D01*
D02*
G37*
G36*
X572980Y-269068D02*
X571248Y-269296D01*
X568450Y-270455D01*
X566048Y-272298D01*
X564205Y-274700D01*
X563046Y-277498D01*
X562818Y-279230D01*
X572980D01*
Y-269068D01*
D02*
G37*
G36*
X647020Y-269068D02*
Y-279230D01*
X657182D01*
X656954Y-277498D01*
X655795Y-274700D01*
X653952Y-272298D01*
X651550Y-270455D01*
X648752Y-269296D01*
X647020Y-269068D01*
D02*
G37*
G36*
X644480Y-269068D02*
X642748Y-269296D01*
X639950Y-270455D01*
X637548Y-272298D01*
X635705Y-274700D01*
X634546Y-277498D01*
X634318Y-279230D01*
X644480D01*
Y-269068D01*
D02*
G37*
G36*
X900000Y-259896D02*
X896867Y-260309D01*
X893948Y-261518D01*
X891441Y-263442D01*
X889518Y-265948D01*
X888309Y-268867D01*
X887896Y-272000D01*
X888309Y-275133D01*
X889518Y-278052D01*
X891441Y-280558D01*
X893948Y-282482D01*
X896867Y-283691D01*
X900000Y-284104D01*
X903133Y-283691D01*
X906052Y-282482D01*
X908559Y-280558D01*
X910482Y-278052D01*
X911691Y-275133D01*
X912104Y-272000D01*
X911691Y-268867D01*
X910482Y-265948D01*
X908559Y-263442D01*
X906052Y-261518D01*
X903133Y-260309D01*
X900000Y-259896D01*
D02*
G37*
G36*
X657182Y-281770D02*
X647020D01*
Y-291932D01*
X648752Y-291704D01*
X651550Y-290545D01*
X653952Y-288702D01*
X655795Y-286300D01*
X656954Y-283502D01*
X657182Y-281770D01*
D02*
G37*
G36*
X572980Y-281770D02*
X562818D01*
X563046Y-283502D01*
X564205Y-286300D01*
X566048Y-288702D01*
X568450Y-290545D01*
X571248Y-291704D01*
X572980Y-291932D01*
Y-281770D01*
D02*
G37*
G36*
X585682D02*
X575520D01*
Y-291932D01*
X577252Y-291704D01*
X580050Y-290545D01*
X582452Y-288702D01*
X584295Y-286300D01*
X585454Y-283502D01*
X585682Y-281770D01*
D02*
G37*
G36*
X644480Y-281770D02*
X634318D01*
X634546Y-283502D01*
X635705Y-286300D01*
X637548Y-288702D01*
X639950Y-290545D01*
X642748Y-291704D01*
X644480Y-291932D01*
Y-281770D01*
D02*
G37*
G36*
X590000Y-240157D02*
X588147Y-240526D01*
X586836Y-241402D01*
X586000Y-241504D01*
X585164Y-241402D01*
X583853Y-240526D01*
X582000Y-240157D01*
X580147Y-240526D01*
X578575Y-241575D01*
X577526Y-243147D01*
X577157Y-245000D01*
X577526Y-246853D01*
X578575Y-248424D01*
X580147Y-249474D01*
X582000Y-249843D01*
X583853Y-249474D01*
X585424Y-248424D01*
X586576D01*
X588147Y-249474D01*
X590000Y-249843D01*
X591853Y-249474D01*
X593424Y-248424D01*
X594474Y-246853D01*
X594843Y-245000D01*
X594474Y-243147D01*
X593424Y-241575D01*
X591853Y-240526D01*
X590000Y-240157D01*
D02*
G37*
G36*
X1225000Y-241931D02*
X1222912Y-242206D01*
X1220965Y-243012D01*
X1220000Y-243753D01*
X1219035Y-243012D01*
X1217088Y-242206D01*
X1215000Y-241931D01*
X1212912Y-242206D01*
X1210965Y-243012D01*
X1210000Y-243753D01*
X1209035Y-243012D01*
X1207088Y-242206D01*
X1205000Y-241931D01*
X1202912Y-242206D01*
X1200965Y-243012D01*
X1199294Y-244294D01*
X1198012Y-245965D01*
X1197206Y-247912D01*
X1196931Y-250000D01*
X1197206Y-252088D01*
X1198012Y-254035D01*
X1199294Y-255706D01*
X1200965Y-256988D01*
X1202912Y-257794D01*
X1205000Y-258069D01*
X1207088Y-257794D01*
X1209035Y-256988D01*
X1210000Y-256247D01*
X1210965Y-256988D01*
X1212912Y-257794D01*
X1215000Y-258069D01*
X1217088Y-257794D01*
X1219035Y-256988D01*
X1220000Y-256247D01*
X1220965Y-256988D01*
X1222912Y-257794D01*
X1225000Y-258069D01*
X1227088Y-257794D01*
X1229035Y-256988D01*
X1230706Y-255706D01*
X1231988Y-254035D01*
X1232794Y-252088D01*
X1233069Y-250000D01*
X1232794Y-247912D01*
X1231988Y-245965D01*
X1230706Y-244294D01*
X1229035Y-243012D01*
X1227088Y-242206D01*
X1225000Y-241931D01*
D02*
G37*
G36*
X1055001Y-130921D02*
X1055000Y-130921D01*
X945000Y-130922D01*
X943439Y-131232D01*
X942116Y-132116D01*
X942116Y-132116D01*
X937116Y-137116D01*
X937116Y-137116D01*
X936232Y-138439D01*
X935921Y-140000D01*
X935921Y-140000D01*
X935922Y-255000D01*
X935922Y-255000D01*
X936232Y-256561D01*
X937116Y-257884D01*
X942116Y-262884D01*
X943439Y-263768D01*
X945000Y-264078D01*
X945000Y-264078D01*
X1055000D01*
X1055000Y-264078D01*
X1056561Y-263768D01*
X1057884Y-262884D01*
X1062884Y-257884D01*
X1063617Y-256787D01*
X1064582Y-256358D01*
X1064724Y-256322D01*
X1065109Y-256331D01*
X1065965Y-256988D01*
X1067912Y-257794D01*
X1070000Y-258069D01*
X1072088Y-257794D01*
X1074035Y-256988D01*
X1075706Y-255706D01*
X1076760Y-254331D01*
X1077235Y-254219D01*
X1077765D01*
X1078240Y-254331D01*
X1079294Y-255706D01*
X1080965Y-256988D01*
X1082912Y-257794D01*
X1085000Y-258069D01*
X1087088Y-257794D01*
X1089035Y-256988D01*
X1090706Y-255706D01*
X1091760Y-254331D01*
X1092235Y-254219D01*
X1092765D01*
X1093240Y-254331D01*
X1094294Y-255706D01*
X1095965Y-256988D01*
X1097912Y-257794D01*
X1100000Y-258069D01*
X1102088Y-257794D01*
X1104035Y-256988D01*
X1105706Y-255706D01*
X1106988Y-254035D01*
X1107794Y-252088D01*
X1108069Y-250000D01*
X1107794Y-247912D01*
X1106988Y-245965D01*
X1105706Y-244294D01*
X1104035Y-243012D01*
X1102088Y-242206D01*
X1100000Y-241931D01*
X1097912Y-242206D01*
X1095965Y-243012D01*
X1094294Y-244294D01*
X1093240Y-245669D01*
X1092765Y-245781D01*
X1092235D01*
X1091760Y-245669D01*
X1090706Y-244294D01*
X1089035Y-243012D01*
X1087088Y-242206D01*
X1085000Y-241931D01*
X1082912Y-242206D01*
X1080965Y-243012D01*
X1079294Y-244294D01*
X1078240Y-245669D01*
X1077765Y-245781D01*
X1077235D01*
X1076760Y-245669D01*
X1075706Y-244294D01*
X1074035Y-243012D01*
X1072088Y-242206D01*
X1070000Y-241931D01*
X1067912Y-242206D01*
X1065965Y-243012D01*
X1065348Y-243486D01*
X1064078Y-242859D01*
Y-222141D01*
X1065348Y-221514D01*
X1065965Y-221988D01*
X1067912Y-222794D01*
X1070000Y-223069D01*
X1072088Y-222794D01*
X1074035Y-221988D01*
X1075706Y-220706D01*
X1076760Y-219331D01*
X1077235Y-219219D01*
X1077765D01*
X1078240Y-219331D01*
X1079294Y-220706D01*
X1080965Y-221988D01*
X1082912Y-222794D01*
X1085000Y-223069D01*
X1087088Y-222794D01*
X1089035Y-221988D01*
X1090706Y-220706D01*
X1091760Y-219331D01*
X1092235Y-219219D01*
X1092765D01*
X1093240Y-219331D01*
X1094294Y-220706D01*
X1095965Y-221988D01*
X1097912Y-222794D01*
X1100000Y-223069D01*
X1102088Y-222794D01*
X1104035Y-221988D01*
X1105706Y-220706D01*
X1106988Y-219035D01*
X1107794Y-217088D01*
X1108069Y-215000D01*
X1107794Y-212912D01*
X1106988Y-210965D01*
X1105706Y-209294D01*
X1104331Y-208240D01*
X1104219Y-207765D01*
Y-207235D01*
X1104331Y-206760D01*
X1105706Y-205706D01*
X1106988Y-204035D01*
X1107545Y-202690D01*
X1108832Y-202902D01*
X1108995Y-205398D01*
X1110051Y-210704D01*
X1111790Y-215827D01*
X1114183Y-220679D01*
X1117188Y-225177D01*
X1120755Y-229245D01*
X1124822Y-232812D01*
X1129321Y-235818D01*
X1134173Y-238210D01*
X1139296Y-239949D01*
X1144602Y-241005D01*
X1150000Y-241359D01*
X1155398Y-241005D01*
X1160704Y-239949D01*
X1165827Y-238210D01*
X1170679Y-235818D01*
X1175178Y-232812D01*
X1179245Y-229245D01*
X1182812Y-225177D01*
X1185818Y-220679D01*
X1188210Y-215827D01*
X1189949Y-210704D01*
X1191005Y-205398D01*
X1191359Y-200000D01*
X1191005Y-194602D01*
X1189949Y-189296D01*
X1188210Y-184173D01*
X1185818Y-179321D01*
X1182812Y-174823D01*
X1179245Y-170755D01*
X1175178Y-167188D01*
X1170679Y-164182D01*
X1165827Y-161790D01*
X1160704Y-160051D01*
X1155398Y-158995D01*
X1151175Y-158719D01*
X1150963Y-157432D01*
X1152035Y-156988D01*
X1153706Y-155706D01*
X1154988Y-154035D01*
X1155794Y-152088D01*
X1156069Y-150000D01*
X1156060Y-149930D01*
X1157088Y-149794D01*
X1159035Y-148988D01*
X1160706Y-147706D01*
X1161988Y-146034D01*
X1162794Y-144088D01*
X1163069Y-142000D01*
X1162794Y-139912D01*
X1161988Y-137965D01*
X1160706Y-136294D01*
X1159035Y-135012D01*
X1157088Y-134206D01*
X1155000Y-133931D01*
X1152912Y-134206D01*
X1150965Y-135012D01*
X1149294Y-136294D01*
X1148012Y-137965D01*
X1147206Y-139912D01*
X1146931Y-142000D01*
X1146940Y-142071D01*
X1145912Y-142206D01*
X1143966Y-143012D01*
X1143703Y-143214D01*
X1142660Y-142413D01*
X1142794Y-142088D01*
X1143069Y-140000D01*
X1142794Y-137912D01*
X1141988Y-135965D01*
X1140706Y-134294D01*
X1139035Y-133012D01*
X1137088Y-132206D01*
X1135000Y-131931D01*
X1132912Y-132206D01*
X1130965Y-133012D01*
X1129294Y-134294D01*
X1128012Y-135965D01*
X1127206Y-137912D01*
X1126931Y-140000D01*
X1127206Y-142088D01*
X1128012Y-144035D01*
X1128753Y-145000D01*
X1128012Y-145965D01*
X1127206Y-147912D01*
X1126931Y-150000D01*
X1127206Y-152088D01*
X1128012Y-154035D01*
X1129294Y-155706D01*
X1130965Y-156988D01*
X1132912Y-157794D01*
X1135000Y-158069D01*
X1137088Y-157794D01*
X1139035Y-156988D01*
X1140698Y-155711D01*
X1140987Y-155498D01*
X1142013D01*
X1142302Y-155711D01*
X1143966Y-156988D01*
X1145584Y-157658D01*
X1145371Y-158945D01*
X1144602Y-158995D01*
X1139296Y-160051D01*
X1134173Y-161790D01*
X1129321Y-164182D01*
X1124822Y-167188D01*
X1120755Y-170755D01*
X1117188Y-174823D01*
X1114183Y-179321D01*
X1111790Y-184173D01*
X1110051Y-189296D01*
X1108995Y-194602D01*
X1108832Y-197098D01*
X1107545Y-197310D01*
X1106988Y-195965D01*
X1105706Y-194294D01*
X1104331Y-193240D01*
X1104219Y-192765D01*
Y-192235D01*
X1104331Y-191760D01*
X1105706Y-190706D01*
X1106988Y-189035D01*
X1107794Y-187088D01*
X1108069Y-185000D01*
X1107794Y-182912D01*
X1106988Y-180965D01*
X1105706Y-179294D01*
X1105062Y-178800D01*
Y-177200D01*
X1105706Y-176706D01*
X1106988Y-175035D01*
X1107794Y-173088D01*
X1108069Y-171000D01*
X1107794Y-168912D01*
X1106988Y-166966D01*
X1105863Y-165500D01*
X1106760Y-164331D01*
X1107235Y-164219D01*
X1107765D01*
X1108240Y-164331D01*
X1109294Y-165706D01*
X1110965Y-166988D01*
X1112912Y-167794D01*
X1115000Y-168069D01*
X1117088Y-167794D01*
X1119035Y-166988D01*
X1120706Y-165706D01*
X1121988Y-164035D01*
X1122794Y-162088D01*
X1123069Y-160000D01*
X1122794Y-157912D01*
X1121988Y-155965D01*
X1120706Y-154294D01*
X1119035Y-153012D01*
X1117088Y-152206D01*
X1115000Y-151931D01*
X1112912Y-152206D01*
X1110965Y-153012D01*
X1109294Y-154294D01*
X1108240Y-155669D01*
X1107765Y-155781D01*
X1107235D01*
X1106760Y-155669D01*
X1105706Y-154294D01*
X1104035Y-153012D01*
X1102088Y-152206D01*
X1100000Y-151931D01*
X1097912Y-152206D01*
X1097537Y-152361D01*
X1096639Y-151463D01*
X1096794Y-151088D01*
X1097069Y-149000D01*
X1097021Y-148635D01*
X1098196Y-147831D01*
X1100000Y-148069D01*
X1102088Y-147794D01*
X1104035Y-146988D01*
X1105706Y-145706D01*
X1106760Y-144331D01*
X1107235Y-144219D01*
X1107765D01*
X1108240Y-144331D01*
X1109294Y-145706D01*
X1110965Y-146988D01*
X1112912Y-147794D01*
X1115000Y-148069D01*
X1117088Y-147794D01*
X1119035Y-146988D01*
X1120706Y-145706D01*
X1121988Y-144035D01*
X1122794Y-142088D01*
X1123069Y-140000D01*
X1122794Y-137912D01*
X1121988Y-135965D01*
X1120706Y-134294D01*
X1119035Y-133012D01*
X1117088Y-132206D01*
X1115000Y-131931D01*
X1112912Y-132206D01*
X1110965Y-133012D01*
X1109294Y-134294D01*
X1108240Y-135669D01*
X1107765Y-135781D01*
X1107235D01*
X1106760Y-135669D01*
X1105706Y-134294D01*
X1104035Y-133012D01*
X1102088Y-132206D01*
X1100000Y-131931D01*
X1097912Y-132206D01*
X1095965Y-133012D01*
X1094294Y-134294D01*
X1093012Y-135965D01*
X1092206Y-137912D01*
X1091931Y-140000D01*
X1091979Y-140365D01*
X1090804Y-141168D01*
X1089224Y-140960D01*
X1088640Y-140614D01*
X1088386Y-140360D01*
X1088040Y-139776D01*
X1087794Y-137912D01*
X1086988Y-135965D01*
X1085706Y-134294D01*
X1084035Y-133012D01*
X1082088Y-132206D01*
X1080000Y-131931D01*
X1077912Y-132206D01*
X1075965Y-133012D01*
X1074294Y-134294D01*
X1073012Y-135965D01*
X1072206Y-137912D01*
X1071931Y-140000D01*
X1072206Y-142088D01*
X1073012Y-144035D01*
X1074294Y-145706D01*
X1075965Y-146988D01*
X1077912Y-147794D01*
X1079777Y-148040D01*
X1080015Y-148181D01*
X1080150Y-148676D01*
X1080133Y-148820D01*
X1079262Y-150028D01*
X1077912Y-150206D01*
X1075965Y-151012D01*
X1074294Y-152294D01*
X1073012Y-153966D01*
X1072206Y-155912D01*
X1071931Y-158000D01*
X1072206Y-160088D01*
X1072602Y-161044D01*
X1072449Y-161389D01*
X1071686Y-162153D01*
X1070000Y-161931D01*
X1067912Y-162206D01*
X1065965Y-163012D01*
X1065348Y-163486D01*
X1064078Y-162859D01*
X1064078Y-140000D01*
X1063924Y-139224D01*
X1063768Y-138440D01*
X1063768Y-138440D01*
X1063768Y-138439D01*
X1063176Y-137554D01*
X1062884Y-137116D01*
X1062884Y-137116D01*
X1062884Y-137116D01*
X1057884Y-132116D01*
X1057884Y-132116D01*
X1057884Y-132116D01*
X1057176Y-131643D01*
X1056561Y-131232D01*
X1056561Y-131232D01*
X1056561Y-131232D01*
X1055898Y-131100D01*
X1055001Y-130921D01*
D02*
G37*
G36*
X250000Y-158642D02*
X244602Y-158995D01*
X239296Y-160051D01*
X234173Y-161790D01*
X229321Y-164182D01*
X224823Y-167188D01*
X220755Y-170755D01*
X217188Y-174823D01*
X214182Y-179321D01*
X211790Y-184173D01*
X210051Y-189296D01*
X208995Y-194602D01*
X208641Y-200000D01*
X208995Y-205398D01*
X210051Y-210704D01*
X211790Y-215827D01*
X214182Y-220679D01*
X217188Y-225177D01*
X220755Y-229245D01*
X224823Y-232812D01*
X229321Y-235818D01*
X234173Y-238210D01*
X239296Y-239949D01*
X244602Y-241005D01*
X250000Y-241359D01*
X255398Y-241005D01*
X260704Y-239949D01*
X265827Y-238210D01*
X270679Y-235818D01*
X275177Y-232812D01*
X279245Y-229245D01*
X282812Y-225177D01*
X285818Y-220679D01*
X288210Y-215827D01*
X289949Y-210704D01*
X291005Y-205398D01*
X291359Y-200000D01*
X291005Y-194602D01*
X289949Y-189296D01*
X288210Y-184173D01*
X285818Y-179321D01*
X282812Y-174823D01*
X279245Y-170755D01*
X275177Y-167188D01*
X270679Y-164182D01*
X265827Y-161790D01*
X260704Y-160051D01*
X255398Y-158995D01*
X250000Y-158642D01*
D02*
G37*
G36*
X451500Y-231931D02*
X449412Y-232206D01*
X447466Y-233012D01*
X445794Y-234294D01*
X444512Y-235965D01*
X443706Y-237912D01*
X443431Y-240000D01*
X443706Y-242088D01*
X444512Y-244035D01*
X445794Y-245706D01*
X447466Y-246988D01*
X449412Y-247794D01*
X451500Y-248069D01*
X453588Y-247794D01*
X455535Y-246988D01*
X457206Y-245706D01*
X458488Y-244035D01*
X459294Y-242088D01*
X459569Y-240000D01*
X459294Y-237912D01*
X458488Y-235965D01*
X457206Y-234294D01*
X455535Y-233012D01*
X453588Y-232206D01*
X451500Y-231931D01*
D02*
G37*
G36*
X305000Y-261882D02*
X302659Y-262348D01*
X300674Y-263674D01*
X299348Y-265659D01*
X298883Y-268000D01*
X299348Y-270341D01*
X300674Y-272326D01*
X302659Y-273652D01*
X305000Y-274118D01*
X307341Y-273652D01*
X309326Y-272326D01*
X310652Y-270341D01*
X311117Y-268000D01*
X310652Y-265659D01*
X309326Y-263674D01*
X307341Y-262348D01*
X305000Y-261882D01*
D02*
G37*
G36*
X920000Y-267157D02*
X918147Y-267526D01*
X916575Y-268575D01*
X915526Y-270147D01*
X915157Y-272000D01*
X915526Y-273853D01*
X916575Y-275424D01*
X918147Y-276474D01*
X920000Y-276843D01*
X921853Y-276474D01*
X923425Y-275424D01*
X924474Y-273853D01*
X924843Y-272000D01*
X924474Y-270147D01*
X923425Y-268575D01*
X921853Y-267526D01*
X920000Y-267157D01*
D02*
G37*
G36*
X323000Y-241931D02*
X320912Y-242206D01*
X318965Y-243012D01*
X317294Y-244294D01*
X316012Y-245965D01*
X315206Y-247912D01*
X314931Y-250000D01*
X315206Y-252088D01*
X316012Y-254035D01*
X317294Y-255706D01*
X318965Y-256988D01*
X320912Y-257794D01*
X323000Y-258069D01*
X325088Y-257794D01*
X327034Y-256988D01*
X328706Y-255706D01*
X329988Y-254035D01*
X330794Y-252088D01*
X331069Y-250000D01*
X330794Y-247912D01*
X329988Y-245965D01*
X328706Y-244294D01*
X327034Y-243012D01*
X325088Y-242206D01*
X323000Y-241931D01*
D02*
G37*
G36*
X492000Y-250192D02*
X490238Y-250424D01*
X488596Y-251104D01*
X487186Y-252186D01*
X486104Y-253596D01*
X485424Y-255238D01*
X485192Y-257000D01*
X485424Y-258762D01*
X486104Y-260404D01*
X487186Y-261814D01*
X488596Y-262896D01*
X490238Y-263576D01*
X492000Y-263808D01*
X493762Y-263576D01*
X495404Y-262896D01*
X496814Y-261814D01*
X497896Y-260404D01*
X498576Y-258762D01*
X498808Y-257000D01*
X498576Y-255238D01*
X497896Y-253596D01*
X496814Y-252186D01*
X495404Y-251104D01*
X493762Y-250424D01*
X492000Y-250192D01*
D02*
G37*
G36*
X1155000Y-91931D02*
X1152912Y-92206D01*
X1150965Y-93012D01*
X1149294Y-94294D01*
X1148012Y-95965D01*
X1147206Y-97912D01*
X1146931Y-100000D01*
X1147206Y-102088D01*
X1148012Y-104035D01*
X1149294Y-105706D01*
X1150965Y-106988D01*
X1152912Y-107794D01*
X1155000Y-108069D01*
X1157088Y-107794D01*
X1159035Y-106988D01*
X1160706Y-105706D01*
X1161988Y-104035D01*
X1162794Y-102088D01*
X1163069Y-100000D01*
X1162794Y-97912D01*
X1161988Y-95965D01*
X1160706Y-94294D01*
X1159035Y-93012D01*
X1157088Y-92206D01*
X1155000Y-91931D01*
D02*
G37*
G36*
X1105000D02*
X1102912Y-92206D01*
X1100965Y-93012D01*
X1099294Y-94294D01*
X1098012Y-95965D01*
X1097206Y-97912D01*
X1096931Y-100000D01*
X1097206Y-102088D01*
X1098012Y-104035D01*
X1099294Y-105706D01*
X1100965Y-106988D01*
X1102912Y-107794D01*
X1105000Y-108069D01*
X1107088Y-107794D01*
X1109035Y-106988D01*
X1110706Y-105706D01*
X1111988Y-104035D01*
X1112794Y-102088D01*
X1113069Y-100000D01*
X1112794Y-97912D01*
X1111988Y-95965D01*
X1110706Y-94294D01*
X1109035Y-93012D01*
X1107088Y-92206D01*
X1105000Y-91931D01*
D02*
G37*
G36*
X596000Y-93157D02*
X594147Y-93526D01*
X592575Y-94576D01*
X591526Y-96147D01*
X591157Y-98000D01*
X591526Y-99853D01*
X592575Y-101425D01*
X594147Y-102474D01*
X596000Y-102843D01*
X597853Y-102474D01*
X599425Y-101425D01*
X600474Y-99853D01*
X600843Y-98000D01*
X600474Y-96147D01*
X599425Y-94576D01*
X597853Y-93526D01*
X596000Y-93157D01*
D02*
G37*
G36*
X704000Y-98157D02*
X702147Y-98526D01*
X700575Y-99575D01*
X699526Y-101147D01*
X699157Y-103000D01*
X699526Y-104853D01*
X700575Y-106425D01*
X702147Y-107474D01*
X704000Y-107843D01*
X705853Y-107474D01*
X707424Y-106425D01*
X708474Y-104853D01*
X708843Y-103000D01*
X708474Y-101147D01*
X707424Y-99575D01*
X705853Y-98526D01*
X704000Y-98157D01*
D02*
G37*
G36*
X985000Y-91931D02*
X982912Y-92206D01*
X980965Y-93012D01*
X979294Y-94294D01*
X978012Y-95965D01*
X977206Y-97912D01*
X976931Y-100000D01*
X977206Y-102088D01*
X978012Y-104035D01*
X979294Y-105706D01*
X980965Y-106988D01*
X982912Y-107794D01*
X985000Y-108069D01*
X987088Y-107794D01*
X989035Y-106988D01*
X990706Y-105706D01*
X991988Y-104035D01*
X992794Y-102088D01*
X993069Y-100000D01*
X992794Y-97912D01*
X991988Y-95965D01*
X990706Y-94294D01*
X989035Y-93012D01*
X987088Y-92206D01*
X985000Y-91931D01*
D02*
G37*
G36*
X1185000Y-104882D02*
X1182659Y-105348D01*
X1180674Y-106674D01*
X1179348Y-108659D01*
X1178883Y-111000D01*
X1179348Y-113341D01*
X1180674Y-115326D01*
X1182659Y-116652D01*
X1185000Y-117118D01*
X1187341Y-116652D01*
X1189326Y-115326D01*
X1190652Y-113341D01*
X1191117Y-111000D01*
X1190652Y-108659D01*
X1189326Y-106674D01*
X1187341Y-105348D01*
X1185000Y-104882D01*
D02*
G37*
G36*
X677000Y-116157D02*
X675147Y-116526D01*
X673576Y-117576D01*
X672424D01*
X670853Y-116526D01*
X669000Y-116157D01*
X667147Y-116526D01*
X665575Y-117576D01*
X664526Y-119147D01*
X664157Y-121000D01*
X664526Y-122853D01*
X665575Y-124425D01*
X667147Y-125474D01*
X669000Y-125843D01*
X670853Y-125474D01*
X672424Y-124425D01*
X673576D01*
X675147Y-125474D01*
X677000Y-125843D01*
X678853Y-125474D01*
X680424Y-124425D01*
X681474Y-122853D01*
X681843Y-121000D01*
X681474Y-119147D01*
X680424Y-117576D01*
X678853Y-116526D01*
X677000Y-116157D01*
D02*
G37*
G36*
X451500Y-93931D02*
X449412Y-94206D01*
X447466Y-95012D01*
X445794Y-96294D01*
X444512Y-97965D01*
X443706Y-99912D01*
X443431Y-102000D01*
X443706Y-104088D01*
X444512Y-106034D01*
X445794Y-107706D01*
X447466Y-108988D01*
X449412Y-109794D01*
X451500Y-110069D01*
X453588Y-109794D01*
X455535Y-108988D01*
X457206Y-107706D01*
X458488Y-106034D01*
X459294Y-104088D01*
X459569Y-102000D01*
X459294Y-99912D01*
X458488Y-97965D01*
X457206Y-96294D01*
X455535Y-95012D01*
X453588Y-94206D01*
X451500Y-93931D01*
D02*
G37*
G36*
X213000Y-98883D02*
X210659Y-99348D01*
X208674Y-100674D01*
X207348Y-102659D01*
X206882Y-105000D01*
X207348Y-107341D01*
X208674Y-109326D01*
X210659Y-110652D01*
X213000Y-111117D01*
X215341Y-110652D01*
X217326Y-109326D01*
X218652Y-107341D01*
X219118Y-105000D01*
X218652Y-102659D01*
X217326Y-100674D01*
X215341Y-99348D01*
X213000Y-98883D01*
D02*
G37*
G36*
X1354000Y-81931D02*
X1351912Y-82206D01*
X1349966Y-83012D01*
X1348294Y-84294D01*
X1347012Y-85965D01*
X1346206Y-87912D01*
X1345931Y-90000D01*
X1346206Y-92088D01*
X1347012Y-94035D01*
X1348294Y-95706D01*
X1349966Y-96988D01*
X1351912Y-97794D01*
X1354000Y-98069D01*
X1356088Y-97794D01*
X1358035Y-96988D01*
X1359706Y-95706D01*
X1360988Y-94035D01*
X1361794Y-92088D01*
X1362069Y-90000D01*
X1361794Y-87912D01*
X1360988Y-85965D01*
X1359706Y-84294D01*
X1358035Y-83012D01*
X1356088Y-82206D01*
X1354000Y-81931D01*
D02*
G37*
G36*
X1334000D02*
X1331912Y-82206D01*
X1329966Y-83012D01*
X1328294Y-84294D01*
X1327012Y-85965D01*
X1326206Y-87912D01*
X1325931Y-90000D01*
X1326206Y-92088D01*
X1327012Y-94035D01*
X1328294Y-95706D01*
X1329966Y-96988D01*
X1331912Y-97794D01*
X1334000Y-98069D01*
X1336088Y-97794D01*
X1338035Y-96988D01*
X1339706Y-95706D01*
X1340988Y-94035D01*
X1341794Y-92088D01*
X1342069Y-90000D01*
X1341794Y-87912D01*
X1340988Y-85965D01*
X1339706Y-84294D01*
X1338035Y-83012D01*
X1336088Y-82206D01*
X1334000Y-81931D01*
D02*
G37*
G36*
X585000Y-93157D02*
X583147Y-93526D01*
X581575Y-94576D01*
X580706Y-95877D01*
X580239Y-95979D01*
X579761D01*
X579294Y-95877D01*
X578424Y-94576D01*
X576853Y-93526D01*
X575000Y-93157D01*
X573147Y-93526D01*
X571575Y-94576D01*
X570526Y-96147D01*
X570157Y-98000D01*
X570526Y-99853D01*
X571575Y-101425D01*
X573147Y-102474D01*
X575000Y-102843D01*
X576853Y-102474D01*
X578424Y-101425D01*
X579294Y-100123D01*
X579761Y-100021D01*
X580239D01*
X580706Y-100123D01*
X581575Y-101425D01*
X583147Y-102474D01*
X585000Y-102843D01*
X586853Y-102474D01*
X588425Y-101425D01*
X589474Y-99853D01*
X589843Y-98000D01*
X589474Y-96147D01*
X588425Y-94576D01*
X586853Y-93526D01*
X585000Y-93157D01*
D02*
G37*
G36*
X819000Y-95157D02*
X817147Y-95526D01*
X815575Y-96575D01*
X815424D01*
X813853Y-95526D01*
X812000Y-95157D01*
X810147Y-95526D01*
X808575Y-96575D01*
X807526Y-98147D01*
X807157Y-100000D01*
X807526Y-101853D01*
X808575Y-103425D01*
X810147Y-104474D01*
X812000Y-104843D01*
X813853Y-104474D01*
X815424Y-103425D01*
X815575D01*
X816636Y-104133D01*
X816368Y-105482D01*
X816147Y-105526D01*
X814575Y-106575D01*
X813526Y-108147D01*
X813157Y-110000D01*
X813526Y-111853D01*
X814575Y-113425D01*
X816147Y-114474D01*
X818000Y-114843D01*
X819853Y-114474D01*
X821424Y-113425D01*
X822474Y-111853D01*
X822843Y-110000D01*
X822474Y-108147D01*
X821424Y-106575D01*
X820364Y-105867D01*
X820632Y-104518D01*
X820853Y-104474D01*
X822424Y-103425D01*
X823474Y-101853D01*
X823843Y-100000D01*
X823474Y-98147D01*
X822424Y-96575D01*
X820853Y-95526D01*
X819000Y-95157D01*
D02*
G37*
G36*
X1314000Y-81931D02*
X1311912Y-82206D01*
X1309966Y-83012D01*
X1308294Y-84294D01*
X1307012Y-85965D01*
X1306206Y-87912D01*
X1305931Y-90000D01*
X1306206Y-92088D01*
X1307012Y-94035D01*
X1308294Y-95706D01*
X1309966Y-96988D01*
X1311912Y-97794D01*
X1314000Y-98069D01*
X1316088Y-97794D01*
X1318035Y-96988D01*
X1319706Y-95706D01*
X1320988Y-94035D01*
X1321794Y-92088D01*
X1322069Y-90000D01*
X1321794Y-87912D01*
X1320988Y-85965D01*
X1319706Y-84294D01*
X1318035Y-83012D01*
X1316088Y-82206D01*
X1314000Y-81931D01*
D02*
G37*
G36*
X905000Y-86192D02*
X903238Y-86424D01*
X901596Y-87104D01*
X900186Y-88186D01*
X899104Y-89596D01*
X898424Y-91238D01*
X898192Y-93000D01*
X898424Y-94762D01*
X899104Y-96404D01*
X900186Y-97814D01*
X901596Y-98896D01*
X903238Y-99576D01*
X905000Y-99808D01*
X906762Y-99576D01*
X908404Y-98896D01*
X909814Y-97814D01*
X910896Y-96404D01*
X911576Y-94762D01*
X911808Y-93000D01*
X911576Y-91238D01*
X910896Y-89596D01*
X909814Y-88186D01*
X908404Y-87104D01*
X906762Y-86424D01*
X905000Y-86192D01*
D02*
G37*
G36*
X607000Y-93157D02*
X605147Y-93526D01*
X603576Y-94576D01*
X602526Y-96147D01*
X602157Y-98000D01*
X602526Y-99853D01*
X603576Y-101425D01*
X605147Y-102474D01*
X607000Y-102843D01*
X608853Y-102474D01*
X610425Y-101425D01*
X611474Y-99853D01*
X611843Y-98000D01*
X611474Y-96147D01*
X610425Y-94576D01*
X608853Y-93526D01*
X607000Y-93157D01*
D02*
G37*
G36*
X1294000Y-81931D02*
X1291912Y-82206D01*
X1289966Y-83012D01*
X1288294Y-84294D01*
X1287012Y-85965D01*
X1286206Y-87912D01*
X1285931Y-90000D01*
X1286206Y-92088D01*
X1287012Y-94035D01*
X1288294Y-95706D01*
X1289966Y-96988D01*
X1291912Y-97794D01*
X1294000Y-98069D01*
X1296088Y-97794D01*
X1298035Y-96988D01*
X1299706Y-95706D01*
X1300988Y-94035D01*
X1301794Y-92088D01*
X1302069Y-90000D01*
X1301794Y-87912D01*
X1300988Y-85965D01*
X1299706Y-84294D01*
X1298035Y-83012D01*
X1296088Y-82206D01*
X1294000Y-81931D01*
D02*
G37*
G36*
X923000Y-86192D02*
X921238Y-86424D01*
X919596Y-87104D01*
X918186Y-88186D01*
X917104Y-89596D01*
X916424Y-91238D01*
X916192Y-93000D01*
X916424Y-94762D01*
X917104Y-96404D01*
X918186Y-97814D01*
X919596Y-98896D01*
X921238Y-99576D01*
X923000Y-99808D01*
X924762Y-99576D01*
X926404Y-98896D01*
X927814Y-97814D01*
X928896Y-96404D01*
X929576Y-94762D01*
X929808Y-93000D01*
X929576Y-91238D01*
X928896Y-89596D01*
X927814Y-88186D01*
X926404Y-87104D01*
X924762Y-86424D01*
X923000Y-86192D01*
D02*
G37*
G36*
X740000Y-123157D02*
X738147Y-123526D01*
X736575Y-124575D01*
X735526Y-126147D01*
X735157Y-128000D01*
X735526Y-129853D01*
X736575Y-131425D01*
X738147Y-132474D01*
X740000Y-132843D01*
X741853Y-132474D01*
X743425Y-131425D01*
X744474Y-129853D01*
X744843Y-128000D01*
X744474Y-126147D01*
X743425Y-124575D01*
X741853Y-123526D01*
X740000Y-123157D01*
D02*
G37*
G36*
X728000D02*
X726147Y-123526D01*
X724575Y-124575D01*
X723526Y-126147D01*
X723157Y-128000D01*
X723526Y-129853D01*
X724575Y-131425D01*
X726147Y-132474D01*
X728000Y-132843D01*
X729853Y-132474D01*
X731424Y-131425D01*
X732474Y-129853D01*
X732843Y-128000D01*
X732474Y-126147D01*
X731424Y-124575D01*
X729853Y-123526D01*
X728000Y-123157D01*
D02*
G37*
G36*
X787000Y-128157D02*
X785147Y-128526D01*
X783576Y-129575D01*
X783425D01*
X781853Y-128526D01*
X780000Y-128157D01*
X778147Y-128526D01*
X776575Y-129575D01*
X775526Y-131147D01*
X775157Y-133000D01*
X775526Y-134853D01*
X776575Y-136425D01*
X778147Y-137474D01*
X780000Y-137843D01*
X781853Y-137474D01*
X783425Y-136425D01*
X783576D01*
X785147Y-137474D01*
X787000Y-137843D01*
X788853Y-137474D01*
X790425Y-136425D01*
X791474Y-134853D01*
X791843Y-133000D01*
X791474Y-131147D01*
X790425Y-129575D01*
X788853Y-128526D01*
X787000Y-128157D01*
D02*
G37*
G36*
X574000Y-120157D02*
X572147Y-120526D01*
X570575Y-121575D01*
X569526Y-123147D01*
X569157Y-125000D01*
X569526Y-126853D01*
X570575Y-128425D01*
X572147Y-129474D01*
X574000Y-129843D01*
X575853Y-129474D01*
X577425Y-128425D01*
X578474Y-126853D01*
X578843Y-125000D01*
X578474Y-123147D01*
X577425Y-121575D01*
X575853Y-120526D01*
X574000Y-120157D01*
D02*
G37*
G36*
X565000Y-129157D02*
X563147Y-129526D01*
X561575Y-130576D01*
X560526Y-132147D01*
X560157Y-134000D01*
X560526Y-135853D01*
X561575Y-137425D01*
X563147Y-138474D01*
X565000Y-138843D01*
X566853Y-138474D01*
X568424Y-137425D01*
X569474Y-135853D01*
X569843Y-134000D01*
X569474Y-132147D01*
X568424Y-130576D01*
X566853Y-129526D01*
X565000Y-129157D01*
D02*
G37*
G36*
X604000Y-141157D02*
X602147Y-141526D01*
X600575Y-142575D01*
X599526Y-144147D01*
X599157Y-146000D01*
X599526Y-147853D01*
X600575Y-149424D01*
X602147Y-150474D01*
X604000Y-150843D01*
X605853Y-150474D01*
X607425Y-149424D01*
X608474Y-147853D01*
X608843Y-146000D01*
X608474Y-144147D01*
X607425Y-142575D01*
X605853Y-141526D01*
X604000Y-141157D01*
D02*
G37*
G36*
X623000D02*
X621147Y-141526D01*
X619576Y-142575D01*
X618424D01*
X616853Y-141526D01*
X615000Y-141157D01*
X613147Y-141526D01*
X611575Y-142575D01*
X610526Y-144147D01*
X610157Y-146000D01*
X610526Y-147853D01*
X611575Y-149424D01*
X613147Y-150474D01*
X615000Y-150843D01*
X616853Y-150474D01*
X618424Y-149424D01*
X619576D01*
X621147Y-150474D01*
X623000Y-150843D01*
X624853Y-150474D01*
X626425Y-149424D01*
X627474Y-147853D01*
X627843Y-146000D01*
X627474Y-144147D01*
X626425Y-142575D01*
X624853Y-141526D01*
X623000Y-141157D01*
D02*
G37*
G36*
X851000Y-141192D02*
X849238Y-141424D01*
X847596Y-142104D01*
X846186Y-143186D01*
X845562Y-143999D01*
X844853Y-143526D01*
X843000Y-143157D01*
X841147Y-143526D01*
X839575Y-144576D01*
X838526Y-146147D01*
X838157Y-148000D01*
X838526Y-149853D01*
X839575Y-151425D01*
X841147Y-152474D01*
X843000Y-152843D01*
X844853Y-152474D01*
X845562Y-152001D01*
X846186Y-152814D01*
X847596Y-153896D01*
X849238Y-154576D01*
X851000Y-154808D01*
X852762Y-154576D01*
X854404Y-153896D01*
X855814Y-152814D01*
X856896Y-151404D01*
X857576Y-149762D01*
X857808Y-148000D01*
X857576Y-146238D01*
X856896Y-144596D01*
X855814Y-143186D01*
X854404Y-142104D01*
X852762Y-141424D01*
X851000Y-141192D01*
D02*
G37*
G36*
X1314000Y-101931D02*
X1311912Y-102206D01*
X1309966Y-103012D01*
X1308294Y-104294D01*
X1307012Y-105965D01*
X1306206Y-107912D01*
X1305931Y-110000D01*
X1306206Y-112088D01*
X1307012Y-114035D01*
X1308294Y-115706D01*
X1309966Y-116988D01*
X1311912Y-117794D01*
X1314000Y-118069D01*
X1316088Y-117794D01*
X1318035Y-116988D01*
X1319706Y-115706D01*
X1320988Y-114035D01*
X1321794Y-112088D01*
X1322069Y-110000D01*
X1321794Y-107912D01*
X1320988Y-105965D01*
X1319706Y-104294D01*
X1318035Y-103012D01*
X1316088Y-102206D01*
X1314000Y-101931D01*
D02*
G37*
G36*
X1294000D02*
X1291912Y-102206D01*
X1289966Y-103012D01*
X1288294Y-104294D01*
X1287012Y-105965D01*
X1286206Y-107912D01*
X1285931Y-110000D01*
X1286206Y-112088D01*
X1287012Y-114035D01*
X1288294Y-115706D01*
X1289966Y-116988D01*
X1291912Y-117794D01*
X1294000Y-118069D01*
X1296088Y-117794D01*
X1298035Y-116988D01*
X1299706Y-115706D01*
X1300988Y-114035D01*
X1301794Y-112088D01*
X1302069Y-110000D01*
X1301794Y-107912D01*
X1300988Y-105965D01*
X1299706Y-104294D01*
X1298035Y-103012D01*
X1296088Y-102206D01*
X1294000Y-101931D01*
D02*
G37*
G36*
X1354000D02*
X1351912Y-102206D01*
X1349966Y-103012D01*
X1348294Y-104294D01*
X1347012Y-105965D01*
X1346206Y-107912D01*
X1345931Y-110000D01*
X1346206Y-112088D01*
X1347012Y-114035D01*
X1348294Y-115706D01*
X1349966Y-116988D01*
X1351912Y-117794D01*
X1354000Y-118069D01*
X1356088Y-117794D01*
X1358035Y-116988D01*
X1359706Y-115706D01*
X1360988Y-114035D01*
X1361794Y-112088D01*
X1362069Y-110000D01*
X1361794Y-107912D01*
X1360988Y-105965D01*
X1359706Y-104294D01*
X1358035Y-103012D01*
X1356088Y-102206D01*
X1354000Y-101931D01*
D02*
G37*
G36*
X1334000D02*
X1331912Y-102206D01*
X1329966Y-103012D01*
X1328294Y-104294D01*
X1327012Y-105965D01*
X1326206Y-107912D01*
X1325931Y-110000D01*
X1326206Y-112088D01*
X1327012Y-114035D01*
X1328294Y-115706D01*
X1329966Y-116988D01*
X1331912Y-117794D01*
X1334000Y-118069D01*
X1336088Y-117794D01*
X1338035Y-116988D01*
X1339706Y-115706D01*
X1340988Y-114035D01*
X1341794Y-112088D01*
X1342069Y-110000D01*
X1341794Y-107912D01*
X1340988Y-105965D01*
X1339706Y-104294D01*
X1338035Y-103012D01*
X1336088Y-102206D01*
X1334000Y-101931D01*
D02*
G37*
G36*
X323000Y-103931D02*
X320912Y-104206D01*
X318965Y-105012D01*
X317294Y-106294D01*
X316012Y-107965D01*
X315206Y-109912D01*
X314931Y-112000D01*
X315206Y-114088D01*
X316012Y-116034D01*
X317294Y-117706D01*
X318965Y-118988D01*
X320912Y-119794D01*
X323000Y-120069D01*
X325088Y-119794D01*
X327034Y-118988D01*
X328706Y-117706D01*
X329988Y-116034D01*
X330794Y-114088D01*
X331069Y-112000D01*
X330794Y-109912D01*
X329988Y-107965D01*
X328706Y-106294D01*
X327034Y-105012D01*
X325088Y-104206D01*
X323000Y-103931D01*
D02*
G37*
G36*
X1105000Y-111931D02*
X1102912Y-112206D01*
X1100965Y-113012D01*
X1099294Y-114294D01*
X1098012Y-115965D01*
X1097206Y-117912D01*
X1096931Y-120000D01*
X1097206Y-122088D01*
X1098012Y-124035D01*
X1099294Y-125706D01*
X1100965Y-126988D01*
X1102912Y-127794D01*
X1105000Y-128069D01*
X1107088Y-127794D01*
X1109035Y-126988D01*
X1110706Y-125706D01*
X1111988Y-124035D01*
X1112794Y-122088D01*
X1113069Y-120000D01*
X1112794Y-117912D01*
X1111988Y-115965D01*
X1110706Y-114294D01*
X1109035Y-113012D01*
X1107088Y-112206D01*
X1105000Y-111931D01*
D02*
G37*
G36*
X985000D02*
X982912Y-112206D01*
X980965Y-113012D01*
X979294Y-114294D01*
X978012Y-115965D01*
X977206Y-117912D01*
X976931Y-120000D01*
X977206Y-122088D01*
X978012Y-124035D01*
X979294Y-125706D01*
X980965Y-126988D01*
X982912Y-127794D01*
X985000Y-128069D01*
X987088Y-127794D01*
X989035Y-126988D01*
X990706Y-125706D01*
X991988Y-124035D01*
X992794Y-122088D01*
X993069Y-120000D01*
X992794Y-117912D01*
X991988Y-115965D01*
X990706Y-114294D01*
X989035Y-113012D01*
X987088Y-112206D01*
X985000Y-111931D01*
D02*
G37*
G36*
X492000Y-112192D02*
X490238Y-112424D01*
X488596Y-113104D01*
X487186Y-114186D01*
X486104Y-115596D01*
X485424Y-117238D01*
X485192Y-119000D01*
X485424Y-120762D01*
X486104Y-122404D01*
X487186Y-123814D01*
X488596Y-124896D01*
X490238Y-125576D01*
X492000Y-125808D01*
X493762Y-125576D01*
X495404Y-124896D01*
X496814Y-123814D01*
X497896Y-122404D01*
X498576Y-120762D01*
X498808Y-119000D01*
X498576Y-117238D01*
X497896Y-115596D01*
X496814Y-114186D01*
X495404Y-113104D01*
X493762Y-112424D01*
X492000Y-112192D01*
D02*
G37*
G36*
X1155000Y-111931D02*
X1152912Y-112206D01*
X1150965Y-113012D01*
X1149294Y-114294D01*
X1148012Y-115965D01*
X1147206Y-117912D01*
X1146931Y-120000D01*
X1147206Y-122088D01*
X1148012Y-124035D01*
X1149294Y-125706D01*
X1150965Y-126988D01*
X1152912Y-127794D01*
X1155000Y-128069D01*
X1157088Y-127794D01*
X1159035Y-126988D01*
X1160706Y-125706D01*
X1161988Y-124035D01*
X1162794Y-122088D01*
X1163069Y-120000D01*
X1162794Y-117912D01*
X1161988Y-115965D01*
X1160706Y-114294D01*
X1159035Y-113012D01*
X1157088Y-112206D01*
X1155000Y-111931D01*
D02*
G37*
G36*
X822000Y117843D02*
X820147Y117474D01*
X818576Y116425D01*
X817526Y114853D01*
X817157Y113000D01*
X817526Y111147D01*
X818576Y109575D01*
X820147Y108526D01*
X822000Y108157D01*
X823853Y108526D01*
X825425Y109575D01*
X826474Y111147D01*
X826843Y113000D01*
X826474Y114853D01*
X825425Y116425D01*
X823853Y117474D01*
X822000Y117843D01*
D02*
G37*
G36*
X782000Y116843D02*
X780147Y116474D01*
X778576Y115425D01*
X777526Y113853D01*
X777157Y112000D01*
X777526Y110147D01*
X778576Y108575D01*
X780147Y107526D01*
X782000Y107157D01*
X783853Y107526D01*
X785425Y108575D01*
X786474Y110147D01*
X786843Y112000D01*
X786474Y113853D01*
X785425Y115425D01*
X783853Y116474D01*
X782000Y116843D01*
D02*
G37*
G36*
X773000Y125843D02*
X771147Y125474D01*
X769575Y124425D01*
X768526Y122853D01*
X768157Y121000D01*
X768526Y119147D01*
X769575Y117576D01*
X771147Y116526D01*
X773000Y116157D01*
X774853Y116526D01*
X776425Y117576D01*
X777474Y119147D01*
X777843Y121000D01*
X777474Y122853D01*
X776425Y124425D01*
X774853Y125474D01*
X773000Y125843D01*
D02*
G37*
G36*
X323000Y126069D02*
X320912Y125794D01*
X318965Y124988D01*
X317294Y123706D01*
X316012Y122035D01*
X315206Y120088D01*
X314931Y118000D01*
X315206Y115912D01*
X316012Y113966D01*
X317294Y112294D01*
X318965Y111012D01*
X320912Y110206D01*
X323000Y109931D01*
X325088Y110206D01*
X327034Y111012D01*
X328706Y112294D01*
X329988Y113966D01*
X330794Y115912D01*
X331069Y118000D01*
X330794Y120088D01*
X329988Y122035D01*
X328706Y123706D01*
X327034Y124988D01*
X325088Y125794D01*
X323000Y126069D01*
D02*
G37*
G36*
X1080000Y107069D02*
X1077912Y106794D01*
X1075965Y105988D01*
X1074294Y104706D01*
X1073012Y103034D01*
X1072206Y101088D01*
X1071931Y99000D01*
X1072206Y96912D01*
X1073012Y94965D01*
X1074294Y93294D01*
X1075965Y92012D01*
X1077912Y91206D01*
X1080000Y90931D01*
X1082088Y91206D01*
X1084035Y92012D01*
X1085706Y93294D01*
X1086988Y94965D01*
X1087794Y96912D01*
X1088069Y99000D01*
X1087794Y101088D01*
X1086988Y103034D01*
X1085706Y104706D01*
X1084035Y105988D01*
X1082088Y106794D01*
X1080000Y107069D01*
D02*
G37*
G36*
X317000Y105069D02*
X314912Y104794D01*
X312966Y103988D01*
X311294Y102706D01*
X310012Y101034D01*
X309206Y99088D01*
X308931Y97000D01*
X309206Y94912D01*
X310012Y92965D01*
X311294Y91294D01*
X312966Y90012D01*
X314912Y89206D01*
X317000Y88931D01*
X319088Y89206D01*
X321035Y90012D01*
X322706Y91294D01*
X323988Y92965D01*
X324794Y94912D01*
X325069Y97000D01*
X324794Y99088D01*
X323988Y101034D01*
X322706Y102706D01*
X321035Y103988D01*
X319088Y104794D01*
X317000Y105069D01*
D02*
G37*
G36*
X492000Y117808D02*
X490238Y117576D01*
X488596Y116896D01*
X487186Y115814D01*
X486104Y114404D01*
X485424Y112762D01*
X485192Y111000D01*
X485424Y109238D01*
X486104Y107596D01*
X487186Y106186D01*
X488596Y105104D01*
X490238Y104424D01*
X492000Y104192D01*
X493762Y104424D01*
X495404Y105104D01*
X496814Y106186D01*
X497896Y107596D01*
X498576Y109238D01*
X498808Y111000D01*
X498576Y112762D01*
X497896Y114404D01*
X496814Y115814D01*
X495404Y116896D01*
X493762Y117576D01*
X492000Y117808D01*
D02*
G37*
G36*
X672000Y100843D02*
X670147Y100474D01*
X668575Y99425D01*
X667526Y97853D01*
X667157Y96000D01*
X667526Y94147D01*
X668575Y92576D01*
X670147Y91526D01*
X672000Y91157D01*
X673853Y91526D01*
X675425Y92576D01*
X676474Y94147D01*
X676843Y96000D01*
X676474Y97853D01*
X675425Y99425D01*
X673853Y100474D01*
X672000Y100843D01*
D02*
G37*
G36*
X656000Y131808D02*
X654238Y131576D01*
X652596Y130896D01*
X652500Y130822D01*
X652404Y130896D01*
X650762Y131576D01*
X649000Y131808D01*
X647238Y131576D01*
X645596Y130896D01*
X644186Y129814D01*
X643104Y128404D01*
X642424Y126762D01*
X642192Y125000D01*
X642424Y123238D01*
X643104Y121596D01*
X644186Y120186D01*
X645596Y119104D01*
X647238Y118424D01*
X649000Y118192D01*
X650762Y118424D01*
X652404Y119104D01*
X652500Y119178D01*
X652596Y119104D01*
X654238Y118424D01*
X656000Y118192D01*
X657762Y118424D01*
X659404Y119104D01*
X660814Y120186D01*
X661896Y121596D01*
X662576Y123238D01*
X662808Y125000D01*
X662576Y126762D01*
X661896Y128404D01*
X660814Y129814D01*
X659404Y130896D01*
X657762Y131576D01*
X656000Y131808D01*
D02*
G37*
G36*
X230000Y139843D02*
X228147Y139474D01*
X226575Y138425D01*
X225526Y136853D01*
X225157Y135000D01*
X225526Y133147D01*
X226575Y131575D01*
X228147Y130526D01*
X230000Y130157D01*
X231853Y130526D01*
X233425Y131575D01*
X234474Y133147D01*
X234843Y135000D01*
X234474Y136853D01*
X233425Y138425D01*
X231853Y139474D01*
X230000Y139843D01*
D02*
G37*
G36*
X1051000Y143069D02*
X1048912Y142794D01*
X1046965Y141988D01*
X1045302Y140711D01*
X1045013Y140498D01*
X1043987D01*
X1043698Y140711D01*
X1042035Y141988D01*
X1040088Y142794D01*
X1038000Y143069D01*
X1035912Y142794D01*
X1033966Y141988D01*
X1032302Y140711D01*
X1032013Y140498D01*
X1030987D01*
X1030698Y140711D01*
X1029035Y141988D01*
X1027088Y142794D01*
X1025000Y143069D01*
X1022912Y142794D01*
X1020965Y141988D01*
X1019302Y140711D01*
X1019013Y140498D01*
X1017987D01*
X1017698Y140711D01*
X1016034Y141988D01*
X1014088Y142794D01*
X1012000Y143069D01*
X1009912Y142794D01*
X1007965Y141988D01*
X1006294Y140706D01*
X1005706D01*
X1004035Y141988D01*
X1002088Y142794D01*
X1000000Y143069D01*
X997912Y142794D01*
X995965Y141988D01*
X994294Y140706D01*
X993706D01*
X992035Y141988D01*
X990088Y142794D01*
X988000Y143069D01*
X985912Y142794D01*
X983966Y141988D01*
X982302Y140711D01*
X982013Y140498D01*
X980987D01*
X980698Y140711D01*
X979035Y141988D01*
X977088Y142794D01*
X975000Y143069D01*
X972912Y142794D01*
X970965Y141988D01*
X969302Y140711D01*
X969013Y140498D01*
X967987D01*
X967698Y140711D01*
X966034Y141988D01*
X964088Y142794D01*
X962000Y143069D01*
X959912Y142794D01*
X957965Y141988D01*
X956302Y140711D01*
X956013Y140498D01*
X954987D01*
X954698Y140711D01*
X953035Y141988D01*
X951088Y142794D01*
X949000Y143069D01*
X946912Y142794D01*
X944966Y141988D01*
X943294Y140706D01*
X942012Y139035D01*
X941206Y137088D01*
X940931Y135000D01*
X941206Y132912D01*
X942012Y130965D01*
X942753Y130000D01*
X942012Y129035D01*
X941206Y127088D01*
X940931Y125000D01*
X941206Y122912D01*
X942012Y120965D01*
X943294Y119294D01*
X944966Y118012D01*
X946912Y117206D01*
X949000Y116931D01*
X951088Y117206D01*
X953035Y118012D01*
X954698Y119289D01*
X954987Y119502D01*
X956013D01*
X956302Y119289D01*
X957965Y118012D01*
X959912Y117206D01*
X962000Y116931D01*
X964088Y117206D01*
X966034Y118012D01*
X967698Y119289D01*
X967987Y119502D01*
X969013D01*
X969302Y119289D01*
X970965Y118012D01*
X972912Y117206D01*
X975000Y116931D01*
X977088Y117206D01*
X979035Y118012D01*
X980698Y119289D01*
X980987Y119502D01*
X982013D01*
X982302Y119289D01*
X983966Y118012D01*
X985912Y117206D01*
X988000Y116931D01*
X990088Y117206D01*
X992035Y118012D01*
X993706Y119294D01*
X994294D01*
X995965Y118012D01*
X997912Y117206D01*
X1000000Y116931D01*
X1002088Y117206D01*
X1004035Y118012D01*
X1005706Y119294D01*
X1006294D01*
X1007965Y118012D01*
X1009912Y117206D01*
X1012000Y116931D01*
X1014088Y117206D01*
X1016034Y118012D01*
X1017698Y119289D01*
X1017987Y119502D01*
X1019013D01*
X1019302Y119289D01*
X1020965Y118012D01*
X1022912Y117206D01*
X1025000Y116931D01*
X1027088Y117206D01*
X1029035Y118012D01*
X1030698Y119289D01*
X1030987Y119502D01*
X1032013D01*
X1032302Y119289D01*
X1033966Y118012D01*
X1035912Y117206D01*
X1038000Y116931D01*
X1040088Y117206D01*
X1042035Y118012D01*
X1043698Y119289D01*
X1043987Y119502D01*
X1045013D01*
X1045302Y119289D01*
X1046965Y118012D01*
X1048912Y117206D01*
X1051000Y116931D01*
X1053088Y117206D01*
X1055034Y118012D01*
X1056706Y119294D01*
X1057988Y120965D01*
X1058794Y122912D01*
X1059069Y125000D01*
X1058794Y127088D01*
X1057988Y129035D01*
X1057247Y130000D01*
X1057988Y130965D01*
X1058794Y132912D01*
X1059069Y135000D01*
X1058794Y137088D01*
X1057988Y139035D01*
X1056706Y140706D01*
X1055034Y141988D01*
X1053088Y142794D01*
X1051000Y143069D01*
D02*
G37*
G36*
X613000Y148843D02*
X611147Y148474D01*
X609575Y147424D01*
X608526Y145853D01*
X608157Y144000D01*
X608526Y142147D01*
X609575Y140575D01*
X611147Y139526D01*
X613000Y139157D01*
X614853Y139526D01*
X616424Y140575D01*
X617474Y142147D01*
X617843Y144000D01*
X617474Y145853D01*
X616424Y147424D01*
X614853Y148474D01*
X613000Y148843D01*
D02*
G37*
G36*
X215000Y139843D02*
X213147Y139474D01*
X211575Y138425D01*
X210526Y136853D01*
X210157Y135000D01*
X210526Y133147D01*
X211575Y131575D01*
X213147Y130526D01*
X215000Y130157D01*
X216853Y130526D01*
X218425Y131575D01*
X219474Y133147D01*
X219843Y135000D01*
X219474Y136853D01*
X218425Y138425D01*
X216853Y139474D01*
X215000Y139843D01*
D02*
G37*
G36*
X451500Y136069D02*
X449412Y135794D01*
X447466Y134988D01*
X445794Y133706D01*
X444512Y132035D01*
X443706Y130088D01*
X443431Y128000D01*
X443706Y125912D01*
X444512Y123966D01*
X445794Y122294D01*
X447466Y121012D01*
X449412Y120206D01*
X451500Y119931D01*
X453588Y120206D01*
X455535Y121012D01*
X457206Y122294D01*
X458488Y123966D01*
X459294Y125912D01*
X459569Y128000D01*
X459294Y130088D01*
X458488Y132035D01*
X457206Y133706D01*
X455535Y134988D01*
X453588Y135794D01*
X451500Y136069D01*
D02*
G37*
G36*
X1315000Y118069D02*
X1312912Y117794D01*
X1310966Y116988D01*
X1310000Y116247D01*
X1309034Y116988D01*
X1307088Y117794D01*
X1305000Y118069D01*
X1302912Y117794D01*
X1300966Y116988D01*
X1299294Y115706D01*
X1298012Y114035D01*
X1297206Y112088D01*
X1296931Y110000D01*
X1297206Y107912D01*
X1298012Y105965D01*
X1299294Y104294D01*
X1300966Y103012D01*
X1302912Y102206D01*
X1305000Y101931D01*
X1307088Y102206D01*
X1309034Y103012D01*
X1310000Y103753D01*
X1310966Y103012D01*
X1312912Y102206D01*
X1315000Y101931D01*
X1317088Y102206D01*
X1319034Y103012D01*
X1320706Y104294D01*
X1321988Y105965D01*
X1322794Y107912D01*
X1323069Y110000D01*
X1322794Y112088D01*
X1321988Y114035D01*
X1320706Y115706D01*
X1319034Y116988D01*
X1317088Y117794D01*
X1315000Y118069D01*
D02*
G37*
G36*
X920000Y133843D02*
X918147Y133474D01*
X916575Y132425D01*
X915526Y130853D01*
X915157Y129000D01*
X915526Y127147D01*
X916575Y125575D01*
X918147Y124526D01*
X920000Y124157D01*
X921853Y124526D01*
X923425Y125575D01*
X924474Y127147D01*
X924843Y129000D01*
X924474Y130853D01*
X923425Y132425D01*
X921853Y133474D01*
X920000Y133843D01*
D02*
G37*
G36*
X854000Y131843D02*
X852147Y131474D01*
X850575Y130425D01*
X849526Y128853D01*
X849157Y127000D01*
X849526Y125147D01*
X850575Y123575D01*
X852147Y122526D01*
X854000Y122157D01*
X855853Y122526D01*
X857424Y123575D01*
X858474Y125147D01*
X858843Y127000D01*
X858474Y128853D01*
X857424Y130425D01*
X855853Y131474D01*
X854000Y131843D01*
D02*
G37*
G36*
X790000Y74843D02*
X788147Y74474D01*
X786575Y73425D01*
X785526Y71853D01*
X785157Y70000D01*
X785526Y68147D01*
X786575Y66575D01*
X788147Y65526D01*
X790000Y65157D01*
X791853Y65526D01*
X793425Y66575D01*
X794474Y68147D01*
X794843Y70000D01*
X794474Y71853D01*
X793425Y73425D01*
X791853Y74474D01*
X790000Y74843D01*
D02*
G37*
G36*
X323000Y80069D02*
X320912Y79794D01*
X318965Y78988D01*
X317294Y77706D01*
X316012Y76034D01*
X315206Y74088D01*
X314931Y72000D01*
X315206Y69912D01*
X316012Y67965D01*
X317294Y66294D01*
X318965Y65012D01*
X320912Y64206D01*
X323000Y63931D01*
X325088Y64206D01*
X327034Y65012D01*
X328706Y66294D01*
X329988Y67965D01*
X330794Y69912D01*
X331069Y72000D01*
X330794Y74088D01*
X329988Y76034D01*
X328706Y77706D01*
X327034Y78988D01*
X325088Y79794D01*
X323000Y80069D01*
D02*
G37*
G36*
X723000Y72843D02*
X721147Y72474D01*
X719575Y71424D01*
X718526Y69853D01*
X718157Y68000D01*
X718230Y67634D01*
X717137Y66617D01*
X716000Y66843D01*
X714147Y66474D01*
X712575Y65425D01*
X711526Y63853D01*
X711157Y62000D01*
X711356Y60998D01*
X710213Y60234D01*
X709853Y60474D01*
X708000Y60843D01*
X706147Y60474D01*
X704576Y59425D01*
X703425D01*
X701853Y60474D01*
X700000Y60843D01*
X698147Y60474D01*
X696575Y59425D01*
X695526Y57853D01*
X695157Y56000D01*
X695526Y54147D01*
X696575Y52575D01*
X698147Y51526D01*
X700000Y51157D01*
X701853Y51526D01*
X703425Y52575D01*
X704576D01*
X706147Y51526D01*
X708000Y51157D01*
X709853Y51526D01*
X711425Y52575D01*
X712096Y53581D01*
X712210Y53752D01*
X713407Y53256D01*
X713371Y53075D01*
X713157Y52000D01*
X713526Y50147D01*
X714576Y48575D01*
X716147Y47526D01*
X718000Y47157D01*
X718323Y47221D01*
X719221Y46323D01*
X719157Y46000D01*
X719526Y44147D01*
X720575Y42575D01*
X722147Y41526D01*
X724000Y41157D01*
X724323Y41221D01*
X725221Y40323D01*
X725157Y40000D01*
X725526Y38147D01*
X726575Y36575D01*
X728147Y35526D01*
X730000Y35157D01*
X731137Y35383D01*
X732230Y34366D01*
X732157Y34000D01*
X732526Y32147D01*
X733575Y30575D01*
X735147Y29526D01*
X737000Y29157D01*
X737930Y29342D01*
X739040Y29033D01*
X739274Y28413D01*
X739526Y27147D01*
X740575Y25575D01*
X742147Y24526D01*
X744000Y24157D01*
X744323Y24221D01*
X745221Y23323D01*
X745157Y23000D01*
X745526Y21147D01*
X746575Y19575D01*
X748147Y18526D01*
X750000Y18157D01*
X751853Y18526D01*
X753425Y19575D01*
X754474Y21147D01*
X754843Y23000D01*
X754474Y24853D01*
X753425Y26425D01*
X751853Y27474D01*
X750000Y27843D01*
X749677Y27779D01*
X748779Y28677D01*
X748843Y29000D01*
X748474Y30853D01*
X747425Y32424D01*
X745853Y33474D01*
X744000Y33843D01*
X743070Y33658D01*
X741960Y33967D01*
X741726Y34587D01*
X741474Y35853D01*
X740425Y37425D01*
X738853Y38474D01*
X737000Y38843D01*
X735863Y38617D01*
X734770Y39634D01*
X734843Y40000D01*
X734474Y41853D01*
X733425Y43425D01*
X731853Y44474D01*
X730000Y44843D01*
X729677Y44779D01*
X728779Y45677D01*
X728843Y46000D01*
X728474Y47853D01*
X727425Y49425D01*
X725853Y50474D01*
X724000Y50843D01*
X723677Y50779D01*
X722779Y51677D01*
X722843Y52000D01*
X722474Y53853D01*
X721425Y55425D01*
X719853Y56474D01*
X718861Y56672D01*
X718593Y58020D01*
X719425Y58575D01*
X720474Y60147D01*
X720843Y62000D01*
X720770Y62366D01*
X721863Y63383D01*
X723000Y63157D01*
X724853Y63526D01*
X726425Y64575D01*
X727474Y66147D01*
X727843Y68000D01*
X727474Y69853D01*
X726425Y71424D01*
X724853Y72474D01*
X723000Y72843D01*
D02*
G37*
G36*
X872000Y73843D02*
X870147Y73474D01*
X868576Y72425D01*
X867526Y70853D01*
X867157Y69000D01*
X867526Y67147D01*
X867842Y66673D01*
X866926Y65757D01*
X865853Y66474D01*
X864000Y66843D01*
X862147Y66474D01*
X860575Y65425D01*
X859526Y63853D01*
X859157Y62000D01*
X859526Y60147D01*
X860575Y58575D01*
X862147Y57526D01*
X864000Y57157D01*
X865853Y57526D01*
X865944Y57586D01*
X867355Y57002D01*
X867526Y56147D01*
X868576Y54576D01*
X870147Y53526D01*
X872000Y53157D01*
X873853Y53526D01*
X875425Y54576D01*
X876474Y56147D01*
X876843Y58000D01*
X876474Y59853D01*
X875425Y61425D01*
X873853Y62474D01*
X872000Y62843D01*
X870147Y62474D01*
X870056Y62414D01*
X868644Y62998D01*
X868474Y63853D01*
X868158Y64327D01*
X869073Y65243D01*
X870147Y64526D01*
X872000Y64157D01*
X873853Y64526D01*
X875425Y65575D01*
X876474Y67147D01*
X876843Y69000D01*
X876474Y70853D01*
X875425Y72425D01*
X873853Y73474D01*
X872000Y73843D01*
D02*
G37*
G36*
X814000Y71843D02*
X812147Y71474D01*
X810575Y70424D01*
X809526Y68853D01*
X809157Y67000D01*
X809526Y65147D01*
X810575Y63575D01*
X812147Y62526D01*
X814000Y62157D01*
X815853Y62526D01*
X817425Y63575D01*
X818474Y65147D01*
X818843Y67000D01*
X818474Y68853D01*
X817425Y70424D01*
X815853Y71474D01*
X814000Y71843D01*
D02*
G37*
G36*
X765000Y69843D02*
X763147Y69474D01*
X761575Y68425D01*
X760526Y66853D01*
X760157Y65000D01*
X760526Y63147D01*
X761575Y61575D01*
X763147Y60526D01*
X765000Y60157D01*
X766853Y60526D01*
X768425Y61575D01*
X769474Y63147D01*
X769843Y65000D01*
X769474Y66853D01*
X768425Y68425D01*
X766853Y69474D01*
X765000Y69843D01*
D02*
G37*
G36*
X492000Y71808D02*
X490238Y71576D01*
X488596Y70896D01*
X487186Y69814D01*
X486104Y68404D01*
X485424Y66762D01*
X485192Y65000D01*
X485424Y63238D01*
X486104Y61596D01*
X487186Y60186D01*
X488596Y59104D01*
X490238Y58424D01*
X492000Y58192D01*
X493762Y58424D01*
X495404Y59104D01*
X496814Y60186D01*
X497896Y61596D01*
X498576Y63238D01*
X498808Y65000D01*
X498576Y66762D01*
X497896Y68404D01*
X496814Y69814D01*
X495404Y70896D01*
X493762Y71576D01*
X492000Y71808D01*
D02*
G37*
G36*
X687000Y70843D02*
X685147Y70474D01*
X683575Y69425D01*
X682526Y67853D01*
X682157Y66000D01*
X682526Y64147D01*
X683575Y62575D01*
X685147Y61526D01*
X687000Y61157D01*
X688853Y61526D01*
X690425Y62575D01*
X691474Y64147D01*
X691843Y66000D01*
X691474Y67853D01*
X690425Y69425D01*
X688853Y70474D01*
X687000Y70843D01*
D02*
G37*
G36*
X663000D02*
X661147Y70474D01*
X659575Y69425D01*
X658526Y67853D01*
X658157Y66000D01*
X658526Y64147D01*
X659575Y62575D01*
X661147Y61526D01*
X663000Y61157D01*
X664853Y61526D01*
X666424Y62575D01*
X667474Y64147D01*
X667843Y66000D01*
X667474Y67853D01*
X666424Y69425D01*
X664853Y70474D01*
X663000Y70843D01*
D02*
G37*
G36*
Y92843D02*
X661147Y92474D01*
X659575Y91425D01*
X658526Y89853D01*
X658157Y88000D01*
X658526Y86147D01*
X659575Y84575D01*
X661147Y83526D01*
X663000Y83157D01*
X664853Y83526D01*
X666424Y84575D01*
X667474Y86147D01*
X667843Y88000D01*
X667474Y89853D01*
X666424Y91425D01*
X664853Y92474D01*
X663000Y92843D01*
D02*
G37*
G36*
X930000Y111808D02*
X928238Y111576D01*
X926596Y110896D01*
X925186Y109814D01*
X924104Y108404D01*
X923424Y106762D01*
X923192Y105000D01*
X923424Y103238D01*
X924104Y101596D01*
X925186Y100186D01*
Y99814D01*
X924104Y98404D01*
X923424Y96762D01*
X923192Y95000D01*
X923424Y93238D01*
X924104Y91596D01*
X924592Y90960D01*
X925089Y90000D01*
X924592Y89040D01*
X924104Y88404D01*
X923424Y86762D01*
X923192Y85000D01*
X923424Y83238D01*
X924104Y81596D01*
X925186Y80186D01*
X926596Y79104D01*
X928238Y78424D01*
X930000Y78192D01*
X931762Y78424D01*
X933404Y79104D01*
X934814Y80186D01*
X935896Y81596D01*
X936576Y83238D01*
X936808Y85000D01*
X936576Y86762D01*
X935896Y88404D01*
X935408Y89040D01*
X934911Y90000D01*
X935408Y90960D01*
X935896Y91596D01*
X936576Y93238D01*
X936808Y95000D01*
X936576Y96762D01*
X935896Y98404D01*
X934814Y99814D01*
Y100186D01*
X935896Y101596D01*
X936576Y103238D01*
X936808Y105000D01*
X936576Y106762D01*
X935896Y108404D01*
X934814Y109814D01*
X933404Y110896D01*
X931762Y111576D01*
X930000Y111808D01*
D02*
G37*
G36*
X796000Y102843D02*
X794147Y102474D01*
X792576Y101425D01*
X791526Y99853D01*
X791157Y98000D01*
X791526Y96147D01*
X792576Y94576D01*
X794147Y93526D01*
X796000Y93157D01*
X797853Y93526D01*
X798213Y93766D01*
X799356Y93003D01*
X799157Y92000D01*
X799526Y90147D01*
X800575Y88575D01*
X802147Y87526D01*
X804000Y87157D01*
X805853Y87526D01*
X807424Y88575D01*
X808474Y90147D01*
X808843Y92000D01*
X808474Y93853D01*
X807424Y95424D01*
X805853Y96474D01*
X804000Y96843D01*
X802147Y96474D01*
X801787Y96234D01*
X800644Y96997D01*
X800843Y98000D01*
X800474Y99853D01*
X799425Y101425D01*
X797853Y102474D01*
X796000Y102843D01*
D02*
G37*
G36*
X741000Y94843D02*
X739147Y94474D01*
X737575Y93425D01*
X736526Y91853D01*
X736157Y90000D01*
X736526Y88147D01*
X737575Y86575D01*
X739147Y85526D01*
X741000Y85157D01*
X742853Y85526D01*
X744425Y86575D01*
X745474Y88147D01*
X745843Y90000D01*
X745474Y91853D01*
X744425Y93425D01*
X742853Y94474D01*
X741000Y94843D01*
D02*
G37*
G36*
X750000Y85843D02*
X748147Y85474D01*
X746575Y84424D01*
X745526Y82853D01*
X745157Y81000D01*
X745526Y79147D01*
X746575Y77575D01*
X748147Y76526D01*
X750000Y76157D01*
X751853Y76526D01*
X753425Y77575D01*
X754474Y79147D01*
X754843Y81000D01*
X754474Y82853D01*
X753425Y84424D01*
X751853Y85474D01*
X750000Y85843D01*
D02*
G37*
G36*
X734000Y83843D02*
X732147Y83474D01*
X730575Y82424D01*
X729526Y80853D01*
X729157Y79000D01*
X729526Y77147D01*
X730575Y75575D01*
X732147Y74526D01*
X734000Y74157D01*
X734323Y74221D01*
X735221Y73323D01*
X735157Y73000D01*
X735526Y71147D01*
X736575Y69576D01*
X738147Y68526D01*
X740000Y68157D01*
X741853Y68526D01*
X743425Y69576D01*
X744474Y71147D01*
X744843Y73000D01*
X744474Y74853D01*
X743425Y76425D01*
X741853Y77474D01*
X740000Y77843D01*
X739677Y77779D01*
X738779Y78677D01*
X738843Y79000D01*
X738474Y80853D01*
X737425Y82424D01*
X735853Y83474D01*
X734000Y83843D01*
D02*
G37*
G36*
X213000Y83069D02*
X210912Y82794D01*
X208965Y81988D01*
X207294Y80706D01*
X206012Y79035D01*
X205206Y77088D01*
X204931Y75000D01*
X205206Y72912D01*
X206012Y70965D01*
X207294Y69294D01*
X208965Y68012D01*
X210912Y67206D01*
X213000Y66931D01*
X215088Y67206D01*
X217034Y68012D01*
X218706Y69294D01*
X219988Y70965D01*
X220794Y72912D01*
X221069Y75000D01*
X220794Y77088D01*
X219988Y79035D01*
X218706Y80706D01*
X217034Y81988D01*
X215088Y82794D01*
X213000Y83069D01*
D02*
G37*
G36*
X810000Y83843D02*
X808147Y83474D01*
X806575Y82424D01*
X805526Y80853D01*
X805157Y79000D01*
X805526Y77147D01*
X806575Y75575D01*
X808147Y74526D01*
X810000Y74157D01*
X811853Y74526D01*
X813425Y75575D01*
X814474Y77147D01*
X814843Y79000D01*
X814474Y80853D01*
X813425Y82424D01*
X811853Y83474D01*
X810000Y83843D01*
D02*
G37*
G36*
X451500Y90069D02*
X449412Y89794D01*
X447466Y88988D01*
X445794Y87706D01*
X444512Y86034D01*
X443706Y84088D01*
X443431Y82000D01*
X443706Y79912D01*
X444512Y77965D01*
X445794Y76294D01*
X447466Y75012D01*
X449412Y74206D01*
X451500Y73931D01*
X453588Y74206D01*
X455535Y75012D01*
X457206Y76294D01*
X458488Y77965D01*
X459294Y79912D01*
X459569Y82000D01*
X459294Y84088D01*
X458488Y86034D01*
X457206Y87706D01*
X455535Y88988D01*
X453588Y89794D01*
X451500Y90069D01*
D02*
G37*
G36*
X856000Y241843D02*
X854147Y241474D01*
X852575Y240425D01*
X851526Y238853D01*
X851157Y237000D01*
X851526Y235147D01*
X852575Y233575D01*
X854147Y232526D01*
X856000Y232157D01*
X857853Y232526D01*
X859425Y233575D01*
X860474Y235147D01*
X860843Y237000D01*
X860474Y238853D01*
X859425Y240425D01*
X857853Y241474D01*
X856000Y241843D01*
D02*
G37*
G36*
X781000Y257843D02*
X779147Y257474D01*
X777575Y256425D01*
X776526Y254853D01*
X776157Y253000D01*
X776526Y251147D01*
X777575Y249576D01*
Y248424D01*
X776526Y246853D01*
X776157Y245000D01*
X776526Y243147D01*
X777575Y241576D01*
Y240424D01*
X776526Y238853D01*
X776157Y237000D01*
X776526Y235147D01*
X777575Y233575D01*
X779147Y232526D01*
X781000Y232157D01*
X782853Y232526D01*
X784425Y233575D01*
X785474Y235147D01*
X785843Y237000D01*
X785474Y238853D01*
X784425Y240424D01*
Y241576D01*
X785474Y243147D01*
X785843Y245000D01*
X785474Y246853D01*
X784425Y248424D01*
Y249576D01*
X785474Y251147D01*
X785843Y253000D01*
X785474Y254853D01*
X784425Y256425D01*
X782853Y257474D01*
X781000Y257843D01*
D02*
G37*
G36*
X1038100Y252221D02*
X1034445Y251740D01*
X1031040Y250329D01*
X1028115Y248085D01*
X1026152Y245527D01*
X1025809Y245424D01*
X1024991D01*
X1024648Y245527D01*
X1022685Y248085D01*
X1019760Y250329D01*
X1016355Y251740D01*
X1012700Y252221D01*
X1009045Y251740D01*
X1005640Y250329D01*
X1002715Y248085D01*
X1000752Y245527D01*
X1000409Y245424D01*
X999591D01*
X999248Y245527D01*
X997285Y248085D01*
X994360Y250329D01*
X990955Y251740D01*
X987300Y252221D01*
X983645Y251740D01*
X980240Y250329D01*
X977315Y248085D01*
X975352Y245527D01*
X975009Y245424D01*
X974191D01*
X973848Y245527D01*
X971885Y248085D01*
X968960Y250329D01*
X965555Y251740D01*
X961900Y252221D01*
X958245Y251740D01*
X954840Y250329D01*
X951915Y248085D01*
X949671Y245160D01*
X948260Y241755D01*
X947779Y238100D01*
X948260Y234445D01*
X949671Y231040D01*
X951915Y228115D01*
X954473Y226152D01*
X954576Y225809D01*
Y224991D01*
X954473Y224648D01*
X951915Y222685D01*
X949671Y219760D01*
X948260Y216355D01*
X947779Y212700D01*
X948260Y209045D01*
X949671Y205640D01*
X951915Y202715D01*
X954473Y200752D01*
X954576Y200409D01*
Y199591D01*
X954473Y199248D01*
X951915Y197285D01*
X949671Y194360D01*
X948260Y190955D01*
X947779Y187300D01*
X948260Y183645D01*
X949671Y180240D01*
X951915Y177315D01*
X954473Y175352D01*
X954576Y175009D01*
Y174191D01*
X954473Y173848D01*
X951915Y171885D01*
X949671Y168960D01*
X948260Y165555D01*
X947779Y161900D01*
X948260Y158245D01*
X949671Y154840D01*
X951915Y151915D01*
X954840Y149671D01*
X958245Y148260D01*
X961900Y147779D01*
X965555Y148260D01*
X968960Y149671D01*
X971885Y151915D01*
X973848Y154473D01*
X974191Y154576D01*
X975009D01*
X975352Y154473D01*
X977315Y151915D01*
X980240Y149671D01*
X983645Y148260D01*
X987300Y147779D01*
X990955Y148260D01*
X994360Y149671D01*
X997285Y151915D01*
X999248Y154473D01*
X999591Y154576D01*
X1000409D01*
X1000752Y154473D01*
X1002715Y151915D01*
X1005640Y149671D01*
X1009045Y148260D01*
X1012700Y147779D01*
X1016355Y148260D01*
X1019760Y149671D01*
X1022685Y151915D01*
X1024648Y154473D01*
X1024991Y154576D01*
X1025809D01*
X1026152Y154473D01*
X1028115Y151915D01*
X1031040Y149671D01*
X1034445Y148260D01*
X1038100Y147779D01*
X1041755Y148260D01*
X1045160Y149671D01*
X1048085Y151915D01*
X1050329Y154840D01*
X1051740Y158245D01*
X1052221Y161900D01*
X1051740Y165555D01*
X1050329Y168960D01*
X1048085Y171885D01*
X1045527Y173848D01*
X1045424Y174191D01*
Y175009D01*
X1045527Y175352D01*
X1048085Y177315D01*
X1050329Y180240D01*
X1051740Y183645D01*
X1052221Y187300D01*
X1051740Y190955D01*
X1050329Y194360D01*
X1048085Y197285D01*
X1045527Y199248D01*
X1045424Y199591D01*
Y200409D01*
X1045527Y200752D01*
X1048085Y202715D01*
X1050329Y205640D01*
X1051740Y209045D01*
X1052221Y212700D01*
X1051740Y216355D01*
X1050329Y219760D01*
X1048085Y222685D01*
X1045527Y224648D01*
X1045424Y224991D01*
Y225809D01*
X1045527Y226152D01*
X1048085Y228115D01*
X1050329Y231040D01*
X1051740Y234445D01*
X1052221Y238100D01*
X1051740Y241755D01*
X1050329Y245160D01*
X1048085Y248085D01*
X1045160Y250329D01*
X1041755Y251740D01*
X1038100Y252221D01*
D02*
G37*
G36*
X492000Y255808D02*
X490238Y255576D01*
X488596Y254896D01*
X487186Y253814D01*
X486104Y252404D01*
X485424Y250762D01*
X485192Y249000D01*
X485424Y247238D01*
X486104Y245596D01*
X487186Y244186D01*
X488596Y243104D01*
X490238Y242424D01*
X492000Y242192D01*
X493762Y242424D01*
X495404Y243104D01*
X496814Y244186D01*
X497896Y245596D01*
X498576Y247238D01*
X498808Y249000D01*
X498576Y250762D01*
X497896Y252404D01*
X496814Y253814D01*
X495404Y254896D01*
X493762Y255576D01*
X492000Y255808D01*
D02*
G37*
G36*
X669000Y239843D02*
X667147Y239474D01*
X665575Y238425D01*
X664526Y236853D01*
X664157Y235000D01*
X664526Y233147D01*
X665575Y231576D01*
X667147Y230526D01*
X669000Y230157D01*
X670853Y230526D01*
X672425Y231576D01*
X673474Y233147D01*
X673843Y235000D01*
X673474Y236853D01*
X672425Y238425D01*
X670853Y239474D01*
X669000Y239843D01*
D02*
G37*
G36*
X772000Y232843D02*
X770147Y232474D01*
X768576Y231425D01*
X767526Y229853D01*
X767157Y228000D01*
X767526Y226147D01*
X768576Y224575D01*
X770147Y223526D01*
X772000Y223157D01*
X773853Y223526D01*
X775425Y224575D01*
X776474Y226147D01*
X776843Y228000D01*
X776474Y229853D01*
X775425Y231425D01*
X773853Y232474D01*
X772000Y232843D01*
D02*
G37*
G36*
X562000Y233843D02*
X560147Y233474D01*
X558575Y232425D01*
X557526Y230853D01*
X557157Y229000D01*
X557526Y227147D01*
X558575Y225576D01*
Y224424D01*
X557526Y222853D01*
X557157Y221000D01*
X557526Y219147D01*
X558575Y217575D01*
X560147Y216526D01*
X562000Y216157D01*
X563853Y216526D01*
X565424Y217575D01*
X566474Y219147D01*
X566843Y221000D01*
X566474Y222853D01*
X565424Y224424D01*
Y225576D01*
X566474Y227147D01*
X566843Y229000D01*
X566474Y230853D01*
X565424Y232425D01*
X563853Y233474D01*
X562000Y233843D01*
D02*
G37*
G36*
X650000Y251808D02*
X648238Y251576D01*
X646596Y250896D01*
X645186Y249814D01*
X644104Y248404D01*
X643424Y246762D01*
X643192Y245000D01*
X643424Y243238D01*
X644104Y241596D01*
X644592Y240959D01*
X645089Y240000D01*
X644592Y239041D01*
X644104Y238404D01*
X643424Y236762D01*
X643192Y235000D01*
X643424Y233238D01*
X644104Y231596D01*
X645186Y230186D01*
X646596Y229104D01*
X648238Y228424D01*
X650000Y228192D01*
X651762Y228424D01*
X653404Y229104D01*
X654814Y230186D01*
X655896Y231596D01*
X656576Y233238D01*
X656808Y235000D01*
X656576Y236762D01*
X655896Y238404D01*
X655408Y239041D01*
X654911Y240000D01*
X655408Y240959D01*
X655896Y241596D01*
X656576Y243238D01*
X656808Y245000D01*
X656576Y246762D01*
X655896Y248404D01*
X654814Y249814D01*
X653404Y250896D01*
X651762Y251576D01*
X650000Y251808D01*
D02*
G37*
G36*
X876000Y224843D02*
X874147Y224474D01*
X872576Y223424D01*
X871424D01*
X869853Y224474D01*
X868000Y224843D01*
X866147Y224474D01*
X864575Y223424D01*
X863526Y221853D01*
X863157Y220000D01*
X863526Y218147D01*
X864575Y216575D01*
X866147Y215526D01*
X868000Y215157D01*
X869853Y215526D01*
X871424Y216575D01*
X872576D01*
X874147Y215526D01*
X876000Y215157D01*
X877853Y215526D01*
X879425Y216575D01*
X880474Y218147D01*
X880843Y220000D01*
X880474Y221853D01*
X879425Y223424D01*
X877853Y224474D01*
X876000Y224843D01*
D02*
G37*
G36*
X1355000Y264078D02*
X1355000Y264078D01*
X1245000D01*
X1245000Y264078D01*
X1243439Y263768D01*
X1242116Y262884D01*
X1237116Y257884D01*
X1236232Y256561D01*
X1235922Y255000D01*
X1235922Y255000D01*
Y145000D01*
X1235922Y145000D01*
X1236232Y143439D01*
X1237116Y142116D01*
X1242116Y137116D01*
X1243439Y136232D01*
X1245000Y135922D01*
X1245000Y135922D01*
X1355000D01*
X1355000Y135922D01*
X1356561Y136232D01*
X1357884Y137116D01*
X1362884Y142116D01*
X1363768Y143439D01*
X1364078Y145000D01*
X1364078Y145000D01*
Y255000D01*
X1364078Y255000D01*
X1363768Y256561D01*
X1362884Y257884D01*
X1357884Y262884D01*
X1356561Y263768D01*
X1356302Y263819D01*
X1355000Y264078D01*
D02*
G37*
G36*
X305000Y278069D02*
X302912Y277794D01*
X300965Y276988D01*
X299294Y275706D01*
X298012Y274035D01*
X297206Y272088D01*
X296931Y270000D01*
X297206Y267912D01*
X298012Y265965D01*
X299294Y264294D01*
X300965Y263012D01*
X302912Y262206D01*
X305000Y261931D01*
X307088Y262206D01*
X309035Y263012D01*
X310706Y264294D01*
X311988Y265965D01*
X312794Y267912D01*
X313069Y270000D01*
X312794Y272088D01*
X311988Y274035D01*
X310706Y275706D01*
X309035Y276988D01*
X307088Y277794D01*
X305000Y278069D01*
D02*
G37*
G36*
X931000Y279843D02*
X929147Y279474D01*
X927576Y278425D01*
X927424D01*
X925853Y279474D01*
X924000Y279843D01*
X922147Y279474D01*
X920575Y278425D01*
X919526Y276853D01*
X919157Y275000D01*
X919526Y273147D01*
X920575Y271576D01*
X922147Y270526D01*
X924000Y270157D01*
X925853Y270526D01*
X927424Y271576D01*
X927576D01*
X929147Y270526D01*
X931000Y270157D01*
X932853Y270526D01*
X934425Y271576D01*
X935474Y273147D01*
X935843Y275000D01*
X935474Y276853D01*
X934425Y278425D01*
X932853Y279474D01*
X931000Y279843D01*
D02*
G37*
G36*
X970000Y285808D02*
X968238Y285576D01*
X966596Y284896D01*
X965186Y283814D01*
X964104Y282404D01*
X963424Y280762D01*
X963192Y279000D01*
X963424Y277238D01*
X964104Y275596D01*
X964561Y275000D01*
X964104Y274404D01*
X963424Y272762D01*
X963192Y271000D01*
X963424Y269238D01*
X964104Y267596D01*
X965186Y266186D01*
X966596Y265104D01*
X968238Y264424D01*
X970000Y264192D01*
X971762Y264424D01*
X973404Y265104D01*
X974814Y266186D01*
X975896Y267596D01*
X976576Y269238D01*
X976808Y271000D01*
X976576Y272762D01*
X975896Y274404D01*
X975439Y275000D01*
X975896Y275596D01*
X976576Y277238D01*
X976808Y279000D01*
X976576Y280762D01*
X975896Y282404D01*
X974814Y283814D01*
X973404Y284896D01*
X971762Y285576D01*
X970000Y285808D01*
D02*
G37*
G36*
X720000Y275843D02*
X718147Y275474D01*
X716575Y274424D01*
X715526Y272853D01*
X715157Y271000D01*
X715526Y269147D01*
X716575Y267575D01*
Y266425D01*
X715526Y264853D01*
X715157Y263000D01*
X715526Y261147D01*
X716575Y259576D01*
X718147Y258526D01*
X720000Y258157D01*
X721853Y258526D01*
X723425Y259576D01*
X724474Y261147D01*
X724843Y263000D01*
X724474Y264853D01*
X723425Y266425D01*
Y267575D01*
X724474Y269147D01*
X724843Y271000D01*
X724474Y272853D01*
X723425Y274424D01*
X721853Y275474D01*
X720000Y275843D01*
D02*
G37*
G36*
X868000Y264843D02*
X866147Y264474D01*
X864575Y263424D01*
X863526Y261853D01*
X863157Y260000D01*
X863526Y258147D01*
X864575Y256575D01*
X866147Y255526D01*
X868000Y255157D01*
X869853Y255526D01*
X871424Y256575D01*
X872474Y258147D01*
X872843Y260000D01*
X872474Y261853D01*
X871424Y263424D01*
X869853Y264474D01*
X868000Y264843D01*
D02*
G37*
G36*
X323000Y264069D02*
X320912Y263794D01*
X318965Y262988D01*
X317294Y261706D01*
X316012Y260035D01*
X315206Y258088D01*
X314931Y256000D01*
X315206Y253912D01*
X316012Y251966D01*
X317294Y250294D01*
X318965Y249012D01*
X320912Y248206D01*
X323000Y247931D01*
X325088Y248206D01*
X327034Y249012D01*
X328706Y250294D01*
X329988Y251966D01*
X330794Y253912D01*
X331069Y256000D01*
X330794Y258088D01*
X329988Y260035D01*
X328706Y261706D01*
X327034Y262988D01*
X325088Y263794D01*
X323000Y264069D01*
D02*
G37*
G36*
X695000Y275843D02*
X693147Y275474D01*
X691575Y274424D01*
X690526Y272853D01*
X690157Y271000D01*
X690526Y269147D01*
X691575Y267575D01*
Y266425D01*
X690526Y264853D01*
X690157Y263000D01*
X690526Y261147D01*
X691575Y259576D01*
X693147Y258526D01*
X695000Y258157D01*
X696853Y258526D01*
X698425Y259576D01*
X699474Y261147D01*
X699843Y263000D01*
X699474Y264853D01*
X698425Y266425D01*
Y267575D01*
X699474Y269147D01*
X699843Y271000D01*
X699474Y272853D01*
X698425Y274424D01*
X696853Y275474D01*
X695000Y275843D01*
D02*
G37*
G36*
X451500Y274069D02*
X449412Y273794D01*
X447466Y272988D01*
X445794Y271706D01*
X444512Y270035D01*
X443706Y268088D01*
X443431Y266000D01*
X443706Y263912D01*
X444512Y261966D01*
X445794Y260294D01*
X447466Y259012D01*
X449412Y258206D01*
X451500Y257931D01*
X453588Y258206D01*
X455535Y259012D01*
X457206Y260294D01*
X458488Y261966D01*
X459294Y263912D01*
X459569Y266000D01*
X459294Y268088D01*
X458488Y270035D01*
X457206Y271706D01*
X455535Y272988D01*
X453588Y273794D01*
X451500Y274069D01*
D02*
G37*
G36*
X250000Y241359D02*
X244602Y241005D01*
X239296Y239949D01*
X234173Y238210D01*
X229321Y235818D01*
X224823Y232812D01*
X220755Y229245D01*
X217188Y225177D01*
X214182Y220679D01*
X211790Y215827D01*
X210051Y210704D01*
X208995Y205398D01*
X208641Y200000D01*
X208995Y194602D01*
X210051Y189296D01*
X211790Y184173D01*
X214182Y179321D01*
X217188Y174823D01*
X220755Y170755D01*
X224823Y167188D01*
X229321Y164182D01*
X234173Y161790D01*
X239296Y160051D01*
X244602Y158995D01*
X250000Y158642D01*
X255398Y158995D01*
X260704Y160051D01*
X265827Y161790D01*
X270679Y164182D01*
X275177Y167188D01*
X279245Y170755D01*
X282812Y174823D01*
X285818Y179321D01*
X288210Y184173D01*
X289949Y189296D01*
X291005Y194602D01*
X291359Y200000D01*
X291005Y205398D01*
X289949Y210704D01*
X288210Y215827D01*
X285818Y220679D01*
X282812Y225177D01*
X279245Y229245D01*
X275177Y232812D01*
X270679Y235818D01*
X265827Y238210D01*
X260704Y239949D01*
X255398Y241005D01*
X250000Y241359D01*
D02*
G37*
G36*
X863000Y173843D02*
X861147Y173474D01*
X859575Y172425D01*
X858526Y170853D01*
X858157Y169000D01*
X858526Y167147D01*
X859575Y165576D01*
Y165424D01*
X858526Y163853D01*
X858157Y162000D01*
X858526Y160147D01*
X859575Y158575D01*
X861147Y157526D01*
X863000Y157157D01*
X864853Y157526D01*
X866425Y158575D01*
X867474Y160147D01*
X867843Y162000D01*
X867474Y163853D01*
X866425Y165424D01*
Y165576D01*
X867474Y167147D01*
X867843Y169000D01*
X867474Y170853D01*
X866425Y172425D01*
X864853Y173474D01*
X863000Y173843D01*
D02*
G37*
G36*
X451500Y182069D02*
X449412Y181794D01*
X447466Y180988D01*
X445794Y179706D01*
X444512Y178034D01*
X443706Y176088D01*
X443431Y174000D01*
X443706Y171912D01*
X444512Y169965D01*
X445794Y168294D01*
X447466Y167012D01*
X449412Y166206D01*
X451500Y165931D01*
X453588Y166206D01*
X455535Y167012D01*
X457206Y168294D01*
X458488Y169965D01*
X459294Y171912D01*
X459569Y174000D01*
X459294Y176088D01*
X458488Y178034D01*
X457206Y179706D01*
X455535Y180988D01*
X453588Y181794D01*
X451500Y182069D01*
D02*
G37*
G36*
X1150000Y241359D02*
X1144602Y241005D01*
X1139296Y239949D01*
X1134173Y238210D01*
X1129321Y235818D01*
X1124822Y232812D01*
X1120755Y229245D01*
X1117188Y225177D01*
X1114183Y220679D01*
X1111790Y215827D01*
X1110051Y210704D01*
X1108995Y205398D01*
X1108642Y200000D01*
X1108995Y194602D01*
X1110051Y189296D01*
X1111790Y184173D01*
X1114183Y179321D01*
X1117188Y174823D01*
X1120755Y170755D01*
X1124822Y167188D01*
X1129321Y164182D01*
X1134173Y161790D01*
X1139296Y160051D01*
X1144602Y158995D01*
X1150000Y158642D01*
X1155398Y158995D01*
X1160704Y160051D01*
X1165827Y161790D01*
X1170679Y164182D01*
X1175178Y167188D01*
X1179245Y170755D01*
X1182812Y174823D01*
X1185818Y179321D01*
X1188210Y184173D01*
X1189949Y189296D01*
X1191005Y194602D01*
X1191359Y200000D01*
X1191005Y205398D01*
X1189949Y210704D01*
X1188210Y215827D01*
X1185818Y220679D01*
X1182812Y225177D01*
X1179245Y229245D01*
X1175178Y232812D01*
X1170679Y235818D01*
X1165827Y238210D01*
X1160704Y239949D01*
X1155398Y241005D01*
X1150000Y241359D01*
D02*
G37*
G36*
X763000Y176843D02*
X761147Y176474D01*
X759575Y175425D01*
X758526Y173853D01*
X758157Y172000D01*
X758526Y170147D01*
X759575Y168575D01*
X760877Y167706D01*
X760979Y167239D01*
Y166761D01*
X760877Y166294D01*
X759575Y165425D01*
X758526Y163853D01*
X758157Y162000D01*
X758526Y160147D01*
X759575Y158575D01*
X761147Y157526D01*
X763000Y157157D01*
X764853Y157526D01*
X766425Y158575D01*
X767474Y160147D01*
X767843Y162000D01*
X767474Y163853D01*
X766425Y165425D01*
X765123Y166294D01*
X765021Y166761D01*
Y167239D01*
X765123Y167706D01*
X766425Y168575D01*
X767474Y170147D01*
X767843Y172000D01*
X767474Y173853D01*
X766425Y175425D01*
X764853Y176474D01*
X763000Y176843D01*
D02*
G37*
G36*
X492000Y163808D02*
X490238Y163576D01*
X488596Y162896D01*
X487186Y161814D01*
X486104Y160404D01*
X485424Y158762D01*
X485192Y157000D01*
X485424Y155238D01*
X486104Y153596D01*
X487186Y152186D01*
X488596Y151104D01*
X490238Y150424D01*
X492000Y150192D01*
X493762Y150424D01*
X495404Y151104D01*
X496814Y152186D01*
X497896Y153596D01*
X498576Y155238D01*
X498808Y157000D01*
X498576Y158762D01*
X497896Y160404D01*
X496814Y161814D01*
X495404Y162896D01*
X493762Y163576D01*
X492000Y163808D01*
D02*
G37*
G36*
X584000Y160843D02*
X582147Y160474D01*
X580575Y159424D01*
X579526Y157853D01*
X579157Y156000D01*
X579526Y154147D01*
X580575Y152576D01*
Y151425D01*
X579526Y149853D01*
X579157Y148000D01*
X579526Y146147D01*
X580575Y144575D01*
X582147Y143526D01*
X584000Y143157D01*
X585853Y143526D01*
X587425Y144575D01*
X588474Y146147D01*
X588843Y148000D01*
X588474Y149853D01*
X587425Y151425D01*
Y152576D01*
X588474Y154147D01*
X588843Y156000D01*
X588474Y157853D01*
X587425Y159424D01*
X585853Y160474D01*
X584000Y160843D01*
D02*
G37*
G36*
X323000Y172069D02*
X320912Y171794D01*
X318965Y170988D01*
X317294Y169706D01*
X316012Y168034D01*
X315206Y166088D01*
X314931Y164000D01*
X315206Y161912D01*
X316012Y159965D01*
X317294Y158294D01*
X318965Y157012D01*
X320912Y156206D01*
X323000Y155931D01*
X325088Y156206D01*
X327034Y157012D01*
X328706Y158294D01*
X329988Y159965D01*
X330794Y161912D01*
X331069Y164000D01*
X330794Y166088D01*
X329988Y168034D01*
X328706Y169706D01*
X327034Y170988D01*
X325088Y171794D01*
X323000Y172069D01*
D02*
G37*
G36*
X785000Y162843D02*
X783147Y162474D01*
X781575Y161425D01*
X780526Y159853D01*
X780157Y158000D01*
X780526Y156147D01*
X781575Y154575D01*
X783147Y153526D01*
X785000Y153157D01*
X786853Y153526D01*
X788425Y154575D01*
X789474Y156147D01*
X789843Y158000D01*
X789474Y159853D01*
X788425Y161425D01*
X786853Y162474D01*
X785000Y162843D01*
D02*
G37*
G36*
X323000Y218069D02*
X320912Y217794D01*
X318965Y216988D01*
X317294Y215706D01*
X316012Y214035D01*
X315206Y212088D01*
X314931Y210000D01*
X315206Y207912D01*
X316012Y205965D01*
X317294Y204294D01*
X318965Y203012D01*
X320912Y202206D01*
X323000Y201931D01*
X325088Y202206D01*
X327034Y203012D01*
X328706Y204294D01*
X329988Y205965D01*
X330794Y207912D01*
X331069Y210000D01*
X330794Y212088D01*
X329988Y214035D01*
X328706Y215706D01*
X327034Y216988D01*
X325088Y217794D01*
X323000Y218069D01*
D02*
G37*
G36*
X745000Y202843D02*
X743147Y202474D01*
X741575Y201425D01*
X740424D01*
X738853Y202474D01*
X737000Y202843D01*
X735147Y202474D01*
X733576Y201425D01*
X732424D01*
X730853Y202474D01*
X729000Y202843D01*
X727147Y202474D01*
X725575Y201425D01*
X724425D01*
X722853Y202474D01*
X721000Y202843D01*
X719147Y202474D01*
X717576Y201425D01*
X716526Y199853D01*
X716157Y198000D01*
X716526Y196147D01*
X717576Y194576D01*
X719147Y193526D01*
X721000Y193157D01*
X722853Y193526D01*
X724425Y194576D01*
X725575D01*
X727147Y193526D01*
X729000Y193157D01*
X730853Y193526D01*
X732424Y194576D01*
X733576D01*
X735147Y193526D01*
X737000Y193157D01*
X738853Y193526D01*
X740089Y194351D01*
X741037Y194037D01*
X741351Y193089D01*
X740526Y191853D01*
X740157Y190000D01*
X740526Y188147D01*
X741575Y186575D01*
X743147Y185526D01*
X745000Y185157D01*
X746853Y185526D01*
X748425Y186575D01*
X749474Y188147D01*
X749843Y190000D01*
X749474Y191853D01*
X748425Y193424D01*
Y194576D01*
X749474Y196147D01*
X749843Y198000D01*
X749474Y199853D01*
X748425Y201425D01*
X746853Y202474D01*
X745000Y202843D01*
D02*
G37*
G36*
X451500Y228069D02*
X449412Y227794D01*
X447466Y226988D01*
X445794Y225706D01*
X444512Y224035D01*
X443706Y222088D01*
X443431Y220000D01*
X443706Y217912D01*
X444512Y215965D01*
X445794Y214294D01*
X447466Y213012D01*
X449412Y212206D01*
X451500Y211931D01*
X453588Y212206D01*
X455535Y213012D01*
X457206Y214294D01*
X458488Y215965D01*
X459294Y217912D01*
X459569Y220000D01*
X459294Y222088D01*
X458488Y224035D01*
X457206Y225706D01*
X455535Y226988D01*
X453588Y227794D01*
X451500Y228069D01*
D02*
G37*
G36*
X745000Y215843D02*
X743147Y215474D01*
X741575Y214425D01*
X740526Y212853D01*
X740157Y211000D01*
X740526Y209147D01*
X741575Y207575D01*
X743147Y206526D01*
X745000Y206157D01*
X746853Y206526D01*
X748425Y207575D01*
X749474Y209147D01*
X749843Y211000D01*
X749474Y212853D01*
X748425Y214425D01*
X746853Y215474D01*
X745000Y215843D01*
D02*
G37*
G36*
X492000Y209808D02*
X490238Y209576D01*
X488596Y208896D01*
X487186Y207814D01*
X486104Y206404D01*
X485424Y204762D01*
X485192Y203000D01*
X485424Y201238D01*
X486104Y199596D01*
X487186Y198186D01*
X488596Y197104D01*
X490238Y196424D01*
X492000Y196192D01*
X493762Y196424D01*
X495404Y197104D01*
X496814Y198186D01*
X497896Y199596D01*
X498576Y201238D01*
X498808Y203000D01*
X498576Y204762D01*
X497896Y206404D01*
X496814Y207814D01*
X495404Y208896D01*
X493762Y209576D01*
X492000Y209808D01*
D02*
G37*
G36*
X317000Y197069D02*
X314912Y196794D01*
X312966Y195988D01*
X311294Y194706D01*
X310012Y193034D01*
X309206Y191088D01*
X308931Y189000D01*
X309206Y186912D01*
X310012Y184965D01*
X311294Y183294D01*
X312966Y182012D01*
X314912Y181206D01*
X317000Y180931D01*
X319088Y181206D01*
X321035Y182012D01*
X322706Y183294D01*
X323988Y184965D01*
X324794Y186912D01*
X325069Y189000D01*
X324794Y191088D01*
X323988Y193034D01*
X322706Y194706D01*
X321035Y195988D01*
X319088Y196794D01*
X317000Y197069D01*
D02*
G37*
G36*
X610000Y169843D02*
X608147Y169474D01*
X606575Y168425D01*
X605706Y167123D01*
X605239Y167021D01*
X604761D01*
X604294Y167123D01*
X603424Y168425D01*
X601853Y169474D01*
X600000Y169843D01*
X598147Y169474D01*
X596575Y168425D01*
X595526Y166853D01*
X595157Y165000D01*
X595526Y163147D01*
X596575Y161575D01*
X598147Y160526D01*
X600000Y160157D01*
X601853Y160526D01*
X603424Y161575D01*
X604294Y162877D01*
X604761Y162979D01*
X605239D01*
X605706Y162877D01*
X606575Y161575D01*
X608147Y160526D01*
X610000Y160157D01*
X611853Y160526D01*
X613425Y161575D01*
X614474Y163147D01*
X614843Y165000D01*
X614474Y166853D01*
X613425Y168425D01*
X611853Y169474D01*
X610000Y169843D01*
D02*
G37*
G36*
X562000Y213843D02*
X560147Y213474D01*
X558575Y212425D01*
X557526Y210853D01*
X557157Y209000D01*
X557526Y207147D01*
X558575Y205576D01*
Y204424D01*
X557526Y202853D01*
X557157Y201000D01*
X557526Y199147D01*
X558575Y197575D01*
X560147Y196526D01*
X562000Y196157D01*
X563853Y196526D01*
X565424Y197575D01*
X566474Y199147D01*
X566843Y201000D01*
X566474Y202853D01*
X565424Y204424D01*
Y205576D01*
X566474Y207147D01*
X566843Y209000D01*
X566474Y210853D01*
X565424Y212425D01*
X563853Y213474D01*
X562000Y213843D01*
D02*
G37*
G36*
X610000Y205843D02*
X608147Y205474D01*
X606575Y204425D01*
X605526Y202853D01*
X605157Y201000D01*
X605526Y199147D01*
X606575Y197575D01*
Y196425D01*
X605526Y194853D01*
X605157Y193000D01*
X605526Y191147D01*
X606575Y189575D01*
X608147Y188526D01*
X610000Y188157D01*
X611853Y188526D01*
X613425Y189575D01*
X614474Y191147D01*
X614843Y193000D01*
X614474Y194853D01*
X613425Y196425D01*
Y197575D01*
X614474Y199147D01*
X614843Y201000D01*
X614474Y202853D01*
X613425Y204425D01*
X611853Y205474D01*
X610000Y205843D01*
D02*
G37*
G36*
X833000Y66843D02*
X831147Y66474D01*
X829576Y65425D01*
X828526Y63853D01*
X828157Y62000D01*
X828526Y60147D01*
X829576Y58575D01*
X831147Y57526D01*
X833000Y57157D01*
X834853Y57526D01*
X836425Y58575D01*
X837474Y60147D01*
X837843Y62000D01*
X837474Y63853D01*
X836425Y65425D01*
X834853Y66474D01*
X833000Y66843D01*
D02*
G37*
G36*
X1105000Y25069D02*
X1102912Y24794D01*
X1100965Y23988D01*
X1099294Y22706D01*
X1098012Y21035D01*
X1097206Y19088D01*
X1096931Y17000D01*
X1097206Y14912D01*
X1098012Y12966D01*
X1099294Y11294D01*
X1100965Y10012D01*
X1102912Y9206D01*
X1105000Y8931D01*
X1107088Y9206D01*
X1109035Y10012D01*
X1110706Y11294D01*
X1111988Y12966D01*
X1112794Y14912D01*
X1113069Y17000D01*
X1112794Y19088D01*
X1111988Y21035D01*
X1110706Y22706D01*
X1109035Y23988D01*
X1107088Y24794D01*
X1105000Y25069D01*
D02*
G37*
G36*
X1085000D02*
X1082912Y24794D01*
X1080965Y23988D01*
X1079294Y22706D01*
X1078012Y21035D01*
X1077206Y19088D01*
X1076931Y17000D01*
X1077206Y14912D01*
X1078012Y12966D01*
X1079294Y11294D01*
X1080965Y10012D01*
X1082912Y9206D01*
X1085000Y8931D01*
X1087088Y9206D01*
X1089035Y10012D01*
X1090706Y11294D01*
X1091988Y12966D01*
X1092794Y14912D01*
X1093069Y17000D01*
X1092794Y19088D01*
X1091988Y21035D01*
X1090706Y22706D01*
X1089035Y23988D01*
X1087088Y24794D01*
X1085000Y25069D01*
D02*
G37*
G36*
X1145000D02*
X1142912Y24794D01*
X1140965Y23988D01*
X1139294Y22706D01*
X1138012Y21035D01*
X1137206Y19088D01*
X1136931Y17000D01*
X1137206Y14912D01*
X1138012Y12966D01*
X1139294Y11294D01*
X1140965Y10012D01*
X1142912Y9206D01*
X1145000Y8931D01*
X1147088Y9206D01*
X1149035Y10012D01*
X1150706Y11294D01*
X1151988Y12966D01*
X1152794Y14912D01*
X1153069Y17000D01*
X1152794Y19088D01*
X1151988Y21035D01*
X1150706Y22706D01*
X1149035Y23988D01*
X1147088Y24794D01*
X1145000Y25069D01*
D02*
G37*
G36*
X1125000D02*
X1122912Y24794D01*
X1120965Y23988D01*
X1119294Y22706D01*
X1118012Y21035D01*
X1117206Y19088D01*
X1116931Y17000D01*
X1117206Y14912D01*
X1118012Y12966D01*
X1119294Y11294D01*
X1120965Y10012D01*
X1122912Y9206D01*
X1125000Y8931D01*
X1127088Y9206D01*
X1129035Y10012D01*
X1130706Y11294D01*
X1131988Y12966D01*
X1132794Y14912D01*
X1133069Y17000D01*
X1132794Y19088D01*
X1131988Y21035D01*
X1130706Y22706D01*
X1129035Y23988D01*
X1127088Y24794D01*
X1125000Y25069D01*
D02*
G37*
G36*
X1065000D02*
X1062912Y24794D01*
X1060965Y23988D01*
X1059294Y22706D01*
X1058012Y21035D01*
X1057206Y19088D01*
X1056931Y17000D01*
X1057206Y14912D01*
X1058012Y12966D01*
X1059294Y11294D01*
X1060965Y10012D01*
X1062912Y9206D01*
X1065000Y8931D01*
X1067088Y9206D01*
X1069035Y10012D01*
X1070706Y11294D01*
X1071988Y12966D01*
X1072794Y14912D01*
X1073069Y17000D01*
X1072794Y19088D01*
X1071988Y21035D01*
X1070706Y22706D01*
X1069035Y23988D01*
X1067088Y24794D01*
X1065000Y25069D01*
D02*
G37*
G36*
X1005000D02*
X1002912Y24794D01*
X1000965Y23988D01*
X999294Y22706D01*
X998012Y21035D01*
X997206Y19088D01*
X996931Y17000D01*
X997206Y14912D01*
X998012Y12966D01*
X999294Y11294D01*
X1000965Y10012D01*
X1002912Y9206D01*
X1005000Y8931D01*
X1007088Y9206D01*
X1009035Y10012D01*
X1010706Y11294D01*
X1011988Y12966D01*
X1012794Y14912D01*
X1013069Y17000D01*
X1012794Y19088D01*
X1011988Y21035D01*
X1010706Y22706D01*
X1009035Y23988D01*
X1007088Y24794D01*
X1005000Y25069D01*
D02*
G37*
G36*
X985000D02*
X982912Y24794D01*
X980965Y23988D01*
X979294Y22706D01*
X978012Y21035D01*
X977206Y19088D01*
X976931Y17000D01*
X977206Y14912D01*
X978012Y12966D01*
X979294Y11294D01*
X980965Y10012D01*
X982912Y9206D01*
X985000Y8931D01*
X987088Y9206D01*
X989035Y10012D01*
X990706Y11294D01*
X991988Y12966D01*
X992794Y14912D01*
X993069Y17000D01*
X992794Y19088D01*
X991988Y21035D01*
X990706Y22706D01*
X989035Y23988D01*
X987088Y24794D01*
X985000Y25069D01*
D02*
G37*
G36*
X1045000D02*
X1042912Y24794D01*
X1040965Y23988D01*
X1039294Y22706D01*
X1038012Y21035D01*
X1037206Y19088D01*
X1036931Y17000D01*
X1037206Y14912D01*
X1038012Y12966D01*
X1039294Y11294D01*
X1040965Y10012D01*
X1042912Y9206D01*
X1045000Y8931D01*
X1047088Y9206D01*
X1049035Y10012D01*
X1050706Y11294D01*
X1051988Y12966D01*
X1052794Y14912D01*
X1053069Y17000D01*
X1052794Y19088D01*
X1051988Y21035D01*
X1050706Y22706D01*
X1049035Y23988D01*
X1047088Y24794D01*
X1045000Y25069D01*
D02*
G37*
G36*
X1025000D02*
X1022912Y24794D01*
X1020965Y23988D01*
X1019294Y22706D01*
X1018012Y21035D01*
X1017206Y19088D01*
X1016931Y17000D01*
X1017206Y14912D01*
X1018012Y12966D01*
X1019294Y11294D01*
X1020965Y10012D01*
X1022912Y9206D01*
X1025000Y8931D01*
X1027088Y9206D01*
X1029035Y10012D01*
X1030706Y11294D01*
X1031988Y12966D01*
X1032794Y14912D01*
X1033069Y17000D01*
X1032794Y19088D01*
X1031988Y21035D01*
X1030706Y22706D01*
X1029035Y23988D01*
X1027088Y24794D01*
X1025000Y25069D01*
D02*
G37*
G36*
X1318000Y33069D02*
X1315912Y32794D01*
X1313965Y31988D01*
X1312294Y30706D01*
X1311012Y29035D01*
X1310206Y27088D01*
X1309931Y25000D01*
X1310206Y22912D01*
X1311012Y20965D01*
X1312294Y19294D01*
X1313965Y18012D01*
X1315912Y17206D01*
X1318000Y16931D01*
X1320088Y17206D01*
X1322034Y18012D01*
X1323706Y19294D01*
X1324988Y20965D01*
X1325794Y22912D01*
X1326069Y25000D01*
X1325794Y27088D01*
X1324988Y29035D01*
X1323706Y30706D01*
X1322034Y31988D01*
X1320088Y32794D01*
X1318000Y33069D01*
D02*
G37*
G36*
X1298000D02*
X1295912Y32794D01*
X1293965Y31988D01*
X1292294Y30706D01*
X1291012Y29035D01*
X1290206Y27088D01*
X1289931Y25000D01*
X1290206Y22912D01*
X1291012Y20965D01*
X1292294Y19294D01*
X1293965Y18012D01*
X1295912Y17206D01*
X1298000Y16931D01*
X1300088Y17206D01*
X1302034Y18012D01*
X1303706Y19294D01*
X1304988Y20965D01*
X1305794Y22912D01*
X1306069Y25000D01*
X1305794Y27088D01*
X1304988Y29035D01*
X1303706Y30706D01*
X1302034Y31988D01*
X1300088Y32794D01*
X1298000Y33069D01*
D02*
G37*
G36*
X1358000D02*
X1355912Y32794D01*
X1353965Y31988D01*
X1352294Y30706D01*
X1351012Y29035D01*
X1350206Y27088D01*
X1349931Y25000D01*
X1350206Y22912D01*
X1351012Y20965D01*
X1352294Y19294D01*
X1353965Y18012D01*
X1355912Y17206D01*
X1358000Y16931D01*
X1360088Y17206D01*
X1362034Y18012D01*
X1363706Y19294D01*
X1364988Y20965D01*
X1365794Y22912D01*
X1366069Y25000D01*
X1365794Y27088D01*
X1364988Y29035D01*
X1363706Y30706D01*
X1362034Y31988D01*
X1360088Y32794D01*
X1358000Y33069D01*
D02*
G37*
G36*
X1338000D02*
X1335912Y32794D01*
X1333965Y31988D01*
X1332294Y30706D01*
X1331012Y29035D01*
X1330206Y27088D01*
X1329931Y25000D01*
X1330206Y22912D01*
X1331012Y20965D01*
X1332294Y19294D01*
X1333965Y18012D01*
X1335912Y17206D01*
X1338000Y16931D01*
X1340088Y17206D01*
X1342034Y18012D01*
X1343706Y19294D01*
X1344988Y20965D01*
X1345794Y22912D01*
X1346069Y25000D01*
X1345794Y27088D01*
X1344988Y29035D01*
X1343706Y30706D01*
X1342034Y31988D01*
X1340088Y32794D01*
X1338000Y33069D01*
D02*
G37*
G36*
X1278000D02*
X1275912Y32794D01*
X1273966Y31988D01*
X1272294Y30706D01*
X1271012Y29035D01*
X1270206Y27088D01*
X1269931Y25000D01*
X1270206Y22912D01*
X1271012Y20965D01*
X1272294Y19294D01*
X1273966Y18012D01*
X1275912Y17206D01*
X1278000Y16931D01*
X1280088Y17206D01*
X1282034Y18012D01*
X1283706Y19294D01*
X1284988Y20965D01*
X1285794Y22912D01*
X1286069Y25000D01*
X1285794Y27088D01*
X1284988Y29035D01*
X1283706Y30706D01*
X1282034Y31988D01*
X1280088Y32794D01*
X1278000Y33069D01*
D02*
G37*
G36*
X492000Y25808D02*
X490238Y25576D01*
X488596Y24896D01*
X487186Y23814D01*
X486104Y22404D01*
X485424Y20762D01*
X485192Y19000D01*
X485424Y17238D01*
X486104Y15596D01*
X487186Y14186D01*
X488596Y13104D01*
X490238Y12424D01*
X492000Y12192D01*
X493762Y12424D01*
X495404Y13104D01*
X496814Y14186D01*
X497896Y15596D01*
X498576Y17238D01*
X498808Y19000D01*
X498576Y20762D01*
X497896Y22404D01*
X496814Y23814D01*
X495404Y24896D01*
X493762Y25576D01*
X492000Y25808D01*
D02*
G37*
G36*
X663000Y49843D02*
X661147Y49474D01*
X659575Y48425D01*
X658526Y46853D01*
X658157Y45000D01*
X658526Y43147D01*
X659575Y41575D01*
X660877Y40706D01*
X660979Y40239D01*
Y39761D01*
X660877Y39294D01*
X659575Y38425D01*
X658526Y36853D01*
X658157Y35000D01*
X658526Y33147D01*
X659575Y31576D01*
X660877Y30706D01*
X660979Y30239D01*
Y29761D01*
X660877Y29294D01*
X659575Y28425D01*
X658526Y26853D01*
X658157Y25000D01*
X658526Y23147D01*
X659575Y21575D01*
X660877Y20706D01*
X660979Y20239D01*
Y19761D01*
X660877Y19294D01*
X659575Y18425D01*
X658526Y16853D01*
X658157Y15000D01*
X658526Y13147D01*
X659575Y11575D01*
X661147Y10526D01*
X663000Y10157D01*
X664853Y10526D01*
X666424Y11575D01*
X667474Y13147D01*
X667843Y15000D01*
X667474Y16853D01*
X666424Y18425D01*
X665123Y19294D01*
X665021Y19761D01*
Y20239D01*
X665123Y20706D01*
X666424Y21575D01*
X667474Y23147D01*
X667843Y25000D01*
X667474Y26853D01*
X666424Y28425D01*
X665123Y29294D01*
X665021Y29761D01*
Y30239D01*
X665123Y30706D01*
X666424Y31576D01*
X667474Y33147D01*
X667843Y35000D01*
X667474Y36853D01*
X666424Y38425D01*
X665123Y39294D01*
X665021Y39761D01*
Y40239D01*
X665123Y40706D01*
X666424Y41575D01*
X667474Y43147D01*
X667843Y45000D01*
X667474Y46853D01*
X666424Y48425D01*
X664853Y49474D01*
X663000Y49843D01*
D02*
G37*
G36*
X1235000Y33069D02*
X1232912Y32794D01*
X1230965Y31988D01*
X1229294Y30706D01*
X1228012Y29035D01*
X1227206Y27088D01*
X1226931Y25000D01*
X1227206Y22912D01*
X1228012Y20965D01*
X1229294Y19294D01*
X1230965Y18012D01*
X1232912Y17206D01*
X1235000Y16931D01*
X1237088Y17206D01*
X1239035Y18012D01*
X1240706Y19294D01*
X1241988Y20965D01*
X1242794Y22912D01*
X1243069Y25000D01*
X1242794Y27088D01*
X1241988Y29035D01*
X1240706Y30706D01*
X1239035Y31988D01*
X1237088Y32794D01*
X1235000Y33069D01*
D02*
G37*
G36*
X1215000D02*
X1212912Y32794D01*
X1210965Y31988D01*
X1209294Y30706D01*
X1208012Y29035D01*
X1207206Y27088D01*
X1206931Y25000D01*
X1207206Y22912D01*
X1208012Y20965D01*
X1209294Y19294D01*
X1210965Y18012D01*
X1212912Y17206D01*
X1215000Y16931D01*
X1217088Y17206D01*
X1219035Y18012D01*
X1220706Y19294D01*
X1221988Y20965D01*
X1222794Y22912D01*
X1223069Y25000D01*
X1222794Y27088D01*
X1221988Y29035D01*
X1220706Y30706D01*
X1219035Y31988D01*
X1217088Y32794D01*
X1215000Y33069D01*
D02*
G37*
G36*
X317000Y13069D02*
X314912Y12794D01*
X312966Y11988D01*
X311294Y10706D01*
X310012Y9035D01*
X309206Y7088D01*
X308931Y5000D01*
X309206Y2912D01*
X310012Y966D01*
X311294Y-706D01*
X312966Y-1988D01*
X314912Y-2794D01*
X317000Y-3069D01*
X319088Y-2794D01*
X321035Y-1988D01*
X322706Y-706D01*
X323988Y966D01*
X324794Y2912D01*
X325069Y5000D01*
X324794Y7088D01*
X323988Y9035D01*
X322706Y10706D01*
X321035Y11988D01*
X319088Y12794D01*
X317000Y13069D01*
D02*
G37*
G36*
X886000Y2843D02*
X884147Y2474D01*
X882576Y1425D01*
X881526Y-147D01*
X881157Y-2000D01*
X881526Y-3853D01*
X882576Y-5425D01*
X884147Y-6474D01*
X886000Y-6843D01*
X887853Y-6474D01*
X889425Y-5425D01*
X890474Y-3853D01*
X890843Y-2000D01*
X890474Y-147D01*
X889425Y1425D01*
X887853Y2474D01*
X886000Y2843D01*
D02*
G37*
G36*
X1298000Y13069D02*
X1295912Y12794D01*
X1293965Y11988D01*
X1292294Y10706D01*
X1291012Y9035D01*
X1290206Y7088D01*
X1289931Y5000D01*
X1290206Y2912D01*
X1291012Y966D01*
X1292294Y-706D01*
X1293965Y-1988D01*
X1295912Y-2794D01*
X1298000Y-3069D01*
X1300088Y-2794D01*
X1302034Y-1988D01*
X1303706Y-706D01*
X1304988Y966D01*
X1305794Y2912D01*
X1306069Y5000D01*
X1305794Y7088D01*
X1304988Y9035D01*
X1303706Y10706D01*
X1302034Y11988D01*
X1300088Y12794D01*
X1298000Y13069D01*
D02*
G37*
G36*
X1278000D02*
X1275912Y12794D01*
X1273966Y11988D01*
X1272294Y10706D01*
X1271012Y9035D01*
X1270206Y7088D01*
X1269931Y5000D01*
X1270206Y2912D01*
X1271012Y966D01*
X1272294Y-706D01*
X1273966Y-1988D01*
X1275912Y-2794D01*
X1278000Y-3069D01*
X1280088Y-2794D01*
X1282034Y-1988D01*
X1283706Y-706D01*
X1284988Y966D01*
X1285794Y2912D01*
X1286069Y5000D01*
X1285794Y7088D01*
X1284988Y9035D01*
X1283706Y10706D01*
X1282034Y11988D01*
X1280088Y12794D01*
X1278000Y13069D01*
D02*
G37*
G36*
X810000Y2843D02*
X808147Y2474D01*
X806575Y1425D01*
X805526Y-147D01*
X805157Y-2000D01*
X805526Y-3853D01*
X806575Y-5425D01*
X808147Y-6474D01*
X810000Y-6843D01*
X811853Y-6474D01*
X813425Y-5425D01*
X814474Y-3853D01*
X814843Y-2000D01*
X814474Y-147D01*
X813425Y1425D01*
X811853Y2474D01*
X810000Y2843D01*
D02*
G37*
G36*
X1125000Y5069D02*
X1122912Y4794D01*
X1120965Y3988D01*
X1119294Y2706D01*
X1118012Y1035D01*
X1117206Y-912D01*
X1116931Y-3000D01*
X1117206Y-5088D01*
X1118012Y-7035D01*
X1119294Y-8706D01*
X1120965Y-9988D01*
X1122912Y-10794D01*
X1125000Y-11069D01*
X1127088Y-10794D01*
X1129035Y-9988D01*
X1130706Y-8706D01*
X1131988Y-7035D01*
X1132794Y-5088D01*
X1133069Y-3000D01*
X1132794Y-912D01*
X1131988Y1035D01*
X1130706Y2706D01*
X1129035Y3988D01*
X1127088Y4794D01*
X1125000Y5069D01*
D02*
G37*
G36*
X1105000D02*
X1102912Y4794D01*
X1100965Y3988D01*
X1099294Y2706D01*
X1098012Y1035D01*
X1097206Y-912D01*
X1096931Y-3000D01*
X1097206Y-5088D01*
X1098012Y-7035D01*
X1099294Y-8706D01*
X1100965Y-9988D01*
X1102912Y-10794D01*
X1105000Y-11069D01*
X1107088Y-10794D01*
X1109035Y-9988D01*
X1110706Y-8706D01*
X1111988Y-7035D01*
X1112794Y-5088D01*
X1113069Y-3000D01*
X1112794Y-912D01*
X1111988Y1035D01*
X1110706Y2706D01*
X1109035Y3988D01*
X1107088Y4794D01*
X1105000Y5069D01*
D02*
G37*
G36*
X859000Y1843D02*
X857147Y1474D01*
X855575Y425D01*
X854526Y-1147D01*
X854157Y-3000D01*
X854526Y-4853D01*
X855575Y-6424D01*
X857147Y-7474D01*
X859000Y-7843D01*
X860853Y-7474D01*
X862425Y-6424D01*
X863474Y-4853D01*
X863843Y-3000D01*
X863474Y-1147D01*
X862425Y425D01*
X860853Y1474D01*
X859000Y1843D01*
D02*
G37*
G36*
X1145000Y5069D02*
X1142912Y4794D01*
X1140965Y3988D01*
X1139294Y2706D01*
X1138012Y1035D01*
X1137206Y-912D01*
X1136931Y-3000D01*
X1137206Y-5088D01*
X1138012Y-7035D01*
X1139294Y-8706D01*
X1140965Y-9988D01*
X1142912Y-10794D01*
X1145000Y-11069D01*
X1147088Y-10794D01*
X1149035Y-9988D01*
X1150706Y-8706D01*
X1151988Y-7035D01*
X1152794Y-5088D01*
X1153069Y-3000D01*
X1152794Y-912D01*
X1151988Y1035D01*
X1150706Y2706D01*
X1149035Y3988D01*
X1147088Y4794D01*
X1145000Y5069D01*
D02*
G37*
G36*
X213000Y23069D02*
X210912Y22794D01*
X208965Y21988D01*
X207294Y20706D01*
X206012Y19035D01*
X205206Y17088D01*
X204931Y15000D01*
X205206Y12912D01*
X206012Y10965D01*
X207294Y9294D01*
X208965Y8012D01*
X210912Y7206D01*
X213000Y6931D01*
X215088Y7206D01*
X217034Y8012D01*
X218706Y9294D01*
X219988Y10965D01*
X220794Y12912D01*
X221069Y15000D01*
X220794Y17088D01*
X219988Y19035D01*
X218706Y20706D01*
X217034Y21988D01*
X215088Y22794D01*
X213000Y23069D01*
D02*
G37*
G36*
X698000Y22843D02*
X696147Y22474D01*
X694575Y21425D01*
X693526Y19853D01*
X693157Y18000D01*
X693526Y16147D01*
X694575Y14575D01*
X696147Y13526D01*
X698000Y13157D01*
X699853Y13526D01*
X700327Y13842D01*
X701243Y12926D01*
X700526Y11853D01*
X700157Y10000D01*
X700526Y8147D01*
X701575Y6575D01*
X703147Y5526D01*
X705000Y5157D01*
X706853Y5526D01*
X708425Y6575D01*
X709474Y8147D01*
X709843Y10000D01*
X709474Y11853D01*
X708425Y13425D01*
X706853Y14474D01*
X705000Y14843D01*
X703147Y14474D01*
X702673Y14158D01*
X701757Y15073D01*
X702474Y16147D01*
X702843Y18000D01*
X702474Y19853D01*
X701425Y21425D01*
X699853Y22474D01*
X698000Y22843D01*
D02*
G37*
G36*
X965000Y25069D02*
X962912Y24794D01*
X960965Y23988D01*
X959294Y22706D01*
X958012Y21035D01*
X957206Y19088D01*
X956931Y17000D01*
X957206Y14912D01*
X958012Y12966D01*
X959294Y11294D01*
X960965Y10012D01*
X962912Y9206D01*
X965000Y8931D01*
X967088Y9206D01*
X969035Y10012D01*
X970706Y11294D01*
X971988Y12966D01*
X972794Y14912D01*
X973069Y17000D01*
X972794Y19088D01*
X971988Y21035D01*
X970706Y22706D01*
X969035Y23988D01*
X967088Y24794D01*
X965000Y25069D01*
D02*
G37*
G36*
X945000D02*
X942912Y24794D01*
X940965Y23988D01*
X939294Y22706D01*
X938012Y21035D01*
X937206Y19088D01*
X936931Y17000D01*
X937206Y14912D01*
X938012Y12966D01*
X939294Y11294D01*
X940965Y10012D01*
X942912Y9206D01*
X945000Y8931D01*
X947088Y9206D01*
X949035Y10012D01*
X950706Y11294D01*
X951988Y12966D01*
X952794Y14912D01*
X953069Y17000D01*
X952794Y19088D01*
X951988Y21035D01*
X950706Y22706D01*
X949035Y23988D01*
X947088Y24794D01*
X945000Y25069D01*
D02*
G37*
G36*
X913000Y2843D02*
X911147Y2474D01*
X909836Y1599D01*
X909000Y1496D01*
X908164Y1599D01*
X906853Y2474D01*
X905000Y2843D01*
X903147Y2474D01*
X901575Y1425D01*
X900526Y-147D01*
X900157Y-2000D01*
X900526Y-3853D01*
X901575Y-5425D01*
X903147Y-6474D01*
X905000Y-6843D01*
X906853Y-6474D01*
X908425Y-5425D01*
X909576D01*
X911147Y-6474D01*
X913000Y-6843D01*
X914853Y-6474D01*
X916425Y-5425D01*
X917474Y-3853D01*
X917843Y-2000D01*
X917474Y-147D01*
X916425Y1425D01*
X914853Y2474D01*
X913000Y2843D01*
D02*
G37*
G36*
X1338000Y13069D02*
X1335912Y12794D01*
X1333965Y11988D01*
X1332294Y10706D01*
X1331012Y9035D01*
X1330206Y7088D01*
X1329931Y5000D01*
X1330206Y2912D01*
X1331012Y966D01*
X1332294Y-706D01*
X1333965Y-1988D01*
X1335912Y-2794D01*
X1338000Y-3069D01*
X1340088Y-2794D01*
X1342034Y-1988D01*
X1343706Y-706D01*
X1344988Y966D01*
X1345794Y2912D01*
X1346069Y5000D01*
X1345794Y7088D01*
X1344988Y9035D01*
X1343706Y10706D01*
X1342034Y11988D01*
X1340088Y12794D01*
X1338000Y13069D01*
D02*
G37*
G36*
X1318000D02*
X1315912Y12794D01*
X1313965Y11988D01*
X1312294Y10706D01*
X1311012Y9035D01*
X1310206Y7088D01*
X1309931Y5000D01*
X1310206Y2912D01*
X1311012Y966D01*
X1312294Y-706D01*
X1313965Y-1988D01*
X1315912Y-2794D01*
X1318000Y-3069D01*
X1320088Y-2794D01*
X1322034Y-1988D01*
X1323706Y-706D01*
X1324988Y966D01*
X1325794Y2912D01*
X1326069Y5000D01*
X1325794Y7088D01*
X1324988Y9035D01*
X1323706Y10706D01*
X1322034Y11988D01*
X1320088Y12794D01*
X1318000Y13069D01*
D02*
G37*
G36*
X663000Y8843D02*
X661147Y8474D01*
X659575Y7424D01*
X658526Y5853D01*
X658157Y4000D01*
X658526Y2147D01*
X659575Y575D01*
X661147Y-474D01*
X663000Y-843D01*
X664853Y-474D01*
X666424Y575D01*
X667474Y2147D01*
X667843Y4000D01*
X667474Y5853D01*
X666424Y7424D01*
X664853Y8474D01*
X663000Y8843D01*
D02*
G37*
G36*
X1358000Y13069D02*
X1355912Y12794D01*
X1353965Y11988D01*
X1352294Y10706D01*
X1351012Y9035D01*
X1350206Y7088D01*
X1349931Y5000D01*
X1350206Y2912D01*
X1351012Y966D01*
X1352294Y-706D01*
X1353965Y-1988D01*
X1355912Y-2794D01*
X1358000Y-3069D01*
X1360088Y-2794D01*
X1362034Y-1988D01*
X1363706Y-706D01*
X1364988Y966D01*
X1365794Y2912D01*
X1366069Y5000D01*
X1365794Y7088D01*
X1364988Y9035D01*
X1363706Y10706D01*
X1362034Y11988D01*
X1360088Y12794D01*
X1358000Y13069D01*
D02*
G37*
G36*
X323000Y34069D02*
X320912Y33794D01*
X318965Y32988D01*
X317294Y31706D01*
X316012Y30034D01*
X315206Y28088D01*
X314931Y26000D01*
X315206Y23912D01*
X316012Y21965D01*
X317294Y20294D01*
X318965Y19012D01*
X320912Y18206D01*
X323000Y17931D01*
X325088Y18206D01*
X327034Y19012D01*
X328706Y20294D01*
X329988Y21965D01*
X330794Y23912D01*
X331069Y26000D01*
X330794Y28088D01*
X329988Y30034D01*
X328706Y31706D01*
X327034Y32988D01*
X325088Y33794D01*
X323000Y34069D01*
D02*
G37*
G36*
X1318000Y53069D02*
X1315912Y52794D01*
X1313965Y51988D01*
X1312294Y50706D01*
X1311012Y49035D01*
X1310206Y47088D01*
X1309931Y45000D01*
X1310206Y42912D01*
X1311012Y40965D01*
X1312294Y39294D01*
X1313965Y38012D01*
X1315912Y37206D01*
X1318000Y36931D01*
X1320088Y37206D01*
X1322034Y38012D01*
X1323706Y39294D01*
X1324988Y40965D01*
X1325794Y42912D01*
X1326069Y45000D01*
X1325794Y47088D01*
X1324988Y49035D01*
X1323706Y50706D01*
X1322034Y51988D01*
X1320088Y52794D01*
X1318000Y53069D01*
D02*
G37*
G36*
X1298000D02*
X1295912Y52794D01*
X1293965Y51988D01*
X1292294Y50706D01*
X1291012Y49035D01*
X1290206Y47088D01*
X1289931Y45000D01*
X1290206Y42912D01*
X1291012Y40965D01*
X1292294Y39294D01*
X1293965Y38012D01*
X1295912Y37206D01*
X1298000Y36931D01*
X1300088Y37206D01*
X1302034Y38012D01*
X1303706Y39294D01*
X1304988Y40965D01*
X1305794Y42912D01*
X1306069Y45000D01*
X1305794Y47088D01*
X1304988Y49035D01*
X1303706Y50706D01*
X1302034Y51988D01*
X1300088Y52794D01*
X1298000Y53069D01*
D02*
G37*
G36*
X1358000D02*
X1355912Y52794D01*
X1353965Y51988D01*
X1352294Y50706D01*
X1351012Y49035D01*
X1350206Y47088D01*
X1349931Y45000D01*
X1350206Y42912D01*
X1351012Y40965D01*
X1352294Y39294D01*
X1353965Y38012D01*
X1355912Y37206D01*
X1358000Y36931D01*
X1360088Y37206D01*
X1362034Y38012D01*
X1363706Y39294D01*
X1364988Y40965D01*
X1365794Y42912D01*
X1366069Y45000D01*
X1365794Y47088D01*
X1364988Y49035D01*
X1363706Y50706D01*
X1362034Y51988D01*
X1360088Y52794D01*
X1358000Y53069D01*
D02*
G37*
G36*
X1338000D02*
X1335912Y52794D01*
X1333965Y51988D01*
X1332294Y50706D01*
X1331012Y49035D01*
X1330206Y47088D01*
X1329931Y45000D01*
X1330206Y42912D01*
X1331012Y40965D01*
X1332294Y39294D01*
X1333965Y38012D01*
X1335912Y37206D01*
X1338000Y36931D01*
X1340088Y37206D01*
X1342034Y38012D01*
X1343706Y39294D01*
X1344988Y40965D01*
X1345794Y42912D01*
X1346069Y45000D01*
X1345794Y47088D01*
X1344988Y49035D01*
X1343706Y50706D01*
X1342034Y51988D01*
X1340088Y52794D01*
X1338000Y53069D01*
D02*
G37*
G36*
X1278000D02*
X1275912Y52794D01*
X1273966Y51988D01*
X1272294Y50706D01*
X1271012Y49035D01*
X1270206Y47088D01*
X1269931Y45000D01*
X1270206Y42912D01*
X1271012Y40965D01*
X1272294Y39294D01*
X1273966Y38012D01*
X1275912Y37206D01*
X1278000Y36931D01*
X1280088Y37206D01*
X1282034Y38012D01*
X1283706Y39294D01*
X1284988Y40965D01*
X1285794Y42912D01*
X1286069Y45000D01*
X1285794Y47088D01*
X1284988Y49035D01*
X1283706Y50706D01*
X1282034Y51988D01*
X1280088Y52794D01*
X1278000Y53069D01*
D02*
G37*
G36*
X764000Y45843D02*
X762147Y45474D01*
X760575Y44425D01*
X759526Y42853D01*
X759157Y41000D01*
X759526Y39147D01*
X760575Y37575D01*
X762147Y36526D01*
X764000Y36157D01*
X765853Y36526D01*
X767425Y37575D01*
X768474Y39147D01*
X768843Y41000D01*
X768474Y42853D01*
X767425Y44425D01*
X765853Y45474D01*
X764000Y45843D01*
D02*
G37*
G36*
X1147000Y66069D02*
X1144912Y65794D01*
X1142965Y64988D01*
X1141294Y63706D01*
X1140012Y62035D01*
X1139206Y60088D01*
X1138931Y58000D01*
X1139206Y55912D01*
X1140012Y53966D01*
X1141294Y52294D01*
X1141968Y51778D01*
X1141776Y50324D01*
X1140965Y49988D01*
X1139294Y48706D01*
X1138012Y47035D01*
X1137206Y45088D01*
X1136931Y43000D01*
X1137206Y40912D01*
X1138012Y38965D01*
X1139294Y37294D01*
X1140965Y36012D01*
X1142912Y35206D01*
X1145000Y34931D01*
X1147088Y35206D01*
X1149035Y36012D01*
X1150706Y37294D01*
X1151988Y38965D01*
X1152794Y40912D01*
X1153069Y43000D01*
X1152794Y45088D01*
X1151988Y47035D01*
X1150706Y48706D01*
X1150032Y49222D01*
X1150224Y50676D01*
X1151034Y51012D01*
X1152706Y52294D01*
X1153988Y53966D01*
X1154794Y55912D01*
X1155069Y58000D01*
X1154794Y60088D01*
X1153988Y62035D01*
X1152706Y63706D01*
X1151034Y64988D01*
X1149088Y65794D01*
X1147000Y66069D01*
D02*
G37*
G36*
X1164000Y53069D02*
X1161912Y52794D01*
X1159966Y51988D01*
X1158294Y50706D01*
X1157012Y49035D01*
X1156206Y47088D01*
X1155931Y45000D01*
X1156206Y42912D01*
X1157012Y40965D01*
X1158294Y39294D01*
X1159966Y38012D01*
X1161912Y37206D01*
X1164000Y36931D01*
X1166088Y37206D01*
X1168035Y38012D01*
X1169706Y39294D01*
X1170988Y40965D01*
X1171794Y42912D01*
X1172069Y45000D01*
X1171794Y47088D01*
X1170988Y49035D01*
X1169706Y50706D01*
X1168035Y51988D01*
X1166088Y52794D01*
X1164000Y53069D01*
D02*
G37*
G36*
X213000D02*
X210912Y52794D01*
X208965Y51988D01*
X207294Y50706D01*
X206012Y49035D01*
X205206Y47088D01*
X204931Y45000D01*
X205206Y42912D01*
X206012Y40965D01*
X207294Y39294D01*
X208965Y38012D01*
X210912Y37206D01*
X213000Y36931D01*
X215088Y37206D01*
X217034Y38012D01*
X218706Y39294D01*
X219988Y40965D01*
X220794Y42912D01*
X221069Y45000D01*
X220794Y47088D01*
X219988Y49035D01*
X218706Y50706D01*
X217034Y51988D01*
X215088Y52794D01*
X213000Y53069D01*
D02*
G37*
G36*
X1318000Y73069D02*
X1315912Y72794D01*
X1313965Y71988D01*
X1312294Y70706D01*
X1311012Y69035D01*
X1310206Y67088D01*
X1309931Y65000D01*
X1310206Y62912D01*
X1311012Y60965D01*
X1312294Y59294D01*
X1313965Y58012D01*
X1315912Y57206D01*
X1318000Y56931D01*
X1320088Y57206D01*
X1322034Y58012D01*
X1323706Y59294D01*
X1324988Y60965D01*
X1325794Y62912D01*
X1326069Y65000D01*
X1325794Y67088D01*
X1324988Y69035D01*
X1323706Y70706D01*
X1322034Y71988D01*
X1320088Y72794D01*
X1318000Y73069D01*
D02*
G37*
G36*
X1298000D02*
X1295912Y72794D01*
X1293965Y71988D01*
X1292294Y70706D01*
X1291012Y69035D01*
X1290206Y67088D01*
X1289931Y65000D01*
X1290206Y62912D01*
X1291012Y60965D01*
X1292294Y59294D01*
X1293965Y58012D01*
X1295912Y57206D01*
X1298000Y56931D01*
X1300088Y57206D01*
X1302034Y58012D01*
X1303706Y59294D01*
X1304988Y60965D01*
X1305794Y62912D01*
X1306069Y65000D01*
X1305794Y67088D01*
X1304988Y69035D01*
X1303706Y70706D01*
X1302034Y71988D01*
X1300088Y72794D01*
X1298000Y73069D01*
D02*
G37*
G36*
X1358000D02*
X1355912Y72794D01*
X1353965Y71988D01*
X1352294Y70706D01*
X1351012Y69035D01*
X1350206Y67088D01*
X1349931Y65000D01*
X1350206Y62912D01*
X1351012Y60965D01*
X1352294Y59294D01*
X1353965Y58012D01*
X1355912Y57206D01*
X1358000Y56931D01*
X1360088Y57206D01*
X1362034Y58012D01*
X1363706Y59294D01*
X1364988Y60965D01*
X1365794Y62912D01*
X1366069Y65000D01*
X1365794Y67088D01*
X1364988Y69035D01*
X1363706Y70706D01*
X1362034Y71988D01*
X1360088Y72794D01*
X1358000Y73069D01*
D02*
G37*
G36*
X1338000D02*
X1335912Y72794D01*
X1333965Y71988D01*
X1332294Y70706D01*
X1331012Y69035D01*
X1330206Y67088D01*
X1329931Y65000D01*
X1330206Y62912D01*
X1331012Y60965D01*
X1332294Y59294D01*
X1333965Y58012D01*
X1335912Y57206D01*
X1338000Y56931D01*
X1340088Y57206D01*
X1342034Y58012D01*
X1343706Y59294D01*
X1344988Y60965D01*
X1345794Y62912D01*
X1346069Y65000D01*
X1345794Y67088D01*
X1344988Y69035D01*
X1343706Y70706D01*
X1342034Y71988D01*
X1340088Y72794D01*
X1338000Y73069D01*
D02*
G37*
G36*
X1278000D02*
X1275912Y72794D01*
X1273966Y71988D01*
X1272294Y70706D01*
X1271012Y69035D01*
X1270206Y67088D01*
X1269931Y65000D01*
X1270206Y62912D01*
X1271012Y60965D01*
X1272294Y59294D01*
X1273966Y58012D01*
X1275912Y57206D01*
X1278000Y56931D01*
X1280088Y57206D01*
X1282034Y58012D01*
X1283706Y59294D01*
X1284988Y60965D01*
X1285794Y62912D01*
X1286069Y65000D01*
X1285794Y67088D01*
X1284988Y69035D01*
X1283706Y70706D01*
X1282034Y71988D01*
X1280088Y72794D01*
X1278000Y73069D01*
D02*
G37*
G36*
X786000Y49843D02*
X784147Y49474D01*
X782575Y48425D01*
X781526Y46853D01*
X781157Y45000D01*
X781221Y44677D01*
X780323Y43779D01*
X780000Y43843D01*
X778147Y43474D01*
X776575Y42425D01*
X775526Y40853D01*
X775157Y39000D01*
X775526Y37147D01*
X776575Y35575D01*
X778147Y34526D01*
X780000Y34157D01*
X781853Y34526D01*
X783425Y35575D01*
X784474Y37147D01*
X784843Y39000D01*
X784779Y39323D01*
X785677Y40221D01*
X786000Y40157D01*
X787853Y40526D01*
X789425Y41575D01*
X790474Y43147D01*
X790843Y45000D01*
X790474Y46853D01*
X789425Y48425D01*
X787853Y49474D01*
X786000Y49843D01*
D02*
G37*
G36*
X912000Y43808D02*
X910238Y43576D01*
X908596Y42896D01*
X907960Y42408D01*
X907000Y41911D01*
X906040Y42408D01*
X905404Y42896D01*
X903762Y43576D01*
X902000Y43808D01*
X900238Y43576D01*
X898596Y42896D01*
X897186Y41814D01*
X896104Y40404D01*
X895424Y38762D01*
X895192Y37000D01*
X895424Y35238D01*
X896104Y33596D01*
X897186Y32186D01*
X898596Y31104D01*
X900238Y30424D01*
X902000Y30192D01*
X903762Y30424D01*
X905404Y31104D01*
X906814Y32186D01*
X907186D01*
X908596Y31104D01*
X910238Y30424D01*
X912000Y30192D01*
X913762Y30424D01*
X915404Y31104D01*
X916814Y32186D01*
X917896Y33596D01*
X918576Y35238D01*
X918808Y37000D01*
X918576Y38762D01*
X917896Y40404D01*
X916814Y41814D01*
X915404Y42896D01*
X913762Y43576D01*
X912000Y43808D01*
D02*
G37*
G36*
X792000Y58843D02*
X790147Y58474D01*
X788575Y57425D01*
X787526Y55853D01*
X787157Y54000D01*
X787526Y52147D01*
X788575Y50575D01*
X790147Y49526D01*
X792000Y49157D01*
X793853Y49526D01*
X795424Y50575D01*
X796474Y52147D01*
X796843Y54000D01*
X796474Y55853D01*
X795424Y57425D01*
X793853Y58474D01*
X792000Y58843D01*
D02*
G37*
G36*
X816000Y54843D02*
X814147Y54474D01*
X812575Y53425D01*
X811526Y51853D01*
X811157Y50000D01*
X811526Y48147D01*
X812575Y46575D01*
X814147Y45526D01*
X816000Y45157D01*
X817853Y45526D01*
X819425Y46575D01*
X820474Y48147D01*
X820843Y50000D01*
X820474Y51853D01*
X819425Y53425D01*
X817853Y54474D01*
X816000Y54843D01*
D02*
G37*
G36*
X687000Y39843D02*
X685147Y39474D01*
X683575Y38425D01*
X682526Y36853D01*
X682157Y35000D01*
X682526Y33147D01*
X683575Y31576D01*
X685147Y30526D01*
X687000Y30157D01*
X688853Y30526D01*
X690425Y31576D01*
X691474Y33147D01*
X691843Y35000D01*
X691474Y36853D01*
X690425Y38425D01*
X688853Y39474D01*
X687000Y39843D01*
D02*
G37*
G36*
X886000Y41808D02*
X884238Y41576D01*
X882596Y40896D01*
X881186Y39814D01*
X880104Y38404D01*
X879424Y36762D01*
X879192Y35000D01*
X879424Y33238D01*
X880104Y31596D01*
X881186Y30186D01*
X882596Y29104D01*
X884238Y28424D01*
X886000Y28192D01*
X887762Y28424D01*
X889404Y29104D01*
X890814Y30186D01*
X891896Y31596D01*
X892576Y33238D01*
X892808Y35000D01*
X892576Y36762D01*
X891896Y38404D01*
X890814Y39814D01*
X889404Y40896D01*
X887762Y41576D01*
X886000Y41808D01*
D02*
G37*
G36*
X970000Y63069D02*
X967912Y62794D01*
X965965Y61988D01*
X964294Y60706D01*
X963012Y59035D01*
X962206Y57088D01*
X961931Y55000D01*
X962206Y52912D01*
X962597Y51967D01*
X962884Y50897D01*
X961950Y50396D01*
X960965Y49988D01*
X959294Y48706D01*
X958012Y47035D01*
X957206Y45088D01*
X956931Y43000D01*
X957206Y40912D01*
X958012Y38965D01*
X959294Y37294D01*
X960965Y36012D01*
X962912Y35206D01*
X965000Y34931D01*
X967088Y35206D01*
X969035Y36012D01*
X970706Y37294D01*
X971988Y38965D01*
X972794Y40912D01*
X973069Y43000D01*
X972794Y45088D01*
X972403Y46033D01*
X972116Y47103D01*
X973050Y47604D01*
X974035Y48012D01*
X975706Y49294D01*
X976988Y50965D01*
X977794Y52912D01*
X978069Y55000D01*
X977794Y57088D01*
X976988Y59035D01*
X975706Y60706D01*
X974035Y61988D01*
X972088Y62794D01*
X970000Y63069D01*
D02*
G37*
G36*
X950000D02*
X947912Y62794D01*
X945965Y61988D01*
X944294Y60706D01*
X943012Y59035D01*
X942206Y57088D01*
X941931Y55000D01*
X942206Y52912D01*
X942597Y51967D01*
X942884Y50897D01*
X941950Y50396D01*
X940965Y49988D01*
X939294Y48706D01*
X938012Y47035D01*
X937206Y45088D01*
X936931Y43000D01*
X937206Y40912D01*
X938012Y38965D01*
X939294Y37294D01*
X940965Y36012D01*
X942912Y35206D01*
X945000Y34931D01*
X947088Y35206D01*
X949035Y36012D01*
X950706Y37294D01*
X951988Y38965D01*
X952794Y40912D01*
X953069Y43000D01*
X952794Y45088D01*
X952403Y46033D01*
X952116Y47103D01*
X953050Y47604D01*
X954035Y48012D01*
X955706Y49294D01*
X956988Y50965D01*
X957794Y52912D01*
X958069Y55000D01*
X957794Y57088D01*
X956988Y59035D01*
X955706Y60706D01*
X954035Y61988D01*
X952088Y62794D01*
X950000Y63069D01*
D02*
G37*
G36*
X451500Y44069D02*
X449412Y43794D01*
X447466Y42988D01*
X445794Y41706D01*
X444512Y40034D01*
X443706Y38088D01*
X443431Y36000D01*
X443706Y33912D01*
X444512Y31965D01*
X445794Y30294D01*
X447466Y29012D01*
X449412Y28206D01*
X451500Y27931D01*
X453588Y28206D01*
X455535Y29012D01*
X457206Y30294D01*
X458488Y31965D01*
X459294Y33912D01*
X459569Y36000D01*
X459294Y38088D01*
X458488Y40034D01*
X457206Y41706D01*
X455535Y42988D01*
X453588Y43794D01*
X451500Y44069D01*
D02*
G37*
G36*
X801000Y28843D02*
X799147Y28474D01*
X797575Y27425D01*
X796526Y25853D01*
X796157Y24000D01*
X796445Y22553D01*
X796340Y22361D01*
X795639Y21660D01*
X795447Y21555D01*
X794000Y21843D01*
X792147Y21474D01*
X790575Y20424D01*
X789526Y18853D01*
X789157Y17000D01*
X789526Y15147D01*
X790575Y13575D01*
X792147Y12526D01*
X794000Y12157D01*
X795853Y12526D01*
X797425Y13575D01*
X798474Y15147D01*
X798843Y17000D01*
X798555Y18447D01*
X798661Y18639D01*
X799361Y19339D01*
X799553Y19445D01*
X801000Y19157D01*
X802853Y19526D01*
X804425Y20575D01*
X805474Y22147D01*
X805843Y24000D01*
X805474Y25853D01*
X804425Y27425D01*
X802853Y28474D01*
X801000Y28843D01*
D02*
G37*
G36*
X714000Y27843D02*
X712147Y27474D01*
X710575Y26425D01*
X709526Y24853D01*
X709157Y23000D01*
X709526Y21147D01*
X710575Y19575D01*
X712147Y18526D01*
X714000Y18157D01*
X715853Y18526D01*
X717424Y19575D01*
X718474Y21147D01*
X718843Y23000D01*
X718474Y24853D01*
X717424Y26425D01*
X715853Y27474D01*
X714000Y27843D01*
D02*
G37*
G36*
X824000Y36843D02*
X822147Y36474D01*
X820575Y35425D01*
X819526Y33853D01*
X819157Y32000D01*
X819526Y30147D01*
X820575Y28575D01*
X822147Y27526D01*
X824000Y27157D01*
X825853Y27526D01*
X827425Y28575D01*
X828474Y30147D01*
X828843Y32000D01*
X828474Y33853D01*
X827425Y35425D01*
X825853Y36474D01*
X824000Y36843D01*
D02*
G37*
G36*
X1195000Y33069D02*
X1192912Y32794D01*
X1190965Y31988D01*
X1189294Y30706D01*
X1188012Y29035D01*
X1187206Y27088D01*
X1187065Y26020D01*
X1185738Y25664D01*
X1185706Y25706D01*
X1184035Y26988D01*
X1182088Y27794D01*
X1180000Y28069D01*
X1177912Y27794D01*
X1175965Y26988D01*
X1174294Y25706D01*
X1173240Y24331D01*
X1172765Y24219D01*
X1172235D01*
X1171760Y24331D01*
X1170706Y25706D01*
X1169035Y26988D01*
X1167088Y27794D01*
X1165000Y28069D01*
X1162912Y27794D01*
X1160965Y26988D01*
X1159294Y25706D01*
X1158012Y24035D01*
X1157206Y22088D01*
X1156931Y20000D01*
X1157206Y17912D01*
X1158012Y15965D01*
X1159294Y14294D01*
X1160669Y13240D01*
X1160781Y12765D01*
Y12235D01*
X1160669Y11760D01*
X1159294Y10706D01*
X1158012Y9035D01*
X1157206Y7088D01*
X1156931Y5000D01*
X1157206Y2912D01*
X1158012Y966D01*
X1159294Y-706D01*
X1160669Y-1760D01*
X1160781Y-2235D01*
Y-2765D01*
X1160669Y-3240D01*
X1159294Y-4294D01*
X1158012Y-5965D01*
X1157206Y-7912D01*
X1156931Y-10000D01*
X1157206Y-12088D01*
X1158012Y-14035D01*
X1159294Y-15706D01*
X1160669Y-16760D01*
X1160781Y-17235D01*
Y-17765D01*
X1160669Y-18240D01*
X1159294Y-19294D01*
X1158012Y-20965D01*
X1157206Y-22912D01*
X1156931Y-25000D01*
X1157206Y-27088D01*
X1158012Y-29035D01*
X1159294Y-30706D01*
X1160965Y-31988D01*
X1162912Y-32794D01*
X1165000Y-33069D01*
X1167088Y-32794D01*
X1169035Y-31988D01*
X1170706Y-30706D01*
X1171760Y-29331D01*
X1172235Y-29219D01*
X1172765D01*
X1173240Y-29331D01*
X1174294Y-30706D01*
X1175965Y-31988D01*
X1177912Y-32794D01*
X1180000Y-33069D01*
X1182088Y-32794D01*
X1184035Y-31988D01*
X1185706Y-30706D01*
X1186760Y-29331D01*
X1187235Y-29219D01*
X1187765D01*
X1188240Y-29331D01*
X1189294Y-30706D01*
X1190965Y-31988D01*
X1192912Y-32794D01*
X1195000Y-33069D01*
X1197088Y-32794D01*
X1199035Y-31988D01*
X1200706Y-30706D01*
X1201988Y-29035D01*
X1202794Y-27088D01*
X1203069Y-25000D01*
X1202794Y-22912D01*
X1201988Y-20965D01*
X1200706Y-19294D01*
X1199035Y-18012D01*
X1197088Y-17206D01*
X1195000Y-16931D01*
X1192912Y-17206D01*
X1190965Y-18012D01*
X1189294Y-19294D01*
X1188240Y-20669D01*
X1187765Y-20781D01*
X1187235D01*
X1186760Y-20669D01*
X1185706Y-19294D01*
X1184331Y-18240D01*
X1184219Y-17765D01*
Y-17235D01*
X1184331Y-16760D01*
X1185706Y-15706D01*
X1186988Y-14035D01*
X1187794Y-12088D01*
X1188069Y-10000D01*
X1187794Y-7912D01*
X1186988Y-5965D01*
X1185706Y-4294D01*
X1184331Y-3240D01*
X1184219Y-2765D01*
Y-2235D01*
X1184331Y-1760D01*
X1185706Y-706D01*
X1186988Y966D01*
X1187794Y2912D01*
X1188069Y5000D01*
X1187794Y7088D01*
X1186988Y9035D01*
X1185706Y10706D01*
X1184331Y11760D01*
X1184219Y12235D01*
Y12765D01*
X1184331Y13240D01*
X1185706Y14294D01*
X1186988Y15965D01*
X1187794Y17912D01*
X1187935Y18980D01*
X1189262Y19336D01*
X1189294Y19294D01*
X1190965Y18012D01*
X1192912Y17206D01*
X1195000Y16931D01*
X1197088Y17206D01*
X1199035Y18012D01*
X1200706Y19294D01*
X1201988Y20965D01*
X1202794Y22912D01*
X1203069Y25000D01*
X1202794Y27088D01*
X1201988Y29035D01*
X1200706Y30706D01*
X1199035Y31988D01*
X1197088Y32794D01*
X1195000Y33069D01*
D02*
G37*
G36*
X990000Y63069D02*
X987912Y62794D01*
X985965Y61988D01*
X984294Y60706D01*
X983012Y59035D01*
X982206Y57088D01*
X981931Y55000D01*
X982206Y52912D01*
X982597Y51967D01*
X982884Y50897D01*
X981950Y50396D01*
X980965Y49988D01*
X979294Y48706D01*
X978012Y47035D01*
X977206Y45088D01*
X976931Y43000D01*
X977206Y40912D01*
X978012Y38965D01*
X979294Y37294D01*
X980965Y36012D01*
X982912Y35206D01*
X985000Y34931D01*
X987088Y35206D01*
X989035Y36012D01*
X990706Y37294D01*
X991988Y38965D01*
X992794Y40912D01*
X993069Y43000D01*
X992794Y45088D01*
X992403Y46033D01*
X992116Y47103D01*
X993050Y47604D01*
X994035Y48012D01*
X995706Y49294D01*
X996988Y50965D01*
X997794Y52912D01*
X998069Y55000D01*
X997794Y57088D01*
X996988Y59035D01*
X995706Y60706D01*
X994035Y61988D01*
X992088Y62794D01*
X990000Y63069D01*
D02*
G37*
G36*
X1090000D02*
X1087912Y62794D01*
X1085965Y61988D01*
X1084294Y60706D01*
X1083012Y59035D01*
X1082206Y57088D01*
X1081931Y55000D01*
X1082206Y52912D01*
X1082597Y51967D01*
X1082884Y50897D01*
X1081950Y50396D01*
X1080965Y49988D01*
X1079294Y48706D01*
X1078012Y47035D01*
X1077206Y45088D01*
X1076931Y43000D01*
X1077206Y40912D01*
X1078012Y38965D01*
X1079294Y37294D01*
X1080965Y36012D01*
X1082912Y35206D01*
X1085000Y34931D01*
X1087088Y35206D01*
X1089035Y36012D01*
X1090706Y37294D01*
X1091988Y38965D01*
X1092794Y40912D01*
X1093069Y43000D01*
X1092794Y45088D01*
X1092403Y46033D01*
X1092116Y47103D01*
X1093050Y47604D01*
X1094035Y48012D01*
X1095706Y49294D01*
X1096988Y50965D01*
X1097794Y52912D01*
X1098069Y55000D01*
X1097794Y57088D01*
X1096988Y59035D01*
X1095706Y60706D01*
X1094035Y61988D01*
X1092088Y62794D01*
X1090000Y63069D01*
D02*
G37*
G36*
X1070000D02*
X1067912Y62794D01*
X1065965Y61988D01*
X1064294Y60706D01*
X1063012Y59035D01*
X1062206Y57088D01*
X1061931Y55000D01*
X1062206Y52912D01*
X1062597Y51967D01*
X1062884Y50897D01*
X1061950Y50396D01*
X1060965Y49988D01*
X1059294Y48706D01*
X1058012Y47035D01*
X1057206Y45088D01*
X1056931Y43000D01*
X1057206Y40912D01*
X1058012Y38965D01*
X1059294Y37294D01*
X1060965Y36012D01*
X1062912Y35206D01*
X1065000Y34931D01*
X1067088Y35206D01*
X1069035Y36012D01*
X1070706Y37294D01*
X1071988Y38965D01*
X1072794Y40912D01*
X1073069Y43000D01*
X1072794Y45088D01*
X1072403Y46033D01*
X1072116Y47103D01*
X1073050Y47604D01*
X1074035Y48012D01*
X1075706Y49294D01*
X1076988Y50965D01*
X1077794Y52912D01*
X1078069Y55000D01*
X1077794Y57088D01*
X1076988Y59035D01*
X1075706Y60706D01*
X1074035Y61988D01*
X1072088Y62794D01*
X1070000Y63069D01*
D02*
G37*
G36*
X1125000Y51069D02*
X1122912Y50794D01*
X1120965Y49988D01*
X1119294Y48706D01*
X1118012Y47035D01*
X1117206Y45088D01*
X1116931Y43000D01*
X1117206Y40912D01*
X1118012Y38965D01*
X1119294Y37294D01*
X1120965Y36012D01*
X1122912Y35206D01*
X1125000Y34931D01*
X1127088Y35206D01*
X1129035Y36012D01*
X1130706Y37294D01*
X1131988Y38965D01*
X1132794Y40912D01*
X1133069Y43000D01*
X1132794Y45088D01*
X1131988Y47035D01*
X1130706Y48706D01*
X1129035Y49988D01*
X1127088Y50794D01*
X1125000Y51069D01*
D02*
G37*
G36*
X1110000Y63069D02*
X1107912Y62794D01*
X1105965Y61988D01*
X1104294Y60706D01*
X1103012Y59035D01*
X1102206Y57088D01*
X1101931Y55000D01*
X1102206Y52912D01*
X1102597Y51967D01*
X1102884Y50897D01*
X1101950Y50396D01*
X1100965Y49988D01*
X1099294Y48706D01*
X1098012Y47035D01*
X1097206Y45088D01*
X1096931Y43000D01*
X1097206Y40912D01*
X1098012Y38965D01*
X1099294Y37294D01*
X1100965Y36012D01*
X1102912Y35206D01*
X1105000Y34931D01*
X1107088Y35206D01*
X1109035Y36012D01*
X1110706Y37294D01*
X1111988Y38965D01*
X1112794Y40912D01*
X1113069Y43000D01*
X1112794Y45088D01*
X1112403Y46033D01*
X1112116Y47103D01*
X1113050Y47604D01*
X1114035Y48012D01*
X1115706Y49294D01*
X1116988Y50965D01*
X1117794Y52912D01*
X1118069Y55000D01*
X1117794Y57088D01*
X1116988Y59035D01*
X1115706Y60706D01*
X1114035Y61988D01*
X1112088Y62794D01*
X1110000Y63069D01*
D02*
G37*
G36*
X1050000D02*
X1047912Y62794D01*
X1045965Y61988D01*
X1044294Y60706D01*
X1043012Y59035D01*
X1042206Y57088D01*
X1041931Y55000D01*
X1042206Y52912D01*
X1042597Y51967D01*
X1042884Y50897D01*
X1041950Y50396D01*
X1040965Y49988D01*
X1039294Y48706D01*
X1038012Y47035D01*
X1037206Y45088D01*
X1036931Y43000D01*
X1037206Y40912D01*
X1038012Y38965D01*
X1039294Y37294D01*
X1040965Y36012D01*
X1042912Y35206D01*
X1045000Y34931D01*
X1047088Y35206D01*
X1049035Y36012D01*
X1050706Y37294D01*
X1051988Y38965D01*
X1052794Y40912D01*
X1053069Y43000D01*
X1052794Y45088D01*
X1052403Y46033D01*
X1052116Y47103D01*
X1053050Y47604D01*
X1054035Y48012D01*
X1055706Y49294D01*
X1056988Y50965D01*
X1057794Y52912D01*
X1058069Y55000D01*
X1057794Y57088D01*
X1056988Y59035D01*
X1055706Y60706D01*
X1054035Y61988D01*
X1052088Y62794D01*
X1050000Y63069D01*
D02*
G37*
G36*
X1030000D02*
X1027912Y62794D01*
X1025965Y61988D01*
X1024294Y60706D01*
X1023012Y59035D01*
X1022206Y57088D01*
X1021931Y55000D01*
X1022206Y52912D01*
X1022597Y51967D01*
X1022884Y50897D01*
X1021950Y50396D01*
X1020965Y49988D01*
X1019294Y48706D01*
X1018012Y47035D01*
X1017206Y45088D01*
X1016931Y43000D01*
X1017206Y40912D01*
X1018012Y38965D01*
X1019294Y37294D01*
X1020965Y36012D01*
X1022912Y35206D01*
X1025000Y34931D01*
X1027088Y35206D01*
X1029035Y36012D01*
X1030706Y37294D01*
X1031988Y38965D01*
X1032794Y40912D01*
X1033069Y43000D01*
X1032794Y45088D01*
X1032403Y46033D01*
X1032116Y47103D01*
X1033050Y47604D01*
X1034035Y48012D01*
X1035706Y49294D01*
X1036988Y50965D01*
X1037794Y52912D01*
X1038069Y55000D01*
X1037794Y57088D01*
X1036988Y59035D01*
X1035706Y60706D01*
X1034035Y61988D01*
X1032088Y62794D01*
X1030000Y63069D01*
D02*
G37*
G36*
X1010000D02*
X1007912Y62794D01*
X1005965Y61988D01*
X1004294Y60706D01*
X1003012Y59035D01*
X1002206Y57088D01*
X1001931Y55000D01*
X1002206Y52912D01*
X1002597Y51967D01*
X1002884Y50897D01*
X1001950Y50396D01*
X1000965Y49988D01*
X999294Y48706D01*
X998012Y47035D01*
X997206Y45088D01*
X996931Y43000D01*
X997206Y40912D01*
X998012Y38965D01*
X999294Y37294D01*
X1000965Y36012D01*
X1002912Y35206D01*
X1005000Y34931D01*
X1007088Y35206D01*
X1009035Y36012D01*
X1010706Y37294D01*
X1011988Y38965D01*
X1012794Y40912D01*
X1013069Y43000D01*
X1012794Y45088D01*
X1012403Y46033D01*
X1012116Y47103D01*
X1013050Y47604D01*
X1014035Y48012D01*
X1015706Y49294D01*
X1016988Y50965D01*
X1017794Y52912D01*
X1018069Y55000D01*
X1017794Y57088D01*
X1016988Y59035D01*
X1015706Y60706D01*
X1014035Y61988D01*
X1012088Y62794D01*
X1010000Y63069D01*
D02*
G37*
%LPD*%
G36*
X1360000Y-145000D02*
Y-255000D01*
X1355000Y-260000D01*
X1245000D01*
X1240000Y-255000D01*
Y-145000D01*
X1245000Y-140000D01*
X1355000D01*
X1360000Y-145000D01*
D02*
G37*
G36*
X1060000Y-140000D02*
X1060000Y-255000D01*
X1055000Y-260000D01*
X945000D01*
X940000Y-255000D01*
X940000Y-140000D01*
X945000Y-135000D01*
X1055000Y-135000D01*
X1060000Y-140000D01*
D02*
G37*
G36*
X1360000Y255000D02*
Y145000D01*
X1355000Y140000D01*
X1245000D01*
X1240000Y145000D01*
Y255000D01*
X1245000Y260000D01*
X1355000D01*
X1360000Y255000D01*
D02*
G37*
%LPC*%
G36*
X137100Y-107006D02*
X133277Y-107382D01*
X129602Y-108497D01*
X126214Y-110308D01*
X123245Y-112745D01*
X120808Y-115714D01*
X118997Y-119101D01*
X117882Y-122777D01*
X117506Y-126600D01*
X117882Y-130423D01*
X118997Y-134098D01*
X120808Y-137486D01*
X123245Y-140455D01*
X126214Y-142892D01*
X129602Y-144703D01*
X133277Y-145818D01*
X137100Y-146194D01*
X140923Y-145818D01*
X144598Y-144703D01*
X147986Y-142892D01*
X150955Y-140455D01*
X153392Y-137486D01*
X155203Y-134098D01*
X156318Y-130423D01*
X156694Y-126600D01*
X156318Y-122777D01*
X155203Y-119101D01*
X153392Y-115714D01*
X150955Y-112745D01*
X147986Y-110308D01*
X144598Y-108497D01*
X140923Y-107382D01*
X137100Y-107006D01*
D02*
G37*
G36*
Y146194D02*
X133277Y145818D01*
X129602Y144703D01*
X126214Y142892D01*
X123245Y140455D01*
X120808Y137486D01*
X118997Y134098D01*
X117882Y130423D01*
X117506Y126600D01*
X117882Y122777D01*
X118997Y119102D01*
X120808Y115714D01*
X123245Y112745D01*
X126214Y110308D01*
X129602Y108497D01*
X133277Y107382D01*
X137100Y107006D01*
X140923Y107382D01*
X144598Y108497D01*
X147986Y110308D01*
X150955Y112745D01*
X153392Y115714D01*
X155203Y119102D01*
X156318Y122777D01*
X156694Y126600D01*
X156318Y130423D01*
X155203Y134098D01*
X153392Y137486D01*
X150955Y140455D01*
X147986Y142892D01*
X144598Y144703D01*
X140923Y145818D01*
X137100Y146194D01*
D02*
G37*
%LPD*%
D77*
X25235Y24048D02*
X26187D01*
X28091Y23096D01*
X29044Y22143D01*
X29996Y20239D01*
Y16430D01*
X29044Y14526D01*
X28091Y13574D01*
X26187Y12622D01*
X24283D01*
X22378Y13574D01*
X19522Y15478D01*
X10000Y25000D01*
Y11669D01*
D79*
X1385000Y-160000D02*
D03*
Y125000D02*
D03*
X25000Y-65000D02*
D03*
Y65000D02*
D03*
Y275000D02*
D03*
Y-275000D02*
D03*
X1375000D02*
D03*
Y275000D02*
D03*
D81*
X877500Y200000D02*
D03*
Y190000D02*
D03*
X862500D02*
D03*
Y200000D02*
D03*
X870000Y195000D02*
D03*
D82*
X1312700Y-238100D02*
D03*
X1287300D02*
D03*
X1261900D02*
D03*
X1338100D02*
D03*
Y-212700D02*
D03*
Y-187300D02*
D03*
Y-161900D02*
D03*
X1312700D02*
D03*
X1287300D02*
D03*
X1261900D02*
D03*
Y-187300D02*
D03*
Y-212700D02*
D03*
X1012700Y-238100D02*
D03*
X987300D02*
D03*
X961900D02*
D03*
X1038100D02*
D03*
Y-212700D02*
D03*
Y-187300D02*
D03*
Y-161900D02*
D03*
X1012700D02*
D03*
X987300D02*
D03*
X961900D02*
D03*
Y-187300D02*
D03*
Y-212700D02*
D03*
X112700Y161900D02*
D03*
X87300D02*
D03*
X61900D02*
D03*
X138100D02*
D03*
Y187300D02*
D03*
Y212700D02*
D03*
Y238100D02*
D03*
X112700D02*
D03*
X87300D02*
D03*
X61900D02*
D03*
Y212700D02*
D03*
Y187300D02*
D03*
X112700Y-238100D02*
D03*
X87300D02*
D03*
X61900D02*
D03*
X138100D02*
D03*
Y-212700D02*
D03*
Y-187300D02*
D03*
Y-161900D02*
D03*
X112700D02*
D03*
X87300D02*
D03*
X61900D02*
D03*
Y-187300D02*
D03*
Y-212700D02*
D03*
X1312700Y161900D02*
D03*
X1287300D02*
D03*
X1261900D02*
D03*
X1338100D02*
D03*
Y187300D02*
D03*
Y212700D02*
D03*
Y238100D02*
D03*
X1312700D02*
D03*
X1287300D02*
D03*
X1261900D02*
D03*
Y212700D02*
D03*
Y187300D02*
D03*
D83*
X645750Y-280500D02*
D03*
X574250D02*
D03*
D85*
X859000Y-59000D02*
D03*
X588000Y140000D02*
D03*
X597000Y223000D02*
D03*
Y207000D02*
D03*
X570000Y237000D02*
D03*
X562000D02*
D03*
X570000Y193000D02*
D03*
X562000D02*
D03*
X529750Y184250D02*
D03*
X521750D02*
D03*
X529750Y230250D02*
D03*
X521750D02*
D03*
X732000Y63000D02*
D03*
X635000Y54000D02*
D03*
X645000Y65000D02*
D03*
X680000Y170000D02*
D03*
X661000Y244000D02*
D03*
X585000Y260000D02*
D03*
X610000D02*
D03*
X537000Y145000D02*
D03*
Y153000D02*
D03*
X663000Y77000D02*
D03*
X850000Y-131000D02*
D03*
X752000Y45000D02*
D03*
X673000Y-147000D02*
D03*
X1287000Y116000D02*
D03*
X1215000Y250000D02*
D03*
X1245000Y275000D02*
D03*
X1000000Y290000D02*
D03*
X750000Y-16000D02*
D03*
X710000Y-23000D02*
D03*
X645000Y-255000D02*
D03*
Y-265000D02*
D03*
X565000Y-144000D02*
D03*
X571000Y-159000D02*
D03*
X565000Y-225000D02*
D03*
X636000Y-57000D02*
D03*
Y-25000D02*
D03*
X565000Y-125000D02*
D03*
X566000Y-97000D02*
D03*
X911000Y260000D02*
D03*
X905000Y215000D02*
D03*
X864000Y237000D02*
D03*
X656000Y101000D02*
D03*
Y111000D02*
D03*
X844000Y48000D02*
D03*
X856000Y71000D02*
D03*
X895000Y58000D02*
D03*
X785000Y175000D02*
D03*
X595000Y99000D02*
D03*
X636000Y-2000D02*
D03*
Y7000D02*
D03*
X375000Y235000D02*
D03*
X401000D02*
D03*
Y255000D02*
D03*
X375000D02*
D03*
X388000Y235000D02*
D03*
X375000Y245000D02*
D03*
X388000D02*
D03*
X401000D02*
D03*
X388000Y255000D02*
D03*
X375000Y189000D02*
D03*
X401000D02*
D03*
Y209000D02*
D03*
X375000D02*
D03*
X388000Y189000D02*
D03*
X375000Y199000D02*
D03*
X388000D02*
D03*
X401000D02*
D03*
X388000Y209000D02*
D03*
X375000Y143000D02*
D03*
X401000D02*
D03*
Y163000D02*
D03*
X375000D02*
D03*
X388000Y143000D02*
D03*
X375000Y153000D02*
D03*
X388000D02*
D03*
X401000D02*
D03*
X388000Y163000D02*
D03*
X375000Y97000D02*
D03*
X401000D02*
D03*
Y117000D02*
D03*
X375000D02*
D03*
X388000Y97000D02*
D03*
X375000Y107000D02*
D03*
X388000D02*
D03*
X401000D02*
D03*
X388000Y117000D02*
D03*
X375000Y51000D02*
D03*
X401000D02*
D03*
Y71000D02*
D03*
X375000D02*
D03*
X388000Y51000D02*
D03*
X375000Y61000D02*
D03*
X388000D02*
D03*
X401000D02*
D03*
X388000Y71000D02*
D03*
X375000Y5000D02*
D03*
X401000D02*
D03*
Y25000D02*
D03*
X375000D02*
D03*
X388000Y5000D02*
D03*
X375000Y15000D02*
D03*
X388000D02*
D03*
X401000D02*
D03*
X388000Y25000D02*
D03*
X375000Y-41000D02*
D03*
X401000D02*
D03*
Y-21000D02*
D03*
X375000D02*
D03*
X388000Y-41000D02*
D03*
X375000Y-31000D02*
D03*
X388000D02*
D03*
X401000D02*
D03*
X388000Y-21000D02*
D03*
X375000Y-87000D02*
D03*
X401000D02*
D03*
Y-67000D02*
D03*
X375000D02*
D03*
X388000Y-87000D02*
D03*
X375000Y-77000D02*
D03*
X388000D02*
D03*
X401000D02*
D03*
X388000Y-67000D02*
D03*
X375000Y-133000D02*
D03*
X401000D02*
D03*
Y-113000D02*
D03*
X375000D02*
D03*
X388000Y-133000D02*
D03*
X375000Y-123000D02*
D03*
X388000D02*
D03*
X401000D02*
D03*
X388000Y-113000D02*
D03*
X375000Y-179000D02*
D03*
X401000D02*
D03*
Y-159000D02*
D03*
X375000D02*
D03*
X388000Y-179000D02*
D03*
X375000Y-169000D02*
D03*
X388000D02*
D03*
X401000D02*
D03*
X388000Y-159000D02*
D03*
X375000Y-225000D02*
D03*
X401000D02*
D03*
Y-205000D02*
D03*
X375000D02*
D03*
X388000Y-225000D02*
D03*
X375000Y-215000D02*
D03*
X388000D02*
D03*
X401000D02*
D03*
X388000Y-205000D02*
D03*
Y-251000D02*
D03*
X401000Y-261000D02*
D03*
X388000D02*
D03*
X375000D02*
D03*
X388000Y-271000D02*
D03*
X375000Y-251000D02*
D03*
X401000D02*
D03*
Y-271000D02*
D03*
X375000D02*
D03*
X530000Y-44000D02*
D03*
X821000Y-67000D02*
D03*
X714000Y-85000D02*
D03*
X707000Y0D02*
D03*
X706000Y23000D02*
D03*
X750000Y1000D02*
D03*
X529750Y92250D02*
D03*
X521750D02*
D03*
X529750Y46250D02*
D03*
X521750D02*
D03*
X529750Y250D02*
D03*
X521750D02*
D03*
Y-45750D02*
D03*
X529750Y-91750D02*
D03*
X521750D02*
D03*
X529750Y-137750D02*
D03*
X521750D02*
D03*
X529750Y-183750D02*
D03*
X521750D02*
D03*
X529750Y-229750D02*
D03*
X521750D02*
D03*
X537000Y-261000D02*
D03*
Y-269000D02*
D03*
X897000Y-64000D02*
D03*
X637000Y-130000D02*
D03*
X570000Y-265000D02*
D03*
Y-255000D02*
D03*
X787000Y-113000D02*
D03*
X645000Y-156000D02*
D03*
X597000Y-266000D02*
D03*
X623000D02*
D03*
X625000Y-243000D02*
D03*
X632000Y-233000D02*
D03*
X619000Y-221000D02*
D03*
X597000Y-213000D02*
D03*
X650000Y-225000D02*
D03*
Y-205000D02*
D03*
X660000Y-215000D02*
D03*
X610000Y-186000D02*
D03*
X628000D02*
D03*
Y-168000D02*
D03*
X610000D02*
D03*
X637000Y-146000D02*
D03*
X781000Y228000D02*
D03*
X832000Y245000D02*
D03*
X808000D02*
D03*
Y276000D02*
D03*
X832000D02*
D03*
Y268000D02*
D03*
X808000D02*
D03*
X843000Y140000D02*
D03*
Y155000D02*
D03*
Y148000D02*
D03*
X925000Y141000D02*
D03*
Y148000D02*
D03*
Y155000D02*
D03*
Y163000D02*
D03*
Y174000D02*
D03*
Y185000D02*
D03*
X872000Y167000D02*
D03*
X877000Y162000D02*
D03*
X545000Y-283000D02*
D03*
X537000D02*
D03*
X914000Y-89000D02*
D03*
X889000Y-91000D02*
D03*
Y-77000D02*
D03*
X897000Y-53000D02*
D03*
X847000Y-51000D02*
D03*
X839000Y-242000D02*
D03*
X854000Y-189000D02*
D03*
X823000Y-157000D02*
D03*
X930000Y-134000D02*
D03*
X886000Y-158000D02*
D03*
X933000Y-162000D02*
D03*
Y-170000D02*
D03*
X745000Y263000D02*
D03*
Y271000D02*
D03*
X686000Y233000D02*
D03*
Y223000D02*
D03*
X696000Y190000D02*
D03*
Y198000D02*
D03*
X860000Y220000D02*
D03*
X915000Y195000D02*
D03*
X897000Y155000D02*
D03*
Y142000D02*
D03*
X853000Y216000D02*
D03*
X840000Y195000D02*
D03*
X820000D02*
D03*
X801000D02*
D03*
X856000Y268000D02*
D03*
Y276000D02*
D03*
X890000Y210000D02*
D03*
X834000Y82000D02*
D03*
X822000Y67000D02*
D03*
X897000Y-43000D02*
D03*
X687000Y-37000D02*
D03*
X689000Y4000D02*
D03*
X596000Y-146000D02*
D03*
X772000Y237000D02*
D03*
X606000Y-56000D02*
D03*
Y-36000D02*
D03*
Y-16000D02*
D03*
Y4000D02*
D03*
Y24000D02*
D03*
X596000Y47000D02*
D03*
X726000Y222000D02*
D03*
X780000Y55000D02*
D03*
X753000Y198000D02*
D03*
X746000Y167000D02*
D03*
X597000Y-130000D02*
D03*
X800000Y143000D02*
D03*
X711000Y-111000D02*
D03*
X737000D02*
D03*
X837000Y-3000D02*
D03*
X930000Y116000D02*
D03*
X858000Y95000D02*
D03*
X818000Y26000D02*
D03*
X905000Y115000D02*
D03*
X744000Y151000D02*
D03*
X752000Y-128000D02*
D03*
X775000Y-143000D02*
D03*
X595000Y74000D02*
D03*
X677000Y136000D02*
D03*
X688000Y125000D02*
D03*
X635000Y150000D02*
D03*
X660000D02*
D03*
X635000Y175000D02*
D03*
X584000Y165000D02*
D03*
X607000Y135000D02*
D03*
X639000Y205000D02*
D03*
Y255000D02*
D03*
X610000Y211000D02*
D03*
X789000Y105000D02*
D03*
D86*
X163000Y-285000D02*
D03*
Y-270000D02*
D03*
Y-255000D02*
D03*
Y255000D02*
D03*
Y270000D02*
D03*
Y285000D02*
D03*
X213000Y-146500D02*
D03*
X191000D02*
D03*
X213000Y146500D02*
D03*
X191000D02*
D03*
X930000Y-200000D02*
D03*
X905000D02*
D03*
X1100000Y165000D02*
D03*
X1070000D02*
D03*
X1085000D02*
D03*
X257000Y285000D02*
D03*
X1175000Y-111000D02*
D03*
X1055000Y-200000D02*
D03*
Y-225000D02*
D03*
Y-250000D02*
D03*
X1035000Y-140000D02*
D03*
X1010000D02*
D03*
X960000D02*
D03*
X985000D02*
D03*
X257000Y-285000D02*
D03*
Y-270000D02*
D03*
Y-255000D02*
D03*
Y270000D02*
D03*
Y255000D02*
D03*
X1160000Y150000D02*
D03*
X1231000Y163000D02*
D03*
X1215000Y-290000D02*
D03*
X1200000D02*
D03*
X1230000D02*
D03*
X1085000D02*
D03*
X1100000D02*
D03*
X1070000D02*
D03*
X1180000Y-160000D02*
D03*
X860000Y-285000D02*
D03*
X988000Y-290000D02*
D03*
X1054000Y-150000D02*
D03*
Y-163000D02*
D03*
Y-175000D02*
D03*
X1068000Y95000D02*
D03*
X1070000Y130000D02*
D03*
X1095000D02*
D03*
X1125000Y102000D02*
D03*
X1159000D02*
D03*
M02*
