G04 Layer_Physical_Order=4*
G04 Layer_Color=16711680*
%FSLAX44Y44*%
%MOMM*%
G71*
G01*
G75*
%ADD18R,1.1000X1.4000*%
%ADD52R,0.8000X1.6000*%
%ADD53R,2.1000X3.0000*%
%ADD76C,0.5000*%
%ADD77C,0.3000*%
%ADD78C,0.2000*%
%ADD79C,0.8000*%
%ADD80C,0.6000*%
%ADD82C,0.4000*%
%ADD84C,7.0000*%
%ADD85C,6.0000*%
%ADD86C,0.5000*%
%ADD87C,2.0000*%
%ADD88C,1.9000*%
%ADD89C,3.5000*%
%ADD90C,0.5500*%
%ADD91C,0.8000*%
G36*
X815000Y-170000D02*
X815000Y-240000D01*
X825000Y-250000D01*
X825000Y-296941D01*
X675000D01*
X675000Y-170000D01*
X685000Y-160000D01*
X805000Y-160000D01*
X815000Y-170000D01*
D02*
G37*
G36*
X1356131Y296572D02*
X1362158Y295373D01*
X1367976Y293398D01*
X1373487Y290680D01*
X1378596Y287267D01*
X1383215Y283215D01*
X1387267Y278596D01*
X1390680Y273487D01*
X1393398Y267976D01*
X1395373Y262158D01*
X1396572Y256131D01*
X1396966Y250122D01*
X1396941Y250000D01*
Y-250000D01*
X1396966Y-250122D01*
X1396572Y-256131D01*
X1395373Y-262158D01*
X1393398Y-267976D01*
X1390680Y-273487D01*
X1387267Y-278596D01*
X1383215Y-283215D01*
X1378596Y-287267D01*
X1373487Y-290680D01*
X1367976Y-293398D01*
X1362158Y-295373D01*
X1356131Y-296572D01*
X1350122Y-296966D01*
X1350000Y-296941D01*
X834000D01*
X834000Y-244000D01*
X825000Y-235000D01*
Y-165000D01*
X810000Y-150000D01*
X680000D01*
X665000Y-165000D01*
X665000Y-296941D01*
X200000D01*
Y-245000D01*
X175000Y-220000D01*
Y220000D01*
X200000Y245000D01*
Y296941D01*
X1350000D01*
X1350122Y296966D01*
X1356131Y296572D01*
D02*
G37*
G36*
X50000Y296941D02*
X189998D01*
X189998Y249998D01*
X180000Y240000D01*
X160000Y220000D01*
Y-220000D01*
X180000Y-240000D01*
X190000Y-250000D01*
X190000Y-296941D01*
X50000D01*
X49878Y-296966D01*
X43869Y-296572D01*
X37842Y-295373D01*
X32024Y-293398D01*
X26513Y-290680D01*
X21404Y-287267D01*
X16785Y-283215D01*
X12733Y-278596D01*
X9320Y-273487D01*
X6602Y-267976D01*
X4627Y-262158D01*
X3428Y-256131D01*
X3034Y-250122D01*
X3059Y-250000D01*
Y-50000D01*
X40000D01*
Y50000D01*
X3059D01*
Y250000D01*
X3034Y250122D01*
X3428Y256131D01*
X4627Y262158D01*
X6602Y267976D01*
X9320Y273487D01*
X12733Y278596D01*
X16785Y283215D01*
X21404Y287267D01*
X26513Y290680D01*
X32024Y293398D01*
X37842Y295373D01*
X43869Y296572D01*
X49878Y296966D01*
X50000Y296941D01*
D02*
G37*
%LPC*%
G36*
X808000Y-207157D02*
X806147Y-207526D01*
X804576Y-208575D01*
X803526Y-210147D01*
X803157Y-212000D01*
X803526Y-213853D01*
X804576Y-215425D01*
X806147Y-216474D01*
X808000Y-216843D01*
X809853Y-216474D01*
X811425Y-215425D01*
X812474Y-213853D01*
X812843Y-212000D01*
X812474Y-210147D01*
X811425Y-208575D01*
X809853Y-207526D01*
X808000Y-207157D01*
D02*
G37*
G36*
X783000Y-216157D02*
X781147Y-216526D01*
X779576Y-217575D01*
X778706Y-218877D01*
X778239Y-218979D01*
X777761D01*
X777294Y-218877D01*
X776425Y-217575D01*
X774853Y-216526D01*
X773000Y-216157D01*
X771147Y-216526D01*
X769575Y-217575D01*
X768526Y-219147D01*
X768157Y-221000D01*
X768526Y-222853D01*
X769575Y-224424D01*
X771147Y-225474D01*
X773000Y-225843D01*
X774853Y-225474D01*
X776425Y-224424D01*
X777294Y-223123D01*
X777761Y-223021D01*
X778239D01*
X778706Y-223123D01*
X779576Y-224424D01*
X781147Y-225474D01*
X783000Y-225843D01*
X784853Y-225474D01*
X786425Y-224424D01*
X787474Y-222853D01*
X787843Y-221000D01*
X787474Y-219147D01*
X786425Y-217575D01*
X784853Y-216526D01*
X783000Y-216157D01*
D02*
G37*
G36*
X750250Y-212000D02*
X735250D01*
Y-230000D01*
X736431D01*
Y-235500D01*
X734000D01*
X734000Y-235500D01*
X733500D01*
Y-235500D01*
X732730Y-235500D01*
X731069D01*
Y-230000D01*
X732750D01*
Y-212000D01*
X717750D01*
Y-230000D01*
X723931D01*
Y-235500D01*
X721500D01*
Y-255500D01*
X721500Y-255500D01*
X721457Y-256752D01*
X720526Y-258147D01*
X720157Y-260000D01*
X720526Y-261853D01*
X721431Y-263209D01*
Y-269000D01*
X721703Y-270366D01*
X722477Y-271523D01*
X725477Y-274523D01*
X726634Y-275297D01*
X728000Y-275569D01*
X753000D01*
X754366Y-275297D01*
X755523Y-274523D01*
X758523Y-271523D01*
X759297Y-270366D01*
X759569Y-269000D01*
Y-262707D01*
X760839Y-262322D01*
X761575Y-263424D01*
X763147Y-264474D01*
X765000Y-264843D01*
X766853Y-264474D01*
X768425Y-263424D01*
X769474Y-261853D01*
X769843Y-260000D01*
X769474Y-258147D01*
X768569Y-256791D01*
Y-255500D01*
X771000D01*
Y-235500D01*
X759000D01*
X759000Y-235500D01*
X758500D01*
Y-235500D01*
X757730Y-235500D01*
X746500D01*
Y-235500D01*
X746000D01*
Y-235500D01*
X743569D01*
Y-230000D01*
X750250D01*
Y-212000D01*
D02*
G37*
G36*
X594000Y-101157D02*
X592147Y-101526D01*
X590575Y-102575D01*
X590331Y-102941D01*
X561000D01*
X561000Y-102941D01*
X559829Y-103174D01*
X558837Y-103837D01*
X558837Y-103837D01*
X555837Y-106837D01*
X555174Y-107830D01*
X554941Y-109000D01*
X554941Y-109000D01*
Y-207733D01*
X554733Y-207941D01*
X495669D01*
X495425Y-207575D01*
X493853Y-206526D01*
X492000Y-206157D01*
X490147Y-206526D01*
X488576Y-207575D01*
X487526Y-209147D01*
X487157Y-211000D01*
X487526Y-212853D01*
X488576Y-214425D01*
X490147Y-215474D01*
X492000Y-215843D01*
X493853Y-215474D01*
X495425Y-214425D01*
X495669Y-214059D01*
X556000D01*
X556000Y-214059D01*
X557170Y-213826D01*
X558163Y-213163D01*
X560163Y-211163D01*
X560163Y-211163D01*
X560826Y-210170D01*
X561059Y-209000D01*
X561059Y-209000D01*
Y-110267D01*
X562267Y-109059D01*
X590331D01*
X590575Y-109424D01*
X591877Y-110294D01*
X591979Y-110761D01*
Y-111239D01*
X591877Y-111706D01*
X590575Y-112575D01*
X590331Y-112941D01*
X569000D01*
X569000Y-112941D01*
X567830Y-113174D01*
X566837Y-113837D01*
X566837Y-113837D01*
X563837Y-116837D01*
X563174Y-117830D01*
X562941Y-119000D01*
X562941Y-119000D01*
Y-248733D01*
X562733Y-248941D01*
X497000D01*
X497000Y-248941D01*
X495830Y-249174D01*
X494837Y-249837D01*
X492431Y-252243D01*
X492000Y-252157D01*
X490147Y-252526D01*
X488576Y-253575D01*
X487526Y-255147D01*
X487157Y-257000D01*
X487526Y-258853D01*
X488576Y-260424D01*
X490147Y-261474D01*
X492000Y-261843D01*
X493853Y-261474D01*
X495425Y-260424D01*
X496474Y-258853D01*
X496843Y-257000D01*
X496757Y-256569D01*
X498267Y-255059D01*
X564000D01*
X564000Y-255059D01*
X565171Y-254826D01*
X566163Y-254163D01*
X568163Y-252163D01*
X568826Y-251171D01*
X569059Y-250000D01*
Y-120267D01*
X570267Y-119059D01*
X590331D01*
X590575Y-119425D01*
X592147Y-120474D01*
X594000Y-120843D01*
X595853Y-120474D01*
X597425Y-119425D01*
X598474Y-117853D01*
X598843Y-116000D01*
X598474Y-114147D01*
X597425Y-112575D01*
X596123Y-111706D01*
X596021Y-111239D01*
Y-110761D01*
X596123Y-110294D01*
X597425Y-109424D01*
X598474Y-107853D01*
X598843Y-106000D01*
X598474Y-104147D01*
X597425Y-102575D01*
X595853Y-101526D01*
X594000Y-101157D01*
D02*
G37*
G36*
X451500Y-93931D02*
X333000D01*
X330912Y-94206D01*
X328965Y-95012D01*
X327294Y-96294D01*
X317294Y-106294D01*
X316012Y-107965D01*
X315206Y-109912D01*
X314931Y-112000D01*
X315206Y-114088D01*
X316012Y-116034D01*
X317294Y-117706D01*
X318965Y-118988D01*
X320912Y-119794D01*
X323000Y-120069D01*
X325088Y-119794D01*
X327034Y-118988D01*
X328706Y-117706D01*
X336342Y-110069D01*
X451500D01*
X453588Y-109794D01*
X455535Y-108988D01*
X457206Y-107706D01*
X458488Y-106034D01*
X459294Y-104088D01*
X459569Y-102000D01*
X459294Y-99912D01*
X458488Y-97965D01*
X457206Y-96294D01*
X455535Y-95012D01*
X453588Y-94206D01*
X451500Y-93931D01*
D02*
G37*
G36*
Y-47931D02*
X333000D01*
X330912Y-48206D01*
X328965Y-49012D01*
X327294Y-50294D01*
X317294Y-60294D01*
X316012Y-61965D01*
X315206Y-63912D01*
X314931Y-66000D01*
X315206Y-68088D01*
X316012Y-70034D01*
X317294Y-71706D01*
X318965Y-72988D01*
X320912Y-73794D01*
X323000Y-74069D01*
X325088Y-73794D01*
X327034Y-72988D01*
X328706Y-71706D01*
X336342Y-64069D01*
X451500D01*
X453588Y-63794D01*
X455535Y-62988D01*
X457206Y-61706D01*
X458488Y-60034D01*
X459294Y-58088D01*
X459569Y-56000D01*
X459294Y-53912D01*
X458488Y-51965D01*
X457206Y-50294D01*
X455535Y-49012D01*
X453588Y-48206D01*
X451500Y-47931D01*
D02*
G37*
G36*
X213000Y-36931D02*
X210912Y-37206D01*
X208965Y-38012D01*
X207294Y-39294D01*
X206012Y-40965D01*
X205206Y-42912D01*
X204931Y-45000D01*
X205206Y-47088D01*
X206012Y-49035D01*
X207294Y-50706D01*
X208965Y-51988D01*
X210912Y-52794D01*
X213000Y-53069D01*
X215088Y-52794D01*
X217034Y-51988D01*
X217597Y-51556D01*
X291284D01*
X293444Y-53716D01*
Y-82000D01*
X293667Y-83697D01*
X294322Y-85278D01*
X295364Y-86636D01*
X300364Y-91636D01*
X301722Y-92678D01*
X303303Y-93333D01*
X305000Y-93556D01*
X312403D01*
X312966Y-93988D01*
X314912Y-94794D01*
X317000Y-95069D01*
X319088Y-94794D01*
X321035Y-93988D01*
X322706Y-92706D01*
X323988Y-91034D01*
X324794Y-89088D01*
X325069Y-87000D01*
X324794Y-84912D01*
X323988Y-82965D01*
X322706Y-81294D01*
X321035Y-80012D01*
X319088Y-79206D01*
X317000Y-78931D01*
X314912Y-79206D01*
X312966Y-80012D01*
X312403Y-80444D01*
X307716D01*
X306556Y-79284D01*
Y-51000D01*
X306333Y-49303D01*
X305678Y-47722D01*
X304636Y-46364D01*
X298636Y-40364D01*
X297278Y-39322D01*
X295697Y-38667D01*
X294000Y-38444D01*
X217597D01*
X217034Y-38012D01*
X215088Y-37206D01*
X213000Y-36931D01*
D02*
G37*
G36*
X704000Y-98157D02*
X702147Y-98526D01*
X700575Y-99575D01*
X699526Y-101147D01*
X699157Y-103000D01*
X699526Y-104853D01*
X700575Y-106425D01*
X700941Y-106669D01*
Y-131733D01*
X699733Y-132941D01*
X592000D01*
X590830Y-133174D01*
X589837Y-133837D01*
X586837Y-136837D01*
X586174Y-137830D01*
X585941Y-139000D01*
X585941Y-139000D01*
Y-163331D01*
X585791Y-163431D01*
X584209D01*
X582853Y-162526D01*
X581000Y-162157D01*
X579147Y-162526D01*
X577791Y-163431D01*
X577000D01*
X575634Y-163703D01*
X574477Y-164477D01*
X572477Y-166477D01*
X571703Y-167634D01*
X571431Y-169000D01*
Y-242000D01*
X571703Y-243366D01*
X572477Y-244523D01*
X575477Y-247523D01*
X576634Y-248297D01*
X578000Y-248569D01*
X578791D01*
X580147Y-249474D01*
X582000Y-249843D01*
X583853Y-249474D01*
X585209Y-248569D01*
X586791D01*
X588147Y-249474D01*
X590000Y-249843D01*
X591853Y-249474D01*
X593424Y-248424D01*
X594474Y-246853D01*
X594843Y-245000D01*
X594474Y-243147D01*
X593424Y-241575D01*
X591853Y-240526D01*
X590000Y-240157D01*
X588147Y-240526D01*
X586791Y-241431D01*
X585209D01*
X583853Y-240526D01*
X582000Y-240157D01*
X580147Y-240526D01*
X579719Y-240812D01*
X578569Y-240053D01*
Y-172499D01*
X579839Y-171612D01*
X581000Y-171843D01*
X582853Y-171474D01*
X584209Y-170569D01*
X585791D01*
X587147Y-171474D01*
X589000Y-171843D01*
X590853Y-171474D01*
X592425Y-170425D01*
X593474Y-168853D01*
X593843Y-167000D01*
X593474Y-165147D01*
X592425Y-163575D01*
X592059Y-163331D01*
Y-140267D01*
X593267Y-139059D01*
X701000D01*
X701000Y-139059D01*
X702170Y-138826D01*
X703163Y-138163D01*
X706163Y-135163D01*
X706826Y-134171D01*
X707059Y-133000D01*
Y-106669D01*
X707424Y-106425D01*
X708474Y-104853D01*
X708843Y-103000D01*
X708474Y-101147D01*
X707424Y-99575D01*
X705853Y-98526D01*
X704000Y-98157D01*
D02*
G37*
G36*
X451500Y-139931D02*
X333000D01*
X330912Y-140206D01*
X328965Y-141012D01*
X327294Y-142294D01*
X317294Y-152294D01*
X316012Y-153966D01*
X315206Y-155912D01*
X314931Y-158000D01*
X315206Y-160088D01*
X316012Y-162034D01*
X317294Y-163706D01*
X318965Y-164988D01*
X320912Y-165794D01*
X323000Y-166069D01*
X325088Y-165794D01*
X327034Y-164988D01*
X328706Y-163706D01*
X336342Y-156069D01*
X451500D01*
X453588Y-155794D01*
X455535Y-154988D01*
X457206Y-153706D01*
X458488Y-152035D01*
X459294Y-150088D01*
X459569Y-148000D01*
X459294Y-145912D01*
X458488Y-143966D01*
X457206Y-142294D01*
X455535Y-141012D01*
X453588Y-140206D01*
X451500Y-139931D01*
D02*
G37*
G36*
X604000Y-141157D02*
X602147Y-141526D01*
X600575Y-142575D01*
X599526Y-144147D01*
X599157Y-146000D01*
X599526Y-147853D01*
X600575Y-149424D01*
X600941Y-149669D01*
Y-173733D01*
X599733Y-174941D01*
X587000D01*
X585830Y-175174D01*
X584837Y-175837D01*
X582837Y-177837D01*
X582174Y-178829D01*
X581941Y-180000D01*
X581941Y-180000D01*
Y-191331D01*
X581575Y-191575D01*
X580526Y-193147D01*
X580157Y-195000D01*
X580526Y-196853D01*
X581575Y-198424D01*
X583147Y-199474D01*
X585000Y-199843D01*
X586853Y-199474D01*
X588425Y-198424D01*
X589474Y-196853D01*
X589843Y-195000D01*
X589474Y-193147D01*
X588425Y-191575D01*
X588059Y-191331D01*
Y-181267D01*
X588267Y-181059D01*
X601000D01*
X601000Y-181059D01*
X602170Y-180826D01*
X603163Y-180163D01*
X606163Y-177163D01*
X606826Y-176171D01*
X607059Y-175000D01*
Y-149669D01*
X607425Y-149424D01*
X608474Y-147853D01*
X608843Y-146000D01*
X608474Y-144147D01*
X607425Y-142575D01*
X605853Y-141526D01*
X604000Y-141157D01*
D02*
G37*
G36*
X623000D02*
X621147Y-141526D01*
X619576Y-142575D01*
X618424D01*
X616853Y-141526D01*
X615000Y-141157D01*
X613147Y-141526D01*
X611575Y-142575D01*
X610526Y-144147D01*
X610157Y-146000D01*
X610526Y-147853D01*
X611575Y-149424D01*
X613147Y-150474D01*
X613941Y-150632D01*
Y-195733D01*
X602837Y-206837D01*
X602174Y-207829D01*
X601941Y-209000D01*
X601941Y-209000D01*
Y-220368D01*
X601147Y-220526D01*
X599575Y-221576D01*
X598526Y-223147D01*
X598157Y-225000D01*
X598526Y-226853D01*
X599575Y-228425D01*
X601147Y-229474D01*
X603000Y-229843D01*
X604853Y-229474D01*
X606424Y-228425D01*
X607575D01*
X609147Y-229474D01*
X611000Y-229843D01*
X612853Y-229474D01*
X614425Y-228425D01*
X615474Y-226853D01*
X615843Y-225000D01*
X615474Y-223147D01*
X614425Y-221576D01*
X612853Y-220526D01*
X612059Y-220368D01*
Y-212267D01*
X623163Y-201163D01*
X623163Y-201163D01*
X623826Y-200170D01*
X624059Y-199000D01*
Y-150632D01*
X624853Y-150474D01*
X626425Y-149424D01*
X627474Y-147853D01*
X627843Y-146000D01*
X627474Y-144147D01*
X626425Y-142575D01*
X624853Y-141526D01*
X623000Y-141157D01*
D02*
G37*
G36*
X847000Y-22157D02*
X845147Y-22526D01*
X843576Y-23575D01*
X842526Y-25147D01*
X842157Y-27000D01*
X842526Y-28853D01*
X843576Y-30424D01*
Y-31576D01*
X842526Y-33147D01*
X842157Y-35000D01*
X842526Y-36853D01*
X843576Y-38424D01*
Y-38907D01*
X842576Y-39575D01*
X841526Y-41147D01*
X841157Y-43000D01*
X841526Y-44853D01*
X842576Y-46424D01*
X844147Y-47474D01*
X846000Y-47843D01*
X847853Y-47474D01*
X849425Y-46424D01*
X850474Y-44853D01*
X850843Y-43000D01*
X850474Y-41147D01*
X849907Y-40298D01*
X850119Y-38628D01*
X850425Y-38425D01*
X851474Y-36853D01*
X851843Y-35000D01*
X851474Y-33147D01*
X850425Y-31576D01*
Y-30424D01*
X851474Y-28853D01*
X851843Y-27000D01*
X851474Y-25147D01*
X850425Y-23575D01*
X848853Y-22526D01*
X847000Y-22157D01*
D02*
G37*
G36*
X595000Y219843D02*
X593147Y219474D01*
X591575Y218425D01*
X590526Y216853D01*
X590157Y215000D01*
X590526Y213147D01*
X591575Y211575D01*
X592877Y210706D01*
X592979Y210239D01*
Y209761D01*
X592877Y209294D01*
X591575Y208425D01*
X590526Y206853D01*
X590157Y205000D01*
X590526Y203147D01*
X591575Y201575D01*
X593147Y200526D01*
X595000Y200157D01*
X596853Y200526D01*
X598425Y201575D01*
X598669Y201941D01*
X619733D01*
X619941Y201733D01*
Y-44000D01*
X619941Y-44000D01*
X620174Y-45170D01*
X620837Y-46163D01*
X623837Y-49163D01*
X623837Y-49163D01*
X624829Y-49826D01*
X626000Y-50059D01*
X626000Y-50059D01*
X632331D01*
X632575Y-50425D01*
X634147Y-51474D01*
X636000Y-51843D01*
X637853Y-51474D01*
X639425Y-50425D01*
X639669Y-50059D01*
X661733D01*
X669837Y-58163D01*
X669837Y-58163D01*
X670829Y-58826D01*
X672000Y-59059D01*
X683331D01*
X683575Y-59425D01*
X685147Y-60474D01*
X687000Y-60843D01*
X688853Y-60474D01*
X690425Y-59425D01*
X691474Y-57853D01*
X691843Y-56000D01*
X691474Y-54147D01*
X690425Y-52575D01*
X689123Y-51706D01*
X689021Y-51239D01*
Y-50761D01*
X689123Y-50294D01*
X690425Y-49425D01*
X691474Y-47853D01*
X691843Y-46000D01*
X691474Y-44147D01*
X690425Y-42575D01*
X688853Y-41526D01*
X687000Y-41157D01*
X685147Y-41526D01*
X683575Y-42575D01*
X683331Y-42941D01*
X674267D01*
X668163Y-36837D01*
X667170Y-36174D01*
X666000Y-35941D01*
X666000Y-35941D01*
X639669D01*
X639425Y-35575D01*
X637853Y-34526D01*
X636000Y-34157D01*
X634147Y-34526D01*
X632575Y-35575D01*
X631390Y-35064D01*
X631059Y-34733D01*
Y213000D01*
X630826Y214170D01*
X630163Y215163D01*
X628163Y217163D01*
X627170Y217826D01*
X626000Y218059D01*
X626000Y218059D01*
X598669D01*
X598425Y218425D01*
X596853Y219474D01*
X595000Y219843D01*
D02*
G37*
G36*
X492000Y-22157D02*
X490147Y-22526D01*
X488576Y-23575D01*
X487526Y-25147D01*
X487157Y-27000D01*
X487526Y-28853D01*
X488576Y-30425D01*
X490147Y-31474D01*
X492000Y-31843D01*
X493853Y-31474D01*
X495425Y-30425D01*
X495669Y-30059D01*
X530733D01*
X530882Y-30208D01*
Y-34000D01*
X530882Y-34000D01*
X531115Y-35170D01*
X531778Y-36163D01*
X533778Y-38163D01*
X533778Y-38163D01*
X534771Y-38826D01*
X535941Y-39059D01*
X590331D01*
X590575Y-39425D01*
X592147Y-40474D01*
X594000Y-40843D01*
X595853Y-40474D01*
X597425Y-39425D01*
X598474Y-37853D01*
X598843Y-36000D01*
X598474Y-34147D01*
X597425Y-32575D01*
X595853Y-31526D01*
X594000Y-31157D01*
X592147Y-31526D01*
X590575Y-32575D01*
X590331Y-32941D01*
X537208D01*
X537000Y-32733D01*
Y-28941D01*
X537000Y-28941D01*
X536767Y-27771D01*
X536104Y-26778D01*
X536104Y-26778D01*
X534163Y-24837D01*
X533171Y-24174D01*
X532000Y-23941D01*
X532000Y-23941D01*
X495669D01*
X495425Y-23575D01*
X493853Y-22526D01*
X492000Y-22157D01*
D02*
G37*
G36*
X600000Y-41157D02*
X598147Y-41526D01*
X596575Y-42575D01*
X596331Y-42941D01*
X537000D01*
X537000Y-42941D01*
X535830Y-43174D01*
X534837Y-43837D01*
X534837Y-43837D01*
X531837Y-46837D01*
X531174Y-47829D01*
X530941Y-49000D01*
X530941Y-49000D01*
Y-69733D01*
X530733Y-69941D01*
X495669D01*
X495425Y-69576D01*
X493853Y-68526D01*
X492000Y-68157D01*
X490147Y-68526D01*
X488576Y-69576D01*
X487526Y-71147D01*
X487157Y-73000D01*
X487526Y-74853D01*
X488576Y-76425D01*
X490147Y-77474D01*
X492000Y-77843D01*
X493853Y-77474D01*
X495425Y-76425D01*
X495669Y-76059D01*
X532000D01*
X532000Y-76059D01*
X533171Y-75826D01*
X534163Y-75163D01*
X536163Y-73163D01*
X536163Y-73163D01*
X536826Y-72171D01*
X537059Y-71000D01*
X537059Y-71000D01*
Y-50267D01*
X538267Y-49059D01*
X596331D01*
X596575Y-49425D01*
X598147Y-50474D01*
X600000Y-50843D01*
X601853Y-50474D01*
X603424Y-49425D01*
X604474Y-47853D01*
X604843Y-46000D01*
X604474Y-44147D01*
X603424Y-42575D01*
X601853Y-41526D01*
X600000Y-41157D01*
D02*
G37*
G36*
X594000Y-51157D02*
X592147Y-51526D01*
X590575Y-52575D01*
X590331Y-52941D01*
X546000D01*
X544829Y-53174D01*
X543837Y-53837D01*
X543837Y-53837D01*
X539837Y-57837D01*
X539174Y-58829D01*
X538941Y-60000D01*
X538941Y-60000D01*
Y-114733D01*
X537733Y-115941D01*
X495669D01*
X495425Y-115576D01*
X493853Y-114526D01*
X492000Y-114157D01*
X490147Y-114526D01*
X488576Y-115576D01*
X487526Y-117147D01*
X487157Y-119000D01*
X487526Y-120853D01*
X488576Y-122425D01*
X490147Y-123474D01*
X492000Y-123843D01*
X493853Y-123474D01*
X495425Y-122425D01*
X495669Y-122059D01*
X539000D01*
X539000Y-122059D01*
X540171Y-121826D01*
X541163Y-121163D01*
X544163Y-118163D01*
X544163Y-118163D01*
X544826Y-117170D01*
X545059Y-116000D01*
X545059Y-116000D01*
Y-61267D01*
X547267Y-59059D01*
X590331D01*
X590575Y-59425D01*
X592147Y-60474D01*
X594000Y-60843D01*
X595853Y-60474D01*
X597425Y-59425D01*
X598474Y-57853D01*
X598843Y-56000D01*
X598474Y-54147D01*
X597425Y-52575D01*
X595853Y-51526D01*
X594000Y-51157D01*
D02*
G37*
G36*
X600000Y-61157D02*
X598147Y-61526D01*
X596575Y-62575D01*
X596331Y-62941D01*
X553000D01*
X551829Y-63174D01*
X550837Y-63837D01*
X547837Y-66837D01*
X547174Y-67829D01*
X546941Y-69000D01*
X546941Y-69000D01*
Y-161733D01*
X546733Y-161941D01*
X495669D01*
X495425Y-161575D01*
X493853Y-160526D01*
X492000Y-160157D01*
X490147Y-160526D01*
X488576Y-161575D01*
X487526Y-163147D01*
X487157Y-165000D01*
X487526Y-166853D01*
X488576Y-168425D01*
X490147Y-169474D01*
X492000Y-169843D01*
X493853Y-169474D01*
X495425Y-168425D01*
X495669Y-168059D01*
X548000D01*
X548000Y-168059D01*
X549170Y-167826D01*
X550163Y-167163D01*
X552163Y-165163D01*
X552826Y-164170D01*
X553059Y-163000D01*
Y-70267D01*
X554267Y-69059D01*
X596331D01*
X596575Y-69425D01*
X598147Y-70474D01*
X600000Y-70843D01*
X601853Y-70474D01*
X603424Y-69425D01*
X604474Y-67853D01*
X604843Y-66000D01*
X604474Y-64147D01*
X603424Y-62575D01*
X601853Y-61526D01*
X600000Y-61157D01*
D02*
G37*
G36*
X808000Y-64157D02*
X806147Y-64526D01*
X804576Y-65575D01*
X803526Y-67147D01*
X803157Y-69000D01*
X803526Y-70853D01*
X804576Y-72425D01*
X806147Y-73474D01*
X808000Y-73843D01*
X809853Y-73474D01*
X811425Y-72425D01*
X812474Y-70853D01*
X812843Y-69000D01*
X812474Y-67147D01*
X811425Y-65575D01*
X809853Y-64526D01*
X808000Y-64157D01*
D02*
G37*
G36*
X889000Y-55157D02*
X887147Y-55526D01*
X885575Y-56575D01*
X884526Y-58147D01*
X884157Y-60000D01*
X884526Y-61853D01*
X885575Y-63425D01*
X887147Y-64474D01*
X889000Y-64843D01*
X890853Y-64474D01*
X892425Y-63425D01*
X893474Y-61853D01*
X893843Y-60000D01*
X893474Y-58147D01*
X892425Y-56575D01*
X890853Y-55526D01*
X889000Y-55157D01*
D02*
G37*
G36*
X859000Y-62157D02*
X857147Y-62526D01*
X855575Y-63575D01*
X854706Y-64877D01*
X854239Y-64979D01*
X853761D01*
X853294Y-64877D01*
X852425Y-63575D01*
X850853Y-62526D01*
X849000Y-62157D01*
X847147Y-62526D01*
X845575Y-63575D01*
X844706Y-64877D01*
X844239Y-64979D01*
X843761D01*
X843294Y-64877D01*
X842425Y-63575D01*
X840853Y-62526D01*
X839000Y-62157D01*
X837147Y-62526D01*
X835575Y-63575D01*
X834706Y-64877D01*
X834239Y-64979D01*
X833761D01*
X833294Y-64877D01*
X832424Y-63575D01*
X830853Y-62526D01*
X829000Y-62157D01*
X827147Y-62526D01*
X825575Y-63575D01*
X824526Y-65147D01*
X824157Y-67000D01*
X824526Y-68853D01*
X825575Y-70424D01*
X827147Y-71474D01*
X829000Y-71843D01*
X830853Y-71474D01*
X832424Y-70424D01*
X833294Y-69123D01*
X833761Y-69021D01*
X834239D01*
X834706Y-69123D01*
X835575Y-70424D01*
X837147Y-71474D01*
X839000Y-71843D01*
X840853Y-71474D01*
X842425Y-70424D01*
X843294Y-69123D01*
X843761Y-69021D01*
X844239D01*
X844706Y-69123D01*
X845575Y-70424D01*
X847147Y-71474D01*
X849000Y-71843D01*
X850853Y-71474D01*
X852425Y-70424D01*
X853294Y-69123D01*
X853761Y-69021D01*
X854239D01*
X854706Y-69123D01*
X855575Y-70424D01*
X857147Y-71474D01*
X859000Y-71843D01*
X860853Y-71474D01*
X862425Y-70424D01*
X863474Y-68853D01*
X863843Y-67000D01*
X863474Y-65147D01*
X862425Y-63575D01*
X860853Y-62526D01*
X859000Y-62157D01*
D02*
G37*
G36*
X575520Y-269068D02*
Y-279230D01*
X585682D01*
X585454Y-277498D01*
X584295Y-274700D01*
X582452Y-272298D01*
X580050Y-270455D01*
X577252Y-269296D01*
X575520Y-269068D01*
D02*
G37*
G36*
X572980Y-269068D02*
X571248Y-269296D01*
X568450Y-270455D01*
X566048Y-272298D01*
X564205Y-274700D01*
X563046Y-277498D01*
X562818Y-279230D01*
X572980D01*
Y-269068D01*
D02*
G37*
G36*
X647020Y-269068D02*
Y-279230D01*
X657182D01*
X656954Y-277498D01*
X655795Y-274700D01*
X653952Y-272298D01*
X651550Y-270455D01*
X648752Y-269296D01*
X647020Y-269068D01*
D02*
G37*
G36*
X644480Y-269068D02*
X642748Y-269296D01*
X639950Y-270455D01*
X637548Y-272298D01*
X635705Y-274700D01*
X634546Y-277498D01*
X634318Y-279230D01*
X644480D01*
Y-269068D01*
D02*
G37*
G36*
X900000Y-259896D02*
X896867Y-260309D01*
X893948Y-261518D01*
X891441Y-263442D01*
X889518Y-265948D01*
X888309Y-268867D01*
X887896Y-272000D01*
X888309Y-275133D01*
X889518Y-278052D01*
X891441Y-280558D01*
X893948Y-282482D01*
X896867Y-283691D01*
X900000Y-284104D01*
X903133Y-283691D01*
X906052Y-282482D01*
X908559Y-280558D01*
X910482Y-278052D01*
X911691Y-275133D01*
X912104Y-272000D01*
X911691Y-268867D01*
X910482Y-265948D01*
X908559Y-263442D01*
X906052Y-261518D01*
X903133Y-260309D01*
X900000Y-259896D01*
D02*
G37*
G36*
X657182Y-281770D02*
X647020D01*
Y-291932D01*
X648752Y-291704D01*
X651550Y-290545D01*
X653952Y-288702D01*
X655795Y-286300D01*
X656954Y-283502D01*
X657182Y-281770D01*
D02*
G37*
G36*
X572980Y-281770D02*
X562818D01*
X563046Y-283502D01*
X564205Y-286300D01*
X566048Y-288702D01*
X568450Y-290545D01*
X571248Y-291704D01*
X572980Y-291932D01*
Y-281770D01*
D02*
G37*
G36*
X585682D02*
X575520D01*
Y-291932D01*
X577252Y-291704D01*
X580050Y-290545D01*
X582452Y-288702D01*
X584295Y-286300D01*
X585454Y-283502D01*
X585682Y-281770D01*
D02*
G37*
G36*
X644480Y-281770D02*
X634318D01*
X634546Y-283502D01*
X635705Y-286300D01*
X637548Y-288702D01*
X639950Y-290545D01*
X642748Y-291704D01*
X644480Y-291932D01*
Y-281770D01*
D02*
G37*
G36*
X900000Y-209896D02*
X896867Y-210309D01*
X893948Y-211518D01*
X891441Y-213442D01*
X889518Y-215948D01*
X888309Y-218867D01*
X888299Y-218941D01*
X877669D01*
X877425Y-218575D01*
X875853Y-217526D01*
X874000Y-217157D01*
X872147Y-217526D01*
X870575Y-218575D01*
X869526Y-220147D01*
X869157Y-222000D01*
X869526Y-223853D01*
X870575Y-225424D01*
X872147Y-226474D01*
X874000Y-226843D01*
X875853Y-226474D01*
X877425Y-225424D01*
X877669Y-225059D01*
X888299D01*
X888309Y-225133D01*
X889518Y-228052D01*
X891441Y-230558D01*
X893948Y-232482D01*
X896867Y-233691D01*
X900000Y-234104D01*
X903133Y-233691D01*
X906052Y-232482D01*
X908559Y-230558D01*
X910482Y-228052D01*
X911691Y-225133D01*
X912104Y-222000D01*
X911691Y-218867D01*
X910482Y-215948D01*
X908559Y-213442D01*
X906052Y-211518D01*
X903133Y-210309D01*
X900000Y-209896D01*
D02*
G37*
G36*
X213000Y-66931D02*
X210912Y-67206D01*
X208965Y-68012D01*
X207294Y-69294D01*
X206012Y-70965D01*
X205206Y-72912D01*
X204931Y-75000D01*
X205206Y-77088D01*
X206012Y-79035D01*
X207294Y-80706D01*
X208965Y-81988D01*
X210912Y-82794D01*
X213000Y-83069D01*
X215088Y-82794D01*
X217034Y-81988D01*
X217597Y-81556D01*
X277284D01*
X278444Y-82716D01*
Y-110000D01*
X278667Y-111697D01*
X279322Y-113278D01*
X280364Y-114636D01*
X293444Y-127716D01*
Y-158000D01*
X293667Y-159697D01*
X294322Y-161278D01*
X295364Y-162636D01*
X309333Y-176605D01*
X309206Y-176912D01*
X308931Y-179000D01*
X309206Y-181088D01*
X310012Y-183034D01*
X311294Y-184706D01*
X312966Y-185988D01*
X314912Y-186794D01*
X317000Y-187069D01*
X319088Y-186794D01*
X321035Y-185988D01*
X322706Y-184706D01*
X323988Y-183034D01*
X324794Y-181088D01*
X325069Y-179000D01*
X324794Y-176912D01*
X323988Y-174965D01*
X323461Y-174279D01*
X323333Y-173303D01*
X322678Y-171722D01*
X321636Y-170364D01*
X306556Y-155284D01*
Y-125000D01*
X306333Y-123303D01*
X305678Y-121722D01*
X304636Y-120364D01*
X291556Y-107284D01*
Y-80000D01*
X291333Y-78303D01*
X290678Y-76722D01*
X289636Y-75364D01*
X284636Y-70364D01*
X283278Y-69322D01*
X281697Y-68667D01*
X280000Y-68444D01*
X217597D01*
X217034Y-68012D01*
X215088Y-67206D01*
X213000Y-66931D01*
D02*
G37*
G36*
X451500Y-185931D02*
X333000D01*
X330912Y-186206D01*
X328965Y-187012D01*
X327294Y-188294D01*
X317294Y-198294D01*
X316012Y-199965D01*
X315206Y-201912D01*
X314931Y-204000D01*
X315206Y-206088D01*
X316012Y-208034D01*
X317294Y-209706D01*
X318965Y-210988D01*
X320912Y-211794D01*
X323000Y-212069D01*
X325088Y-211794D01*
X327034Y-210988D01*
X328706Y-209706D01*
X336342Y-202069D01*
X451500D01*
X453588Y-201794D01*
X455535Y-200988D01*
X457206Y-199706D01*
X458488Y-198034D01*
X459294Y-196088D01*
X459569Y-194000D01*
X459294Y-191912D01*
X458488Y-189965D01*
X457206Y-188294D01*
X455535Y-187012D01*
X453588Y-186206D01*
X451500Y-185931D01*
D02*
G37*
G36*
Y-231931D02*
X333000D01*
X330912Y-232206D01*
X328965Y-233012D01*
X327294Y-234294D01*
X317294Y-244294D01*
X316012Y-245965D01*
X315206Y-247912D01*
X314931Y-250000D01*
X315206Y-252088D01*
X316012Y-254035D01*
X317294Y-255706D01*
X318965Y-256988D01*
X320912Y-257794D01*
X323000Y-258069D01*
X325088Y-257794D01*
X327034Y-256988D01*
X328706Y-255706D01*
X336342Y-248069D01*
X451500D01*
X453588Y-247794D01*
X455535Y-246988D01*
X457206Y-245706D01*
X458488Y-244035D01*
X459294Y-242088D01*
X459569Y-240000D01*
X459294Y-237912D01*
X458488Y-235965D01*
X457206Y-234294D01*
X455535Y-233012D01*
X453588Y-232206D01*
X451500Y-231931D01*
D02*
G37*
G36*
X213000Y-98883D02*
X210659Y-99348D01*
X208674Y-100674D01*
X207348Y-102659D01*
X206882Y-105000D01*
X207348Y-107341D01*
X208674Y-109326D01*
X210659Y-110652D01*
X213000Y-111117D01*
X215341Y-110652D01*
X216933Y-109588D01*
X256099D01*
X260412Y-113900D01*
Y-121232D01*
X260761Y-122988D01*
X261756Y-124477D01*
X277412Y-140133D01*
Y-164000D01*
X277761Y-165756D01*
X278756Y-167244D01*
X294412Y-182901D01*
Y-262000D01*
X294761Y-263756D01*
X295756Y-265244D01*
X298975Y-268463D01*
X299348Y-270341D01*
X300674Y-272326D01*
X302659Y-273652D01*
X305000Y-274118D01*
X307341Y-273652D01*
X309326Y-272326D01*
X310652Y-270341D01*
X311117Y-268000D01*
X310652Y-265659D01*
X309326Y-263674D01*
X307341Y-262348D01*
X305463Y-261975D01*
X303588Y-260100D01*
Y-181000D01*
X303239Y-179244D01*
X302244Y-177756D01*
X286588Y-162099D01*
Y-138232D01*
X286239Y-136476D01*
X285244Y-134988D01*
X269588Y-119332D01*
Y-112000D01*
X269239Y-110244D01*
X268244Y-108756D01*
X261244Y-101756D01*
X259756Y-100761D01*
X258000Y-100412D01*
X216933D01*
X215341Y-99348D01*
X213000Y-98883D01*
D02*
G37*
G36*
X250000Y-158642D02*
X244602Y-158995D01*
X239296Y-160051D01*
X234173Y-161790D01*
X229321Y-164182D01*
X224823Y-167188D01*
X220755Y-170755D01*
X217188Y-174823D01*
X214182Y-179321D01*
X211790Y-184173D01*
X210051Y-189296D01*
X208995Y-194602D01*
X208641Y-200000D01*
X208995Y-205398D01*
X210051Y-210704D01*
X211790Y-215827D01*
X214182Y-220679D01*
X217188Y-225177D01*
X220755Y-229245D01*
X224823Y-232812D01*
X229321Y-235818D01*
X234173Y-238210D01*
X239296Y-239949D01*
X244602Y-241005D01*
X250000Y-241359D01*
X255398Y-241005D01*
X260704Y-239949D01*
X265827Y-238210D01*
X270679Y-235818D01*
X275177Y-232812D01*
X279245Y-229245D01*
X282812Y-225177D01*
X285818Y-220679D01*
X288210Y-215827D01*
X289949Y-210704D01*
X291005Y-205398D01*
X291359Y-200000D01*
X291005Y-194602D01*
X289949Y-189296D01*
X288210Y-184173D01*
X285818Y-179321D01*
X282812Y-174823D01*
X279245Y-170755D01*
X275177Y-167188D01*
X270679Y-164182D01*
X265827Y-161790D01*
X260704Y-160051D01*
X255398Y-158995D01*
X250000Y-158642D01*
D02*
G37*
G36*
X492000Y23843D02*
X490147Y23474D01*
X488576Y22424D01*
X487526Y20853D01*
X487157Y19000D01*
X487526Y17147D01*
X488576Y15575D01*
X490147Y14526D01*
X492000Y14157D01*
X493853Y14526D01*
X495425Y15575D01*
X495669Y15941D01*
X537733D01*
X538941Y14733D01*
Y-24000D01*
X538941Y-24000D01*
X539174Y-25171D01*
X539837Y-26163D01*
X541837Y-28163D01*
X542830Y-28826D01*
X544000Y-29059D01*
X596331D01*
X596575Y-29425D01*
X598147Y-30474D01*
X600000Y-30843D01*
X601853Y-30474D01*
X603424Y-29425D01*
X604474Y-27853D01*
X604843Y-26000D01*
X604474Y-24147D01*
X603424Y-22575D01*
X601853Y-21526D01*
X600000Y-21157D01*
X598147Y-21526D01*
X596575Y-22575D01*
X596331Y-22941D01*
X545267D01*
X545059Y-22733D01*
Y16000D01*
X544826Y17170D01*
X544163Y18163D01*
X541163Y21163D01*
X540171Y21826D01*
X539000Y22059D01*
X539000Y22059D01*
X495669D01*
X495425Y22424D01*
X493853Y23474D01*
X492000Y23843D01*
D02*
G37*
G36*
X215000Y139843D02*
X213147Y139474D01*
X211575Y138425D01*
X210526Y136853D01*
X210157Y135000D01*
X210526Y133147D01*
X211575Y131575D01*
X213147Y130526D01*
X215000Y130157D01*
X216853Y130526D01*
X218425Y131575D01*
X219474Y133147D01*
X219843Y135000D01*
X219474Y136853D01*
X218425Y138425D01*
X216853Y139474D01*
X215000Y139843D01*
D02*
G37*
G36*
X785000Y162843D02*
X783147Y162474D01*
X781575Y161425D01*
X780526Y159853D01*
X780157Y158000D01*
X780526Y156147D01*
X781575Y154575D01*
X783147Y153526D01*
X785000Y153157D01*
X786853Y153526D01*
X788425Y154575D01*
X788669Y154941D01*
X795733D01*
X837837Y112837D01*
X837837Y112837D01*
X838829Y112174D01*
X840000Y111941D01*
X840000Y111941D01*
X874000D01*
X874000Y111941D01*
X875171Y112174D01*
X876163Y112837D01*
X878163Y114837D01*
X878826Y115829D01*
X879059Y117000D01*
Y125733D01*
X879267Y125941D01*
X916331D01*
X916575Y125575D01*
X918147Y124526D01*
X920000Y124157D01*
X921853Y124526D01*
X923425Y125575D01*
X924474Y127147D01*
X924843Y129000D01*
X924474Y130853D01*
X923425Y132425D01*
X921853Y133474D01*
X920000Y133843D01*
X918147Y133474D01*
X916575Y132425D01*
X916331Y132059D01*
X878000D01*
X876830Y131826D01*
X875837Y131163D01*
X873837Y129163D01*
X873174Y128170D01*
X872941Y127000D01*
X872941Y127000D01*
Y118267D01*
X872733Y118059D01*
X841267D01*
X799163Y160163D01*
X798170Y160826D01*
X797000Y161059D01*
X797000Y161059D01*
X788669D01*
X788425Y161425D01*
X786853Y162474D01*
X785000Y162843D01*
D02*
G37*
G36*
X230000Y139843D02*
X228147Y139474D01*
X226575Y138425D01*
X225526Y136853D01*
X225157Y135000D01*
X225526Y133147D01*
X226575Y131575D01*
X228147Y130526D01*
X230000Y130157D01*
X231853Y130526D01*
X233425Y131575D01*
X234474Y133147D01*
X234843Y135000D01*
X234474Y136853D01*
X233425Y138425D01*
X231853Y139474D01*
X230000Y139843D01*
D02*
G37*
G36*
X640000Y184843D02*
X638147Y184474D01*
X636575Y183425D01*
X635526Y181853D01*
X635157Y180000D01*
X635526Y178147D01*
X636575Y176575D01*
X638147Y175526D01*
X640000Y175157D01*
X641853Y175526D01*
X643425Y176575D01*
X644474Y178147D01*
X644843Y180000D01*
X644474Y181853D01*
X643425Y183425D01*
X641853Y184474D01*
X640000Y184843D01*
D02*
G37*
G36*
X1150000Y241359D02*
X1144602Y241005D01*
X1139296Y239949D01*
X1134173Y238210D01*
X1129321Y235818D01*
X1124822Y232812D01*
X1120755Y229245D01*
X1117188Y225177D01*
X1114183Y220679D01*
X1111790Y215827D01*
X1110051Y210704D01*
X1108995Y205398D01*
X1108642Y200000D01*
X1108995Y194602D01*
X1110051Y189296D01*
X1111790Y184173D01*
X1114183Y179321D01*
X1117188Y174823D01*
X1120755Y170755D01*
X1124822Y167188D01*
X1129321Y164182D01*
X1134173Y161790D01*
X1139296Y160051D01*
X1144602Y158995D01*
X1150000Y158642D01*
X1155398Y158995D01*
X1160704Y160051D01*
X1165827Y161790D01*
X1170679Y164182D01*
X1175178Y167188D01*
X1179245Y170755D01*
X1182812Y174823D01*
X1185818Y179321D01*
X1188210Y184173D01*
X1189949Y189296D01*
X1191005Y194602D01*
X1191359Y200000D01*
X1191005Y205398D01*
X1189949Y210704D01*
X1188210Y215827D01*
X1185818Y220679D01*
X1182812Y225177D01*
X1179245Y229245D01*
X1175178Y232812D01*
X1170679Y235818D01*
X1165827Y238210D01*
X1160704Y239949D01*
X1155398Y241005D01*
X1150000Y241359D01*
D02*
G37*
G36*
X1315000Y118069D02*
X1305000D01*
X1302912Y117794D01*
X1300966Y116988D01*
X1299294Y115706D01*
X1298012Y114035D01*
X1297206Y112088D01*
X1296931Y110000D01*
X1297206Y107912D01*
X1298012Y105965D01*
X1299294Y104294D01*
X1300966Y103012D01*
X1302912Y102206D01*
X1305000Y101931D01*
X1315000D01*
X1317088Y102206D01*
X1319034Y103012D01*
X1320706Y104294D01*
X1321988Y105965D01*
X1322794Y107912D01*
X1323069Y110000D01*
X1322794Y112088D01*
X1321988Y114035D01*
X1320706Y115706D01*
X1319034Y116988D01*
X1317088Y117794D01*
X1315000Y118069D01*
D02*
G37*
G36*
X317000Y105069D02*
X314912Y104794D01*
X312966Y103988D01*
X312403Y103556D01*
X305000D01*
X303303Y103333D01*
X301722Y102678D01*
X300364Y101636D01*
X295364Y96636D01*
X294322Y95278D01*
X293667Y93697D01*
X293444Y92000D01*
Y32716D01*
X282284Y21556D01*
X217597D01*
X217034Y21988D01*
X215088Y22794D01*
X213000Y23069D01*
X210912Y22794D01*
X208965Y21988D01*
X207294Y20706D01*
X206012Y19035D01*
X205206Y17088D01*
X204931Y15000D01*
X205206Y12912D01*
X206012Y10965D01*
X207294Y9294D01*
X208965Y8012D01*
X210912Y7206D01*
X213000Y6931D01*
X215088Y7206D01*
X217034Y8012D01*
X217597Y8444D01*
X285000D01*
X286697Y8667D01*
X288278Y9322D01*
X289636Y10364D01*
X304636Y25364D01*
X305678Y26722D01*
X306333Y28303D01*
X306556Y30000D01*
Y89284D01*
X307716Y90444D01*
X312403D01*
X312966Y90012D01*
X314912Y89206D01*
X317000Y88931D01*
X319088Y89206D01*
X321035Y90012D01*
X322706Y91294D01*
X323988Y92965D01*
X324794Y94912D01*
X325069Y97000D01*
X324794Y99088D01*
X323988Y101034D01*
X322706Y102706D01*
X321035Y103988D01*
X319088Y104794D01*
X317000Y105069D01*
D02*
G37*
G36*
X650000Y212060D02*
X643000D01*
X641173Y211820D01*
X639470Y211115D01*
X638008Y209992D01*
X636885Y208530D01*
X636180Y206827D01*
X635940Y205000D01*
X636180Y203173D01*
X636885Y201470D01*
X638008Y200008D01*
X639470Y198885D01*
X641173Y198180D01*
X643000Y197940D01*
X647076D01*
X647940Y197076D01*
Y110000D01*
X648180Y108173D01*
X648885Y106470D01*
X650008Y105008D01*
X651470Y103885D01*
X653173Y103180D01*
X655000Y102940D01*
X656827Y103180D01*
X658530Y103885D01*
X659993Y105008D01*
X661115Y106470D01*
X661820Y108173D01*
X662060Y110000D01*
Y200000D01*
X661820Y201827D01*
X661115Y203530D01*
X659993Y204992D01*
X654992Y209992D01*
X653530Y211115D01*
X651827Y211820D01*
X650000Y212060D01*
D02*
G37*
G36*
X451500Y136069D02*
X333000D01*
X330912Y135794D01*
X328965Y134988D01*
X327294Y133706D01*
X317294Y123706D01*
X316012Y122035D01*
X315206Y120088D01*
X314931Y118000D01*
X315206Y115912D01*
X316012Y113966D01*
X317294Y112294D01*
X318965Y111012D01*
X320912Y110206D01*
X323000Y109931D01*
X325088Y110206D01*
X327034Y111012D01*
X328706Y112294D01*
X336342Y119931D01*
X451500D01*
X453588Y120206D01*
X455535Y121012D01*
X457206Y122294D01*
X458488Y123966D01*
X459294Y125912D01*
X459569Y128000D01*
X459294Y130088D01*
X458488Y132035D01*
X457206Y133706D01*
X455535Y134988D01*
X453588Y135794D01*
X451500Y136069D01*
D02*
G37*
G36*
Y274069D02*
X333000D01*
X330912Y273794D01*
X328965Y272988D01*
X327294Y271706D01*
X317294Y261706D01*
X316012Y260035D01*
X315206Y258088D01*
X314931Y256000D01*
X315206Y253912D01*
X316012Y251966D01*
X317294Y250294D01*
X318965Y249012D01*
X320912Y248206D01*
X323000Y247931D01*
X325088Y248206D01*
X327034Y249012D01*
X328706Y250294D01*
X336342Y257931D01*
X451500D01*
X453588Y258206D01*
X455535Y259012D01*
X457206Y260294D01*
X458488Y261966D01*
X459294Y263912D01*
X459569Y266000D01*
X459294Y268088D01*
X458488Y270035D01*
X457206Y271706D01*
X455535Y272988D01*
X453588Y273794D01*
X451500Y274069D01*
D02*
G37*
G36*
X781000Y257843D02*
X779147Y257474D01*
X777575Y256425D01*
X776526Y254853D01*
X776157Y253000D01*
X776526Y251147D01*
X777575Y249576D01*
Y248424D01*
X776526Y246853D01*
X776157Y245000D01*
X776526Y243147D01*
X777575Y241576D01*
Y240424D01*
X776526Y238853D01*
X776157Y237000D01*
X776526Y235147D01*
X777575Y233575D01*
X779147Y232526D01*
X781000Y232157D01*
X782853Y232526D01*
X784425Y233575D01*
X785474Y235147D01*
X785843Y237000D01*
X785474Y238853D01*
X784425Y240424D01*
Y241576D01*
X785474Y243147D01*
X785843Y245000D01*
X785474Y246853D01*
X784425Y248424D01*
Y249576D01*
X785474Y251147D01*
X785843Y253000D01*
X785474Y254853D01*
X784425Y256425D01*
X782853Y257474D01*
X781000Y257843D01*
D02*
G37*
G36*
X720000Y276098D02*
X718049Y275710D01*
X716395Y274605D01*
X715290Y272951D01*
X714902Y271000D01*
Y263000D01*
X715290Y261049D01*
X716395Y259395D01*
X718049Y258290D01*
X720000Y257902D01*
X721951Y258290D01*
X723605Y259395D01*
X724710Y261049D01*
X725098Y263000D01*
Y271000D01*
X724710Y272951D01*
X723605Y274605D01*
X721951Y275710D01*
X720000Y276098D01*
D02*
G37*
G36*
X970000Y285808D02*
X968238Y285576D01*
X966596Y284896D01*
X965186Y283814D01*
X964104Y282404D01*
X963424Y280762D01*
X963192Y279000D01*
X963424Y277238D01*
X964104Y275596D01*
X964561Y275000D01*
X964104Y274404D01*
X963424Y272762D01*
X963192Y271000D01*
X963424Y269238D01*
X964104Y267596D01*
X965186Y266186D01*
X966277Y265348D01*
X965890Y264078D01*
X945000D01*
X945000Y264078D01*
X943439Y263768D01*
X942116Y262884D01*
X942116Y262884D01*
X938368Y259135D01*
X937098Y259662D01*
Y275000D01*
X936710Y276951D01*
X935605Y278605D01*
X933951Y279710D01*
X932000Y280098D01*
X924000D01*
X922049Y279710D01*
X920395Y278605D01*
X919290Y276951D01*
X918902Y275000D01*
X919290Y273049D01*
X920395Y271395D01*
X922049Y270290D01*
X924000Y269902D01*
X926902D01*
Y211112D01*
X925888Y210098D01*
X905000D01*
X903049Y209710D01*
X901395Y208605D01*
X896395Y203605D01*
X895290Y201951D01*
X894902Y200000D01*
Y187112D01*
X892888Y185098D01*
X868000D01*
X866049Y184710D01*
X864395Y183605D01*
X859395Y178605D01*
X858290Y176951D01*
X857902Y175000D01*
Y169000D01*
Y162000D01*
X858290Y160049D01*
X859395Y158395D01*
X861049Y157290D01*
X863000Y156902D01*
X864951Y157290D01*
X866605Y158395D01*
X867710Y160049D01*
X868098Y162000D01*
Y172888D01*
X870112Y174902D01*
X895000D01*
X896951Y175290D01*
X898605Y176395D01*
X903605Y181395D01*
X904710Y183049D01*
X905098Y185000D01*
Y197888D01*
X907112Y199902D01*
X928000D01*
X929951Y200290D01*
X931605Y201395D01*
X934652Y204442D01*
X935922Y203916D01*
X935921Y120000D01*
X935921Y120000D01*
X936232Y118440D01*
X936232Y118440D01*
X936232Y118439D01*
X937116Y117116D01*
X937116Y117116D01*
X942116Y112116D01*
X942116Y112116D01*
X942836Y111635D01*
X943439Y111232D01*
X945000Y110921D01*
X945000Y110921D01*
X1055000Y110922D01*
X1055001Y110922D01*
X1056561Y111232D01*
X1057884Y112116D01*
X1057884Y112116D01*
X1062885Y117116D01*
X1062885Y117116D01*
X1063769Y118440D01*
X1064079Y120000D01*
X1064079Y120000D01*
X1064079Y255000D01*
X1064079Y255000D01*
X1063768Y256561D01*
X1062884Y257884D01*
X1057884Y262884D01*
X1057883Y262884D01*
X1056560Y263768D01*
X1056560Y263768D01*
X1056560Y263768D01*
X1054999Y264078D01*
X1054999Y264078D01*
X974110Y264078D01*
X973723Y265348D01*
X974814Y266186D01*
X975896Y267596D01*
X976576Y269238D01*
X976808Y271000D01*
X976576Y272762D01*
X975896Y274404D01*
X975439Y275000D01*
X975896Y275596D01*
X976576Y277238D01*
X976808Y279000D01*
X976576Y280762D01*
X975896Y282404D01*
X974814Y283814D01*
X973404Y284896D01*
X971762Y285576D01*
X970000Y285808D01*
D02*
G37*
G36*
X1355000Y264078D02*
X1355000Y264078D01*
X1245000D01*
X1245000Y264078D01*
X1243439Y263768D01*
X1242116Y262884D01*
X1237116Y257884D01*
X1236232Y256561D01*
X1235922Y255000D01*
X1235922Y255000D01*
Y145000D01*
X1235922Y145000D01*
X1236232Y143439D01*
X1237116Y142116D01*
X1242116Y137116D01*
X1243439Y136232D01*
X1245000Y135922D01*
X1245000Y135922D01*
X1355000D01*
X1355000Y135922D01*
X1356561Y136232D01*
X1357884Y137116D01*
X1362884Y142116D01*
X1363768Y143439D01*
X1364078Y145000D01*
X1364078Y145000D01*
Y255000D01*
X1364078Y255000D01*
X1363768Y256561D01*
X1362884Y257884D01*
X1357884Y262884D01*
X1356561Y263768D01*
X1356302Y263819D01*
X1355000Y264078D01*
D02*
G37*
G36*
X451500Y228069D02*
X333000D01*
X330912Y227794D01*
X328965Y226988D01*
X327294Y225706D01*
X317294Y215706D01*
X316012Y214035D01*
X315206Y212088D01*
X314931Y210000D01*
X315206Y207912D01*
X316012Y205965D01*
X317294Y204294D01*
X318965Y203012D01*
X320912Y202206D01*
X323000Y201931D01*
X325088Y202206D01*
X327034Y203012D01*
X328706Y204294D01*
X336342Y211931D01*
X451500D01*
X453588Y212206D01*
X455535Y213012D01*
X457206Y214294D01*
X458488Y215965D01*
X459294Y217912D01*
X459569Y220000D01*
X459294Y222088D01*
X458488Y224035D01*
X457206Y225706D01*
X455535Y226988D01*
X453588Y227794D01*
X451500Y228069D01*
D02*
G37*
G36*
X745000Y203098D02*
X743049Y202710D01*
X741697Y201806D01*
X740424Y201425D01*
X738853Y202474D01*
X737000Y202843D01*
X735147Y202474D01*
X733576Y201425D01*
X732424D01*
X730853Y202474D01*
X729000Y202843D01*
X727147Y202474D01*
X725575Y201425D01*
X724425D01*
X722853Y202474D01*
X721000Y202843D01*
X719147Y202474D01*
X717576Y201425D01*
X716526Y199853D01*
X716157Y198000D01*
X716526Y196147D01*
X717576Y194576D01*
X717941Y194331D01*
Y152000D01*
X717941Y152000D01*
X718174Y150829D01*
X718837Y149837D01*
X785837Y82837D01*
X785837Y82837D01*
X786829Y82174D01*
X788000Y81941D01*
X797000D01*
X797000Y81941D01*
X798170Y82174D01*
X799163Y82837D01*
X803568Y87243D01*
X804000Y87157D01*
X805853Y87526D01*
X807424Y88575D01*
X808474Y90147D01*
X808843Y92000D01*
X808474Y93853D01*
X807424Y95424D01*
X805853Y96474D01*
X804000Y96843D01*
X802147Y96474D01*
X801787Y96234D01*
X800644Y96997D01*
X800843Y98000D01*
X800474Y99853D01*
X799425Y101425D01*
X797853Y102474D01*
X796000Y102843D01*
X794553Y102555D01*
X794361Y102661D01*
X793661Y103361D01*
X793555Y103553D01*
X793843Y105000D01*
X793757Y105431D01*
X795163Y106837D01*
X795163Y106837D01*
X795826Y107829D01*
X796059Y109000D01*
Y112000D01*
X796059Y112000D01*
X795826Y113170D01*
X795163Y114163D01*
X760059Y149267D01*
Y156331D01*
X760425Y156575D01*
X761474Y158147D01*
X761843Y160000D01*
X761474Y161853D01*
X760425Y163425D01*
X758853Y164474D01*
X757000Y164843D01*
X755147Y164474D01*
X753576Y163425D01*
X752526Y161853D01*
X752157Y160000D01*
X752526Y158147D01*
X753576Y156575D01*
X753941Y156331D01*
Y148000D01*
X753941Y148000D01*
X754174Y146829D01*
X754837Y145837D01*
X773669Y127005D01*
X773044Y125834D01*
X773000Y125843D01*
X771147Y125474D01*
X769575Y124425D01*
X768526Y122853D01*
X768448Y122462D01*
X767233Y122093D01*
X740059Y149267D01*
Y186109D01*
X741329Y186495D01*
X741395Y186395D01*
X743049Y185290D01*
X745000Y184902D01*
X746951Y185290D01*
X748605Y186395D01*
X749710Y188049D01*
X750098Y190000D01*
Y198000D01*
X749710Y199951D01*
X748605Y201605D01*
X746951Y202710D01*
X745000Y203098D01*
D02*
G37*
G36*
X856000Y241843D02*
X854147Y241474D01*
X852575Y240425D01*
X851526Y238853D01*
X851157Y237000D01*
X851526Y235147D01*
X852575Y233575D01*
X852941Y233331D01*
Y230000D01*
X852941Y230000D01*
X853174Y228829D01*
X853837Y227837D01*
X855837Y225837D01*
X856830Y225174D01*
X858000Y224941D01*
X863573D01*
X863954Y224537D01*
X864575Y223424D01*
X863526Y221853D01*
X863157Y220000D01*
X863526Y218147D01*
X864575Y216575D01*
X866147Y215526D01*
X868000Y215157D01*
X869853Y215526D01*
X871424Y216575D01*
X871772D01*
X872941Y215457D01*
Y213267D01*
X872733Y213059D01*
X852000D01*
X850829Y212826D01*
X849837Y212163D01*
X847837Y210163D01*
X847174Y209170D01*
X846941Y208000D01*
X846941Y208000D01*
Y131000D01*
X846941Y131000D01*
X847174Y129830D01*
X847837Y128837D01*
X849243Y127431D01*
X849157Y127000D01*
X849526Y125147D01*
X850575Y123575D01*
X852147Y122526D01*
X854000Y122157D01*
X855853Y122526D01*
X857424Y123575D01*
X858474Y125147D01*
X858843Y127000D01*
X858474Y128853D01*
X857424Y130425D01*
X855853Y131474D01*
X854000Y131843D01*
X853059Y132828D01*
Y206733D01*
X853267Y206941D01*
X874000D01*
X874000Y206941D01*
X875171Y207174D01*
X876163Y207837D01*
X878163Y209837D01*
X878826Y210830D01*
X879059Y212000D01*
Y216331D01*
X879425Y216575D01*
X880474Y218147D01*
X880843Y220000D01*
X880474Y221853D01*
X879425Y223424D01*
X877853Y224474D01*
X876000Y224843D01*
X874147Y224474D01*
X872576Y223424D01*
X872227D01*
X871059Y224543D01*
Y226000D01*
X870826Y227171D01*
X870163Y228163D01*
X868163Y230163D01*
X867170Y230826D01*
X866000Y231059D01*
X866000Y231059D01*
X859267D01*
X859059Y231267D01*
Y233331D01*
X859425Y233575D01*
X860474Y235147D01*
X860843Y237000D01*
X860474Y238853D01*
X859425Y240425D01*
X857853Y241474D01*
X856000Y241843D01*
D02*
G37*
G36*
X695000Y276098D02*
X693049Y275710D01*
X691395Y274605D01*
X690290Y272951D01*
X689902Y271000D01*
Y263000D01*
Y256000D01*
X689000D01*
Y236000D01*
X700230D01*
X701000Y236000D01*
X702270Y236000D01*
X704441D01*
Y230767D01*
X687837Y214163D01*
X687174Y213171D01*
X686941Y212000D01*
X686941Y212000D01*
Y147000D01*
X686941Y147000D01*
X687174Y145829D01*
X687837Y144837D01*
X732373Y100302D01*
Y98699D01*
X722837Y89163D01*
X708733Y75059D01*
X690669D01*
X690425Y75424D01*
X688853Y76474D01*
X687000Y76843D01*
X685147Y76474D01*
X683575Y75424D01*
X682526Y73853D01*
X682157Y72000D01*
X682526Y70147D01*
X683575Y68575D01*
X685147Y67526D01*
X687000Y67157D01*
X688853Y67526D01*
X690425Y68575D01*
X690669Y68941D01*
X710000D01*
X710000Y68941D01*
X711171Y69174D01*
X712163Y69837D01*
X725000Y82674D01*
X728243Y79432D01*
X728157Y79000D01*
X728526Y77147D01*
X729576Y75575D01*
X731147Y74526D01*
X733000Y74157D01*
X734853Y74526D01*
X736425Y75575D01*
X737474Y77147D01*
X737843Y79000D01*
X737474Y80853D01*
X736425Y82424D01*
X734853Y83474D01*
X733000Y83843D01*
X732569Y83757D01*
X729326Y87000D01*
X738163Y95837D01*
X738163Y95837D01*
X738826Y96829D01*
X739059Y98000D01*
Y101000D01*
X739059Y101000D01*
X738826Y102170D01*
X738163Y103163D01*
X738163Y103163D01*
X693059Y148267D01*
Y210733D01*
X709663Y227337D01*
X709663Y227337D01*
X710326Y228330D01*
X710559Y229500D01*
X710559Y229500D01*
Y235102D01*
X711457Y236000D01*
X713500Y236000D01*
X714770Y236000D01*
X716941D01*
Y222267D01*
X716733Y222059D01*
X709326D01*
X709326Y222059D01*
X708155Y221826D01*
X707163Y221163D01*
X707163Y221163D01*
X699837Y213837D01*
X699174Y212845D01*
X698941Y211674D01*
X698941Y211674D01*
Y147000D01*
X698941Y147000D01*
X699174Y145829D01*
X699837Y144837D01*
X775941Y68733D01*
Y64000D01*
X775941Y64000D01*
X776174Y62829D01*
X776837Y61837D01*
X786837Y51837D01*
X786837Y51837D01*
X787830Y51174D01*
X788229Y51095D01*
X788575Y50575D01*
X790147Y49526D01*
X792000Y49157D01*
X793853Y49526D01*
X795424Y50575D01*
X796474Y52147D01*
X796843Y54000D01*
X796474Y55853D01*
X795424Y57425D01*
X793853Y58474D01*
X792000Y58843D01*
X790147Y58474D01*
X789370Y57956D01*
X782059Y65267D01*
Y70000D01*
X782059Y70000D01*
X781826Y71171D01*
X781163Y72163D01*
X781163Y72163D01*
X705059Y148267D01*
Y210407D01*
X710593Y215941D01*
X718000D01*
X718000Y215941D01*
X719171Y216174D01*
X720163Y216837D01*
X722163Y218837D01*
X722826Y219830D01*
X723059Y221000D01*
Y235102D01*
X723957Y236000D01*
X726000Y236000D01*
X727270Y236000D01*
X729441D01*
Y214767D01*
X728733Y214059D01*
X712000D01*
X712000Y214059D01*
X710829Y213826D01*
X709837Y213163D01*
X709837Y213163D01*
X707837Y211163D01*
X707174Y210170D01*
X706941Y209000D01*
X706941Y209000D01*
Y150000D01*
X706941Y150000D01*
X707174Y148829D01*
X707837Y147837D01*
X780837Y74837D01*
X781829Y74174D01*
X783000Y73941D01*
X783000Y73941D01*
X785393D01*
X786072Y72671D01*
X785526Y71853D01*
X785157Y70000D01*
X785526Y68147D01*
X786575Y66575D01*
X788147Y65526D01*
X790000Y65157D01*
X790431Y65243D01*
X796087Y59587D01*
X796087Y59587D01*
X797079Y58924D01*
X798250Y58691D01*
X803569D01*
X804096Y57421D01*
X792061Y45387D01*
X790683Y45805D01*
X790474Y46853D01*
X789425Y48425D01*
X787853Y49474D01*
X786000Y49843D01*
X785569Y49757D01*
X783163Y52163D01*
X782170Y52826D01*
X781000Y53059D01*
X781000Y53059D01*
X775000D01*
X773829Y52826D01*
X772837Y52163D01*
X759837Y39163D01*
X759174Y38170D01*
X758941Y37000D01*
X758941Y37000D01*
Y30044D01*
X757768Y29558D01*
X723163Y64163D01*
X722170Y64826D01*
X721000Y65059D01*
X721000Y65059D01*
X719669D01*
X719425Y65425D01*
X717853Y66474D01*
X716000Y66843D01*
X714147Y66474D01*
X712575Y65425D01*
X711526Y63853D01*
X711304Y62741D01*
X710836Y62504D01*
X709939Y62387D01*
X708163Y64163D01*
X707170Y64826D01*
X706000Y65059D01*
X706000Y65059D01*
X645000D01*
X643829Y64826D01*
X642837Y64163D01*
X640837Y62163D01*
X640174Y61171D01*
X639941Y60000D01*
X639941Y60000D01*
Y-16000D01*
X639941Y-16000D01*
X640174Y-17171D01*
X640837Y-18163D01*
X645837Y-23163D01*
X646830Y-23826D01*
X648000Y-24059D01*
X648000Y-24059D01*
X694733D01*
X697941Y-27267D01*
Y-68733D01*
X694733Y-71941D01*
X658000D01*
X658000Y-71941D01*
X656829Y-72174D01*
X655837Y-72837D01*
X650837Y-77837D01*
X650174Y-78829D01*
X649941Y-80000D01*
X649941Y-80000D01*
Y-117733D01*
X647837Y-119837D01*
X647174Y-120829D01*
X647095Y-121229D01*
X646575Y-121575D01*
X645526Y-123147D01*
X645157Y-125000D01*
X645526Y-126853D01*
X646575Y-128425D01*
X648147Y-129474D01*
X650000Y-129843D01*
X651853Y-129474D01*
X653425Y-128425D01*
X654294Y-127123D01*
X654761Y-127021D01*
X655239D01*
X655706Y-127123D01*
X656575Y-128425D01*
X658147Y-129474D01*
X660000Y-129843D01*
X661853Y-129474D01*
X663425Y-128425D01*
X664474Y-126853D01*
X664843Y-125000D01*
X664474Y-123147D01*
X663425Y-121575D01*
X662880Y-121212D01*
X662826Y-120939D01*
X662163Y-119947D01*
X662163Y-119947D01*
X660059Y-117843D01*
Y-83267D01*
X661267Y-82059D01*
X698000D01*
X698000Y-82059D01*
X699171Y-81826D01*
X700163Y-81163D01*
X707163Y-74163D01*
X707163Y-74163D01*
X707826Y-73170D01*
X708059Y-72000D01*
X708059Y-72000D01*
Y-46989D01*
X709329Y-46864D01*
X709526Y-47853D01*
X710575Y-49425D01*
X712147Y-50474D01*
X714000Y-50843D01*
X715853Y-50474D01*
X717424Y-49425D01*
X718474Y-47853D01*
X718843Y-46000D01*
X718474Y-44147D01*
X717424Y-42575D01*
X715853Y-41526D01*
X714000Y-41157D01*
X712147Y-41526D01*
X710575Y-42575D01*
X709526Y-44147D01*
X709329Y-45136D01*
X708059Y-45011D01*
Y-24000D01*
X708059Y-24000D01*
X707826Y-22829D01*
X707163Y-21837D01*
X707163Y-21837D01*
X700163Y-14837D01*
X699171Y-14174D01*
X698000Y-13941D01*
X698000Y-13941D01*
X651267D01*
X650059Y-12733D01*
Y51733D01*
X651267Y52941D01*
X695929D01*
X696429Y52329D01*
X695832Y51059D01*
X674000D01*
X674000Y51059D01*
X672830Y50826D01*
X671837Y50163D01*
X671837Y50163D01*
X669733Y48059D01*
X666669D01*
X666424Y48425D01*
X664853Y49474D01*
X663000Y49843D01*
X661147Y49474D01*
X659575Y48425D01*
X658526Y46853D01*
X658157Y45000D01*
X658526Y43147D01*
X659575Y41575D01*
X660877Y40706D01*
X660979Y40239D01*
Y39761D01*
X660877Y39294D01*
X659575Y38425D01*
X658526Y36853D01*
X658157Y35000D01*
X658526Y33147D01*
X659575Y31576D01*
X660877Y30706D01*
X660979Y30239D01*
Y29761D01*
X660877Y29294D01*
X659575Y28425D01*
X658526Y26853D01*
X658157Y25000D01*
X658526Y23147D01*
X659575Y21575D01*
X660877Y20706D01*
X660979Y20239D01*
Y19761D01*
X660877Y19294D01*
X659575Y18425D01*
X658526Y16853D01*
X658157Y15000D01*
X658526Y13147D01*
X659575Y11575D01*
X661147Y10526D01*
X663000Y10157D01*
X664853Y10526D01*
X666424Y11575D01*
X666669Y11941D01*
X695000D01*
X695000Y11941D01*
X696171Y12174D01*
X697163Y12837D01*
X697569Y13243D01*
X698000Y13157D01*
X699853Y13526D01*
X700327Y13842D01*
X701243Y12926D01*
X700526Y11853D01*
X700157Y10000D01*
X700526Y8147D01*
X701575Y6575D01*
X703147Y5526D01*
X705000Y5157D01*
X706853Y5526D01*
X708425Y6575D01*
X709474Y8147D01*
X709843Y10000D01*
X709474Y11853D01*
X708425Y13425D01*
X706853Y14474D01*
X705000Y14843D01*
X703147Y14474D01*
X702673Y14158D01*
X701757Y15073D01*
X702474Y16147D01*
X702843Y18000D01*
X702474Y19853D01*
X701425Y21425D01*
X699853Y22474D01*
X698000Y22843D01*
X696147Y22474D01*
X694575Y21425D01*
X693526Y19853D01*
X693169Y18059D01*
X666669D01*
X666424Y18425D01*
X665123Y19294D01*
X665021Y19761D01*
Y20239D01*
X665123Y20706D01*
X666424Y21575D01*
X667474Y23147D01*
X667831Y24941D01*
X689000D01*
X689000Y24941D01*
X690171Y25174D01*
X691163Y25837D01*
X698267Y32941D01*
X726000D01*
X726000Y32941D01*
X727170Y33174D01*
X728163Y33837D01*
X729568Y35243D01*
X730000Y35157D01*
X730874Y35331D01*
X731886Y34472D01*
X731908Y33234D01*
X729837Y31163D01*
X729174Y30171D01*
X728941Y29000D01*
X728941Y29000D01*
Y25044D01*
X727768Y24558D01*
X727163Y25163D01*
X726171Y25826D01*
X725000Y26059D01*
X725000Y26059D01*
X717669D01*
X717424Y26425D01*
X715853Y27474D01*
X714000Y27843D01*
X712147Y27474D01*
X710575Y26425D01*
X709526Y24853D01*
X709157Y23000D01*
X709526Y21147D01*
X710575Y19575D01*
X712147Y18526D01*
X714000Y18157D01*
X715853Y18526D01*
X717424Y19575D01*
X717669Y19941D01*
X723733D01*
X723941Y19733D01*
Y-56733D01*
X719837Y-60837D01*
X719174Y-61830D01*
X718941Y-63000D01*
X718941Y-63000D01*
Y-63331D01*
X718575Y-63575D01*
X717526Y-65147D01*
X717157Y-67000D01*
X717526Y-68853D01*
X718575Y-70424D01*
X720147Y-71474D01*
X722000Y-71843D01*
X723853Y-71474D01*
X725424Y-70424D01*
X726575D01*
X728147Y-71474D01*
X730000Y-71843D01*
X731853Y-71474D01*
X733425Y-70424D01*
X734576D01*
X736147Y-71474D01*
X738000Y-71843D01*
X739853Y-71474D01*
X741424Y-70424D01*
X742576D01*
X744147Y-71474D01*
X746000Y-71843D01*
X747853Y-71474D01*
X749425Y-70424D01*
X750474Y-68853D01*
X750843Y-67000D01*
X750474Y-65147D01*
X749425Y-63575D01*
X749059Y-63331D01*
Y-63000D01*
X749059Y-63000D01*
X748826Y-61830D01*
X748163Y-60837D01*
X748163Y-60837D01*
X745059Y-57733D01*
Y-8989D01*
X746329Y-8864D01*
X746526Y-9853D01*
X747575Y-11425D01*
X749147Y-12474D01*
X751000Y-12843D01*
X752671Y-12511D01*
X753258Y-12746D01*
X753533Y-13856D01*
X753484Y-14190D01*
X749837Y-17837D01*
X749174Y-18829D01*
X748941Y-20000D01*
X748941Y-20000D01*
Y-56000D01*
X748941Y-56000D01*
X749174Y-57171D01*
X749837Y-58163D01*
X752941Y-61267D01*
Y-136000D01*
X752941Y-136000D01*
X753174Y-137170D01*
X753837Y-138163D01*
X757837Y-142163D01*
X757837Y-142163D01*
X758829Y-142826D01*
X760000Y-143059D01*
X827733D01*
X828941Y-144267D01*
Y-214000D01*
X828941Y-214000D01*
X829174Y-215170D01*
X829837Y-216163D01*
X833837Y-220163D01*
X833837Y-220163D01*
X834829Y-220826D01*
X836000Y-221059D01*
X847331D01*
X847575Y-221425D01*
X849147Y-222474D01*
X851000Y-222843D01*
X852853Y-222474D01*
X854425Y-221425D01*
X855474Y-219853D01*
X855843Y-218000D01*
X855474Y-216147D01*
X854425Y-214575D01*
X852853Y-213526D01*
X851000Y-213157D01*
X849147Y-213526D01*
X847575Y-214575D01*
X847331Y-214941D01*
X837267D01*
X835059Y-212733D01*
Y-181044D01*
X836232Y-180558D01*
X837837Y-182163D01*
X837837Y-182163D01*
X838829Y-182826D01*
X840000Y-183059D01*
X840000Y-183059D01*
X858733D01*
X859831Y-184157D01*
X859751Y-185458D01*
X859575Y-185575D01*
X858526Y-187147D01*
X858157Y-189000D01*
X858526Y-190853D01*
X859575Y-192425D01*
X861147Y-193474D01*
X863000Y-193843D01*
X864853Y-193474D01*
X866425Y-192425D01*
X867474Y-190853D01*
X867843Y-189000D01*
X867474Y-187147D01*
X866425Y-185575D01*
X866059Y-185331D01*
Y-183000D01*
X866059Y-183000D01*
X865826Y-181829D01*
X865163Y-180837D01*
X865163Y-180837D01*
X862163Y-177837D01*
X861171Y-177174D01*
X860000Y-176941D01*
X860000Y-176941D01*
X841267D01*
X840059Y-175733D01*
Y-168181D01*
X841329Y-167655D01*
X841837Y-168163D01*
X841837Y-168163D01*
X842830Y-168826D01*
X844000Y-169059D01*
X844000Y-169059D01*
X891331D01*
X891575Y-169425D01*
X893147Y-170474D01*
X895000Y-170843D01*
X896853Y-170474D01*
X898425Y-169425D01*
X899474Y-167853D01*
X899843Y-166000D01*
X899474Y-164147D01*
X898425Y-162575D01*
X896853Y-161526D01*
X895000Y-161157D01*
X893147Y-161526D01*
X891575Y-162575D01*
X891331Y-162941D01*
X846059D01*
Y-151669D01*
X846424Y-151425D01*
X847576D01*
X849147Y-152474D01*
X851000Y-152843D01*
X852853Y-152474D01*
X854425Y-151425D01*
X854669Y-151059D01*
X891331D01*
X891575Y-151425D01*
X893147Y-152474D01*
X895000Y-152843D01*
X896853Y-152474D01*
X898425Y-151425D01*
X899474Y-149853D01*
X899843Y-148000D01*
X899474Y-146147D01*
X898425Y-144576D01*
X896853Y-143526D01*
X895000Y-143157D01*
X893147Y-143526D01*
X891575Y-144576D01*
X891331Y-144941D01*
X854669D01*
X854425Y-144576D01*
X852853Y-143526D01*
X851000Y-143157D01*
X849147Y-143526D01*
X847576Y-144576D01*
X846424D01*
X844853Y-143526D01*
X843000Y-143157D01*
X841329Y-143489D01*
X840330Y-143089D01*
X840059Y-142944D01*
Y-129000D01*
X839826Y-127829D01*
X839163Y-126837D01*
X839163Y-126837D01*
X835163Y-122837D01*
X834171Y-122174D01*
X833000Y-121941D01*
X833000Y-121941D01*
X800267D01*
X799059Y-120733D01*
Y-14275D01*
X799821Y-13714D01*
X800329Y-13511D01*
X802000Y-13843D01*
X803853Y-13474D01*
X805425Y-12425D01*
X806474Y-10853D01*
X806843Y-9000D01*
X806474Y-7147D01*
X805425Y-5576D01*
X803853Y-4526D01*
X802000Y-4157D01*
X800147Y-4526D01*
X798575Y-5576D01*
X797526Y-7147D01*
X797317Y-8195D01*
X795939Y-8613D01*
X784059Y3267D01*
Y4944D01*
X784331Y5089D01*
X785329Y5489D01*
X787000Y5157D01*
X788853Y5526D01*
X790425Y6575D01*
X791474Y8147D01*
X791843Y10000D01*
X791555Y11447D01*
X791661Y11639D01*
X792361Y12340D01*
X792553Y12445D01*
X794000Y12157D01*
X795853Y12526D01*
X797424Y13575D01*
X798610Y13064D01*
X815941Y-4267D01*
Y-51000D01*
X815941Y-51000D01*
X816174Y-52171D01*
X816837Y-53163D01*
X818837Y-55163D01*
X819829Y-55826D01*
X821000Y-56059D01*
X826331D01*
X826575Y-56425D01*
X828147Y-57474D01*
X830000Y-57843D01*
X831853Y-57474D01*
X833425Y-56425D01*
X834474Y-54853D01*
X834843Y-53000D01*
X834474Y-51147D01*
X833425Y-49576D01*
Y-48425D01*
X834474Y-46853D01*
X834843Y-45000D01*
X834474Y-43147D01*
X833425Y-41575D01*
Y-40424D01*
X834474Y-38853D01*
X834843Y-37000D01*
X834474Y-35147D01*
X833425Y-33575D01*
X831853Y-32526D01*
X830059Y-32169D01*
Y7000D01*
X830059Y7000D01*
X829826Y8170D01*
X829163Y9163D01*
X805163Y33163D01*
X804171Y33826D01*
X803000Y34059D01*
X803000Y34059D01*
X799000D01*
X799000Y34059D01*
X797736Y35102D01*
X797696Y35371D01*
X809267Y46941D01*
X812331D01*
X812575Y46575D01*
X814147Y45526D01*
X816000Y45157D01*
X817853Y45526D01*
X819425Y46575D01*
X820474Y48147D01*
X820843Y50000D01*
X820511Y51671D01*
X820911Y52670D01*
X821056Y52941D01*
X870000D01*
X870000Y52941D01*
X871171Y53174D01*
X871341Y53288D01*
X872000Y53157D01*
X873853Y53526D01*
X875425Y54576D01*
X876474Y56147D01*
X876843Y58000D01*
X876474Y59853D01*
X875425Y61425D01*
X873853Y62474D01*
X872000Y62843D01*
X870147Y62474D01*
X870056Y62414D01*
X868644Y62998D01*
X868474Y63853D01*
X868158Y64327D01*
X869073Y65243D01*
X870147Y64526D01*
X872000Y64157D01*
X873853Y64526D01*
X875425Y65575D01*
X876474Y67147D01*
X876843Y69000D01*
X876474Y70853D01*
X875425Y72425D01*
X873853Y73474D01*
X872000Y73843D01*
X870147Y73474D01*
X868576Y72425D01*
X867526Y70853D01*
X867157Y69000D01*
X867526Y67147D01*
X867842Y66673D01*
X866926Y65757D01*
X865853Y66474D01*
X864000Y66843D01*
X862147Y66474D01*
X860575Y65425D01*
X860331Y65059D01*
X847267D01*
X847059Y65267D01*
Y82000D01*
X846826Y83170D01*
X846163Y84163D01*
X846163Y84163D01*
X823093Y107232D01*
X823462Y108448D01*
X823853Y108526D01*
X825425Y109575D01*
X826474Y111147D01*
X826843Y113000D01*
X826474Y114853D01*
X825425Y116425D01*
X823853Y117474D01*
X822000Y117843D01*
X820147Y117474D01*
X818576Y116425D01*
X817526Y114853D01*
X817448Y114462D01*
X816232Y114093D01*
X777059Y153267D01*
Y226000D01*
X776826Y227171D01*
X776712Y227341D01*
X776843Y228000D01*
X776474Y229853D01*
X775425Y231425D01*
X773853Y232474D01*
X772000Y232843D01*
X770147Y232474D01*
X768576Y231425D01*
X767526Y229853D01*
X767157Y228000D01*
X767526Y226147D01*
X768576Y224575D01*
X770147Y223526D01*
X770941Y223368D01*
Y210181D01*
X769671Y209655D01*
X766163Y213163D01*
X765171Y213826D01*
X764000Y214059D01*
X764000Y214059D01*
X748669D01*
X748425Y214425D01*
X746853Y215474D01*
X745000Y215843D01*
X743147Y215474D01*
X741575Y214425D01*
X740526Y212853D01*
X740157Y211000D01*
X740526Y209147D01*
X741575Y207575D01*
X743147Y206526D01*
X745000Y206157D01*
X746853Y206526D01*
X748425Y207575D01*
X748669Y207941D01*
X762733D01*
X764941Y205733D01*
Y149000D01*
X764941Y149000D01*
X765174Y147830D01*
X765837Y146837D01*
X816941Y95733D01*
Y90267D01*
X810431Y83757D01*
X810000Y83843D01*
X808147Y83474D01*
X806575Y82424D01*
X805526Y80853D01*
X805157Y79000D01*
X805526Y77147D01*
X806575Y75575D01*
X808147Y74526D01*
X810000Y74157D01*
X811853Y74526D01*
X813425Y75575D01*
X814474Y77147D01*
X814843Y79000D01*
X814757Y79431D01*
X822163Y86837D01*
X822163Y86837D01*
X822826Y87830D01*
X823059Y89000D01*
Y96819D01*
X823487Y97141D01*
X824274Y97400D01*
X840941Y80733D01*
Y64000D01*
X840941Y64000D01*
X841174Y62829D01*
X841837Y61837D01*
X843345Y60329D01*
X842819Y59059D01*
X838056D01*
X837911Y59331D01*
X837511Y60329D01*
X837843Y62000D01*
X837474Y63853D01*
X836425Y65425D01*
X834853Y66474D01*
X833000Y66843D01*
X831147Y66474D01*
X829576Y65425D01*
X829164Y64809D01*
X819660D01*
X818660Y66079D01*
X818843Y67000D01*
X818474Y68853D01*
X817425Y70424D01*
X815853Y71474D01*
X814000Y71843D01*
X812147Y71474D01*
X810575Y70424D01*
X810331Y70059D01*
X808267D01*
X799163Y79163D01*
X798170Y79826D01*
X797000Y80059D01*
X797000Y80059D01*
X784267D01*
X713059Y151267D01*
Y207733D01*
X713267Y207941D01*
X730000D01*
X730000Y207941D01*
X731171Y208174D01*
X732163Y208837D01*
X734663Y211337D01*
X734663Y211337D01*
X735326Y212330D01*
X735559Y213500D01*
Y236000D01*
X738500D01*
Y256000D01*
X727270D01*
X726500Y256000D01*
X725230Y256000D01*
X714770D01*
X714000Y256000D01*
X712730Y256000D01*
X700996Y256000D01*
X700098Y256898D01*
Y263000D01*
Y271000D01*
X699710Y272951D01*
X698605Y274605D01*
X696951Y275710D01*
X695000Y276098D01*
D02*
G37*
G36*
X305000Y278069D02*
X302912Y277794D01*
X300965Y276988D01*
X299294Y275706D01*
X298012Y274035D01*
X297206Y272088D01*
X297113Y271385D01*
X292364Y266636D01*
X291322Y265278D01*
X290667Y263697D01*
X290444Y262000D01*
Y213198D01*
X289174Y212989D01*
X288210Y215827D01*
X285818Y220679D01*
X282812Y225177D01*
X279245Y229245D01*
X275177Y232812D01*
X270679Y235818D01*
X265827Y238210D01*
X260704Y239949D01*
X255398Y241005D01*
X250000Y241359D01*
X244602Y241005D01*
X239296Y239949D01*
X234173Y238210D01*
X229321Y235818D01*
X224823Y232812D01*
X220755Y229245D01*
X217188Y225177D01*
X214182Y220679D01*
X211790Y215827D01*
X210051Y210704D01*
X208995Y205398D01*
X208641Y200000D01*
X208995Y194602D01*
X210051Y189296D01*
X211790Y184173D01*
X214182Y179321D01*
X217188Y174823D01*
X220755Y170755D01*
X224823Y167188D01*
X229321Y164182D01*
X234173Y161790D01*
X239296Y160051D01*
X244602Y158995D01*
X250000Y158642D01*
X255398Y158995D01*
X260704Y160051D01*
X265827Y161790D01*
X270679Y164182D01*
X275177Y167188D01*
X279245Y170755D01*
X282812Y174823D01*
X285818Y179321D01*
X288210Y184173D01*
X289174Y187012D01*
X290444Y186802D01*
Y162716D01*
X255364Y127636D01*
X254322Y126278D01*
X253667Y124697D01*
X253444Y123000D01*
Y85716D01*
X249284Y81556D01*
X217597D01*
X217034Y81988D01*
X215088Y82794D01*
X213000Y83069D01*
X210912Y82794D01*
X208965Y81988D01*
X207294Y80706D01*
X206012Y79035D01*
X205206Y77088D01*
X204931Y75000D01*
X205206Y72912D01*
X206012Y70965D01*
X207294Y69294D01*
X208965Y68012D01*
X210912Y67206D01*
X213000Y66931D01*
X215088Y67206D01*
X217034Y68012D01*
X217597Y68444D01*
X252000D01*
X253697Y68667D01*
X255278Y69322D01*
X256636Y70364D01*
X264636Y78364D01*
X265678Y79722D01*
X266333Y81303D01*
X266556Y83000D01*
Y120284D01*
X301636Y155364D01*
X302174Y156065D01*
X303444Y155634D01*
Y144716D01*
X275364Y116636D01*
X274322Y115278D01*
X273667Y113697D01*
X273444Y112000D01*
Y58716D01*
X266284Y51556D01*
X217597D01*
X217034Y51988D01*
X215088Y52794D01*
X213000Y53069D01*
X210912Y52794D01*
X208965Y51988D01*
X207294Y50706D01*
X206012Y49035D01*
X205206Y47088D01*
X204931Y45000D01*
X205206Y42912D01*
X206012Y40965D01*
X207294Y39294D01*
X208965Y38012D01*
X210912Y37206D01*
X213000Y36931D01*
X215088Y37206D01*
X217034Y38012D01*
X217597Y38444D01*
X269000D01*
X270697Y38667D01*
X272278Y39322D01*
X273636Y40364D01*
X284636Y51364D01*
X285678Y52722D01*
X286333Y54303D01*
X286556Y56000D01*
Y109284D01*
X314636Y137364D01*
X315678Y138722D01*
X316333Y140303D01*
X316556Y142000D01*
Y157260D01*
X317826Y157886D01*
X318965Y157012D01*
X320912Y156206D01*
X323000Y155931D01*
X325088Y156206D01*
X327034Y157012D01*
X328706Y158294D01*
X336342Y165931D01*
X451500D01*
X453588Y166206D01*
X455535Y167012D01*
X457206Y168294D01*
X458488Y169965D01*
X459294Y171912D01*
X459569Y174000D01*
X459294Y176088D01*
X458488Y178034D01*
X457206Y179706D01*
X455535Y180988D01*
X453588Y181794D01*
X451500Y182069D01*
X333000D01*
X330912Y181794D01*
X328965Y180988D01*
X327294Y179706D01*
X324506Y176917D01*
X324083Y177057D01*
X323369Y177576D01*
X323556Y179000D01*
Y184403D01*
X323988Y184965D01*
X324794Y186912D01*
X325069Y189000D01*
X324794Y191088D01*
X323988Y193034D01*
X322706Y194706D01*
X321035Y195988D01*
X319088Y196794D01*
X317000Y197069D01*
X314912Y196794D01*
X312966Y195988D01*
X311294Y194706D01*
X310012Y193034D01*
X309206Y191088D01*
X308931Y189000D01*
X309206Y186912D01*
X310012Y184965D01*
X310444Y184403D01*
Y181716D01*
X305364Y176636D01*
X304826Y175935D01*
X303556Y176366D01*
Y259284D01*
X306385Y262113D01*
X307088Y262206D01*
X309035Y263012D01*
X310706Y264294D01*
X311988Y265965D01*
X312794Y267912D01*
X313069Y270000D01*
X312794Y272088D01*
X311988Y274035D01*
X310706Y275706D01*
X309035Y276988D01*
X307088Y277794D01*
X305000Y278069D01*
D02*
G37*
G36*
X859000Y1843D02*
X857147Y1474D01*
X855575Y425D01*
X854526Y-1147D01*
X854157Y-3000D01*
X854526Y-4853D01*
X855575Y-6424D01*
X857147Y-7474D01*
X859000Y-7843D01*
X860853Y-7474D01*
X862425Y-6424D01*
X863474Y-4853D01*
X863843Y-3000D01*
X863474Y-1147D01*
X862425Y425D01*
X860853Y1474D01*
X859000Y1843D01*
D02*
G37*
G36*
X451500Y44069D02*
X333000D01*
X330912Y43794D01*
X328965Y42988D01*
X327294Y41706D01*
X317294Y31706D01*
X316012Y30034D01*
X315206Y28088D01*
X314931Y26000D01*
X315206Y23912D01*
X316012Y21965D01*
X317294Y20294D01*
X318965Y19012D01*
X320912Y18206D01*
X323000Y17931D01*
X325088Y18206D01*
X327034Y19012D01*
X328706Y20294D01*
X336342Y27931D01*
X451500D01*
X453588Y28206D01*
X455535Y29012D01*
X457206Y30294D01*
X458488Y31965D01*
X459294Y33912D01*
X459569Y36000D01*
X459294Y38088D01*
X458488Y40034D01*
X457206Y41706D01*
X455535Y42988D01*
X453588Y43794D01*
X451500Y44069D01*
D02*
G37*
G36*
X492000Y69843D02*
X490147Y69474D01*
X488576Y68425D01*
X487526Y66853D01*
X487157Y65000D01*
X487526Y63147D01*
X488576Y61575D01*
X490147Y60526D01*
X492000Y60157D01*
X493853Y60526D01*
X495425Y61575D01*
X495669Y61941D01*
X545733D01*
X546941Y60733D01*
Y-14000D01*
X546941Y-14000D01*
X547174Y-15171D01*
X547837Y-16163D01*
X549837Y-18163D01*
X550830Y-18826D01*
X552000Y-19059D01*
X590331D01*
X590575Y-19425D01*
X592147Y-20474D01*
X594000Y-20843D01*
X595853Y-20474D01*
X597425Y-19425D01*
X598474Y-17853D01*
X598843Y-16000D01*
X598474Y-14147D01*
X597425Y-12575D01*
X595853Y-11526D01*
X594000Y-11157D01*
X592147Y-11526D01*
X590575Y-12575D01*
X590331Y-12941D01*
X553267D01*
X553059Y-12733D01*
Y62000D01*
X553059Y62000D01*
X552826Y63170D01*
X552163Y64163D01*
X552163Y64163D01*
X549163Y67163D01*
X548171Y67826D01*
X547000Y68059D01*
X547000Y68059D01*
X495669D01*
X495425Y68425D01*
X493853Y69474D01*
X492000Y69843D01*
D02*
G37*
G36*
Y115843D02*
X490147Y115474D01*
X488576Y114425D01*
X487526Y112853D01*
X487157Y111000D01*
X487526Y109147D01*
X488576Y107576D01*
X490147Y106526D01*
X492000Y106157D01*
X493853Y106526D01*
X495425Y107576D01*
X495669Y107941D01*
X554733D01*
X554941Y107733D01*
Y-4000D01*
X554941Y-4000D01*
X555174Y-5171D01*
X555837Y-6163D01*
X557837Y-8163D01*
X558829Y-8826D01*
X560000Y-9059D01*
X596331D01*
X596575Y-9424D01*
X598147Y-10474D01*
X600000Y-10843D01*
X601853Y-10474D01*
X603424Y-9424D01*
X604474Y-7853D01*
X604843Y-6000D01*
X604474Y-4147D01*
X603424Y-2575D01*
X601853Y-1526D01*
X600000Y-1157D01*
X598147Y-1526D01*
X596575Y-2575D01*
X596331Y-2941D01*
X561267D01*
X561059Y-2733D01*
Y109000D01*
X560826Y110170D01*
X560163Y111163D01*
X558163Y113163D01*
X557170Y113826D01*
X556000Y114059D01*
X556000Y114059D01*
X495669D01*
X495425Y114425D01*
X493853Y115474D01*
X492000Y115843D01*
D02*
G37*
G36*
Y161843D02*
X490147Y161474D01*
X488576Y160424D01*
X487526Y158853D01*
X487157Y157000D01*
X487526Y155147D01*
X488576Y153575D01*
X490147Y152526D01*
X492000Y152157D01*
X493853Y152526D01*
X495425Y153575D01*
X495669Y153941D01*
X562733D01*
X562941Y153733D01*
Y6000D01*
X562941Y6000D01*
X563174Y4830D01*
X563837Y3837D01*
X565837Y1837D01*
X566829Y1174D01*
X568000Y941D01*
X590331D01*
X590575Y575D01*
X592147Y-474D01*
X594000Y-843D01*
X595853Y-474D01*
X597425Y575D01*
X598474Y2147D01*
X598843Y4000D01*
X598474Y5853D01*
X597425Y7424D01*
X595853Y8474D01*
X594000Y8843D01*
X592147Y8474D01*
X590575Y7424D01*
X590331Y7059D01*
X569267D01*
X569059Y7267D01*
Y155000D01*
X569059Y155000D01*
X568826Y156171D01*
X568163Y157163D01*
X568163Y157163D01*
X566163Y159163D01*
X565171Y159826D01*
X564000Y160059D01*
X564000Y160059D01*
X495669D01*
X495425Y160424D01*
X493853Y161474D01*
X492000Y161843D01*
D02*
G37*
G36*
X317000Y13069D02*
X314912Y12794D01*
X312966Y11988D01*
X312403Y11556D01*
X305000D01*
X303303Y11333D01*
X301722Y10678D01*
X300364Y9636D01*
X295364Y4636D01*
X294322Y3278D01*
X293667Y1697D01*
X293444Y0D01*
Y-7284D01*
X292284Y-8444D01*
X217597D01*
X217034Y-8012D01*
X215088Y-7206D01*
X213000Y-6931D01*
X210912Y-7206D01*
X208965Y-8012D01*
X207294Y-9294D01*
X206012Y-10965D01*
X205206Y-12912D01*
X204931Y-15000D01*
X205206Y-17088D01*
X206012Y-19035D01*
X207294Y-20706D01*
X208965Y-21988D01*
X210912Y-22794D01*
X213000Y-23069D01*
X215088Y-22794D01*
X217034Y-21988D01*
X217597Y-21556D01*
X295000D01*
X296697Y-21333D01*
X298278Y-20678D01*
X299636Y-19636D01*
X304636Y-14636D01*
X305678Y-13278D01*
X306333Y-11697D01*
X306556Y-10000D01*
Y-2716D01*
X307716Y-1556D01*
X312403D01*
X312966Y-1988D01*
X314912Y-2794D01*
X317000Y-3069D01*
X319088Y-2794D01*
X321035Y-1988D01*
X322706Y-706D01*
X323988Y966D01*
X324794Y2912D01*
X325069Y5000D01*
X324794Y7088D01*
X323988Y9035D01*
X322706Y10706D01*
X321035Y11988D01*
X319088Y12794D01*
X317000Y13069D01*
D02*
G37*
G36*
X886000Y2843D02*
X884147Y2474D01*
X882576Y1425D01*
X881526Y-147D01*
X881157Y-2000D01*
X881526Y-3853D01*
X882576Y-5425D01*
X884147Y-6474D01*
X886000Y-6843D01*
X887853Y-6474D01*
X889425Y-5425D01*
X890474Y-3853D01*
X890843Y-2000D01*
X890474Y-147D01*
X889425Y1425D01*
X887853Y2474D01*
X886000Y2843D01*
D02*
G37*
G36*
X492000Y207843D02*
X490147Y207474D01*
X488576Y206425D01*
X487526Y204853D01*
X487157Y203000D01*
X487526Y201147D01*
X488576Y199575D01*
X490147Y198526D01*
X492000Y198157D01*
X493853Y198526D01*
X495425Y199575D01*
X495669Y199941D01*
X569733D01*
X570941Y198733D01*
Y16000D01*
X570941Y16000D01*
X571174Y14829D01*
X571837Y13837D01*
X573837Y11837D01*
X574829Y11174D01*
X576000Y10941D01*
X596331D01*
X596575Y10575D01*
X598147Y9526D01*
X600000Y9157D01*
X601853Y9526D01*
X603424Y10575D01*
X604474Y12147D01*
X604843Y14000D01*
X604474Y15853D01*
X603424Y17425D01*
X601853Y18474D01*
X600000Y18843D01*
X598147Y18474D01*
X596575Y17425D01*
X596331Y17059D01*
X577267D01*
X577059Y17267D01*
Y200000D01*
X577059Y200000D01*
X576826Y201171D01*
X576163Y202163D01*
X576163Y202163D01*
X573163Y205163D01*
X572170Y205826D01*
X571000Y206059D01*
X571000Y206059D01*
X495669D01*
X495425Y206425D01*
X493853Y207474D01*
X492000Y207843D01*
D02*
G37*
G36*
X451500Y90069D02*
X333000D01*
X330912Y89794D01*
X328965Y88988D01*
X327294Y87706D01*
X317294Y77706D01*
X316012Y76034D01*
X315206Y74088D01*
X314931Y72000D01*
X315206Y69912D01*
X316012Y67965D01*
X317294Y66294D01*
X318965Y65012D01*
X320912Y64206D01*
X323000Y63931D01*
X325088Y64206D01*
X327034Y65012D01*
X328706Y66294D01*
X336342Y73931D01*
X451500D01*
X453588Y74206D01*
X455535Y75012D01*
X457206Y76294D01*
X458488Y77965D01*
X459294Y79912D01*
X459569Y82000D01*
X459294Y84088D01*
X458488Y86034D01*
X457206Y87706D01*
X455535Y88988D01*
X453588Y89794D01*
X451500Y90069D01*
D02*
G37*
G36*
X930000Y111808D02*
X928238Y111576D01*
X926596Y110896D01*
X925186Y109814D01*
X924104Y108404D01*
X923424Y106762D01*
X923192Y105000D01*
X923424Y103238D01*
X924104Y101596D01*
X925186Y100186D01*
Y99814D01*
X924104Y98404D01*
X923424Y96762D01*
X923192Y95000D01*
X923424Y93238D01*
X924104Y91596D01*
X924592Y90960D01*
X925089Y90000D01*
X924592Y89040D01*
X924104Y88404D01*
X923424Y86762D01*
X923192Y85000D01*
X923424Y83238D01*
X924104Y81596D01*
X925186Y80186D01*
X926596Y79104D01*
X928238Y78424D01*
X930000Y78192D01*
X930723Y78287D01*
X931317Y77084D01*
X918116Y63884D01*
X917232Y62561D01*
X916922Y61000D01*
X916922Y61000D01*
Y43333D01*
X915652Y42706D01*
X915404Y42896D01*
X913762Y43576D01*
X912000Y43808D01*
X910238Y43576D01*
X908596Y42896D01*
X907960Y42408D01*
X907000Y41911D01*
X906040Y42408D01*
X905404Y42896D01*
X903762Y43576D01*
X902000Y43808D01*
X900238Y43576D01*
X898596Y42896D01*
X897186Y41814D01*
X896104Y40404D01*
X895424Y38762D01*
X895192Y37000D01*
X895424Y35238D01*
X896104Y33596D01*
X897186Y32186D01*
X898596Y31104D01*
X900238Y30424D01*
X902000Y30192D01*
X903762Y30424D01*
X905404Y31104D01*
X906814Y32186D01*
X907186D01*
X908596Y31104D01*
X910238Y30424D01*
X912000Y30192D01*
X913762Y30424D01*
X915404Y31104D01*
X915652Y31294D01*
X916922Y30668D01*
Y2620D01*
X915652Y1941D01*
X914853Y2474D01*
X913000Y2843D01*
X911147Y2474D01*
X909576Y1425D01*
X908425D01*
X906853Y2474D01*
X905000Y2843D01*
X903147Y2474D01*
X901575Y1425D01*
X900526Y-147D01*
X900157Y-2000D01*
X900526Y-3853D01*
X901575Y-5425D01*
X903147Y-6474D01*
X905000Y-6843D01*
X906853Y-6474D01*
X908425Y-5425D01*
X909576D01*
X911147Y-6474D01*
X913000Y-6843D01*
X914853Y-6474D01*
X915652Y-5941D01*
X916922Y-6620D01*
Y-68311D01*
X914311Y-70922D01*
X907000D01*
X907000Y-70922D01*
X905439Y-71232D01*
X904116Y-72116D01*
X904116Y-72116D01*
X902116Y-74116D01*
X901232Y-75439D01*
X900922Y-77000D01*
X900922Y-77000D01*
Y-90554D01*
X900526Y-91147D01*
X900157Y-93000D01*
X900526Y-94853D01*
X901575Y-96425D01*
X903147Y-97474D01*
X905000Y-97843D01*
X906853Y-97474D01*
X908425Y-96425D01*
X909474Y-94853D01*
X909843Y-93000D01*
X909474Y-91147D01*
X909078Y-90554D01*
Y-79078D01*
X916000D01*
X916000Y-79078D01*
X917561Y-78768D01*
X917652Y-78707D01*
X918922Y-79386D01*
Y-90554D01*
X918526Y-91147D01*
X918157Y-93000D01*
X918526Y-94853D01*
X919576Y-96425D01*
X921147Y-97474D01*
X923000Y-97843D01*
X924853Y-97474D01*
X926425Y-96425D01*
X927474Y-94853D01*
X927843Y-93000D01*
X927474Y-91147D01*
X927078Y-90554D01*
Y-79689D01*
X931884Y-74884D01*
X931884Y-74884D01*
X932768Y-73561D01*
X933078Y-72000D01*
X933078Y-72000D01*
Y-71505D01*
X934252Y-71020D01*
X937116Y-73884D01*
X937116Y-73884D01*
X938075Y-74525D01*
X938439Y-74768D01*
X938439D01*
X938439Y-74768D01*
X939080Y-74895D01*
X939999Y-75078D01*
X940000Y-75078D01*
X941445D01*
X942124Y-76348D01*
X941248Y-77659D01*
X940782Y-80000D01*
X940896Y-80569D01*
X940868Y-80672D01*
X940070Y-81833D01*
X939772Y-81947D01*
X939455Y-81989D01*
X938689Y-82249D01*
X938572Y-82317D01*
X938439Y-82343D01*
X937887Y-82712D01*
X937311Y-83045D01*
X937229Y-83152D01*
X937116Y-83227D01*
X936747Y-83780D01*
X936342Y-84307D01*
X936307Y-84438D01*
X936232Y-84550D01*
X936103Y-85202D01*
X935930Y-85844D01*
X935948Y-85978D01*
X935922Y-86111D01*
X935922Y-155000D01*
Y-255000D01*
X935922Y-255000D01*
X936232Y-256561D01*
X937116Y-257884D01*
X942116Y-262884D01*
X943439Y-263768D01*
X945000Y-264078D01*
X945000Y-264078D01*
X1100000Y-264078D01*
X1100000Y-264078D01*
X1101561Y-263768D01*
X1102884Y-262884D01*
X1102884Y-262883D01*
X1107884Y-257884D01*
X1107884Y-257884D01*
X1108768Y-256561D01*
X1109079Y-255000D01*
X1109079Y-255000D01*
X1109078Y-211791D01*
X1110348Y-211581D01*
X1111790Y-215827D01*
X1114183Y-220679D01*
X1117188Y-225177D01*
X1120755Y-229245D01*
X1124822Y-232812D01*
X1129321Y-235818D01*
X1134173Y-238210D01*
X1139296Y-239949D01*
X1144602Y-241005D01*
X1150000Y-241359D01*
X1155398Y-241005D01*
X1160704Y-239949D01*
X1165827Y-238210D01*
X1170679Y-235818D01*
X1175178Y-232812D01*
X1179245Y-229245D01*
X1182812Y-225177D01*
X1185818Y-220679D01*
X1188210Y-215827D01*
X1189652Y-211581D01*
X1190922Y-211791D01*
Y-255000D01*
X1190922Y-255000D01*
X1191232Y-256561D01*
X1192116Y-257884D01*
X1197116Y-262884D01*
X1198439Y-263768D01*
X1200000Y-264078D01*
X1200000Y-264078D01*
X1355000D01*
X1355000Y-264078D01*
X1356561Y-263768D01*
X1357884Y-262884D01*
X1362884Y-257884D01*
X1363768Y-256561D01*
X1364078Y-255000D01*
X1364078Y-255000D01*
Y-155000D01*
X1364078Y-155000D01*
X1363768Y-153439D01*
X1362884Y-152116D01*
X1357884Y-147116D01*
X1356561Y-146232D01*
X1355000Y-145922D01*
X1355000Y-145922D01*
X1271689D01*
X1269078Y-143311D01*
Y-60000D01*
X1268768Y-58439D01*
X1267884Y-57116D01*
X1267884Y-57116D01*
X1262884Y-52116D01*
X1261561Y-51232D01*
X1260000Y-50922D01*
X1260000Y-50922D01*
X1200000D01*
X1198439Y-51232D01*
X1197116Y-52116D01*
X1197116Y-52116D01*
X1192116Y-57116D01*
X1191232Y-58439D01*
X1190922Y-60000D01*
X1190922Y-60000D01*
Y-106777D01*
X1189652Y-107162D01*
X1189326Y-106674D01*
X1187341Y-105348D01*
X1185000Y-104882D01*
X1182659Y-105348D01*
X1180674Y-106674D01*
X1179348Y-108659D01*
X1178883Y-111000D01*
X1179348Y-113341D01*
X1180674Y-115326D01*
X1182659Y-116652D01*
X1185000Y-117118D01*
X1187341Y-116652D01*
X1189326Y-115326D01*
X1189652Y-114838D01*
X1190922Y-115223D01*
Y-188209D01*
X1189652Y-188419D01*
X1188210Y-184173D01*
X1185818Y-179321D01*
X1182812Y-174823D01*
X1179245Y-170755D01*
X1175178Y-167188D01*
X1170679Y-164182D01*
X1165827Y-161790D01*
X1160704Y-160051D01*
X1157794Y-159472D01*
X1157609Y-159102D01*
X1157526Y-158124D01*
X1157881Y-157886D01*
X1157882Y-157886D01*
X1162884Y-152884D01*
X1162884Y-152884D01*
X1163768Y-151561D01*
X1164078Y-150000D01*
X1164078Y-150000D01*
X1164078Y-80000D01*
X1164078Y-80000D01*
X1163768Y-78439D01*
X1162884Y-77116D01*
X1162884Y-77116D01*
X1162019Y-76252D01*
X1162505Y-75078D01*
X1175000Y-75078D01*
X1175000Y-75078D01*
X1176561Y-74768D01*
X1177884Y-73884D01*
X1177884Y-73884D01*
X1182884Y-68884D01*
X1182884Y-68884D01*
X1183768Y-67561D01*
X1184079Y-66000D01*
X1184079Y-66000D01*
X1184079Y-36689D01*
X1186689Y-34078D01*
X1260000D01*
X1261561Y-33768D01*
X1262884Y-32884D01*
X1262884Y-32884D01*
X1267884Y-27884D01*
X1268768Y-26561D01*
X1269078Y-25000D01*
X1269078Y-25000D01*
Y60000D01*
X1269078Y60000D01*
X1268768Y61561D01*
X1267884Y62884D01*
X1262884Y67884D01*
X1261561Y68768D01*
X1260000Y69078D01*
X1260000Y69078D01*
X1153118D01*
X1151557Y68768D01*
X1150768Y69561D01*
X1149884Y70884D01*
X1149884Y70884D01*
X1145884Y74884D01*
X1144561Y75768D01*
X1143000Y76078D01*
X1143000Y76078D01*
X1078602D01*
X1078351Y76441D01*
X1078116Y77348D01*
X1082884Y82116D01*
X1082884Y82116D01*
X1083768Y83439D01*
X1084078Y85000D01*
Y94509D01*
X1084326Y94674D01*
X1085652Y96659D01*
X1086117Y99000D01*
X1085652Y101341D01*
X1084326Y103326D01*
X1082341Y104652D01*
X1080000Y105118D01*
X1077659Y104652D01*
X1075674Y103326D01*
X1074348Y101341D01*
X1073883Y99000D01*
X1074348Y96659D01*
X1075674Y94674D01*
X1075922Y94509D01*
Y86689D01*
X1073311Y84078D01*
X940000D01*
X938439Y83768D01*
X937878Y83393D01*
X936693Y84129D01*
X936808Y85000D01*
X936576Y86762D01*
X935896Y88404D01*
X935408Y89040D01*
X934911Y90000D01*
X935408Y90960D01*
X935896Y91596D01*
X936576Y93238D01*
X936808Y95000D01*
X936576Y96762D01*
X935896Y98404D01*
X934814Y99814D01*
Y100186D01*
X935896Y101596D01*
X936576Y103238D01*
X936808Y105000D01*
X936576Y106762D01*
X935896Y108404D01*
X934814Y109814D01*
X933404Y110896D01*
X931762Y111576D01*
X930000Y111808D01*
D02*
G37*
G36*
X701000Y87843D02*
X699147Y87474D01*
X697575Y86425D01*
X696526Y84853D01*
X696157Y83000D01*
X696526Y81147D01*
X697575Y79576D01*
X699147Y78526D01*
X701000Y78157D01*
X702853Y78526D01*
X704425Y79576D01*
X705474Y81147D01*
X705843Y83000D01*
X705474Y84853D01*
X704425Y86425D01*
X702853Y87474D01*
X701000Y87843D01*
D02*
G37*
G36*
X663000Y76843D02*
X661147Y76474D01*
X659575Y75424D01*
X658526Y73853D01*
X658157Y72000D01*
X658526Y70147D01*
X659575Y68575D01*
X661147Y67526D01*
X663000Y67157D01*
X664853Y67526D01*
X666424Y68575D01*
X667474Y70147D01*
X667843Y72000D01*
X667474Y73853D01*
X666424Y75424D01*
X664853Y76474D01*
X663000Y76843D01*
D02*
G37*
G36*
X886000Y41808D02*
X884238Y41576D01*
X882596Y40896D01*
X881186Y39814D01*
X880104Y38404D01*
X879424Y36762D01*
X879192Y35000D01*
X879424Y33238D01*
X880104Y31596D01*
X881186Y30186D01*
X882596Y29104D01*
X884238Y28424D01*
X886000Y28192D01*
X887762Y28424D01*
X889404Y29104D01*
X890814Y30186D01*
X891896Y31596D01*
X892576Y33238D01*
X892808Y35000D01*
X892576Y36762D01*
X891896Y38404D01*
X890814Y39814D01*
X889404Y40896D01*
X887762Y41576D01*
X886000Y41808D01*
D02*
G37*
G36*
X824000Y36843D02*
X822147Y36474D01*
X820575Y35425D01*
X819526Y33853D01*
X819157Y32000D01*
X819526Y30147D01*
X820575Y28575D01*
X822147Y27526D01*
X824000Y27157D01*
X825853Y27526D01*
X827425Y28575D01*
X828474Y30147D01*
X828843Y32000D01*
X828474Y33853D01*
X827425Y35425D01*
X825853Y36474D01*
X824000Y36843D01*
D02*
G37*
G36*
X492000Y253843D02*
X490147Y253474D01*
X488576Y252425D01*
X487526Y250853D01*
X487157Y249000D01*
X487526Y247147D01*
X488576Y245575D01*
X490147Y244526D01*
X492000Y244157D01*
X493853Y244526D01*
X495425Y245575D01*
X495669Y245941D01*
X577733D01*
X578941Y244733D01*
Y26000D01*
X578941Y26000D01*
X579174Y24829D01*
X579837Y23837D01*
X581837Y21837D01*
X582830Y21174D01*
X584000Y20941D01*
X590331D01*
X590575Y20575D01*
X592147Y19526D01*
X594000Y19157D01*
X595853Y19526D01*
X597425Y20575D01*
X598474Y22147D01*
X598843Y24000D01*
X598474Y25853D01*
X597425Y27425D01*
X595853Y28474D01*
X594000Y28843D01*
X592147Y28474D01*
X590575Y27425D01*
X590331Y27059D01*
X585267D01*
X585059Y27267D01*
Y246000D01*
X585059Y246000D01*
X584826Y247171D01*
X584163Y248163D01*
X584163Y248163D01*
X581163Y251163D01*
X580171Y251826D01*
X579000Y252059D01*
X579000Y252059D01*
X495669D01*
X495425Y252425D01*
X493853Y253474D01*
X492000Y253843D01*
D02*
G37*
G36*
X451500Y-1931D02*
X333000D01*
X330912Y-2206D01*
X328965Y-3012D01*
X327294Y-4294D01*
X317294Y-14294D01*
X316012Y-15965D01*
X315206Y-17912D01*
X314931Y-20000D01*
X315206Y-22088D01*
X316012Y-24035D01*
X317294Y-25706D01*
X318965Y-26988D01*
X320912Y-27794D01*
X323000Y-28069D01*
X325088Y-27794D01*
X327034Y-26988D01*
X328706Y-25706D01*
X336342Y-18069D01*
X451500D01*
X453588Y-17794D01*
X455535Y-16988D01*
X457206Y-15706D01*
X458488Y-14035D01*
X459294Y-12088D01*
X459569Y-10000D01*
X459294Y-7912D01*
X458488Y-5965D01*
X457206Y-4294D01*
X455535Y-3012D01*
X453588Y-2206D01*
X451500Y-1931D01*
D02*
G37*
%LPD*%
G36*
X1055000Y260000D02*
X1060000Y255000D01*
X1060001Y120000D01*
X1055001Y115000D01*
X945000Y115000D01*
X940000Y120000D01*
X940000Y255000D01*
X945000Y260000D01*
X1055000Y260000D01*
D02*
G37*
G36*
X1360000Y255000D02*
Y145000D01*
X1355000Y140000D01*
X1245000D01*
X1240000Y145000D01*
Y255000D01*
X1245000Y260000D01*
X1355000D01*
X1360000Y255000D01*
D02*
G37*
G36*
X770575Y-17425D02*
X772147Y-18474D01*
X774000Y-18843D01*
X774941Y-19828D01*
Y-39331D01*
X774575Y-39575D01*
X773526Y-41147D01*
X773157Y-43000D01*
X773526Y-44853D01*
X774575Y-46424D01*
X776147Y-47474D01*
X778000Y-47843D01*
X779853Y-47474D01*
X780671Y-46928D01*
X781941Y-47607D01*
Y-51393D01*
X780671Y-52072D01*
X779853Y-51526D01*
X778000Y-51157D01*
X776147Y-51526D01*
X774575Y-52575D01*
X773526Y-54147D01*
X773157Y-56000D01*
X773526Y-57853D01*
X774575Y-59425D01*
X776147Y-60474D01*
X778000Y-60843D01*
X779853Y-60474D01*
X781424Y-59425D01*
X781669Y-59059D01*
X783000D01*
X783000Y-59059D01*
X784171Y-58826D01*
X785163Y-58163D01*
X786671Y-56655D01*
X787941Y-57181D01*
Y-120733D01*
X787610Y-121064D01*
X786424Y-121575D01*
X784853Y-120526D01*
X783000Y-120157D01*
X781147Y-120526D01*
X779576Y-121575D01*
X778526Y-123147D01*
X778157Y-125000D01*
X778526Y-126853D01*
X779576Y-128425D01*
X781147Y-129474D01*
X783000Y-129843D01*
X784853Y-129474D01*
X786425Y-128425D01*
X786669Y-128059D01*
X788000D01*
X788000Y-128059D01*
X789171Y-127826D01*
X790163Y-127163D01*
X792651Y-124674D01*
X793500Y-124308D01*
X794349Y-124674D01*
X796837Y-127163D01*
X796837Y-127163D01*
X797830Y-127826D01*
X799000Y-128059D01*
X799000Y-128059D01*
X831733D01*
X833941Y-130267D01*
Y-138956D01*
X832768Y-139442D01*
X831163Y-137837D01*
X830171Y-137174D01*
X829000Y-136941D01*
X829000Y-136941D01*
X761267D01*
X759059Y-134733D01*
Y-60000D01*
X759059Y-60000D01*
X758826Y-58829D01*
X758163Y-57837D01*
X758163Y-57837D01*
X755059Y-54733D01*
Y-53441D01*
X756329Y-53055D01*
X756575Y-53425D01*
X758147Y-54474D01*
X760000Y-54843D01*
X761853Y-54474D01*
X763425Y-53425D01*
X764576D01*
X766147Y-54474D01*
X768000Y-54843D01*
X769853Y-54474D01*
X771424Y-53425D01*
X772474Y-51853D01*
X772843Y-50000D01*
X772474Y-48147D01*
X771424Y-46575D01*
X769853Y-45526D01*
X769059Y-45367D01*
Y-17441D01*
X770329Y-17055D01*
X770575Y-17425D01*
D02*
G37*
G36*
X753941Y18393D02*
Y-2944D01*
X753670Y-3089D01*
X752671Y-3489D01*
X751000Y-3157D01*
X749147Y-3526D01*
X747575Y-4575D01*
X746526Y-6147D01*
X746329Y-7136D01*
X745059Y-7011D01*
Y13733D01*
X749569Y18243D01*
X750000Y18157D01*
X751853Y18526D01*
X752671Y19072D01*
X753941Y18393D01*
D02*
G37*
G36*
X1265000Y-60000D02*
Y-145000D01*
X1270000Y-150000D01*
X1355000D01*
X1360000Y-155000D01*
Y-255000D01*
X1355000Y-260000D01*
X1200000D01*
X1195000Y-255000D01*
Y-60000D01*
X1200000Y-55000D01*
X1260000D01*
X1265000Y-60000D01*
D02*
G37*
G36*
X1160000Y-80000D02*
X1160000Y-150000D01*
X1154998Y-155002D01*
X1129998Y-155002D01*
X1105000Y-180000D01*
X1105000Y-255000D01*
X1100000Y-260000D01*
X945000Y-260000D01*
X940000Y-255000D01*
Y-155000D01*
X940000Y-86111D01*
X940766Y-85851D01*
X941270Y-85764D01*
X942866Y-86988D01*
X944812Y-87794D01*
X946900Y-88069D01*
X948988Y-87794D01*
X950935Y-86988D01*
X952606Y-85706D01*
X953888Y-84035D01*
X954694Y-82088D01*
X954969Y-80000D01*
X954694Y-77912D01*
X954014Y-76270D01*
X954582Y-75000D01*
X1059318Y-75000D01*
X1059886Y-76270D01*
X1059206Y-77912D01*
X1058931Y-80000D01*
X1059206Y-82088D01*
X1060012Y-84035D01*
X1061294Y-85706D01*
X1062965Y-86988D01*
X1064912Y-87794D01*
X1067000Y-88069D01*
X1069088Y-87794D01*
X1071034Y-86988D01*
X1072706Y-85706D01*
X1073988Y-84035D01*
X1074794Y-82088D01*
X1075069Y-80000D01*
X1074794Y-77912D01*
X1074114Y-76270D01*
X1074682Y-75000D01*
X1155000Y-75000D01*
X1160000Y-80000D01*
D02*
G37*
G36*
X1120000Y65000D02*
X1140882D01*
Y63169D01*
X1140012Y62035D01*
X1139206Y60088D01*
X1138931Y58000D01*
X1139206Y55912D01*
X1140012Y53966D01*
X1141294Y52294D01*
X1142965Y51012D01*
X1144912Y50206D01*
X1147000Y49931D01*
X1149088Y50206D01*
X1151034Y51012D01*
X1152706Y52294D01*
X1153988Y53966D01*
X1154794Y55912D01*
X1155069Y58000D01*
X1154794Y60088D01*
X1153988Y62035D01*
X1153118Y63169D01*
Y65000D01*
X1260000D01*
X1265000Y60000D01*
Y-25000D01*
X1260000Y-30000D01*
X1185000D01*
X1180000Y-35000D01*
X1180000Y-66000D01*
X1175000Y-71000D01*
X1155393Y-71000D01*
X1155000Y-70922D01*
X1155000Y-70922D01*
X1074682Y-70922D01*
X1074289Y-71000D01*
X1059711D01*
X1059318Y-70922D01*
X954582Y-70922D01*
X954189Y-71000D01*
X940000D01*
X935117Y-66118D01*
Y55118D01*
X945001Y65000D01*
X1120000Y65000D01*
D02*
G37*
%LPC*%
G36*
X137100Y-107006D02*
X133277Y-107382D01*
X129602Y-108497D01*
X126214Y-110308D01*
X123245Y-112745D01*
X120808Y-115714D01*
X118997Y-119101D01*
X117882Y-122777D01*
X117506Y-126600D01*
X117882Y-130423D01*
X118997Y-134098D01*
X120808Y-137486D01*
X123245Y-140455D01*
X126214Y-142892D01*
X129602Y-144703D01*
X133277Y-145818D01*
X137100Y-146194D01*
X140923Y-145818D01*
X144598Y-144703D01*
X147986Y-142892D01*
X150955Y-140455D01*
X153392Y-137486D01*
X155203Y-134098D01*
X156318Y-130423D01*
X156694Y-126600D01*
X156318Y-122777D01*
X155203Y-119101D01*
X153392Y-115714D01*
X150955Y-112745D01*
X147986Y-110308D01*
X144598Y-108497D01*
X140923Y-107382D01*
X137100Y-107006D01*
D02*
G37*
G36*
Y146194D02*
X133277Y145818D01*
X129602Y144703D01*
X126214Y142892D01*
X123245Y140455D01*
X120808Y137486D01*
X118997Y134098D01*
X117882Y130423D01*
X117506Y126600D01*
X117882Y122777D01*
X118997Y119102D01*
X120808Y115714D01*
X123245Y112745D01*
X126214Y110308D01*
X129602Y108497D01*
X133277Y107382D01*
X137100Y107006D01*
X140923Y107382D01*
X144598Y108497D01*
X147986Y110308D01*
X150955Y112745D01*
X153392Y115714D01*
X155203Y119102D01*
X156318Y122777D01*
X156694Y126600D01*
X156318Y130423D01*
X155203Y134098D01*
X153392Y137486D01*
X150955Y140455D01*
X147986Y142892D01*
X144598Y144703D01*
X140923Y145818D01*
X137100Y146194D01*
D02*
G37*
%LPD*%
D18*
X725250Y-221000D02*
D03*
X742750D02*
D03*
D52*
X727500Y-245500D02*
D03*
X752500D02*
D03*
X740000D02*
D03*
X765000D02*
D03*
X715000D02*
D03*
X732500Y246000D02*
D03*
X707500D02*
D03*
X720000D02*
D03*
X695000D02*
D03*
X745000D02*
D03*
D53*
X790500Y-275000D02*
D03*
X689500D02*
D03*
X669500Y275500D02*
D03*
X770500D02*
D03*
D76*
X297000Y262000D02*
X305000Y270000D01*
X297000Y160000D02*
Y262000D01*
X260000Y123000D02*
X297000Y160000D01*
X310000Y142000D02*
Y172000D01*
X317000Y179000D01*
Y189000D01*
X265000Y-121232D02*
X282000Y-138232D01*
Y-164000D02*
Y-138232D01*
Y-164000D02*
X299000Y-181000D01*
X265000Y-121232D02*
Y-112000D01*
X258000Y-105000D02*
X265000Y-112000D01*
X299000Y-262000D02*
Y-181000D01*
X300000Y0D02*
X305000Y5000D01*
X300000Y-10000D02*
Y0D01*
X295000Y-15000D02*
X300000Y-10000D01*
X305000Y97000D02*
X317000D01*
X300000Y92000D02*
X305000Y97000D01*
X300000Y30000D02*
Y92000D01*
X285000Y15000D02*
X300000Y30000D01*
Y-158000D02*
X317000Y-175000D01*
X300000Y-158000D02*
Y-125000D01*
X317000Y-179000D02*
Y-175000D01*
X280000Y-75000D02*
X285000Y-80000D01*
Y-110000D02*
Y-80000D01*
Y-110000D02*
X300000Y-125000D01*
X294000Y-45000D02*
X300000Y-51000D01*
Y-82000D02*
Y-51000D01*
Y-82000D02*
X305000Y-87000D01*
X299000Y-262000D02*
X305000Y-268000D01*
Y-87000D02*
X317000D01*
X305000Y5000D02*
X317000D01*
X213000Y-105000D02*
X258000D01*
X213000Y-75000D02*
X280000D01*
X213000Y-45000D02*
X294000D01*
X213000Y-15000D02*
X295000D01*
X213000Y15000D02*
X285000D01*
X280000Y112000D02*
X310000Y142000D01*
X213000Y45000D02*
X269000D01*
X280000Y56000D01*
Y112000D01*
X213000Y75000D02*
X252000D01*
X260000Y83000D01*
Y123000D01*
D77*
X724250Y-221000D02*
X727500Y-224250D01*
Y-245500D02*
Y-224250D01*
X740000Y-222750D02*
X741750Y-221000D01*
X740000Y-245500D02*
Y-222750D01*
X725000Y-269000D02*
Y-260000D01*
Y-269000D02*
X728000Y-272000D01*
X753000D01*
X756000Y-269000D01*
Y-256047D01*
X752500Y-252547D02*
X756000Y-256047D01*
X752500Y-252547D02*
Y-245500D01*
X740000Y-260000D02*
Y-245500D01*
X765000Y-260000D02*
Y-245500D01*
X582000Y-245000D02*
X590000D01*
X581000Y-167000D02*
X589000D01*
X575000Y-169000D02*
X577000Y-167000D01*
X581000D01*
X575000Y-242000D02*
Y-169000D01*
Y-242000D02*
X578000Y-245000D01*
X582000D01*
X29996Y-30478D02*
X16665Y-40000D01*
Y-25717D01*
X29996Y-30478D02*
X10000D01*
D78*
X749000Y-264000D02*
Y-260000D01*
X747000Y-266000D02*
X749000Y-264000D01*
X735000Y-266000D02*
X747000D01*
X732223Y-263223D02*
X735000Y-266000D01*
X732223Y-263223D02*
Y-256770D01*
X727500Y-252047D02*
X732223Y-256770D01*
X727500Y-252047D02*
Y-245500D01*
X628000Y-36000D02*
Y213000D01*
X595000Y215000D02*
X626000D01*
X628000Y213000D01*
X827000Y-34000D02*
X830000Y-37000D01*
X789000Y54000D02*
X792000D01*
X779000Y64000D02*
X789000Y54000D01*
X863000Y-189000D02*
Y-183000D01*
X860000Y-180000D02*
X863000Y-183000D01*
X840000Y-180000D02*
X860000D01*
X837000Y-177000D02*
X840000Y-180000D01*
X837000Y-177000D02*
Y-129000D01*
X833000Y-125000D02*
X837000Y-129000D01*
X799000Y-125000D02*
X833000D01*
X796000Y-122000D02*
X799000Y-125000D01*
X791000Y-122000D02*
Y-15000D01*
X788000Y-125000D02*
X791000Y-122000D01*
X783000Y-125000D02*
X788000D01*
X785000Y-54000D02*
Y-16000D01*
X783000Y-56000D02*
X785000Y-54000D01*
X778000Y-56000D02*
X783000D01*
X808000Y50000D02*
X816000D01*
X807000Y56000D02*
X870000D01*
X781000Y23000D02*
X808000Y50000D01*
X777000Y26000D02*
X807000Y56000D01*
X796000Y-122000D02*
Y-13000D01*
X781000Y2000D02*
X796000Y-13000D01*
X781000Y2000D02*
Y23000D01*
X777000Y-1000D02*
X791000Y-15000D01*
X777000Y-1000D02*
Y26000D01*
X772000Y-3000D02*
X785000Y-16000D01*
X772000Y-3000D02*
Y29000D01*
X774000Y-14000D02*
X778000Y-18000D01*
Y-43000D02*
Y-18000D01*
X785000Y17000D02*
X799000Y31000D01*
X785000Y12000D02*
Y17000D01*
Y12000D02*
X787000Y10000D01*
X870000Y56000D02*
X872000Y58000D01*
X844000Y64000D02*
Y82000D01*
Y64000D02*
X846000Y62000D01*
X864000D01*
X790000Y70000D02*
X798250Y61750D01*
X832750D01*
X833000Y62000D01*
X874000Y-222000D02*
X900000D01*
X836000Y-218000D02*
X851000D01*
X832000Y-214000D02*
X836000Y-218000D01*
X832000Y-214000D02*
Y-143000D01*
X492000Y249000D02*
X492000Y249000D01*
X579000D01*
X582000Y246000D01*
Y26000D02*
Y246000D01*
Y26000D02*
X584000Y24000D01*
X594000D01*
X492000Y203000D02*
X571000D01*
X574000Y200000D01*
Y16000D02*
Y200000D01*
Y16000D02*
X576000Y14000D01*
X492000Y157000D02*
X564000D01*
X566000Y155000D01*
Y6000D02*
Y155000D01*
Y6000D02*
X568000Y4000D01*
X594000D01*
X492000Y111000D02*
X556000D01*
X558000Y109000D01*
Y-4000D02*
Y109000D01*
Y-4000D02*
X560000Y-6000D01*
X492000Y65000D02*
X547000D01*
X550000Y62000D01*
Y-14000D02*
Y62000D01*
Y-14000D02*
X552000Y-16000D01*
X492000Y19000D02*
X539000D01*
X542000Y16000D01*
Y-24000D02*
Y16000D01*
Y-24000D02*
X544000Y-26000D01*
X534000Y-49000D02*
X537000Y-46000D01*
X534000Y-71000D02*
Y-49000D01*
X492000Y-27000D02*
X532000D01*
X533941Y-28941D01*
Y-34000D02*
Y-28941D01*
Y-34000D02*
X535941Y-36000D01*
X594000D01*
X532000Y-73000D02*
X534000Y-71000D01*
X492000Y-73000D02*
X532000D01*
X542000Y-60000D02*
X546000Y-56000D01*
X542000Y-116000D02*
Y-60000D01*
X539000Y-119000D02*
X542000Y-116000D01*
X492000Y-119000D02*
X539000D01*
X546000Y-56000D02*
X594000D01*
X550000Y-69000D02*
X553000Y-66000D01*
X550000Y-163000D02*
Y-69000D01*
X548000Y-165000D02*
X550000Y-163000D01*
X492000Y-165000D02*
X548000D01*
X561000Y-106000D02*
X594000D01*
X558000Y-109000D02*
X561000Y-106000D01*
X558000Y-209000D02*
Y-109000D01*
X556000Y-211000D02*
X558000Y-209000D01*
X569000Y-116000D02*
X594000D01*
X566000Y-119000D02*
X569000Y-116000D01*
X566000Y-250000D02*
Y-119000D01*
X564000Y-252000D02*
X566000Y-250000D01*
X497000Y-252000D02*
X564000D01*
X738000Y-67000D02*
Y-62000D01*
X714000Y23000D02*
X725000D01*
X727000Y21000D01*
X722000Y-63000D02*
X727000Y-58000D01*
X722000Y-67000D02*
Y-63000D01*
X732000Y-61000D02*
X732000D01*
X730000Y-63000D02*
X732000Y-61000D01*
X730000Y-67000D02*
Y-63000D01*
X746000Y-67000D02*
Y-63000D01*
X851000Y-148000D02*
X895000D01*
X844000Y-166000D02*
X895000D01*
X843000Y-165000D02*
X844000Y-166000D01*
X843000Y-165000D02*
Y-148000D01*
X876000Y212000D02*
Y220000D01*
X874000Y210000D02*
X876000Y212000D01*
X850000Y208000D02*
X852000Y210000D01*
X874000D01*
X868000Y220000D02*
Y226000D01*
X866000Y228000D02*
X868000Y226000D01*
X858000Y228000D02*
X866000D01*
X856000Y230000D02*
X858000Y228000D01*
X856000Y230000D02*
Y237000D01*
X663000Y15000D02*
X695000D01*
X698000Y18000D01*
X720000Y42000D02*
X724000Y46000D01*
X726000Y36000D02*
X730000Y40000D01*
X663000Y25000D02*
X666000Y28000D01*
X714000Y48000D02*
X718000Y52000D01*
X666000Y28000D02*
X689000D01*
X697000Y36000D01*
X726000D01*
X673000Y-46000D02*
X687000D01*
X666000Y-39000D02*
X673000Y-46000D01*
X636000Y-39000D02*
X666000D01*
X672000Y-56000D02*
X687000D01*
X663000Y-47000D02*
X672000Y-56000D01*
X636000Y-47000D02*
X663000D01*
X604000Y-175000D02*
Y-146000D01*
X601000Y-178000D02*
X604000Y-175000D01*
X621000Y-148000D02*
X623000Y-146000D01*
X617000Y-197000D02*
Y-148000D01*
X615000Y-146000D02*
X617000Y-148000D01*
X621000Y-199000D02*
Y-148000D01*
X609000Y-223000D02*
X611000Y-225000D01*
X609000Y-223000D02*
Y-211000D01*
X621000Y-199000D01*
X603000Y-225000D02*
X605000Y-223000D01*
Y-209000D01*
X617000Y-197000D01*
X799000Y31000D02*
X803000D01*
X827000Y7000D01*
Y-34000D02*
Y7000D01*
X794000Y17000D02*
X799000D01*
X819000Y-3000D01*
Y-51000D02*
Y-3000D01*
Y-51000D02*
X821000Y-53000D01*
X830000D01*
X801000Y21000D02*
Y24000D01*
Y21000D02*
X823000Y-1000D01*
Y-43000D02*
Y-1000D01*
Y-43000D02*
X825000Y-45000D01*
X830000D01*
X687000Y72000D02*
X710000D01*
X777424Y41576D02*
X780000Y39000D01*
X773576Y41576D02*
X777424D01*
X781000Y50000D02*
X786000Y45000D01*
X775000Y50000D02*
X781000D01*
X647000Y-14000D02*
X650000Y-17000D01*
Y56000D02*
X700000D01*
X647000Y53000D02*
X650000Y56000D01*
X647000Y-14000D02*
Y53000D01*
X708000Y56000D02*
Y60000D01*
X706000Y62000D02*
X708000Y60000D01*
X645000Y62000D02*
X706000D01*
X657000Y-82000D02*
X660000Y-79000D01*
X658000Y-75000D02*
X696000D01*
X660000Y-79000D02*
X698000D01*
X705000Y-72000D01*
X696000Y-75000D02*
X701000Y-70000D01*
Y-26000D01*
X650000Y-17000D02*
X698000D01*
X705000Y-24000D01*
Y-72000D02*
Y-24000D01*
X648000Y-21000D02*
X696000D01*
X701000Y-26000D01*
X643000Y-16000D02*
X648000Y-21000D01*
X643000Y-16000D02*
Y60000D01*
X645000Y62000D01*
X585000Y-195000D02*
Y-180000D01*
X587000Y-178000D01*
X601000D01*
X552000Y-16000D02*
X594000D01*
X492000Y-211000D02*
X556000D01*
X492000Y-257000D02*
X497000Y-252000D01*
X779000Y109000D02*
X782000Y112000D01*
X776000Y109000D02*
X779000D01*
X737000Y148000D02*
X776000Y109000D01*
X737000Y148000D02*
Y198000D01*
X792000Y94000D02*
X796000Y98000D01*
X785000Y94000D02*
X792000D01*
X729000Y150000D02*
X785000Y94000D01*
X729000Y150000D02*
Y198000D01*
X721000Y152000D02*
Y198000D01*
X789000Y105000D02*
X793000Y109000D01*
Y112000D01*
X757000Y148000D02*
X793000Y112000D01*
X757000Y148000D02*
Y160000D01*
X576000Y14000D02*
X600000D01*
X560000Y-6000D02*
X600000D01*
X544000Y-26000D02*
X600000D01*
X537000Y-46000D02*
X600000D01*
X553000Y-66000D02*
X600000D01*
X721000Y152000D02*
X788000Y85000D01*
X797000D01*
X804000Y92000D01*
X807000Y67000D02*
X814000D01*
X732500Y213500D02*
Y246000D01*
X720000Y221000D02*
Y246000D01*
X797000Y77000D02*
X807000Y67000D01*
X710000Y150000D02*
X783000Y77000D01*
X797000D01*
X779000Y64000D02*
Y70000D01*
X702000Y147000D02*
X779000Y70000D01*
X712000Y211000D02*
X730000D01*
X710000Y209000D02*
X712000Y211000D01*
X710000Y150000D02*
Y209000D01*
X730000Y211000D02*
X732500Y213500D01*
X718000Y219000D02*
X720000Y221000D01*
X710000Y72000D02*
X725000Y87000D01*
X733000Y79000D01*
X725000Y87000D02*
X736000Y98000D01*
Y101000D01*
X690000Y147000D02*
X736000Y101000D01*
X702000Y147000D02*
Y211674D01*
X709326Y219000D01*
X718000D01*
X690000Y212000D02*
X707500Y229500D01*
Y246000D01*
X690000Y147000D02*
Y212000D01*
X663000Y45000D02*
X671000D01*
X674000Y48000D01*
X714000D01*
X663000Y35000D02*
X671000D01*
X678000Y42000D01*
X720000D01*
X810000Y79000D02*
X820000Y89000D01*
Y97000D01*
X745000Y211000D02*
X764000D01*
X850000Y131000D02*
Y208000D01*
Y131000D02*
X854000Y127000D01*
X631000Y-39000D02*
X636000D01*
X628000Y-36000D02*
X631000Y-39000D01*
X626000Y-47000D02*
X636000D01*
X623000Y-44000D02*
X626000Y-47000D01*
X623000Y-44000D02*
Y203000D01*
X621000Y205000D02*
X623000Y203000D01*
X595000Y205000D02*
X621000D01*
X766000Y-48000D02*
X768000Y-50000D01*
X766000Y-48000D02*
Y34000D01*
X773576Y41576D01*
X762000Y37000D02*
X775000Y50000D01*
X727000Y-58000D02*
Y21000D01*
X732000Y29000D02*
X737000Y34000D01*
X732000Y-61000D02*
Y29000D01*
X737000Y22000D02*
X744000Y29000D01*
X737000Y-61000D02*
X738000Y-62000D01*
X742000Y15000D02*
X750000Y23000D01*
X742000Y-59000D02*
X746000Y-63000D01*
X737000Y-61000D02*
Y22000D01*
X742000Y-59000D02*
Y15000D01*
X760000Y-50000D02*
X762000Y-48000D01*
Y37000D01*
X589000Y-167000D02*
Y-139000D01*
X592000Y-136000D01*
X701000D01*
X704000Y-133000D01*
Y-103000D01*
X653000Y-80000D02*
X658000Y-75000D01*
X657000Y-119110D02*
Y-82000D01*
Y-119110D02*
X660000Y-122110D01*
X650000Y-122000D02*
X653000Y-119000D01*
Y-80000D01*
X650000Y-125000D02*
Y-122000D01*
X660000Y-125000D02*
Y-122110D01*
X774000Y152000D02*
X844000Y82000D01*
X774000Y152000D02*
Y226000D01*
X772000Y228000D02*
X774000Y226000D01*
X768000Y149000D02*
X820000Y97000D01*
X768000Y149000D02*
Y207000D01*
X764000Y211000D02*
X768000Y207000D01*
X876000Y127000D02*
X878000Y129000D01*
X876000Y117000D02*
Y127000D01*
X874000Y115000D02*
X876000Y117000D01*
X785000Y158000D02*
X797000D01*
X840000Y115000D01*
X874000D01*
X878000Y129000D02*
X920000D01*
X716000Y62000D02*
X721000D01*
X757000Y26000D01*
Y-15000D02*
Y26000D01*
X752000Y-20000D02*
X757000Y-15000D01*
X752000Y-56000D02*
Y-20000D01*
Y-56000D02*
X756000Y-60000D01*
Y-136000D02*
Y-60000D01*
Y-136000D02*
X760000Y-140000D01*
X829000D01*
X832000Y-143000D01*
D79*
X333000Y-240000D02*
X451500D01*
X323000Y-250000D02*
X333000Y-240000D01*
X323000Y-204000D02*
X333000Y-194000D01*
X451500D01*
X323000Y-158000D02*
X333000Y-148000D01*
X451500D01*
X323000Y-112000D02*
X333000Y-102000D01*
X451500D01*
X323000Y-66000D02*
X333000Y-56000D01*
X451500D01*
X323000Y-20000D02*
X333000Y-10000D01*
X451500D01*
X323000Y26000D02*
X333000Y36000D01*
X451500D01*
X323000Y118000D02*
X333000Y128000D01*
X451500D01*
X323000Y164000D02*
X333000Y174000D01*
X451500D01*
X323000Y72000D02*
X333000Y82000D01*
X451500D01*
X323000Y210000D02*
X333000Y220000D01*
X451500D01*
X323000Y256000D02*
X333000Y266000D01*
X451500D01*
X1305000Y110000D02*
X1315000D01*
D80*
X655000D02*
Y200000D01*
X650000Y205000D02*
X655000Y200000D01*
X643000Y205000D02*
X650000D01*
X695000Y246000D02*
Y263000D01*
Y271000D01*
X931000Y275000D02*
X932000D01*
X900000Y200000D02*
X905000Y205000D01*
X900000Y185000D02*
Y200000D01*
X895000Y180000D02*
X900000Y185000D01*
X868000Y180000D02*
X895000D01*
X863000Y175000D02*
X868000Y180000D01*
X863000Y162000D02*
Y169000D01*
Y175000D01*
X905000Y205000D02*
X928000D01*
X932000Y209000D01*
Y275000D01*
X720000Y263000D02*
Y271000D01*
X745000Y190000D02*
Y198000D01*
X924000Y275000D02*
X931000D01*
D82*
X1143000Y72000D02*
X1147000Y68000D01*
Y58000D02*
Y68000D01*
X905000Y-93000D02*
Y-77000D01*
X907000Y-75000D01*
X923000Y-93000D02*
Y-78000D01*
X907000Y-75000D02*
X916000D01*
X923000Y-78000D02*
X929000Y-72000D01*
Y58000D01*
X943000Y72000D01*
X1143000D01*
X921000Y61000D02*
X940000Y80000D01*
X1075000D01*
X1080000Y85000D01*
Y99000D01*
X916000Y-75000D02*
X921000Y-70000D01*
Y61000D01*
D84*
X1150000Y-200000D02*
D03*
Y200000D02*
D03*
X250000D02*
D03*
Y-200000D02*
D03*
D85*
X625000Y250000D02*
D03*
X895000D02*
D03*
D86*
X870000Y195000D02*
D03*
X862500Y200000D02*
D03*
Y190000D02*
D03*
X877500D02*
D03*
Y200000D02*
D03*
D87*
X1261900Y-212700D02*
D03*
Y-187300D02*
D03*
Y-161900D02*
D03*
X1287300D02*
D03*
X1312700D02*
D03*
X1338100D02*
D03*
Y-187300D02*
D03*
Y-212700D02*
D03*
Y-238100D02*
D03*
X1261900D02*
D03*
X1287300D02*
D03*
X1312700D02*
D03*
X961900Y187300D02*
D03*
Y212700D02*
D03*
Y238100D02*
D03*
X987300D02*
D03*
X1012700D02*
D03*
X1038100D02*
D03*
Y212700D02*
D03*
Y187300D02*
D03*
Y161900D02*
D03*
X961900D02*
D03*
X987300D02*
D03*
X1012700D02*
D03*
X961900Y-212700D02*
D03*
Y-187300D02*
D03*
Y-161900D02*
D03*
X987300D02*
D03*
X1012700D02*
D03*
X1038100D02*
D03*
Y-187300D02*
D03*
Y-212700D02*
D03*
Y-238100D02*
D03*
X961900D02*
D03*
X987300D02*
D03*
X1012700D02*
D03*
X61900Y187300D02*
D03*
Y212700D02*
D03*
Y238100D02*
D03*
X87300D02*
D03*
X112700D02*
D03*
X138100D02*
D03*
Y212700D02*
D03*
Y187300D02*
D03*
Y161900D02*
D03*
X61900D02*
D03*
X87300D02*
D03*
X112700D02*
D03*
X61900Y-212700D02*
D03*
Y-187300D02*
D03*
Y-161900D02*
D03*
X87300D02*
D03*
X112700D02*
D03*
X138100D02*
D03*
Y-187300D02*
D03*
Y-212700D02*
D03*
Y-238100D02*
D03*
X61900D02*
D03*
X87300D02*
D03*
X112700D02*
D03*
X1261900Y187300D02*
D03*
Y212700D02*
D03*
Y238100D02*
D03*
X1287300D02*
D03*
X1312700D02*
D03*
X1338100D02*
D03*
Y212700D02*
D03*
Y187300D02*
D03*
Y161900D02*
D03*
X1261900D02*
D03*
X1287300D02*
D03*
X1312700D02*
D03*
X900000Y-222000D02*
D03*
Y-272000D02*
D03*
D88*
X574250Y-280500D02*
D03*
X645750D02*
D03*
D89*
X137100Y126600D02*
D03*
Y-126600D02*
D03*
D90*
X725000Y-260000D02*
D03*
X740000Y-285000D02*
D03*
X749000Y-260000D02*
D03*
X765000D02*
D03*
X740000D02*
D03*
X650000Y205000D02*
D03*
X643000D02*
D03*
X575000Y225000D02*
D03*
X920000D02*
D03*
X905000Y215000D02*
D03*
X864000Y237000D02*
D03*
X656000Y86000D02*
D03*
Y96000D02*
D03*
X830000Y-37000D02*
D03*
X846000Y-43000D02*
D03*
X792000Y54000D02*
D03*
X808000Y-212000D02*
D03*
X844000Y48000D02*
D03*
X856000Y71000D02*
D03*
X895000Y58000D02*
D03*
X783000Y-125000D02*
D03*
X816000Y50000D02*
D03*
X774000Y-14000D02*
D03*
X864000Y62000D02*
D03*
X833000D02*
D03*
X701000Y83000D02*
D03*
X874000Y-222000D02*
D03*
X863000Y-189000D02*
D03*
X851000Y-218000D02*
D03*
X790000Y70000D02*
D03*
X785000Y175000D02*
D03*
X599000Y91000D02*
D03*
X605000Y155000D02*
D03*
X636000Y-2000D02*
D03*
Y16000D02*
D03*
Y7000D02*
D03*
X375000Y235000D02*
D03*
X401000D02*
D03*
Y255000D02*
D03*
X375000D02*
D03*
X388000Y235000D02*
D03*
X375000Y245000D02*
D03*
X388000D02*
D03*
X401000D02*
D03*
X388000Y255000D02*
D03*
X375000Y189000D02*
D03*
X401000D02*
D03*
Y209000D02*
D03*
X375000D02*
D03*
X388000Y189000D02*
D03*
X375000Y199000D02*
D03*
X388000D02*
D03*
X401000D02*
D03*
X388000Y209000D02*
D03*
X375000Y143000D02*
D03*
X401000D02*
D03*
Y163000D02*
D03*
X375000D02*
D03*
X388000Y143000D02*
D03*
X375000Y153000D02*
D03*
X388000D02*
D03*
X401000D02*
D03*
X388000Y163000D02*
D03*
X375000Y97000D02*
D03*
X401000D02*
D03*
Y117000D02*
D03*
X375000D02*
D03*
X388000Y97000D02*
D03*
X375000Y107000D02*
D03*
X388000D02*
D03*
X401000D02*
D03*
X388000Y117000D02*
D03*
X375000Y51000D02*
D03*
X401000D02*
D03*
Y71000D02*
D03*
X375000D02*
D03*
X388000Y51000D02*
D03*
X375000Y61000D02*
D03*
X388000D02*
D03*
X401000D02*
D03*
X388000Y71000D02*
D03*
X375000Y5000D02*
D03*
X401000D02*
D03*
Y25000D02*
D03*
X375000D02*
D03*
X388000Y5000D02*
D03*
X375000Y15000D02*
D03*
X388000D02*
D03*
X401000D02*
D03*
X388000Y25000D02*
D03*
X375000Y-41000D02*
D03*
X401000D02*
D03*
Y-21000D02*
D03*
X375000D02*
D03*
X388000Y-41000D02*
D03*
X375000Y-31000D02*
D03*
X388000D02*
D03*
X401000D02*
D03*
X388000Y-21000D02*
D03*
X375000Y-87000D02*
D03*
X401000D02*
D03*
Y-67000D02*
D03*
X375000D02*
D03*
X388000Y-87000D02*
D03*
X375000Y-77000D02*
D03*
X388000D02*
D03*
X401000D02*
D03*
X388000Y-67000D02*
D03*
X375000Y-133000D02*
D03*
X401000D02*
D03*
Y-113000D02*
D03*
X375000D02*
D03*
X388000Y-133000D02*
D03*
X375000Y-123000D02*
D03*
X388000D02*
D03*
X401000D02*
D03*
X388000Y-113000D02*
D03*
X375000Y-179000D02*
D03*
X401000D02*
D03*
Y-159000D02*
D03*
X375000D02*
D03*
X388000Y-179000D02*
D03*
X375000Y-169000D02*
D03*
X388000D02*
D03*
X401000D02*
D03*
X388000Y-159000D02*
D03*
X375000Y-225000D02*
D03*
X401000D02*
D03*
Y-205000D02*
D03*
X375000D02*
D03*
X388000Y-225000D02*
D03*
X375000Y-215000D02*
D03*
X388000D02*
D03*
X401000D02*
D03*
X388000Y-205000D02*
D03*
Y-251000D02*
D03*
X401000Y-261000D02*
D03*
X388000D02*
D03*
X375000D02*
D03*
X388000Y-271000D02*
D03*
X375000Y-251000D02*
D03*
X401000D02*
D03*
Y-271000D02*
D03*
X375000D02*
D03*
X530000Y-44000D02*
D03*
X821000Y-67000D02*
D03*
X714000D02*
D03*
X744000Y29000D02*
D03*
X738000Y-67000D02*
D03*
X839000D02*
D03*
X714000Y23000D02*
D03*
X722000Y-67000D02*
D03*
X859000D02*
D03*
X737000Y34000D02*
D03*
X730000Y-67000D02*
D03*
X849000D02*
D03*
X746000D02*
D03*
X829000D02*
D03*
X750000Y23000D02*
D03*
X705000Y10000D02*
D03*
X707000Y0D02*
D03*
X706000Y23000D02*
D03*
X751000Y0D02*
D03*
X529750Y230250D02*
D03*
X521750D02*
D03*
X529750Y184250D02*
D03*
X521750D02*
D03*
X529750Y138250D02*
D03*
X521750D02*
D03*
X529750Y92250D02*
D03*
X521750D02*
D03*
X529750Y46250D02*
D03*
X521750D02*
D03*
X529750Y250D02*
D03*
X521750D02*
D03*
Y-45750D02*
D03*
X529750Y-91750D02*
D03*
X521750D02*
D03*
X529750Y-137750D02*
D03*
X521750D02*
D03*
X529750Y-183750D02*
D03*
X521750D02*
D03*
X529750Y-229750D02*
D03*
X521750D02*
D03*
X537000Y-261000D02*
D03*
Y-269000D02*
D03*
X-390000Y-72000D02*
D03*
X897000Y-64000D02*
D03*
X865000Y-58000D02*
D03*
X783000Y-221000D02*
D03*
X773000D02*
D03*
X637000Y-129000D02*
D03*
X650000Y-265000D02*
D03*
Y-255000D02*
D03*
X570000Y-265000D02*
D03*
Y-255000D02*
D03*
X590000Y-245000D02*
D03*
X582000D02*
D03*
X859000Y-3000D02*
D03*
X784000Y-69000D02*
D03*
X808000D02*
D03*
X687000Y-46000D02*
D03*
Y-56000D02*
D03*
X733000Y79000D02*
D03*
X727000Y73000D02*
D03*
X663000Y72000D02*
D03*
X687000D02*
D03*
X700000Y123000D02*
D03*
X681000Y141000D02*
D03*
X645000Y-156000D02*
D03*
X597000Y-266000D02*
D03*
X623000D02*
D03*
X625000Y-243000D02*
D03*
X632000Y-233000D02*
D03*
X619000Y-221000D02*
D03*
X597000Y-213000D02*
D03*
X603000Y-225000D02*
D03*
X611000D02*
D03*
X650000D02*
D03*
Y-205000D02*
D03*
X660000Y-215000D02*
D03*
X604000Y-146000D02*
D03*
X610000Y-186000D02*
D03*
X628000D02*
D03*
Y-168000D02*
D03*
X610000D02*
D03*
X637000Y-146000D02*
D03*
X623000D02*
D03*
X615000D02*
D03*
X781000Y228000D02*
D03*
Y253000D02*
D03*
Y245000D02*
D03*
Y237000D02*
D03*
X832000Y245000D02*
D03*
X808000D02*
D03*
Y276000D02*
D03*
X832000D02*
D03*
Y268000D02*
D03*
X808000D02*
D03*
X931000Y275000D02*
D03*
X970000Y271000D02*
D03*
Y279000D02*
D03*
X843000Y140000D02*
D03*
Y155000D02*
D03*
Y148000D02*
D03*
X925000Y141000D02*
D03*
Y148000D02*
D03*
Y155000D02*
D03*
Y163000D02*
D03*
Y174000D02*
D03*
Y185000D02*
D03*
X863000Y162000D02*
D03*
Y169000D02*
D03*
X872000Y167000D02*
D03*
X877000Y162000D02*
D03*
X545000Y-283000D02*
D03*
X537000D02*
D03*
X914000Y-92000D02*
D03*
X889000Y-91000D02*
D03*
Y-77000D02*
D03*
X897000Y-53000D02*
D03*
X889000Y-60000D02*
D03*
X847000Y-51000D02*
D03*
Y-27000D02*
D03*
Y-35000D02*
D03*
X886000Y-2000D02*
D03*
Y35000D02*
D03*
X905000Y-93000D02*
D03*
X923000D02*
D03*
X839000Y-245000D02*
D03*
X854000Y-189000D02*
D03*
X823000Y-157000D02*
D03*
X895000Y-166000D02*
D03*
X843000Y-148000D02*
D03*
X851000D02*
D03*
X795000Y-255000D02*
D03*
X775000Y-285000D02*
D03*
X705000D02*
D03*
Y-260000D02*
D03*
X685000Y-255000D02*
D03*
X699000Y-197000D02*
D03*
Y-169000D02*
D03*
X714000Y-189000D02*
D03*
X735000D02*
D03*
X725000Y-170000D02*
D03*
X801000Y-229000D02*
D03*
X783000Y-245000D02*
D03*
X712000Y-221000D02*
D03*
X930000Y-134000D02*
D03*
X887000Y-154000D02*
D03*
Y-142000D02*
D03*
X895000Y-148000D02*
D03*
X870000Y-140000D02*
D03*
X933000Y-162000D02*
D03*
Y-170000D02*
D03*
X492000Y-257000D02*
D03*
Y-211000D02*
D03*
Y-165000D02*
D03*
Y-119000D02*
D03*
Y-73000D02*
D03*
Y-27000D02*
D03*
Y19000D02*
D03*
Y111000D02*
D03*
Y157000D02*
D03*
Y65000D02*
D03*
Y203000D02*
D03*
Y249000D02*
D03*
X745000Y190000D02*
D03*
X720000Y263000D02*
D03*
Y271000D02*
D03*
X695000Y263000D02*
D03*
Y271000D02*
D03*
X745000Y263000D02*
D03*
Y271000D02*
D03*
X686000Y233000D02*
D03*
X684000Y223000D02*
D03*
X696000Y190000D02*
D03*
Y198000D02*
D03*
X745000D02*
D03*
X860000Y220000D02*
D03*
X854000Y127000D02*
D03*
X915000Y195000D02*
D03*
X897000Y155000D02*
D03*
Y142000D02*
D03*
X868000Y220000D02*
D03*
X876000D02*
D03*
X853000Y216000D02*
D03*
X840000Y195000D02*
D03*
X820000D02*
D03*
X801000D02*
D03*
X856000Y237000D02*
D03*
Y268000D02*
D03*
Y276000D02*
D03*
X890000Y210000D02*
D03*
X789000Y105000D02*
D03*
X782000Y112000D02*
D03*
X796000Y98000D02*
D03*
X804000Y92000D02*
D03*
X834000Y82000D02*
D03*
X810000Y79000D02*
D03*
X822000Y67000D02*
D03*
X897000Y-43000D02*
D03*
X930000Y95000D02*
D03*
Y85000D02*
D03*
X913000Y-2000D02*
D03*
X905000D02*
D03*
X912000Y37000D02*
D03*
X902000D02*
D03*
X687000Y35000D02*
D03*
X686000Y-31000D02*
D03*
X663000Y35000D02*
D03*
Y15000D02*
D03*
Y25000D02*
D03*
Y45000D02*
D03*
X698000Y18000D02*
D03*
X730000Y40000D02*
D03*
X724000Y46000D02*
D03*
X718000Y52000D02*
D03*
X636000Y-39000D02*
D03*
Y-47000D02*
D03*
X704000Y-103000D02*
D03*
X824000Y32000D02*
D03*
X801000Y24000D02*
D03*
X787000Y10000D02*
D03*
X794000Y17000D02*
D03*
X830000Y-45000D02*
D03*
Y-53000D02*
D03*
X700000Y56000D02*
D03*
X778000Y-43000D02*
D03*
Y-56000D02*
D03*
X772000Y29000D02*
D03*
X768000Y-50000D02*
D03*
X786000Y45000D02*
D03*
X780000Y39000D02*
D03*
X708000Y56000D02*
D03*
X689000Y4000D02*
D03*
X714000Y-56000D02*
D03*
X655000Y110000D02*
D03*
X640000Y180000D02*
D03*
X585000Y-195000D02*
D03*
X581000Y-167000D02*
D03*
X589000D02*
D03*
X596000Y-146000D02*
D03*
X772000Y228000D02*
D03*
Y237000D02*
D03*
X594000Y-56000D02*
D03*
Y-36000D02*
D03*
Y-16000D02*
D03*
Y4000D02*
D03*
Y24000D02*
D03*
Y-116000D02*
D03*
Y-106000D02*
D03*
X645000Y-100000D02*
D03*
Y-80000D02*
D03*
X670000Y-90000D02*
D03*
X596000Y-83000D02*
D03*
X562000D02*
D03*
X814000Y67000D02*
D03*
X737000Y198000D02*
D03*
X729000D02*
D03*
X721000D02*
D03*
X773000Y121000D02*
D03*
X600000Y14000D02*
D03*
Y-6000D02*
D03*
Y-26000D02*
D03*
Y-46000D02*
D03*
Y-66000D02*
D03*
X606000Y-56000D02*
D03*
Y-36000D02*
D03*
Y-16000D02*
D03*
Y4000D02*
D03*
Y24000D02*
D03*
X615000Y41000D02*
D03*
X637000D02*
D03*
X599000D02*
D03*
X726000Y222000D02*
D03*
X757000Y160000D02*
D03*
X746000Y93000D02*
D03*
X774000Y57000D02*
D03*
X745000Y211000D02*
D03*
X753000Y198000D02*
D03*
X757000Y168000D02*
D03*
X595000Y205000D02*
D03*
Y215000D02*
D03*
X230000Y135000D02*
D03*
X215000D02*
D03*
X760000Y-50000D02*
D03*
X714000Y-46000D02*
D03*
X650000Y-125000D02*
D03*
X660000D02*
D03*
X596000Y-129000D02*
D03*
X785000Y158000D02*
D03*
X800000Y143000D02*
D03*
X920000Y129000D02*
D03*
X751000Y-8000D02*
D03*
X716000Y62000D02*
D03*
X872000Y69000D02*
D03*
Y58000D02*
D03*
X711000Y-111000D02*
D03*
X737000D02*
D03*
X837000Y-3000D02*
D03*
X802000Y-9000D02*
D03*
X930000Y105000D02*
D03*
Y116000D02*
D03*
X822000Y113000D02*
D03*
X858000Y95000D02*
D03*
X757000Y80000D02*
D03*
X818000Y26000D02*
D03*
X905000Y115000D02*
D03*
X924000Y275000D02*
D03*
X747000Y151000D02*
D03*
D91*
X163000Y-285000D02*
D03*
Y-270000D02*
D03*
Y-255000D02*
D03*
Y255000D02*
D03*
Y270000D02*
D03*
Y285000D02*
D03*
X213000Y-146500D02*
D03*
X191000D02*
D03*
X213000Y146500D02*
D03*
X191000D02*
D03*
X930000Y-200000D02*
D03*
X905000D02*
D03*
X1154000Y-80000D02*
D03*
X1140000D02*
D03*
X1125000D02*
D03*
X1110000D02*
D03*
X1095000D02*
D03*
X1080000D02*
D03*
X1050000D02*
D03*
X1035000D02*
D03*
X1020000D02*
D03*
X1005000D02*
D03*
X990000D02*
D03*
X975000D02*
D03*
X960000D02*
D03*
X1100000Y165000D02*
D03*
X1070000D02*
D03*
X1085000D02*
D03*
X257000Y285000D02*
D03*
X1155000Y-142000D02*
D03*
X1148000Y-150000D02*
D03*
X1219000Y-132000D02*
D03*
X1185000Y-111000D02*
D03*
X1315000Y110000D02*
D03*
X1305000D02*
D03*
X1175000Y-111000D02*
D03*
X1080000Y99000D02*
D03*
X1255000Y55000D02*
D03*
Y40000D02*
D03*
Y25000D02*
D03*
Y10000D02*
D03*
Y-5000D02*
D03*
Y-20000D02*
D03*
X1195000Y-25000D02*
D03*
X1215000D02*
D03*
X1235000D02*
D03*
Y25000D02*
D03*
X1215000D02*
D03*
X1195000D02*
D03*
X1180000Y-25000D02*
D03*
Y-10000D02*
D03*
Y5000D02*
D03*
Y20000D02*
D03*
X1165000D02*
D03*
Y5000D02*
D03*
Y-10000D02*
D03*
Y-25000D02*
D03*
X1164000Y45000D02*
D03*
X1145000D02*
D03*
X1125000D02*
D03*
X1045000Y35000D02*
D03*
Y15000D02*
D03*
Y-5000D02*
D03*
Y-25000D02*
D03*
Y-45000D02*
D03*
X1145000Y-66000D02*
D03*
X1125000D02*
D03*
X1105000D02*
D03*
X1085000D02*
D03*
X1065000D02*
D03*
X1045000D02*
D03*
X1025000D02*
D03*
X1005000D02*
D03*
X985000D02*
D03*
X965000D02*
D03*
X945000D02*
D03*
X946900Y-80000D02*
D03*
X1110000Y55000D02*
D03*
X1105000Y45000D02*
D03*
X1090000Y55000D02*
D03*
X1085000Y45000D02*
D03*
X1070000Y55000D02*
D03*
X1065000Y45000D02*
D03*
X1050000Y55000D02*
D03*
X1045000Y45000D02*
D03*
X1030000Y55000D02*
D03*
X1025000Y45000D02*
D03*
X1010000Y55000D02*
D03*
X1005000Y45000D02*
D03*
X990000Y55000D02*
D03*
X985000Y45000D02*
D03*
X970000Y55000D02*
D03*
X965000Y45000D02*
D03*
X950000Y55000D02*
D03*
X945000Y45000D02*
D03*
X1147000Y58000D02*
D03*
X1225000Y-250000D02*
D03*
X1215000D02*
D03*
X1205000D02*
D03*
Y-220000D02*
D03*
X1225000D02*
D03*
X1215000D02*
D03*
X1245000Y-105000D02*
D03*
Y-92000D02*
D03*
Y-80000D02*
D03*
X1205000Y-132000D02*
D03*
X1233000D02*
D03*
Y-92000D02*
D03*
X1219000D02*
D03*
X1205000D02*
D03*
Y-80000D02*
D03*
X1233000D02*
D03*
X1219000D02*
D03*
Y-105000D02*
D03*
X1233000D02*
D03*
X1205000D02*
D03*
X1245000Y-132000D02*
D03*
Y-118000D02*
D03*
Y-67000D02*
D03*
X1100000Y-171000D02*
D03*
X1055000Y-200000D02*
D03*
Y-225000D02*
D03*
Y-250000D02*
D03*
X1070000D02*
D03*
X1100000D02*
D03*
X1085000D02*
D03*
X1100000Y-185000D02*
D03*
Y-200000D02*
D03*
Y-215000D02*
D03*
X1070000D02*
D03*
Y-185000D02*
D03*
Y-200000D02*
D03*
X1085000Y-215000D02*
D03*
Y-200000D02*
D03*
Y-185000D02*
D03*
Y-169000D02*
D03*
X1070000Y-170000D02*
D03*
X1100000Y-160000D02*
D03*
X1080000Y-158000D02*
D03*
Y-140000D02*
D03*
X1089000Y-149000D02*
D03*
X1100000Y-140000D02*
D03*
X1115000Y-160000D02*
D03*
X1105000Y-120000D02*
D03*
Y-100000D02*
D03*
X1115000Y-140000D02*
D03*
X1135000Y-150000D02*
D03*
Y-140000D02*
D03*
X1155000Y-120000D02*
D03*
Y-100000D02*
D03*
X1035000Y-140000D02*
D03*
X1010000D02*
D03*
X960000D02*
D03*
X985000D02*
D03*
Y-120000D02*
D03*
Y-100000D02*
D03*
X257000Y-285000D02*
D03*
Y-270000D02*
D03*
Y-255000D02*
D03*
X323000Y-250000D02*
D03*
X451500Y-240000D02*
D03*
X323000Y-204000D02*
D03*
X451500Y-194000D02*
D03*
X323000Y-158000D02*
D03*
X451500Y-148000D02*
D03*
X323000Y-112000D02*
D03*
X451500Y-102000D02*
D03*
X323000Y-66000D02*
D03*
X451500Y-56000D02*
D03*
X323000Y-20000D02*
D03*
X451500Y-10000D02*
D03*
X323000Y26000D02*
D03*
X451500Y36000D02*
D03*
X323000Y118000D02*
D03*
X451500Y128000D02*
D03*
X323000Y164000D02*
D03*
X451500Y174000D02*
D03*
X323000Y72000D02*
D03*
X451500Y82000D02*
D03*
X323000Y210000D02*
D03*
X451500Y220000D02*
D03*
X323000Y256000D02*
D03*
X451500Y266000D02*
D03*
X305000Y-268000D02*
D03*
X317000Y-179000D02*
D03*
Y-87000D02*
D03*
Y5000D02*
D03*
Y97000D02*
D03*
Y189000D02*
D03*
X305000Y270000D02*
D03*
X1051000Y125000D02*
D03*
Y135000D02*
D03*
X949000Y125000D02*
D03*
Y135000D02*
D03*
X962000D02*
D03*
Y125000D02*
D03*
X975000Y135000D02*
D03*
Y125000D02*
D03*
X988000Y135000D02*
D03*
Y125000D02*
D03*
X1038000D02*
D03*
Y135000D02*
D03*
X1025000Y125000D02*
D03*
Y135000D02*
D03*
X1012000Y125000D02*
D03*
Y135000D02*
D03*
X1000000Y125000D02*
D03*
Y135000D02*
D03*
X257000Y270000D02*
D03*
Y255000D02*
D03*
X213000Y45000D02*
D03*
Y-105000D02*
D03*
Y-75000D02*
D03*
Y-45000D02*
D03*
Y-15000D02*
D03*
Y15000D02*
D03*
Y75000D02*
D03*
X1125000Y102000D02*
D03*
X1070000Y130000D02*
D03*
X1095000D02*
D03*
X1068000Y95000D02*
D03*
X1255000Y75000D02*
D03*
X1159000Y102000D02*
D03*
X1160000Y150000D02*
D03*
X1231000Y163000D02*
D03*
X1385000Y110000D02*
D03*
Y-20000D02*
D03*
Y-160000D02*
D03*
X1370000Y-270000D02*
D03*
X1215000Y-290000D02*
D03*
X1200000D02*
D03*
X1230000D02*
D03*
X1085000D02*
D03*
X1100000D02*
D03*
X1070000D02*
D03*
X1180000Y-160000D02*
D03*
X860000Y-285000D02*
D03*
X988000Y-290000D02*
D03*
X1067000Y-80000D02*
D03*
X1054000Y-150000D02*
D03*
Y-163000D02*
D03*
Y-175000D02*
D03*
M02*
