G04 Layer_Color=65535*
%FSAX24Y24*%
%MOIN*%
G70*
G01*
G75*
%ADD73C,0.0079*%
%ADD74C,0.0118*%
%ADD75C,0.0157*%
%ADD97C,0.0110*%
%ADD98C,0.0059*%
%ADD99C,0.0100*%
%ADD100C,0.0079*%
%ADD101C,0.0039*%
G36*
X279173Y190394D02*
Y190709D01*
X279488D01*
X279173Y190394D01*
D02*
G37*
D73*
X293307Y179252D02*
G03*
X293307Y179252I-001969J000000D01*
G01*
X282689Y182828D02*
G03*
X282689Y183078I000000J000125D01*
G01*
X302862Y185440D02*
G03*
X302862Y185190I000000J-000125D01*
G01*
X293779Y199094D02*
G03*
X293032Y198346I-000004J-000744D01*
G01*
X309331Y198347D02*
G03*
X308583Y199094I-000744J000004D01*
G01*
X308583Y194606D02*
G03*
X309331Y195354I000004J000744D01*
G01*
X293032D02*
G03*
X293779Y194606I000744J-000004D01*
G01*
X291142Y177579D02*
X291535D01*
X291339Y177382D02*
Y177776D01*
X280433Y190728D02*
X281102D01*
X279134D02*
X280443D01*
X279134Y185807D02*
Y190728D01*
Y185807D02*
X281102D01*
Y190728D01*
X305020Y194390D02*
X309154D01*
Y193996D02*
Y194390D01*
X305020Y193996D02*
Y194390D01*
Y192224D02*
Y192618D01*
Y192224D02*
X309154D01*
Y192618D01*
X287244Y187087D02*
Y187402D01*
X286063Y187087D02*
Y187402D01*
X287008Y187087D02*
X287244D01*
X286063D02*
X286299D01*
X285866D02*
Y187402D01*
X284685Y187087D02*
Y187402D01*
X285630Y187087D02*
X285866D01*
X284685D02*
X284921D01*
X289882Y182126D02*
X290197D01*
X289882Y180945D02*
X290197D01*
Y181890D02*
Y182126D01*
Y180945D02*
Y181181D01*
X283780Y185039D02*
Y185354D01*
X282598Y185039D02*
Y185354D01*
X283543Y185039D02*
X283780D01*
X282598D02*
X282835D01*
X288819Y190276D02*
X289134D01*
X288819Y191457D02*
X289134D01*
X288819Y190276D02*
Y190512D01*
Y191220D02*
Y191457D01*
X286260Y193858D02*
Y194173D01*
X285079Y193858D02*
Y194173D01*
X286024Y193858D02*
X286260D01*
X285079D02*
X285315D01*
X289094Y192795D02*
X289409D01*
X289094Y191614D02*
X289409D01*
Y192559D02*
Y192795D01*
Y191614D02*
Y191850D01*
X289094Y194173D02*
X289409D01*
X289094Y192992D02*
X289409D01*
Y193937D02*
Y194173D01*
Y192992D02*
Y193228D01*
X273268Y198228D02*
X273583D01*
X273268Y199409D02*
X273583D01*
X273268Y198228D02*
Y198465D01*
Y199173D02*
Y199409D01*
Y196417D02*
X273583D01*
X273268Y197598D02*
X273583D01*
X273268Y196417D02*
Y196654D01*
Y197362D02*
Y197598D01*
Y194606D02*
X273583D01*
X273268Y195787D02*
X273583D01*
X273268Y194606D02*
Y194843D01*
Y195551D02*
Y195787D01*
Y192795D02*
X273583D01*
X273268Y193976D02*
X273583D01*
X273268Y192795D02*
Y193032D01*
Y193740D02*
Y193976D01*
Y190984D02*
X273583D01*
X273268Y192165D02*
X273583D01*
X273268Y190984D02*
Y191220D01*
Y191929D02*
Y192165D01*
Y189173D02*
X273583D01*
X273268Y190354D02*
X273583D01*
X273268Y189173D02*
Y189409D01*
Y190118D02*
Y190354D01*
Y187362D02*
X273583D01*
X273268Y188543D02*
X273583D01*
X273268Y187362D02*
Y187598D01*
Y188307D02*
Y188543D01*
Y185551D02*
X273583D01*
X273268Y186732D02*
X273583D01*
X273268Y185551D02*
Y185787D01*
Y186496D02*
Y186732D01*
Y183740D02*
X273583D01*
X273268Y184921D02*
X273583D01*
X273268Y183740D02*
Y183976D01*
Y184685D02*
Y184921D01*
Y181929D02*
X273583D01*
X273268Y183110D02*
X273583D01*
X273268Y181929D02*
Y182165D01*
Y182874D02*
Y183110D01*
Y180118D02*
X273583D01*
X273268Y181299D02*
X273583D01*
X273268Y180118D02*
Y180354D01*
Y181063D02*
Y181299D01*
Y178307D02*
X273583D01*
X273268Y179488D02*
X273583D01*
X273268Y178307D02*
Y178543D01*
Y179252D02*
Y179488D01*
X287205Y196594D02*
Y196713D01*
X289173Y196594D02*
Y196713D01*
X282835Y200315D02*
X285669D01*
X282618Y198976D02*
X283012D01*
X282618D02*
Y199134D01*
X285492Y198976D02*
X285886D01*
Y199134D01*
X282835Y197520D02*
X285669D01*
X282618Y196181D02*
X283012D01*
X282618D02*
Y196339D01*
X285492Y196181D02*
X285886D01*
Y196339D01*
X263390Y193445D02*
Y194429D01*
Y183524D02*
Y184508D01*
X259492Y194429D02*
X263390D01*
X259492Y183524D02*
Y194429D01*
Y183524D02*
X263390D01*
X286732Y177362D02*
Y177480D01*
X283346Y177362D02*
X286732D01*
X283346D02*
Y177480D01*
X286280Y179016D02*
X286673D01*
Y178858D02*
Y179016D01*
X283406D02*
X283799D01*
X283406Y178858D02*
Y179016D01*
X278543Y178465D02*
Y179094D01*
X278622D01*
X281220D02*
X281299D01*
Y178465D02*
Y179094D01*
X278543Y177362D02*
X281299D01*
X288346Y187953D02*
Y187992D01*
X289528D01*
Y187953D02*
Y187992D01*
X288346Y186811D02*
Y186850D01*
Y186811D02*
X289528D01*
Y186850D01*
X287925Y182185D02*
Y182746D01*
X287701Y182970D02*
X287925Y182746D01*
Y183868D02*
Y184429D01*
X287701Y183644D02*
X287925Y183868D01*
X287701Y182970D02*
Y183644D01*
X283925Y182185D02*
X287925D01*
X283925D02*
Y184429D01*
X287925D01*
X284094Y191260D02*
X285504Y192670D01*
X284094Y191260D02*
X285669Y189684D01*
X287245Y191260D01*
X285835Y192670D02*
X287245Y191260D01*
X285504Y192670D02*
X285835D01*
X298130Y197075D02*
X299114D01*
X298130Y196583D02*
X298622Y197075D01*
X299114Y196583D01*
X298130D02*
X299114D01*
X299331Y195787D02*
Y197913D01*
X297913Y195787D02*
Y197913D01*
X283228Y187992D02*
X283543D01*
X283386D02*
X283524Y188130D01*
X283248D02*
X283386Y187992D01*
X276154Y198622D02*
Y199016D01*
X275657Y198622D02*
Y199016D01*
X275728Y198913D02*
X276083D01*
X275906D02*
X276063Y198756D01*
X275748D02*
X275906Y198913D01*
X275748Y198756D02*
X276063D01*
X276154Y196811D02*
Y197205D01*
X275657Y196811D02*
Y197205D01*
X275728Y197102D02*
X276083D01*
X275906D02*
X276063Y196945D01*
X275748D02*
X275906Y197102D01*
X275748Y196945D02*
X276063D01*
X276154Y195000D02*
Y195394D01*
X275657Y195000D02*
Y195394D01*
X275728Y195291D02*
X276083D01*
X275906D02*
X276063Y195134D01*
X275748D02*
X275906Y195291D01*
X275748Y195134D02*
X276063D01*
X276154Y193189D02*
Y193583D01*
X275657Y193189D02*
Y193583D01*
X275728Y193480D02*
X276083D01*
X275906D02*
X276063Y193323D01*
X275748D02*
X275906Y193480D01*
X275748Y193323D02*
X276063D01*
X276154Y191378D02*
Y191772D01*
X275657Y191378D02*
Y191772D01*
X275728Y191669D02*
X276083D01*
X275906D02*
X276063Y191512D01*
X275748D02*
X275906Y191669D01*
X275748Y191512D02*
X276063D01*
X276154Y189567D02*
Y189961D01*
X275657Y189567D02*
Y189961D01*
X275728Y189858D02*
X276083D01*
X275906D02*
X276063Y189701D01*
X275748D02*
X275906Y189858D01*
X275748Y189701D02*
X276063D01*
X276154Y187756D02*
Y188150D01*
X275657Y187756D02*
Y188150D01*
X275728Y188047D02*
X276083D01*
X275906D02*
X276063Y187890D01*
X275748D02*
X275906Y188047D01*
X275748Y187890D02*
X276063D01*
X276154Y185945D02*
Y186339D01*
X275657Y185945D02*
Y186339D01*
X275728Y186236D02*
X276083D01*
X275906D02*
X276063Y186079D01*
X275748D02*
X275906Y186236D01*
X275748Y186079D02*
X276063D01*
X276154Y184134D02*
Y184528D01*
X275657Y184134D02*
Y184528D01*
X275728Y184425D02*
X276083D01*
X275906D02*
X276063Y184268D01*
X275748D02*
X275906Y184425D01*
X275748Y184268D02*
X276063D01*
X276154Y182323D02*
Y182717D01*
X275657Y182323D02*
Y182717D01*
X275728Y182614D02*
X276083D01*
X275906D02*
X276063Y182457D01*
X275748D02*
X275906Y182614D01*
X275748Y182457D02*
X276063D01*
X276154Y180512D02*
Y180906D01*
X275657Y180512D02*
Y180906D01*
X275728Y180803D02*
X276083D01*
X275906D02*
X276063Y180646D01*
X275748D02*
X275906Y180803D01*
X275748Y180646D02*
X276063D01*
X276154Y178701D02*
Y179094D01*
X275657Y178701D02*
Y179094D01*
X275728Y178992D02*
X276083D01*
X275906D02*
X276063Y178835D01*
X275748D02*
X275906Y178992D01*
X275748Y178835D02*
X276063D01*
X279980Y191209D02*
Y192343D01*
X280650Y191209D02*
Y192343D01*
X280079Y191642D02*
X280551D01*
X280315Y191878D02*
X280551Y191642D01*
X280079D02*
X280315Y191878D01*
X280079Y191878D02*
X280551D01*
X280965Y191209D02*
Y192343D01*
X281634Y191209D02*
Y192343D01*
X281063Y191642D02*
X281535D01*
X281299Y191878D02*
X281535Y191642D01*
X281063D02*
X281299Y191878D01*
X281063Y191878D02*
X281535D01*
X280642Y192913D02*
Y193386D01*
X280642Y193150D02*
X280878Y192913D01*
X280642Y193150D02*
X280878Y193386D01*
Y192913D02*
Y193386D01*
X280177Y193563D02*
X281311D01*
X280177Y192736D02*
X281311D01*
X291437Y190965D02*
Y192098D01*
X290768Y190965D02*
Y192098D01*
X290866Y191665D02*
X291339D01*
X290866D02*
X291102Y191429D01*
X291339Y191665D01*
X290866Y191429D02*
X291339D01*
X288524Y188610D02*
Y189744D01*
X289193Y188610D02*
Y189744D01*
X288622Y189043D02*
X289094D01*
X288858Y189280D02*
X289094Y189043D01*
X288622D02*
X288858Y189280D01*
X288622Y189280D02*
X289094D01*
X297972Y182736D02*
X299106D01*
X297972Y183406D02*
X299106D01*
X298673Y182835D02*
Y183307D01*
X298437Y183071D02*
X298673Y183307D01*
X298437Y183071D02*
X298673Y182835D01*
X298437D02*
Y183307D01*
X291713Y190972D02*
Y192106D01*
X292382Y190972D02*
Y192106D01*
X291811Y191406D02*
X292283D01*
X292047Y191642D02*
X292283Y191406D01*
X291811D02*
X292047Y191642D01*
X291811Y191642D02*
X292283D01*
X289390Y188610D02*
Y189744D01*
X290059Y188610D02*
Y189744D01*
X289488Y189043D02*
X289961D01*
X289724Y189280D02*
X289961Y189043D01*
X289488D02*
X289724Y189280D01*
X289488Y189280D02*
X289961D01*
X291201Y192862D02*
Y193996D01*
X291870Y192862D02*
Y193996D01*
X291299Y193295D02*
X291772D01*
X291535Y193531D02*
X291772Y193295D01*
X291299D02*
X291535Y193531D01*
X291299Y193531D02*
X291772D01*
X290571Y190965D02*
Y192098D01*
X289902Y190965D02*
Y192098D01*
X290000Y191665D02*
X290472D01*
X290000D02*
X290236Y191429D01*
X290472Y191665D01*
X290000Y191429D02*
X290472D01*
X298760Y192185D02*
Y193319D01*
X298091Y192185D02*
Y193319D01*
X298189Y192886D02*
X298661D01*
X298189D02*
X298425Y192650D01*
X298661Y192886D01*
X298189Y192650D02*
X298661D01*
X287437Y195044D02*
X288239Y194242D01*
X286964Y194571D02*
X287765Y193769D01*
X287340Y194334D02*
X287674Y194668D01*
X287340Y194334D02*
X287674D01*
Y194668D01*
X287507Y194167D02*
X287841Y194501D01*
X300264Y191594D02*
X301398D01*
X300264Y190925D02*
X301398D01*
X300697Y191024D02*
Y191496D01*
Y191024D02*
X300933Y191260D01*
X300697Y191496D02*
X300933Y191260D01*
X300933Y191024D02*
Y191496D01*
X298130Y179161D02*
X299114D01*
X298130Y178669D02*
X298622Y179161D01*
X299114Y178669D01*
X298130D02*
X299114D01*
X299331Y177874D02*
Y180000D01*
X297913Y177874D02*
Y180000D01*
X303248Y179161D02*
X304232D01*
X303248Y178669D02*
X303740Y179161D01*
X304232Y178669D01*
X303248D02*
X304232D01*
X304449Y177874D02*
Y180000D01*
X303032Y177874D02*
Y180000D01*
X305315Y183307D02*
X306102D01*
X305315D02*
Y187323D01*
X306102D01*
X282689Y182165D02*
Y182828D01*
Y183078D02*
Y183740D01*
X283689D01*
Y182165D02*
Y183740D01*
X282689Y182165D02*
X283689D01*
X302193Y187697D02*
X303327D01*
X302193Y187028D02*
X303327D01*
X302626Y187126D02*
Y187598D01*
Y187126D02*
X302862Y187362D01*
X302626Y187598D02*
X302862Y187362D01*
X302862Y187126D02*
Y187598D01*
X283976Y187992D02*
X284291D01*
X284134D02*
X284272Y188130D01*
X283996D02*
X284134Y187992D01*
X279213Y180138D02*
Y180472D01*
X280394Y180138D02*
Y180472D01*
X279213D02*
X279468D01*
X280138D02*
X280394D01*
X302862Y185440D02*
Y186102D01*
Y184528D02*
Y185190D01*
X301862Y184528D02*
X302862D01*
X301862D02*
Y186102D01*
X302862D01*
X287126Y179961D02*
Y180295D01*
X285945Y179961D02*
Y180295D01*
X286870Y179961D02*
X287126D01*
X285945D02*
X286201D01*
X299449Y194606D02*
Y199094D01*
X302913Y194528D02*
Y199016D01*
X304094Y194606D02*
Y199094D01*
X298228Y194606D02*
Y195591D01*
X298268Y198110D02*
Y199016D01*
X293779Y199094D02*
X308583D01*
X309331Y195354D02*
Y198346D01*
X293032Y195354D02*
Y198346D01*
X293779Y194606D02*
X297677D01*
X308583D01*
X258465Y184252D02*
Y193701D01*
X257677Y192520D02*
X259252D01*
X257677Y191339D02*
X259252D01*
X257677Y190157D02*
X259252D01*
X257677Y188976D02*
X259252D01*
X257677Y187795D02*
X259252D01*
X257677Y186614D02*
X259252D01*
X257677Y185433D02*
X259252D01*
X257677Y184252D02*
Y193701D01*
Y184252D02*
X259252D01*
Y193701D01*
X257677D02*
X259252D01*
X301748Y191864D02*
X304032D01*
X301748Y194514D02*
X304032D01*
D74*
X300892Y198976D02*
X300649Y198465D01*
X300551Y198976D02*
X300892D01*
X301153D02*
X301080Y198952D01*
X301031Y198879D01*
X301007Y198757D01*
Y198684D01*
X301031Y198562D01*
X301080Y198489D01*
X301153Y198465D01*
X301202D01*
X301275Y198489D01*
X301324Y198562D01*
X301348Y198684D01*
Y198757D01*
X301324Y198879D01*
X301275Y198952D01*
X301202Y198976D01*
X301153D01*
X301852Y198465D02*
X301657Y198976D01*
X301462Y198465D01*
X301536Y198635D02*
X301779D01*
X299291Y200079D02*
Y199488D01*
Y200079D02*
X299516Y199488D01*
X299741Y200079D02*
X299516Y199488D01*
X299741Y200079D02*
Y199488D01*
X300360D02*
X300135Y200079D01*
X299910Y199488D01*
X299994Y199685D02*
X300275D01*
X300497Y200079D02*
X300891Y199488D01*
Y200079D02*
X300497Y199488D01*
X301487Y200079D02*
Y199488D01*
Y200079D02*
X301853D01*
X301487Y199797D02*
X301712D01*
X301920Y199882D02*
Y199601D01*
X301948Y199516D01*
X302004Y199488D01*
X302089D01*
X302145Y199516D01*
X302229Y199601D01*
Y199882D02*
Y199488D01*
X302693Y199797D02*
X302665Y199854D01*
X302581Y199882D01*
X302496D01*
X302412Y199854D01*
X302384Y199797D01*
X302412Y199741D01*
X302468Y199713D01*
X302609Y199685D01*
X302665Y199657D01*
X302693Y199601D01*
Y199573D01*
X302665Y199516D01*
X302581Y199488D01*
X302496D01*
X302412Y199516D01*
X302384Y199573D01*
X302817Y199713D02*
X303154D01*
Y199769D01*
X303126Y199826D01*
X303098Y199854D01*
X303042Y199882D01*
X302958D01*
X302901Y199854D01*
X302845Y199797D01*
X302817Y199713D01*
Y199657D01*
X302845Y199573D01*
X302901Y199516D01*
X302958Y199488D01*
X303042D01*
X303098Y199516D01*
X303154Y199573D01*
X303309Y199882D02*
X303281Y199854D01*
X303309Y199826D01*
X303337Y199854D01*
X303309Y199882D01*
Y199544D02*
X303281Y199516D01*
X303309Y199488D01*
X303337Y199516D01*
X303309Y199544D01*
X258032Y199745D02*
X258369D01*
X258481Y199782D01*
X258519Y199820D01*
X258556Y199895D01*
Y200007D01*
X258519Y200082D01*
X258481Y200120D01*
X258369Y200157D01*
X258032D01*
Y199370D01*
X259332D02*
X259032Y200157D01*
X258733Y199370D01*
X258845Y199632D02*
X259220D01*
X260078Y199970D02*
X260041Y200045D01*
X259966Y200120D01*
X259891Y200157D01*
X259741D01*
X259666Y200120D01*
X259591Y200045D01*
X259553Y199970D01*
X259516Y199857D01*
Y199670D01*
X259553Y199558D01*
X259591Y199483D01*
X259666Y199408D01*
X259741Y199370D01*
X259891D01*
X259966Y199408D01*
X260041Y199483D01*
X260078Y199558D01*
X260299Y200157D02*
Y199370D01*
X260824Y200157D02*
X260299Y199632D01*
X260487Y199820D02*
X260824Y199370D01*
X261000Y199707D02*
X261675D01*
X305276Y199824D02*
X305613D01*
X305725Y199861D01*
X305763Y199899D01*
X305800Y199974D01*
Y200086D01*
X305763Y200161D01*
X305725Y200199D01*
X305613Y200236D01*
X305276D01*
Y199449D01*
X306576D02*
X306276Y200236D01*
X305977Y199449D01*
X306089Y199711D02*
X306464D01*
X307322Y200049D02*
X307285Y200124D01*
X307210Y200199D01*
X307135Y200236D01*
X306985D01*
X306910Y200199D01*
X306835Y200124D01*
X306798Y200049D01*
X306760Y199936D01*
Y199749D01*
X306798Y199636D01*
X306835Y199561D01*
X306910Y199486D01*
X306985Y199449D01*
X307135D01*
X307210Y199486D01*
X307285Y199561D01*
X307322Y199636D01*
X307544Y200236D02*
Y199449D01*
X308068Y200236D02*
X307544Y199711D01*
X307731Y199899D02*
X308068Y199449D01*
X308582Y200124D02*
Y199449D01*
X308245Y199786D02*
X308919D01*
X257610Y178631D02*
X257572Y178706D01*
X257497Y178781D01*
X257422Y178819D01*
X257272D01*
X257197Y178781D01*
X257122Y178706D01*
X257085Y178631D01*
X257047Y178519D01*
Y178331D01*
X257085Y178219D01*
X257122Y178144D01*
X257197Y178069D01*
X257272Y178032D01*
X257422D01*
X257497Y178069D01*
X257572Y178144D01*
X257610Y178219D01*
X258056Y178819D02*
X257981Y178781D01*
X257906Y178706D01*
X257868Y178631D01*
X257831Y178519D01*
Y178331D01*
X257868Y178219D01*
X257906Y178144D01*
X257981Y178069D01*
X258056Y178032D01*
X258206D01*
X258281Y178069D01*
X258356Y178144D01*
X258393Y178219D01*
X258431Y178331D01*
Y178519D01*
X258393Y178631D01*
X258356Y178706D01*
X258281Y178781D01*
X258206Y178819D01*
X258056D01*
X258614D02*
Y178032D01*
Y178819D02*
X258914Y178032D01*
X259214Y178819D02*
X258914Y178032D01*
X259214Y178819D02*
Y178032D01*
X259439Y178819D02*
Y178032D01*
Y178819D02*
X259739Y178032D01*
X260039Y178819D02*
X259739Y178032D01*
X260039Y178819D02*
Y178032D01*
X260489Y178819D02*
X260414Y178781D01*
X260339Y178706D01*
X260301Y178631D01*
X260264Y178519D01*
Y178331D01*
X260301Y178219D01*
X260339Y178144D01*
X260414Y178069D01*
X260489Y178032D01*
X260639D01*
X260714Y178069D01*
X260788Y178144D01*
X260826Y178219D01*
X260863Y178331D01*
Y178519D01*
X260826Y178631D01*
X260788Y178706D01*
X260714Y178781D01*
X260639Y178819D01*
X260489D01*
X261047D02*
Y178032D01*
Y178819D02*
X261572Y178032D01*
Y178819D02*
Y178032D01*
X261789Y178369D02*
X262464D01*
X293661Y178425D02*
Y177638D01*
X294111D01*
X294422Y178425D02*
X294347Y178388D01*
X294272Y178313D01*
X294235Y178238D01*
X294197Y178125D01*
Y177938D01*
X294235Y177825D01*
X294272Y177750D01*
X294347Y177675D01*
X294422Y177638D01*
X294572D01*
X294647Y177675D01*
X294722Y177750D01*
X294760Y177825D01*
X294797Y177938D01*
Y178125D01*
X294760Y178238D01*
X294722Y178313D01*
X294647Y178388D01*
X294572Y178425D01*
X294422D01*
X295581Y177638D02*
X295281Y178425D01*
X294981Y177638D01*
X295093Y177900D02*
X295468D01*
X295764Y178425D02*
Y177638D01*
Y178425D02*
X296027D01*
X296139Y178388D01*
X296214Y178313D01*
X296252Y178238D01*
X296289Y178125D01*
Y177938D01*
X296252Y177825D01*
X296214Y177750D01*
X296139Y177675D01*
X296027Y177638D01*
X295764D01*
X296803Y178313D02*
Y177638D01*
X296465Y177975D02*
X297140D01*
X305169Y178238D02*
X305131Y178313D01*
X305056Y178388D01*
X304981Y178425D01*
X304831D01*
X304756Y178388D01*
X304681Y178313D01*
X304644Y178238D01*
X304606Y178125D01*
Y177938D01*
X304644Y177825D01*
X304681Y177750D01*
X304756Y177675D01*
X304831Y177638D01*
X304981D01*
X305056Y177675D01*
X305131Y177750D01*
X305169Y177825D01*
X305390Y178425D02*
Y177638D01*
X305915Y178425D02*
Y177638D01*
X305390Y178050D02*
X305915D01*
X306732Y177638D02*
X306432Y178425D01*
X306132Y177638D01*
X306244Y177900D02*
X306619D01*
X306916Y178425D02*
Y177638D01*
Y178425D02*
X307253D01*
X307365Y178388D01*
X307403Y178350D01*
X307440Y178275D01*
Y178200D01*
X307403Y178125D01*
X307365Y178088D01*
X307253Y178050D01*
X306916D01*
X307178D02*
X307440Y177638D01*
X308179Y178238D02*
X308141Y178313D01*
X308066Y178388D01*
X307991Y178425D01*
X307841D01*
X307766Y178388D01*
X307692Y178313D01*
X307654Y178238D01*
X307617Y178125D01*
Y177938D01*
X307654Y177825D01*
X307692Y177750D01*
X307766Y177675D01*
X307841Y177638D01*
X307991D01*
X308066Y177675D01*
X308141Y177750D01*
X308179Y177825D01*
Y177938D01*
X307991D02*
X308179D01*
X308846Y178425D02*
X308359D01*
Y177638D01*
X308846D01*
X308359Y178050D02*
X308659D01*
X309315Y178313D02*
Y177638D01*
X308977Y177975D02*
X309652D01*
X283504Y179492D02*
X283541Y179511D01*
X283598Y179567D01*
Y179173D01*
D75*
X267401Y192402D02*
X266220D01*
X267401D02*
Y192008D01*
X267345Y191839D01*
X267233Y191727D01*
X267120Y191671D01*
X266951Y191614D01*
X266670D01*
X266502Y191671D01*
X266389Y191727D01*
X266277Y191839D01*
X266220Y192008D01*
Y192402D01*
X267401Y191238D02*
X267345Y191181D01*
X267401Y191125D01*
X267458Y191181D01*
X267401Y191238D01*
X267008Y191181D02*
X266220D01*
X266670Y190917D02*
Y190242D01*
X266783D01*
X266895Y190299D01*
X266951Y190355D01*
X267008Y190467D01*
Y190636D01*
X266951Y190748D01*
X266839Y190861D01*
X266670Y190917D01*
X266558D01*
X266389Y190861D01*
X266277Y190748D01*
X266220Y190636D01*
Y190467D01*
X266277Y190355D01*
X266389Y190242D01*
X267401Y189989D02*
X266220D01*
X267401D02*
Y189483D01*
X267345Y189314D01*
X267289Y189258D01*
X267176Y189202D01*
X267064D01*
X266951Y189258D01*
X266895Y189314D01*
X266839Y189483D01*
Y189989D02*
Y189483D01*
X266783Y189314D01*
X266727Y189258D01*
X266614Y189202D01*
X266445D01*
X266333Y189258D01*
X266277Y189314D01*
X266220Y189483D01*
Y189989D01*
X267401Y188825D02*
X267345Y188769D01*
X267401Y188713D01*
X267458Y188769D01*
X267401Y188825D01*
X267008Y188769D02*
X266220D01*
X266670Y188505D02*
Y187830D01*
X266783D01*
X266895Y187886D01*
X266951Y187942D01*
X267008Y188055D01*
Y188224D01*
X266951Y188336D01*
X266839Y188449D01*
X266670Y188505D01*
X266558D01*
X266389Y188449D01*
X266277Y188336D01*
X266220Y188224D01*
Y188055D01*
X266277Y187942D01*
X266389Y187830D01*
X267401Y187577D02*
X266220D01*
X267401D02*
X266220Y187127D01*
X267401Y186677D02*
X266220Y187127D01*
X267401Y186677D02*
X266220D01*
X267233Y185553D02*
X267345Y185665D01*
X267401Y185834D01*
Y186059D01*
X267345Y186227D01*
X267233Y186340D01*
X267120D01*
X267008Y186284D01*
X266951Y186227D01*
X266895Y186115D01*
X266783Y185778D01*
X266727Y185665D01*
X266670Y185609D01*
X266558Y185553D01*
X266389D01*
X266277Y185665D01*
X266220Y185834D01*
Y186059D01*
X266277Y186227D01*
X266389Y186340D01*
D97*
X263623Y184402D02*
G03*
X263623Y184402I-000056J000000D01*
G01*
D98*
X290512Y183804D02*
G03*
X290512Y183676I000000J-000064D01*
G01*
X288465Y184409D02*
X290512D01*
X288465Y183071D02*
Y184409D01*
Y183071D02*
X290512D01*
Y183676D01*
Y183804D02*
Y184409D01*
D99*
X288583Y187795D02*
G03*
X288583Y187795I-000039J000000D01*
G01*
X287685Y184118D02*
G03*
X287685Y184118I-000142J000000D01*
G01*
X279390Y182894D02*
X279587D01*
X279390Y182697D02*
Y182894D01*
Y181122D02*
Y181319D01*
Y181122D02*
X279587D01*
X280965D02*
X281161D01*
Y181319D01*
X280965Y182697D02*
X281161D01*
X280965Y182894D02*
X281161Y182697D01*
X280965D02*
Y182894D01*
X279685Y198593D02*
X279942D01*
X280028Y198621D01*
X280056Y198650D01*
X280085Y198707D01*
Y198793D01*
X280056Y198850D01*
X280028Y198878D01*
X279942Y198907D01*
X279685D01*
Y198307D01*
X280362Y198707D02*
X280305Y198678D01*
X280248Y198621D01*
X280219Y198536D01*
Y198478D01*
X280248Y198393D01*
X280305Y198336D01*
X280362Y198307D01*
X280448D01*
X280505Y198336D01*
X280562Y198393D01*
X280591Y198478D01*
Y198536D01*
X280562Y198621D01*
X280505Y198678D01*
X280448Y198707D01*
X280362D01*
X280722D02*
X280836Y198307D01*
X280950Y198707D02*
X280836Y198307D01*
X280950Y198707D02*
X281065Y198307D01*
X281179Y198707D02*
X281065Y198307D01*
X281319Y198536D02*
X281662D01*
Y198593D01*
X281633Y198650D01*
X281605Y198678D01*
X281548Y198707D01*
X281462D01*
X281405Y198678D01*
X281348Y198621D01*
X281319Y198536D01*
Y198478D01*
X281348Y198393D01*
X281405Y198336D01*
X281462Y198307D01*
X281548D01*
X281605Y198336D01*
X281662Y198393D01*
X281790Y198707D02*
Y198307D01*
Y198536D02*
X281819Y198621D01*
X281876Y198678D01*
X281933Y198707D01*
X282019D01*
X279567Y196269D02*
Y195669D01*
Y196269D02*
X279767D01*
X279853Y196241D01*
X279910Y196183D01*
X279938Y196126D01*
X279967Y196041D01*
Y195898D01*
X279938Y195812D01*
X279910Y195755D01*
X279853Y195698D01*
X279767Y195669D01*
X279567D01*
X280158Y196269D02*
X280187Y196241D01*
X280215Y196269D01*
X280187Y196298D01*
X280158Y196269D01*
X280187Y196069D02*
Y195669D01*
X280635Y195984D02*
X280607Y196041D01*
X280521Y196069D01*
X280435D01*
X280350Y196041D01*
X280321Y195984D01*
X280350Y195926D01*
X280407Y195898D01*
X280550Y195869D01*
X280607Y195841D01*
X280635Y195784D01*
Y195755D01*
X280607Y195698D01*
X280521Y195669D01*
X280435D01*
X280350Y195698D01*
X280321Y195755D01*
X280761Y196069D02*
Y195469D01*
Y195984D02*
X280818Y196041D01*
X280875Y196069D01*
X280961D01*
X281018Y196041D01*
X281075Y195984D01*
X281104Y195898D01*
Y195841D01*
X281075Y195755D01*
X281018Y195698D01*
X280961Y195669D01*
X280875D01*
X280818Y195698D01*
X280761Y195755D01*
X281232Y196269D02*
Y195669D01*
X281701Y196069D02*
Y195669D01*
Y195984D02*
X281644Y196041D01*
X281586Y196069D01*
X281501D01*
X281444Y196041D01*
X281387Y195984D01*
X281358Y195898D01*
Y195841D01*
X281387Y195755D01*
X281444Y195698D01*
X281501Y195669D01*
X281586D01*
X281644Y195698D01*
X281701Y195755D01*
X281889Y196069D02*
X282061Y195669D01*
X282232Y196069D02*
X282061Y195669D01*
X282004Y195555D01*
X281946Y195498D01*
X281889Y195469D01*
X281861D01*
X284444Y180733D02*
X284416Y180790D01*
X284359Y180847D01*
X284301Y180875D01*
X284187D01*
X284130Y180847D01*
X284073Y180790D01*
X284044Y180733D01*
X284016Y180647D01*
Y180504D01*
X284044Y180418D01*
X284073Y180361D01*
X284130Y180304D01*
X284187Y180276D01*
X284301D01*
X284359Y180304D01*
X284416Y180361D01*
X284444Y180418D01*
X285070Y180276D02*
X284841Y180875D01*
X284613Y180276D01*
X284698Y180476D02*
X284984D01*
X285210Y180875D02*
Y180276D01*
Y180875D02*
X285610Y180276D01*
Y180875D02*
Y180276D01*
X280591Y180009D02*
Y179581D01*
X280619Y179495D01*
X280676Y179438D01*
X280762Y179409D01*
X280819D01*
X280905Y179438D01*
X280962Y179495D01*
X280990Y179581D01*
Y180009D01*
X281556Y179924D02*
X281499Y179981D01*
X281413Y180009D01*
X281299D01*
X281213Y179981D01*
X281156Y179924D01*
Y179866D01*
X281185Y179809D01*
X281213Y179781D01*
X281270Y179752D01*
X281442Y179695D01*
X281499Y179667D01*
X281527Y179638D01*
X281556Y179581D01*
Y179495D01*
X281499Y179438D01*
X281413Y179409D01*
X281299D01*
X281213Y179438D01*
X281156Y179495D01*
X281690Y180009D02*
Y179409D01*
Y180009D02*
X281947D01*
X282033Y179981D01*
X282062Y179952D01*
X282090Y179895D01*
Y179838D01*
X282062Y179781D01*
X282033Y179752D01*
X281947Y179724D01*
X281690D02*
X281947D01*
X282033Y179695D01*
X282062Y179667D01*
X282090Y179609D01*
Y179524D01*
X282062Y179467D01*
X282033Y179438D01*
X281947Y179409D01*
X281690D01*
D100*
X293779Y199094D02*
D03*
D101*
X283970Y194944D02*
X284944Y193970D01*
X283274Y192300D02*
X284944Y193970D01*
X282300Y193274D02*
X283274Y192300D01*
X282300Y193274D02*
X283970Y194944D01*
X289557Y196024D02*
Y196309D01*
X289587D01*
Y196024D02*
Y196309D01*
Y196024D02*
X289616D01*
Y196309D01*
X289528D02*
X289616D01*
X290669Y196024D02*
X290787D01*
Y196417D01*
Y196890D02*
Y197283D01*
X290669D02*
X290787D01*
X289528D02*
X289646D01*
X289528Y196890D02*
Y197283D01*
Y196024D02*
Y196417D01*
Y196024D02*
X289646D01*
M02*
