G04 Layer_Physical_Order=1*
G04 Layer_Color=255*
%FSAX24Y24*%
%MOIN*%
G70*
G01*
G75*
%ADD10R,0.0197X0.0250*%
G04:AMPARAMS|DCode=11|XSize=39.4mil|YSize=43.3mil|CornerRadius=0mil|HoleSize=0mil|Usage=FLASHONLY|Rotation=135.000|XOffset=0mil|YOffset=0mil|HoleType=Round|Shape=Rectangle|*
%AMROTATEDRECTD11*
4,1,4,0.0292,0.0014,-0.0014,-0.0292,-0.0292,-0.0014,0.0014,0.0292,0.0292,0.0014,0.0*
%
%ADD11ROTATEDRECTD11*%

G04:AMPARAMS|DCode=12|XSize=70mil|YSize=85mil|CornerRadius=0mil|HoleSize=0mil|Usage=FLASHONLY|Rotation=225.000|XOffset=0mil|YOffset=0mil|HoleType=Round|Shape=Rectangle|*
%AMROTATEDRECTD12*
4,1,4,-0.0053,0.0548,0.0548,-0.0053,0.0053,-0.0548,-0.0548,0.0053,-0.0053,0.0548,0.0*
%
%ADD12ROTATEDRECTD12*%

%ADD13R,0.0492X0.0098*%
%ADD14O,0.0492X0.0098*%
%ADD15R,0.0250X0.0197*%
%ADD16R,0.0433X0.0591*%
%ADD17R,0.0394X0.0433*%
%ADD18R,0.0433X0.0394*%
%ADD19R,0.0433X0.0551*%
G04:AMPARAMS|DCode=20|XSize=25mil|YSize=19.7mil|CornerRadius=0mil|HoleSize=0mil|Usage=FLASHONLY|Rotation=45.000|XOffset=0mil|YOffset=0mil|HoleType=Round|Shape=Rectangle|*
%AMROTATEDRECTD20*
4,1,4,-0.0019,-0.0158,-0.0158,-0.0019,0.0019,0.0158,0.0158,0.0019,-0.0019,-0.0158,0.0*
%
%ADD20ROTATEDRECTD20*%

%ADD21R,0.0551X0.0433*%
%ADD22R,0.0551X0.1378*%
%ADD23R,0.1260X0.0984*%
G04:AMPARAMS|DCode=24|XSize=25mil|YSize=19.7mil|CornerRadius=0mil|HoleSize=0mil|Usage=FLASHONLY|Rotation=135.000|XOffset=0mil|YOffset=0mil|HoleType=Round|Shape=Rectangle|*
%AMROTATEDRECTD24*
4,1,4,0.0158,-0.0019,0.0019,-0.0158,-0.0158,0.0019,-0.0019,0.0158,0.0158,-0.0019,0.0*
%
%ADD24ROTATEDRECTD24*%

%ADD25R,0.4409X0.0807*%
%ADD26R,0.0354X0.0374*%
%ADD27R,0.0354X0.0374*%
%ADD28R,0.0374X0.0354*%
%ADD29R,0.0374X0.0354*%
%ADD30R,0.4252X0.3937*%
%ADD31R,0.0354X0.1811*%
%ADD32R,0.3937X0.4252*%
%ADD33R,0.1811X0.0354*%
%ADD34R,0.2087X0.0374*%
%ADD35R,0.0315X0.0512*%
%ADD36R,0.0827X0.1181*%
%ADD37R,0.1150X0.0500*%
%ADD38R,0.0315X0.0630*%
%ADD39R,0.0689X0.0748*%
%ADD40R,0.0157X0.0551*%
%ADD41R,0.0453X0.0571*%
%ADD42R,0.0138X0.0630*%
G04:AMPARAMS|DCode=43|XSize=63mil|YSize=13.8mil|CornerRadius=3.4mil|HoleSize=0mil|Usage=FLASHONLY|Rotation=270.000|XOffset=0mil|YOffset=0mil|HoleType=Round|Shape=RoundedRectangle|*
%AMROUNDEDRECTD43*
21,1,0.0630,0.0069,0,0,270.0*
21,1,0.0561,0.0138,0,0,270.0*
1,1,0.0069,-0.0034,-0.0281*
1,1,0.0069,-0.0034,0.0281*
1,1,0.0069,0.0034,0.0281*
1,1,0.0069,0.0034,-0.0281*
%
%ADD43ROUNDEDRECTD43*%
%ADD44R,0.0551X0.0118*%
%ADD45R,0.1024X0.1024*%
%ADD46R,0.0118X0.0295*%
%ADD47R,0.0295X0.0118*%
%ADD48R,0.0472X0.0984*%
%ADD49O,0.0472X0.0984*%
G04:AMPARAMS|DCode=50|XSize=9.1mil|YSize=31.5mil|CornerRadius=1.8mil|HoleSize=0mil|Usage=FLASHONLY|Rotation=0.000|XOffset=0mil|YOffset=0mil|HoleType=Round|Shape=RoundedRectangle|*
%AMROUNDEDRECTD50*
21,1,0.0091,0.0279,0,0,0.0*
21,1,0.0054,0.0315,0,0,0.0*
1,1,0.0036,0.0027,-0.0139*
1,1,0.0036,-0.0027,-0.0139*
1,1,0.0036,-0.0027,0.0139*
1,1,0.0036,0.0027,0.0139*
%
%ADD50ROUNDEDRECTD50*%
%ADD51R,0.0945X0.0650*%
%ADD52R,0.0276X0.0110*%
G04:AMPARAMS|DCode=53|XSize=12.6mil|YSize=39.4mil|CornerRadius=0mil|HoleSize=0mil|Usage=FLASHONLY|Rotation=45.000|XOffset=0mil|YOffset=0mil|HoleType=Round|Shape=Rectangle|*
%AMROTATEDRECTD53*
4,1,4,0.0095,-0.0184,-0.0184,0.0095,-0.0095,0.0184,0.0184,-0.0095,0.0095,-0.0184,0.0*
%
%ADD53ROTATEDRECTD53*%

G04:AMPARAMS|DCode=54|XSize=12.6mil|YSize=39.4mil|CornerRadius=0mil|HoleSize=0mil|Usage=FLASHONLY|Rotation=315.000|XOffset=0mil|YOffset=0mil|HoleType=Round|Shape=Rectangle|*
%AMROTATEDRECTD54*
4,1,4,-0.0184,-0.0095,0.0095,0.0184,0.0184,0.0095,-0.0095,-0.0184,-0.0184,-0.0095,0.0*
%
%ADD54ROTATEDRECTD54*%

%ADD55R,0.0394X0.0079*%
%ADD56R,0.0906X0.0598*%
%ADD57R,0.0591X0.0433*%
%ADD58R,0.0335X0.0256*%
%ADD59R,0.0335X0.0335*%
%ADD60R,0.0472X0.0472*%
%ADD61R,0.0335X0.0335*%
%ADD62P,0.0473X4X360.0*%
%ADD63R,0.3504X0.4055*%
%ADD64R,0.1457X0.0512*%
%ADD65R,0.0240X0.0598*%
%ADD66O,0.0240X0.0598*%
%ADD67R,0.0394X0.0394*%
%ADD68R,0.0630X0.0709*%
%ADD69R,0.1181X0.0551*%
%ADD70R,0.2559X0.2362*%
%ADD71R,0.0650X0.0799*%
%ADD72C,0.0079*%
%ADD73C,0.0118*%
%ADD74C,0.0157*%
%ADD75C,0.0236*%
%ADD76C,0.0315*%
%ADD77C,0.0197*%
%ADD78C,0.0394*%
%ADD79C,0.0098*%
%ADD80C,0.0787*%
%ADD81C,0.1378*%
%ADD82C,0.0748*%
%ADD83C,0.0197*%
%ADD84C,0.2756*%
%ADD85C,0.0394*%
%ADD86C,0.0217*%
%ADD87C,0.0315*%
G36*
X271929Y177953D02*
X270433D01*
Y199803D01*
X271929D01*
Y177953D01*
D02*
G37*
G36*
X283489Y191841D02*
X283423Y191775D01*
X283616Y191582D01*
X283392Y191357D01*
X283392Y191357D01*
X283330Y191316D01*
X283288Y191254D01*
X283274Y191181D01*
X283288Y191108D01*
X283330Y191046D01*
X283392Y191005D01*
X283465Y190990D01*
X283538Y191005D01*
X283589Y191039D01*
X283613Y191042D01*
X283640Y191027D01*
X283647Y190969D01*
X283423Y190745D01*
X283681Y190487D01*
X283687Y190422D01*
X283356Y190091D01*
X283309Y190110D01*
Y190669D01*
X283309Y190669D01*
X283300Y190715D01*
X283274Y190754D01*
X283274Y190754D01*
X283195Y190833D01*
X283156Y190859D01*
X283110Y190868D01*
X283110Y190868D01*
X282890D01*
X282854Y190904D01*
X282854Y190965D01*
X282854Y191002D01*
Y191357D01*
X282859Y191364D01*
X282879Y191382D01*
X282904Y191394D01*
X282953Y191384D01*
X283026Y191399D01*
X283088Y191440D01*
X283129Y191502D01*
X283143Y191575D01*
X283129Y191648D01*
X283088Y191710D01*
X283026Y191751D01*
X282953Y191765D01*
X282904Y191756D01*
X282854Y191779D01*
X282854Y191829D01*
Y191887D01*
X283470D01*
X283489Y191841D01*
D02*
G37*
G36*
X283922Y190246D02*
X284051Y190117D01*
X284026Y190070D01*
X284016Y190073D01*
X283943Y190058D01*
X283881Y190017D01*
X283840Y189955D01*
X283825Y189882D01*
X283840Y189809D01*
X283881Y189747D01*
X283943Y189706D01*
X284004Y189694D01*
X284025Y189661D01*
X284031Y189643D01*
X284023Y189631D01*
X284013Y189585D01*
X283983Y189547D01*
X283930D01*
Y189204D01*
X283930Y189193D01*
Y189154D01*
X283930Y189143D01*
Y188799D01*
X283888Y188780D01*
X283760Y188780D01*
X283710Y188780D01*
X283631D01*
X283590Y188799D01*
Y189143D01*
X283626Y189186D01*
X283661Y189179D01*
X283734Y189194D01*
X283796Y189235D01*
X283838Y189297D01*
X283852Y189370D01*
X283838Y189443D01*
X283796Y189505D01*
X283734Y189546D01*
X283661Y189561D01*
X283635Y189555D01*
X283590Y189547D01*
X283559Y189585D01*
X283552Y189597D01*
X283562Y189612D01*
X283577Y189685D01*
X283562Y189758D01*
X283521Y189820D01*
X283506Y189829D01*
Y189901D01*
X283857Y190252D01*
X283922Y190246D01*
D02*
G37*
G36*
X266339Y198819D02*
X266142Y198622D01*
X265157Y198622D01*
X264961Y198819D01*
Y200667D01*
X266339D01*
X266339Y198819D01*
D02*
G37*
G36*
X257874Y200667D02*
X263386D01*
X263386Y198819D01*
X262992Y198425D01*
X262205Y197638D01*
Y180315D01*
X262992Y179528D01*
X263386Y179134D01*
X263386Y177286D01*
X257874D01*
X257869Y177285D01*
X257633Y177300D01*
X257395Y177348D01*
X257166Y177425D01*
X256949Y177532D01*
X256748Y177667D01*
X256566Y177826D01*
X256407Y178008D01*
X256272Y178209D01*
X256165Y178426D01*
X256088Y178655D01*
X256040Y178892D01*
X256025Y179129D01*
X256026Y179134D01*
Y187008D01*
X257480D01*
Y190945D01*
X256026D01*
Y198819D01*
X256025Y198824D01*
X256040Y199060D01*
X256088Y199298D01*
X256165Y199527D01*
X256272Y199744D01*
X256407Y199945D01*
X256566Y200127D01*
X256748Y200286D01*
X256949Y200420D01*
X257166Y200527D01*
X257395Y200605D01*
X257633Y200652D01*
X257869Y200668D01*
X257874Y200667D01*
D02*
G37*
G36*
X309297Y200652D02*
X309534Y200605D01*
X309763Y200527D01*
X309980Y200420D01*
X310181Y200286D01*
X310363Y200127D01*
X310522Y199945D01*
X310657Y199744D01*
X310764Y199527D01*
X310841Y199298D01*
X310889Y199060D01*
X310904Y198824D01*
X310903Y198819D01*
Y179134D01*
X310904Y179129D01*
X310889Y178892D01*
X310841Y178655D01*
X310764Y178426D01*
X310657Y178209D01*
X310522Y178008D01*
X310363Y177826D01*
X310181Y177667D01*
X309980Y177532D01*
X309763Y177425D01*
X309534Y177348D01*
X309297Y177300D01*
X309060Y177285D01*
X309055Y177286D01*
X288740D01*
X288740Y179370D01*
X288386Y179724D01*
Y182480D01*
X287795Y183071D01*
X282677Y183071D01*
X282087Y182480D01*
X282087Y177286D01*
X277559D01*
Y179041D01*
X277667D01*
X277744Y179057D01*
X277809Y179100D01*
X277937Y179228D01*
X277981Y179293D01*
X277996Y179370D01*
Y183518D01*
X278046Y183545D01*
X278077Y183525D01*
X278150Y183510D01*
X278223Y183525D01*
X278284Y183566D01*
X278326Y183628D01*
X278340Y183701D01*
X278326Y183774D01*
X278284Y183836D01*
X278223Y183877D01*
X278150Y183891D01*
X278077Y183877D01*
X278046Y183856D01*
X277996Y183883D01*
Y185429D01*
X278036Y185469D01*
X279528D01*
X279604Y185484D01*
X279669Y185527D01*
X280339Y186197D01*
X280598D01*
X280635Y186147D01*
X280626Y186102D01*
Y186041D01*
X280595Y186000D01*
X280568Y185936D01*
X280559Y185866D01*
X280568Y185797D01*
X280580Y185767D01*
X280539Y185735D01*
X280528Y185744D01*
X280463Y185771D01*
X280394Y185780D01*
X280324Y185771D01*
X280260Y185744D01*
X280204Y185701D01*
X280162Y185646D01*
X280135Y185581D01*
X280126Y185512D01*
X280135Y185442D01*
X280162Y185378D01*
X280204Y185322D01*
X280260Y185280D01*
X280324Y185253D01*
X280394Y185244D01*
X280463Y185253D01*
X280528Y185280D01*
X280569Y185311D01*
X281575D01*
X281652Y185326D01*
X281717Y185370D01*
X282071Y185724D01*
X282115Y185789D01*
X282130Y185866D01*
Y186457D01*
X282118Y186518D01*
X282118Y186522D01*
X282141Y186558D01*
X282152Y186568D01*
X282450D01*
X282461Y186568D01*
X282500D01*
X282511Y186568D01*
X282854D01*
Y186568D01*
X282904Y186591D01*
X282953Y186581D01*
X283001Y186591D01*
X283051Y186568D01*
Y186568D01*
X283406D01*
Y186962D01*
Y187369D01*
X283051D01*
Y187369D01*
X283001Y187346D01*
X282953Y187356D01*
X282904Y187346D01*
X282854Y187369D01*
Y187369D01*
X282511D01*
X282500Y187369D01*
X282461Y187395D01*
Y187749D01*
Y187960D01*
X282644Y188143D01*
X282854D01*
Y188536D01*
Y188930D01*
Y189338D01*
X282854D01*
Y189363D01*
X282854D01*
Y189840D01*
X283110D01*
X283110Y189840D01*
X283156Y189849D01*
X283195Y189875D01*
X283219Y189899D01*
X283265Y189880D01*
Y189829D01*
X283251Y189820D01*
X283210Y189758D01*
X283195Y189685D01*
X283210Y189612D01*
X283220Y189597D01*
X283193Y189547D01*
X283182D01*
Y189204D01*
X283182Y189193D01*
Y189154D01*
X283182Y189143D01*
Y188799D01*
X283140Y188780D01*
X283012D01*
Y188189D01*
X283710D01*
X283760Y188189D01*
X283810Y188189D01*
X284508D01*
Y188780D01*
X284379D01*
X284338Y188799D01*
Y189143D01*
X284338Y189154D01*
Y189193D01*
X284338Y189204D01*
Y189547D01*
X284332D01*
X284312Y189593D01*
X284443Y189724D01*
X284597Y189570D01*
X284879Y189288D01*
X285074Y189483D01*
X285269Y189678D01*
X285251Y189696D01*
X285300Y189746D01*
X285360Y189706D01*
X285433Y189691D01*
X285506Y189706D01*
X285568Y189747D01*
X285609Y189809D01*
X285624Y189882D01*
X285609Y189955D01*
X285568Y190017D01*
X285506Y190058D01*
X285433Y190073D01*
X285420Y190070D01*
X285385Y190105D01*
X285388Y190118D01*
X285373Y190191D01*
X285332Y190253D01*
X285270Y190294D01*
X285197Y190309D01*
X285160Y190301D01*
X285117Y190314D01*
X285107Y190338D01*
X285097Y190388D01*
X285056Y190450D01*
X284994Y190491D01*
X284921Y190506D01*
X284876Y190497D01*
X284833Y190537D01*
X284836Y190551D01*
X284822Y190624D01*
X284780Y190686D01*
X284719Y190727D01*
X284646Y190742D01*
X284633Y190739D01*
X284598Y190775D01*
X284600Y190787D01*
X284586Y190860D01*
X284544Y190922D01*
X284482Y190964D01*
X284409Y190978D01*
X284397Y190976D01*
X284361Y191011D01*
X284364Y191024D01*
X284349Y191097D01*
X284308Y191158D01*
X284246Y191200D01*
X284207Y191208D01*
X284197Y191261D01*
X284229Y191283D01*
X284271Y191344D01*
X284285Y191417D01*
X284282Y191432D01*
X284325Y191472D01*
X284370Y191463D01*
X284443Y191477D01*
X284505Y191519D01*
X284546Y191581D01*
X284561Y191654D01*
X284546Y191727D01*
X284505Y191788D01*
X284491Y191798D01*
Y191863D01*
X284491Y191863D01*
X284481Y191909D01*
X284455Y191948D01*
X284415Y191988D01*
X284434Y192007D01*
X284239Y192202D01*
X284044Y192397D01*
X284026Y192378D01*
X283976Y192428D01*
X283988Y192440D01*
X283700Y192729D01*
X283450Y192478D01*
X283558Y192369D01*
X283539Y192323D01*
X283083D01*
X282880Y192526D01*
X282854Y192544D01*
Y192645D01*
X282788D01*
X282762Y192684D01*
X282565Y192880D01*
X282526Y192907D01*
X282480Y192916D01*
X282480Y192916D01*
X282428D01*
X282418Y192930D01*
X282356Y192971D01*
X282283Y192986D01*
X282211Y192971D01*
X282149Y192930D01*
X282107Y192868D01*
X282093Y192795D01*
X282107Y192722D01*
X282149Y192660D01*
X282211Y192619D01*
X282283Y192605D01*
X282356Y192619D01*
X282418Y192660D01*
X282465Y192640D01*
X282500Y192605D01*
Y192262D01*
X282500Y192237D01*
X282500D01*
Y192212D01*
X282500D01*
Y191829D01*
X282500Y191804D01*
X282469Y191784D01*
X282461Y191779D01*
X282450Y191779D01*
X282106D01*
Y191779D01*
X282056Y191756D01*
X282008Y191765D01*
X281935Y191751D01*
X281873Y191710D01*
X281832Y191648D01*
X281817Y191575D01*
X281832Y191502D01*
X281873Y191440D01*
X281935Y191399D01*
X282008Y191384D01*
X282056Y191394D01*
X282106Y191371D01*
Y191371D01*
X282450D01*
X282461Y191371D01*
X282500Y191345D01*
Y191002D01*
X282500Y190977D01*
X282469Y190957D01*
X282461Y190952D01*
X282106D01*
Y190952D01*
X282056Y190929D01*
X282008Y190939D01*
X281935Y190924D01*
X281873Y190883D01*
X281863Y190868D01*
X281850D01*
X281804Y190859D01*
X281765Y190833D01*
X281686Y190754D01*
X281660Y190715D01*
X281651Y190669D01*
X281651Y190669D01*
Y190483D01*
X281631Y190463D01*
X281161D01*
Y190010D01*
Y189616D01*
Y189597D01*
X281486D01*
Y189497D01*
X281161D01*
Y189400D01*
X281486D01*
Y189300D01*
X281161D01*
Y189222D01*
Y189204D01*
X281486D01*
Y189104D01*
X281161D01*
Y189007D01*
X281486D01*
Y188907D01*
X281161D01*
Y188829D01*
Y188435D01*
Y188041D01*
Y188022D01*
X281486D01*
Y187922D01*
X281161D01*
Y187543D01*
X281111Y187528D01*
X281080Y187576D01*
X281018Y187617D01*
X280945Y187632D01*
X280872Y187617D01*
X280810Y187576D01*
X280769Y187514D01*
X280754Y187441D01*
X280769Y187368D01*
X280810Y187306D01*
Y187261D01*
X280769Y187199D01*
X280754Y187126D01*
X280769Y187053D01*
X280810Y186991D01*
X280872Y186950D01*
X280945Y186935D01*
X281018Y186950D01*
X281080Y186991D01*
X281111Y187039D01*
X281161Y187023D01*
Y186801D01*
X281083D01*
Y186598D01*
X280256D01*
X280179Y186583D01*
X280114Y186540D01*
X279811Y186236D01*
X279768Y186264D01*
X279786Y186309D01*
X279796Y186378D01*
X279786Y186447D01*
X279760Y186512D01*
X279717Y186567D01*
X279662Y186610D01*
X279597Y186637D01*
X279578Y186639D01*
X279547Y186694D01*
X279550Y186702D01*
X279559Y186772D01*
X279550Y186841D01*
X279547Y186849D01*
X279578Y186904D01*
X279597Y186906D01*
X279662Y186933D01*
X279717Y186976D01*
X279760Y187031D01*
X279786Y187096D01*
X279796Y187165D01*
X279786Y187235D01*
X279760Y187299D01*
X279717Y187355D01*
X279662Y187397D01*
X279597Y187424D01*
X279578Y187427D01*
X279547Y187481D01*
X279550Y187490D01*
X279559Y187559D01*
X279550Y187628D01*
X279547Y187637D01*
X279578Y187691D01*
X279597Y187694D01*
X279662Y187721D01*
X279717Y187763D01*
X279760Y187819D01*
X279786Y187883D01*
X279796Y187953D01*
X279786Y188022D01*
X279760Y188087D01*
X279717Y188142D01*
X279662Y188185D01*
X279597Y188212D01*
X279578Y188214D01*
X279547Y188269D01*
X279550Y188277D01*
X279559Y188346D01*
X279550Y188416D01*
X279547Y188424D01*
X279578Y188479D01*
X279597Y188481D01*
X279662Y188508D01*
X279717Y188551D01*
X279760Y188606D01*
X279786Y188671D01*
X279796Y188740D01*
X279786Y188810D01*
X279760Y188874D01*
X279717Y188930D01*
X279662Y188972D01*
X279597Y188999D01*
X279578Y189002D01*
X279547Y189056D01*
X279550Y189064D01*
X279559Y189134D01*
X279550Y189203D01*
X279547Y189212D01*
X279578Y189266D01*
X279597Y189269D01*
X279662Y189295D01*
X279717Y189338D01*
X279760Y189394D01*
X279786Y189458D01*
X279796Y189528D01*
X279786Y189597D01*
X279760Y189662D01*
X279717Y189717D01*
X279662Y189760D01*
X279597Y189786D01*
X279578Y189789D01*
X279547Y189844D01*
X279550Y189852D01*
X279559Y189921D01*
X279550Y189991D01*
X279523Y190055D01*
X279481Y190111D01*
X279425Y190153D01*
X279361Y190180D01*
X279291Y190189D01*
X279222Y190180D01*
X279205Y190173D01*
X279165Y190200D01*
Y190251D01*
X279195Y190271D01*
X279243Y190342D01*
X279260Y190427D01*
Y191010D01*
X279243Y191095D01*
X279195Y191166D01*
X279163Y191198D01*
Y191850D01*
X279030D01*
Y192047D01*
X279843D01*
Y192161D01*
X279990D01*
Y192106D01*
X280640D01*
Y192161D01*
X280974D01*
Y192106D01*
X281624D01*
Y192756D01*
X280974D01*
Y192642D01*
X280640D01*
Y192756D01*
X280591D01*
Y193543D01*
X280641Y193543D01*
X281417D01*
Y193587D01*
X281455Y193620D01*
X281457Y193620D01*
X281732D01*
X281804Y193629D01*
X281871Y193657D01*
X281929Y193701D01*
X281973Y193759D01*
X282001Y193826D01*
X282010Y193898D01*
X282001Y193970D01*
X281973Y194037D01*
X281929Y194094D01*
X281871Y194138D01*
X281804Y194166D01*
X281732Y194176D01*
X281457D01*
X281455Y194175D01*
X281417Y194208D01*
Y194252D01*
X280000D01*
Y193851D01*
X279974Y193813D01*
X279956Y193720D01*
Y193543D01*
X279803D01*
X279803Y192756D01*
X279753Y192756D01*
X278600D01*
X278565Y192791D01*
X278584Y196108D01*
X278496Y196181D01*
X277756Y196181D01*
X277677Y196260D01*
X277677Y199409D01*
X281496Y199409D01*
X281693Y199606D01*
Y200667D01*
X309055D01*
X309060Y200668D01*
X309297Y200652D01*
D02*
G37*
G36*
X287992Y182283D02*
X287992Y179528D01*
X288386Y179134D01*
X288386Y177286D01*
X282480D01*
X282480Y182283D01*
X282874Y182677D01*
X287598Y182677D01*
X287992Y182283D01*
D02*
G37*
G36*
X266142Y179331D02*
X266339Y179134D01*
X266339Y177286D01*
X264961D01*
Y179134D01*
X265157Y179331D01*
X266142Y179331D01*
D02*
G37*
%LPC*%
G36*
X261303Y184764D02*
X261153Y184749D01*
X261008Y184705D01*
X260875Y184634D01*
X260758Y184538D01*
X260662Y184421D01*
X260590Y184287D01*
X260547Y184143D01*
X260532Y183992D01*
X260547Y183842D01*
X260590Y183697D01*
X260662Y183564D01*
X260758Y183447D01*
X260875Y183351D01*
X261008Y183279D01*
X261153Y183236D01*
X261303Y183221D01*
X261454Y183236D01*
X261598Y183279D01*
X261732Y183351D01*
X261849Y183447D01*
X261945Y183564D01*
X262016Y183697D01*
X262060Y183842D01*
X262075Y183992D01*
X262060Y184143D01*
X262016Y184287D01*
X261945Y184421D01*
X261849Y184538D01*
X261732Y184634D01*
X261598Y184705D01*
X261454Y184749D01*
X261303Y184764D01*
D02*
G37*
G36*
Y194732D02*
X261153Y194717D01*
X261008Y194673D01*
X260875Y194602D01*
X260758Y194506D01*
X260662Y194389D01*
X260590Y194256D01*
X260547Y194111D01*
X260532Y193961D01*
X260547Y193810D01*
X260590Y193665D01*
X260662Y193532D01*
X260758Y193415D01*
X260875Y193319D01*
X261008Y193248D01*
X261153Y193204D01*
X261303Y193189D01*
X261454Y193204D01*
X261598Y193248D01*
X261732Y193319D01*
X261849Y193415D01*
X261945Y193532D01*
X262016Y193665D01*
X262060Y193810D01*
X262075Y193961D01*
X262060Y194111D01*
X262016Y194256D01*
X261945Y194389D01*
X261849Y194506D01*
X261732Y194602D01*
X261598Y194673D01*
X261454Y194717D01*
X261303Y194732D01*
D02*
G37*
G36*
X288543Y182588D02*
X288445D01*
Y182244D01*
X288543D01*
Y182588D01*
D02*
G37*
G36*
Y183032D02*
X288445D01*
Y182688D01*
X288543D01*
Y183032D01*
D02*
G37*
G36*
X284375Y185029D02*
X284108D01*
Y184823D01*
X284118Y184741D01*
X284150Y184664D01*
X284201Y184598D01*
X284266Y184548D01*
X284343Y184516D01*
X284375Y184512D01*
Y185029D01*
D02*
G37*
G36*
X284743D02*
X284475D01*
Y184512D01*
X284507Y184516D01*
X284584Y184548D01*
X284650Y184598D01*
X284700Y184664D01*
X284732Y184741D01*
X284743Y184823D01*
Y185029D01*
D02*
G37*
G36*
X283489Y184575D02*
Y184253D01*
X283642D01*
Y184382D01*
X283626Y184459D01*
X283582Y184525D01*
X283517Y184569D01*
X283489Y184575D01*
D02*
G37*
G36*
X279370Y185309D02*
X279297Y185294D01*
X279235Y185253D01*
X279194Y185191D01*
X279179Y185118D01*
X279194Y185045D01*
X279217Y185011D01*
X279190Y184961D01*
X279114D01*
X279090Y185011D01*
X279113Y185045D01*
X279128Y185118D01*
X279113Y185191D01*
X279072Y185253D01*
X279010Y185294D01*
X278937Y185309D01*
X278864Y185294D01*
X278802Y185253D01*
X278768Y185202D01*
X278750Y185198D01*
X278731D01*
X278712Y185202D01*
X278678Y185253D01*
X278616Y185294D01*
X278543Y185309D01*
X278470Y185294D01*
X278408Y185253D01*
X278367Y185191D01*
X278353Y185118D01*
X278367Y185045D01*
X278390Y185011D01*
X278366Y184961D01*
X278110D01*
Y184409D01*
X278701D01*
Y184961D01*
X278701D01*
X278697Y185002D01*
X278734Y185039D01*
X278746D01*
X278783Y185002D01*
X278780Y184961D01*
X278780D01*
Y184409D01*
X279370D01*
Y184927D01*
X279370Y184927D01*
X279443Y184942D01*
X279505Y184983D01*
X279546Y185045D01*
X279561Y185118D01*
X279546Y185191D01*
X279505Y185253D01*
X279443Y185294D01*
X279370Y185309D01*
D02*
G37*
G36*
X279803D02*
X279730Y185294D01*
X279668Y185253D01*
X279627Y185191D01*
X279612Y185118D01*
X279627Y185045D01*
X279668Y184983D01*
X279730Y184942D01*
X279803Y184927D01*
X279876Y184942D01*
X279938Y184983D01*
X279979Y185045D01*
X279994Y185118D01*
X279979Y185191D01*
X279938Y185253D01*
X279876Y185294D01*
X279803Y185309D01*
D02*
G37*
G36*
X287913Y186657D02*
X287837Y186642D01*
X287771Y186599D01*
X287659Y186486D01*
X287618Y186464D01*
Y186464D01*
X287618Y186464D01*
X287264D01*
Y186056D01*
Y185662D01*
X287219Y185650D01*
X287110D01*
Y184508D01*
X287740D01*
Y184839D01*
X287972D01*
X287988Y184789D01*
X287975Y184780D01*
X287934Y184719D01*
X287920Y184646D01*
X287934Y184573D01*
X287970Y184519D01*
X287824Y184372D01*
X284213D01*
X284213Y184372D01*
X284167Y184363D01*
X284127Y184337D01*
X284127Y184337D01*
X284049Y184258D01*
X284023Y184219D01*
X284013Y184173D01*
X284013Y184173D01*
Y183593D01*
X283966Y183546D01*
X283121D01*
X283059Y183607D01*
Y183865D01*
X283082Y183880D01*
X283126Y183946D01*
X283142Y184024D01*
Y184382D01*
X283126Y184459D01*
X283082Y184525D01*
X283069Y184534D01*
Y184617D01*
X283108Y184656D01*
X283445D01*
Y184760D01*
X283465Y184773D01*
X283495Y184781D01*
X283549Y184745D01*
X283622Y184731D01*
X283695Y184745D01*
X283757Y184786D01*
X283798Y184848D01*
X283813Y184921D01*
X283798Y184994D01*
X283763Y185048D01*
Y185276D01*
X283752Y185329D01*
X283721Y185375D01*
X283703Y185393D01*
Y185443D01*
X283819D01*
Y185974D01*
X283703D01*
Y186043D01*
X283693Y186097D01*
X283662Y186143D01*
X283563Y186242D01*
Y186424D01*
X283209D01*
Y186017D01*
X283289D01*
X283307Y185974D01*
X283307D01*
Y185443D01*
X283423D01*
Y185335D01*
X283433Y185281D01*
X283464Y185235D01*
X283474Y185225D01*
X283441Y185187D01*
X282933D01*
Y184850D01*
X282847Y184764D01*
X282818Y184721D01*
X282809Y184671D01*
Y184534D01*
X282796Y184525D01*
X282752Y184459D01*
X282736Y184382D01*
Y184374D01*
X282716Y184361D01*
X282686Y184353D01*
X282632Y184389D01*
X282559Y184403D01*
X282486Y184389D01*
X282424Y184347D01*
X282379D01*
X282317Y184389D01*
X282244Y184403D01*
X282171Y184389D01*
X282109Y184347D01*
X282068Y184286D01*
X282054Y184215D01*
X281732D01*
X281686Y184206D01*
X281647Y184180D01*
X281529Y184062D01*
X281503Y184022D01*
X281494Y183976D01*
X281494Y183976D01*
Y183839D01*
X281214D01*
Y183495D01*
X281214Y183484D01*
Y183445D01*
X281214Y183434D01*
Y183091D01*
X281424D01*
X281454Y183060D01*
Y182030D01*
X281289D01*
Y182165D01*
Y182638D01*
X280906D01*
Y183022D01*
X280550D01*
X280535Y183072D01*
X280568Y183094D01*
X280609Y183155D01*
X280624Y183228D01*
X280609Y183301D01*
X280568Y183363D01*
X280506Y183405D01*
X280433Y183419D01*
X280360Y183405D01*
X280298Y183363D01*
X280253D01*
X280191Y183405D01*
X280157Y183411D01*
Y183937D01*
X279567D01*
Y183386D01*
X279551Y183364D01*
X279550Y183363D01*
X279509Y183301D01*
X279494Y183228D01*
X279509Y183155D01*
X279550Y183094D01*
X279609Y183054D01*
X279646Y183022D01*
Y182638D01*
X279262D01*
X279235Y182677D01*
Y182736D01*
X279224Y182790D01*
X279213Y182807D01*
Y183189D01*
X278661D01*
Y182807D01*
X278650Y182790D01*
X278639Y182736D01*
Y182542D01*
X278589D01*
X278535Y182531D01*
X278490Y182501D01*
X278405Y182416D01*
X278374Y182370D01*
X278363Y182317D01*
Y182146D01*
X278300D01*
Y181791D01*
X278708D01*
X278728Y181760D01*
X278733Y181752D01*
X278733Y181741D01*
Y181398D01*
X278733D01*
X278756Y181348D01*
X278746Y181299D01*
X278761Y181226D01*
X278802Y181164D01*
X278864Y181123D01*
X278937Y181109D01*
X279010Y181123D01*
X279072Y181164D01*
X279113Y181226D01*
X279128Y181299D01*
X279118Y181348D01*
X279141Y181398D01*
X279141D01*
Y181741D01*
X279141Y181752D01*
Y181791D01*
X279141Y181802D01*
Y181986D01*
X279262D01*
Y181772D01*
Y181378D01*
X279646D01*
Y180994D01*
X280234D01*
Y180610D01*
X280244Y180556D01*
X280275Y180511D01*
X280373Y180412D01*
X280419Y180382D01*
X280472Y180371D01*
Y180236D01*
X281063D01*
Y180787D01*
X280515D01*
Y180994D01*
X280906D01*
Y181378D01*
X281289D01*
Y181592D01*
X281752D01*
X281752Y181592D01*
X281798Y181601D01*
X281837Y181627D01*
X281896Y181686D01*
X281922Y181726D01*
X281931Y181772D01*
X281931Y181772D01*
Y183060D01*
X281962Y183091D01*
X282172D01*
Y183434D01*
X282172Y183445D01*
Y183484D01*
X282172Y183495D01*
Y183817D01*
X282480D01*
X282480Y183817D01*
X282526Y183826D01*
X282565Y183852D01*
X282644Y183931D01*
X282670Y183970D01*
X282679Y184016D01*
Y184023D01*
X282686Y184030D01*
X282715Y184026D01*
X282740Y184006D01*
X282752Y183946D01*
X282796Y183880D01*
X282819Y183865D01*
Y183557D01*
X282819Y183557D01*
X282828Y183511D01*
X282854Y183472D01*
X282986Y183340D01*
X282986Y183340D01*
X283025Y183314D01*
X283071Y183305D01*
X284016D01*
X284016Y183305D01*
X284062Y183314D01*
X284101Y183340D01*
X284219Y183458D01*
X284219Y183458D01*
X284245Y183497D01*
X284254Y183543D01*
X284254Y183543D01*
Y184123D01*
X284262Y184132D01*
X284431D01*
X284447Y184082D01*
X284432Y184072D01*
X284391Y184010D01*
X284376Y183937D01*
X284391Y183864D01*
X284432Y183802D01*
X284494Y183761D01*
X284567Y183746D01*
X284640Y183761D01*
X284702Y183802D01*
X284743Y183864D01*
X284758Y183937D01*
X284743Y184010D01*
X284702Y184072D01*
X284687Y184082D01*
X284702Y184132D01*
X284904D01*
X284919Y184082D01*
X284905Y184072D01*
X284863Y184010D01*
X284849Y183937D01*
X284863Y183864D01*
X284905Y183802D01*
X284966Y183761D01*
X285039Y183746D01*
X285112Y183761D01*
X285174Y183802D01*
X285216Y183864D01*
X285230Y183937D01*
X285216Y184010D01*
X285174Y184072D01*
X285160Y184082D01*
X285175Y184132D01*
X287874D01*
X287874Y184132D01*
X287920Y184141D01*
X287959Y184167D01*
X288195Y184403D01*
X288195Y184403D01*
X288221Y184442D01*
X288231Y184488D01*
X288231Y184488D01*
Y184501D01*
X288245Y184511D01*
X288286Y184573D01*
X288301Y184646D01*
X288286Y184719D01*
X288245Y184780D01*
X288215Y184801D01*
X288225Y184854D01*
X288226Y184854D01*
X288292Y184897D01*
X288335Y184963D01*
X288350Y185039D01*
X288335Y185116D01*
X288292Y185181D01*
X288226Y185225D01*
X288150Y185240D01*
X287740D01*
Y185650D01*
X287663D01*
X287618Y185662D01*
Y186032D01*
X287620Y186035D01*
X287658Y186066D01*
X287668Y186069D01*
X287717Y186059D01*
X287793Y186074D01*
X287858Y186118D01*
X288055Y186315D01*
X288099Y186380D01*
X288114Y186457D01*
X288099Y186534D01*
X288055Y186599D01*
X287990Y186642D01*
X287913Y186657D01*
D02*
G37*
G36*
X283642Y184153D02*
X283489D01*
Y183831D01*
X283517Y183836D01*
X283582Y183880D01*
X283626Y183946D01*
X283642Y184024D01*
Y184153D01*
D02*
G37*
G36*
X286890Y183941D02*
X286614D01*
X286537Y183926D01*
X286472Y183882D01*
X286429Y183817D01*
X286413Y183740D01*
X286429Y183663D01*
X286472Y183598D01*
X286537Y183555D01*
X286614Y183539D01*
X286890D01*
X286967Y183555D01*
X287032Y183598D01*
X287075Y183663D01*
X287090Y183740D01*
X287075Y183817D01*
X287032Y183882D01*
X286967Y183926D01*
X286890Y183941D01*
D02*
G37*
G36*
X283389Y184575D02*
X283361Y184569D01*
X283296Y184525D01*
X283252Y184459D01*
X283236Y184382D01*
Y184253D01*
X283389D01*
Y184575D01*
D02*
G37*
G36*
X278504Y184246D02*
X278431Y184231D01*
X278369Y184190D01*
X278328Y184128D01*
X278313Y184055D01*
X278328Y183982D01*
X278369Y183920D01*
X278431Y183879D01*
X278504Y183864D01*
X278577Y183879D01*
X278639Y183920D01*
X278680Y183982D01*
X278695Y184055D01*
X278680Y184128D01*
X278639Y184190D01*
X278577Y184231D01*
X278504Y184246D01*
D02*
G37*
G36*
X283389Y184153D02*
X283236D01*
Y184024D01*
X283252Y183946D01*
X283296Y183880D01*
X283361Y183836D01*
X283389Y183831D01*
Y184153D01*
D02*
G37*
G36*
X278464Y178383D02*
X278396Y178374D01*
X278285Y178329D01*
X278191Y178256D01*
X278118Y178161D01*
X278073Y178051D01*
X278064Y177983D01*
X278464D01*
Y178383D01*
D02*
G37*
G36*
X291339Y178744D02*
X291215Y178728D01*
X291100Y178680D01*
X291002Y178605D01*
X290926Y178506D01*
X290878Y178391D01*
X290862Y178268D01*
X290878Y178144D01*
X290926Y178029D01*
X291002Y177931D01*
X291100Y177855D01*
X291215Y177807D01*
X291339Y177791D01*
X291462Y177807D01*
X291577Y177855D01*
X291676Y177931D01*
X291751Y178029D01*
X291799Y178144D01*
X291815Y178268D01*
X291799Y178391D01*
X291751Y178506D01*
X291676Y178605D01*
X291577Y178680D01*
X291462Y178728D01*
X291339Y178744D01*
D02*
G37*
G36*
X278964Y177883D02*
X278564D01*
Y177483D01*
X278632Y177492D01*
X278742Y177538D01*
X278837Y177610D01*
X278909Y177705D01*
X278955Y177815D01*
X278964Y177883D01*
D02*
G37*
G36*
X281379Y178383D02*
Y177983D01*
X281779D01*
X281770Y178051D01*
X281724Y178161D01*
X281652Y178256D01*
X281557Y178329D01*
X281447Y178374D01*
X281379Y178383D01*
D02*
G37*
G36*
X281279Y178383D02*
X281211Y178374D01*
X281100Y178329D01*
X281006Y178256D01*
X280933Y178161D01*
X280888Y178051D01*
X280879Y177983D01*
X281279D01*
Y178383D01*
D02*
G37*
G36*
X278564Y178383D02*
Y177983D01*
X278964D01*
X278955Y178051D01*
X278909Y178161D01*
X278837Y178256D01*
X278742Y178329D01*
X278632Y178374D01*
X278564Y178383D01*
D02*
G37*
G36*
X280787Y177883D02*
X280414D01*
Y177480D01*
X280787D01*
Y177883D01*
D02*
G37*
G36*
X279428Y177883D02*
X279055D01*
Y177480D01*
X279428D01*
Y177883D01*
D02*
G37*
G36*
X279941Y178386D02*
X279902D01*
X279891Y178386D01*
X279528D01*
Y177933D01*
Y177480D01*
X279891D01*
X279902Y177480D01*
X279941D01*
X279952Y177480D01*
X280314D01*
Y177933D01*
Y178386D01*
X279952D01*
X279941Y178386D01*
D02*
G37*
G36*
X281279Y177883D02*
X280879D01*
X280888Y177815D01*
X280933Y177705D01*
X281006Y177610D01*
X281100Y177538D01*
X281211Y177492D01*
X281279Y177483D01*
Y177883D01*
D02*
G37*
G36*
X281779D02*
X281379D01*
Y177483D01*
X281447Y177492D01*
X281557Y177538D01*
X281652Y177610D01*
X281724Y177705D01*
X281770Y177815D01*
X281779Y177883D01*
D02*
G37*
G36*
X278464Y177883D02*
X278064D01*
X278073Y177815D01*
X278118Y177705D01*
X278191Y177610D01*
X278285Y177538D01*
X278396Y177492D01*
X278464Y177483D01*
Y177883D01*
D02*
G37*
G36*
X279428Y178386D02*
X279055D01*
Y177983D01*
X279428D01*
Y178386D01*
D02*
G37*
G36*
X289213Y181496D02*
X288661D01*
Y180906D01*
X288817D01*
Y180827D01*
X288661D01*
Y180236D01*
X289213D01*
Y180273D01*
X289265D01*
X289275Y180259D01*
X289336Y180218D01*
X289409Y180203D01*
X289482Y180218D01*
X289544Y180259D01*
X289586Y180321D01*
X289600Y180394D01*
X289586Y180467D01*
X289544Y180529D01*
X289482Y180570D01*
X289409Y180584D01*
X289336Y180570D01*
X289275Y180529D01*
X289265Y180514D01*
X289213D01*
Y180827D01*
X289057D01*
Y180906D01*
X289213D01*
Y181496D01*
D02*
G37*
G36*
X291339Y180713D02*
X291215Y180697D01*
X291100Y180649D01*
X291002Y180573D01*
X290926Y180474D01*
X290878Y180360D01*
X290862Y180236D01*
X290878Y180113D01*
X290926Y179998D01*
X291002Y179899D01*
X291100Y179824D01*
X291215Y179776D01*
X291339Y179760D01*
X291462Y179776D01*
X291577Y179824D01*
X291676Y179899D01*
X291751Y179998D01*
X291799Y180113D01*
X291815Y180236D01*
X291799Y180360D01*
X291751Y180474D01*
X291676Y180573D01*
X291577Y180649D01*
X291462Y180697D01*
X291339Y180713D01*
D02*
G37*
G36*
X281152Y179175D02*
X280896D01*
Y178861D01*
X281152D01*
Y179175D01*
D02*
G37*
G36*
X278346Y180702D02*
X278273Y180688D01*
X278212Y180647D01*
X278170Y180585D01*
X278156Y180512D01*
X278170Y180439D01*
X278212Y180377D01*
X278273Y180336D01*
X278346Y180321D01*
X278419Y180336D01*
X278481Y180377D01*
X278523Y180439D01*
X278537Y180512D01*
X278523Y180585D01*
X278481Y180647D01*
X278419Y180688D01*
X278346Y180702D01*
D02*
G37*
G36*
X279961Y180309D02*
X279888Y180294D01*
X279826Y180253D01*
X279780D01*
X279719Y180294D01*
X279646Y180309D01*
X279573Y180294D01*
X279511Y180253D01*
X279470Y180191D01*
X279455Y180118D01*
X279459Y180098D01*
X279427Y180059D01*
X279154D01*
Y179538D01*
X279134Y179521D01*
X279061Y179507D01*
X279038Y179491D01*
X278915D01*
X278892Y179507D01*
X278819Y179521D01*
X278746Y179507D01*
X278684Y179466D01*
X278643Y179404D01*
X278628Y179331D01*
X278643Y179258D01*
X278670Y179217D01*
X278691Y179175D01*
Y178861D01*
X278996D01*
Y178811D01*
X279046D01*
Y178447D01*
X279301D01*
Y178622D01*
X280383D01*
Y178976D01*
Y179331D01*
X280042D01*
Y179478D01*
X280072Y179508D01*
X280453D01*
Y180059D01*
X280179D01*
X280147Y180098D01*
X280151Y180118D01*
X280137Y180191D01*
X280095Y180253D01*
X280034Y180294D01*
X279961Y180309D01*
D02*
G37*
G36*
X292126Y178458D02*
X292053Y178444D01*
X291991Y178403D01*
X291950Y178341D01*
X291935Y178268D01*
X291950Y178195D01*
X291991Y178133D01*
X292053Y178092D01*
X292126Y178077D01*
X292199Y178092D01*
X292261Y178133D01*
X292302Y178195D01*
X292317Y178268D01*
X292302Y178341D01*
X292261Y178403D01*
X292199Y178444D01*
X292126Y178458D01*
D02*
G37*
G36*
X280414Y178386D02*
Y177983D01*
X280787D01*
Y178386D01*
X280414D01*
D02*
G37*
G36*
X281152Y178761D02*
X280896D01*
Y178447D01*
X281152D01*
Y178761D01*
D02*
G37*
G36*
X280591Y179331D02*
X280483D01*
Y178976D01*
Y178622D01*
X280541D01*
Y178447D01*
X280796D01*
Y178811D01*
Y179175D01*
X280591D01*
Y179331D01*
D02*
G37*
G36*
X278946Y178761D02*
X278691D01*
Y178447D01*
X278946D01*
Y178761D01*
D02*
G37*
G36*
X279921Y195663D02*
X279848Y195649D01*
X279786Y195607D01*
X279752Y195556D01*
X279734Y195552D01*
X279715D01*
X279697Y195556D01*
X279662Y195607D01*
X279601Y195649D01*
X279528Y195663D01*
X279455Y195649D01*
X279393Y195607D01*
X279351Y195545D01*
X279337Y195472D01*
X279351Y195399D01*
X279393Y195338D01*
X279455Y195296D01*
X279528Y195282D01*
X279601Y195296D01*
X279662Y195338D01*
X279697Y195389D01*
X279715Y195393D01*
X279734D01*
X279752Y195389D01*
X279786Y195338D01*
X279848Y195296D01*
X279921Y195282D01*
X279994Y195296D01*
X280056Y195338D01*
X280097Y195399D01*
X280112Y195472D01*
X280097Y195545D01*
X280056Y195607D01*
X279994Y195649D01*
X279921Y195663D01*
D02*
G37*
G36*
X301181Y198479D02*
X300969Y198465D01*
X300760Y198423D01*
X300558Y198355D01*
X300367Y198261D01*
X300190Y198142D01*
X300030Y198002D01*
X299889Y197842D01*
X299771Y197665D01*
X299677Y197474D01*
X299608Y197272D01*
X299567Y197063D01*
X299553Y196850D01*
X299567Y196638D01*
X299608Y196429D01*
X299677Y196227D01*
X299771Y196036D01*
X299889Y195859D01*
X300030Y195699D01*
X300190Y195559D01*
X300367Y195440D01*
X300558Y195346D01*
X300760Y195278D01*
X300969Y195236D01*
X301181Y195222D01*
X301394Y195236D01*
X301603Y195278D01*
X301804Y195346D01*
X301995Y195440D01*
X302172Y195559D01*
X302332Y195699D01*
X302473Y195859D01*
X302591Y196036D01*
X302685Y196227D01*
X302754Y196429D01*
X302795Y196638D01*
X302809Y196850D01*
X302795Y197063D01*
X302754Y197272D01*
X302685Y197474D01*
X302591Y197665D01*
X302473Y197842D01*
X302332Y198002D01*
X302172Y198142D01*
X301995Y198261D01*
X301804Y198355D01*
X301603Y198423D01*
X301394Y198465D01*
X301181Y198479D01*
D02*
G37*
G36*
X285945Y195939D02*
X285872Y195924D01*
X285810Y195883D01*
X285769Y195821D01*
X285754Y195748D01*
X285769Y195675D01*
X285810Y195613D01*
X285861Y195579D01*
X285865Y195561D01*
Y195542D01*
X285861Y195523D01*
X285810Y195489D01*
X285769Y195427D01*
X285754Y195354D01*
X285769Y195281D01*
X285810Y195220D01*
X285872Y195178D01*
X285945Y195164D01*
X286007Y195176D01*
X286056Y195177D01*
X286056Y195177D01*
X286056Y195177D01*
X286415D01*
X286452Y195177D01*
X286479Y195134D01*
X286139Y194793D01*
X285787D01*
Y194262D01*
X286299D01*
Y194613D01*
X286719Y195033D01*
X286738Y195021D01*
X286811Y195006D01*
X286884Y195021D01*
X286946Y195062D01*
X286987Y195124D01*
X287002Y195197D01*
X286987Y195270D01*
X286946Y195332D01*
X286884Y195373D01*
X286811Y195388D01*
X286738Y195373D01*
X286676Y195332D01*
X286656Y195301D01*
X286627Y195282D01*
X286627Y195282D01*
X286507Y195162D01*
X286464Y195189D01*
X286464Y195222D01*
Y195521D01*
X286464Y195532D01*
Y195571D01*
X286464Y195581D01*
Y195925D01*
X286056D01*
X286056Y195925D01*
X286007Y195926D01*
X285945Y195939D01*
D02*
G37*
G36*
X279921Y197080D02*
X279848Y197066D01*
X279786Y197025D01*
X279745Y196963D01*
X279731Y196890D01*
X279745Y196817D01*
X279786Y196755D01*
Y196710D01*
X279745Y196648D01*
X279731Y196575D01*
X279745Y196502D01*
X279786Y196440D01*
X279848Y196399D01*
X279921Y196384D01*
X279994Y196399D01*
X280056Y196440D01*
X280097Y196502D01*
X280112Y196575D01*
X280097Y196648D01*
X280056Y196710D01*
Y196755D01*
X280097Y196817D01*
X280112Y196890D01*
X280097Y196963D01*
X280056Y197025D01*
X279994Y197066D01*
X279921Y197080D01*
D02*
G37*
G36*
X291535Y196417D02*
X290945D01*
Y196223D01*
X290787D01*
X290787Y196223D01*
X290741Y196214D01*
X290727Y196204D01*
X290711Y196207D01*
X290674Y196228D01*
X290670Y196250D01*
X290648Y196282D01*
X290616Y196303D01*
X290578Y196311D01*
X290524D01*
X290486Y196303D01*
X290453Y196283D01*
X290419Y196303D01*
X290382Y196311D01*
X290327D01*
X290289Y196303D01*
X290257Y196282D01*
X290236Y196250D01*
X290228Y196212D01*
Y195933D01*
X290234Y195906D01*
Y195787D01*
X290234Y195787D01*
X290243Y195741D01*
X290269Y195702D01*
X290505Y195466D01*
X290505Y195466D01*
X290544Y195440D01*
X290591Y195431D01*
X290591Y195431D01*
X290945D01*
Y195315D01*
X291535D01*
Y195866D01*
X291535D01*
Y195866D01*
X291535D01*
Y196417D01*
D02*
G37*
G36*
X289232Y196439D02*
X288839D01*
X288829Y196437D01*
X288819Y196436D01*
X288814Y196434D01*
X288808Y196432D01*
X288800Y196427D01*
X288791Y196423D01*
X288787Y196418D01*
X288782Y196415D01*
X288776Y196407D01*
X288770Y196400D01*
X288713Y196305D01*
X288660Y196234D01*
X288609Y196183D01*
X288540Y196132D01*
X288429Y196076D01*
X288397Y196060D01*
X288332Y196044D01*
X288188Y196026D01*
X288026Y196044D01*
X287961Y196060D01*
X287857Y196112D01*
X287789Y196163D01*
X287682Y196270D01*
X287629Y196358D01*
X287611Y196394D01*
X287603Y196404D01*
X287596Y196415D01*
X287594Y196417D01*
X287592Y196419D01*
X287581Y196425D01*
X287570Y196432D01*
X287567Y196433D01*
X287565Y196434D01*
X287552Y196436D01*
X287539Y196439D01*
X287146D01*
X287115Y196432D01*
X287089Y196415D01*
X287071Y196389D01*
X287065Y196358D01*
Y195945D01*
X287067Y195937D01*
Y195492D01*
X289311D01*
Y195832D01*
X289498D01*
X289590Y195850D01*
X289623Y195872D01*
X289667Y195864D01*
X289692Y195847D01*
X289698Y195832D01*
X289702Y195816D01*
X289705Y195790D01*
X289659Y195722D01*
X289641Y195630D01*
Y195236D01*
X289370D01*
Y194370D01*
X290157D01*
Y194370D01*
X290197D01*
Y194370D01*
X290697D01*
Y194252D01*
X290522D01*
Y193543D01*
X290697D01*
Y193425D01*
X290522D01*
Y192717D01*
X291112D01*
Y193425D01*
X290937D01*
Y193543D01*
X291112D01*
Y194252D01*
X290937D01*
Y194370D01*
X290984D01*
Y195236D01*
X290197D01*
Y195236D01*
X290173D01*
X290123Y195272D01*
Y195630D01*
X290104Y195722D01*
X290076Y195764D01*
X290081Y195787D01*
X290081Y195787D01*
Y195906D01*
X290087Y195933D01*
Y196212D01*
X290079Y196250D01*
X290058Y196282D01*
X290026Y196303D01*
X289988Y196311D01*
X289933D01*
X289896Y196303D01*
X289862Y196283D01*
X289829Y196303D01*
X289791Y196311D01*
X289737D01*
X289699Y196303D01*
X289667Y196282D01*
X289623Y196273D01*
X289590Y196295D01*
X289498Y196314D01*
X289313D01*
Y196358D01*
X289306Y196389D01*
X289289Y196415D01*
X289263Y196432D01*
X289232Y196439D01*
D02*
G37*
G36*
X282677Y195860D02*
X282604Y195845D01*
X282542Y195804D01*
X282501Y195742D01*
X282486Y195669D01*
X282501Y195596D01*
X282537Y195542D01*
Y195328D01*
X282274Y195065D01*
X282664Y194675D01*
X283081Y195093D01*
X282818Y195356D01*
Y195544D01*
X282853Y195596D01*
X282868Y195669D01*
X282853Y195742D01*
X282812Y195804D01*
X282750Y195845D01*
X282677Y195860D01*
D02*
G37*
G36*
X286535Y194225D02*
X286284Y193974D01*
X286292Y193967D01*
X286277Y193919D01*
X286266Y193916D01*
X286204Y193875D01*
X286162Y193813D01*
X286148Y193740D01*
X286162Y193667D01*
X286179Y193643D01*
Y193501D01*
X285795Y193117D01*
X285999Y192913D01*
X286194Y193108D01*
X286394Y193308D01*
X286384Y193336D01*
X286410Y193375D01*
X286420Y193421D01*
X286420Y193421D01*
Y193569D01*
X286473Y193605D01*
X286515Y193667D01*
X286517Y193679D01*
X286565Y193694D01*
X286573Y193686D01*
X286823Y193937D01*
X286535Y194225D01*
D02*
G37*
G36*
X283349Y194975D02*
X283098Y194725D01*
X283386Y194437D01*
X283535Y194586D01*
X283546D01*
X283710Y194422D01*
X283492Y194204D01*
X283763Y193933D01*
X283694Y193865D01*
X283668Y193826D01*
X283659Y193780D01*
X283659Y193780D01*
Y193593D01*
X283649Y193562D01*
X283612Y193546D01*
X283425D01*
X283425Y193546D01*
X283379Y193536D01*
X283340Y193510D01*
X283291Y193501D01*
X283040Y193752D01*
X282822Y193534D01*
X282658Y193698D01*
Y193709D01*
X282807Y193858D01*
X282519Y194146D01*
X282269Y193895D01*
X282418Y193746D01*
Y193648D01*
X282418Y193648D01*
X282427Y193602D01*
X282453Y193563D01*
X282652Y193364D01*
X282434Y193146D01*
X283146Y192434D01*
X283752Y193040D01*
X283548Y193245D01*
X283567Y193295D01*
X283599Y193299D01*
X284244Y192654D01*
X284238Y192590D01*
X284115Y192467D01*
X284310Y192272D01*
X284505Y192077D01*
X284523Y192096D01*
X284618Y192001D01*
X284618Y192001D01*
X284649Y191981D01*
X284668Y191952D01*
X284730Y191910D01*
X284803Y191896D01*
X284816Y191898D01*
X284851Y191863D01*
X284849Y191850D01*
X284863Y191777D01*
X284905Y191716D01*
X284966Y191674D01*
X285039Y191660D01*
X285112Y191674D01*
X285150Y191699D01*
X285195Y191688D01*
X285207Y191681D01*
X285230Y191647D01*
X286060Y190817D01*
X286035Y190771D01*
X285984Y190781D01*
X285911Y190767D01*
X285849Y190725D01*
X285808Y190664D01*
X285794Y190591D01*
X285808Y190518D01*
X285849Y190456D01*
X285864Y190446D01*
Y190249D01*
X285864Y190249D01*
X285873Y190203D01*
X285899Y190164D01*
X286198Y189865D01*
X286192Y189800D01*
X285795Y189403D01*
X286184Y189013D01*
X286199Y189028D01*
X286297Y188931D01*
Y188489D01*
X286266Y188483D01*
X286204Y188442D01*
X286162Y188380D01*
X286148Y188307D01*
X286162Y188234D01*
X286204Y188172D01*
X286266Y188131D01*
X286339Y188116D01*
X286412Y188131D01*
X286473Y188172D01*
X286515Y188234D01*
X286518Y188250D01*
X286566Y188264D01*
X286608Y188222D01*
X286608Y188222D01*
X286647Y188196D01*
X286693Y188187D01*
X286693Y188187D01*
X286745D01*
X286755Y188172D01*
X286817Y188131D01*
X286890Y188116D01*
X286963Y188131D01*
X287025Y188172D01*
X287037Y188191D01*
X287097D01*
X287109Y188172D01*
X287171Y188131D01*
X287244Y188116D01*
X287317Y188131D01*
X287379Y188172D01*
X287420Y188234D01*
X287435Y188307D01*
X287420Y188380D01*
X287379Y188442D01*
X287358Y188456D01*
X287355Y188471D01*
X287329Y188510D01*
X287211Y188628D01*
X287172Y188655D01*
X287126Y188664D01*
X287126Y188664D01*
X286861D01*
X286853Y188672D01*
Y189048D01*
X286899Y189067D01*
X287036Y188930D01*
X287044Y188922D01*
X287072Y188894D01*
X287079Y188887D01*
X287322Y188644D01*
X287557Y188879D01*
X287612Y188862D01*
X287619Y188825D01*
X287660Y188763D01*
X287722Y188721D01*
X287795Y188707D01*
X287868Y188721D01*
X287930Y188763D01*
X287971Y188825D01*
X287986Y188898D01*
X287971Y188971D01*
X287933Y189027D01*
X287925Y189070D01*
X287895Y189115D01*
X287844Y189166D01*
X288167Y189489D01*
X287924Y189732D01*
X287917Y189739D01*
X287889Y189767D01*
X287881Y189775D01*
X287638Y190018D01*
X287638D01*
X287599Y190022D01*
X287576Y190056D01*
X287514Y190097D01*
X287441Y190112D01*
X287368Y190097D01*
X287326Y190069D01*
X287314Y190072D01*
X287297Y190126D01*
X287437Y190266D01*
X287641Y190470D01*
X287446Y190665D01*
X287517Y190736D01*
X287712Y190541D01*
X287731Y190559D01*
X287882Y190408D01*
X287882Y190408D01*
X287921Y190382D01*
X287961Y190374D01*
X288111Y190224D01*
X288111D01*
X288162Y190205D01*
X288170Y190163D01*
X288212Y190101D01*
X288273Y190060D01*
X288346Y190046D01*
X288419Y190060D01*
X288481Y190101D01*
X288523Y190163D01*
X288537Y190236D01*
X288523Y190309D01*
X288481Y190371D01*
X288419Y190412D01*
X288378Y190421D01*
X288361Y190475D01*
Y190475D01*
X288113Y190723D01*
X288125Y190782D01*
X288166Y190810D01*
X288208Y190872D01*
X288222Y190945D01*
X288208Y191018D01*
X288166Y191080D01*
X288104Y191121D01*
X288032Y191136D01*
X288015Y191132D01*
X287723Y191424D01*
X287684Y191450D01*
X287665Y191454D01*
X287649Y191508D01*
X287718Y191577D01*
X287773Y191561D01*
X287777Y191541D01*
X287818Y191479D01*
X287880Y191438D01*
X287953Y191423D01*
X288026Y191438D01*
X288088Y191479D01*
X288129Y191541D01*
X288143Y191614D01*
X288129Y191687D01*
X288088Y191749D01*
X288026Y191790D01*
X287976Y191800D01*
X287920Y191857D01*
X287899Y191871D01*
X287894Y191924D01*
X287895Y191929D01*
X287930Y191952D01*
X287971Y192014D01*
X287986Y192087D01*
X287971Y192160D01*
X287950Y192192D01*
X287977Y192242D01*
X288025D01*
Y192224D01*
X288432D01*
Y192304D01*
X288474Y192323D01*
Y192323D01*
X289006D01*
Y192835D01*
X288474D01*
Y192699D01*
X288406D01*
X288406Y192699D01*
X288359Y192690D01*
X288320Y192664D01*
X288320Y192664D01*
X288235Y192579D01*
X288025D01*
Y192483D01*
X287813D01*
X287793Y192533D01*
X288002Y192742D01*
X288010Y192750D01*
X288038Y192778D01*
X288045Y192785D01*
X288288Y193028D01*
X288229Y193087D01*
X288353Y193211D01*
X288353Y193211D01*
X288379Y193250D01*
X288385Y193278D01*
X288403Y193290D01*
X288444Y193352D01*
X288458Y193425D01*
X288444Y193498D01*
X288403Y193560D01*
X288341Y193601D01*
X288268Y193616D01*
X288195Y193601D01*
X288133Y193560D01*
X288092Y193498D01*
X288077Y193425D01*
X288092Y193352D01*
X288116Y193315D01*
X288059Y193257D01*
X287722Y193595D01*
X287479Y193352D01*
X287471Y193344D01*
X287443Y193316D01*
X287436Y193309D01*
X287193Y193066D01*
X287197Y193061D01*
X287183Y193013D01*
X287171Y193011D01*
X287109Y192969D01*
X287099Y192954D01*
X287059Y192946D01*
X287020Y192920D01*
X287020Y192920D01*
X286895Y192795D01*
X286785Y192905D01*
X286804Y192933D01*
X286813Y192979D01*
X286813Y192979D01*
Y193241D01*
X286828Y193251D01*
X286869Y193313D01*
X286871Y193325D01*
X286919Y193339D01*
X286924Y193334D01*
X287175Y193585D01*
X286886Y193873D01*
X286636Y193623D01*
X286646Y193612D01*
X286632Y193564D01*
X286620Y193562D01*
X286558Y193521D01*
X286517Y193459D01*
X286502Y193386D01*
X286517Y193313D01*
X286558Y193251D01*
X286572Y193241D01*
Y193184D01*
X286526Y193164D01*
X286459Y193232D01*
X286264Y193037D01*
X286069Y192842D01*
X286088Y192823D01*
X285938Y192674D01*
X285912Y192635D01*
X285903Y192589D01*
X285903Y192589D01*
Y191680D01*
X285889Y191670D01*
X285847Y191608D01*
X285833Y191535D01*
X285847Y191462D01*
X285889Y191401D01*
X285951Y191359D01*
X286024Y191345D01*
X286097Y191359D01*
X286158Y191401D01*
X286200Y191462D01*
X286214Y191535D01*
X286200Y191608D01*
X286158Y191670D01*
X286144Y191680D01*
Y192539D01*
X286258Y192653D01*
X286630Y192282D01*
X286923Y191988D01*
X286871Y191936D01*
X286845Y191896D01*
X286835Y191850D01*
X286835Y191850D01*
Y191811D01*
X286832Y191805D01*
X286817Y191732D01*
X286832Y191659D01*
X286873Y191597D01*
X286935Y191556D01*
X287008Y191542D01*
X287074Y191555D01*
X287094Y191547D01*
X287124Y191525D01*
Y191496D01*
X287124Y191496D01*
X287133Y191450D01*
X287159Y191411D01*
X287316Y191253D01*
X287316Y191253D01*
X287355Y191227D01*
X287402Y191218D01*
X287588D01*
X287844Y190962D01*
X287841Y190945D01*
X287845Y190923D01*
X287806Y190866D01*
X287796Y190865D01*
X287526Y191135D01*
X287268Y190876D01*
X287252Y190874D01*
X287207Y190909D01*
Y190958D01*
X287221Y190968D01*
X287263Y191029D01*
X287277Y191102D01*
X287263Y191175D01*
X287221Y191237D01*
X287160Y191279D01*
X287087Y191293D01*
X287014Y191279D01*
X286952Y191237D01*
X286910Y191175D01*
X286896Y191102D01*
X286910Y191029D01*
X286938Y190989D01*
X286938Y190987D01*
X286927Y190934D01*
X286923Y190928D01*
X286916Y190926D01*
X286850Y190939D01*
X286777Y190924D01*
X286716Y190883D01*
X286674Y190821D01*
X286660Y190748D01*
X286662Y190735D01*
X286627Y190700D01*
X286614Y190702D01*
X286541Y190688D01*
X286479Y190647D01*
X286470Y190632D01*
X286420Y190647D01*
Y190748D01*
X286420Y190748D01*
X286410Y190794D01*
X286384Y190833D01*
X286384Y190833D01*
X285435Y191782D01*
Y191975D01*
X285506Y191989D01*
X285568Y192031D01*
X285609Y192092D01*
X285624Y192165D01*
X285609Y192238D01*
X285568Y192300D01*
X285510Y192339D01*
X285502Y192350D01*
X285490Y192390D01*
X285530Y192430D01*
X285530Y192430D01*
X285556Y192469D01*
X285566Y192515D01*
Y192737D01*
X285556Y192783D01*
X285530Y192822D01*
X285530Y192822D01*
X285390Y192962D01*
X285544Y193117D01*
X285154Y193506D01*
X285137Y193549D01*
X285207Y193620D01*
X285413D01*
Y193474D01*
X285925D01*
Y194006D01*
X285413D01*
Y193861D01*
X285157D01*
X285111Y193851D01*
X285072Y193825D01*
X285072Y193825D01*
X284639Y193392D01*
X284613Y193353D01*
X284604Y193307D01*
X284604Y193307D01*
Y193179D01*
X284604Y193179D01*
X284613Y193133D01*
X284639Y193094D01*
X284661Y193072D01*
X284655Y193007D01*
X284582Y192935D01*
X283900Y193617D01*
Y193725D01*
X283939Y193757D01*
X284204Y193492D01*
X284810Y194098D01*
X284098Y194810D01*
X283880Y194592D01*
X283681Y194791D01*
X283642Y194817D01*
X283596Y194827D01*
X283596Y194827D01*
X283498D01*
X283349Y194975D01*
D02*
G37*
G36*
X278898Y195309D02*
X278825Y195294D01*
X278763Y195253D01*
X278721Y195191D01*
X278707Y195118D01*
X278721Y195045D01*
X278763Y194983D01*
Y194938D01*
X278721Y194876D01*
X278707Y194803D01*
X278721Y194730D01*
X278763Y194668D01*
X278825Y194627D01*
X278898Y194612D01*
X278971Y194627D01*
X279032Y194668D01*
X279074Y194730D01*
X279088Y194803D01*
X279074Y194876D01*
X279032Y194938D01*
Y194983D01*
X279074Y195045D01*
X279088Y195118D01*
X279074Y195191D01*
X279032Y195253D01*
X278971Y195294D01*
X278898Y195309D01*
D02*
G37*
G36*
X280039Y194836D02*
X279966Y194822D01*
X279905Y194780D01*
X279863Y194719D01*
X279849Y194646D01*
X279863Y194573D01*
X279905Y194511D01*
X279966Y194470D01*
X280039Y194455D01*
X280112Y194470D01*
X280174Y194511D01*
X280216Y194573D01*
X280230Y194646D01*
X280216Y194719D01*
X280174Y194780D01*
X280112Y194822D01*
X280039Y194836D01*
D02*
G37*
G36*
X281929Y195073D02*
X281856Y195058D01*
X281794Y195017D01*
X281753Y194955D01*
X281738Y194882D01*
X281753Y194809D01*
X281794Y194747D01*
X281849Y194711D01*
X281865Y194657D01*
X281801Y194592D01*
X282190Y194202D01*
X282608Y194620D01*
X282218Y195010D01*
X282154Y194946D01*
X282100Y194962D01*
X282064Y195017D01*
X282002Y195058D01*
X281929Y195073D01*
D02*
G37*
G36*
X285236Y196972D02*
X285159Y196957D01*
X285106Y196922D01*
X285056Y196906D01*
X284994Y196948D01*
X284921Y196962D01*
X284848Y196948D01*
X284786Y196906D01*
X284741D01*
X284679Y196948D01*
X284606Y196962D01*
X284533Y196948D01*
X284471Y196906D01*
X284426D01*
X284364Y196948D01*
X284291Y196962D01*
X284218Y196948D01*
X284157Y196906D01*
X284147Y196892D01*
X283858D01*
X283858Y196892D01*
X283812Y196883D01*
X283773Y196857D01*
X283675Y196758D01*
X283649Y196719D01*
X283639Y196673D01*
X283639Y196673D01*
Y196358D01*
X283524D01*
Y195689D01*
X283996D01*
Y195689D01*
X284016D01*
Y195689D01*
X284458D01*
X284488Y195689D01*
Y195689D01*
X284508D01*
Y195689D01*
X284980D01*
Y195689D01*
X285000D01*
Y195689D01*
X285472D01*
Y196358D01*
X285437D01*
Y196772D01*
X285422Y196848D01*
X285378Y196914D01*
X285313Y196957D01*
X285236Y196972D01*
D02*
G37*
G36*
X289488Y199872D02*
X288780D01*
Y199282D01*
X288780D01*
Y199262D01*
X288780D01*
Y198671D01*
X289488D01*
Y199262D01*
X289488D01*
Y199282D01*
X289488D01*
Y199872D01*
D02*
G37*
G36*
X288543D02*
X287835D01*
Y199282D01*
X287835D01*
Y199262D01*
X287835D01*
Y198671D01*
X288543D01*
Y199262D01*
X288543D01*
Y199282D01*
X288543D01*
Y199872D01*
D02*
G37*
G36*
X287598D02*
X286890D01*
Y199282D01*
X286890D01*
Y199262D01*
X286890D01*
Y199138D01*
X286654D01*
X286577Y199122D01*
X286512Y199079D01*
X286468Y199014D01*
X286453Y198937D01*
Y198622D01*
Y198307D01*
X286468Y198230D01*
X286512Y198165D01*
X286577Y198122D01*
X286654Y198106D01*
X286730Y198122D01*
X286795Y198165D01*
X286839Y198230D01*
X286840Y198234D01*
X286890Y198229D01*
Y197982D01*
X287043D01*
Y197756D01*
X287059Y197679D01*
X287067Y197667D01*
Y197370D01*
X287065Y197362D01*
Y196949D01*
X287071Y196918D01*
X287089Y196892D01*
X287115Y196875D01*
X287146Y196869D01*
X287539D01*
X287552Y196871D01*
X287565Y196873D01*
X287567Y196874D01*
X287570Y196875D01*
X287581Y196882D01*
X287592Y196888D01*
X287594Y196890D01*
X287596Y196892D01*
X287603Y196903D01*
X287611Y196913D01*
X287648Y196987D01*
X287680Y197035D01*
X287806Y197161D01*
X287893Y197213D01*
X287924Y197229D01*
X288029Y197264D01*
X288189Y197281D01*
X288352Y197263D01*
X288417Y197247D01*
X288523Y197194D01*
X288571Y197162D01*
X288660Y197073D01*
X288713Y197002D01*
X288770Y196908D01*
X288776Y196900D01*
X288782Y196892D01*
X288787Y196889D01*
X288791Y196884D01*
X288800Y196880D01*
X288808Y196875D01*
X288814Y196873D01*
X288819Y196871D01*
X288829Y196870D01*
X288839Y196869D01*
X289232D01*
X289263Y196875D01*
X289289Y196892D01*
X289306Y196918D01*
X289313Y196949D01*
Y197362D01*
X289311Y197370D01*
Y197667D01*
X289319Y197679D01*
X289335Y197756D01*
Y197982D01*
X289488D01*
Y198108D01*
X289525Y198128D01*
X289538Y198130D01*
X289606Y198116D01*
X289679Y198131D01*
X289741Y198172D01*
X289782Y198234D01*
X289797Y198307D01*
X289782Y198380D01*
X289741Y198442D01*
X289679Y198483D01*
X289606Y198498D01*
X289538Y198484D01*
X289525Y198487D01*
X289488Y198506D01*
Y198573D01*
X288780D01*
Y197982D01*
X288933D01*
Y197839D01*
X288909Y197815D01*
X288390D01*
Y197982D01*
X288543D01*
Y198573D01*
X287835D01*
Y197982D01*
X287988D01*
Y197815D01*
X287469D01*
X287445Y197839D01*
Y197982D01*
X287598D01*
Y198573D01*
X286904D01*
X286890Y198573D01*
X286870Y198593D01*
Y198630D01*
X286911Y198671D01*
X287598D01*
Y199262D01*
X287598D01*
Y199282D01*
X287598D01*
Y199872D01*
D02*
G37*
G36*
X296388Y200360D02*
X295423D01*
Y199373D01*
X295128D01*
Y200360D01*
X294163D01*
Y200267D01*
X294126Y200234D01*
X294094Y200239D01*
X294032Y200230D01*
X294026Y200236D01*
Y200236D01*
X293278D01*
Y200199D01*
X293258Y200157D01*
X293228Y200157D01*
X292667D01*
Y200004D01*
X292283D01*
X292207Y199989D01*
X292142Y199945D01*
X292098Y199880D01*
X292083Y199803D01*
X292098Y199726D01*
X292142Y199661D01*
X292207Y199618D01*
X292283Y199602D01*
X292667D01*
Y199449D01*
X293229D01*
X293258Y199399D01*
X293246Y199373D01*
X293110D01*
X293110Y199373D01*
X293049Y199361D01*
X292997Y199326D01*
X292997Y199326D01*
X292800Y199129D01*
X292800Y199129D01*
X292765Y199077D01*
X292753Y199016D01*
X292753Y199016D01*
X292753Y193311D01*
X292695D01*
X292654Y193342D01*
X292589Y193369D01*
X292520Y193378D01*
X292450Y193369D01*
X292386Y193342D01*
X292380Y193338D01*
X292359Y193342D01*
X292330Y193377D01*
Y193720D01*
X292246D01*
Y193911D01*
X292261Y193920D01*
X292302Y193982D01*
X292317Y194055D01*
X292302Y194128D01*
X292261Y194190D01*
X292199Y194231D01*
X292126Y194246D01*
X292053Y194231D01*
X291991Y194190D01*
X291982Y194176D01*
X291782D01*
Y194331D01*
X291289D01*
Y193839D01*
X291782D01*
Y193935D01*
X291982D01*
X291991Y193920D01*
X292006Y193911D01*
Y193720D01*
X291922D01*
Y193377D01*
X291922Y193366D01*
Y193327D01*
X291922Y193316D01*
Y192972D01*
X291927D01*
Y192441D01*
X291801D01*
Y191949D01*
X292293D01*
Y192105D01*
X292343Y192123D01*
X292386Y192091D01*
X292450Y192064D01*
X292520Y192055D01*
X292589Y192064D01*
X292654Y192091D01*
X292695Y192122D01*
X292753D01*
X292753Y191011D01*
X292406Y190665D01*
X292406Y190665D01*
X292403Y190659D01*
X292402D01*
Y190658D01*
X292371Y190613D01*
X292359Y190551D01*
X292359Y190551D01*
Y190348D01*
X292309Y190315D01*
X292101D01*
X292069Y190354D01*
X292070Y190365D01*
X292079Y190433D01*
X292070Y190502D01*
X292043Y190567D01*
X292033Y190580D01*
X292058Y190630D01*
X292293D01*
Y191122D01*
X292188D01*
Y191457D01*
X292177Y191510D01*
X292147Y191556D01*
X291910Y191792D01*
X291865Y191823D01*
X291811Y191833D01*
X290363D01*
X290309Y191869D01*
X290236Y191884D01*
X290163Y191869D01*
X290101Y191828D01*
X290060Y191766D01*
X290046Y191693D01*
X290060Y191620D01*
X290073Y191601D01*
X290036Y191565D01*
X289994Y191593D01*
X289921Y191608D01*
X289848Y191593D01*
X289786Y191552D01*
X289745Y191490D01*
X289731Y191417D01*
X289745Y191344D01*
X289786Y191283D01*
X289801Y191273D01*
Y190965D01*
X289801Y190965D01*
X289810Y190918D01*
X289836Y190879D01*
X289925Y190791D01*
X289925Y190791D01*
X289964Y190765D01*
X289990Y190759D01*
Y190630D01*
X289947Y190613D01*
X289754D01*
Y190748D01*
X289222D01*
Y190397D01*
X288904Y190079D01*
X288612D01*
Y189587D01*
X289104D01*
Y189938D01*
X289403Y190236D01*
X289754D01*
Y190372D01*
X290032D01*
Y190256D01*
X290032D01*
Y190217D01*
X290032D01*
Y190043D01*
X290020Y190035D01*
X289970Y190062D01*
Y190079D01*
X289478D01*
Y189587D01*
X289970D01*
Y189712D01*
X290030D01*
X290030Y189712D01*
X290076Y189721D01*
X290115Y189748D01*
X290229Y189862D01*
X290433D01*
Y189567D01*
X290462D01*
X290512Y189567D01*
X290512Y189517D01*
Y188976D01*
X290561D01*
X290602Y188926D01*
X290597Y188898D01*
X290603Y188867D01*
X290571Y188829D01*
X290276D01*
Y188238D01*
X290984D01*
Y188238D01*
X291693D01*
Y188238D01*
X291693D01*
Y188238D01*
X292359D01*
X292359Y186378D01*
X292363Y186357D01*
X292306Y186299D01*
X292047D01*
Y186841D01*
X291339D01*
Y186250D01*
X291301Y186220D01*
X291299D01*
Y186085D01*
X291260D01*
X291206Y186075D01*
X291161Y186044D01*
X290897Y185780D01*
X290709D01*
Y185935D01*
X290000D01*
Y185470D01*
X289998Y185467D01*
X289987Y185413D01*
Y185236D01*
X289803D01*
X289783Y185282D01*
X289810Y185309D01*
X289836Y185348D01*
X289845Y185394D01*
X289845Y185394D01*
Y185453D01*
X289928D01*
Y185796D01*
X289928Y185807D01*
Y185846D01*
X289928Y185857D01*
Y186201D01*
X289917D01*
X289891Y186251D01*
X289901Y186266D01*
X289915Y186339D01*
X289901Y186412D01*
X289859Y186473D01*
X289797Y186515D01*
X289724Y186529D01*
X289651Y186515D01*
X289590Y186473D01*
X289555Y186422D01*
X289537Y186418D01*
X289518D01*
X289500Y186422D01*
X289466Y186473D01*
X289404Y186515D01*
X289331Y186529D01*
X289258Y186515D01*
X289196Y186473D01*
X289162Y186422D01*
X289143Y186418D01*
X289124D01*
X289106Y186422D01*
X289072Y186473D01*
X289010Y186515D01*
X288937Y186529D01*
X288864Y186515D01*
X288802Y186473D01*
X288768Y186422D01*
X288750Y186418D01*
X288731D01*
X288712Y186422D01*
X288678Y186473D01*
X288616Y186515D01*
X288543Y186529D01*
X288470Y186515D01*
X288408Y186473D01*
X288367Y186412D01*
X288353Y186339D01*
X288367Y186266D01*
X288377Y186251D01*
X288350Y186201D01*
X288340D01*
Y185857D01*
X288340Y185846D01*
Y185807D01*
X288340Y185796D01*
Y185453D01*
X288423D01*
Y185394D01*
X288423Y185394D01*
X288432Y185348D01*
X288458Y185309D01*
X288472Y185295D01*
Y185236D01*
X288445D01*
Y184449D01*
X288728D01*
Y184291D01*
X288737Y184245D01*
X288763Y184206D01*
X288802Y184180D01*
X288848Y184171D01*
X289291D01*
X289291Y184171D01*
X289337Y184180D01*
X289376Y184206D01*
X289445Y184275D01*
X289445Y184275D01*
X289471Y184314D01*
X289481Y184360D01*
Y184449D01*
X289987D01*
Y184321D01*
X289998Y184267D01*
X290029Y184222D01*
X290157Y184094D01*
X290202Y184063D01*
X290256Y184052D01*
X290630D01*
Y183980D01*
X289961D01*
X289884Y183965D01*
X289819Y183921D01*
X289730Y183833D01*
X289687Y183768D01*
X289671Y183691D01*
Y183327D01*
X289621Y183310D01*
X289599Y183339D01*
X289543Y183382D01*
X289479Y183409D01*
X289409Y183418D01*
X289340Y183409D01*
X289275Y183382D01*
X289220Y183339D01*
X289195Y183307D01*
X289167Y183326D01*
X289094Y183340D01*
X289022Y183326D01*
X288960Y183284D01*
X288918Y183223D01*
X288904Y183150D01*
X288917Y183081D01*
X288915Y183068D01*
X288895Y183032D01*
X288643D01*
Y182638D01*
Y182244D01*
X288699D01*
X288718Y182210D01*
X288688Y182165D01*
X288661D01*
Y181575D01*
X289213D01*
Y181652D01*
X289262Y181654D01*
X289263Y181654D01*
X289683D01*
X289702Y181617D01*
X289705Y181604D01*
X289691Y181535D01*
X289706Y181462D01*
X289747Y181401D01*
X289809Y181359D01*
X289882Y181345D01*
X289955Y181359D01*
X289999Y181389D01*
X290049Y181366D01*
Y181280D01*
X290195D01*
Y180381D01*
X290180Y180371D01*
X290139Y180309D01*
X290124Y180236D01*
X290139Y180163D01*
X290180Y180101D01*
X290242Y180060D01*
X290315Y180046D01*
X290388Y180060D01*
X290450Y180101D01*
X290491Y180163D01*
X290506Y180236D01*
X290491Y180309D01*
X290450Y180371D01*
X290435Y180381D01*
Y181280D01*
X290581D01*
Y181733D01*
X290623Y181752D01*
Y181752D01*
X291031D01*
Y182106D01*
X290623D01*
Y182030D01*
X289829D01*
X289793Y182065D01*
X289793Y182165D01*
X289843Y182165D01*
X290098D01*
Y182244D01*
X290157D01*
Y182165D01*
X290610D01*
Y183110D01*
X290585D01*
Y183421D01*
X290977D01*
X290994Y183371D01*
X290952Y183339D01*
X290910Y183284D01*
X290883Y183219D01*
X290874Y183150D01*
X290883Y183080D01*
X290910Y183016D01*
X290952Y182960D01*
X291008Y182917D01*
X291072Y182891D01*
X291142Y182882D01*
X291173Y182886D01*
X291211Y182853D01*
Y182717D01*
X291289D01*
Y182627D01*
X291239Y182601D01*
X291215Y182617D01*
X291142Y182632D01*
X291069Y182617D01*
X291007Y182576D01*
X290966Y182514D01*
X290951Y182441D01*
X290966Y182368D01*
X291007Y182306D01*
X291069Y182265D01*
X291142Y182250D01*
X291215Y182265D01*
X291239Y182281D01*
X291289Y182255D01*
Y182087D01*
X291299Y182087D01*
Y181535D01*
X291890D01*
X291890Y181485D01*
Y181457D01*
X292638D01*
Y181493D01*
X292753D01*
Y178937D01*
X292753Y178937D01*
X292765Y178876D01*
X292800Y178823D01*
X292997Y178627D01*
X293049Y178592D01*
X293110Y178580D01*
X293110Y178580D01*
X299213Y178580D01*
X299213Y178580D01*
X299274Y178592D01*
X299326Y178627D01*
X299326Y178627D01*
X299523Y178823D01*
X299523Y178823D01*
X299558Y178876D01*
X299570Y178937D01*
X299570Y178937D01*
X299570Y180638D01*
X299620Y180646D01*
X299677Y180479D01*
X299771Y180288D01*
X299889Y180111D01*
X300030Y179951D01*
X300190Y179811D01*
X300367Y179692D01*
X300558Y179598D01*
X300760Y179530D01*
X300969Y179488D01*
X301181Y179474D01*
X301394Y179488D01*
X301603Y179530D01*
X301804Y179598D01*
X301995Y179692D01*
X302172Y179811D01*
X302332Y179951D01*
X302473Y180111D01*
X302591Y180288D01*
X302685Y180479D01*
X302742Y180646D01*
X302792Y180638D01*
Y178937D01*
X302792Y178937D01*
X302804Y178876D01*
X302839Y178823D01*
X303036Y178627D01*
X303088Y178592D01*
X303150Y178580D01*
X303150Y178580D01*
X309252D01*
X309252Y178580D01*
X309313Y178592D01*
X309366Y178627D01*
X309562Y178823D01*
X309597Y178876D01*
X309609Y178937D01*
X309609Y178937D01*
Y182874D01*
X309609Y182874D01*
X309597Y182935D01*
X309562Y182988D01*
X309489Y183061D01*
X309508Y183107D01*
X309843D01*
X309843Y183107D01*
X309904Y183119D01*
X309920Y183130D01*
X309980D01*
Y183178D01*
X310153Y183351D01*
X310188Y183403D01*
X310200Y183465D01*
X310200Y183465D01*
Y192126D01*
X310188Y192187D01*
X310153Y192240D01*
X310153Y192240D01*
X309956Y192436D01*
X309904Y192471D01*
X309843Y192483D01*
X309843Y192483D01*
X306142D01*
X306142Y192483D01*
X306080Y192471D01*
X306028Y192436D01*
X306028Y192436D01*
X305836Y192244D01*
X305699D01*
Y191680D01*
X305649Y191655D01*
X305633Y191667D01*
Y191732D01*
X305622Y191814D01*
X305590Y191891D01*
X305540Y191957D01*
X305474Y192007D01*
X305397Y192039D01*
X305315Y192050D01*
X305233Y192039D01*
X305156Y192007D01*
X305090Y191957D01*
X305040Y191891D01*
X305010Y191820D01*
X304970Y191795D01*
X302844D01*
Y191778D01*
X302415D01*
X302333Y191767D01*
X302257Y191736D01*
X302191Y191685D01*
X302169Y191663D01*
X301811D01*
Y191635D01*
X301811Y191585D01*
X301161D01*
X301123Y191611D01*
X301108Y191629D01*
X301095Y191649D01*
X301088Y191653D01*
X301083Y191660D01*
X301062Y191671D01*
X301043Y191684D01*
X301035Y191685D01*
X301028Y191689D01*
X301004Y191691D01*
X300981Y191696D01*
X300067D01*
X299964Y191799D01*
Y191815D01*
X299999Y191850D01*
X301417D01*
Y192717D01*
X299921D01*
Y192601D01*
X299843D01*
Y193238D01*
X299650D01*
Y193798D01*
X299706Y193854D01*
X299921D01*
Y193661D01*
X301417D01*
Y194528D01*
X299921D01*
Y194335D01*
X299606D01*
X299514Y194317D01*
X299436Y194265D01*
X299239Y194068D01*
X299187Y193990D01*
X299169Y193898D01*
Y193238D01*
X298976D01*
Y193115D01*
X298750D01*
Y193740D01*
X298100D01*
Y193091D01*
X298131D01*
X298156Y193041D01*
X298150Y193033D01*
X298118Y192956D01*
X298108Y192874D01*
X298118Y192792D01*
X298150Y192715D01*
X298201Y192649D01*
X298266Y192599D01*
X298343Y192567D01*
X298425Y192556D01*
X298507Y192567D01*
X298584Y192599D01*
X298629Y192633D01*
X298976D01*
Y192533D01*
X298929Y192483D01*
X297441Y192483D01*
X293063Y192483D01*
X293042Y192533D01*
X293066Y192556D01*
X297441Y192556D01*
X297441Y192556D01*
X297502Y192568D01*
X297554Y192603D01*
X297554Y192603D01*
X297579Y192628D01*
X297638D01*
Y192686D01*
X297751Y192800D01*
X297751Y192800D01*
X297786Y192852D01*
X297790Y192872D01*
X297798Y192913D01*
X297798Y192913D01*
X297798Y197336D01*
X298012D01*
Y197236D01*
X299232D01*
Y198150D01*
X298012D01*
Y198050D01*
X297798D01*
X297798Y199016D01*
X297798Y199016D01*
X297786Y199077D01*
X297764Y199110D01*
X297751Y199129D01*
X297554Y199326D01*
X297554Y199326D01*
X297502Y199361D01*
X297502Y199361D01*
X297502Y199361D01*
X297441Y199373D01*
X297441Y199373D01*
X296388D01*
Y199525D01*
X304058D01*
X304564Y199019D01*
X304564Y199016D01*
X304564Y199016D01*
Y194685D01*
X304564Y194685D01*
X304576Y194624D01*
X304611Y194571D01*
X304808Y194375D01*
X304860Y194340D01*
X304921Y194328D01*
X304921Y194328D01*
X309252D01*
X309252Y194328D01*
X309313Y194340D01*
X309366Y194375D01*
X309562Y194571D01*
X309597Y194624D01*
X309609Y194685D01*
X309609Y194685D01*
Y199016D01*
X309609Y199016D01*
X309597Y199077D01*
X309562Y199129D01*
X309366Y199326D01*
X309313Y199361D01*
X309252Y199373D01*
X309252Y199373D01*
X304996D01*
X304370Y200000D01*
X304312Y200044D01*
X304245Y200072D01*
X304173Y200081D01*
X296388D01*
Y200360D01*
D02*
G37*
G36*
X290827Y199587D02*
X290236D01*
Y199373D01*
X290175D01*
X290152Y199389D01*
X290079Y199403D01*
X290006Y199389D01*
X289944Y199347D01*
X289903Y199286D01*
X289888Y199213D01*
X289903Y199140D01*
X289944Y199078D01*
X290006Y199036D01*
X290079Y199022D01*
X290152Y199036D01*
X290175Y199052D01*
X290236D01*
Y198839D01*
X290827D01*
Y199587D01*
D02*
G37*
G36*
X283268Y199846D02*
X283191Y199831D01*
X283126Y199788D01*
X283082Y199722D01*
X283067Y199646D01*
Y199331D01*
X283082Y199254D01*
X283126Y199189D01*
X283191Y199145D01*
X283268Y199130D01*
X283345Y199145D01*
X283410Y199189D01*
X283453Y199254D01*
X283468Y199331D01*
Y199646D01*
X283453Y199722D01*
X283410Y199788D01*
X283345Y199831D01*
X283268Y199846D01*
D02*
G37*
G36*
X282244Y198419D02*
X282171Y198405D01*
X282109Y198363D01*
X282068Y198301D01*
X282053Y198228D01*
X282068Y198155D01*
X282109Y198094D01*
X282171Y198052D01*
X282244Y198038D01*
X282317Y198052D01*
X282379Y198094D01*
X282420Y198155D01*
X282435Y198228D01*
X282420Y198301D01*
X282379Y198363D01*
X282317Y198405D01*
X282244Y198419D01*
D02*
G37*
G36*
X284252Y199846D02*
X284175Y199831D01*
X284110Y199788D01*
X284067Y199722D01*
X284051Y199646D01*
Y199189D01*
X284016Y199154D01*
X283966Y199154D01*
X283524D01*
Y198484D01*
X283639D01*
Y197382D01*
X283639Y197382D01*
X283649Y197336D01*
X283675Y197297D01*
X283773Y197198D01*
X283812Y197172D01*
X283858Y197163D01*
X285092D01*
X285101Y197149D01*
X285163Y197107D01*
X285236Y197093D01*
X285309Y197107D01*
X285371Y197149D01*
X285412Y197211D01*
X285427Y197283D01*
X285412Y197356D01*
X285371Y197418D01*
X285309Y197460D01*
X285236Y197474D01*
X285163Y197460D01*
X285101Y197418D01*
X285092Y197404D01*
X283908D01*
X283880Y197432D01*
Y198449D01*
X283916Y198484D01*
X283996Y198484D01*
X284046Y198484D01*
X284458D01*
X284488Y198484D01*
X284538Y198484D01*
X284624D01*
Y198189D01*
X284624Y198189D01*
X284633Y198143D01*
X284659Y198104D01*
X284738Y198025D01*
X284777Y197999D01*
X284823Y197990D01*
X284872D01*
Y197756D01*
X285463D01*
Y198465D01*
X285022D01*
X284980Y198484D01*
Y199154D01*
X284488Y199154D01*
X284453Y199189D01*
Y199646D01*
X284437Y199722D01*
X284394Y199788D01*
X284329Y199831D01*
X284252Y199846D01*
D02*
G37*
G36*
X278032Y198183D02*
X277959Y198168D01*
X277897Y198127D01*
X277855Y198065D01*
X277841Y197992D01*
X277855Y197919D01*
X277871Y197896D01*
Y197773D01*
X277855Y197750D01*
X277841Y197677D01*
X277855Y197604D01*
X277897Y197542D01*
X277959Y197501D01*
X278032Y197486D01*
X278100Y197500D01*
X278107Y197499D01*
X278150Y197480D01*
X278150Y197480D01*
X278150Y197480D01*
X278701D01*
Y197480D01*
X278740Y197480D01*
Y197480D01*
X279291D01*
Y198071D01*
X278740D01*
Y198071D01*
X278701Y198071D01*
Y198071D01*
X278204D01*
X278166Y198127D01*
X278104Y198168D01*
X278032Y198183D01*
D02*
G37*
G36*
X278701Y197402D02*
Y197402D01*
X278150D01*
Y197402D01*
X278107Y197383D01*
X278100Y197382D01*
X278032Y197395D01*
X277959Y197381D01*
X277897Y197340D01*
X277855Y197278D01*
X277841Y197205D01*
X277855Y197132D01*
X277871Y197108D01*
Y196986D01*
X277855Y196963D01*
X277841Y196890D01*
X277855Y196817D01*
X277897Y196755D01*
X277959Y196714D01*
X278032Y196699D01*
X278104Y196714D01*
X278166Y196755D01*
X278204Y196811D01*
X278701D01*
Y196811D01*
X278740D01*
Y196811D01*
X279291D01*
Y197402D01*
X278740D01*
Y197402D01*
X278701D01*
D02*
G37*
G36*
X281496Y198900D02*
X281424Y198891D01*
X281357Y198863D01*
X281300Y198819D01*
X281255Y198761D01*
X281228Y198694D01*
X281218Y198622D01*
Y198228D01*
X281228Y198156D01*
X281255Y198089D01*
X281300Y198032D01*
X281357Y197988D01*
X281424Y197960D01*
X281496Y197950D01*
X281568Y197960D01*
X281635Y197988D01*
X281693Y198032D01*
X281737Y198089D01*
X281765Y198156D01*
X281774Y198228D01*
Y198622D01*
X281765Y198694D01*
X281737Y198761D01*
X281693Y198819D01*
X281635Y198863D01*
X281568Y198891D01*
X281496Y198900D01*
D02*
G37*
G36*
X290394Y197828D02*
X290321Y197814D01*
X290259Y197773D01*
X290214D01*
X290152Y197814D01*
X290079Y197828D01*
X290006Y197814D01*
X289944Y197773D01*
X289903Y197711D01*
X289888Y197638D01*
X289903Y197565D01*
X289932Y197522D01*
X289932Y197517D01*
X289913Y197470D01*
X289912Y197468D01*
X289896Y197465D01*
X289864Y197443D01*
X289842Y197411D01*
X289835Y197374D01*
Y197095D01*
X289842Y197057D01*
X289864Y197025D01*
X289896Y197004D01*
X289933Y196996D01*
X289988D01*
X290026Y197004D01*
X290058Y197025D01*
X290060D01*
X290093Y197004D01*
X290130Y196996D01*
X290185D01*
X290222Y197004D01*
X290254Y197025D01*
X290257D01*
X290289Y197004D01*
X290327Y196996D01*
X290382D01*
X290419Y197004D01*
X290453Y197024D01*
X290486Y197004D01*
X290524Y196996D01*
X290578D01*
X290616Y197004D01*
X290648Y197025D01*
X290670Y197057D01*
X290677Y197095D01*
Y197374D01*
X290670Y197411D01*
X290648Y197443D01*
X290616Y197465D01*
X290578Y197472D01*
X290566D01*
X290541Y197522D01*
X290570Y197565D01*
X290584Y197638D01*
X290570Y197711D01*
X290529Y197773D01*
X290467Y197814D01*
X290394Y197828D01*
D02*
G37*
G36*
X286152Y198465D02*
X285561D01*
Y197756D01*
X286152D01*
Y197766D01*
X286202Y197793D01*
X286226Y197777D01*
X286299Y197762D01*
X286372Y197777D01*
X286434Y197818D01*
X286475Y197880D01*
X286490Y197953D01*
X286475Y198026D01*
X286434Y198088D01*
X286372Y198129D01*
X286299Y198143D01*
X286226Y198129D01*
X286202Y198112D01*
X286152Y198139D01*
Y198465D01*
D02*
G37*
G36*
X288425Y187745D02*
X288071D01*
X287717D01*
Y187657D01*
Y187648D01*
X288071D01*
X288425D01*
Y187657D01*
Y187745D01*
D02*
G37*
G36*
X285433Y188222D02*
X285360Y188208D01*
X285298Y188166D01*
X285257Y188104D01*
X285242Y188032D01*
X285257Y187959D01*
X285298Y187897D01*
X285360Y187855D01*
X285394Y187849D01*
Y187490D01*
X285531D01*
X285538Y187454D01*
X285564Y187415D01*
X285624Y187356D01*
X285624Y187356D01*
X285663Y187330D01*
X285709Y187321D01*
X286968D01*
X286968Y187321D01*
X287015Y187330D01*
X287054Y187356D01*
X287113Y187415D01*
X287113Y187415D01*
X287139Y187454D01*
X287146Y187490D01*
X287283D01*
Y188022D01*
X286772D01*
Y187561D01*
X285906D01*
Y188022D01*
X285632D01*
X285624Y188032D01*
X285609Y188104D01*
X285568Y188166D01*
X285506Y188208D01*
X285433Y188222D01*
D02*
G37*
G36*
X288425Y187933D02*
X288121D01*
Y187845D01*
X288425D01*
Y187933D01*
D02*
G37*
G36*
X288021D02*
X287717D01*
Y187845D01*
X288021D01*
Y187933D01*
D02*
G37*
G36*
X286909Y187234D02*
X286398D01*
Y186735D01*
X285532D01*
Y187234D01*
X285020D01*
Y187128D01*
X284447D01*
X284447Y187128D01*
X284400Y187119D01*
X284361Y187093D01*
X284206Y186938D01*
X284180Y186899D01*
X284171Y186853D01*
X284171Y186853D01*
Y186483D01*
X284157Y186473D01*
X284115Y186412D01*
X284101Y186339D01*
X284115Y186266D01*
X284157Y186204D01*
X284218Y186162D01*
X284291Y186148D01*
X284312Y186152D01*
X284350Y186120D01*
Y185781D01*
X284705D01*
Y185991D01*
X284731Y186017D01*
X284731Y186017D01*
X284757Y186056D01*
X284766Y186102D01*
X284757Y186148D01*
X284753Y186154D01*
X284759Y186164D01*
X284823Y186179D01*
X284848Y186162D01*
X284921Y186148D01*
X284994Y186162D01*
X285056Y186204D01*
X285101D01*
X285163Y186162D01*
X285236Y186148D01*
X285309Y186162D01*
X285371Y186204D01*
X285412Y186266D01*
X285427Y186339D01*
X285412Y186412D01*
X285391Y186444D01*
X285418Y186494D01*
X285685D01*
X285711Y186444D01*
X285690Y186412D01*
X285675Y186339D01*
X285690Y186266D01*
X285731Y186204D01*
X285746Y186194D01*
Y185916D01*
X285738Y185908D01*
X285512D01*
X285512Y185908D01*
X285466Y185899D01*
X285427Y185873D01*
X285427Y185873D01*
X285348Y185794D01*
X285322Y185755D01*
X285313Y185709D01*
X285313Y185709D01*
Y185629D01*
X285266Y185610D01*
X285201Y185559D01*
X285150Y185493D01*
X285118Y185417D01*
X285108Y185335D01*
Y184823D01*
X285118Y184741D01*
X285150Y184664D01*
X285201Y184598D01*
X285266Y184548D01*
X285343Y184516D01*
X285425Y184505D01*
X285507Y184516D01*
X285584Y184548D01*
X285650Y184598D01*
X285700Y184664D01*
X285732Y184741D01*
X285743Y184823D01*
Y185335D01*
X285732Y185417D01*
X285700Y185493D01*
X285650Y185559D01*
X285584Y185610D01*
X285591Y185661D01*
X285594Y185667D01*
X285787D01*
X285787Y185667D01*
X285833Y185676D01*
X285873Y185702D01*
X285951Y185781D01*
X285977Y185820D01*
X285987Y185866D01*
Y186161D01*
X286037Y186183D01*
X286061Y186160D01*
Y185866D01*
X286061Y185866D01*
X286070Y185820D01*
X286096Y185781D01*
X286175Y185702D01*
X286214Y185676D01*
X286260Y185667D01*
X286274D01*
X286284Y185617D01*
X286266Y185610D01*
X286201Y185559D01*
X286150Y185493D01*
X286118Y185417D01*
X286108Y185335D01*
Y184823D01*
X286118Y184741D01*
X286150Y184664D01*
X286201Y184598D01*
X286266Y184548D01*
X286343Y184516D01*
X286425Y184505D01*
X286507Y184516D01*
X286584Y184548D01*
X286650Y184598D01*
X286700Y184664D01*
X286732Y184741D01*
X286743Y184823D01*
Y185335D01*
X286732Y185417D01*
X286700Y185493D01*
X286650Y185559D01*
X286584Y185610D01*
X286553Y185622D01*
Y185732D01*
X286553Y185732D01*
X286544Y185778D01*
X286518Y185817D01*
X286463Y185873D01*
X286424Y185899D01*
X286378Y185908D01*
X286378Y185908D01*
X286310D01*
X286302Y185916D01*
Y186194D01*
X286316Y186204D01*
X286357Y186266D01*
X286372Y186339D01*
X286357Y186412D01*
X286336Y186444D01*
X286362Y186494D01*
X286575D01*
X286575Y186494D01*
X286621Y186503D01*
X286660Y186529D01*
X286739Y186608D01*
X286765Y186647D01*
X286774Y186693D01*
Y186703D01*
X286909D01*
Y187234D01*
D02*
G37*
G36*
X284475Y185646D02*
Y185129D01*
X284743D01*
Y185335D01*
X284732Y185417D01*
X284700Y185493D01*
X284650Y185559D01*
X284584Y185610D01*
X284507Y185641D01*
X284475Y185646D01*
D02*
G37*
G36*
X284375Y185646D02*
X284343Y185641D01*
X284266Y185610D01*
X284201Y185559D01*
X284150Y185493D01*
X284118Y185417D01*
X284108Y185335D01*
Y185129D01*
X284375D01*
Y185646D01*
D02*
G37*
G36*
X288425Y187548D02*
X288071D01*
X287717D01*
Y187264D01*
Y186870D01*
X288396D01*
X288407Y186817D01*
X288448Y186755D01*
X288510Y186714D01*
X288583Y186699D01*
X288656Y186714D01*
X288717Y186755D01*
X288759Y186817D01*
X288773Y186890D01*
X288759Y186963D01*
X288717Y187025D01*
Y187070D01*
X288759Y187132D01*
X288773Y187205D01*
X288759Y187278D01*
X288717Y187340D01*
X288656Y187381D01*
X288583Y187395D01*
X288510Y187381D01*
X288475Y187358D01*
X288425Y187385D01*
Y187548D01*
D02*
G37*
G36*
X289252Y188104D02*
X289179Y188090D01*
X289117Y188048D01*
X289076Y187986D01*
X289061Y187913D01*
X289076Y187840D01*
X289117Y187779D01*
Y187733D01*
X289076Y187671D01*
X289061Y187598D01*
X289076Y187525D01*
X289117Y187464D01*
Y187445D01*
X289078Y187418D01*
X289036Y187356D01*
X289022Y187283D01*
X289036Y187211D01*
X289078Y187149D01*
X289140Y187107D01*
X289213Y187093D01*
X289286Y187107D01*
X289347Y187149D01*
X289389Y187211D01*
X289399Y187216D01*
X289449Y187186D01*
Y186870D01*
X289790D01*
X289803Y186867D01*
X290139D01*
X290216Y186790D01*
X290261Y186760D01*
X290269Y186758D01*
Y186713D01*
X290676D01*
Y186713D01*
X290702D01*
X290724Y186663D01*
X290715Y186614D01*
X290729Y186541D01*
X290771Y186479D01*
X290833Y186438D01*
X290906Y186423D01*
X290978Y186438D01*
X291040Y186479D01*
X291082Y186541D01*
X291096Y186614D01*
X291087Y186663D01*
X291109Y186713D01*
X291109D01*
Y187067D01*
X290702D01*
Y187067D01*
X290676D01*
Y187067D01*
X290336D01*
X290296Y187107D01*
X290251Y187138D01*
X290197Y187148D01*
X290157D01*
Y187155D01*
X289803D01*
Y187255D01*
X290157D01*
Y187461D01*
Y187933D01*
X289449D01*
X289430Y187975D01*
X289428Y187986D01*
X289387Y188048D01*
X289325Y188090D01*
X289252Y188104D01*
D02*
G37*
G36*
X289724Y189049D02*
X289651Y189034D01*
X289590Y188993D01*
X289548Y188931D01*
X289534Y188858D01*
X289543Y188810D01*
X289510Y188760D01*
X289478D01*
Y188268D01*
X289970D01*
Y188760D01*
X289939D01*
X289905Y188810D01*
X289915Y188858D01*
X289901Y188931D01*
X289859Y188993D01*
X289797Y189034D01*
X289724Y189049D01*
D02*
G37*
G36*
X288065Y194291D02*
X287717Y193943D01*
X288065Y193595D01*
X288292Y193823D01*
X288474D01*
Y193701D01*
X289006D01*
X289013Y193654D01*
Y193150D01*
X289013Y193150D01*
X289023Y193104D01*
X289049Y193064D01*
X289127Y192986D01*
X289127Y192986D01*
X289167Y192960D01*
X289213Y192950D01*
X289213Y192950D01*
X289833D01*
Y192717D01*
X290008D01*
Y192441D01*
X289990D01*
Y192325D01*
X289793D01*
Y192461D01*
X289262D01*
Y191949D01*
X289793D01*
Y192084D01*
X289990D01*
Y191949D01*
X290482D01*
Y192074D01*
X290856D01*
Y191949D01*
X291348D01*
Y192074D01*
X291486D01*
X291486Y192074D01*
X291532Y192084D01*
X291571Y192110D01*
X291660Y192198D01*
X291686Y192237D01*
X291695Y192283D01*
X291695Y192283D01*
Y192520D01*
X291782D01*
Y193012D01*
X291289D01*
Y192520D01*
X291454D01*
Y192333D01*
X291436Y192315D01*
X291348D01*
Y192441D01*
X290856D01*
Y192315D01*
X290482D01*
Y192441D01*
X290248D01*
Y192717D01*
X290423D01*
Y193425D01*
X289843D01*
X289833Y193425D01*
X289793Y193451D01*
Y193518D01*
X289833Y193543D01*
X290423D01*
Y194252D01*
X289833D01*
Y194097D01*
X289672D01*
X289662Y194111D01*
X289601Y194153D01*
X289528Y194167D01*
X289455Y194153D01*
X289393Y194111D01*
X289351Y194049D01*
X289337Y193976D01*
X289351Y193903D01*
X289361Y193889D01*
X289335Y193839D01*
X289297D01*
X289257Y193857D01*
X289249Y193883D01*
X289245Y193904D01*
X289219Y193943D01*
X289121Y194042D01*
X289082Y194068D01*
X289035Y194077D01*
X289006Y194113D01*
Y194213D01*
X288474D01*
Y194064D01*
X288292D01*
X288065Y194291D01*
D02*
G37*
G36*
X288701Y191608D02*
X288628Y191593D01*
X288566Y191552D01*
X288525Y191490D01*
X288510Y191417D01*
X288525Y191344D01*
X288566Y191283D01*
X288580Y191273D01*
Y191122D01*
X288435D01*
Y190610D01*
X288967D01*
Y191122D01*
X288821D01*
Y191273D01*
X288836Y191283D01*
X288877Y191344D01*
X288891Y191417D01*
X288877Y191490D01*
X288836Y191552D01*
X288774Y191593D01*
X288701Y191608D01*
D02*
G37*
G36*
X309488Y193957D02*
X307913D01*
Y193625D01*
X307283D01*
X307201Y193614D01*
X307125Y193582D01*
X307059Y193532D01*
X307008Y193466D01*
X306977Y193389D01*
X306966Y193307D01*
X306977Y193225D01*
X307008Y193148D01*
X307059Y193082D01*
X307125Y193032D01*
X307201Y193000D01*
X307283Y192989D01*
X307913D01*
Y192657D01*
X309488D01*
Y193957D01*
D02*
G37*
G36*
X304567Y194528D02*
X301693D01*
Y191850D01*
X304567D01*
Y192989D01*
X304685D01*
Y192657D01*
X306260D01*
Y193957D01*
X304685D01*
Y193625D01*
X304567D01*
Y194528D01*
D02*
G37*
G36*
X285340Y189607D02*
X285145Y189412D01*
X284936Y189204D01*
X284940Y189170D01*
X284818Y189048D01*
X284807Y189031D01*
X284634Y188858D01*
X284884Y188607D01*
X284943Y188666D01*
X285033Y188576D01*
X285033Y188576D01*
X285072Y188550D01*
X285118Y188541D01*
X285118Y188541D01*
X285289D01*
X285298Y188527D01*
X285360Y188485D01*
X285433Y188471D01*
X285506Y188485D01*
X285568Y188527D01*
X285609Y188588D01*
X285624Y188661D01*
X285609Y188734D01*
X285568Y188796D01*
X285506Y188838D01*
X285433Y188852D01*
X285360Y188838D01*
X285298Y188796D01*
X285289Y188782D01*
X285168D01*
X285113Y188836D01*
X285172Y188895D01*
X285089Y188978D01*
X285139Y189028D01*
X285154Y189013D01*
X285544Y189403D01*
X285340Y189607D01*
D02*
G37*
%LPD*%
G36*
X289232Y195945D02*
X288189D01*
X288346Y195965D01*
X288425Y195984D01*
X288465Y196004D01*
X288583Y196063D01*
X288661Y196122D01*
X288720Y196181D01*
X288780Y196260D01*
X288839Y196358D01*
X289232D01*
Y195945D01*
D02*
G37*
G36*
X287559Y196319D02*
X287618Y196220D01*
X287736Y196102D01*
X287815Y196043D01*
X287933Y195984D01*
X288012Y195965D01*
X288189Y195945D01*
X287146D01*
Y196358D01*
X287539D01*
X287559Y196319D01*
D02*
G37*
G36*
X288012Y197343D02*
X287894Y197303D01*
X287854Y197283D01*
X287756Y197224D01*
X287618Y197087D01*
X287579Y197028D01*
X287539Y196949D01*
X287146D01*
Y197362D01*
X288189D01*
X288012Y197343D01*
D02*
G37*
G36*
X289232Y196949D02*
X288839D01*
X288780Y197047D01*
X288720Y197126D01*
X288622Y197224D01*
X288563Y197264D01*
X288445Y197323D01*
X288366Y197343D01*
X288189Y197362D01*
X289232D01*
Y196949D01*
D02*
G37*
G36*
X302413Y186257D02*
Y186187D01*
X302792D01*
Y184773D01*
X302742Y184757D01*
X302729Y184777D01*
X302651Y184829D01*
X302559Y184847D01*
X302467Y184829D01*
X302389Y184777D01*
X302337Y184698D01*
X302318Y184606D01*
X302337Y184514D01*
X302389Y184436D01*
X302452Y184394D01*
Y184362D01*
X302425Y184322D01*
X302409Y184244D01*
Y183886D01*
X302425Y183808D01*
X302469Y183742D01*
X302535Y183699D01*
X302612Y183683D01*
X302690Y183699D01*
X302742Y183734D01*
X302792Y183714D01*
Y181567D01*
X302742Y181558D01*
X302685Y181725D01*
X302591Y181917D01*
X302473Y182094D01*
X302332Y182254D01*
X302172Y182394D01*
X301995Y182512D01*
X301804Y182607D01*
X301603Y182675D01*
X301488Y182698D01*
X301477Y182751D01*
X301491Y182760D01*
X301491Y182760D01*
X301688Y182957D01*
X301688Y182957D01*
X301723Y183009D01*
X301735Y183071D01*
X301735Y183071D01*
X301735Y185827D01*
X301735Y185827D01*
X301723Y185888D01*
X301688Y185940D01*
X301688Y185940D01*
X301654Y185974D01*
X301673Y186021D01*
X301971D01*
X301979Y186022D01*
X301986Y186021D01*
X302009Y186028D01*
X302032Y186033D01*
X302039Y186037D01*
X302046Y186040D01*
X302065Y186054D01*
X302084Y186068D01*
X302089Y186074D01*
X302095Y186079D01*
X302106Y186100D01*
X302110Y186106D01*
X302112Y186106D01*
X302185Y186115D01*
X302252Y186143D01*
X302310Y186188D01*
X302355Y186246D01*
X302363Y186267D01*
X302413Y186257D01*
D02*
G37*
G36*
X292753Y182129D02*
X292638D01*
Y182165D01*
X291890D01*
X291880Y182211D01*
Y182717D01*
X292648D01*
Y182909D01*
X292753D01*
Y182129D01*
D02*
G37*
G36*
X291907Y191399D02*
Y191122D01*
X291801D01*
Y190700D01*
X291742Y190692D01*
X291677Y190665D01*
X291621Y190623D01*
X291607D01*
X291551Y190665D01*
X291487Y190692D01*
X291417Y190701D01*
X291386Y190697D01*
X291348Y190730D01*
Y191122D01*
X290856D01*
Y190996D01*
X290790D01*
Y191181D01*
X290790Y191181D01*
X290781Y191227D01*
X290754Y191266D01*
X290754Y191266D01*
X290676Y191345D01*
X290637Y191371D01*
X290591Y191380D01*
X290591Y191380D01*
X290381D01*
X290371Y191395D01*
X290309Y191436D01*
X290236Y191451D01*
X290163Y191436D01*
X290160Y191434D01*
X290104Y191457D01*
X290097Y191490D01*
X290085Y191509D01*
X290121Y191545D01*
X290163Y191517D01*
X290236Y191502D01*
X290309Y191517D01*
X290363Y191552D01*
X291753D01*
X291907Y191399D01*
D02*
G37*
G36*
X304921Y186811D02*
X305118Y186614D01*
X305118Y183268D01*
X305315Y183071D01*
X309252D01*
X309449Y182874D01*
Y178937D01*
X309252Y178740D01*
X303150D01*
X302953Y178937D01*
Y186614D01*
X303150Y186811D01*
X304921Y186811D01*
D02*
G37*
G36*
X297441Y199213D02*
X297638Y199016D01*
X297638Y192913D01*
X297441Y192717D01*
X292913Y192717D01*
X292913Y199016D01*
X293110Y199213D01*
X297441Y199213D01*
D02*
G37*
G36*
X291299Y185720D02*
Y185669D01*
X291890D01*
X291890Y185619D01*
Y185591D01*
X292088D01*
X292096Y185574D01*
X292102Y185541D01*
X292055Y185504D01*
X292012Y185449D01*
X291985Y185384D01*
X291976Y185315D01*
X291980Y185284D01*
X291947Y185246D01*
X291832D01*
X291799Y185284D01*
X291803Y185315D01*
X291794Y185384D01*
X291768Y185449D01*
X291725Y185504D01*
X291669Y185547D01*
X291605Y185574D01*
X291535Y185583D01*
X291466Y185574D01*
X291401Y185547D01*
X291346Y185504D01*
X291303Y185449D01*
X291277Y185384D01*
X291267Y185315D01*
X291274Y185263D01*
X291260Y185246D01*
X291260D01*
Y185167D01*
X290799D01*
X290744Y185222D01*
X290698Y185253D01*
X290645Y185264D01*
X290438D01*
X290384Y185253D01*
X290363Y185238D01*
X290349D01*
X290326Y185234D01*
X290313Y185234D01*
X290281Y185253D01*
X290268Y185265D01*
Y185344D01*
X290709D01*
Y185499D01*
X290955D01*
X291008Y185510D01*
X291054Y185540D01*
X291253Y185739D01*
X291299Y185720D01*
D02*
G37*
G36*
X301575Y185827D02*
X301575Y183071D01*
X301378Y182874D01*
X300394Y182874D01*
X299409Y181890D01*
X299409Y178937D01*
X299213Y178740D01*
X293110Y178740D01*
X292913Y178937D01*
Y182874D01*
Y182997D01*
X292935Y183001D01*
X292988Y183036D01*
X293299Y183347D01*
X293299Y183347D01*
X293333Y183399D01*
X293346Y183461D01*
X293346Y183461D01*
Y183632D01*
X293441D01*
Y185600D01*
X293346D01*
Y185650D01*
X293355Y185656D01*
X293408Y185735D01*
X293426Y185827D01*
X293408Y185919D01*
X293371Y185974D01*
X293398Y186024D01*
X297701Y186024D01*
X297727Y185974D01*
X297691Y185919D01*
X297673Y185827D01*
X297691Y185735D01*
X297743Y185656D01*
X297753Y185650D01*
Y185600D01*
X297654D01*
Y184796D01*
X297402D01*
Y184931D01*
X296693D01*
Y184341D01*
X297402D01*
Y184475D01*
X297654D01*
Y183632D01*
X297749D01*
Y183317D01*
X297638D01*
Y182825D01*
X298130D01*
Y183317D01*
X298070D01*
Y183632D01*
X298165D01*
Y185600D01*
X298074D01*
Y185650D01*
X298084Y185656D01*
X298136Y185735D01*
X298154Y185827D01*
X298136Y185919D01*
X298099Y185974D01*
X298126Y186024D01*
X301378Y186024D01*
X301575Y185827D01*
D02*
G37*
G36*
X297441Y192323D02*
X299803Y192323D01*
X299803Y191732D01*
X300000Y191535D01*
X300981D01*
X300986Y191485D01*
X300971Y191482D01*
X300893Y191430D01*
X300840Y191352D01*
X300822Y191260D01*
X300840Y191168D01*
X300893Y191090D01*
X300971Y191037D01*
X301063Y191019D01*
X301240D01*
Y191014D01*
X301732D01*
Y191019D01*
X301890D01*
Y190994D01*
X302598D01*
Y191220D01*
X302923D01*
Y191205D01*
X304892D01*
Y191535D01*
X305512D01*
X305709Y191339D01*
Y187992D01*
X305512Y187795D01*
X302559D01*
X302362Y187598D01*
X302362Y186763D01*
X302312Y186758D01*
X302299Y186822D01*
X302256Y186887D01*
X302190Y186931D01*
X302162Y186937D01*
Y186565D01*
X302112D01*
Y186515D01*
X301909D01*
Y186386D01*
X301925Y186308D01*
X301969Y186242D01*
X301986Y186231D01*
X301971Y186181D01*
X292717D01*
X292520Y186378D01*
X292520Y190551D01*
X292913Y190945D01*
X292913Y192323D01*
X297441Y192323D01*
D02*
G37*
G36*
X309449Y199016D02*
Y194685D01*
X309252Y194488D01*
X304921D01*
X304724Y194685D01*
Y199016D01*
X304921Y199213D01*
X309252D01*
X309449Y199016D01*
D02*
G37*
G36*
X310039Y192126D02*
Y183465D01*
X309843Y183268D01*
X306260D01*
X305433Y183268D01*
X305315Y183386D01*
X305315Y186614D01*
X305512Y186811D01*
X305945D01*
Y192126D01*
X306142Y192323D01*
X309843D01*
X310039Y192126D01*
D02*
G37*
%LPC*%
G36*
X302162Y184437D02*
Y184115D01*
X302315D01*
Y184244D01*
X302299Y184322D01*
X302256Y184387D01*
X302190Y184431D01*
X302162Y184437D01*
D02*
G37*
G36*
X302062Y184437D02*
X302035Y184431D01*
X301969Y184387D01*
X301925Y184322D01*
X301909Y184244D01*
Y184115D01*
X302062D01*
Y184437D01*
D02*
G37*
G36*
Y184015D02*
X301909D01*
Y183886D01*
X301925Y183808D01*
X301969Y183742D01*
X302035Y183699D01*
X302062Y183693D01*
Y184015D01*
D02*
G37*
G36*
X302315D02*
X302162D01*
Y183693D01*
X302190Y183699D01*
X302256Y183742D01*
X302299Y183808D01*
X302315Y183886D01*
Y184015D01*
D02*
G37*
G36*
X302062Y186937D02*
X302035Y186931D01*
X301969Y186887D01*
X301925Y186822D01*
X301909Y186744D01*
Y186615D01*
X302062D01*
Y186937D01*
D02*
G37*
G36*
X283389Y182075D02*
X283361Y182069D01*
X283296Y182025D01*
X283252Y181959D01*
X283236Y181882D01*
Y181753D01*
X283389D01*
Y182075D01*
D02*
G37*
G36*
X283489Y182075D02*
Y181753D01*
X283642D01*
Y181882D01*
X283626Y181959D01*
X283582Y182025D01*
X283517Y182069D01*
X283489Y182075D01*
D02*
G37*
G36*
X284475Y182102D02*
Y181585D01*
X284743D01*
Y181791D01*
X284732Y181874D01*
X284700Y181950D01*
X284650Y182016D01*
X284584Y182066D01*
X284507Y182098D01*
X284475Y182102D01*
D02*
G37*
G36*
X284375Y181485D02*
X284108D01*
Y181280D01*
X284118Y181197D01*
X284150Y181121D01*
X284201Y181055D01*
X284266Y181004D01*
X284343Y180973D01*
X284375Y180968D01*
Y181485D01*
D02*
G37*
G36*
X284743D02*
X284475D01*
Y180968D01*
X284507Y180973D01*
X284584Y181004D01*
X284650Y181055D01*
X284700Y181121D01*
X284732Y181197D01*
X284743Y181280D01*
Y181485D01*
D02*
G37*
G36*
X286425Y182109D02*
X286343Y182098D01*
X286266Y182066D01*
X286201Y182016D01*
X286150Y181950D01*
X286118Y181874D01*
X286108Y181791D01*
Y181280D01*
X286118Y181197D01*
X286150Y181121D01*
X286201Y181055D01*
X286266Y181004D01*
X286343Y180973D01*
X286333Y180925D01*
X286085D01*
X285741Y181268D01*
X285743Y181280D01*
Y181791D01*
X285732Y181874D01*
X285700Y181950D01*
X285650Y182016D01*
X285584Y182066D01*
X285507Y182098D01*
X285425Y182109D01*
X285343Y182098D01*
X285266Y182066D01*
X285201Y182016D01*
X285150Y181950D01*
X285118Y181874D01*
X285108Y181791D01*
Y181280D01*
X285118Y181197D01*
X285150Y181121D01*
X285201Y181055D01*
X285266Y181004D01*
X285343Y180973D01*
X285425Y180962D01*
X285507Y180973D01*
X285584Y181004D01*
X285598Y181015D01*
X285886Y180727D01*
Y180374D01*
X286124D01*
X286158Y180324D01*
X286148Y180276D01*
X286162Y180203D01*
X286204Y180141D01*
X286266Y180099D01*
X286339Y180085D01*
X286412Y180099D01*
X286473Y180141D01*
X286508Y180192D01*
X286526Y180196D01*
X286545D01*
X286563Y180192D01*
X286597Y180141D01*
X286659Y180099D01*
X286732Y180085D01*
X286805Y180099D01*
X286867Y180141D01*
X286908Y180203D01*
X286923Y180276D01*
X286913Y180324D01*
X286947Y180374D01*
X287185D01*
Y180925D01*
X286833D01*
X286673Y181085D01*
X286700Y181121D01*
X286732Y181197D01*
X286743Y181280D01*
Y181791D01*
X286732Y181874D01*
X286700Y181950D01*
X286650Y182016D01*
X286584Y182066D01*
X286507Y182098D01*
X286425Y182109D01*
D02*
G37*
G36*
X284375Y182102D02*
X284343Y182098D01*
X284266Y182066D01*
X284201Y182016D01*
X284150Y181950D01*
X284118Y181874D01*
X284108Y181791D01*
Y181585D01*
X284375D01*
Y182102D01*
D02*
G37*
G36*
X283389Y181653D02*
X283236D01*
Y181524D01*
X283252Y181446D01*
X283296Y181380D01*
X283361Y181336D01*
X283389Y181331D01*
Y181653D01*
D02*
G37*
G36*
X283642D02*
X283489D01*
Y181331D01*
X283517Y181336D01*
X283582Y181380D01*
X283626Y181446D01*
X283642Y181524D01*
Y181653D01*
D02*
G37*
G36*
X287425Y182109D02*
X287343Y182098D01*
X287266Y182066D01*
X287201Y182016D01*
X287150Y181950D01*
X287118Y181874D01*
X287108Y181791D01*
Y181280D01*
X287118Y181197D01*
X287150Y181121D01*
X287201Y181055D01*
X287266Y181004D01*
X287293Y180994D01*
Y180807D01*
X287237D01*
Y180453D01*
X287645D01*
Y180453D01*
X287645Y180453D01*
X287717Y180439D01*
X287789Y180454D01*
X287851Y180495D01*
X287893Y180557D01*
X287907Y180630D01*
X287893Y180703D01*
X287851Y180765D01*
X287789Y180806D01*
X287717Y180821D01*
X287645Y180806D01*
X287645Y180807D01*
Y180807D01*
X287574D01*
Y181000D01*
X287584Y181004D01*
X287650Y181055D01*
X287700Y181121D01*
X287732Y181197D01*
X287743Y181280D01*
Y181791D01*
X287732Y181874D01*
X287700Y181950D01*
X287650Y182016D01*
X287584Y182066D01*
X287507Y182098D01*
X287425Y182109D01*
D02*
G37*
G36*
X283138Y182081D02*
X282740D01*
Y181325D01*
X282819D01*
Y180683D01*
X282819Y180683D01*
X282828Y180637D01*
X282854Y180598D01*
X282927Y180525D01*
X282966Y180499D01*
X283012Y180490D01*
X283012Y180490D01*
X283228D01*
Y180315D01*
X283780D01*
Y180906D01*
X283228D01*
Y180731D01*
X283062D01*
X283059Y180733D01*
Y181325D01*
X283138D01*
Y182081D01*
D02*
G37*
G36*
X283780Y180236D02*
X283228D01*
Y179646D01*
X283384D01*
Y179409D01*
X283384Y179409D01*
X283393Y179363D01*
X283419Y179324D01*
X283517Y179226D01*
X283517Y179226D01*
X283556Y179200D01*
X283602Y179191D01*
X283819D01*
Y178917D01*
X283915D01*
Y178504D01*
X283925Y178450D01*
X283956Y178405D01*
X284074Y178286D01*
X284119Y178256D01*
X284173Y178245D01*
X285866D01*
X285920Y178256D01*
X285965Y178286D01*
X286123Y178444D01*
X286153Y178490D01*
X286164Y178543D01*
Y178614D01*
X286200Y178667D01*
X286214Y178740D01*
X286200Y178813D01*
X286158Y178875D01*
X286097Y178916D01*
X286024Y178931D01*
X285951Y178916D01*
X285889Y178875D01*
X285847Y178813D01*
X285833Y178740D01*
X285847Y178667D01*
X285883Y178614D01*
Y178601D01*
X285808Y178526D01*
X285500D01*
X285485Y178576D01*
X285529Y178605D01*
X285570Y178667D01*
X285582Y178730D01*
X285631Y178779D01*
X285661Y178824D01*
X285672Y178878D01*
Y178917D01*
X285768D01*
Y179705D01*
X285295D01*
Y179705D01*
X285276D01*
Y179705D01*
X284833D01*
X284803Y179705D01*
X284753Y179705D01*
X284688D01*
Y179902D01*
X284677Y179955D01*
X284665Y179973D01*
Y180164D01*
X284311D01*
Y179757D01*
X284353D01*
X284374Y179707D01*
X284371Y179705D01*
X284311Y179705D01*
X284261Y179705D01*
X283819D01*
X283780Y179730D01*
Y180236D01*
D02*
G37*
%LPD*%
D10*
X282283Y192441D02*
D03*
X282677D02*
D03*
X284134Y185984D02*
D03*
X284528D02*
D03*
X282677Y190354D02*
D03*
X282283D02*
D03*
X282677Y190748D02*
D03*
X282283D02*
D03*
X282677Y189961D02*
D03*
X282283D02*
D03*
X282677Y189567D02*
D03*
X282283D02*
D03*
X282677Y189134D02*
D03*
X282283D02*
D03*
X282677Y188740D02*
D03*
X282283D02*
D03*
X282677Y188346D02*
D03*
X282283D02*
D03*
Y187165D02*
D03*
X282677D02*
D03*
X282283Y186772D02*
D03*
X282677D02*
D03*
X283386Y186220D02*
D03*
X282992D02*
D03*
X304567Y187362D02*
D03*
X304173D02*
D03*
X282283Y191575D02*
D03*
X282677D02*
D03*
X283228Y187165D02*
D03*
X283622D02*
D03*
X283228Y186772D02*
D03*
X283622D02*
D03*
X282283Y187559D02*
D03*
X282677D02*
D03*
X282283Y187953D02*
D03*
X282677D02*
D03*
Y192008D02*
D03*
X282283D02*
D03*
X284488Y179961D02*
D03*
X284094D02*
D03*
X287441Y186260D02*
D03*
X287047D02*
D03*
X287441Y185866D02*
D03*
X287047D02*
D03*
X282677Y191181D02*
D03*
X282283D02*
D03*
D11*
X282204Y194606D02*
D03*
X282678Y195079D02*
D03*
D12*
X283093Y193093D02*
D03*
X284151Y194151D02*
D03*
D13*
X281486Y186201D02*
D03*
Y186398D02*
D03*
Y186594D02*
D03*
Y186791D02*
D03*
Y186988D02*
D03*
Y187185D02*
D03*
Y187382D02*
D03*
Y187579D02*
D03*
Y187776D02*
D03*
Y187972D02*
D03*
Y188169D02*
D03*
Y188366D02*
D03*
Y188563D02*
D03*
Y188760D02*
D03*
Y188957D02*
D03*
Y189154D02*
D03*
Y189350D02*
D03*
Y189547D02*
D03*
Y189744D02*
D03*
Y189941D02*
D03*
Y190138D02*
D03*
Y190335D02*
D03*
X278750Y186201D02*
D03*
Y186398D02*
D03*
Y186594D02*
D03*
Y186791D02*
D03*
Y186988D02*
D03*
Y187185D02*
D03*
Y187382D02*
D03*
Y187579D02*
D03*
Y187776D02*
D03*
Y187972D02*
D03*
Y188169D02*
D03*
Y188366D02*
D03*
Y188563D02*
D03*
Y188760D02*
D03*
Y188957D02*
D03*
Y189154D02*
D03*
Y189350D02*
D03*
Y189547D02*
D03*
Y189744D02*
D03*
Y189941D02*
D03*
Y190138D02*
D03*
D14*
Y190335D02*
D03*
D15*
X290827Y181535D02*
D03*
Y181929D02*
D03*
X286260Y195748D02*
D03*
Y195354D02*
D03*
X283386Y189370D02*
D03*
Y188976D02*
D03*
X278937Y181575D02*
D03*
Y181968D02*
D03*
X288228Y192008D02*
D03*
Y192402D02*
D03*
X292126Y193150D02*
D03*
Y193543D02*
D03*
X288543Y185630D02*
D03*
Y186024D02*
D03*
X288937Y185630D02*
D03*
Y186024D02*
D03*
X289331Y185630D02*
D03*
Y186024D02*
D03*
X289724Y185630D02*
D03*
Y186024D02*
D03*
X290236Y190433D02*
D03*
Y190039D02*
D03*
X284134Y189370D02*
D03*
Y188976D02*
D03*
X281968Y183268D02*
D03*
Y183661D02*
D03*
X281417Y183268D02*
D03*
Y183661D02*
D03*
X290906Y186890D02*
D03*
Y187283D02*
D03*
X290472Y186890D02*
D03*
Y187283D02*
D03*
X278504Y181968D02*
D03*
Y181575D02*
D03*
X287441Y180630D02*
D03*
Y180236D02*
D03*
D16*
X290532Y199213D02*
D03*
X291358D02*
D03*
D17*
X263858Y194744D02*
D03*
Y194075D02*
D03*
Y183209D02*
D03*
Y183878D02*
D03*
X288937Y179862D02*
D03*
Y180532D02*
D03*
Y181870D02*
D03*
Y181201D02*
D03*
X291968Y189272D02*
D03*
Y189941D02*
D03*
X291378Y189272D02*
D03*
Y189941D02*
D03*
X290787Y189272D02*
D03*
Y189941D02*
D03*
X283504Y180610D02*
D03*
Y179941D02*
D03*
X278937Y182894D02*
D03*
Y183563D02*
D03*
X279016Y198445D02*
D03*
Y197776D02*
D03*
Y196437D02*
D03*
Y197106D02*
D03*
X278425D02*
D03*
Y197776D02*
D03*
D18*
X279468Y192402D02*
D03*
X278799D02*
D03*
X276594Y177835D02*
D03*
X275925D02*
D03*
X291909Y196142D02*
D03*
X291240D02*
D03*
X274587Y198425D02*
D03*
X275256D02*
D03*
X274587Y196614D02*
D03*
X275256D02*
D03*
X274587Y194803D02*
D03*
X275256D02*
D03*
X274587Y192992D02*
D03*
X275256D02*
D03*
X274587Y191181D02*
D03*
X275256D02*
D03*
X274587Y189370D02*
D03*
X275256D02*
D03*
X274587Y187559D02*
D03*
X275256D02*
D03*
X274587Y185748D02*
D03*
X275256D02*
D03*
X274587Y183937D02*
D03*
X275256D02*
D03*
X274587Y182126D02*
D03*
X275256D02*
D03*
X274587Y180315D02*
D03*
X275256D02*
D03*
X274587Y178504D02*
D03*
X275256D02*
D03*
X274587Y199213D02*
D03*
X275256D02*
D03*
X274587Y197402D02*
D03*
X275256D02*
D03*
X274587Y195591D02*
D03*
X275256D02*
D03*
X274587Y193780D02*
D03*
X275256D02*
D03*
X274587Y191968D02*
D03*
X275256D02*
D03*
X274587Y190157D02*
D03*
X275256D02*
D03*
X274587Y188346D02*
D03*
X275256D02*
D03*
X274587Y186535D02*
D03*
X275256D02*
D03*
X274587Y184724D02*
D03*
X275256D02*
D03*
X274587Y182913D02*
D03*
X275256D02*
D03*
X274587Y181102D02*
D03*
X275256D02*
D03*
X274587Y179291D02*
D03*
X275256D02*
D03*
X291594Y181811D02*
D03*
X292264D02*
D03*
X291594Y185945D02*
D03*
X292264D02*
D03*
X278406Y184685D02*
D03*
X279075D02*
D03*
X280374Y193898D02*
D03*
X281043D02*
D03*
X269035Y199606D02*
D03*
X268366D02*
D03*
X269035Y197795D02*
D03*
X268366D02*
D03*
X269035Y195984D02*
D03*
X268366D02*
D03*
X269035Y194173D02*
D03*
X268366D02*
D03*
X269035Y192362D02*
D03*
X268366D02*
D03*
X269035Y190551D02*
D03*
X268366D02*
D03*
X269035Y188740D02*
D03*
X268366D02*
D03*
X269035Y186929D02*
D03*
X268366D02*
D03*
X269035Y185118D02*
D03*
X268366D02*
D03*
X269035Y183307D02*
D03*
X268366D02*
D03*
X269035Y181496D02*
D03*
X268366D02*
D03*
X269035Y179685D02*
D03*
X268366D02*
D03*
X291240Y195591D02*
D03*
X291909D02*
D03*
X280768Y180512D02*
D03*
X281437D02*
D03*
X279862Y183661D02*
D03*
X280532D02*
D03*
D19*
X292963Y199803D02*
D03*
X293652D02*
D03*
X290817Y193898D02*
D03*
X290128D02*
D03*
Y193071D02*
D03*
X290817D02*
D03*
X291585Y183150D02*
D03*
X292274D02*
D03*
X288888Y178780D02*
D03*
X288199D02*
D03*
X285856Y198110D02*
D03*
X285167D02*
D03*
X279478Y191417D02*
D03*
X278789D02*
D03*
X292274Y182441D02*
D03*
X291585D02*
D03*
X288888Y177913D02*
D03*
X288199D02*
D03*
D20*
X287898Y189470D02*
D03*
X287620Y189748D02*
D03*
X287341Y188913D02*
D03*
X287063Y189192D02*
D03*
X287620Y189192D02*
D03*
X287341Y189470D02*
D03*
X284903Y188877D02*
D03*
X284625Y189155D02*
D03*
D21*
X288189Y198967D02*
D03*
Y198278D02*
D03*
X289134Y198967D02*
D03*
Y198278D02*
D03*
X287244Y198967D02*
D03*
Y198278D02*
D03*
X269094Y198356D02*
D03*
Y199045D02*
D03*
Y196545D02*
D03*
Y197234D02*
D03*
Y194734D02*
D03*
Y195423D02*
D03*
Y192923D02*
D03*
Y193612D02*
D03*
Y191112D02*
D03*
Y191801D02*
D03*
Y189301D02*
D03*
Y189990D02*
D03*
Y187490D02*
D03*
Y188179D02*
D03*
Y185679D02*
D03*
Y186368D02*
D03*
Y183868D02*
D03*
Y184557D02*
D03*
Y182057D02*
D03*
Y182746D02*
D03*
Y180246D02*
D03*
Y180935D02*
D03*
Y178435D02*
D03*
Y179124D02*
D03*
X291693Y184183D02*
D03*
Y184872D02*
D03*
X299409Y192175D02*
D03*
Y192864D02*
D03*
X297047Y184636D02*
D03*
Y183947D02*
D03*
X302244Y190600D02*
D03*
Y191289D02*
D03*
X292402Y184183D02*
D03*
Y184872D02*
D03*
X287244Y200266D02*
D03*
Y199577D02*
D03*
X288189Y200266D02*
D03*
Y199577D02*
D03*
X289134Y200266D02*
D03*
Y199577D02*
D03*
X291693Y187234D02*
D03*
Y186545D02*
D03*
X276614Y198474D02*
D03*
Y199163D02*
D03*
Y196663D02*
D03*
Y197352D02*
D03*
Y194852D02*
D03*
Y195541D02*
D03*
Y193041D02*
D03*
Y193730D02*
D03*
Y191230D02*
D03*
Y191919D02*
D03*
Y189419D02*
D03*
Y190108D02*
D03*
Y187608D02*
D03*
Y188297D02*
D03*
Y185797D02*
D03*
Y186486D02*
D03*
Y183986D02*
D03*
Y184675D02*
D03*
Y182175D02*
D03*
Y182864D02*
D03*
Y180364D02*
D03*
Y181053D02*
D03*
Y178553D02*
D03*
Y179242D02*
D03*
X290354Y186329D02*
D03*
Y185640D02*
D03*
X290630Y187844D02*
D03*
Y188533D02*
D03*
X292047Y187844D02*
D03*
Y188533D02*
D03*
X291339Y187844D02*
D03*
Y188533D02*
D03*
X290984Y184183D02*
D03*
Y184872D02*
D03*
D22*
X272421Y198819D02*
D03*
X269941D02*
D03*
X272421Y197008D02*
D03*
X269941D02*
D03*
X272421Y195197D02*
D03*
X269941D02*
D03*
X272421Y193386D02*
D03*
X269941D02*
D03*
X272421Y191575D02*
D03*
X269941D02*
D03*
X272421Y189764D02*
D03*
X269941D02*
D03*
X272421Y187953D02*
D03*
X269941D02*
D03*
X272421Y186142D02*
D03*
X269941D02*
D03*
X272421Y184331D02*
D03*
X269941D02*
D03*
X272421Y182520D02*
D03*
X269941D02*
D03*
X272421Y180709D02*
D03*
X269941D02*
D03*
X272421Y178898D02*
D03*
X269941D02*
D03*
X265413Y199606D02*
D03*
X262933D02*
D03*
X265413Y178346D02*
D03*
X262933D02*
D03*
D23*
X308701Y193307D02*
D03*
X305472D02*
D03*
D24*
X287184Y193882D02*
D03*
X286905Y193604D02*
D03*
X288019Y193047D02*
D03*
X287740Y192769D02*
D03*
X287740Y193325D02*
D03*
X287462Y193047D02*
D03*
X283368Y194706D02*
D03*
X283089Y194428D02*
D03*
X282538Y193877D02*
D03*
X282816Y194155D02*
D03*
X286554Y193955D02*
D03*
X286832Y194234D02*
D03*
X288092Y190494D02*
D03*
X287814Y190215D02*
D03*
X283719Y192459D02*
D03*
X283997Y192738D02*
D03*
D25*
X295276Y191850D02*
D03*
X295276Y193189D02*
D03*
D26*
X287028Y187756D02*
D03*
X286654Y186968D02*
D03*
X285650Y187756D02*
D03*
X285276Y186968D02*
D03*
X283563Y185709D02*
D03*
X283189Y184921D02*
D03*
X286043Y194528D02*
D03*
X285669Y193740D02*
D03*
D27*
X286280Y187756D02*
D03*
X284902D02*
D03*
X282815Y185709D02*
D03*
X285295Y194528D02*
D03*
D28*
X289528Y181909D02*
D03*
X290315Y181535D02*
D03*
X289488Y190492D02*
D03*
X288701Y190866D02*
D03*
X288740Y192579D02*
D03*
X289528Y192205D02*
D03*
X288740Y193957D02*
D03*
X289528Y193583D02*
D03*
X273937Y198445D02*
D03*
X273150Y198819D02*
D03*
X273937Y196634D02*
D03*
X273150Y197008D02*
D03*
X273937Y194823D02*
D03*
X273150Y195197D02*
D03*
X273937Y193012D02*
D03*
X273150Y193386D02*
D03*
X273937Y191201D02*
D03*
X273150Y191575D02*
D03*
X273937Y189390D02*
D03*
X273150Y189764D02*
D03*
X273937Y187579D02*
D03*
X273150Y187953D02*
D03*
X273937Y185768D02*
D03*
X273150Y186142D02*
D03*
X273937Y183957D02*
D03*
X273150Y184331D02*
D03*
X273937Y182146D02*
D03*
X273150Y182520D02*
D03*
X273937Y180335D02*
D03*
X273150Y180709D02*
D03*
X273937Y178524D02*
D03*
X273150Y178898D02*
D03*
D29*
X289528Y181161D02*
D03*
X289488Y191240D02*
D03*
X288740Y191831D02*
D03*
Y193209D02*
D03*
X273937Y199193D02*
D03*
Y197382D02*
D03*
Y195571D02*
D03*
Y193760D02*
D03*
Y191949D02*
D03*
Y190138D02*
D03*
Y188327D02*
D03*
Y186516D02*
D03*
Y184705D02*
D03*
Y182894D02*
D03*
Y181083D02*
D03*
Y179272D02*
D03*
D30*
X294685Y188533D02*
D03*
X299409D02*
D03*
D31*
X296185Y184616D02*
D03*
X295685D02*
D03*
X295185D02*
D03*
X294185D02*
D03*
X293686D02*
D03*
X293185D02*
D03*
X300909D02*
D03*
X300409D02*
D03*
X299909D02*
D03*
X298909D02*
D03*
X298411D02*
D03*
X297909D02*
D03*
D32*
X307825Y189961D02*
D03*
D33*
X303907Y188461D02*
D03*
Y188961D02*
D03*
Y189461D02*
D03*
Y190461D02*
D03*
Y190959D02*
D03*
Y191461D02*
D03*
D34*
X288189Y195758D02*
D03*
Y197549D02*
D03*
D35*
X283760Y198819D02*
D03*
X284744D02*
D03*
X284252D02*
D03*
X285236D02*
D03*
X283268D02*
D03*
X283760Y196024D02*
D03*
X284744D02*
D03*
X284252D02*
D03*
X285236D02*
D03*
X283268D02*
D03*
D36*
X286240Y199843D02*
D03*
X282264D02*
D03*
X286240Y197047D02*
D03*
X282264D02*
D03*
X283051Y178150D02*
D03*
X287028D02*
D03*
D37*
X265280Y193110D02*
D03*
Y191929D02*
D03*
Y188386D02*
D03*
Y187205D02*
D03*
Y184843D02*
D03*
Y186024D02*
D03*
Y189567D02*
D03*
Y190748D02*
D03*
X263461Y193110D02*
D03*
Y191929D02*
D03*
Y190748D02*
D03*
Y189567D02*
D03*
X263465Y188386D02*
D03*
X263461Y187205D02*
D03*
Y186024D02*
D03*
Y184843D02*
D03*
D38*
X285532Y179311D02*
D03*
X284547D02*
D03*
X285039D02*
D03*
X284055D02*
D03*
X286024D02*
D03*
D39*
X280364Y177933D02*
D03*
X279478D02*
D03*
D40*
X279921Y178976D02*
D03*
X279665D02*
D03*
X279409D02*
D03*
X280177D02*
D03*
X280433D02*
D03*
D41*
X278996Y178811D02*
D03*
X280846D02*
D03*
D42*
X288593Y182638D02*
D03*
X288848D02*
D03*
X289104D02*
D03*
X289360D02*
D03*
X289616D02*
D03*
X289872D02*
D03*
X290128D02*
D03*
X290384D02*
D03*
X288593Y184843D02*
D03*
X288848D02*
D03*
X289104D02*
D03*
X289360D02*
D03*
X289616D02*
D03*
X289872D02*
D03*
X290128D02*
D03*
D43*
X290384D02*
D03*
D44*
X288071Y187402D02*
D03*
Y187598D02*
D03*
Y187795D02*
D03*
Y187205D02*
D03*
Y187008D02*
D03*
X289803Y187795D02*
D03*
Y187598D02*
D03*
Y187008D02*
D03*
Y187205D02*
D03*
Y187402D02*
D03*
D45*
X280276Y182008D02*
D03*
D46*
X280374Y182795D02*
D03*
X280571D02*
D03*
X280768D02*
D03*
X279783D02*
D03*
X279980D02*
D03*
X280177D02*
D03*
Y181220D02*
D03*
X279980D02*
D03*
X279783D02*
D03*
X280768D02*
D03*
X280571D02*
D03*
X280374D02*
D03*
D47*
X281063Y181909D02*
D03*
Y181713D02*
D03*
Y181516D02*
D03*
Y182500D02*
D03*
Y182303D02*
D03*
Y182106D02*
D03*
X279488Y181909D02*
D03*
Y181713D02*
D03*
Y181516D02*
D03*
Y182500D02*
D03*
Y182303D02*
D03*
Y182106D02*
D03*
D48*
X287425Y185079D02*
D03*
D49*
X286425D02*
D03*
X285425D02*
D03*
X284425D02*
D03*
X287425Y181535D02*
D03*
X286425D02*
D03*
X285425D02*
D03*
X284425D02*
D03*
D50*
X290157Y197234D02*
D03*
X290551D02*
D03*
X290354D02*
D03*
X289961D02*
D03*
X289764D02*
D03*
X290551Y196073D02*
D03*
X290354D02*
D03*
X289961D02*
D03*
X289764D02*
D03*
X290157D02*
D03*
D51*
Y196654D02*
D03*
D52*
X289547Y196752D02*
D03*
Y196555D02*
D03*
X290768Y196752D02*
D03*
Y196555D02*
D03*
D53*
X285249Y193211D02*
D03*
X285110Y193072D02*
D03*
X284971Y192933D02*
D03*
X284831Y192794D02*
D03*
X284692Y192655D02*
D03*
X284553Y192515D02*
D03*
X284414Y192376D02*
D03*
X284275Y192237D02*
D03*
X284135Y192098D02*
D03*
X283996Y191959D02*
D03*
X283857Y191819D02*
D03*
X283718Y191680D02*
D03*
X286090Y189308D02*
D03*
X286229Y189448D02*
D03*
X286368Y189587D02*
D03*
X286507Y189726D02*
D03*
X286646Y189865D02*
D03*
X286786Y190004D02*
D03*
X286925Y190144D02*
D03*
X287064Y190283D02*
D03*
X287203Y190422D02*
D03*
X287342Y190561D02*
D03*
X287482Y190700D02*
D03*
X287621Y190839D02*
D03*
D54*
X283718D02*
D03*
X283857Y190700D02*
D03*
X283996Y190561D02*
D03*
X284135Y190422D02*
D03*
X284275Y190283D02*
D03*
X284414Y190144D02*
D03*
X284553Y190004D02*
D03*
X284692Y189865D02*
D03*
X284831Y189726D02*
D03*
X284971Y189587D02*
D03*
X285110Y189448D02*
D03*
X285249Y189308D02*
D03*
X287621Y191680D02*
D03*
X287482Y191819D02*
D03*
X287342Y191959D02*
D03*
X287203Y192098D02*
D03*
X287064Y192237D02*
D03*
X286925Y192376D02*
D03*
X286786Y192515D02*
D03*
X286646Y192655D02*
D03*
X286507Y192794D02*
D03*
X286368Y192933D02*
D03*
X286229Y193072D02*
D03*
X286090Y193211D02*
D03*
D55*
X268701Y199606D02*
D03*
Y197795D02*
D03*
Y195984D02*
D03*
Y194173D02*
D03*
Y192362D02*
D03*
Y190551D02*
D03*
Y188740D02*
D03*
Y186929D02*
D03*
Y185118D02*
D03*
Y183307D02*
D03*
Y181496D02*
D03*
Y179685D02*
D03*
D56*
X298622Y197693D02*
D03*
Y196008D02*
D03*
Y179780D02*
D03*
Y178094D02*
D03*
X303740Y179780D02*
D03*
Y178094D02*
D03*
D57*
X283386Y188484D02*
D03*
Y187657D02*
D03*
X284134Y188484D02*
D03*
Y187657D02*
D03*
D58*
X275906Y198376D02*
D03*
Y199262D02*
D03*
Y196565D02*
D03*
Y197451D02*
D03*
Y194754D02*
D03*
Y195640D02*
D03*
Y192943D02*
D03*
Y193829D02*
D03*
Y191132D02*
D03*
Y192018D02*
D03*
Y189321D02*
D03*
Y190207D02*
D03*
Y187510D02*
D03*
Y188396D02*
D03*
Y185699D02*
D03*
Y186585D02*
D03*
Y183888D02*
D03*
Y184774D02*
D03*
Y182077D02*
D03*
Y182963D02*
D03*
Y180266D02*
D03*
Y181152D02*
D03*
Y178455D02*
D03*
Y179341D02*
D03*
D59*
X280315Y192431D02*
D03*
Y191112D02*
D03*
X281299Y192431D02*
D03*
Y191112D02*
D03*
X291102Y190876D02*
D03*
Y192195D02*
D03*
X288858Y189833D02*
D03*
Y188514D02*
D03*
X292047Y192195D02*
D03*
Y190876D02*
D03*
X289724Y189833D02*
D03*
Y188514D02*
D03*
X291535Y194085D02*
D03*
Y192766D02*
D03*
X290236Y190876D02*
D03*
Y192195D02*
D03*
X298425Y192096D02*
D03*
Y193415D02*
D03*
D60*
X281299Y193150D02*
D03*
X280197D02*
D03*
D61*
X297884Y183071D02*
D03*
X299203D02*
D03*
X301486Y191260D02*
D03*
X300167D02*
D03*
X303415Y187362D02*
D03*
X302096D02*
D03*
D62*
X288065Y193943D02*
D03*
X287132Y194876D02*
D03*
D63*
X308071Y185315D02*
D03*
D64*
X303898Y184315D02*
D03*
Y186315D02*
D03*
D65*
X282939Y181703D02*
D03*
X302612Y186565D02*
D03*
D66*
X283439Y181703D02*
D03*
X282939Y184203D02*
D03*
X283439D02*
D03*
X302112Y186565D02*
D03*
X302612Y184065D02*
D03*
X302112D02*
D03*
D67*
X279429Y179783D02*
D03*
X280177D02*
D03*
X279803Y180610D02*
D03*
X286909Y180650D02*
D03*
X286161D02*
D03*
X286535Y179823D02*
D03*
D68*
X291772Y194803D02*
D03*
X290591D02*
D03*
X288583D02*
D03*
X289764D02*
D03*
D69*
X300669Y194094D02*
D03*
Y192283D02*
D03*
D70*
X303130Y193189D02*
D03*
D71*
X295906Y199803D02*
D03*
X294646D02*
D03*
D72*
X282677Y192441D02*
Y192598D01*
X282480Y192795D02*
X282677Y192598D01*
X282283Y192795D02*
X282480D01*
X282677Y192441D02*
X282795D01*
X283033Y192203D02*
X283752D01*
X282795Y192441D02*
X283033Y192203D01*
X281929Y194882D02*
X282204Y194607D01*
Y194606D02*
Y194607D01*
X290532Y199213D02*
X290610Y199134D01*
X286654Y186693D02*
Y187008D01*
X286575Y186614D02*
X286654Y186693D01*
X285000Y186614D02*
X286575D01*
X284921Y186535D02*
X285000Y186614D01*
X284921Y186339D02*
Y186535D01*
X286024Y191535D02*
Y192589D01*
X284703Y192087D02*
X284803D01*
X284606Y186142D02*
Y186339D01*
Y186142D02*
X284646Y186102D01*
X284291Y186853D02*
X284447Y187008D01*
X284291Y186339D02*
Y186853D01*
X285157Y193740D02*
X285669D01*
X284724Y193307D02*
X285157Y193740D01*
X284724Y193179D02*
Y193307D01*
Y193179D02*
X284971Y192933D01*
X281575Y185512D02*
X281929Y185866D01*
X280394Y185512D02*
X281575D01*
X280945Y186732D02*
X281004Y186791D01*
X281486D01*
X287638Y191339D02*
X288032Y190945D01*
X287402Y191339D02*
X287638D01*
X287244Y191496D02*
X287402Y191339D01*
X286732Y188622D02*
X286811Y188543D01*
X287126D01*
X287244Y188425D01*
X286575Y188425D02*
X286693Y188307D01*
X286890D01*
X286090Y189308D02*
X286417Y188981D01*
Y188386D02*
Y188981D01*
X286339Y188307D02*
X286417Y188386D01*
X286368Y189587D02*
X286732Y189222D01*
X286229Y189448D02*
X286575Y189102D01*
X288268Y193296D02*
Y193425D01*
X288019Y193047D02*
X288268Y193296D01*
X292520Y193110D02*
X292953D01*
X282939Y183557D02*
Y184203D01*
Y183557D02*
X283071Y183425D01*
X284016D01*
X284134Y183543D01*
X289921Y190965D02*
X290010Y190876D01*
X290236D01*
Y190433D02*
Y190876D01*
X290177Y190492D02*
X290236Y190433D01*
X289488Y190492D02*
X290177D01*
X284094Y191417D02*
Y191582D01*
X283857Y191819D02*
X284094Y191582D01*
X292126Y193543D02*
Y194055D01*
X291585D02*
X292126D01*
X291575Y194045D02*
X291585Y194055D01*
X286713Y195197D02*
X286811D01*
X286043Y194528D02*
X286713Y195197D01*
X264370Y192638D02*
Y194291D01*
Y192638D02*
X264488Y192520D01*
X265157D01*
X265280Y192398D01*
X286956Y191784D02*
Y191850D01*
X283858Y197283D02*
X285236D01*
X283760Y197382D02*
X283858Y197283D01*
X283760Y197382D02*
Y198819D01*
X286956Y191850D02*
X287203Y192098D01*
X287756Y192126D02*
X287795Y192087D01*
X287510Y192126D02*
X287756D01*
X287342Y191959D02*
X287510Y192126D01*
X287362Y192441D02*
X287441Y192362D01*
X288189D01*
X288228Y192402D01*
X278750Y186398D02*
X279508D01*
X279528Y186378D01*
X278750Y187185D02*
X279508D01*
X279528Y187165D01*
X278750Y187972D02*
X279508D01*
X279528Y187953D01*
X278750Y188760D02*
X279508D01*
X279528Y188740D01*
X278750Y189547D02*
X279508D01*
X279528Y189528D01*
X286339Y193740D02*
X286554Y193955D01*
X286299Y193701D02*
X286339Y193740D01*
X286350D01*
X286339D02*
X286339D01*
X286299Y193421D02*
Y193701D01*
X283858Y196772D02*
X284291D01*
X283760Y196673D02*
X283858Y196772D01*
X283760Y196024D02*
Y196673D01*
X284606Y196575D02*
Y196772D01*
X284488Y196457D02*
X284606Y196575D01*
X284331Y196457D02*
X284488D01*
X284252Y196378D02*
X284331Y196457D01*
X284252Y196024D02*
Y196378D01*
X284921Y196496D02*
Y196772D01*
X284744Y196319D02*
X284921Y196496D01*
X284744Y196024D02*
Y196319D01*
X287953Y191614D02*
Y191654D01*
X287835Y191772D02*
X287953Y191654D01*
X287712Y191772D02*
X287835D01*
X287621Y191680D02*
X287712Y191772D01*
X279272Y186791D02*
X279291Y186772D01*
X278750Y186791D02*
X279272D01*
X279272Y187579D02*
X279291Y187559D01*
X278750Y187579D02*
X279272D01*
X279272Y188366D02*
X279291Y188346D01*
X278750Y188366D02*
X279272D01*
X279272Y189154D02*
X279291Y189134D01*
X278750Y189154D02*
X279272D01*
X279272Y189941D02*
X279291Y189921D01*
X278750Y189941D02*
X279272D01*
X285856Y198110D02*
X286014Y197953D01*
X286299D01*
X284744Y198189D02*
Y198819D01*
Y198189D02*
X284823Y198110D01*
X285167D01*
X277480Y182992D02*
Y186496D01*
X277352Y182864D02*
X277480Y182992D01*
X276614Y182864D02*
X277352D01*
X277638Y181201D02*
Y186102D01*
X277489Y181053D02*
X277638Y181201D01*
X276614Y181053D02*
X277489D01*
X277667Y179242D02*
X277795Y179370D01*
X276614Y179242D02*
X277667D01*
X279094Y182500D02*
X279488D01*
X279094Y182402D02*
Y182500D01*
Y182402D02*
X279193Y182303D01*
X279488D01*
X278937Y181299D02*
Y181575D01*
X278110Y190236D02*
X278209Y190138D01*
X278750D01*
X277953Y189843D02*
X278051Y189744D01*
X278750D01*
X277795Y189449D02*
Y195472D01*
X277726Y195541D02*
X277795Y195472D01*
X276614Y195541D02*
X277726D01*
X277795Y189449D02*
X277894Y189350D01*
X278750D01*
X277638Y189055D02*
Y193622D01*
X277530Y193730D02*
X277638Y193622D01*
X276614Y193730D02*
X277530D01*
X277638Y189055D02*
X277736Y188957D01*
X278750D01*
X277372Y191919D02*
X277480Y191811D01*
X276614Y191919D02*
X277372D01*
X277480Y188661D02*
Y191811D01*
Y188661D02*
X277579Y188563D01*
X278750D01*
X277323Y188268D02*
Y190000D01*
X277215Y190108D02*
X277323Y190000D01*
X276614Y190108D02*
X277215D01*
X277323Y188268D02*
X277421Y188169D01*
X278750D01*
X278947Y190335D02*
X279039Y190427D01*
X278750Y190335D02*
X278947D01*
X283465Y191181D02*
Y191260D01*
X283780Y191575D01*
Y191614D01*
X283718Y191676D02*
X283780Y191614D01*
X283718Y191676D02*
Y191680D01*
X283780Y191167D02*
Y191181D01*
Y191167D02*
X283850Y191097D01*
Y190972D02*
Y191097D01*
X283718Y190839D02*
X283850Y190972D01*
X286614Y190512D02*
X286835D01*
X287064Y190283D01*
X286850Y190748D02*
X286877D01*
X287203Y190422D01*
X285433Y185079D02*
Y185709D01*
X286433Y185079D02*
Y185732D01*
X283718Y190844D02*
X283780Y190906D01*
X283718Y190839D02*
Y190844D01*
X288465Y187008D02*
X288583Y186890D01*
X288071Y187008D02*
X288465D01*
X288583Y187205D02*
X288583Y187205D01*
X288071Y187205D02*
X288583D01*
X287144Y189646D02*
X287165D01*
X287341Y189470D01*
X286786Y190004D02*
X287144Y189646D01*
X286890Y189370D02*
X287063Y189197D01*
Y189192D02*
Y189197D01*
X287441Y189921D02*
X287614Y189748D01*
X287620D01*
X287147Y189921D02*
X287441D01*
X286925Y190144D02*
X287147Y189921D01*
X286890Y189370D02*
Y189622D01*
X286646Y189865D02*
X286890Y189622D01*
X288092Y190494D02*
X288346Y190239D01*
Y190236D02*
Y190239D01*
X280945Y187126D02*
X281004Y187185D01*
X281486D01*
X280945Y187441D02*
X281004Y187382D01*
X281486D01*
X282008Y190748D02*
X282283D01*
X281850D02*
X282008D01*
X283857Y190700D02*
X284173Y191017D01*
Y191024D01*
X284409Y190696D02*
Y190787D01*
X284135Y190422D02*
X284409Y190696D01*
X284543Y190551D02*
X284646D01*
X284275Y190283D02*
X284543Y190551D01*
X283386Y189685D02*
Y189951D01*
X283996Y190561D01*
X281772Y190669D02*
X281850Y190748D01*
X281772Y190433D02*
Y190669D01*
X281673Y190335D02*
X281772Y190433D01*
X281486Y190335D02*
X281673D01*
X282008Y190354D02*
X282283D01*
X281791Y190138D02*
X282008Y190354D01*
X281486Y190138D02*
X281791D01*
X282008Y189567D02*
X282283D01*
X282008Y189961D02*
X282283D01*
X281988Y189941D02*
X282008Y189961D01*
X281486Y189941D02*
X281988D01*
X281831Y189744D02*
X282008Y189567D01*
X281486Y189744D02*
X281831D01*
X282008Y189134D02*
X282283D01*
X281929Y189055D02*
X282008Y189134D01*
X281929Y188858D02*
Y189055D01*
X281831Y188760D02*
X281929Y188858D01*
X281486Y188760D02*
X281831D01*
X282087Y188740D02*
X282283D01*
X281909Y188563D02*
X282087Y188740D01*
X281486Y188563D02*
X281909D01*
X282264Y188366D02*
X282283Y188346D01*
X281486Y188366D02*
X282264D01*
X282264Y187579D02*
X282283Y187559D01*
X281486Y187579D02*
X282264D01*
X282283Y187165D02*
Y187559D01*
Y186772D02*
Y187165D01*
X282677Y189567D02*
Y189961D01*
Y189134D02*
Y189567D01*
Y188740D02*
Y189134D01*
Y188346D02*
Y188740D01*
X282283Y187953D02*
Y187953D01*
X282677Y188346D01*
Y189961D02*
X283110D01*
X283189Y190039D01*
Y190669D01*
X283110Y190748D02*
X283189Y190669D01*
X282677Y190748D02*
X283110D01*
X282677Y190354D02*
X282953D01*
X291417Y190138D02*
Y190433D01*
X291811Y190098D02*
X291968Y189941D01*
X291811Y190098D02*
Y190433D01*
X291417Y190138D02*
X291496Y190059D01*
X291535Y188898D02*
Y189114D01*
X291378Y189272D02*
X291535Y189114D01*
Y188730D02*
Y188898D01*
X291378Y188573D02*
X291535Y188730D01*
X291850D02*
X292047Y188533D01*
X291850Y188730D02*
Y188898D01*
Y189154D01*
X291968Y189272D01*
X292913Y192717D02*
X292953Y192756D01*
X292520Y192717D02*
X292913D01*
X292913Y192323D02*
X292953Y192283D01*
X292520Y192323D02*
X292913D01*
X290787Y188898D02*
Y189272D01*
Y188691D02*
Y188898D01*
X287967Y190494D02*
X288092D01*
X287621Y190839D02*
X287967Y190494D01*
X287740Y193325D02*
X288019Y193047D01*
X288228Y192402D02*
X288406Y192579D01*
X288740D01*
X287268Y192441D02*
X287362D01*
X287064Y192237D02*
X287268Y192441D01*
X286925Y192376D02*
X287147Y192598D01*
X287559D01*
X287729Y192769D01*
X287105Y192835D02*
X287244D01*
X286786Y192515D02*
X287105Y192835D01*
X286693Y192979D02*
Y193386D01*
X286507Y192794D02*
X286693Y192979D01*
X287729Y192769D02*
X287740D01*
X287244Y192835D02*
X287456Y193047D01*
X287462D01*
X286693Y193386D02*
Y193391D01*
X286905Y193604D01*
X286090Y193211D02*
X286299Y193421D01*
X289163Y198307D02*
X289606D01*
X290079Y197638D02*
X290157Y197559D01*
Y197234D02*
Y197559D01*
X290354Y197598D02*
X290394Y197638D01*
X290354Y197234D02*
Y197598D01*
X290128Y193898D02*
Y193976D01*
X289528D02*
X290128D01*
X289528Y193583D02*
Y193976D01*
X290384Y182638D02*
Y183533D01*
X290472Y183622D01*
X291457Y183780D02*
X291535Y183858D01*
Y184183D01*
X289872Y182638D02*
Y183691D01*
X289961Y183780D01*
X291457D01*
X289360Y182638D02*
Y183140D01*
X291142Y183150D02*
X291585D01*
X283504Y179409D02*
Y179941D01*
Y179409D02*
X283602Y179311D01*
X284055D01*
X282939Y180683D02*
Y181703D01*
Y180683D02*
X283012Y180610D01*
X283504D01*
X284547Y179311D02*
X284567Y179291D01*
X288937Y180423D02*
Y181043D01*
X289360Y183140D02*
X289370Y183150D01*
X289409D01*
X289104Y182638D02*
Y183140D01*
X289094Y183150D02*
X289104Y183140D01*
X291594Y181811D02*
Y182431D01*
X291152D02*
X291594D01*
X292244Y184872D02*
Y185315D01*
X291535Y184872D02*
Y185315D01*
X291378Y189941D02*
X291496Y190059D01*
X290787Y189941D02*
Y190354D01*
X290630Y188533D02*
X290787Y188691D01*
X289252Y187598D02*
X289803D01*
X289370Y187795D02*
X289803D01*
X289252Y187913D02*
X289370Y187795D01*
X289360Y184360D02*
Y184843D01*
X289291Y184291D02*
X289360Y184360D01*
X289616Y184843D02*
Y185285D01*
X289724Y185394D01*
Y185630D01*
X289724Y185630D02*
X289724Y185630D01*
X289360Y184843D02*
Y185600D01*
X289331Y185630D02*
X289360Y185600D01*
X289104Y184843D02*
Y185226D01*
X288937Y185394D02*
X289104Y185226D01*
X288937Y185394D02*
Y185630D01*
X288593Y184843D02*
Y185344D01*
X288543Y185394D02*
X288593Y185344D01*
X288543Y185394D02*
Y185630D01*
X275906Y177854D02*
X275925Y177835D01*
X291575Y192283D02*
Y192687D01*
X291486Y192195D02*
X291575Y192283D01*
X291102Y192195D02*
X291486D01*
X290236D02*
X291102D01*
X289528Y192205D02*
X290226D01*
X290236Y192195D01*
X290128Y192303D02*
Y193071D01*
Y192303D02*
X290226Y192205D01*
X288740Y193957D02*
X289035D01*
X289134Y193858D01*
Y193150D02*
Y193858D01*
Y193150D02*
X289213Y193071D01*
X290128D01*
X288065Y193943D02*
X288727D01*
X288740Y193957D01*
X290817Y193071D02*
Y193898D01*
Y194577D01*
X290591Y194803D02*
X290817Y194577D01*
X290787Y196102D02*
X291201D01*
X290748Y196063D02*
X290787Y196102D01*
X290748Y195906D02*
Y196063D01*
X290709Y195866D02*
X290748Y195906D01*
X290630Y195866D02*
X290709D01*
X290551Y195945D02*
X290630Y195866D01*
X290551Y195945D02*
Y196073D01*
X290354Y195787D02*
Y196073D01*
Y195787D02*
X290591Y195551D01*
X291201D01*
X289961Y195787D02*
Y196073D01*
X289882Y195709D02*
X289961Y195787D01*
X289882Y195630D02*
Y195709D01*
X289498Y196073D02*
X289764D01*
X292047Y192195D02*
Y193032D01*
X292165Y193150D01*
X280177Y182795D02*
Y183169D01*
X280118Y183228D02*
X280177Y183169D01*
X280374Y182795D02*
Y183169D01*
X280433Y183228D01*
X279980Y182795D02*
Y183012D01*
X279882Y183110D02*
X279980Y183012D01*
X279783Y182795D02*
Y183012D01*
X279882Y183110D01*
X279862Y183661D02*
X279882Y183642D01*
X279075Y182106D02*
X279488D01*
X278937Y181968D02*
X279075Y182106D01*
X279685Y183228D02*
X279882D01*
X279961Y180000D02*
X280177Y179783D01*
X279961Y180000D02*
Y180118D01*
X279429Y179783D02*
X279646Y180000D01*
Y180118D01*
X279665Y178976D02*
Y179547D01*
X279429Y179783D02*
X279665Y179547D01*
X279921Y178976D02*
Y179528D01*
X280177Y179783D01*
X281063Y181909D02*
X281516D01*
X281575Y181968D01*
X281752Y181713D02*
X281811Y181772D01*
X281063Y181713D02*
X281752D01*
X283780Y193567D02*
X284692Y192655D01*
X283780Y193567D02*
Y193780D01*
X284151Y194151D01*
X282538Y193648D02*
X283093Y193093D01*
X282538Y193648D02*
Y193877D01*
X283596Y194706D02*
X284151Y194151D01*
X283368Y194706D02*
X283596D01*
X283093Y193093D02*
X283425Y193425D01*
X283643D01*
X284553Y192515D01*
X282008Y191575D02*
X282283D01*
X282677Y191181D02*
Y191575D01*
X282953D01*
X283813Y192420D02*
X284135Y192098D01*
X283680Y192420D02*
X283813D01*
X284414Y192376D02*
X284703Y192087D01*
X284903Y188962D02*
X285249Y189308D01*
X284903Y188877D02*
Y188962D01*
X284134Y189585D02*
X284553Y190004D01*
X284134Y189370D02*
Y189585D01*
X283386Y188484D02*
Y188976D01*
X284134Y188484D02*
Y188976D01*
X282677Y187165D02*
X282953D01*
X282677Y186772D02*
X282953D01*
X283228D01*
X282953Y187165D02*
X283228D01*
X289724Y189833D02*
X290030D01*
X290236Y190039D01*
X288858Y189833D02*
Y189862D01*
X289488Y190492D01*
X283386Y189370D02*
X283386Y189370D01*
X283661D01*
X284971Y189587D02*
X285266Y189882D01*
X285433D01*
X288543Y186024D02*
Y186339D01*
X289331Y186024D02*
Y186339D01*
X284692Y189865D02*
X284921Y190094D01*
Y190315D01*
X289724Y186024D02*
Y186339D01*
X284016Y189882D02*
X284152D01*
X284414Y190144D01*
X288937Y186024D02*
Y186339D01*
X284831Y189726D02*
X285197Y190091D01*
Y190118D01*
X276614Y186486D02*
X277037D01*
X277165Y186614D01*
Y187244D01*
X277303Y187382D01*
X278750D01*
X277264Y187776D02*
X278750D01*
X277165Y187874D02*
X277264Y187776D01*
X276614Y188297D02*
X277057D01*
X277165Y188189D01*
Y187874D02*
Y188189D01*
X277421Y186988D02*
X278750D01*
X277323Y186890D02*
X277421Y186988D01*
X277579Y186594D02*
X278750D01*
X277480Y186496D02*
X277579Y186594D01*
X277638Y186102D02*
X277736Y186201D01*
X278750D01*
X276614Y184675D02*
X277195D01*
X277323Y184803D01*
Y186890D01*
X286956Y191784D02*
X287008Y191732D01*
X288967Y180394D02*
X289409D01*
X288937Y180423D02*
X288967Y180394D01*
X288848Y182254D02*
Y182638D01*
Y182254D02*
X288937Y182165D01*
Y181713D02*
Y182165D01*
X290315Y180236D02*
Y181535D01*
X283669Y192008D02*
X283857Y191819D01*
X282677Y192008D02*
X283669D01*
X288701Y191417D02*
X288701Y191417D01*
X288701Y190866D02*
Y191417D01*
X289921Y190965D02*
Y191417D01*
X287244Y191582D02*
X287482Y191819D01*
X287244Y191496D02*
Y191582D01*
X288848Y184291D02*
Y184843D01*
Y184291D02*
X289291D01*
X284528Y185984D02*
X284646Y186102D01*
X292165Y183780D02*
X292244Y183858D01*
X291732Y183780D02*
X292165D01*
X291575Y183622D02*
X291732Y183780D01*
X292244Y183858D02*
Y184183D01*
X290472Y183622D02*
X291575D01*
X290738Y190876D02*
X291102D01*
X290669Y190945D02*
X290738Y190876D01*
X290669Y190945D02*
Y191181D01*
X290591Y191260D02*
X290669Y191181D01*
X290236Y191260D02*
X290591D01*
X280571Y182795D02*
Y183012D01*
X280709Y183150D01*
X280276Y182008D02*
X280571Y182303D01*
Y182795D01*
X287087Y190817D02*
X287342Y190561D01*
X287087Y190817D02*
Y191102D01*
X289443Y187205D02*
X289803D01*
X289370Y187402D02*
X289803D01*
X289213Y187283D02*
X289252D01*
X289370Y187402D01*
X288071Y187598D02*
X288307D01*
X281486Y187776D02*
X281831D01*
X282008Y187953D01*
X282283D01*
X284449Y179173D02*
X284567Y179291D01*
X289528Y181909D02*
X289882D01*
Y181535D02*
Y181909D01*
X290807D01*
X290827Y181929D01*
X285945Y195748D02*
X286260D01*
X285945Y195354D02*
X286260D01*
X277795Y179370D02*
Y185512D01*
X277953Y185669D01*
X280925Y186201D02*
X281486D01*
X280827Y186102D02*
X280925Y186201D01*
X288110Y184488D02*
Y184646D01*
X280827Y185866D02*
Y186102D01*
X282480Y183937D02*
X282559Y184016D01*
Y184213D01*
X282126Y184094D02*
X282244Y184213D01*
X281732Y184094D02*
X282126D01*
X285984Y190249D02*
X286507Y189726D01*
X285984Y190249D02*
Y190591D01*
X286024Y192589D02*
X286368Y192933D01*
X287874Y184252D02*
X288110Y184488D01*
X284134Y183543D02*
Y184173D01*
X284213Y184252D01*
X287874D01*
X286732Y188622D02*
Y189222D01*
X287244Y188307D02*
Y188425D01*
X286575Y188425D02*
Y189102D01*
X285650Y187500D02*
Y187795D01*
Y187500D02*
X285709Y187441D01*
X286968D01*
X287028Y187500D01*
Y187795D01*
X284903Y188877D02*
X285118Y188661D01*
X285433D01*
Y188012D02*
X285650Y187795D01*
X284447Y187008D02*
X285276D01*
X285787Y185787D02*
X285866Y185866D01*
X285512Y185787D02*
X285787D01*
X285433Y185709D02*
X285512Y185787D01*
X285866Y185866D02*
Y186339D01*
X286181Y185866D02*
X286260Y185787D01*
X286378D01*
X286433Y185732D01*
X286181Y185866D02*
Y186339D01*
X285433Y188012D02*
Y188032D01*
X277953Y185669D02*
X279528D01*
X280256Y186398D01*
X281486D01*
X284135Y192098D02*
X284370Y191863D01*
Y191654D02*
Y191863D01*
X283752Y192203D02*
X283996Y191959D01*
X285039Y191850D02*
Y192109D01*
X286299Y190212D02*
X286646Y189865D01*
X286299Y190212D02*
Y190748D01*
X285315Y191732D02*
X286299Y190748D01*
X285315Y191732D02*
Y192047D01*
X285433Y192165D01*
X285039Y192109D02*
X285445Y192515D01*
Y192737D01*
X285110Y193072D02*
X285445Y192737D01*
X285079Y192520D02*
X285105D01*
X284831Y192794D02*
X285105Y192520D01*
X281929Y185866D02*
Y186457D01*
X281486Y186594D02*
X281791D01*
X281929Y186457D01*
X281575Y181968D02*
Y183110D01*
X281417Y183268D02*
X281575Y183110D01*
X281811Y181772D02*
Y183110D01*
X281968Y183268D01*
X281614Y183976D02*
X281732Y184094D01*
X281496Y183661D02*
X281614Y183780D01*
Y183976D01*
X281772Y183780D02*
X281890Y183661D01*
X281772Y183780D02*
Y183898D01*
X281811Y183937D01*
X282480D01*
X276614Y197352D02*
X277215D01*
X277283Y197283D01*
Y195787D02*
Y197283D01*
X277441Y195945D02*
Y199085D01*
X277362Y199163D02*
X277441Y199085D01*
X276614Y199163D02*
X277362D01*
X277283Y195787D02*
X277362Y195709D01*
X277874D01*
X277953Y195630D01*
Y189843D02*
Y195630D01*
X277441Y195945D02*
X277520Y195866D01*
X278032D01*
X278110Y195787D01*
Y190236D02*
Y195787D01*
X264961Y193504D02*
Y194291D01*
D73*
X282677Y195669D02*
X282678Y195669D01*
Y195079D02*
Y195669D01*
X281043Y193898D02*
X281457D01*
X290236Y191693D02*
X291811D01*
X279094Y182500D02*
Y182736D01*
X278589Y182402D02*
X278780D01*
X278504Y182317D02*
X278589Y182402D01*
X278504Y181968D02*
Y182317D01*
X278937Y182894D02*
X279094Y182736D01*
X278780Y182402D02*
Y182736D01*
X278937Y182894D01*
X278780Y182402D02*
X279094D01*
X278789Y191260D02*
X279039Y191010D01*
Y190427D02*
Y191010D01*
X283622Y184921D02*
Y185276D01*
X283563Y185335D02*
X283622Y185276D01*
X283563Y185335D02*
Y185709D01*
X283386Y186220D02*
X283563Y186043D01*
Y185709D02*
Y186043D01*
X273957Y199213D02*
X274587D01*
X273937Y199193D02*
X273957Y199213D01*
X275276Y198445D02*
Y198780D01*
X275256Y198425D02*
X275276Y198445D01*
X273957Y198425D02*
X274587D01*
X273937Y198445D02*
X273957Y198425D01*
X276516Y199262D02*
X276614Y199163D01*
X275906Y199262D02*
X276516D01*
X275305D02*
X275906D01*
X275256Y199213D02*
X275305Y199262D01*
X273957Y197402D02*
X274587D01*
X273937Y197382D02*
X273957Y197402D01*
X275276Y196634D02*
Y196968D01*
X275256Y196614D02*
X275276Y196634D01*
X273957Y196614D02*
X274587D01*
X273937Y196634D02*
X273957Y196614D01*
X276516Y197451D02*
X276614Y197352D01*
X275906Y197451D02*
X276516D01*
X275305D02*
X275906D01*
X275256Y197402D02*
X275305Y197451D01*
X273957Y191968D02*
X274587D01*
X273937Y191949D02*
X273957Y191968D01*
X275276Y191201D02*
Y191535D01*
X275256Y191181D02*
X275276Y191201D01*
X273957Y191181D02*
X274587D01*
X273937Y191201D02*
X273957Y191181D01*
X276516Y192018D02*
X276614Y191919D01*
X275906Y192018D02*
X276516D01*
X275305D02*
X275906D01*
X275256Y191968D02*
X275305Y192018D01*
X273957Y195591D02*
X274587D01*
X273937Y195571D02*
X273957Y195591D01*
X275276Y194823D02*
Y195157D01*
X275256Y194803D02*
X275276Y194823D01*
X273957Y194803D02*
X274587D01*
X273937Y194823D02*
X273957Y194803D01*
X276516Y195640D02*
X276614Y195541D01*
X275906Y195640D02*
X276516D01*
X275305D02*
X275906D01*
X275256Y195591D02*
X275305Y195640D01*
X273957Y193780D02*
X274587D01*
X273937Y193760D02*
X273957Y193780D01*
X275276Y193012D02*
Y193346D01*
X275256Y192992D02*
X275276Y193012D01*
X273957Y192992D02*
X274587D01*
X273937Y193012D02*
X273957Y192992D01*
X276516Y193829D02*
X276614Y193730D01*
X275906Y193829D02*
X276516D01*
X275305D02*
X275906D01*
X275256Y193780D02*
X275305Y193829D01*
X273957Y190157D02*
X274587D01*
X273937Y190138D02*
X273957Y190157D01*
X275276Y189390D02*
Y189724D01*
X275256Y189370D02*
X275276Y189390D01*
X273957Y189370D02*
X274587D01*
X273937Y189390D02*
X273957Y189370D01*
X276516Y190207D02*
X276614Y190108D01*
X275906Y190207D02*
X276516D01*
X275305D02*
X275906D01*
X275256Y190157D02*
X275305Y190207D01*
X273957Y188346D02*
X274587D01*
X273937Y188327D02*
X273957Y188346D01*
X275276Y187579D02*
Y187913D01*
X275256Y187559D02*
X275276Y187579D01*
X273957Y187559D02*
X274587D01*
X273937Y187579D02*
X273957Y187559D01*
X276516Y188396D02*
X276614Y188297D01*
X275906Y188396D02*
X276516D01*
X275305D02*
X275906D01*
X275256Y188346D02*
X275305Y188396D01*
X273957Y186535D02*
X274587D01*
X273937Y186516D02*
X273957Y186535D01*
X275276Y185768D02*
Y186102D01*
X275256Y185748D02*
X275276Y185768D01*
X273957Y185748D02*
X274587D01*
X273937Y185768D02*
X273957Y185748D01*
X276516Y186585D02*
X276614Y186486D01*
X275906Y186585D02*
X276516D01*
X275305D02*
X275906D01*
X275256Y186535D02*
X275305Y186585D01*
X273957Y184724D02*
X274587D01*
X273937Y184705D02*
X273957Y184724D01*
X275276Y183957D02*
Y184291D01*
X275256Y183937D02*
X275276Y183957D01*
X273957Y183937D02*
X274587D01*
X273937Y183957D02*
X273957Y183937D01*
X276516Y184774D02*
X276614Y184675D01*
X275906Y184774D02*
X276516D01*
X275305D02*
X275906D01*
X275256Y184724D02*
X275305Y184774D01*
X273957Y182913D02*
X274587D01*
X273937Y182894D02*
X273957Y182913D01*
X275276Y182146D02*
Y182480D01*
X275256Y182126D02*
X275276Y182146D01*
X273957Y182126D02*
X274587D01*
X273937Y182146D02*
X273957Y182126D01*
X276516Y182963D02*
X276614Y182864D01*
X275906Y182963D02*
X276516D01*
X275305D02*
X275906D01*
X275256Y182913D02*
X275305Y182963D01*
X273957Y181102D02*
X274587D01*
X273937Y181083D02*
X273957Y181102D01*
X275276Y180335D02*
Y180669D01*
X275256Y180315D02*
X275276Y180335D01*
X273957Y180315D02*
X274587D01*
X273937Y180335D02*
X273957Y180315D01*
X276516Y181152D02*
X276614Y181053D01*
X275906Y181152D02*
X276516D01*
X275305D02*
X275906D01*
X275256Y181102D02*
X275305Y181152D01*
X275256Y178504D02*
X275276Y178524D01*
Y178858D01*
X276516Y179341D02*
X276614Y179242D01*
X275906Y179341D02*
X276516D01*
X275256Y179291D02*
X275305Y179341D01*
X275906D01*
X273937Y178524D02*
X273957Y178504D01*
X274587D01*
X273937Y179272D02*
X273957Y179291D01*
X274587D01*
X304567Y187362D02*
X306102D01*
X303002D02*
X304173D01*
X302612Y186565D02*
Y187258D01*
X302717Y187362D01*
X303002D01*
X284547Y179311D02*
Y179902D01*
X290472Y186890D02*
X290906D01*
X290315D02*
X290472D01*
X290197Y187008D02*
X290315Y186890D01*
X289803Y187008D02*
X290197D01*
X290906Y186614D02*
Y186890D01*
X292264Y185945D02*
X292697Y186378D01*
X292756D01*
X291594Y185945D02*
Y186447D01*
X291693Y186545D01*
X291260Y185945D02*
X291594D01*
X290955Y185640D02*
X291260Y185945D01*
X290354Y185640D02*
X290955D01*
X287341Y188913D02*
X287620Y189192D01*
X287898Y189470D01*
X275906Y179341D02*
Y180266D01*
Y177854D02*
Y178455D01*
Y181152D02*
Y182077D01*
Y182963D02*
Y183888D01*
Y184774D02*
Y185699D01*
Y186585D02*
Y187510D01*
Y188396D02*
Y189321D01*
Y190207D02*
Y191132D01*
Y192018D02*
Y192943D01*
Y193829D02*
Y194754D01*
Y195640D02*
Y196565D01*
Y197451D02*
Y198376D01*
X279882Y183110D02*
Y183228D01*
Y183642D01*
X280374Y180610D02*
Y181220D01*
Y180610D02*
X280472Y180512D01*
X280768D01*
X287441Y186260D02*
X287717D01*
X287433Y186252D02*
X287441Y186260D01*
X289724Y188514D02*
Y188858D01*
X287433Y180638D02*
Y181535D01*
Y180638D02*
X287441Y180630D01*
X286732Y180276D02*
Y180472D01*
X286909Y180650D01*
X286339Y180276D02*
Y180472D01*
X286161Y180650D02*
X286339Y180472D01*
X285433Y181378D02*
Y181535D01*
Y181378D02*
X286161Y180650D01*
X286433Y181126D02*
Y181535D01*
Y181126D02*
X286909Y180650D01*
X290128Y184321D02*
Y184843D01*
Y184321D02*
X290256Y184193D01*
X290906D01*
X290645Y185123D02*
X290906Y184862D01*
X290384Y184843D02*
Y185069D01*
X290438Y185123D01*
X290645D01*
X290128Y184843D02*
Y185413D01*
X290354Y185640D01*
X287441Y180630D02*
X287717D01*
X284055Y178504D02*
Y179311D01*
Y178504D02*
X284173Y178386D01*
X285866D01*
X286024Y178543D01*
Y178740D01*
X284488Y179961D02*
Y179961D01*
Y179961D02*
X284547Y179902D01*
X284449Y178740D02*
Y179173D01*
X278937Y184823D02*
X279075Y184685D01*
X278406D02*
X278543Y184823D01*
X287620Y189192D02*
X287795Y189016D01*
Y188898D02*
Y189016D01*
X278543Y184823D02*
Y185118D01*
X278937Y184823D02*
Y185118D01*
X292047Y190876D02*
Y191457D01*
X291811Y191693D02*
X292047Y191457D01*
X285039Y178740D02*
Y179154D01*
Y179311D01*
X285394Y178740D02*
X285532Y178878D01*
Y179311D01*
X256936Y190551D02*
X256974Y190476D01*
X257086Y190364D01*
X256299D01*
D74*
X290079Y199213D02*
X290532D01*
X279468Y192402D02*
X281270D01*
X280197Y192549D02*
X280315Y192431D01*
X280197Y192549D02*
Y193150D01*
X278789Y191417D02*
Y192392D01*
X299606Y194094D02*
X300669D01*
X299409Y193898D02*
X299606Y194094D01*
X299409Y192884D02*
Y193898D01*
X298425Y192874D02*
X299400D01*
X299409Y192884D01*
X298425Y192874D02*
Y193415D01*
X297913Y184620D02*
Y185827D01*
X297909Y184616D02*
X297913Y184620D01*
X280197Y193150D02*
Y193720D01*
X280374Y193898D01*
X297884Y183071D02*
X297909Y183096D01*
Y184616D01*
X297047Y184636D02*
X297890D01*
X297909Y184616D01*
X292274Y183150D02*
X292874D01*
X293185Y183461D02*
Y184616D01*
X292874Y183150D02*
X293185Y183461D01*
Y184616D02*
Y185827D01*
X302612Y184065D02*
Y184553D01*
X302559Y184606D02*
X302612Y184553D01*
X276594Y177835D02*
X277047D01*
X277362D01*
X279409Y178976D02*
Y179252D01*
X279331Y179331D02*
X279409Y179252D01*
X278819Y179331D02*
X279134D01*
X279331D01*
X276614Y178553D02*
X276782Y178386D01*
X276614Y178553D02*
X276762Y178701D01*
X276782Y178386D02*
X277047D01*
X276762Y178701D02*
X277047D01*
X276447Y180197D02*
X276614Y180364D01*
X276762Y180217D01*
X276447Y179931D02*
Y180197D01*
X276762Y179931D02*
Y180217D01*
X276447Y182008D02*
X276614Y182175D01*
X276762Y182028D01*
X276447Y181742D02*
Y182008D01*
X276762Y181742D02*
Y182028D01*
X276447Y183819D02*
X276614Y183986D01*
X276762Y183839D01*
X276447Y183553D02*
Y183819D01*
X276762Y183553D02*
Y183839D01*
X276447Y185630D02*
X276614Y185797D01*
X276762Y185650D01*
X276447Y185364D02*
Y185630D01*
X276762Y185364D02*
Y185650D01*
X276447Y187441D02*
X276614Y187608D01*
X276447Y187175D02*
Y187441D01*
Y189252D02*
X276614Y189419D01*
X276762Y189272D01*
X276447Y188986D02*
Y189252D01*
X276762Y188986D02*
Y189272D01*
X276447Y191063D02*
X276614Y191230D01*
X276762Y191083D01*
X276447Y190797D02*
Y191063D01*
X276762Y190797D02*
Y191083D01*
X276447Y192874D02*
X276614Y193041D01*
X276762Y192894D01*
X276447Y192608D02*
Y192874D01*
X276762Y192608D02*
Y192894D01*
X276447Y196496D02*
X276614Y196663D01*
X276447Y196230D02*
Y196496D01*
X276614Y187608D02*
X276772Y187451D01*
Y187244D02*
Y187451D01*
X287433Y185079D02*
Y186252D01*
X276762Y195000D02*
X277047D01*
X276782Y194685D02*
X277047D01*
X276614Y194852D02*
X276762Y195000D01*
X276614Y194852D02*
X276782Y194685D01*
X276614Y196663D02*
X276762Y196516D01*
Y196230D02*
Y196516D01*
X276447Y198307D02*
X276614Y198474D01*
X276762Y198327D01*
X276447Y198041D02*
Y198307D01*
X276762Y198041D02*
Y198327D01*
X278366Y197047D02*
X278425Y197106D01*
X278032Y196890D02*
Y197047D01*
Y197205D01*
X278425Y197106D02*
X278976D01*
X278032Y197047D02*
X278366D01*
X278366Y197835D02*
X278425Y197776D01*
X278032Y197677D02*
Y197835D01*
Y197992D01*
X278425Y197776D02*
X278976D01*
X278976Y197776D01*
X278032Y197835D02*
X278366D01*
D75*
X281496Y198228D02*
Y198622D01*
X281457Y193898D02*
X281732D01*
X292283Y199803D02*
X292559D01*
X304173D02*
X305000Y198976D01*
X295906Y199803D02*
X304173D01*
X295776Y198350D02*
X295906Y198480D01*
X283268Y199331D02*
Y199646D01*
X285236Y196457D02*
Y196772D01*
X284252Y199331D02*
Y199646D01*
Y198819D02*
Y199331D01*
Y198819D02*
X284252Y198819D01*
X285236Y196024D02*
Y196457D01*
X292559Y199803D02*
X292963D01*
X293652D02*
X294094D01*
X294646D01*
X294094Y199646D02*
Y199803D01*
Y199961D01*
X288189Y198967D02*
Y199577D01*
X289134Y198967D02*
Y199577D01*
X287244Y198967D02*
Y199577D01*
X286654Y198937D02*
X287215D01*
X287244Y198967D01*
X286654Y198307D02*
Y198622D01*
Y198937D01*
X288189Y197549D02*
Y198278D01*
X287244Y197756D02*
Y198278D01*
Y197756D02*
X287451Y197549D01*
X288189D01*
X289134Y197756D02*
Y198278D01*
X288927Y197549D02*
X289134Y197756D01*
X288189Y197549D02*
X288927D01*
X263461Y193110D02*
X263858D01*
X286614Y183740D02*
X286890D01*
X287433Y185079D02*
X287472Y185039D01*
X287874D01*
X288150D01*
X287717Y186260D02*
X287913Y186457D01*
X278839Y198307D02*
X278976Y198445D01*
X278032Y198307D02*
X278346D01*
X278839D01*
Y196575D02*
X278976Y196437D01*
X278032Y196575D02*
X278346D01*
X278839D01*
D76*
X299518Y192283D02*
X300669D01*
X299409Y192175D02*
X299518Y192283D01*
X303248Y193307D02*
X305472D01*
X303130Y193189D02*
X303248Y193307D01*
X307677D02*
X308701D01*
X264291Y184843D02*
X264291Y184843D01*
X264291Y186024D02*
X264291Y186024D01*
X264291Y187205D02*
X264291Y187205D01*
X264291Y189567D02*
X264291Y189567D01*
X289882Y195354D02*
Y195630D01*
Y194921D02*
Y195354D01*
X268366Y181496D02*
X268386Y181516D01*
Y181929D01*
X268366Y195984D02*
X268386Y196004D01*
Y196417D01*
X268366Y192362D02*
X268386Y192382D01*
Y192795D01*
X268366Y188740D02*
X268386Y188760D01*
Y189173D01*
X268366Y185118D02*
X268386Y185138D01*
Y185551D01*
X268327Y178425D02*
X268346Y178445D01*
X267913Y178425D02*
X268327D01*
X269035Y197795D02*
Y198297D01*
X269094Y198356D01*
X269035Y195984D02*
Y196486D01*
Y194173D02*
Y194675D01*
Y192362D02*
Y192864D01*
Y190551D02*
Y191053D01*
Y188740D02*
Y189242D01*
Y186929D02*
Y187431D01*
Y185118D02*
Y185620D01*
X273681Y199449D02*
X273937Y199193D01*
X268986Y199055D02*
X269035Y199104D01*
X268622Y199055D02*
X268986D01*
X272421Y198819D02*
X273150D01*
X269941Y198356D02*
Y198819D01*
X269094Y198356D02*
X269941D01*
X269035Y199104D02*
Y199606D01*
Y196486D02*
X269094Y196545D01*
X273681Y197638D02*
X273937Y197382D01*
X268986Y197244D02*
X269035Y197293D01*
X268622Y197244D02*
X268986D01*
X272421Y197008D02*
X273150D01*
X269941Y196545D02*
Y197008D01*
X269094Y196545D02*
X269941D01*
X269035Y197293D02*
Y197795D01*
Y191053D02*
X269094Y191112D01*
X273681Y192205D02*
X273937Y191949D01*
X268986Y191811D02*
X269035Y191860D01*
X268622Y191811D02*
X268986D01*
X272421Y191575D02*
X273150D01*
X269941Y191112D02*
Y191575D01*
X269094Y191112D02*
X269941D01*
X269035Y191860D02*
Y192362D01*
Y194675D02*
X269094Y194734D01*
X273681Y195827D02*
X273937Y195571D01*
X268986Y195433D02*
X269035Y195482D01*
X268622Y195433D02*
X268986D01*
X272421Y195197D02*
X273150D01*
X269941Y194734D02*
Y195197D01*
X269094Y194734D02*
X269941D01*
X269035Y195482D02*
Y195984D01*
Y192864D02*
X269094Y192923D01*
X273681Y194016D02*
X273937Y193760D01*
X268986Y193622D02*
X269035Y193671D01*
X268622Y193622D02*
X268986D01*
X272421Y193386D02*
X273150D01*
X269941Y192923D02*
Y193386D01*
X269094Y192923D02*
X269941D01*
X269035Y193671D02*
Y194173D01*
Y189242D02*
X269094Y189301D01*
X273681Y190394D02*
X273937Y190138D01*
X268986Y190000D02*
X269035Y190049D01*
X268622Y190000D02*
X268986D01*
X272421Y189764D02*
X273150D01*
X269941Y189301D02*
Y189764D01*
X269094Y189301D02*
X269941D01*
X269035Y190049D02*
Y190551D01*
Y187431D02*
X269094Y187490D01*
X273681Y188583D02*
X273937Y188327D01*
X268986Y188189D02*
X269035Y188238D01*
X268622Y188189D02*
X268986D01*
X272421Y187953D02*
X273150D01*
X269941Y187490D02*
Y187953D01*
X269094Y187490D02*
X269941D01*
X269035Y188238D02*
Y188740D01*
Y185620D02*
X269094Y185679D01*
X273681Y186772D02*
X273937Y186516D01*
X268986Y186378D02*
X269035Y186427D01*
X268622Y186378D02*
X268986D01*
X272421Y186142D02*
X273150D01*
X269941Y185679D02*
Y186142D01*
X269094Y185679D02*
X269941D01*
X269035Y186427D02*
Y186929D01*
Y183809D02*
X269094Y183868D01*
X269035Y183307D02*
Y183809D01*
Y181998D02*
X269094Y182057D01*
X269035Y181496D02*
Y181998D01*
X273681Y184961D02*
X273937Y184705D01*
X268986Y184567D02*
X269035Y184616D01*
X268622Y184567D02*
X268986D01*
X272421Y184331D02*
X273150D01*
X269941Y183868D02*
Y184331D01*
X269094Y183868D02*
X269941D01*
X269035Y184616D02*
Y185118D01*
X273681Y183150D02*
X273937Y182894D01*
X268986Y182756D02*
X269035Y182805D01*
X268622Y182756D02*
X268986D01*
X272421Y182520D02*
X273150D01*
X269941Y182057D02*
Y182520D01*
X269094Y182057D02*
X269941D01*
X269035Y182805D02*
Y183307D01*
Y180246D02*
Y180246D01*
Y179685D02*
Y180246D01*
X269094D01*
X273681Y181339D02*
X273937Y181083D01*
X268986Y180945D02*
X269035Y180994D01*
X268622Y180945D02*
X268986D01*
X272421Y180709D02*
X273150D01*
X269941Y180246D02*
Y180709D01*
X269094Y180246D02*
X269941D01*
X269035Y180994D02*
Y181496D01*
X273681Y179528D02*
X273937Y179272D01*
X272421Y178898D02*
X273150D01*
X268986Y179134D02*
X269035Y179183D01*
X268622Y179134D02*
X268986D01*
X268346Y178435D02*
Y178445D01*
Y178435D02*
X269094D01*
X269941D02*
Y178898D01*
X269094Y178435D02*
X269941D01*
X269035Y179183D02*
Y179685D01*
X292264Y181811D02*
X293567D01*
X293776Y181602D01*
X302415Y191461D02*
X303907D01*
X302244Y191289D02*
X302415Y191461D01*
X302215Y191260D02*
X302244Y191289D01*
X301486Y191260D02*
X302215D01*
X301063D02*
X301486D01*
X307283Y193307D02*
X307677D01*
X289882Y194921D02*
X290000Y194803D01*
X290591D01*
X289045Y196073D02*
X289498D01*
X288730Y195758D02*
X289045Y196073D01*
X288189Y195758D02*
X288730D01*
X263425Y194744D02*
X264291D01*
X263461Y184843D02*
X263858D01*
X263425Y183209D02*
X264291D01*
X268366Y199606D02*
X268366Y199606D01*
X267913Y199606D02*
X268366D01*
X305315Y191142D02*
Y191732D01*
D77*
X266535Y191024D02*
Y194685D01*
X266260Y190748D02*
X266535Y191024D01*
X265280Y190748D02*
X266260D01*
X267717Y179843D02*
Y182165D01*
X267126Y182756D02*
X267717Y182165D01*
X267126Y182756D02*
Y184646D01*
X266929Y184843D02*
X267126Y184646D01*
Y194016D02*
X267283Y194173D01*
X267126Y189803D02*
Y194016D01*
X267283Y194173D02*
X268366D01*
X266890Y189567D02*
X267126Y189803D01*
X265673Y189567D02*
X266890D01*
X267717Y183465D02*
Y185827D01*
Y183465D02*
X267874Y183307D01*
X267520Y186024D02*
X267717Y185827D01*
X265673Y189567D02*
X265673Y189567D01*
X267717Y179843D02*
X267874Y179685D01*
X268366D01*
X265673Y186024D02*
X265673Y186024D01*
X267520D01*
X267874Y183307D02*
X268366D01*
X268366Y186929D02*
X268366Y186929D01*
X267717Y186929D02*
X268366D01*
X267441Y187205D02*
X267717Y186929D01*
X265673Y187205D02*
X267441D01*
X265673Y188386D02*
X265673Y188386D01*
X267520D01*
X267717Y188583D01*
Y190354D01*
X267913Y190551D01*
X268366D01*
X267795Y197795D02*
X268366D01*
X266535Y194685D02*
X267598Y195748D01*
Y197598D01*
X267795Y197795D01*
X266142Y184843D02*
X266929D01*
D78*
X263461Y186024D02*
X264291D01*
X263461Y187205D02*
X264291D01*
X263465Y188386D02*
X264291D01*
X263461Y189567D02*
X264291D01*
X263461Y190748D02*
X264291D01*
X263854Y191929D02*
X264291D01*
X297118Y197693D02*
X298622D01*
X296776Y197350D02*
X297118Y197693D01*
X263858Y193110D02*
Y194075D01*
Y183878D02*
Y184843D01*
X264291D01*
X264961Y193110D02*
X265280D01*
X264961D02*
Y193504D01*
X265280Y191929D02*
Y192398D01*
Y184843D02*
X266142D01*
X265280Y186024D02*
X266142D01*
X265280Y187205D02*
X266142D01*
X265280Y188386D02*
X266142D01*
X265280Y189567D02*
X266142D01*
X265280Y190748D02*
X266142D01*
D79*
X282939Y184671D02*
X283189Y184921D01*
X282939Y184203D02*
Y184671D01*
D80*
X291339Y178268D02*
D03*
Y180236D02*
D03*
X305587Y196350D02*
D03*
Y197350D02*
D03*
Y198350D02*
D03*
X306587D02*
D03*
X307587D02*
D03*
X308587D02*
D03*
Y197350D02*
D03*
Y196350D02*
D03*
Y195350D02*
D03*
X305587D02*
D03*
X306587D02*
D03*
X307587D02*
D03*
X258343Y180602D02*
D03*
Y181602D02*
D03*
Y182602D02*
D03*
X259343D02*
D03*
X260343D02*
D03*
X261343D02*
D03*
Y181602D02*
D03*
Y180602D02*
D03*
Y179602D02*
D03*
X258343D02*
D03*
X259343D02*
D03*
X260343D02*
D03*
X258343Y196350D02*
D03*
Y197350D02*
D03*
Y198350D02*
D03*
X259343D02*
D03*
X260343D02*
D03*
X261343D02*
D03*
Y197350D02*
D03*
Y196350D02*
D03*
Y195350D02*
D03*
X258343D02*
D03*
X259343D02*
D03*
X260343D02*
D03*
X293776Y180602D02*
D03*
Y181602D02*
D03*
Y182602D02*
D03*
X294776D02*
D03*
X295776D02*
D03*
X296776D02*
D03*
Y181602D02*
D03*
Y180602D02*
D03*
Y179602D02*
D03*
X293776D02*
D03*
X294776D02*
D03*
X295776D02*
D03*
X293776Y196350D02*
D03*
Y197350D02*
D03*
Y198350D02*
D03*
X294776D02*
D03*
X295776D02*
D03*
X296776D02*
D03*
Y197350D02*
D03*
Y196350D02*
D03*
Y195350D02*
D03*
X293776D02*
D03*
X294776D02*
D03*
X295776D02*
D03*
X305587Y180602D02*
D03*
Y181602D02*
D03*
Y182602D02*
D03*
X306587D02*
D03*
X307587D02*
D03*
X308587D02*
D03*
Y181602D02*
D03*
Y180602D02*
D03*
Y179602D02*
D03*
X305587D02*
D03*
X306587D02*
D03*
X307587D02*
D03*
D81*
X261303Y183992D02*
D03*
Y193961D02*
D03*
D82*
X278514Y177933D02*
D03*
X281329D02*
D03*
D83*
X290157Y196654D02*
D03*
X289862Y196850D02*
D03*
Y196457D02*
D03*
X290453D02*
D03*
Y196850D02*
D03*
D84*
X265748Y181102D02*
D03*
Y196850D02*
D03*
X301181D02*
D03*
Y181102D02*
D03*
D85*
X310039Y199803D02*
D03*
Y178150D02*
D03*
X256890D02*
D03*
Y199803D02*
D03*
Y191535D02*
D03*
Y186417D02*
D03*
X310433Y193898D02*
D03*
Y182677D02*
D03*
D86*
X282283Y192795D02*
D03*
X281929Y194882D02*
D03*
X282677Y195669D02*
D03*
X286968Y193110D02*
D03*
X290079Y199213D02*
D03*
X279921Y197283D02*
D03*
X281063Y199016D02*
D03*
Y197047D02*
D03*
X282244Y198228D02*
D03*
X279803Y194291D02*
D03*
X278898Y195472D02*
D03*
X280906Y195866D02*
D03*
X281890Y194252D02*
D03*
X280906Y194882D02*
D03*
X282992Y193898D02*
D03*
X282559Y194331D02*
D03*
X279921Y195472D02*
D03*
X279528D02*
D03*
X279921Y196575D02*
D03*
X278032Y197992D02*
D03*
Y197677D02*
D03*
X279921Y196890D02*
D03*
X286024Y191535D02*
D03*
X284803Y192087D02*
D03*
X285236Y186339D02*
D03*
X284921D02*
D03*
X284606D02*
D03*
X284291D02*
D03*
X278898Y195118D02*
D03*
X281496Y198228D02*
D03*
Y198622D02*
D03*
X278150Y183701D02*
D03*
X288032Y190945D02*
D03*
X279331Y191890D02*
D03*
X281732Y193898D02*
D03*
X281457D02*
D03*
X286417Y183346D02*
D03*
X285512Y183937D02*
D03*
X285039D02*
D03*
X284567D02*
D03*
X286339Y188307D02*
D03*
X285197Y194921D02*
D03*
X292283Y199803D02*
D03*
X291535Y193504D02*
D03*
X288110Y190000D02*
D03*
X289685Y192717D02*
D03*
X288268Y193425D02*
D03*
X292520Y193543D02*
D03*
Y193110D02*
D03*
X288858Y188858D02*
D03*
X284921Y184606D02*
D03*
X283898D02*
D03*
X290236Y191260D02*
D03*
Y191693D02*
D03*
X284094Y191417D02*
D03*
X292126Y194055D02*
D03*
X287402Y194606D02*
D03*
X286811Y195197D02*
D03*
X279409Y183858D02*
D03*
X264370Y194291D02*
D03*
X264961D02*
D03*
X285276Y195551D02*
D03*
X285551Y196772D02*
D03*
X285236Y197283D02*
D03*
X286614Y191142D02*
D03*
X284488Y197717D02*
D03*
X279370Y190827D02*
D03*
X279764Y189921D02*
D03*
Y189134D02*
D03*
Y188346D02*
D03*
Y187559D02*
D03*
Y186772D02*
D03*
X279528Y186378D02*
D03*
Y187165D02*
D03*
Y187953D02*
D03*
Y188740D02*
D03*
Y189528D02*
D03*
X286339Y193740D02*
D03*
X284291Y196772D02*
D03*
X284606D02*
D03*
X284921D02*
D03*
X287953Y191614D02*
D03*
X279291Y189921D02*
D03*
Y189134D02*
D03*
Y188346D02*
D03*
Y187559D02*
D03*
Y186772D02*
D03*
X286299Y198307D02*
D03*
Y197953D02*
D03*
X279370Y183228D02*
D03*
X279094Y182402D02*
D03*
X278780D02*
D03*
X278937Y181299D02*
D03*
X283032Y189134D02*
D03*
X283780Y191181D02*
D03*
X286614Y190512D02*
D03*
X286850Y190748D02*
D03*
X283465Y191181D02*
D03*
X288583Y186890D02*
D03*
Y187205D02*
D03*
X287165Y189646D02*
D03*
X287441Y189921D02*
D03*
X288346Y190236D02*
D03*
X283622Y184921D02*
D03*
X280945Y187126D02*
D03*
Y187441D02*
D03*
X284173Y191024D02*
D03*
X284409Y190787D02*
D03*
X284646Y190551D02*
D03*
X283386Y189685D02*
D03*
X282008Y190748D02*
D03*
Y189961D02*
D03*
Y189567D02*
D03*
Y190354D02*
D03*
X282953Y187520D02*
D03*
Y190354D02*
D03*
X291417Y190433D02*
D03*
X291811D02*
D03*
X291535Y188898D02*
D03*
X291850D02*
D03*
X292520Y192323D02*
D03*
Y192717D02*
D03*
X291220Y187283D02*
D03*
X288268Y191614D02*
D03*
X287795Y192087D02*
D03*
X288740Y192205D02*
D03*
X287559Y192598D02*
D03*
X287244Y192835D02*
D03*
X286693Y193386D02*
D03*
X290945Y197244D02*
D03*
X289606Y199843D02*
D03*
Y199528D02*
D03*
Y198307D02*
D03*
X287441Y196654D02*
D03*
X288189D02*
D03*
X288976D02*
D03*
X289488Y197480D02*
D03*
X290394Y197638D02*
D03*
X290079D02*
D03*
X291220Y194567D02*
D03*
Y195079D02*
D03*
X291929Y196654D02*
D03*
X289528Y193976D02*
D03*
X289764Y197638D02*
D03*
X285236Y196772D02*
D03*
X283307D02*
D03*
Y196457D02*
D03*
X282913Y197756D02*
D03*
Y198150D02*
D03*
X285236Y199646D02*
D03*
Y199331D02*
D03*
X283268Y199646D02*
D03*
Y199331D02*
D03*
X284252Y199646D02*
D03*
Y199331D02*
D03*
X285236Y196457D02*
D03*
X275276Y198780D02*
D03*
Y196968D02*
D03*
Y191535D02*
D03*
Y195157D02*
D03*
Y193346D02*
D03*
Y189724D02*
D03*
Y187913D02*
D03*
Y186102D02*
D03*
Y184291D02*
D03*
Y182480D02*
D03*
Y180669D02*
D03*
Y178858D02*
D03*
X292638Y182283D02*
D03*
Y182598D02*
D03*
X291142Y183150D02*
D03*
X290787Y182756D02*
D03*
X283937Y180276D02*
D03*
X286732Y179331D02*
D03*
X287441Y179961D02*
D03*
X284449Y182283D02*
D03*
X284843Y181535D02*
D03*
X284016D02*
D03*
X283425Y181220D02*
D03*
X282874Y178937D02*
D03*
X283661Y178740D02*
D03*
Y177756D02*
D03*
X286417D02*
D03*
X287205Y178937D02*
D03*
X289409Y183150D02*
D03*
X289094D02*
D03*
X291142Y182441D02*
D03*
X288307Y182795D02*
D03*
X289528Y181535D02*
D03*
X288937Y179449D02*
D03*
X292244Y185315D02*
D03*
X291535D02*
D03*
X290787Y190354D02*
D03*
Y188898D02*
D03*
X289252Y187598D02*
D03*
Y187913D02*
D03*
Y186968D02*
D03*
X290906Y186614D02*
D03*
X291220Y186890D02*
D03*
X290906Y185945D02*
D03*
Y185394D02*
D03*
X291890Y185472D02*
D03*
X277047Y177835D02*
D03*
X277362D02*
D03*
X290433Y195354D02*
D03*
X290236Y195551D02*
D03*
X289882Y195630D02*
D03*
Y195354D02*
D03*
X292323Y196260D02*
D03*
Y195827D02*
D03*
Y195394D02*
D03*
Y195079D02*
D03*
Y194803D02*
D03*
Y194528D02*
D03*
X289094Y194803D02*
D03*
Y195079D02*
D03*
Y194488D02*
D03*
X294094Y199961D02*
D03*
Y199646D02*
D03*
X292559Y199803D02*
D03*
X287717Y199528D02*
D03*
X288661D02*
D03*
Y199843D02*
D03*
X287717D02*
D03*
Y198622D02*
D03*
X288661D02*
D03*
X286654Y198307D02*
D03*
Y198622D02*
D03*
Y198937D02*
D03*
Y197953D02*
D03*
X280118Y183228D02*
D03*
X280433D02*
D03*
X280984D02*
D03*
X279921Y182362D02*
D03*
X280630D02*
D03*
Y181654D02*
D03*
X279921D02*
D03*
X279685Y183228D02*
D03*
X281890Y180512D02*
D03*
X281496Y180906D02*
D03*
Y180118D02*
D03*
X279961D02*
D03*
X279646D02*
D03*
X279409Y180591D02*
D03*
X280276Y180276D02*
D03*
X280787Y179803D02*
D03*
X280512Y179409D02*
D03*
X280433Y178504D02*
D03*
X279409D02*
D03*
X281299Y182835D02*
D03*
X282953Y191575D02*
D03*
X282008D02*
D03*
X282953Y186772D02*
D03*
Y187165D02*
D03*
X287717Y186260D02*
D03*
X286890Y184528D02*
D03*
X289724Y188858D02*
D03*
X279134Y179331D02*
D03*
X278346Y178937D02*
D03*
Y178543D02*
D03*
X280984Y183858D02*
D03*
X286339Y180276D02*
D03*
X286732D02*
D03*
X291220Y186457D02*
D03*
X277047Y178386D02*
D03*
Y178701D02*
D03*
X276447Y179931D02*
D03*
X276762D02*
D03*
X276447Y181742D02*
D03*
X276762D02*
D03*
X276447Y183553D02*
D03*
X276762D02*
D03*
X276447Y185364D02*
D03*
X276762D02*
D03*
X276447Y187175D02*
D03*
Y188986D02*
D03*
X276762D02*
D03*
X276447Y190797D02*
D03*
X276762D02*
D03*
X276447Y192608D02*
D03*
X276762D02*
D03*
X285433Y189016D02*
D03*
X283701Y189882D02*
D03*
X283740Y188976D02*
D03*
X283661Y189370D02*
D03*
X285433Y189882D02*
D03*
X288543Y186339D02*
D03*
X289331D02*
D03*
X284921Y190315D02*
D03*
X289724Y186339D02*
D03*
X284016Y189882D02*
D03*
X288937Y186339D02*
D03*
X285197Y190118D02*
D03*
X284016Y185630D02*
D03*
X288228Y186339D02*
D03*
X276772Y187244D02*
D03*
X270669Y178307D02*
D03*
X271693D02*
D03*
Y179094D02*
D03*
X270669D02*
D03*
X271181Y178307D02*
D03*
X270669Y178701D02*
D03*
X271181D02*
D03*
X271693D02*
D03*
X271181Y179094D02*
D03*
Y180906D02*
D03*
X271693Y180512D02*
D03*
X271181D02*
D03*
X270669D02*
D03*
X271181Y180118D02*
D03*
X270669Y180906D02*
D03*
X271693D02*
D03*
Y180118D02*
D03*
X270669D02*
D03*
X271181Y182717D02*
D03*
X271693Y182323D02*
D03*
X271181D02*
D03*
X270669D02*
D03*
X271181Y181929D02*
D03*
X270669Y182717D02*
D03*
X271693D02*
D03*
Y181929D02*
D03*
X270669D02*
D03*
X271181Y184528D02*
D03*
X271693Y184134D02*
D03*
X271181D02*
D03*
X270669D02*
D03*
X271181Y183740D02*
D03*
X270669Y184528D02*
D03*
X271693D02*
D03*
Y183740D02*
D03*
X270669D02*
D03*
X271181Y186339D02*
D03*
X271693Y185945D02*
D03*
X271181D02*
D03*
X270669D02*
D03*
X271181Y185551D02*
D03*
X270669Y186339D02*
D03*
X271693D02*
D03*
Y185551D02*
D03*
X270669D02*
D03*
X271181Y188150D02*
D03*
X271693Y187756D02*
D03*
X271181D02*
D03*
X270669D02*
D03*
X271181Y187362D02*
D03*
X270669Y188150D02*
D03*
X271693D02*
D03*
Y187362D02*
D03*
X270669D02*
D03*
X271181Y189961D02*
D03*
X271693Y189567D02*
D03*
X271181D02*
D03*
X270669D02*
D03*
X271181Y189173D02*
D03*
X270669Y189961D02*
D03*
X271693D02*
D03*
Y189173D02*
D03*
X270669D02*
D03*
X271181Y191772D02*
D03*
X271693Y191378D02*
D03*
X271181D02*
D03*
X270669D02*
D03*
X271181Y190984D02*
D03*
X270669Y191772D02*
D03*
X271693D02*
D03*
Y190984D02*
D03*
X270669D02*
D03*
X271181Y193583D02*
D03*
X271693Y193189D02*
D03*
X271181D02*
D03*
X270669D02*
D03*
X271181Y192795D02*
D03*
X270669Y193583D02*
D03*
X271693D02*
D03*
Y192795D02*
D03*
X270669D02*
D03*
X271181Y195394D02*
D03*
X271693Y195000D02*
D03*
X271181D02*
D03*
X270669D02*
D03*
X271181Y194606D02*
D03*
X270669Y195394D02*
D03*
X271693D02*
D03*
Y194606D02*
D03*
X270669D02*
D03*
X271181Y197205D02*
D03*
X271693Y196811D02*
D03*
X271181D02*
D03*
X270669D02*
D03*
X271181Y196417D02*
D03*
X270669Y197205D02*
D03*
X271693D02*
D03*
Y196417D02*
D03*
X270669D02*
D03*
X271181Y199016D02*
D03*
X271693Y198622D02*
D03*
X271181D02*
D03*
X270669D02*
D03*
X271181Y198228D02*
D03*
X270669Y199016D02*
D03*
X271693D02*
D03*
Y198228D02*
D03*
X270669D02*
D03*
X280945Y189252D02*
D03*
Y188898D02*
D03*
X279331Y192874D02*
D03*
X286811Y195866D02*
D03*
X287008Y191732D02*
D03*
X289409Y180394D02*
D03*
X289882Y181535D02*
D03*
X290315Y180236D02*
D03*
X288701Y191417D02*
D03*
X289921D02*
D03*
X291142Y191260D02*
D03*
X289606Y191772D02*
D03*
X289134Y190866D02*
D03*
X287717Y180630D02*
D03*
X287087Y191102D02*
D03*
X289213Y187283D02*
D03*
X281732Y193346D02*
D03*
Y192953D02*
D03*
X289921Y198307D02*
D03*
X291535Y197441D02*
D03*
X291772Y199213D02*
D03*
X285039Y178740D02*
D03*
X286024D02*
D03*
X285394D02*
D03*
X285039Y177756D02*
D03*
X284449Y178740D02*
D03*
X292126Y178268D02*
D03*
X285945Y195354D02*
D03*
Y195748D02*
D03*
X278189Y185157D02*
D03*
X287795Y188898D02*
D03*
X278504Y184055D02*
D03*
X279370Y185118D02*
D03*
X279803D02*
D03*
X278543D02*
D03*
X278937D02*
D03*
X278150Y184055D02*
D03*
X280945Y187992D02*
D03*
Y186732D02*
D03*
X283819Y182480D02*
D03*
X288110Y184646D02*
D03*
X286614Y183740D02*
D03*
X286890D02*
D03*
X280827Y185866D02*
D03*
X282559Y184213D02*
D03*
X282244D02*
D03*
X285984Y190591D02*
D03*
X287874Y185039D02*
D03*
X288150D02*
D03*
X280394Y185512D02*
D03*
X287913Y186457D02*
D03*
X278819Y179331D02*
D03*
X278346Y180512D02*
D03*
X278150Y180118D02*
D03*
X278386Y182717D02*
D03*
X278150Y183307D02*
D03*
X281299Y178543D02*
D03*
Y178937D02*
D03*
X287244Y188307D02*
D03*
X286890D02*
D03*
X282008Y189134D02*
D03*
X285433Y188661D02*
D03*
X286181Y186339D02*
D03*
X285866D02*
D03*
X283858Y188071D02*
D03*
X285433Y188032D02*
D03*
Y188346D02*
D03*
X295276Y200394D02*
D03*
X304921Y199803D02*
D03*
X303740Y198819D02*
D03*
X306575Y193543D02*
D03*
X282402Y183189D02*
D03*
X285512Y190748D02*
D03*
X289370Y183819D02*
D03*
X282008Y192244D02*
D03*
X284370Y191654D02*
D03*
X277047Y195000D02*
D03*
Y194685D02*
D03*
X278898Y194803D02*
D03*
X285039Y191850D02*
D03*
X285433Y192165D02*
D03*
X280039Y194646D02*
D03*
X279921Y199213D02*
D03*
X278937D02*
D03*
X281929Y198583D02*
D03*
X282677Y196102D02*
D03*
X281299Y191535D02*
D03*
X280906Y191102D02*
D03*
X284724Y191457D02*
D03*
X285079Y192520D02*
D03*
X276447Y198041D02*
D03*
X276762D02*
D03*
X276447Y196230D02*
D03*
X276762D02*
D03*
X278032Y196890D02*
D03*
Y197205D02*
D03*
Y196575D02*
D03*
X278346D02*
D03*
X278032Y198307D02*
D03*
X278346D02*
D03*
X279409Y197126D02*
D03*
Y197756D02*
D03*
X279055Y194488D02*
D03*
X289724Y186654D02*
D03*
X283425Y190354D02*
D03*
D87*
X306102Y186378D02*
D03*
X305512D02*
D03*
Y185906D02*
D03*
Y185433D02*
D03*
Y184961D02*
D03*
Y184449D02*
D03*
Y183937D02*
D03*
X301535Y192992D02*
D03*
X300197D02*
D03*
X299016Y194094D02*
D03*
X298032D02*
D03*
X298425Y192874D02*
D03*
X297953Y192717D02*
D03*
X306102Y183937D02*
D03*
Y184449D02*
D03*
Y184961D02*
D03*
Y185433D02*
D03*
Y185906D02*
D03*
X297402Y182087D02*
D03*
Y182559D02*
D03*
Y183071D02*
D03*
X297913Y185827D02*
D03*
X294803Y177559D02*
D03*
X289764Y177756D02*
D03*
X302362Y182677D02*
D03*
X298032Y177559D02*
D03*
X299213D02*
D03*
X298622D02*
D03*
X304331D02*
D03*
X303150D02*
D03*
X303740D02*
D03*
X304370Y195394D02*
D03*
X301575Y194882D02*
D03*
X264291Y191929D02*
D03*
Y189567D02*
D03*
Y188386D02*
D03*
Y187205D02*
D03*
Y186024D02*
D03*
Y184843D02*
D03*
Y190748D02*
D03*
X266024Y199016D02*
D03*
Y199606D02*
D03*
X295276Y194291D02*
D03*
Y193898D02*
D03*
X295748Y194291D02*
D03*
Y193898D02*
D03*
X296260Y194291D02*
D03*
Y193898D02*
D03*
X296772Y194291D02*
D03*
Y193898D02*
D03*
X294803D02*
D03*
Y194291D02*
D03*
X294291Y193898D02*
D03*
Y194291D02*
D03*
X293780Y193898D02*
D03*
Y194291D02*
D03*
X293268D02*
D03*
Y193898D02*
D03*
X297283Y194291D02*
D03*
Y193898D02*
D03*
X268386Y196417D02*
D03*
Y192795D02*
D03*
Y189173D02*
D03*
Y185551D02*
D03*
Y181929D02*
D03*
X267913Y178425D02*
D03*
X273681Y199449D02*
D03*
X268622Y199055D02*
D03*
X273681Y197638D02*
D03*
X268622Y197244D02*
D03*
X273681Y192205D02*
D03*
X268622Y191811D02*
D03*
X273681Y195827D02*
D03*
X268622Y195433D02*
D03*
X273681Y194016D02*
D03*
X268622Y193622D02*
D03*
X273681Y190394D02*
D03*
X268622Y190000D02*
D03*
X273681Y188583D02*
D03*
X268622Y188189D02*
D03*
X273681Y186772D02*
D03*
X268622Y186378D02*
D03*
X273681Y184961D02*
D03*
X268622Y184567D02*
D03*
X273681Y183150D02*
D03*
X268622Y182756D02*
D03*
X273681Y181339D02*
D03*
X268622Y180945D02*
D03*
X273681Y179528D02*
D03*
X268622Y179134D02*
D03*
X266024Y178937D02*
D03*
Y178346D02*
D03*
Y177756D02*
D03*
X294685Y185039D02*
D03*
Y184252D02*
D03*
Y183465D02*
D03*
X293701D02*
D03*
X295669D02*
D03*
X296654D02*
D03*
X301378Y185039D02*
D03*
Y184252D02*
D03*
X300591Y183465D02*
D03*
Y183071D02*
D03*
X299803Y183465D02*
D03*
X299409Y185039D02*
D03*
Y184252D02*
D03*
X299803Y182677D02*
D03*
X299213Y183465D02*
D03*
X298780Y183110D02*
D03*
X298425Y183465D02*
D03*
Y182756D02*
D03*
X299213Y182677D02*
D03*
X298032Y182283D02*
D03*
X298622Y182323D02*
D03*
Y181693D02*
D03*
Y181102D02*
D03*
Y180512D02*
D03*
X298032Y181102D02*
D03*
Y181693D02*
D03*
Y180512D02*
D03*
X299213D02*
D03*
Y181102D02*
D03*
Y181693D02*
D03*
X298622Y179134D02*
D03*
X299213D02*
D03*
X298032D02*
D03*
X297441D02*
D03*
Y180118D02*
D03*
Y181102D02*
D03*
X299213Y182244D02*
D03*
X304921Y186339D02*
D03*
Y184331D02*
D03*
Y183780D02*
D03*
X303346Y184843D02*
D03*
X304449D02*
D03*
X303898D02*
D03*
Y185827D02*
D03*
X304449D02*
D03*
X303346D02*
D03*
Y185354D02*
D03*
X303898D02*
D03*
X304449D02*
D03*
Y183780D02*
D03*
X303346D02*
D03*
X304921Y185827D02*
D03*
Y185354D02*
D03*
Y184843D02*
D03*
X303740Y180315D02*
D03*
X304134D02*
D03*
X303346D02*
D03*
Y179134D02*
D03*
X303740D02*
D03*
X304134D02*
D03*
X301063Y191260D02*
D03*
X293110Y190669D02*
D03*
X293307Y191142D02*
D03*
X293898Y190669D02*
D03*
X294094Y191142D02*
D03*
X294685Y190669D02*
D03*
X294882Y191142D02*
D03*
X295472Y190669D02*
D03*
X295669Y191142D02*
D03*
X296260Y190669D02*
D03*
X296457Y191142D02*
D03*
X297047Y190669D02*
D03*
X297244Y191142D02*
D03*
X297835Y190669D02*
D03*
X298032Y191142D02*
D03*
X298622Y190669D02*
D03*
X298819Y191142D02*
D03*
X299409Y190669D02*
D03*
X299606Y191142D02*
D03*
X293185Y185827D02*
D03*
X300197Y190669D02*
D03*
X300984D02*
D03*
X301732Y190748D02*
D03*
X301772Y187992D02*
D03*
Y188583D02*
D03*
Y189173D02*
D03*
Y189764D02*
D03*
X302362D02*
D03*
Y189173D02*
D03*
Y188583D02*
D03*
Y187992D02*
D03*
X302953Y189961D02*
D03*
X303740D02*
D03*
X304528D02*
D03*
Y187992D02*
D03*
X303740D02*
D03*
X302953D02*
D03*
X305315Y188189D02*
D03*
Y188780D02*
D03*
Y189370D02*
D03*
Y189961D02*
D03*
Y190551D02*
D03*
Y191142D02*
D03*
X302165Y184606D02*
D03*
X307283Y193307D02*
D03*
X307677D02*
D03*
X302559Y184606D02*
D03*
X303898Y183780D02*
D03*
X301102Y183071D02*
D03*
X301378Y183386D02*
D03*
X266024Y200197D02*
D03*
X298622Y195472D02*
D03*
X298031D02*
D03*
X299213D02*
D03*
X293701Y185827D02*
D03*
X294291D02*
D03*
X294882D02*
D03*
X295472D02*
D03*
X296063D02*
D03*
X296654D02*
D03*
X297244D02*
D03*
X298425D02*
D03*
X299016D02*
D03*
X299606D02*
D03*
X300197D02*
D03*
X300787D02*
D03*
X301339D02*
D03*
X291535Y181102D02*
D03*
X292520D02*
D03*
X263425Y194744D02*
D03*
X264291D02*
D03*
X263425Y183209D02*
D03*
X264291D02*
D03*
X262323Y200197D02*
D03*
Y199606D02*
D03*
Y199016D02*
D03*
Y178937D02*
D03*
Y178346D02*
D03*
Y177756D02*
D03*
X305315Y191732D02*
D03*
X267913Y199606D02*
D03*
X300984Y189646D02*
D03*
X300197D02*
D03*
X299409D02*
D03*
X298622D02*
D03*
X297835D02*
D03*
X297047D02*
D03*
X296260D02*
D03*
X295472D02*
D03*
X294685D02*
D03*
X293898D02*
D03*
X293110D02*
D03*
X300984Y188858D02*
D03*
X300197D02*
D03*
X299409D02*
D03*
X298622D02*
D03*
X297835D02*
D03*
X297047D02*
D03*
X296260D02*
D03*
X295472D02*
D03*
X294685D02*
D03*
X293898D02*
D03*
X293110D02*
D03*
X300984Y188071D02*
D03*
X300197D02*
D03*
X299409D02*
D03*
X298622D02*
D03*
X297835D02*
D03*
X297047D02*
D03*
X296260D02*
D03*
X295472D02*
D03*
X294685D02*
D03*
X293898D02*
D03*
X293110D02*
D03*
X300984Y187283D02*
D03*
X300197D02*
D03*
X299409D02*
D03*
X298622D02*
D03*
X297835D02*
D03*
X297047D02*
D03*
X296260D02*
D03*
X295472D02*
D03*
X294685D02*
D03*
X293898D02*
D03*
X293110D02*
D03*
X300984Y186417D02*
D03*
X300197D02*
D03*
X299409D02*
D03*
X298622D02*
D03*
X297835D02*
D03*
X297047D02*
D03*
X296260D02*
D03*
X295472D02*
D03*
X294685D02*
D03*
X293898D02*
D03*
X293110D02*
D03*
X306220Y191535D02*
D03*
Y190748D02*
D03*
Y189961D02*
D03*
Y189173D02*
D03*
Y188386D02*
D03*
X307008Y191535D02*
D03*
Y190748D02*
D03*
Y189961D02*
D03*
Y189173D02*
D03*
Y188386D02*
D03*
X309213Y184646D02*
D03*
Y185433D02*
D03*
Y186220D02*
D03*
Y187008D02*
D03*
X308425Y184646D02*
D03*
Y185433D02*
D03*
Y186220D02*
D03*
Y187008D02*
D03*
X307638Y184646D02*
D03*
Y185433D02*
D03*
Y186220D02*
D03*
Y187008D02*
D03*
X308583Y191535D02*
D03*
Y190748D02*
D03*
Y189961D02*
D03*
Y189173D02*
D03*
Y188386D02*
D03*
X307795D02*
D03*
Y189173D02*
D03*
Y189961D02*
D03*
Y190748D02*
D03*
Y191535D02*
D03*
X309370Y188386D02*
D03*
Y189173D02*
D03*
Y189961D02*
D03*
Y190748D02*
D03*
Y191535D02*
D03*
X306850Y187008D02*
D03*
Y186220D02*
D03*
Y185433D02*
D03*
Y184646D02*
D03*
Y183858D02*
D03*
X307638D02*
D03*
X308425D02*
D03*
X309213D02*
D03*
M02*
