G04 Layer_Color=32896*
%FSLAX44Y44*%
%MOMM*%
G71*
G01*
G75*
%ADD72C,0.2000*%
%ADD73C,0.3000*%
%ADD97C,0.2540*%
%ADD100C,0.1000*%
D72*
X673000Y215000D02*
X685000D01*
X693000D02*
X705000D01*
X714000D02*
X726000D01*
X735000D02*
X747000D01*
X756000D02*
X768000D01*
X720000D02*
Y235000D01*
X707000Y229000D02*
Y235000D01*
X700000Y222000D02*
X707000Y229000D01*
X699000Y221000D02*
X700000Y222000D01*
X699000Y215000D02*
Y221000D01*
X733000Y229000D02*
Y235000D01*
Y229000D02*
X740000Y222000D01*
X741000Y221000D01*
Y215000D02*
Y221000D01*
X745000Y235000D02*
Y235000D01*
Y235000D02*
X762000Y218000D01*
Y215000D02*
Y218000D01*
X679000Y219000D02*
X695000Y235000D01*
X679000Y215000D02*
Y219000D01*
X697000Y-295000D02*
Y-292000D01*
Y-295000D02*
X783000D01*
Y-292000D01*
X698500Y-253000D02*
X708500D01*
X698500Y-257000D02*
Y-253000D01*
X771500D02*
X781500D01*
Y-257000D02*
Y-253000D01*
X763000Y292500D02*
Y295500D01*
X677000D02*
X763000D01*
X677000Y292500D02*
Y295500D01*
X751500Y253500D02*
X761500D01*
Y257500D01*
X678500Y253500D02*
X688500D01*
X678500D02*
Y257500D01*
X697000Y-191000D02*
Y-188000D01*
Y-191000D02*
X783000D01*
Y-188000D01*
X698500Y-149000D02*
X708500D01*
X698500Y-153000D02*
Y-149000D01*
X771500D02*
X781500D01*
Y-153000D02*
Y-149000D01*
D73*
X610002Y-56146D02*
X611430Y-54717D01*
X613573Y-54003D01*
X616429D01*
X618572Y-54717D01*
X620000Y-56146D01*
Y-57574D01*
X619286Y-59002D01*
X618572Y-59716D01*
X617144Y-60430D01*
X612859Y-61859D01*
X611430Y-62573D01*
X610716Y-63287D01*
X610002Y-64715D01*
Y-66858D01*
X611430Y-68286D01*
X613573Y-69000D01*
X616429D01*
X618572Y-68286D01*
X620000Y-66858D01*
X606646Y-54003D02*
Y-69000D01*
Y-54003D02*
X601647D01*
X599504Y-54717D01*
X598076Y-56146D01*
X597362Y-57574D01*
X596648Y-59716D01*
Y-63287D01*
X597362Y-65429D01*
X598076Y-66858D01*
X599504Y-68286D01*
X601647Y-69000D01*
X606646D01*
X570796Y-57574D02*
X571510Y-56146D01*
X572939Y-54717D01*
X574367Y-54003D01*
X577224D01*
X578652Y-54717D01*
X580080Y-56146D01*
X580794Y-57574D01*
X581508Y-59716D01*
Y-63287D01*
X580794Y-65429D01*
X580080Y-66858D01*
X578652Y-68286D01*
X577224Y-69000D01*
X574367D01*
X572939Y-68286D01*
X571510Y-66858D01*
X570796Y-65429D01*
X558013Y-59002D02*
Y-69000D01*
Y-61144D02*
X559442Y-59716D01*
X560870Y-59002D01*
X563012D01*
X564440Y-59716D01*
X565869Y-61144D01*
X566583Y-63287D01*
Y-64715D01*
X565869Y-66858D01*
X564440Y-68286D01*
X563012Y-69000D01*
X560870D01*
X559442Y-68286D01*
X558013Y-66858D01*
X554014Y-59002D02*
Y-69000D01*
Y-63287D02*
X553300Y-61144D01*
X551872Y-59716D01*
X550443Y-59002D01*
X548301D01*
X538375Y-54003D02*
Y-69000D01*
Y-61144D02*
X539803Y-59716D01*
X541231Y-59002D01*
X543374D01*
X544802Y-59716D01*
X546230Y-61144D01*
X546944Y-63287D01*
Y-64715D01*
X546230Y-66858D01*
X544802Y-68286D01*
X543374Y-69000D01*
X541231D01*
X539803Y-68286D01*
X538375Y-66858D01*
X779715Y-104003D02*
X781143Y-104717D01*
X782572Y-106146D01*
X783286Y-107574D01*
X784000Y-109716D01*
Y-113287D01*
X783286Y-115429D01*
X782572Y-116858D01*
X781143Y-118286D01*
X779715Y-119000D01*
X776859D01*
X775430Y-118286D01*
X774002Y-116858D01*
X773288Y-115429D01*
X772574Y-113287D01*
Y-109716D01*
X773288Y-107574D01*
X774002Y-106146D01*
X775430Y-104717D01*
X776859Y-104003D01*
X779715D01*
X769075Y-109002D02*
Y-123999D01*
Y-111145D02*
X767646Y-109716D01*
X766218Y-109002D01*
X764076D01*
X762647Y-109716D01*
X761219Y-111145D01*
X760505Y-113287D01*
Y-114715D01*
X761219Y-116858D01*
X762647Y-118286D01*
X764076Y-119000D01*
X766218D01*
X767646Y-118286D01*
X769075Y-116858D01*
X757291Y-113287D02*
X748722D01*
Y-111859D01*
X749436Y-110430D01*
X750150Y-109716D01*
X751578Y-109002D01*
X753721D01*
X755149Y-109716D01*
X756577Y-111145D01*
X757291Y-113287D01*
Y-114715D01*
X756577Y-116858D01*
X755149Y-118286D01*
X753721Y-119000D01*
X751578D01*
X750150Y-118286D01*
X748722Y-116858D01*
X745508Y-109002D02*
Y-119000D01*
Y-111859D02*
X743366Y-109716D01*
X741938Y-109002D01*
X739795D01*
X738367Y-109716D01*
X737653Y-111859D01*
Y-119000D01*
X733725Y-104003D02*
Y-119000D01*
X725155D01*
X719228Y-104003D02*
X720656Y-104717D01*
X722085Y-106146D01*
X722799Y-107574D01*
X723513Y-109716D01*
Y-113287D01*
X722799Y-115429D01*
X722085Y-116858D01*
X720656Y-118286D01*
X719228Y-119000D01*
X716372D01*
X714943Y-118286D01*
X713515Y-116858D01*
X712801Y-115429D01*
X712087Y-113287D01*
Y-109716D01*
X712801Y-107574D01*
X713515Y-106146D01*
X714943Y-104717D01*
X716372Y-104003D01*
X719228D01*
X697876Y-107574D02*
X698590Y-106146D01*
X700018Y-104717D01*
X701446Y-104003D01*
X704303D01*
X705731Y-104717D01*
X707159Y-106146D01*
X707874Y-107574D01*
X708588Y-109716D01*
Y-113287D01*
X707874Y-115429D01*
X707159Y-116858D01*
X705731Y-118286D01*
X704303Y-119000D01*
X701446D01*
X700018Y-118286D01*
X698590Y-116858D01*
X697876Y-115429D01*
Y-113287D01*
X701446D02*
X697876D01*
X817288Y-240574D02*
X818002Y-239146D01*
X819430Y-237717D01*
X820859Y-237003D01*
X823715D01*
X825144Y-237717D01*
X826572Y-239146D01*
X827286Y-240574D01*
X828000Y-242716D01*
Y-246287D01*
X827286Y-248429D01*
X826572Y-249858D01*
X825144Y-251286D01*
X823715Y-252000D01*
X820859D01*
X819430Y-251286D01*
X818002Y-249858D01*
X817288Y-248429D01*
X801648Y-252000D02*
X807362Y-237003D01*
X813075Y-252000D01*
X810932Y-247001D02*
X803791D01*
X798149Y-237003D02*
Y-252000D01*
Y-237003D02*
X788151Y-252000D01*
Y-237003D02*
Y-252000D01*
X779000Y-240907D02*
X778048Y-240430D01*
X776620Y-239002D01*
Y-249000D01*
X779000Y-136906D02*
X778048Y-136430D01*
X776620Y-135002D01*
Y-145000D01*
D97*
X541000Y-158000D02*
Y-133000D01*
Y-158000D02*
X541000D01*
X556000Y-173000D01*
X541000Y-198000D02*
Y-173000D01*
X531000Y-198000D02*
X541000D01*
Y-133000D02*
Y-128000D01*
X531000D02*
X541000D01*
X767696Y181157D02*
X770235Y178617D01*
Y173539D01*
X767696Y171000D01*
X757539D01*
X755000Y173539D01*
Y178617D01*
X757539Y181157D01*
X762618D01*
Y176078D01*
X755000Y186235D02*
X770235D01*
X755000Y196392D01*
X770235D01*
Y201470D02*
X755000D01*
Y209088D01*
X757539Y211627D01*
X767696D01*
X770235Y209088D01*
Y201470D01*
X746696Y150157D02*
X749235Y147618D01*
Y142539D01*
X746696Y140000D01*
X744157D01*
X741618Y142539D01*
Y147618D01*
X739078Y150157D01*
X736539D01*
X734000Y147618D01*
Y142539D01*
X736539Y140000D01*
X749235Y155235D02*
X734000D01*
X739078Y160313D01*
X734000Y165392D01*
X749235D01*
X746696Y180627D02*
X749235Y178088D01*
Y173009D01*
X746696Y170470D01*
X736539D01*
X734000Y173009D01*
Y178088D01*
X736539Y180627D01*
X749235Y185705D02*
X734000D01*
Y195862D01*
X749235Y200940D02*
X734000D01*
X739078D01*
X749235Y211097D01*
X741618Y203479D01*
X734000Y211097D01*
X725696Y153157D02*
X728235Y150618D01*
Y145539D01*
X725696Y143000D01*
X723157D01*
X720618Y145539D01*
Y150618D01*
X718078Y153157D01*
X715539D01*
X713000Y150618D01*
Y145539D01*
X715539Y143000D01*
X728235Y158235D02*
X713000D01*
X718078Y163313D01*
X713000Y168392D01*
X728235D01*
Y173470D02*
X713000D01*
Y181088D01*
X715539Y183627D01*
X725696D01*
X728235Y181088D01*
Y173470D01*
Y188705D02*
Y193784D01*
Y191244D01*
X713000D01*
Y188705D01*
Y193784D01*
X728235Y209019D02*
Y203940D01*
X725696Y201401D01*
X715539D01*
X713000Y203940D01*
Y209019D01*
X715539Y211558D01*
X725696D01*
X728235Y209019D01*
X692000Y171000D02*
X707235D01*
Y178617D01*
X704696Y181157D01*
X699617D01*
X697078Y178617D01*
Y171000D01*
Y176078D02*
X692000Y181157D01*
X704696Y196392D02*
X707235Y193853D01*
Y188774D01*
X704696Y186235D01*
X702157D01*
X699617Y188774D01*
Y193853D01*
X697078Y196392D01*
X694539D01*
X692000Y193853D01*
Y188774D01*
X694539Y186235D01*
X707235Y201470D02*
Y211627D01*
Y206549D01*
X692000D01*
X683696Y171000D02*
X686235Y173539D01*
Y178617D01*
X683696Y181157D01*
X681157D01*
X678617Y178617D01*
Y176078D01*
Y178617D01*
X676078Y181157D01*
X673539D01*
X671000Y178617D01*
Y173539D01*
X673539Y171000D01*
X686235Y186235D02*
X676078D01*
X671000Y191313D01*
X676078Y196392D01*
X686235D01*
X683696Y201470D02*
X686235Y204009D01*
Y209088D01*
X683696Y211627D01*
X681157D01*
X678617Y209088D01*
Y206549D01*
Y209088D01*
X676078Y211627D01*
X673539D01*
X671000Y209088D01*
Y204009D01*
X673539Y201470D01*
X643000Y-229000D02*
Y-218843D01*
X640461D01*
X637922Y-221383D01*
Y-229000D01*
Y-221383D01*
X635382Y-218843D01*
X632843Y-221383D01*
Y-229000D01*
X627765D02*
X622687D01*
X625226D01*
Y-218843D01*
X627765D01*
X604912D02*
X612530D01*
X615069Y-221383D01*
Y-226461D01*
X612530Y-229000D01*
X604912D01*
X599834Y-218843D02*
Y-229000D01*
Y-223922D01*
X597295Y-221383D01*
X594756Y-218843D01*
X592216D01*
X582060Y-229000D02*
X576981D01*
X574442Y-226461D01*
Y-221383D01*
X576981Y-218843D01*
X582060D01*
X584599Y-221383D01*
Y-226461D01*
X582060Y-229000D01*
X559207Y-216304D02*
X561746Y-213765D01*
X566825D01*
X569364Y-216304D01*
Y-218843D01*
X566825Y-221383D01*
X561746D01*
X559207Y-223922D01*
Y-226461D01*
X561746Y-229000D01*
X566825D01*
X569364Y-226461D01*
X554129Y-213765D02*
Y-229000D01*
X546511D01*
X543972Y-226461D01*
Y-216304D01*
X546511Y-213765D01*
X554129D01*
D100*
X518000Y-266000D02*
X531000D01*
Y-260000D01*
X639000D01*
Y-266000D02*
Y-260000D01*
Y-266000D02*
X661000D01*
Y-106000D01*
X518000D02*
X661000D01*
X518000Y-266000D02*
Y-106000D01*
M02*
