G04 Layer_Color=32896*
%FSLAX44Y44*%
%MOMM*%
G71*
G01*
G75*
%ADD78C,0.2000*%
%ADD79C,0.3000*%
%ADD95C,0.2540*%
D78*
X678500Y253500D02*
Y257500D01*
Y253500D02*
X688500D01*
X761500D02*
Y257500D01*
X751500Y253500D02*
X761500D01*
X677000Y292500D02*
Y295500D01*
X763000D01*
Y292500D02*
Y295500D01*
X673000Y215000D02*
X685000D01*
X693000D02*
X705000D01*
X714000D02*
X726000D01*
X735000D02*
X747000D01*
X756000D02*
X768000D01*
X720000D02*
Y235000D01*
X707000Y229000D02*
Y235000D01*
X700000Y222000D02*
X707000Y229000D01*
X699000Y221000D02*
X700000Y222000D01*
X699000Y215000D02*
Y221000D01*
X733000Y229000D02*
Y235000D01*
Y229000D02*
X740000Y222000D01*
X741000Y221000D01*
Y215000D02*
Y221000D01*
X745000Y235000D02*
Y235000D01*
Y235000D02*
X762000Y218000D01*
Y215000D02*
Y218000D01*
X679000Y219000D02*
X695000Y235000D01*
X679000Y215000D02*
Y219000D01*
X697000Y-295000D02*
Y-292000D01*
Y-295000D02*
X783000D01*
Y-292000D01*
X698500Y-253000D02*
X708500D01*
X698500Y-257000D02*
Y-253000D01*
X771500D02*
X781500D01*
Y-257000D02*
Y-253000D01*
D79*
X779000Y-240907D02*
X778048Y-240430D01*
X776620Y-239002D01*
Y-249000D01*
D95*
X767696Y181157D02*
X770235Y178617D01*
Y173539D01*
X767696Y171000D01*
X757539D01*
X755000Y173539D01*
Y178617D01*
X757539Y181157D01*
X762618D01*
Y176078D01*
X755000Y186235D02*
X770235D01*
X755000Y196392D01*
X770235D01*
Y201470D02*
X755000D01*
Y209088D01*
X757539Y211627D01*
X767696D01*
X770235Y209088D01*
Y201470D01*
X746696Y150157D02*
X749235Y147618D01*
Y142539D01*
X746696Y140000D01*
X744157D01*
X741618Y142539D01*
Y147618D01*
X739078Y150157D01*
X736539D01*
X734000Y147618D01*
Y142539D01*
X736539Y140000D01*
X749235Y155235D02*
X734000D01*
X739078Y160313D01*
X734000Y165392D01*
X749235D01*
X746696Y180627D02*
X749235Y178088D01*
Y173009D01*
X746696Y170470D01*
X736539D01*
X734000Y173009D01*
Y178088D01*
X736539Y180627D01*
X749235Y185705D02*
X734000D01*
Y195862D01*
X749235Y200940D02*
X734000D01*
X739078D01*
X749235Y211097D01*
X741618Y203479D01*
X734000Y211097D01*
X725696Y153157D02*
X728235Y150618D01*
Y145539D01*
X725696Y143000D01*
X723157D01*
X720618Y145539D01*
Y150618D01*
X718078Y153157D01*
X715539D01*
X713000Y150618D01*
Y145539D01*
X715539Y143000D01*
X728235Y158235D02*
X713000D01*
X718078Y163313D01*
X713000Y168392D01*
X728235D01*
Y173470D02*
X713000D01*
Y181088D01*
X715539Y183627D01*
X725696D01*
X728235Y181088D01*
Y173470D01*
Y188705D02*
Y193784D01*
Y191244D01*
X713000D01*
Y188705D01*
Y193784D01*
X728235Y209019D02*
Y203940D01*
X725696Y201401D01*
X715539D01*
X713000Y203940D01*
Y209019D01*
X715539Y211558D01*
X725696D01*
X728235Y209019D01*
X692000Y171000D02*
X707235D01*
Y178617D01*
X704696Y181157D01*
X699617D01*
X697078Y178617D01*
Y171000D01*
Y176078D02*
X692000Y181157D01*
X704696Y196392D02*
X707235Y193853D01*
Y188774D01*
X704696Y186235D01*
X702157D01*
X699617Y188774D01*
Y193853D01*
X697078Y196392D01*
X694539D01*
X692000Y193853D01*
Y188774D01*
X694539Y186235D01*
X707235Y201470D02*
Y211627D01*
Y206549D01*
X692000D01*
X683696Y171000D02*
X686235Y173539D01*
Y178617D01*
X683696Y181157D01*
X681157D01*
X678617Y178617D01*
Y176078D01*
Y178617D01*
X676078Y181157D01*
X673539D01*
X671000Y178617D01*
Y173539D01*
X673539Y171000D01*
X686235Y186235D02*
X676078D01*
X671000Y191313D01*
X676078Y196392D01*
X686235D01*
X683696Y201470D02*
X686235Y204009D01*
Y209088D01*
X683696Y211627D01*
X681157D01*
X678617Y209088D01*
Y206549D01*
Y209088D01*
X676078Y211627D01*
X673539D01*
X671000Y209088D01*
Y204009D01*
X673539Y201470D01*
X776000Y-203000D02*
Y-197922D01*
Y-200461D01*
X791235D01*
X788696Y-203000D01*
X783617Y-190304D02*
Y-180147D01*
X791235Y-164912D02*
Y-175069D01*
X776000D01*
Y-164912D01*
X783617Y-175069D02*
Y-169991D01*
X776000Y-159834D02*
X786157D01*
Y-152216D01*
X783617Y-149677D01*
X776000D01*
X786157Y-142060D02*
Y-136981D01*
X783617Y-134442D01*
X776000D01*
Y-142060D01*
X778539Y-144599D01*
X781078Y-142060D01*
Y-134442D01*
X791235Y-129364D02*
X776000D01*
Y-121746D01*
X778539Y-119207D01*
X781078D01*
X783617D01*
X786157Y-121746D01*
Y-129364D01*
X776000Y-114129D02*
Y-109050D01*
Y-111590D01*
X791235D01*
Y-114129D01*
X776000Y-93815D02*
Y-98894D01*
X778539Y-101433D01*
X783617D01*
X786157Y-98894D01*
Y-93815D01*
X783617Y-91276D01*
X781078D01*
Y-101433D01*
X766609Y-205274D02*
X767335D01*
X768786Y-204549D01*
X769511Y-203823D01*
X770237Y-202372D01*
Y-199470D01*
X769511Y-198019D01*
X768786Y-197293D01*
X767335Y-196568D01*
X765883D01*
X764432Y-197293D01*
X762256Y-198744D01*
X755000Y-206000D01*
Y-195842D01*
X761530Y-192432D02*
Y-179372D01*
X770237Y-166167D02*
Y-173422D01*
X763707Y-174148D01*
X764432Y-173422D01*
X765158Y-171246D01*
Y-169069D01*
X764432Y-166892D01*
X762981Y-165441D01*
X760805Y-164716D01*
X759353D01*
X757177Y-165441D01*
X755726Y-166892D01*
X755000Y-169069D01*
Y-171246D01*
X755726Y-173422D01*
X756451Y-174148D01*
X757902Y-174874D01*
X770237Y-161306D02*
X755000Y-155501D01*
X770237Y-149697D02*
X755000Y-155501D01*
X770237Y-146286D02*
X769511Y-145561D01*
X770237Y-144835D01*
X770962Y-145561D01*
X770237Y-146286D01*
X765158Y-145561D02*
X755000D01*
X765158Y-142151D02*
X755000D01*
X762256D02*
X764432Y-139974D01*
X765158Y-138523D01*
Y-136346D01*
X764432Y-134895D01*
X762256Y-134170D01*
X755000D01*
X749237Y-204549D02*
Y-196568D01*
X743432Y-200921D01*
Y-198744D01*
X742707Y-197293D01*
X741981Y-196568D01*
X739805Y-195842D01*
X738353D01*
X736177Y-196568D01*
X734726Y-198019D01*
X734000Y-200196D01*
Y-202372D01*
X734726Y-204549D01*
X735451Y-205274D01*
X736902Y-206000D01*
X740530Y-192432D02*
Y-179372D01*
X745609Y-163990D02*
X747060Y-164716D01*
X748511Y-166167D01*
X749237Y-167618D01*
Y-170520D01*
X748511Y-171971D01*
X747060Y-173422D01*
X745609Y-174148D01*
X743432Y-174874D01*
X739805D01*
X737628Y-174148D01*
X736177Y-173422D01*
X734726Y-171971D01*
X734000Y-170520D01*
Y-167618D01*
X734726Y-166167D01*
X736177Y-164716D01*
X737628Y-163990D01*
X734000Y-148100D02*
X749237Y-153905D01*
X734000Y-159709D01*
X739079Y-157533D02*
Y-150277D01*
X749237Y-144545D02*
X734000D01*
X749237D02*
X734000Y-134387D01*
X749237D02*
X734000D01*
X749237Y-130179D02*
X734000D01*
Y-121472D01*
X727237Y-198744D02*
X717079Y-206000D01*
Y-195117D01*
X727237Y-198744D02*
X712000D01*
X718530Y-192432D02*
Y-179372D01*
X723609Y-163990D02*
X725060Y-164716D01*
X726511Y-166167D01*
X727237Y-167618D01*
Y-170520D01*
X726511Y-171971D01*
X725060Y-173422D01*
X723609Y-174148D01*
X721432Y-174874D01*
X717804D01*
X715628Y-174148D01*
X714177Y-173422D01*
X712726Y-171971D01*
X712000Y-170520D01*
Y-167618D01*
X712726Y-166167D01*
X714177Y-164716D01*
X715628Y-163990D01*
X712000Y-148100D02*
X727237Y-153905D01*
X712000Y-159709D01*
X717079Y-157533D02*
Y-150277D01*
X727237Y-144545D02*
X712000D01*
X727237D02*
X712000Y-134387D01*
X727237D02*
X712000D01*
X727237Y-130179D02*
X712000D01*
X727237Y-120021D02*
X712000D01*
X719981Y-130179D02*
Y-120021D01*
X706237Y-197293D02*
Y-204549D01*
X699707Y-205274D01*
X700432Y-204549D01*
X701158Y-202372D01*
Y-200196D01*
X700432Y-198019D01*
X698981Y-196568D01*
X696805Y-195842D01*
X695353D01*
X693177Y-196568D01*
X691726Y-198019D01*
X691000Y-200196D01*
Y-202372D01*
X691726Y-204549D01*
X692451Y-205274D01*
X693902Y-206000D01*
X697530Y-192432D02*
Y-179372D01*
X702609Y-163990D02*
X704060Y-164716D01*
X705511Y-166167D01*
X706237Y-167618D01*
Y-170520D01*
X705511Y-171971D01*
X704060Y-173422D01*
X702609Y-174148D01*
X700432Y-174874D01*
X696805D01*
X694628Y-174148D01*
X693177Y-173422D01*
X691726Y-171971D01*
X691000Y-170520D01*
Y-167618D01*
X691726Y-166167D01*
X693177Y-164716D01*
X694628Y-163990D01*
X696805D01*
Y-167618D02*
Y-163990D01*
X706237Y-160508D02*
X691000D01*
X706237D02*
X691000Y-150350D01*
X706237D02*
X691000D01*
X706237Y-146141D02*
X691000D01*
X706237D02*
Y-141062D01*
X705511Y-138886D01*
X704060Y-137435D01*
X702609Y-136709D01*
X700432Y-135984D01*
X696805D01*
X694628Y-136709D01*
X693177Y-137435D01*
X691726Y-138886D01*
X691000Y-141062D01*
Y-146141D01*
M02*
