G04 Layer_Color=128*
%FSAX24Y24*%
%MOIN*%
G70*
G01*
G75*
%ADD18R,0.0433X0.0551*%
%ADD24R,0.4409X0.0807*%
%ADD36R,0.0827X0.1181*%
%ADD38R,0.0315X0.0630*%
G04:AMPARAMS|DCode=88|XSize=59.1mil|YSize=24mil|CornerRadius=3.6mil|HoleSize=0mil|Usage=FLASHONLY|Rotation=90.000|XOffset=0mil|YOffset=0mil|HoleType=Round|Shape=RoundedRectangle|*
%AMROUNDEDRECTD88*
21,1,0.0591,0.0168,0,0,90.0*
21,1,0.0519,0.0240,0,0,90.0*
1,1,0.0072,0.0084,0.0259*
1,1,0.0072,0.0084,-0.0259*
1,1,0.0072,-0.0084,-0.0259*
1,1,0.0072,-0.0084,0.0259*
%
%ADD88ROUNDEDRECTD88*%
G04:AMPARAMS|DCode=89|XSize=59.1mil|YSize=24mil|CornerRadius=3.6mil|HoleSize=0mil|Usage=FLASHONLY|Rotation=180.000|XOffset=0mil|YOffset=0mil|HoleType=Round|Shape=RoundedRectangle|*
%AMROUNDEDRECTD89*
21,1,0.0591,0.0168,0,0,180.0*
21,1,0.0519,0.0240,0,0,180.0*
1,1,0.0072,-0.0259,0.0084*
1,1,0.0072,0.0259,0.0084*
1,1,0.0072,0.0259,-0.0084*
1,1,0.0072,-0.0259,-0.0084*
%
%ADD89ROUNDEDRECTD89*%
G04:AMPARAMS|DCode=90|XSize=39.4mil|YSize=39.4mil|CornerRadius=5.9mil|HoleSize=0mil|Usage=FLASHONLY|Rotation=180.000|XOffset=0mil|YOffset=0mil|HoleType=Round|Shape=RoundedRectangle|*
%AMROUNDEDRECTD90*
21,1,0.0394,0.0276,0,0,180.0*
21,1,0.0276,0.0394,0,0,180.0*
1,1,0.0118,-0.0138,0.0138*
1,1,0.0118,0.0138,0.0138*
1,1,0.0118,0.0138,-0.0138*
1,1,0.0118,-0.0138,-0.0138*
%
%ADD90ROUNDEDRECTD90*%
%ADD91R,0.0591X0.0669*%
%ADD92R,0.0508X0.0512*%
%ADD93R,0.0669X0.0591*%
%ADD94R,0.0508X0.0551*%
%ADD95R,0.0630X0.0591*%
%ADD96R,0.0315X0.0661*%
D18*
X285148Y180276D02*
D03*
X284459D02*
D03*
X278159Y185669D02*
D03*
X278848D02*
D03*
D24*
X295276Y191850D02*
D03*
X295276Y193189D02*
D03*
D36*
X283051Y182244D02*
D03*
X287028D02*
D03*
X286240Y199823D02*
D03*
X282264D02*
D03*
X283051Y178150D02*
D03*
X287028D02*
D03*
D38*
X284055Y183406D02*
D03*
X286024D02*
D03*
X285039D02*
D03*
X285532D02*
D03*
X284547D02*
D03*
X285236Y198661D02*
D03*
X283268D02*
D03*
X284252D02*
D03*
X283760D02*
D03*
X284744D02*
D03*
X284055Y179311D02*
D03*
X286024D02*
D03*
X285039D02*
D03*
X285532D02*
D03*
X284547D02*
D03*
D88*
X277559Y196024D02*
D03*
X277953D02*
D03*
X278346D02*
D03*
X278740D02*
D03*
X279134D02*
D03*
X279528D02*
D03*
X279921D02*
D03*
X280315D02*
D03*
D89*
X280555Y196654D02*
D03*
Y197047D02*
D03*
Y197441D02*
D03*
Y197835D02*
D03*
Y198228D02*
D03*
Y198622D02*
D03*
Y199016D02*
D03*
Y199409D02*
D03*
X277319D02*
D03*
Y199016D02*
D03*
Y198622D02*
D03*
Y198228D02*
D03*
Y197835D02*
D03*
Y197441D02*
D03*
Y197047D02*
D03*
Y196654D02*
D03*
D90*
X280476Y200197D02*
D03*
X279331Y198917D02*
D03*
X277398Y200197D02*
D03*
X278543Y198917D02*
D03*
D91*
X276437Y178750D02*
D03*
X281752D02*
D03*
D92*
X276396Y184026D02*
D03*
D93*
X281634Y184636D02*
D03*
D94*
X276396Y181093D02*
D03*
D95*
X276654Y184636D02*
D03*
D96*
X278937Y184600D02*
D03*
X279370D02*
D03*
X279803D02*
D03*
X280236D02*
D03*
X277205D02*
D03*
X277638D02*
D03*
X278071D02*
D03*
X278504D02*
D03*
M02*
