G04 Layer_Physical_Order=1*
G04 Layer_Color=255*
%FSLAX44Y44*%
%MOMM*%
G71*
G01*
G75*
%ADD10R,1.6500X2.0300*%
%ADD11R,1.0000X1.1000*%
%ADD12R,6.5000X6.0000*%
%ADD13R,3.0000X1.4000*%
G04:AMPARAMS|DCode=14|XSize=0.635mm|YSize=0.5mm|CornerRadius=0mm|HoleSize=0mm|Usage=FLASHONLY|Rotation=315.000|XOffset=0mm|YOffset=0mm|HoleType=Round|Shape=Rectangle|*
%AMROTATEDRECTD14*
4,1,4,-0.4013,0.0477,-0.0477,0.4013,0.4013,-0.0477,0.0477,-0.4013,-0.4013,0.0477,0.0*
%
%ADD14ROTATEDRECTD14*%

G04:AMPARAMS|DCode=15|XSize=0.635mm|YSize=0.5mm|CornerRadius=0mm|HoleSize=0mm|Usage=FLASHONLY|Rotation=45.000|XOffset=0mm|YOffset=0mm|HoleType=Round|Shape=Rectangle|*
%AMROTATEDRECTD15*
4,1,4,-0.0477,-0.4013,-0.4013,-0.0477,0.0477,0.4013,0.4013,0.0477,-0.0477,-0.4013,0.0*
%
%ADD15ROTATEDRECTD15*%

%ADD16R,0.5000X0.6350*%
%ADD17R,1.4000X1.1000*%
%ADD18R,0.6350X0.5000*%
%ADD19R,1.1000X1.0000*%
%ADD20R,1.1000X1.4000*%
%ADD21R,1.6000X1.8000*%
%ADD22R,1.0000X1.0000*%
%ADD23O,0.6100X1.5200*%
%ADD24R,0.6100X1.5200*%
%ADD25R,1.5000X1.1000*%
%ADD26R,0.8500X0.8500*%
%ADD27R,3.7000X1.3000*%
%ADD28R,8.9000X10.3000*%
%ADD29R,2.3000X1.5200*%
%ADD30P,1.2021X4X360.0*%
%ADD31R,0.8500X0.8500*%
%ADD32R,1.2000X1.2000*%
%ADD33R,0.8500X0.6500*%
%ADD34R,1.0000X0.2000*%
G04:AMPARAMS|DCode=35|XSize=0.32mm|YSize=1mm|CornerRadius=0mm|HoleSize=0mm|Usage=FLASHONLY|Rotation=315.000|XOffset=0mm|YOffset=0mm|HoleType=Round|Shape=Rectangle|*
%AMROTATEDRECTD35*
4,1,4,-0.4667,-0.2404,0.2404,0.4667,0.4667,0.2404,-0.2404,-0.4667,-0.4667,-0.2404,0.0*
%
%ADD35ROTATEDRECTD35*%

G04:AMPARAMS|DCode=36|XSize=0.32mm|YSize=1mm|CornerRadius=0mm|HoleSize=0mm|Usage=FLASHONLY|Rotation=45.000|XOffset=0mm|YOffset=0mm|HoleType=Round|Shape=Rectangle|*
%AMROTATEDRECTD36*
4,1,4,0.2404,-0.4667,-0.4667,0.2404,-0.2404,0.4667,0.4667,-0.2404,0.2404,-0.4667,0.0*
%
%ADD36ROTATEDRECTD36*%

%ADD37R,0.7000X0.2800*%
%ADD38R,2.4000X1.6500*%
G04:AMPARAMS|DCode=39|XSize=0.23mm|YSize=0.8mm|CornerRadius=0.046mm|HoleSize=0mm|Usage=FLASHONLY|Rotation=180.000|XOffset=0mm|YOffset=0mm|HoleType=Round|Shape=RoundedRectangle|*
%AMROUNDEDRECTD39*
21,1,0.2300,0.7080,0,0,180.0*
21,1,0.1380,0.8000,0,0,180.0*
1,1,0.0920,-0.0690,0.3540*
1,1,0.0920,0.0690,0.3540*
1,1,0.0920,0.0690,-0.3540*
1,1,0.0920,-0.0690,-0.3540*
%
%ADD39ROUNDEDRECTD39*%
%ADD40O,1.2000X2.5000*%
%ADD41R,1.2000X2.5000*%
%ADD42R,0.7500X0.3000*%
%ADD43R,0.3000X0.7500*%
%ADD44R,2.6000X2.6000*%
%ADD45R,1.4000X0.3000*%
G04:AMPARAMS|DCode=46|XSize=1.6mm|YSize=0.35mm|CornerRadius=0.0875mm|HoleSize=0mm|Usage=FLASHONLY|Rotation=270.000|XOffset=0mm|YOffset=0mm|HoleType=Round|Shape=RoundedRectangle|*
%AMROUNDEDRECTD46*
21,1,1.6000,0.1750,0,0,270.0*
21,1,1.4250,0.3500,0,0,270.0*
1,1,0.1750,-0.0875,-0.7125*
1,1,0.1750,-0.0875,0.7125*
1,1,0.1750,0.0875,0.7125*
1,1,0.1750,0.0875,-0.7125*
%
%ADD46ROUNDEDRECTD46*%
%ADD47R,0.3500X1.6000*%
%ADD48R,1.1500X1.4500*%
%ADD49R,0.4000X1.4000*%
%ADD50R,1.7500X1.9000*%
%ADD51R,2.1000X3.0000*%
%ADD52R,0.8000X1.6000*%
%ADD53R,2.9200X1.2700*%
%ADD54R,0.8000X1.3000*%
%ADD55R,5.3000X0.9500*%
%ADD56R,4.6000X0.9000*%
%ADD57R,10.0000X10.8000*%
%ADD58R,0.9000X4.6000*%
%ADD59R,10.8000X10.0000*%
%ADD60R,0.9500X0.9000*%
%ADD61R,0.9500X0.9000*%
%ADD62R,0.9000X0.9500*%
%ADD63R,0.9000X0.9500*%
%ADD64R,1.4000X3.5000*%
%ADD65R,11.2000X2.0500*%
%ADD66R,3.2000X2.5000*%
%ADD67R,1.1000X1.5000*%
%ADD68O,1.2500X0.2500*%
%ADD69R,1.2500X0.2500*%
G04:AMPARAMS|DCode=70|XSize=1.778mm|YSize=2.159mm|CornerRadius=0mm|HoleSize=0mm|Usage=FLASHONLY|Rotation=225.000|XOffset=0mm|YOffset=0mm|HoleType=Round|Shape=Rectangle|*
%AMROTATEDRECTD70*
4,1,4,-0.1347,1.3919,1.3919,-0.1347,0.1347,-1.3919,-1.3919,0.1347,-0.1347,1.3919,0.0*
%
%ADD70ROTATEDRECTD70*%

%ADD71C,0.8000*%
%ADD72C,1.0000*%
%ADD73C,0.5000*%
%ADD74C,0.2000*%
%ADD75C,0.4000*%
%ADD76C,0.6000*%
%ADD77C,0.3000*%
%ADD78C,0.2500*%
%ADD79C,1.0000*%
%ADD80C,7.0000*%
%ADD81C,0.5000*%
%ADD82C,2.0000*%
%ADD83C,1.9000*%
%ADD84C,3.5000*%
%ADD85C,0.5500*%
%ADD86C,0.8000*%
G36*
X711614Y32241D02*
X714895Y28960D01*
X714270Y27789D01*
X714000Y27843D01*
X712147Y27474D01*
X710575Y26425D01*
X709526Y24853D01*
X709157Y23000D01*
X709526Y21147D01*
X710575Y19575D01*
X712147Y18526D01*
X713703Y18216D01*
X714239Y17382D01*
X714376Y16937D01*
X714174Y16635D01*
X713941Y15465D01*
X713174Y14500D01*
X711825D01*
Y5770D01*
X711825Y5500D01*
Y4500D01*
X711825Y4230D01*
Y-4500D01*
X710762Y-5000D01*
X707500Y-5000D01*
X706230Y-5000D01*
X704238D01*
X703175Y-4500D01*
Y4225D01*
X704099Y5336D01*
X705000Y5157D01*
X706853Y5526D01*
X708425Y6575D01*
X709474Y8147D01*
X709843Y10000D01*
X709474Y11853D01*
X708425Y13425D01*
X706853Y14474D01*
X705000Y14843D01*
X704330Y14710D01*
X703175Y14500D01*
X702395Y15447D01*
X702223Y15770D01*
X702474Y16147D01*
X702843Y18000D01*
X702474Y19853D01*
X701425Y21425D01*
X701059Y21669D01*
Y23482D01*
X709977Y32399D01*
X711614Y32241D01*
D02*
G37*
G36*
X407000Y-280000D02*
X369000D01*
Y275000D01*
X407000D01*
Y-280000D01*
D02*
G37*
G36*
X265000Y250000D02*
X260000Y245000D01*
X235000Y245000D01*
X230000Y250000D01*
Y296941D01*
X265000D01*
X265000Y250000D01*
D02*
G37*
G36*
X815000Y-170000D02*
X815000Y-240000D01*
X825000Y-250000D01*
X825000Y-296941D01*
X675000D01*
X675000Y-170000D01*
X685000Y-160000D01*
X805000Y-160000D01*
X815000Y-170000D01*
D02*
G37*
G36*
X1356131Y296572D02*
X1362158Y295373D01*
X1367976Y293398D01*
X1373487Y290680D01*
X1378596Y287267D01*
X1383215Y283215D01*
X1387267Y278596D01*
X1390680Y273487D01*
X1393398Y267976D01*
X1395373Y262158D01*
X1396572Y256131D01*
X1396966Y250122D01*
X1396941Y250000D01*
Y-250000D01*
X1396966Y-250122D01*
X1396572Y-256131D01*
X1395373Y-262158D01*
X1393398Y-267976D01*
X1390680Y-273487D01*
X1387267Y-278596D01*
X1383215Y-283215D01*
X1378596Y-287267D01*
X1373487Y-290680D01*
X1367976Y-293398D01*
X1362158Y-295373D01*
X1356131Y-296572D01*
X1350122Y-296966D01*
X1350000Y-296941D01*
X834000D01*
X834000Y-244000D01*
X825000Y-235000D01*
Y-165000D01*
X810000Y-150000D01*
X680000Y-150000D01*
X665000Y-165000D01*
X665000Y-296941D01*
X550000D01*
Y-252348D01*
X552750D01*
X554701Y-251960D01*
X556355Y-250855D01*
X559605Y-247605D01*
X560710Y-245951D01*
X561098Y-244000D01*
Y-138633D01*
X562368Y-137954D01*
X563147Y-138474D01*
X565000Y-138843D01*
X566853Y-138474D01*
X568424Y-137425D01*
X569474Y-135853D01*
X569843Y-134000D01*
X569474Y-132147D01*
X568424Y-130576D01*
X566853Y-129526D01*
X565000Y-129157D01*
X563147Y-129526D01*
X562368Y-130046D01*
X561098Y-129367D01*
Y-90112D01*
X562112Y-89098D01*
X600000D01*
X601951Y-88710D01*
X603605Y-87605D01*
X620612Y-70598D01*
X627180D01*
X628127Y-71868D01*
X627902Y-73000D01*
Y-74556D01*
X627104Y-75596D01*
X626424Y-77238D01*
X626192Y-79000D01*
X626424Y-80762D01*
X626742Y-81529D01*
X625699Y-82330D01*
X625404Y-82104D01*
X623762Y-81424D01*
X622000Y-81192D01*
X620238Y-81424D01*
X618596Y-82104D01*
X617186Y-83186D01*
X616104Y-84596D01*
X615424Y-86238D01*
X615192Y-88000D01*
X615424Y-89762D01*
X616104Y-91404D01*
X617186Y-92814D01*
X618596Y-93896D01*
X620238Y-94576D01*
X622000Y-94808D01*
X623762Y-94576D01*
X625404Y-93896D01*
X626444Y-93098D01*
X652000D01*
X653951Y-92710D01*
X655605Y-91605D01*
X664605Y-82605D01*
X665710Y-80951D01*
X666098Y-79000D01*
Y-64000D01*
X665789Y-62445D01*
X665787Y-62353D01*
X666370Y-61438D01*
X666653Y-61175D01*
X674230D01*
X674500Y-61175D01*
X675500D01*
X675770Y-61175D01*
X684500D01*
Y-61175D01*
X685770Y-60598D01*
X687000Y-60843D01*
X688230Y-60598D01*
X689500Y-61175D01*
Y-61175D01*
X698500D01*
Y-51175D01*
Y-40825D01*
X689500D01*
Y-40825D01*
X688230Y-41402D01*
X687000Y-41157D01*
X685770Y-41402D01*
X684500Y-40825D01*
Y-40825D01*
X675770D01*
X675500Y-40825D01*
X674500Y-40173D01*
Y-31175D01*
Y-25826D01*
X679151Y-21175D01*
X684500D01*
Y-11175D01*
Y-1175D01*
Y9175D01*
X684500D01*
Y9825D01*
X684500D01*
Y21941D01*
X691000D01*
X691000Y21941D01*
X692170Y22174D01*
X693163Y22837D01*
X693768Y23442D01*
X694941Y22956D01*
Y21669D01*
X694575Y21425D01*
X693526Y19853D01*
X693157Y18000D01*
X693526Y16147D01*
X693777Y15770D01*
X693098Y14500D01*
X692825D01*
Y5770D01*
X692825Y5500D01*
Y4500D01*
X692825Y4230D01*
Y-4500D01*
X691762Y-5000D01*
X688500D01*
Y-20000D01*
X706230D01*
X707500Y-20000D01*
X708770Y-20000D01*
X726500D01*
Y-5000D01*
X723238D01*
X722175Y-4500D01*
Y4230D01*
X722175Y4500D01*
Y5500D01*
X722175Y5770D01*
Y14500D01*
X722021D01*
X721535Y15673D01*
X724858Y18997D01*
X728776Y15079D01*
X735939Y7916D01*
X740889Y12865D01*
X745839Y17815D01*
X745364Y18290D01*
X746620Y19546D01*
X748147Y18526D01*
X750000Y18157D01*
X751853Y18526D01*
X753425Y19575D01*
X754474Y21147D01*
X754843Y23000D01*
X754474Y24853D01*
X753425Y26425D01*
X751853Y27474D01*
X750000Y27843D01*
X749677Y27779D01*
X748779Y28677D01*
X748843Y29000D01*
X748474Y30853D01*
X747425Y32424D01*
X745853Y33474D01*
X744000Y33843D01*
X743070Y33658D01*
X741960Y33967D01*
X741726Y34587D01*
X741474Y35853D01*
X740425Y37425D01*
X738853Y38474D01*
X737000Y38843D01*
X735863Y38617D01*
X734770Y39634D01*
X734843Y40000D01*
X734474Y41853D01*
X733425Y43425D01*
X731853Y44474D01*
X730000Y44843D01*
X729677Y44779D01*
X728779Y45677D01*
X728843Y46000D01*
X728474Y47853D01*
X727425Y49425D01*
X725853Y50474D01*
X724000Y50843D01*
X723677Y50779D01*
X722779Y51677D01*
X722843Y52000D01*
X722474Y53853D01*
X721425Y55425D01*
X719853Y56474D01*
X718861Y56672D01*
X718593Y58020D01*
X719425Y58575D01*
X720474Y60147D01*
X720843Y62000D01*
X720770Y62366D01*
X721863Y63383D01*
X723000Y63157D01*
X724853Y63526D01*
X726425Y64575D01*
X727474Y66147D01*
X727843Y68000D01*
X727474Y69853D01*
X726425Y71424D01*
X726059Y71669D01*
Y73322D01*
X726059Y73322D01*
X725826Y74493D01*
X725163Y75485D01*
X724151Y76497D01*
X724626Y76972D01*
X719676Y81922D01*
X714726Y86871D01*
X714252Y86397D01*
X712983Y87665D01*
X713306Y87987D01*
X705987Y95306D01*
X699623Y88942D01*
X702381Y86184D01*
X701895Y85010D01*
X690315D01*
X685163Y90163D01*
X684500Y90606D01*
Y93175D01*
X682151D01*
X677163Y98163D01*
X676171Y98826D01*
X675771Y98905D01*
X675425Y99425D01*
X673853Y100474D01*
X672000Y100843D01*
X670147Y100474D01*
X668575Y99425D01*
X667526Y97853D01*
X667157Y96000D01*
X667466Y94445D01*
X666764Y93175D01*
X665500D01*
Y93175D01*
X664230Y92598D01*
X663000Y92843D01*
X661147Y92474D01*
X659575Y91425D01*
X658526Y89853D01*
X658157Y88000D01*
X658526Y86147D01*
X659575Y84575D01*
X661147Y83526D01*
X663000Y83157D01*
X664230Y83402D01*
X665500Y82825D01*
Y82825D01*
X674499D01*
X674707Y82690D01*
X675500Y82173D01*
Y72445D01*
X675500Y71827D01*
X674706Y71309D01*
X674499Y71175D01*
X674230Y71175D01*
X665500D01*
Y71175D01*
X664230Y70598D01*
X663000Y70843D01*
X661147Y70474D01*
X659575Y69425D01*
X658526Y67853D01*
X658157Y66000D01*
X658526Y64147D01*
X659575Y62575D01*
X661147Y61526D01*
X663000Y61157D01*
X664230Y61402D01*
X665500Y60825D01*
Y60825D01*
X674230D01*
X674500Y60825D01*
X675500Y60173D01*
Y51445D01*
X675500Y50827D01*
X674707Y50310D01*
X674499Y50175D01*
X665500D01*
Y50175D01*
X664230Y49598D01*
X663000Y49843D01*
X661147Y49474D01*
X659575Y48425D01*
X659331Y48059D01*
X659000D01*
X657830Y47826D01*
X656837Y47163D01*
X654837Y45163D01*
X654174Y44170D01*
X653941Y43000D01*
X653941Y43000D01*
Y38267D01*
X653424Y37750D01*
X641500D01*
Y26250D01*
Y16250D01*
Y15770D01*
X649750D01*
Y13230D01*
X641500D01*
Y10770D01*
X649750D01*
Y8230D01*
X641500D01*
Y6250D01*
Y5770D01*
X649750D01*
Y3230D01*
X641500D01*
Y770D01*
X649750D01*
Y-1770D01*
X641500D01*
Y-3750D01*
Y-13750D01*
Y-23750D01*
Y-24230D01*
X649750D01*
Y-26770D01*
X641500D01*
Y-36396D01*
X640230Y-36781D01*
X639425Y-35575D01*
X637853Y-34526D01*
X636000Y-34157D01*
X634147Y-34526D01*
X632575Y-35575D01*
X631526Y-37147D01*
X631157Y-39000D01*
X631526Y-40853D01*
X632575Y-42425D01*
Y-43576D01*
X631526Y-45147D01*
X631157Y-47000D01*
X631526Y-48853D01*
X632575Y-50425D01*
X634147Y-51474D01*
X636000Y-51843D01*
X637853Y-51474D01*
X639425Y-50425D01*
X640230Y-49219D01*
X641500Y-49604D01*
Y-55250D01*
X639500D01*
Y-60402D01*
X618500D01*
X616549Y-60790D01*
X614895Y-61895D01*
X607189Y-69601D01*
X606112Y-68882D01*
X606576Y-67762D01*
X606808Y-66000D01*
X606576Y-64238D01*
X605896Y-62596D01*
X604814Y-61186D01*
X603404Y-60104D01*
X601762Y-59424D01*
X601288Y-59361D01*
X600488Y-57975D01*
X600576Y-57762D01*
X600808Y-56000D01*
X600576Y-54238D01*
X600488Y-54025D01*
X601288Y-52639D01*
X601762Y-52576D01*
X603404Y-51896D01*
X604814Y-50814D01*
X605896Y-49404D01*
X606576Y-47762D01*
X606808Y-46000D01*
X606576Y-44238D01*
X605896Y-42596D01*
X604814Y-41186D01*
X603404Y-40104D01*
X601762Y-39424D01*
X601288Y-39361D01*
X600488Y-37975D01*
X600576Y-37762D01*
X600808Y-36000D01*
X600576Y-34238D01*
X600488Y-34025D01*
X601288Y-32639D01*
X601762Y-32576D01*
X603404Y-31896D01*
X604814Y-30814D01*
X605896Y-29404D01*
X606576Y-27762D01*
X606808Y-26000D01*
X606576Y-24238D01*
X605896Y-22596D01*
X604814Y-21186D01*
X603404Y-20104D01*
X601762Y-19424D01*
X601288Y-19361D01*
X600488Y-17975D01*
X600576Y-17762D01*
X600808Y-16000D01*
X600576Y-14238D01*
X600488Y-14025D01*
X601288Y-12639D01*
X601762Y-12576D01*
X603404Y-11896D01*
X604814Y-10814D01*
X605896Y-9404D01*
X606576Y-7762D01*
X606808Y-6000D01*
X606576Y-4238D01*
X605896Y-2596D01*
X604814Y-1186D01*
X603404Y-104D01*
X601762Y576D01*
X601288Y639D01*
X600488Y2025D01*
X600576Y2238D01*
X600808Y4000D01*
X600576Y5762D01*
X600488Y5975D01*
X601288Y7361D01*
X601762Y7424D01*
X603404Y8104D01*
X604814Y9186D01*
X605896Y10596D01*
X606576Y12238D01*
X606808Y14000D01*
X606576Y15762D01*
X605896Y17404D01*
X604814Y18814D01*
X603404Y19896D01*
X601762Y20576D01*
X601288Y20639D01*
X600488Y22025D01*
X600576Y22238D01*
X600808Y24000D01*
X600576Y25762D01*
X599896Y27404D01*
X598814Y28814D01*
X597404Y29896D01*
X595762Y30576D01*
X594000Y30808D01*
X592238Y30576D01*
X591802Y30396D01*
X590796Y31068D01*
Y32368D01*
X591558Y32878D01*
X592774Y34697D01*
X593201Y36843D01*
Y51657D01*
X592774Y53803D01*
X591558Y55622D01*
X590750Y56431D01*
Y73000D01*
X587368D01*
Y78000D01*
X608000D01*
Y80883D01*
X611750D01*
Y79500D01*
X628250D01*
Y80883D01*
X636750D01*
Y79500D01*
X653250D01*
Y96000D01*
X636750D01*
Y93118D01*
X628250D01*
Y96000D01*
X627000D01*
Y116000D01*
X628270Y116000D01*
X648000D01*
Y117108D01*
X648955Y117946D01*
X649000Y117940D01*
X656000D01*
X657827Y118180D01*
X659530Y118885D01*
X660993Y120008D01*
X662114Y121470D01*
X662820Y123173D01*
X663060Y125000D01*
X662820Y126827D01*
X662114Y128530D01*
X660993Y129993D01*
X659530Y131115D01*
X657827Y131820D01*
X656000Y132060D01*
X649000D01*
X648955Y132054D01*
X648000Y132892D01*
Y134000D01*
X612000D01*
Y123817D01*
X611348Y122841D01*
X610882Y120500D01*
Y116000D01*
X607000D01*
X607000Y96000D01*
X605730Y96000D01*
X576436D01*
X575541Y96901D01*
X576036Y181137D01*
X573800Y183000D01*
X555000Y183000D01*
X553000Y185000D01*
X553000Y265000D01*
X650000Y265000D01*
X655000Y270000D01*
Y296941D01*
X1350000D01*
X1350122Y296966D01*
X1356131Y296572D01*
D02*
G37*
G36*
X50000Y296941D02*
X189998D01*
X189998Y249998D01*
X180000Y240000D01*
X160000Y220000D01*
Y-220000D01*
X180000Y-240000D01*
X190000Y-250000D01*
X190000Y-296941D01*
X50000D01*
X49878Y-296966D01*
X43869Y-296572D01*
X37842Y-295373D01*
X32024Y-293398D01*
X26513Y-290680D01*
X21404Y-287267D01*
X16785Y-283215D01*
X12733Y-278596D01*
X9320Y-273487D01*
X6602Y-267976D01*
X4627Y-262158D01*
X3428Y-256131D01*
X3034Y-250122D01*
X3059Y-250000D01*
Y-50000D01*
X40000D01*
Y50000D01*
X3059D01*
Y250000D01*
X3034Y250122D01*
X3428Y256131D01*
X4627Y262158D01*
X6602Y267976D01*
X9320Y273487D01*
X12733Y278596D01*
X16785Y283215D01*
X21404Y287267D01*
X26513Y290680D01*
X32024Y293398D01*
X37842Y295373D01*
X43869Y296572D01*
X49878Y296966D01*
X50000Y296941D01*
D02*
G37*
G36*
X260000Y-245000D02*
X265000Y-250000D01*
X265000Y-296941D01*
X230000D01*
Y-250000D01*
X235000Y-245000D01*
X260000Y-245000D01*
D02*
G37*
%LPC*%
G36*
X725669Y-174598D02*
Y-187730D01*
X732469D01*
Y-182500D01*
X732194Y-180412D01*
X731388Y-178465D01*
X730106Y-176794D01*
X728435Y-175512D01*
X726488Y-174706D01*
X725669Y-174598D01*
D02*
G37*
G36*
X700620Y-175304D02*
Y-183480D01*
X704499D01*
Y-180200D01*
X704107Y-178230D01*
X702991Y-176559D01*
X701320Y-175443D01*
X700620Y-175304D01*
D02*
G37*
G36*
X698080Y-175304D02*
X697380Y-175443D01*
X695709Y-176559D01*
X694593Y-178230D01*
X694201Y-180200D01*
Y-183480D01*
X698080D01*
Y-175304D01*
D02*
G37*
G36*
X723130Y-174598D02*
X722312Y-174706D01*
X720366Y-175512D01*
X718694Y-176794D01*
X717412Y-178465D01*
X716606Y-180412D01*
X716331Y-182500D01*
Y-187730D01*
X723130D01*
Y-174598D01*
D02*
G37*
G36*
X732469Y-190270D02*
X725669D01*
Y-203402D01*
X726488Y-203294D01*
X728435Y-202488D01*
X730106Y-201206D01*
X731388Y-199534D01*
X732194Y-197588D01*
X732469Y-195500D01*
Y-190270D01*
D02*
G37*
G36*
X775200Y-174431D02*
X773112Y-174706D01*
X771165Y-175512D01*
X769494Y-176794D01*
X768212Y-178465D01*
X767406Y-180412D01*
X767131Y-182500D01*
Y-195500D01*
X767406Y-197588D01*
X768212Y-199534D01*
X769494Y-201206D01*
X771165Y-202488D01*
X773112Y-203294D01*
X772854Y-204500D01*
X766547D01*
X757831Y-195785D01*
X757869Y-195500D01*
Y-182500D01*
X757594Y-180412D01*
X756788Y-178465D01*
X755506Y-176794D01*
X753835Y-175512D01*
X751888Y-174706D01*
X749800Y-174431D01*
X747712Y-174706D01*
X745766Y-175512D01*
X744094Y-176794D01*
X742812Y-178465D01*
X742006Y-180412D01*
X741731Y-182500D01*
Y-195500D01*
X742006Y-197588D01*
X742812Y-199534D01*
X744094Y-201206D01*
X745766Y-202488D01*
X747712Y-203294D01*
X749800Y-203569D01*
X751888Y-203294D01*
X753835Y-202488D01*
X754178Y-202225D01*
X761500Y-209547D01*
Y-218500D01*
X767546D01*
X768402Y-219770D01*
X768157Y-221000D01*
X768526Y-222853D01*
X769575Y-224424D01*
X771147Y-225474D01*
X773000Y-225843D01*
X774853Y-225474D01*
X776425Y-224424D01*
X777294Y-223123D01*
X777761Y-223021D01*
X778239D01*
X778706Y-223123D01*
X779576Y-224424D01*
X781147Y-225474D01*
X783000Y-225843D01*
X784853Y-225474D01*
X786425Y-224424D01*
X787474Y-222853D01*
X787843Y-221000D01*
X787598Y-219770D01*
X788454Y-218500D01*
X794500D01*
Y-204500D01*
X785547D01*
X781490Y-200444D01*
X782188Y-199534D01*
X782994Y-197588D01*
X783269Y-195500D01*
Y-182500D01*
X782994Y-180412D01*
X782188Y-178465D01*
X780906Y-176794D01*
X779234Y-175512D01*
X777288Y-174706D01*
X775200Y-174431D01*
D02*
G37*
G36*
X800600D02*
X798512Y-174706D01*
X796565Y-175512D01*
X794894Y-176794D01*
X793612Y-178465D01*
X792806Y-180412D01*
X792531Y-182500D01*
Y-195500D01*
X792806Y-197588D01*
X793612Y-199534D01*
X794894Y-201206D01*
X796565Y-202488D01*
X797231Y-202764D01*
Y-207500D01*
X795825D01*
Y-216500D01*
X806175D01*
Y-216500D01*
X806195Y-216484D01*
X808000Y-216843D01*
X809853Y-216474D01*
X811425Y-215425D01*
X812474Y-213853D01*
X812843Y-212000D01*
X812474Y-210147D01*
X811425Y-208575D01*
X809853Y-207526D01*
X808000Y-207157D01*
X806195Y-207516D01*
X806175Y-207500D01*
Y-207500D01*
X804369D01*
Y-202598D01*
X804634Y-202488D01*
X806306Y-201206D01*
X807588Y-199534D01*
X808394Y-197588D01*
X808669Y-195500D01*
Y-182500D01*
X808394Y-180412D01*
X807588Y-178465D01*
X806306Y-176794D01*
X804634Y-175512D01*
X802688Y-174706D01*
X800600Y-174431D01*
D02*
G37*
G36*
X698080Y-186020D02*
X694201D01*
Y-189300D01*
X694593Y-191270D01*
X695709Y-192941D01*
X697380Y-194057D01*
X698080Y-194196D01*
Y-186020D01*
D02*
G37*
G36*
X704499D02*
X700620D01*
Y-194196D01*
X701320Y-194057D01*
X702991Y-192941D01*
X704107Y-191270D01*
X704499Y-189300D01*
Y-186020D01*
D02*
G37*
G36*
X723130Y-190270D02*
X716331D01*
Y-195500D01*
X716606Y-197588D01*
X717412Y-199534D01*
X718694Y-201206D01*
X720366Y-202488D01*
X722312Y-203294D01*
X723130Y-203402D01*
Y-190270D01*
D02*
G37*
G36*
X691700Y-175150D02*
X681600D01*
Y-194350D01*
X683591D01*
Y-210650D01*
X683591Y-210650D01*
X683824Y-211821D01*
X684487Y-212813D01*
X686337Y-214663D01*
X687329Y-215326D01*
X688500Y-215559D01*
X688500Y-215559D01*
X694000D01*
Y-220000D01*
X708000D01*
Y-205000D01*
X694000D01*
Y-209441D01*
X689767D01*
X689709Y-209383D01*
Y-194350D01*
X691700D01*
Y-175150D01*
D02*
G37*
G36*
X708000Y-222000D02*
X694000D01*
Y-237000D01*
X697941D01*
Y-243000D01*
X697941Y-243000D01*
X698174Y-244170D01*
X698837Y-245163D01*
X701337Y-247663D01*
X701337Y-247663D01*
X702329Y-248326D01*
X703500Y-248559D01*
X709000D01*
Y-255500D01*
X711431D01*
Y-266000D01*
X711703Y-267366D01*
X712477Y-268523D01*
X715477Y-271523D01*
X716634Y-272297D01*
X718000Y-272569D01*
X761000D01*
X762366Y-272297D01*
X763523Y-271523D01*
X767523Y-267523D01*
X768297Y-266366D01*
X768569Y-265000D01*
Y-263209D01*
X769474Y-261853D01*
X769843Y-260000D01*
X769474Y-258147D01*
X768425Y-256575D01*
X766853Y-255526D01*
X765000Y-255157D01*
X763147Y-255526D01*
X761575Y-256575D01*
X760526Y-258147D01*
X760157Y-260000D01*
X760526Y-261853D01*
X761431Y-263209D01*
Y-263522D01*
X759522Y-265431D01*
X751707D01*
X751322Y-264161D01*
X752425Y-263424D01*
X753474Y-261853D01*
X753792Y-260254D01*
X755023Y-259023D01*
X755797Y-257866D01*
X756069Y-256500D01*
Y-255500D01*
X758500D01*
Y-235500D01*
X746500D01*
Y-235500D01*
X746000D01*
Y-235500D01*
X734770D01*
X734000Y-235500D01*
X732730Y-235500D01*
X731069D01*
Y-230500D01*
X730797Y-229134D01*
X730500Y-228690D01*
Y-223825D01*
X721500D01*
Y-234175D01*
X722562D01*
X723088Y-235445D01*
X723033Y-235500D01*
X721500Y-235500D01*
X720230Y-235500D01*
X709000D01*
X708000Y-234848D01*
Y-222000D01*
D02*
G37*
G36*
X828980Y-162270D02*
X826500D01*
Y-171000D01*
X828980D01*
Y-162270D01*
D02*
G37*
G36*
X732469Y-100270D02*
X725670D01*
Y-113402D01*
X726488Y-113294D01*
X728435Y-112488D01*
X730106Y-111206D01*
X731388Y-109535D01*
X732194Y-107588D01*
X732469Y-105500D01*
Y-100270D01*
D02*
G37*
G36*
X700620Y-111804D02*
Y-119980D01*
X704499D01*
Y-116700D01*
X704107Y-114730D01*
X702991Y-113059D01*
X701320Y-111943D01*
X700620Y-111804D01*
D02*
G37*
G36*
X698080Y-111804D02*
X697380Y-111943D01*
X695709Y-113059D01*
X694593Y-114730D01*
X694201Y-116700D01*
Y-119980D01*
X698080D01*
Y-111804D01*
D02*
G37*
G36*
X607000Y-93157D02*
X605147Y-93526D01*
X603576Y-94576D01*
X602526Y-96147D01*
X602157Y-98000D01*
X602526Y-99853D01*
X603576Y-101425D01*
X605147Y-102474D01*
X607000Y-102843D01*
X608853Y-102474D01*
X610425Y-101425D01*
X611474Y-99853D01*
X611843Y-98000D01*
X611474Y-96147D01*
X610425Y-94576D01*
X608853Y-93526D01*
X607000Y-93157D01*
D02*
G37*
G36*
X813000Y-58902D02*
X811049Y-59290D01*
X809395Y-60395D01*
X806533Y-63257D01*
X805500Y-63825D01*
Y-63825D01*
X805500Y-63825D01*
X796500D01*
Y-74175D01*
Y-84175D01*
X795365Y-84500D01*
X792600D01*
Y-113500D01*
X808600D01*
Y-105098D01*
X814501D01*
X814886Y-106368D01*
X814575Y-106575D01*
X813526Y-108147D01*
X813157Y-110000D01*
X813526Y-111853D01*
X814445Y-113229D01*
X810733Y-116941D01*
X719000D01*
X719000Y-116941D01*
X717830Y-117174D01*
X716837Y-117837D01*
X716837Y-117837D01*
X714837Y-119837D01*
X714174Y-120829D01*
X713941Y-122000D01*
X713941Y-122000D01*
Y-136733D01*
X712733Y-137941D01*
X691267D01*
X689709Y-136383D01*
Y-129830D01*
X690291Y-129441D01*
X691407Y-127770D01*
X691799Y-125800D01*
Y-116700D01*
X691407Y-114730D01*
X690291Y-113059D01*
X689964Y-112840D01*
Y-110723D01*
X690936Y-109750D01*
X699500D01*
Y-107101D01*
X700018Y-106775D01*
X700770Y-106555D01*
X702147Y-107474D01*
X704000Y-107843D01*
X705853Y-107474D01*
X707424Y-106425D01*
X708474Y-104853D01*
X708843Y-103000D01*
X708474Y-101147D01*
X707569Y-99791D01*
Y-94000D01*
X707297Y-92634D01*
X706523Y-91477D01*
X706069Y-91022D01*
Y-89750D01*
X709000D01*
Y-76250D01*
X706069D01*
Y-74500D01*
X705797Y-73134D01*
X705023Y-71977D01*
X702500Y-69453D01*
Y-64825D01*
X693500D01*
Y-75175D01*
X695529D01*
X696000Y-76250D01*
X696000D01*
Y-89750D01*
X698931D01*
Y-92500D01*
X699203Y-93866D01*
X699977Y-95023D01*
X700240Y-95286D01*
X699407Y-96250D01*
X686500D01*
Y-104814D01*
X684307Y-107007D01*
X683589Y-108082D01*
X683336Y-109350D01*
Y-112840D01*
X683009Y-113059D01*
X681893Y-114730D01*
X681501Y-116700D01*
Y-116901D01*
X680981Y-117227D01*
X680231Y-117446D01*
X678853Y-116526D01*
X677000Y-116157D01*
X675147Y-116526D01*
X673576Y-117576D01*
X672424D01*
X670853Y-116526D01*
X669000Y-116157D01*
X667147Y-116526D01*
X665575Y-117576D01*
X664526Y-119147D01*
X664169Y-120941D01*
X656000D01*
X654829Y-121174D01*
X653837Y-121837D01*
X650837Y-124837D01*
X650174Y-125829D01*
X649941Y-127000D01*
X649941Y-127000D01*
Y-130500D01*
X642825D01*
Y-139230D01*
X642825Y-139500D01*
Y-140500D01*
X642825Y-140770D01*
Y-149500D01*
X648174D01*
X648941Y-150267D01*
Y-176441D01*
X644750D01*
Y-173000D01*
Y-161000D01*
X635000D01*
Y-151250D01*
X625979D01*
X625593Y-149980D01*
X626425Y-149424D01*
X627474Y-147853D01*
X627843Y-146000D01*
X627474Y-144147D01*
X626425Y-142575D01*
X624853Y-141526D01*
X623000Y-141157D01*
X621147Y-141526D01*
X619576Y-142575D01*
X618424D01*
X616853Y-141526D01*
X616000Y-141356D01*
Y-128000D01*
X601000D01*
Y-142000D01*
X600607Y-142554D01*
X600575Y-142575D01*
X599526Y-144147D01*
X599157Y-146000D01*
X599526Y-147853D01*
X600575Y-149424D01*
X602072Y-150424D01*
X603000Y-151250D01*
Y-161000D01*
X593250D01*
X592569Y-160012D01*
Y-158500D01*
X592297Y-157134D01*
X592000Y-156690D01*
Y-147000D01*
X578000D01*
Y-156690D01*
X577703Y-157134D01*
X577431Y-158500D01*
Y-163431D01*
X576157D01*
X574791Y-163703D01*
X573634Y-164477D01*
X571477Y-166634D01*
X570703Y-167791D01*
X570431Y-169157D01*
Y-173500D01*
X568825D01*
Y-182500D01*
X579173D01*
X579691Y-183294D01*
X579825Y-183501D01*
X579825Y-183770D01*
Y-192500D01*
X579825D01*
X580402Y-193770D01*
X580157Y-195000D01*
X580526Y-196853D01*
X581575Y-198424D01*
X583147Y-199474D01*
X585000Y-199843D01*
X586853Y-199474D01*
X588425Y-198424D01*
X589474Y-196853D01*
X589843Y-195000D01*
X589598Y-193770D01*
X590175Y-192500D01*
X590175D01*
Y-183770D01*
X590175Y-183500D01*
Y-182500D01*
X590175Y-182230D01*
Y-177559D01*
X593250D01*
Y-183000D01*
Y-193000D01*
X603000D01*
Y-202750D01*
X617931D01*
Y-212500D01*
X618203Y-213866D01*
X618977Y-215023D01*
X621477Y-217523D01*
X622634Y-218297D01*
X624000Y-218569D01*
Y-222000D01*
X639000D01*
Y-208000D01*
X625069D01*
Y-202750D01*
X635000D01*
Y-193000D01*
X644750D01*
Y-187559D01*
X656500D01*
X656500Y-187559D01*
X657671Y-187326D01*
X658663Y-186663D01*
X660163Y-185163D01*
X660826Y-184170D01*
X661059Y-183000D01*
X661059Y-183000D01*
Y-150267D01*
X661826Y-149500D01*
X667175D01*
Y-140770D01*
X667175Y-140500D01*
Y-139500D01*
X667175Y-139230D01*
Y-131059D01*
X675000D01*
X675000Y-131059D01*
X676171Y-130826D01*
X677163Y-130163D01*
X679163Y-128163D01*
X679826Y-127170D01*
X680059Y-126000D01*
Y-125827D01*
X680231Y-125630D01*
X680973Y-125729D01*
X681591Y-126254D01*
X681893Y-127770D01*
X683009Y-129441D01*
X683591Y-129830D01*
Y-137650D01*
X683591Y-137650D01*
X683824Y-138821D01*
X684487Y-139813D01*
X687837Y-143163D01*
X687837Y-143163D01*
X688829Y-143826D01*
X690000Y-144059D01*
X714000D01*
X714000Y-144059D01*
X715171Y-143826D01*
X716163Y-143163D01*
X719163Y-140163D01*
X719163Y-140163D01*
X719826Y-139171D01*
X720059Y-138000D01*
X720059Y-138000D01*
Y-123267D01*
X720267Y-123059D01*
X724559D01*
X724945Y-124329D01*
X724575Y-124575D01*
X723526Y-126147D01*
X723157Y-128000D01*
X723526Y-129853D01*
X724575Y-131425D01*
X726147Y-132474D01*
X728000Y-132843D01*
X729853Y-132474D01*
X731424Y-131425D01*
X732474Y-129853D01*
X732843Y-128000D01*
X732474Y-126147D01*
X731424Y-124575D01*
X731055Y-124329D01*
X731441Y-123059D01*
X736559D01*
X736945Y-124329D01*
X736575Y-124575D01*
X735526Y-126147D01*
X735157Y-128000D01*
X735526Y-129853D01*
X736575Y-131425D01*
X738147Y-132474D01*
X740000Y-132843D01*
X741853Y-132474D01*
X743425Y-131425D01*
X744474Y-129853D01*
X744843Y-128000D01*
X744474Y-126147D01*
X743425Y-124575D01*
X743055Y-124329D01*
X743441Y-123059D01*
X812000D01*
X812000Y-123059D01*
X813170Y-122826D01*
X814163Y-122163D01*
X820163Y-116163D01*
X820163Y-116163D01*
X820826Y-115170D01*
X821059Y-114000D01*
X821059Y-114000D01*
Y-113669D01*
X821424Y-113425D01*
X822474Y-111853D01*
X822843Y-110000D01*
X822474Y-108147D01*
X821424Y-106575D01*
X820658Y-106063D01*
X820926Y-104715D01*
X820951Y-104710D01*
X822605Y-103605D01*
X823710Y-101951D01*
X824098Y-100000D01*
X823710Y-98049D01*
X822605Y-96395D01*
X820951Y-95290D01*
X819000Y-94902D01*
X808600D01*
Y-84500D01*
X806635D01*
X805500Y-84175D01*
Y-74797D01*
X805537Y-74723D01*
X806510Y-73919D01*
X806770Y-73853D01*
X808000Y-74098D01*
X809951Y-73710D01*
X811605Y-72605D01*
X816605Y-67605D01*
X817710Y-65951D01*
X818098Y-64000D01*
X817710Y-62049D01*
X816605Y-60395D01*
X814951Y-59290D01*
X813000Y-58902D01*
D02*
G37*
G36*
X723130Y-100270D02*
X716331D01*
Y-105500D01*
X716606Y-107588D01*
X717412Y-109535D01*
X718694Y-111206D01*
X720366Y-112488D01*
X722312Y-113294D01*
X723130Y-113402D01*
Y-100270D01*
D02*
G37*
G36*
X787000Y-127902D02*
X780000D01*
X778049Y-128290D01*
X776395Y-129395D01*
X775290Y-131049D01*
X774902Y-133000D01*
X775290Y-134951D01*
X776395Y-136605D01*
X778049Y-137710D01*
X780000Y-138098D01*
X787000D01*
X788951Y-137710D01*
X790605Y-136605D01*
X791710Y-134951D01*
X792098Y-133000D01*
X791710Y-131049D01*
X790605Y-129395D01*
X788951Y-128290D01*
X787000Y-127902D01*
D02*
G37*
G36*
X828980Y-151000D02*
X826500D01*
Y-159730D01*
X828980D01*
Y-151000D01*
D02*
G37*
G36*
X574000Y-120157D02*
X572147Y-120526D01*
X570575Y-121575D01*
X569526Y-123147D01*
X569157Y-125000D01*
X569526Y-126853D01*
X570575Y-128425D01*
X572147Y-129474D01*
X574000Y-129843D01*
X575853Y-129474D01*
X577425Y-128425D01*
X578474Y-126853D01*
X578843Y-125000D01*
X578474Y-123147D01*
X577425Y-121575D01*
X575853Y-120526D01*
X574000Y-120157D01*
D02*
G37*
G36*
X698080Y-122520D02*
X694201D01*
Y-125800D01*
X694593Y-127770D01*
X695709Y-129441D01*
X697380Y-130557D01*
X698080Y-130696D01*
Y-122520D01*
D02*
G37*
G36*
X704499D02*
X700620D01*
Y-130696D01*
X701320Y-130557D01*
X702991Y-129441D01*
X704107Y-127770D01*
X704499Y-125800D01*
Y-122520D01*
D02*
G37*
G36*
X570000Y-210157D02*
X568147Y-210526D01*
X566575Y-211575D01*
X565526Y-213147D01*
X565157Y-215000D01*
X565526Y-216853D01*
X566575Y-218425D01*
X568147Y-219474D01*
X570000Y-219843D01*
X571853Y-219474D01*
X573425Y-218425D01*
X574474Y-216853D01*
X574843Y-215000D01*
X574474Y-213147D01*
X573425Y-211575D01*
X571853Y-210526D01*
X570000Y-210157D01*
D02*
G37*
G36*
X572980Y-269068D02*
X571248Y-269296D01*
X568450Y-270455D01*
X566048Y-272298D01*
X564205Y-274700D01*
X563046Y-277498D01*
X562818Y-279230D01*
X572980D01*
Y-269068D01*
D02*
G37*
G36*
X900000Y-259896D02*
X896867Y-260309D01*
X893948Y-261518D01*
X891441Y-263442D01*
X889518Y-265948D01*
X888309Y-268867D01*
X887896Y-272000D01*
X888309Y-275133D01*
X889518Y-278052D01*
X891441Y-280558D01*
X893948Y-282482D01*
X896867Y-283691D01*
X900000Y-284104D01*
X903133Y-283691D01*
X906052Y-282482D01*
X908559Y-280558D01*
X910482Y-278052D01*
X911691Y-275133D01*
X912104Y-272000D01*
X911691Y-268867D01*
X910482Y-265948D01*
X908559Y-263442D01*
X906052Y-261518D01*
X903133Y-260309D01*
X900000Y-259896D01*
D02*
G37*
G36*
X585682Y-281770D02*
X575520D01*
Y-291932D01*
X577252Y-291704D01*
X580050Y-290545D01*
X582452Y-288702D01*
X584295Y-286300D01*
X585454Y-283502D01*
X585682Y-281770D01*
D02*
G37*
G36*
X647020Y-269068D02*
Y-279230D01*
X657182D01*
X656954Y-277498D01*
X655795Y-274700D01*
X653952Y-272298D01*
X651550Y-270455D01*
X648752Y-269296D01*
X647020Y-269068D01*
D02*
G37*
G36*
X644480Y-269068D02*
X642748Y-269296D01*
X639950Y-270455D01*
X637548Y-272298D01*
X635705Y-274700D01*
X634546Y-277498D01*
X634318Y-279230D01*
X644480D01*
Y-269068D01*
D02*
G37*
G36*
X575520Y-269068D02*
Y-279230D01*
X585682D01*
X585454Y-277498D01*
X584295Y-274700D01*
X582452Y-272298D01*
X580050Y-270455D01*
X577252Y-269296D01*
X575520Y-269068D01*
D02*
G37*
G36*
X632000Y-281770D02*
X622520D01*
Y-292000D01*
X632000D01*
Y-281770D01*
D02*
G37*
G36*
X597480Y-281770D02*
X588000D01*
Y-292000D01*
X597480D01*
Y-281770D01*
D02*
G37*
G36*
X610500Y-269000D02*
X609500D01*
X609230Y-269000D01*
X600020D01*
Y-280500D01*
Y-292000D01*
X609230D01*
X609500Y-292000D01*
X610500D01*
X610770Y-292000D01*
X619980D01*
Y-280500D01*
Y-269000D01*
X610770D01*
X610500Y-269000D01*
D02*
G37*
G36*
X644480Y-281770D02*
X634318D01*
X634546Y-283502D01*
X635705Y-286300D01*
X637548Y-288702D01*
X639950Y-290545D01*
X642748Y-291704D01*
X644480Y-291932D01*
Y-281770D01*
D02*
G37*
G36*
X657182D02*
X647020D01*
Y-291932D01*
X648752Y-291704D01*
X651550Y-290545D01*
X653952Y-288702D01*
X655795Y-286300D01*
X656954Y-283502D01*
X657182Y-281770D01*
D02*
G37*
G36*
X572980Y-281770D02*
X562818D01*
X563046Y-283502D01*
X564205Y-286300D01*
X566048Y-288702D01*
X568450Y-290545D01*
X571248Y-291704D01*
X572980Y-291932D01*
Y-281770D01*
D02*
G37*
G36*
X900000Y-209896D02*
X896867Y-210309D01*
X893948Y-211518D01*
X891441Y-213442D01*
X889518Y-215948D01*
X888309Y-218867D01*
X887896Y-222000D01*
X888309Y-225133D01*
X889518Y-228052D01*
X891441Y-230558D01*
X893948Y-232482D01*
X896867Y-233691D01*
X900000Y-234104D01*
X903133Y-233691D01*
X906052Y-232482D01*
X908559Y-230558D01*
X910482Y-228052D01*
X911691Y-225133D01*
X912104Y-222000D01*
X911691Y-218867D01*
X910482Y-215948D01*
X908559Y-213442D01*
X906052Y-211518D01*
X903133Y-210309D01*
X900000Y-209896D01*
D02*
G37*
G36*
X641250Y-248950D02*
X634770D01*
Y-256930D01*
X641250D01*
Y-248950D01*
D02*
G37*
G36*
Y-259470D02*
X634770D01*
Y-267450D01*
X641250D01*
Y-259470D01*
D02*
G37*
G36*
X611000Y-220157D02*
X609147Y-220526D01*
X607575Y-221576D01*
X606424D01*
X604853Y-220526D01*
X603000Y-220157D01*
X601147Y-220526D01*
X599575Y-221576D01*
X598526Y-223147D01*
X598157Y-225000D01*
X598260Y-225518D01*
X597454Y-226500D01*
X590500D01*
Y-239747D01*
X590000Y-240157D01*
X588147Y-240526D01*
X587554Y-240922D01*
X584446D01*
X583853Y-240526D01*
X582000Y-240157D01*
X580147Y-240526D01*
X578575Y-241575D01*
X577526Y-243147D01*
X577157Y-245000D01*
X577526Y-246853D01*
X578224Y-247898D01*
X578750Y-248950D01*
Y-256930D01*
X586500D01*
Y-258200D01*
X587770D01*
Y-267450D01*
X594250D01*
Y-263000D01*
X621730D01*
Y-254000D01*
Y-245000D01*
X613059D01*
Y-241267D01*
X613826Y-240500D01*
X623500D01*
Y-226500D01*
X616546D01*
X615740Y-225518D01*
X615843Y-225000D01*
X615474Y-223147D01*
X614425Y-221576D01*
X612853Y-220526D01*
X611000Y-220157D01*
D02*
G37*
G36*
X846000Y-190000D02*
X832000D01*
Y-205000D01*
X835941D01*
Y-207000D01*
X832000D01*
Y-222000D01*
X846000D01*
Y-221059D01*
X847331D01*
X847575Y-221425D01*
X849147Y-222474D01*
X851000Y-222843D01*
X852853Y-222474D01*
X854425Y-221425D01*
X855474Y-219853D01*
X855843Y-218000D01*
X855474Y-216147D01*
X854425Y-214575D01*
X852853Y-213526D01*
X851000Y-213157D01*
X849147Y-213526D01*
X847575Y-214575D01*
X847331Y-214941D01*
X846000D01*
Y-207000D01*
X842059D01*
Y-205000D01*
X846000D01*
Y-190000D01*
D02*
G37*
G36*
X920000Y-267157D02*
X918147Y-267526D01*
X916575Y-268575D01*
X915526Y-270147D01*
X915157Y-272000D01*
X915526Y-273853D01*
X916575Y-275424D01*
X918147Y-276474D01*
X920000Y-276843D01*
X921853Y-276474D01*
X923425Y-275424D01*
X924474Y-273853D01*
X924843Y-272000D01*
X924474Y-270147D01*
X923425Y-268575D01*
X921853Y-267526D01*
X920000Y-267157D01*
D02*
G37*
G36*
X622520Y-269000D02*
Y-279230D01*
X632000D01*
Y-269000D01*
X622520D01*
D02*
G37*
G36*
X597480D02*
X588000D01*
Y-279230D01*
X597480D01*
Y-269000D01*
D02*
G37*
G36*
X627000Y-245000D02*
X624270D01*
Y-254000D01*
Y-263000D01*
X625750D01*
Y-267450D01*
X632230D01*
Y-258200D01*
Y-248950D01*
X627000D01*
Y-245000D01*
D02*
G37*
G36*
X585230Y-259470D02*
X578750D01*
Y-267450D01*
X585230D01*
Y-259470D01*
D02*
G37*
G36*
X846500Y189539D02*
X836500D01*
X836255Y189490D01*
X836005Y189478D01*
X835868Y189414D01*
X835720Y189384D01*
X835512Y189245D01*
X835286Y189138D01*
X835184Y189026D01*
X835058Y188942D01*
X834919Y188734D01*
X834751Y188549D01*
X833306Y186139D01*
X831956Y184339D01*
X830660Y183044D01*
X828924Y181742D01*
X826088Y180324D01*
X825288Y179924D01*
X823625Y179508D01*
X819986Y179053D01*
X815862Y179512D01*
X814212Y179924D01*
X811576Y181242D01*
X809839Y182544D01*
X807119Y185264D01*
X805789Y187482D01*
X805324Y188412D01*
X805124Y188670D01*
X804942Y188942D01*
X804881Y188983D01*
X804836Y189041D01*
X804552Y189202D01*
X804280Y189384D01*
X804209Y189398D01*
X804145Y189435D01*
X803820Y189475D01*
X803500Y189539D01*
X793500D01*
X792720Y189384D01*
X792058Y188942D01*
X791616Y188280D01*
X791461Y187500D01*
Y177000D01*
X791500Y176803D01*
Y165500D01*
X848500D01*
Y174132D01*
X853250D01*
X855591Y174598D01*
X856428Y175157D01*
X857536Y174936D01*
X858168Y174515D01*
X858331Y174132D01*
X858427Y173722D01*
X858502Y173068D01*
X857348Y171341D01*
X856882Y169000D01*
Y159000D01*
X850000D01*
Y137000D01*
X870000D01*
Y137000D01*
X871000D01*
Y137000D01*
X883691D01*
Y134000D01*
X879250D01*
Y116000D01*
X883691D01*
Y113000D01*
X879250D01*
Y95000D01*
X894250D01*
Y113000D01*
X889809D01*
Y116000D01*
X894250D01*
Y134000D01*
X889809D01*
Y137000D01*
X891000D01*
Y159000D01*
X871000D01*
Y159000D01*
X870387D01*
X869118Y159904D01*
Y169000D01*
X868652Y171341D01*
X867941Y172406D01*
X868059Y173000D01*
X868059Y173000D01*
Y176009D01*
X868198Y176710D01*
Y183790D01*
X868007Y184750D01*
X867464Y185564D01*
X866650Y186107D01*
X865690Y186298D01*
X864310D01*
X863350Y186107D01*
X862500Y185586D01*
X861650Y186107D01*
X860690Y186298D01*
X859310D01*
X858350Y186107D01*
X857536Y185564D01*
X856428Y185343D01*
X855591Y185902D01*
X853250Y186367D01*
X848539D01*
Y187500D01*
X848384Y188280D01*
X847942Y188942D01*
X847280Y189384D01*
X846500Y189539D01*
D02*
G37*
G36*
X610000Y169843D02*
X608147Y169474D01*
X606575Y168425D01*
X605706Y167123D01*
X605239Y167021D01*
X604761D01*
X604294Y167123D01*
X603424Y168425D01*
X601853Y169474D01*
X600000Y169843D01*
X598147Y169474D01*
X596575Y168425D01*
X595526Y166853D01*
X595157Y165000D01*
X595526Y163147D01*
X596575Y161575D01*
X598147Y160526D01*
X600000Y160157D01*
X601853Y160526D01*
X603424Y161575D01*
X604294Y162877D01*
X604761Y162979D01*
X605239D01*
X605706Y162877D01*
X606575Y161575D01*
X608147Y160526D01*
X610000Y160157D01*
X611853Y160526D01*
X613425Y161575D01*
X614474Y163147D01*
X614843Y165000D01*
X614474Y166853D01*
X613425Y168425D01*
X611853Y169474D01*
X610000Y169843D01*
D02*
G37*
G36*
X1150000Y241359D02*
X1144602Y241005D01*
X1139296Y239949D01*
X1134173Y238210D01*
X1129321Y235818D01*
X1124822Y232812D01*
X1120755Y229245D01*
X1117188Y225177D01*
X1114183Y220679D01*
X1111790Y215827D01*
X1110051Y210704D01*
X1108995Y205398D01*
X1108642Y200000D01*
X1108995Y194602D01*
X1110051Y189296D01*
X1111790Y184173D01*
X1114183Y179321D01*
X1117188Y174823D01*
X1120755Y170755D01*
X1124822Y167188D01*
X1129321Y164182D01*
X1134173Y161790D01*
X1139296Y160051D01*
X1144602Y158995D01*
X1150000Y158642D01*
X1155398Y158995D01*
X1160704Y160051D01*
X1165827Y161790D01*
X1170679Y164182D01*
X1175178Y167188D01*
X1179245Y170755D01*
X1182812Y174823D01*
X1185818Y179321D01*
X1188210Y184173D01*
X1189949Y189296D01*
X1191005Y194602D01*
X1191359Y200000D01*
X1191005Y205398D01*
X1189949Y210704D01*
X1188210Y215827D01*
X1185818Y220679D01*
X1182812Y225177D01*
X1179245Y229245D01*
X1175178Y232812D01*
X1170679Y235818D01*
X1165827Y238210D01*
X1160704Y239949D01*
X1155398Y241005D01*
X1150000Y241359D01*
D02*
G37*
G36*
X745000Y203098D02*
X743049Y202710D01*
X741697Y201806D01*
X740424Y201425D01*
X738853Y202474D01*
X737000Y202843D01*
X735147Y202474D01*
X733576Y201425D01*
X732424D01*
X730853Y202474D01*
X729000Y202843D01*
X727147Y202474D01*
X725575Y201425D01*
X724425D01*
X722853Y202474D01*
X721000Y202843D01*
X719147Y202474D01*
X717576Y201425D01*
X717331Y201059D01*
X710000D01*
X710000Y201059D01*
X708829Y200826D01*
X707837Y200163D01*
X705337Y197663D01*
X704674Y196670D01*
X704441Y195500D01*
X704441Y195500D01*
Y187500D01*
X701500D01*
Y170500D01*
X713500D01*
Y170500D01*
X714000D01*
Y170500D01*
X725230D01*
X726000Y170500D01*
Y170500D01*
X726500D01*
Y170500D01*
X738500D01*
Y170500D01*
X739000D01*
Y170500D01*
X751000D01*
Y187500D01*
X750098D01*
Y198000D01*
X749710Y199951D01*
X748605Y201605D01*
X746951Y202710D01*
X745000Y203098D01*
D02*
G37*
G36*
X610000Y205843D02*
X608147Y205474D01*
X606575Y204425D01*
X605526Y202853D01*
X605157Y201000D01*
X605526Y199147D01*
X606575Y197575D01*
Y196425D01*
X605526Y194853D01*
X605157Y193000D01*
X605526Y191147D01*
X606575Y189575D01*
X608147Y188526D01*
X610000Y188157D01*
X611853Y188526D01*
X613425Y189575D01*
X614474Y191147D01*
X614843Y193000D01*
X614474Y194853D01*
X613425Y196425D01*
Y197575D01*
X614474Y199147D01*
X614843Y201000D01*
X614474Y202853D01*
X613425Y204425D01*
X611853Y205474D01*
X610000Y205843D01*
D02*
G37*
G36*
X905000Y189000D02*
X890000D01*
Y184059D01*
X886000D01*
X886000Y184059D01*
X884829Y183826D01*
X884468Y183584D01*
X884071Y183649D01*
X883117Y184197D01*
X883007Y184750D01*
X882464Y185564D01*
X881650Y186107D01*
X880690Y186298D01*
X879310D01*
X878350Y186107D01*
X877500Y185586D01*
X876650Y186107D01*
X875690Y186298D01*
X874310D01*
X873350Y186107D01*
X872536Y185564D01*
X871993Y184750D01*
X871802Y183790D01*
Y176710D01*
X871941Y176009D01*
Y173000D01*
X871941Y173000D01*
X872174Y171829D01*
X872837Y170837D01*
X878837Y164837D01*
X878837Y164837D01*
X879829Y164174D01*
X881000Y163941D01*
X881000Y163941D01*
X890000D01*
Y161000D01*
X905000D01*
Y175000D01*
X905000D01*
Y175000D01*
X905000D01*
Y189000D01*
D02*
G37*
G36*
X763000Y176843D02*
X761147Y176474D01*
X759575Y175425D01*
X758526Y173853D01*
X758157Y172000D01*
X758526Y170147D01*
X759575Y168575D01*
X760877Y167706D01*
X760979Y167239D01*
Y166761D01*
X760877Y166294D01*
X759575Y165425D01*
X758526Y163853D01*
X758157Y162000D01*
X758526Y160147D01*
X759575Y158575D01*
X761147Y157526D01*
X763000Y157157D01*
X764568Y157469D01*
X765825Y157500D01*
X765825Y157500D01*
X765825Y157500D01*
X774944D01*
X775878Y157500D01*
X776566Y156392D01*
X767924Y147750D01*
X759000D01*
Y134250D01*
X772000D01*
Y143174D01*
X782670Y153844D01*
X783147Y153526D01*
X785000Y153157D01*
X786853Y153526D01*
X788425Y154575D01*
X789474Y156147D01*
X789843Y158000D01*
X789474Y159853D01*
X788425Y161425D01*
X786853Y162474D01*
X785000Y162843D01*
X783147Y162474D01*
X781575Y161425D01*
X781051Y160640D01*
X780337Y160163D01*
X780337Y160163D01*
X777283Y157109D01*
X776175Y157797D01*
X776175Y158647D01*
Y166230D01*
X776175Y166500D01*
Y167500D01*
X776175Y167770D01*
Y176500D01*
X765825D01*
X765825Y176500D01*
X764568Y176531D01*
X763000Y176843D01*
D02*
G37*
G36*
X697058Y152377D02*
X690694Y146013D01*
X698013Y138694D01*
X701795Y142477D01*
X702066D01*
X706224Y138319D01*
X700687Y132781D01*
X707571Y125897D01*
X705837Y124163D01*
X705174Y123170D01*
X704941Y122000D01*
X704941Y122000D01*
Y117273D01*
X704678Y116485D01*
X703755Y116059D01*
X699000D01*
X699000Y116059D01*
X697830Y115826D01*
X696837Y115163D01*
X695596Y114936D01*
X689219Y121313D01*
X683681Y115776D01*
X679523Y119934D01*
Y120205D01*
X683306Y123987D01*
X675987Y131306D01*
X669623Y124942D01*
X673406Y121159D01*
Y118667D01*
X673406Y118667D01*
X673639Y117496D01*
X674302Y116504D01*
X679355Y111450D01*
X673818Y105913D01*
X691913Y87818D01*
X707313Y103218D01*
X702111Y108421D01*
X702599Y109692D01*
X703423Y109786D01*
X719793Y93417D01*
X719634Y91779D01*
X716522Y88667D01*
X721472Y83718D01*
X726422Y78768D01*
X726896Y79242D01*
X729302Y76837D01*
X729302Y76837D01*
X730080Y76317D01*
X730575Y75575D01*
X732147Y74526D01*
X734000Y74157D01*
X734323Y74221D01*
X735221Y73323D01*
X735157Y73000D01*
X735526Y71147D01*
X736575Y69576D01*
X738147Y68526D01*
X740000Y68157D01*
X741853Y68526D01*
X742812Y69166D01*
X743963Y68882D01*
X744256Y68707D01*
X744837Y67837D01*
X765918Y46756D01*
X765292Y45586D01*
X764000Y45843D01*
X762147Y45474D01*
X760575Y44425D01*
X759526Y42853D01*
X759157Y41000D01*
X759526Y39147D01*
X760575Y37575D01*
X760941Y37331D01*
Y32322D01*
X760941Y32322D01*
X761174Y31152D01*
X761837Y30159D01*
X769432Y22565D01*
X769273Y20927D01*
X759182Y10836D01*
X769081Y936D01*
X769464Y1319D01*
X771941Y-1158D01*
Y-12368D01*
X771147Y-12526D01*
X769575Y-13575D01*
X768526Y-15147D01*
X768157Y-17000D01*
X768526Y-18853D01*
X769575Y-20424D01*
X771147Y-21474D01*
X773000Y-21843D01*
X774853Y-21474D01*
X776425Y-20424D01*
X777474Y-18853D01*
X777552Y-18462D01*
X778768Y-18093D01*
X779837Y-19163D01*
X779837Y-19163D01*
X780829Y-19826D01*
X782000Y-20059D01*
X782000Y-20059D01*
X783331D01*
X783575Y-20424D01*
X785147Y-21474D01*
X787000Y-21843D01*
X788853Y-21474D01*
X790425Y-20424D01*
X790736Y-19958D01*
X792264D01*
X792576Y-20424D01*
X794147Y-21474D01*
X796000Y-21843D01*
X797853Y-21474D01*
X799425Y-20424D01*
X800474Y-18853D01*
X800843Y-17000D01*
X800474Y-15147D01*
X799425Y-13575D01*
X798905Y-13228D01*
X798826Y-12830D01*
X798163Y-11837D01*
X795163Y-8837D01*
X794171Y-8174D01*
X793000Y-7941D01*
X793000Y-7941D01*
X786267D01*
X786059Y-7733D01*
Y1821D01*
X787232Y2307D01*
X790725Y-1186D01*
X790916Y-1377D01*
X791623Y-2084D01*
X791814Y-2275D01*
X797987Y-8448D01*
X803957Y-2478D01*
X805335Y-2896D01*
X805526Y-3853D01*
X806575Y-5425D01*
X808147Y-6474D01*
X810000Y-6843D01*
X811853Y-6474D01*
X813425Y-5425D01*
X814474Y-3853D01*
X814843Y-2000D01*
X814474Y-147D01*
X813509Y1298D01*
X813297Y2366D01*
X812523Y3523D01*
X811241Y4806D01*
X819448Y13013D01*
X813275Y19186D01*
X813084Y19377D01*
X812377Y20084D01*
X812186Y20275D01*
X806013Y26448D01*
X806013D01*
X805011Y26546D01*
X804425Y27425D01*
X802853Y28474D01*
X801000Y28843D01*
X799147Y28474D01*
X798083Y27763D01*
X797766Y27825D01*
X797347Y29202D01*
X800901Y32756D01*
X806084Y37940D01*
X801135Y42889D01*
X802931Y44685D01*
X807880Y39736D01*
X808355Y40210D01*
X812192Y36373D01*
X812192Y36373D01*
X813185Y35710D01*
X814199Y35508D01*
X818013Y31694D01*
X818013D01*
X819316Y31201D01*
X819526Y30147D01*
X820575Y28575D01*
X822147Y27526D01*
X824000Y27157D01*
X825853Y27526D01*
X827425Y28575D01*
X828474Y30147D01*
X828843Y32000D01*
X828474Y33853D01*
X827425Y35425D01*
X825853Y36474D01*
X824799Y36684D01*
X824377Y38058D01*
Y38058D01*
X818064Y44371D01*
X818364Y45867D01*
X819425Y46575D01*
X820474Y48147D01*
X820843Y50000D01*
X820474Y51853D01*
X819425Y53425D01*
X817853Y54474D01*
X816000Y54843D01*
X815568Y54757D01*
X808163Y62163D01*
X807170Y62826D01*
X806698Y62920D01*
X806280Y64298D01*
X808048Y66066D01*
X809426Y65648D01*
X809526Y65147D01*
X810575Y63575D01*
X812147Y62526D01*
X814000Y62157D01*
X815853Y62526D01*
X817425Y63575D01*
X818474Y65147D01*
X818843Y67000D01*
X818474Y68853D01*
X817425Y70424D01*
X815853Y71474D01*
X814603Y71723D01*
X813163Y73163D01*
X812631Y73518D01*
X812507Y74871D01*
X812544Y74987D01*
X813425Y75575D01*
X814474Y77147D01*
X814843Y79000D01*
X814474Y80853D01*
X813928Y81671D01*
X814607Y82941D01*
X815825D01*
Y82500D01*
X826175D01*
Y84529D01*
X827250Y85000D01*
Y85000D01*
X840750D01*
Y98000D01*
X827250D01*
Y94559D01*
X825500D01*
X825500Y94559D01*
X824330Y94326D01*
X823337Y93663D01*
X823337Y93663D01*
X821174Y91500D01*
X815825D01*
Y89059D01*
X810458D01*
X809932Y90329D01*
X815257Y95654D01*
X815448Y95845D01*
X816155Y96552D01*
X816346Y96743D01*
X822519Y102916D01*
X821022Y104412D01*
X824163Y107553D01*
X824163Y107553D01*
X824826Y108545D01*
X824970Y109272D01*
X825425Y109575D01*
X826474Y111147D01*
X826843Y113000D01*
X826474Y114853D01*
X825425Y116425D01*
X823853Y117474D01*
X822000Y117843D01*
X820147Y117474D01*
X818576Y116425D01*
X817526Y114853D01*
X817157Y113000D01*
X817526Y111147D01*
X818158Y110200D01*
X816697Y108738D01*
X808129Y117306D01*
X801956Y111133D01*
X801765Y110942D01*
X801058Y110235D01*
X800867Y110044D01*
X794694Y103871D01*
X794816Y103749D01*
X794447Y102534D01*
X794147Y102474D01*
X792576Y101425D01*
X792311Y101028D01*
X791294Y100826D01*
X790302Y100163D01*
X790302Y100163D01*
X787142Y97003D01*
X784350Y99795D01*
X784826Y100507D01*
X785059Y101678D01*
X785059Y101678D01*
Y108331D01*
X785425Y108575D01*
X786474Y110147D01*
X786534Y110447D01*
X787749Y110815D01*
X787871Y110694D01*
X794235Y117058D01*
X786916Y124377D01*
X780552Y118013D01*
X780816Y117749D01*
X780447Y116534D01*
X780147Y116474D01*
X778576Y115425D01*
X777526Y113853D01*
X777157Y112000D01*
X777526Y110147D01*
X778576Y108575D01*
X778941Y108331D01*
Y106863D01*
X777768Y106377D01*
X776061Y108084D01*
X771111Y103135D01*
X766161Y98185D01*
X766636Y97710D01*
X762837Y93912D01*
X762174Y92919D01*
X761941Y91749D01*
X761941Y91749D01*
Y68669D01*
X761575Y68425D01*
X760526Y66853D01*
X760157Y65000D01*
X760526Y63147D01*
X761575Y61575D01*
X763147Y60526D01*
X765000Y60157D01*
X766853Y60526D01*
X768425Y61575D01*
X769474Y63147D01*
X769843Y65000D01*
X769474Y66853D01*
X768425Y68425D01*
X768059Y68669D01*
Y90482D01*
X770962Y93385D01*
X780395Y83951D01*
X787849Y76497D01*
X786515Y75163D01*
X785852Y74170D01*
X785619Y73000D01*
X785619Y73000D01*
Y71993D01*
X785526Y71853D01*
X785157Y70000D01*
X785526Y68147D01*
X786575Y66575D01*
X788147Y65526D01*
X790000Y65157D01*
X791671Y65489D01*
X792179Y65286D01*
X792941Y64725D01*
Y64000D01*
X792941Y64000D01*
X793174Y62829D01*
X793837Y61837D01*
X797837Y57837D01*
X797837Y57837D01*
X798829Y57174D01*
X800000Y56941D01*
X804733D01*
X811243Y50431D01*
X811157Y50000D01*
X811266Y49452D01*
X810269Y48008D01*
X810017Y47965D01*
X803164Y54818D01*
X796608Y48262D01*
X796200Y48197D01*
X795059Y49086D01*
Y50331D01*
X795424Y50575D01*
X796474Y52147D01*
X796843Y54000D01*
X796474Y55853D01*
X795424Y57425D01*
X793853Y58474D01*
X792000Y58843D01*
X790147Y58474D01*
X788575Y57425D01*
X787526Y55853D01*
X787157Y54000D01*
X787526Y52147D01*
X788219Y51110D01*
X788230Y51080D01*
X787935Y49714D01*
X787832Y49575D01*
X787671Y49511D01*
X786000Y49843D01*
X784147Y49474D01*
X782575Y48425D01*
X781526Y46853D01*
X781157Y45000D01*
X781221Y44677D01*
X780323Y43779D01*
X780000Y43843D01*
X778147Y43474D01*
X776575Y42425D01*
X776329Y42055D01*
X775059Y42441D01*
Y45000D01*
X775059Y45000D01*
X774826Y46171D01*
X774163Y47163D01*
X774163Y47163D01*
X750059Y71267D01*
Y76169D01*
X751853Y76526D01*
X753425Y77575D01*
X754474Y79147D01*
X754843Y81000D01*
X754474Y82853D01*
X753425Y84424D01*
X751954Y85407D01*
X751756Y85679D01*
X751448Y86697D01*
X752472Y87721D01*
X752472Y87721D01*
X753135Y88714D01*
X753367Y89884D01*
Y95511D01*
X753135Y96682D01*
X752472Y97674D01*
X752472Y97674D01*
X748900Y101246D01*
X752818Y105164D01*
X742918Y115063D01*
X742476Y116150D01*
X744267Y117941D01*
X749500D01*
Y114250D01*
X762500D01*
Y127750D01*
X749500D01*
Y124059D01*
X743000D01*
X741829Y123826D01*
X740837Y123163D01*
X740837Y123163D01*
X729837Y112163D01*
X729174Y111171D01*
X728941Y110000D01*
X728941Y110000D01*
Y106749D01*
X728941Y106749D01*
X729174Y105578D01*
X729837Y104586D01*
X730399Y104024D01*
X730241Y102386D01*
X728394Y100539D01*
X711059Y117874D01*
Y120613D01*
X712041Y121427D01*
X718782Y114687D01*
X734182Y130087D01*
X716087Y148182D01*
X710550Y142645D01*
X705496Y147698D01*
X704504Y148362D01*
X703333Y148594D01*
X703333Y148594D01*
X700841D01*
X697058Y152377D01*
D02*
G37*
G36*
X1361000Y126500D02*
X1321000D01*
Y118069D01*
X1305000D01*
X1302912Y117794D01*
X1300966Y116988D01*
X1299294Y115706D01*
X1298012Y114035D01*
X1297206Y112088D01*
X1296931Y110000D01*
X1297206Y107912D01*
X1298012Y105965D01*
X1299294Y104294D01*
X1300966Y103012D01*
X1302912Y102206D01*
X1305000Y101931D01*
X1321000D01*
Y93500D01*
X1361000D01*
Y126500D01*
D02*
G37*
G36*
X584000Y160843D02*
X582147Y160474D01*
X580575Y159424D01*
X579526Y157853D01*
X579157Y156000D01*
X579526Y154147D01*
X580575Y152576D01*
Y151425D01*
X579526Y149853D01*
X579157Y148000D01*
X579526Y146147D01*
X580575Y144575D01*
X582147Y143526D01*
X584000Y143157D01*
X585853Y143526D01*
X587425Y144575D01*
X588474Y146147D01*
X588843Y148000D01*
X588474Y149853D01*
X587425Y151425D01*
Y152576D01*
X588474Y154147D01*
X588843Y156000D01*
X588474Y157853D01*
X587425Y159424D01*
X585853Y160474D01*
X584000Y160843D01*
D02*
G37*
G36*
X613000Y148843D02*
X611147Y148474D01*
X609575Y147424D01*
X608526Y145853D01*
X608157Y144000D01*
X608526Y142147D01*
X609575Y140575D01*
X611147Y139526D01*
X613000Y139157D01*
X614853Y139526D01*
X616424Y140575D01*
X617474Y142147D01*
X617843Y144000D01*
X617474Y145853D01*
X616424Y147424D01*
X614853Y148474D01*
X613000Y148843D01*
D02*
G37*
G36*
X777987Y133306D02*
X771623Y126942D01*
X771815Y126749D01*
X771447Y125534D01*
X771147Y125474D01*
X769575Y124425D01*
X768526Y122853D01*
X768157Y121000D01*
X768526Y119147D01*
X768941Y118525D01*
Y114923D01*
X759182Y105164D01*
X764365Y99981D01*
X769315Y104931D01*
X774401Y110017D01*
X774163Y110728D01*
X774826Y111720D01*
X775059Y112891D01*
X775059Y112891D01*
Y116663D01*
X776425Y117576D01*
X777474Y119147D01*
X777534Y119447D01*
X778749Y119816D01*
X778942Y119623D01*
X785306Y125987D01*
X777987Y133306D01*
D02*
G37*
G36*
X853000Y276750D02*
X835000D01*
Y261750D01*
X835000D01*
Y261250D01*
X835000D01*
Y246250D01*
X853000D01*
Y261250D01*
X853000D01*
Y261750D01*
X853000D01*
Y276750D01*
D02*
G37*
G36*
X829000D02*
X811000D01*
Y261750D01*
X811000D01*
Y261250D01*
X811000D01*
Y246250D01*
X829000D01*
Y261250D01*
X829000D01*
Y261750D01*
X829000D01*
Y276750D01*
D02*
G37*
G36*
X805000D02*
X787000D01*
Y261750D01*
X787000D01*
Y261250D01*
X787000D01*
Y258098D01*
X781000D01*
X779049Y257710D01*
X777395Y256605D01*
X776290Y254951D01*
X775902Y253000D01*
Y245000D01*
Y237000D01*
X776290Y235049D01*
X777395Y233395D01*
X779049Y232290D01*
X781000Y231902D01*
X782951Y232290D01*
X784605Y233395D01*
X785710Y235049D01*
X785730Y235150D01*
X787000Y235025D01*
Y228750D01*
X790902D01*
Y223000D01*
X791290Y221049D01*
X791500Y220735D01*
Y213197D01*
X791461Y213000D01*
Y202500D01*
X791616Y201720D01*
X792058Y201058D01*
X792720Y200616D01*
X793500Y200461D01*
X803500D01*
X803820Y200525D01*
X804145Y200565D01*
X804209Y200602D01*
X804280Y200616D01*
X804552Y200798D01*
X804836Y200959D01*
X804881Y201017D01*
X804942Y201058D01*
X805124Y201330D01*
X805324Y201588D01*
X806267Y203474D01*
X807085Y204701D01*
X810264Y207881D01*
X812482Y209211D01*
X813282Y209611D01*
X815940Y210497D01*
X820000Y210948D01*
X824138Y210488D01*
X825788Y210076D01*
X828474Y208733D01*
X829701Y207915D01*
X831956Y205660D01*
X833306Y203861D01*
X834751Y201451D01*
X834919Y201266D01*
X835058Y201058D01*
X835184Y200974D01*
X835286Y200861D01*
X835512Y200755D01*
X835720Y200616D01*
X835868Y200586D01*
X836005Y200522D01*
X836255Y200510D01*
X836500Y200461D01*
X846500D01*
X847280Y200616D01*
X847942Y201058D01*
X848384Y201720D01*
X848539Y202500D01*
Y213000D01*
X848500Y213197D01*
Y220735D01*
X848710Y221049D01*
X849098Y223000D01*
Y228750D01*
X853000D01*
Y231945D01*
X853927Y232440D01*
X854270Y232501D01*
X856000Y232157D01*
X857853Y232526D01*
X859425Y233575D01*
X860474Y235147D01*
X860843Y237000D01*
X860474Y238853D01*
X859425Y240425D01*
X857853Y241474D01*
X856000Y241843D01*
X854270Y241499D01*
X853927Y241560D01*
X853000Y242055D01*
Y243750D01*
X835000D01*
Y228750D01*
X838902D01*
Y225112D01*
X838290Y224500D01*
X825098D01*
Y228750D01*
X829000D01*
Y243750D01*
X811000D01*
Y228750D01*
X814902D01*
Y224500D01*
X801710D01*
X801098Y225112D01*
Y228750D01*
X805000D01*
Y243750D01*
X787368D01*
X787000Y243750D01*
X786488Y244254D01*
Y245192D01*
X787550Y246250D01*
X805000D01*
Y261250D01*
X805000D01*
Y261750D01*
X805000D01*
Y276750D01*
D02*
G37*
G36*
X1028250Y289150D02*
X1003750D01*
Y264078D01*
X996250D01*
Y289150D01*
X971750D01*
Y286793D01*
X970795Y285956D01*
X970000Y286060D01*
X968419Y285852D01*
X968250Y286000D01*
Y286000D01*
X949250D01*
Y285063D01*
X948750Y284000D01*
X947980Y284000D01*
X933750D01*
Y280098D01*
X924000D01*
X922049Y279710D01*
X920395Y278605D01*
X919290Y276951D01*
X918902Y275000D01*
X919290Y273049D01*
X920395Y271395D01*
X922049Y270290D01*
X924000Y269902D01*
X933750D01*
Y266000D01*
X948027D01*
X948764Y264736D01*
X948450Y264078D01*
X945000D01*
X945000Y264078D01*
X943439Y263768D01*
X942116Y262884D01*
X942116Y262884D01*
X937116Y257884D01*
X937116Y257884D01*
X936232Y256561D01*
X935922Y255000D01*
X935922Y255000D01*
X935922Y110098D01*
X934444D01*
X933404Y110896D01*
X931762Y111576D01*
X930000Y111808D01*
X928238Y111576D01*
X926596Y110896D01*
X926445Y110780D01*
X925925Y110875D01*
X925175Y111770D01*
Y120500D01*
X923059D01*
Y125331D01*
X923425Y125575D01*
X924474Y127147D01*
X924843Y129000D01*
X924474Y130853D01*
X923425Y132425D01*
X921853Y133474D01*
X920000Y133843D01*
X918147Y133474D01*
X916575Y132425D01*
X916331Y132059D01*
X911250D01*
Y136000D01*
X898750D01*
Y123500D01*
X911250D01*
Y125941D01*
X916331D01*
X916575Y125575D01*
X916941Y125331D01*
Y120500D01*
X914825D01*
Y111770D01*
X914825Y111500D01*
Y110500D01*
X914825Y110230D01*
Y101500D01*
X914941D01*
Y88000D01*
X911750D01*
Y75500D01*
X924250D01*
Y79460D01*
X925520Y79929D01*
X926596Y79104D01*
X928238Y78424D01*
X930000Y78192D01*
X931762Y78424D01*
X933404Y79104D01*
X934444Y79902D01*
X935922D01*
X935922Y51690D01*
X927116Y42884D01*
X927116Y42884D01*
X927027Y42750D01*
X927000D01*
Y42710D01*
X926232Y41561D01*
X925922Y40000D01*
X925922Y40000D01*
Y34841D01*
X924652Y34000D01*
X919363D01*
X918561Y35003D01*
X918580Y35270D01*
X918808Y37000D01*
X918576Y38762D01*
X917896Y40404D01*
X917646Y40730D01*
X918272Y42000D01*
X924250D01*
Y54500D01*
X921569D01*
Y63000D01*
X921297Y64366D01*
X920523Y65523D01*
X914523Y71523D01*
X913366Y72297D01*
X912000Y72569D01*
X875209D01*
X873853Y73474D01*
X872000Y73843D01*
X870147Y73474D01*
X868576Y72425D01*
X867526Y70853D01*
X867157Y69000D01*
X867526Y67147D01*
X867842Y66673D01*
X866926Y65757D01*
X865853Y66474D01*
X864000Y66843D01*
X862147Y66474D01*
X860575Y65425D01*
X859526Y63853D01*
X859157Y62000D01*
X859526Y60147D01*
X860575Y58575D01*
X860941Y58331D01*
Y50500D01*
X860941Y50500D01*
X861174Y49330D01*
X861837Y48337D01*
X864087Y46087D01*
X864087Y46087D01*
X865079Y45424D01*
X865750Y45291D01*
Y42000D01*
X864663Y41559D01*
X859750D01*
Y45000D01*
X846250D01*
Y36076D01*
X838174Y28000D01*
X830750D01*
Y15500D01*
X843250D01*
Y24424D01*
X850826Y32000D01*
X859750D01*
Y35441D01*
X866825D01*
Y32500D01*
X866825D01*
Y31500D01*
X866825D01*
Y27094D01*
X866520Y26890D01*
X865250Y27569D01*
Y28000D01*
X852750D01*
Y15500D01*
X865250D01*
Y18691D01*
X866750D01*
X866750Y18691D01*
X867921Y18924D01*
X868913Y19587D01*
X871826Y22500D01*
X877000D01*
Y15000D01*
X877730D01*
X879000Y15000D01*
X879000Y13730D01*
Y0D01*
X880260D01*
X881302Y-1270D01*
X881157Y-2000D01*
X881310Y-2768D01*
X880504Y-3750D01*
X873000D01*
Y-18750D01*
X891000D01*
Y-18750D01*
X909000D01*
Y-18750D01*
X909000D01*
Y-18750D01*
X925922D01*
X925922Y-66000D01*
X926029Y-66540D01*
X924569Y-68000D01*
X918000D01*
Y-54250D01*
X900000D01*
Y-69250D01*
X899041Y-70000D01*
X899000D01*
Y-73431D01*
X898000D01*
X896634Y-73703D01*
X895477Y-74477D01*
X888772Y-81181D01*
X884000D01*
Y-77250D01*
X866000D01*
Y-89064D01*
X865953Y-89134D01*
X865681Y-90500D01*
Y-95000D01*
X860985D01*
X860499Y-93827D01*
X861163Y-93163D01*
X861826Y-92170D01*
X862059Y-91000D01*
X862059Y-91000D01*
Y-89500D01*
X864175D01*
Y-80770D01*
X864175Y-80500D01*
Y-79500D01*
X864175Y-79230D01*
Y-70500D01*
X863902D01*
X863223Y-69230D01*
X863474Y-68853D01*
X863843Y-67000D01*
X863474Y-65147D01*
X862425Y-63575D01*
X860853Y-62526D01*
X859000Y-62157D01*
X857147Y-62526D01*
X855575Y-63575D01*
X854706Y-64877D01*
X854239Y-64979D01*
X853761D01*
X853294Y-64877D01*
X852425Y-63575D01*
X850853Y-62526D01*
X849000Y-62157D01*
X847147Y-62526D01*
X845575Y-63575D01*
X844706Y-64877D01*
X844239Y-64979D01*
X843761D01*
X843294Y-64877D01*
X842425Y-63575D01*
X840853Y-62526D01*
X839000Y-62157D01*
X837147Y-62526D01*
X835575Y-63575D01*
X834706Y-64877D01*
X834239Y-64979D01*
X833761D01*
X833294Y-64877D01*
X832424Y-63575D01*
X830853Y-62526D01*
X829000Y-62157D01*
X827147Y-62526D01*
X825575Y-63575D01*
X824526Y-65147D01*
X824157Y-67000D01*
X824526Y-68853D01*
X824777Y-69230D01*
X824099Y-70500D01*
X823825D01*
Y-79230D01*
X823825Y-79500D01*
Y-80500D01*
X823825Y-80770D01*
Y-89500D01*
X825941D01*
Y-91000D01*
X825941Y-91000D01*
X826174Y-92170D01*
X826837Y-93163D01*
X827191Y-93517D01*
Y-95000D01*
X826500D01*
Y-115000D01*
X833691D01*
Y-119000D01*
X833924Y-120170D01*
X834587Y-121163D01*
X835579Y-121826D01*
X836750Y-122059D01*
X848000D01*
X848000Y-122059D01*
X849171Y-121826D01*
X850163Y-121163D01*
X851913Y-119413D01*
X851913Y-119413D01*
X852576Y-118421D01*
X852809Y-117250D01*
Y-115000D01*
X865681D01*
Y-118250D01*
X865953Y-119616D01*
X866727Y-120773D01*
X869977Y-124023D01*
X871134Y-124797D01*
X872500Y-125069D01*
X882000D01*
Y-126902D01*
X865000D01*
X863049Y-127290D01*
X861395Y-128395D01*
X859145Y-130645D01*
X858040Y-132299D01*
X857652Y-134250D01*
Y-143495D01*
X856382Y-143926D01*
X855814Y-143186D01*
X854404Y-142104D01*
X852762Y-141424D01*
X851000Y-141192D01*
X849238Y-141424D01*
X847596Y-142104D01*
X846186Y-143186D01*
X845562Y-143999D01*
X844853Y-143526D01*
X843000Y-143157D01*
X841147Y-143526D01*
X839575Y-144576D01*
X838526Y-146147D01*
X838157Y-148000D01*
X838501Y-149730D01*
X838440Y-150073D01*
X837945Y-151000D01*
X831520D01*
Y-161000D01*
Y-171000D01*
X832953D01*
X833426Y-171857D01*
X832687Y-173000D01*
X832000D01*
Y-188000D01*
X846000D01*
Y-186048D01*
X847250Y-186000D01*
X847270Y-186000D01*
X857945D01*
X858440Y-186927D01*
X858501Y-187270D01*
X858157Y-189000D01*
X858526Y-190853D01*
X859575Y-192425D01*
X861147Y-193474D01*
X863000Y-193843D01*
X864853Y-193474D01*
X865980Y-192722D01*
X867250Y-193301D01*
Y-195500D01*
X870941D01*
Y-218331D01*
X870575Y-218575D01*
X869526Y-220147D01*
X869157Y-222000D01*
X869526Y-223853D01*
X870575Y-225424D01*
X872147Y-226474D01*
X874000Y-226843D01*
X875853Y-226474D01*
X877425Y-225424D01*
X878474Y-223853D01*
X878843Y-222000D01*
X878474Y-220147D01*
X877425Y-218575D01*
X877059Y-218331D01*
Y-195500D01*
X880750D01*
Y-183971D01*
X881825Y-183500D01*
Y-183500D01*
X892175D01*
Y-174500D01*
X881825D01*
Y-176441D01*
X861648D01*
X860750Y-175543D01*
X860750Y-173000D01*
X862020Y-173000D01*
X868500D01*
Y-171000D01*
X870000D01*
Y-173000D01*
X881500D01*
Y-149000D01*
X880848D01*
Y-141098D01*
X890821D01*
X891252Y-142368D01*
X890186Y-143186D01*
X889104Y-144596D01*
X888424Y-146238D01*
X888192Y-148000D01*
X888424Y-149762D01*
X889104Y-151404D01*
X890186Y-152814D01*
X891596Y-153896D01*
X893238Y-154576D01*
X895000Y-154808D01*
X895795Y-154704D01*
X896750Y-155541D01*
Y-159000D01*
X898750D01*
Y-161266D01*
X897480Y-161944D01*
X896853Y-161526D01*
X895000Y-161157D01*
X893147Y-161526D01*
X891575Y-162575D01*
X890526Y-164147D01*
X890157Y-166000D01*
X890526Y-167853D01*
X891575Y-169425D01*
X893147Y-170474D01*
X895000Y-170843D01*
X896853Y-170474D01*
X897480Y-170056D01*
X898750Y-170735D01*
Y-175000D01*
X899000Y-175000D01*
Y-189000D01*
X914000D01*
X914000Y-190270D01*
Y-191000D01*
X933000D01*
Y-190069D01*
X935922D01*
Y-255000D01*
X935922Y-255000D01*
X936232Y-256561D01*
X937116Y-257884D01*
X942116Y-262884D01*
X943439Y-263768D01*
X945000Y-264078D01*
X945000Y-264078D01*
X1100000Y-264078D01*
X1100000Y-264078D01*
X1101561Y-263768D01*
X1102884Y-262884D01*
X1102884Y-262883D01*
X1107884Y-257884D01*
X1107884Y-257884D01*
X1108768Y-256561D01*
X1109078Y-255000D01*
X1109078Y-255000D01*
X1109078Y-211790D01*
X1110348Y-211581D01*
X1111790Y-215827D01*
X1114183Y-220679D01*
X1117188Y-225177D01*
X1120755Y-229245D01*
X1124822Y-232812D01*
X1129321Y-235818D01*
X1134173Y-238210D01*
X1139296Y-239949D01*
X1144602Y-241005D01*
X1150000Y-241359D01*
X1155398Y-241005D01*
X1160704Y-239949D01*
X1165827Y-238210D01*
X1170679Y-235818D01*
X1175178Y-232812D01*
X1179245Y-229245D01*
X1182812Y-225177D01*
X1185818Y-220679D01*
X1188210Y-215827D01*
X1189652Y-211581D01*
X1190922Y-211791D01*
Y-255000D01*
X1190922Y-255000D01*
X1191232Y-256561D01*
X1192116Y-257884D01*
X1197116Y-262884D01*
X1198439Y-263768D01*
X1200000Y-264078D01*
X1200000Y-264078D01*
X1355000D01*
X1355000Y-264078D01*
X1356561Y-263768D01*
X1357884Y-262884D01*
X1362884Y-257884D01*
X1363768Y-256561D01*
X1364078Y-255000D01*
X1364078Y-255000D01*
Y-155000D01*
X1364078Y-155000D01*
X1363768Y-153439D01*
X1362884Y-152116D01*
X1361019Y-150252D01*
X1361505Y-149078D01*
X1370000D01*
X1370000Y-149078D01*
X1371561Y-148768D01*
X1371962Y-148500D01*
X1373500D01*
Y-147268D01*
X1377884Y-142884D01*
X1378768Y-141561D01*
X1379078Y-140000D01*
X1379078Y-140000D01*
Y80000D01*
X1378768Y81561D01*
X1377884Y82884D01*
X1377884Y82884D01*
X1372884Y87884D01*
X1371561Y88768D01*
X1370000Y89078D01*
X1370000Y89078D01*
X1276000D01*
X1276000Y89078D01*
X1274439Y88768D01*
X1273116Y87884D01*
X1273116Y87884D01*
X1268232Y83000D01*
X1264750D01*
Y68673D01*
X1263480Y68036D01*
X1263069Y68343D01*
Y70000D01*
X1262794Y72088D01*
X1261988Y74035D01*
X1260706Y75706D01*
X1259035Y76988D01*
X1257088Y77794D01*
X1255000Y78069D01*
X1252912Y77794D01*
X1250965Y76988D01*
X1249294Y75706D01*
X1248012Y74035D01*
X1247262Y72223D01*
X1246250Y71600D01*
X1192250D01*
Y71169D01*
X1181350D01*
X1179262Y70894D01*
X1177316Y70088D01*
X1175644Y68806D01*
X1175089Y68250D01*
X1166000D01*
Y67520D01*
X1166000Y66250D01*
X1149500D01*
X1148523Y66923D01*
X1148143Y67386D01*
X1147810Y67884D01*
X1147642Y67996D01*
X1147514Y68153D01*
X1146985Y68435D01*
X1146487Y68768D01*
X1146289Y68807D01*
X1146110Y68903D01*
X1145514Y68962D01*
X1144927Y69078D01*
X1121689D01*
X1119078Y71689D01*
Y72102D01*
X1119976Y73000D01*
X1156000D01*
Y95000D01*
X1118000D01*
Y92069D01*
X1116000D01*
Y108250D01*
X1111117D01*
Y122466D01*
X1112534Y123883D01*
X1118000D01*
Y119000D01*
X1156000D01*
Y141000D01*
X1118000D01*
Y136117D01*
X1110000D01*
X1107659Y135652D01*
X1105674Y134326D01*
X1100674Y129326D01*
X1099348Y127341D01*
X1098883Y125000D01*
Y108250D01*
X1094000D01*
Y105118D01*
X1088250D01*
Y121000D01*
X1071750D01*
Y104500D01*
X1072536D01*
X1073162Y103230D01*
X1073012Y103034D01*
X1072206Y101088D01*
X1071931Y99000D01*
X1072206Y96912D01*
X1073012Y94965D01*
X1074294Y93294D01*
X1075965Y92012D01*
X1077912Y91206D01*
X1080000Y90931D01*
X1082088Y91206D01*
X1084035Y92012D01*
X1085169Y92882D01*
X1094000D01*
Y90348D01*
X1092801Y89078D01*
X1055000Y89078D01*
X943791Y89079D01*
X943275Y90349D01*
X943864Y90922D01*
X1055000Y90922D01*
X1055000Y90922D01*
X1056561Y91232D01*
X1057884Y92116D01*
X1057884Y92116D01*
X1058519Y92752D01*
X1060002D01*
Y94234D01*
X1062884Y97117D01*
X1062885Y97117D01*
X1063768Y98440D01*
X1063872Y98961D01*
X1064079Y100000D01*
X1064079Y100000D01*
X1064079Y212322D01*
X1069500D01*
Y209800D01*
X1100500D01*
Y233000D01*
X1069500D01*
Y230478D01*
X1064079D01*
X1064079Y255000D01*
X1064079Y255000D01*
X1063768Y256561D01*
X1063214Y257390D01*
X1062884Y257884D01*
X1057884Y262884D01*
X1057883Y262884D01*
X1056560Y263768D01*
X1056560Y263768D01*
X1056560Y263768D01*
X1054999Y264078D01*
X1054999Y264078D01*
X1028250D01*
Y267940D01*
X1223075D01*
X1235937Y255078D01*
X1235922Y255000D01*
X1235922Y255000D01*
Y145000D01*
X1235922Y145000D01*
X1236232Y143439D01*
X1237116Y142116D01*
X1242116Y137116D01*
X1243439Y136232D01*
X1245000Y135922D01*
X1245000Y135922D01*
X1355000D01*
X1355000Y135922D01*
X1356561Y136232D01*
X1357884Y137116D01*
X1362884Y142116D01*
X1363768Y143439D01*
X1364078Y145000D01*
X1364078Y145000D01*
Y255000D01*
X1364078Y255000D01*
X1363768Y256561D01*
X1362884Y257884D01*
X1357884Y262884D01*
X1356561Y263768D01*
X1355000Y264078D01*
X1355000Y264078D01*
X1246907D01*
X1230992Y279993D01*
X1229530Y281115D01*
X1227827Y281820D01*
X1226000Y282060D01*
X1028250D01*
Y289150D01*
D02*
G37*
G36*
X887000Y269500D02*
X872000D01*
Y264078D01*
X870446D01*
X869853Y264474D01*
X868000Y264843D01*
X866147Y264474D01*
X864575Y263424D01*
X863526Y261853D01*
X863157Y260000D01*
X863526Y258147D01*
X864575Y256575D01*
X866147Y255526D01*
X868000Y255157D01*
X869853Y255526D01*
X870446Y255922D01*
X872000D01*
Y250500D01*
X887000D01*
Y269500D01*
D02*
G37*
G36*
X695000Y276098D02*
X693049Y275710D01*
X691395Y274605D01*
X690290Y272951D01*
X689902Y271000D01*
Y263000D01*
X690290Y261049D01*
X691395Y259395D01*
X693049Y258290D01*
X695000Y257902D01*
X696951Y258290D01*
X698605Y259395D01*
X699710Y261049D01*
X700098Y263000D01*
Y271000D01*
X699710Y272951D01*
X698605Y274605D01*
X696951Y275710D01*
X695000Y276098D01*
D02*
G37*
G36*
X669000Y239843D02*
X667147Y239474D01*
X665575Y238425D01*
X664526Y236853D01*
X664157Y235000D01*
X664526Y233147D01*
X665575Y231576D01*
X667147Y230526D01*
X669000Y230157D01*
X670853Y230526D01*
X672425Y231576D01*
X673474Y233147D01*
X673843Y235000D01*
X673474Y236853D01*
X672425Y238425D01*
X670853Y239474D01*
X669000Y239843D01*
D02*
G37*
G36*
X720000Y276098D02*
X718049Y275710D01*
X716395Y274605D01*
X715290Y272951D01*
X714902Y271000D01*
Y259398D01*
X714004Y258500D01*
X712730Y258500D01*
X701500D01*
Y241500D01*
X704441D01*
Y213500D01*
X704441Y213500D01*
X704674Y212329D01*
X705337Y211337D01*
X707837Y208837D01*
X708829Y208174D01*
X710000Y207941D01*
X741331D01*
X741575Y207575D01*
X743147Y206526D01*
X745000Y206157D01*
X746853Y206526D01*
X748425Y207575D01*
X749474Y209147D01*
X749843Y211000D01*
X749474Y212853D01*
X748425Y214425D01*
X746853Y215474D01*
X745000Y215843D01*
X743147Y215474D01*
X741575Y214425D01*
X741331Y214059D01*
X711267D01*
X710559Y214767D01*
Y240602D01*
X711457Y241500D01*
X713500Y241500D01*
X714770Y241500D01*
X725230D01*
X726000Y241500D01*
X727270Y241500D01*
X729441D01*
Y234000D01*
X729441Y234000D01*
X729674Y232829D01*
X730337Y231837D01*
X732337Y229837D01*
X733329Y229174D01*
X734500Y228941D01*
X735750D01*
Y223000D01*
X750750D01*
Y241000D01*
X739563D01*
X738500Y241500D01*
Y258500D01*
X725996Y258500D01*
X725098Y259398D01*
Y271000D01*
X724710Y272951D01*
X723605Y274605D01*
X721951Y275710D01*
X720000Y276098D01*
D02*
G37*
G36*
X562000Y233843D02*
X560147Y233474D01*
X558575Y232425D01*
X557526Y230853D01*
X557157Y229000D01*
X557526Y227147D01*
X557922Y226554D01*
Y223446D01*
X557526Y222853D01*
X557157Y221000D01*
X557526Y219147D01*
X558575Y217575D01*
X560147Y216526D01*
X562000Y216157D01*
X563730Y216501D01*
X563910Y216469D01*
X565000Y216000D01*
X565000Y216000D01*
X565000Y216000D01*
X579000D01*
Y216000D01*
X580000Y216000D01*
Y216000D01*
X594000D01*
Y231000D01*
X580000D01*
Y231000D01*
X579000Y231000D01*
Y231000D01*
X566376D01*
X565424Y232425D01*
X563853Y233474D01*
X562000Y233843D01*
D02*
G37*
G36*
X579000Y214000D02*
Y214000D01*
X565000D01*
Y214000D01*
X563923Y213533D01*
X563730Y213499D01*
X562000Y213843D01*
X560147Y213474D01*
X558575Y212425D01*
X557526Y210853D01*
X557157Y209000D01*
X557526Y207147D01*
X557922Y206554D01*
Y203446D01*
X557526Y202853D01*
X557157Y201000D01*
X557526Y199147D01*
X558575Y197575D01*
X560147Y196526D01*
X562000Y196157D01*
X563853Y196526D01*
X565424Y197575D01*
X566376Y199000D01*
X579000D01*
Y199000D01*
X580000D01*
Y199000D01*
X594000D01*
Y214000D01*
X580000D01*
Y214000D01*
X579000D01*
D02*
G37*
G36*
X650000Y252060D02*
X648173Y251820D01*
X646470Y251115D01*
X645007Y249992D01*
X643885Y248530D01*
X643180Y246827D01*
X642940Y245000D01*
Y235000D01*
X643180Y233173D01*
X643885Y231470D01*
X645007Y230008D01*
X646470Y228885D01*
X648173Y228180D01*
X650000Y227940D01*
X651827Y228180D01*
X653530Y228885D01*
X654992Y230008D01*
X656115Y231470D01*
X656820Y233173D01*
X657060Y235000D01*
Y245000D01*
X656820Y246827D01*
X656115Y248530D01*
X654992Y249992D01*
X653530Y251115D01*
X651827Y251820D01*
X650000Y252060D01*
D02*
G37*
G36*
X876000Y224843D02*
X874147Y224474D01*
X872576Y223424D01*
X871424D01*
X869853Y224474D01*
X868000Y224843D01*
X866147Y224474D01*
X864575Y223424D01*
X863526Y221853D01*
X863157Y220000D01*
X863526Y218147D01*
X864260Y217048D01*
X864265Y216926D01*
X863799Y215734D01*
X863757Y215688D01*
X863350Y215607D01*
X862536Y215064D01*
X861993Y214250D01*
X861802Y213290D01*
Y206210D01*
X861993Y205250D01*
X862536Y204436D01*
X863350Y203893D01*
X864310Y203702D01*
X865690D01*
X866650Y203893D01*
X867464Y204436D01*
X867536D01*
X868350Y203893D01*
X869310Y203702D01*
X870690D01*
X871650Y203893D01*
X872464Y204436D01*
X872536D01*
X873350Y203893D01*
X874310Y203702D01*
X875690D01*
X876650Y203893D01*
X877464Y204436D01*
X877536D01*
X878350Y203893D01*
X879310Y203702D01*
X880690D01*
X881650Y203893D01*
X882464Y204436D01*
X883007Y205250D01*
X883198Y206210D01*
Y213290D01*
X883007Y214250D01*
X882464Y215064D01*
X881650Y215607D01*
X880690Y215798D01*
X880373D01*
X879754Y217068D01*
X880474Y218147D01*
X880843Y220000D01*
X880474Y221853D01*
X879425Y223424D01*
X877853Y224474D01*
X876000Y224843D01*
D02*
G37*
G36*
X768250Y241000D02*
X753250D01*
Y223000D01*
X768250D01*
Y223265D01*
X769520Y223944D01*
X770147Y223526D01*
X772000Y223157D01*
X773853Y223526D01*
X775425Y224575D01*
X776474Y226147D01*
X776843Y228000D01*
X776474Y229853D01*
X775425Y231425D01*
X773853Y232474D01*
X772000Y232843D01*
X770147Y232474D01*
X769520Y232056D01*
X768250Y232735D01*
Y241000D01*
D02*
G37*
G36*
X1236000Y141000D02*
X1163000D01*
Y73000D01*
X1236000D01*
Y101931D01*
X1239000D01*
Y93500D01*
X1279000D01*
Y126500D01*
X1239000D01*
Y118069D01*
X1236000D01*
Y141000D01*
D02*
G37*
G36*
X826000Y-31270D02*
X817001D01*
X808000D01*
Y-33500D01*
Y-33730D01*
X817001D01*
X826000D01*
Y-33500D01*
Y-31270D01*
D02*
G37*
G36*
X815731Y-26500D02*
X808000D01*
Y-28730D01*
X815731D01*
Y-26500D01*
D02*
G37*
G36*
X725670Y-84598D02*
Y-97730D01*
X732469D01*
Y-92500D01*
X732194Y-90412D01*
X731388Y-88465D01*
X730106Y-86794D01*
X728435Y-85512D01*
X726488Y-84706D01*
X725670Y-84598D01*
D02*
G37*
G36*
X847000Y-22157D02*
X845147Y-22526D01*
X843576Y-23575D01*
X842526Y-25147D01*
X842157Y-27000D01*
X842526Y-28853D01*
X843576Y-30424D01*
Y-31576D01*
X842526Y-33147D01*
X842157Y-35000D01*
X842526Y-36853D01*
X843576Y-38424D01*
Y-38907D01*
X842576Y-39575D01*
X841526Y-41147D01*
X841157Y-43000D01*
X841526Y-44853D01*
X842576Y-46424D01*
X844147Y-47474D01*
X846000Y-47843D01*
X847853Y-47474D01*
X849425Y-46424D01*
X850474Y-44853D01*
X850730Y-44718D01*
X852000Y-45484D01*
Y-53500D01*
X860655D01*
X861000Y-53569D01*
X869522D01*
X871477Y-55523D01*
X872634Y-56297D01*
X872825Y-56335D01*
Y-57500D01*
X883175D01*
Y-57500D01*
X883825D01*
X884402Y-58770D01*
X884157Y-60000D01*
X884526Y-61853D01*
X885575Y-63425D01*
X887147Y-64474D01*
X889000Y-64843D01*
X890853Y-64474D01*
X892425Y-63425D01*
X893474Y-61853D01*
X893843Y-60000D01*
X893598Y-58770D01*
X894175Y-57500D01*
X894175D01*
Y-48500D01*
X883825D01*
Y-48500D01*
X883175D01*
Y-48500D01*
X874547D01*
X873523Y-47477D01*
X872366Y-46703D01*
X871000Y-46431D01*
X870000D01*
Y-46270D01*
X861000D01*
Y-43730D01*
X870000D01*
Y-38500D01*
Y-26500D01*
X852000D01*
X851530Y-25425D01*
X851474Y-25147D01*
X850425Y-23575D01*
X848853Y-22526D01*
X847000Y-22157D01*
D02*
G37*
G36*
X787500Y-44250D02*
X774500D01*
Y-56941D01*
X752500D01*
Y-44250D01*
X739500D01*
Y-46941D01*
X724941D01*
X724941Y-46941D01*
X723771Y-47174D01*
X722778Y-47837D01*
X718837Y-51778D01*
X718174Y-52771D01*
X717941Y-53941D01*
X717941Y-53941D01*
Y-63331D01*
X717576Y-63575D01*
X716526Y-65147D01*
X716157Y-67000D01*
X716526Y-68853D01*
X717576Y-70424D01*
X719147Y-71474D01*
X721000Y-71843D01*
X721518Y-71740D01*
X722500Y-72546D01*
Y-81175D01*
X731500D01*
Y-75826D01*
X732163Y-75163D01*
X732163Y-75163D01*
X732826Y-74171D01*
X733059Y-73000D01*
X732826Y-71830D01*
X732736Y-71695D01*
X732870Y-71443D01*
X734512Y-71050D01*
X735147Y-71474D01*
X737000Y-71843D01*
X738853Y-71474D01*
X740424Y-70424D01*
X741575D01*
X743147Y-71474D01*
X745000Y-71843D01*
X746853Y-71474D01*
X748425Y-70424D01*
X749474Y-68853D01*
X749843Y-67000D01*
X749474Y-65147D01*
X748928Y-64329D01*
X749607Y-63059D01*
X756393D01*
X757072Y-64329D01*
X756526Y-65147D01*
X756157Y-67000D01*
X756526Y-68853D01*
X757575Y-70424D01*
X757941Y-70669D01*
Y-77733D01*
X757733Y-77941D01*
X752000D01*
X752000Y-77941D01*
X750829Y-78174D01*
X749837Y-78837D01*
X749837Y-78837D01*
X747837Y-80837D01*
X747174Y-81830D01*
X746941Y-83000D01*
X746941Y-83000D01*
Y-85025D01*
X745766Y-85512D01*
X744094Y-86794D01*
X742812Y-88465D01*
X742006Y-90412D01*
X741731Y-92500D01*
Y-105500D01*
X742006Y-107588D01*
X742812Y-109535D01*
X744094Y-111206D01*
X745766Y-112488D01*
X747712Y-113294D01*
X749800Y-113569D01*
X751888Y-113294D01*
X753835Y-112488D01*
X755506Y-111206D01*
X756788Y-109535D01*
X757594Y-107588D01*
X757869Y-105500D01*
Y-92500D01*
X757594Y-90412D01*
X756788Y-88465D01*
X755506Y-86794D01*
X753835Y-85512D01*
X754011Y-84210D01*
X754091Y-84059D01*
X759000D01*
X759000Y-84059D01*
X760171Y-83826D01*
X761163Y-83163D01*
X763163Y-81163D01*
X763826Y-80170D01*
X764059Y-79000D01*
Y-71499D01*
X765329Y-70957D01*
X765941Y-71543D01*
Y-79000D01*
X765941Y-79000D01*
X766174Y-80170D01*
X766837Y-81163D01*
X768837Y-83163D01*
X769829Y-83826D01*
X771000Y-84059D01*
X771355D01*
X771608Y-85329D01*
X771165Y-85512D01*
X769494Y-86794D01*
X768212Y-88465D01*
X767406Y-90412D01*
X767131Y-92500D01*
Y-105500D01*
X767406Y-107588D01*
X768212Y-109535D01*
X769494Y-111206D01*
X771165Y-112488D01*
X773112Y-113294D01*
X775200Y-113569D01*
X777288Y-113294D01*
X779234Y-112488D01*
X780906Y-111206D01*
X782188Y-109535D01*
X782994Y-107588D01*
X783269Y-105500D01*
Y-92500D01*
X782994Y-90412D01*
X782188Y-88465D01*
X780906Y-86794D01*
X779234Y-85512D01*
X778459Y-85191D01*
Y-82400D01*
X778459Y-82400D01*
X778226Y-81229D01*
X777563Y-80237D01*
X776163Y-78837D01*
X775171Y-78174D01*
X774000Y-77941D01*
X774000Y-77941D01*
X772267D01*
X772059Y-77733D01*
Y-70669D01*
X772425Y-70424D01*
X773474Y-68853D01*
X773843Y-67000D01*
X773474Y-65147D01*
X772928Y-64329D01*
X773607Y-63059D01*
X779000D01*
X779000Y-63059D01*
X780171Y-62826D01*
X781163Y-62163D01*
X783163Y-60163D01*
X783826Y-59170D01*
X784059Y-58000D01*
Y-57750D01*
X787500D01*
Y-44250D01*
D02*
G37*
G36*
X826000Y-36270D02*
X817001D01*
X808000D01*
Y-43500D01*
Y-53500D01*
X825256D01*
X825526Y-54853D01*
X826575Y-56425D01*
X828147Y-57474D01*
X830000Y-57843D01*
X831853Y-57474D01*
X833425Y-56425D01*
X834474Y-54853D01*
X834843Y-53000D01*
X834474Y-51147D01*
X833425Y-49576D01*
Y-48425D01*
X834474Y-46853D01*
X834843Y-45000D01*
X834474Y-43147D01*
X833425Y-41575D01*
X831853Y-40526D01*
X830000Y-40157D01*
X828147Y-40526D01*
X827270Y-41111D01*
X826000Y-40433D01*
Y-36270D01*
D02*
G37*
G36*
X750000Y-19157D02*
X748147Y-19526D01*
X746575Y-20575D01*
X745526Y-22147D01*
X745157Y-24000D01*
X745526Y-25853D01*
X746575Y-27425D01*
X748147Y-28474D01*
X749000Y-28644D01*
Y-37750D01*
X752491D01*
X752674Y-38670D01*
X753337Y-39663D01*
X754837Y-41163D01*
X754837Y-41163D01*
X755829Y-41826D01*
X757000Y-42059D01*
X789000D01*
X789000Y-42059D01*
X790171Y-41826D01*
X791163Y-41163D01*
X792663Y-39663D01*
X792663Y-39663D01*
X793326Y-38671D01*
X793509Y-37750D01*
X797000D01*
Y-24250D01*
X784000D01*
Y-35941D01*
X762000D01*
Y-24250D01*
X755048D01*
X754843Y-24000D01*
X754474Y-22147D01*
X753425Y-20575D01*
X751853Y-19526D01*
X750000Y-19157D01*
D02*
G37*
G36*
X826000Y-26500D02*
X818271D01*
Y-28730D01*
X826000D01*
Y-26500D01*
D02*
G37*
G36*
X816844Y134995D02*
X808005Y126156D01*
X816844Y117317D01*
X822624Y123097D01*
X827250D01*
Y120000D01*
X840750D01*
X840941Y118809D01*
Y106000D01*
X840941Y106000D01*
X841174Y104830D01*
X841837Y103837D01*
X843837Y101837D01*
X843837Y101837D01*
X844829Y101174D01*
X846000Y100941D01*
X846000Y100941D01*
X861750D01*
Y95000D01*
X866191D01*
Y88000D01*
X865750D01*
Y85059D01*
X860750D01*
Y88500D01*
X847250D01*
Y75500D01*
X860750D01*
Y78941D01*
X865750D01*
Y75500D01*
X878250D01*
Y78691D01*
X887750D01*
Y75500D01*
X900250D01*
Y78691D01*
X903750D01*
X903750Y78691D01*
X904921Y78924D01*
X905913Y79587D01*
X908163Y81837D01*
X908826Y82830D01*
X909059Y84000D01*
X909059Y84000D01*
Y90000D01*
X911250D01*
Y102500D01*
X898750D01*
Y90000D01*
X902941D01*
Y85267D01*
X902483Y84809D01*
X900250D01*
Y88000D01*
X887750D01*
Y84809D01*
X878250D01*
Y88000D01*
X872309D01*
Y95000D01*
X876750D01*
Y113000D01*
X862020D01*
X861750Y113000D01*
X860750Y113652D01*
Y115348D01*
X861750Y116000D01*
X876750D01*
Y134000D01*
X861750D01*
Y130059D01*
X857669D01*
X857424Y130425D01*
X855853Y131474D01*
X854000Y131843D01*
X852147Y131474D01*
X850575Y130425D01*
X849526Y128853D01*
X849157Y127000D01*
X849526Y125147D01*
X849777Y124770D01*
X849098Y123500D01*
X848156D01*
X847118Y123973D01*
X846932Y124638D01*
X846826Y125170D01*
X846163Y126163D01*
X843663Y128663D01*
X842671Y129326D01*
X841500Y129559D01*
X840750Y130469D01*
Y133000D01*
X827250D01*
Y129215D01*
X822624D01*
X816844Y134995D01*
D02*
G37*
G36*
X833000Y66843D02*
X831147Y66474D01*
X829576Y65425D01*
X828526Y63853D01*
X828157Y62000D01*
X828526Y60147D01*
X829576Y58575D01*
X829941Y58331D01*
Y54500D01*
X826250D01*
Y41500D01*
X839750D01*
Y54500D01*
X836059D01*
Y58331D01*
X836425Y58575D01*
X837474Y60147D01*
X837843Y62000D01*
X837474Y63853D01*
X836425Y65425D01*
X834853Y66474D01*
X833000Y66843D01*
D02*
G37*
G36*
X596000Y-93157D02*
X594147Y-93526D01*
X592575Y-94576D01*
X591526Y-96147D01*
X591157Y-98000D01*
X591526Y-99853D01*
X592111Y-100730D01*
X591432Y-102000D01*
X589497D01*
X588889Y-100730D01*
X589474Y-99853D01*
X589843Y-98000D01*
X589474Y-96147D01*
X588425Y-94576D01*
X586853Y-93526D01*
X585000Y-93157D01*
X583147Y-93526D01*
X581575Y-94576D01*
X580706Y-95877D01*
X580239Y-95979D01*
X579761D01*
X579294Y-95877D01*
X578424Y-94576D01*
X576853Y-93526D01*
X575000Y-93157D01*
X573147Y-93526D01*
X571575Y-94576D01*
X570526Y-96147D01*
X570157Y-98000D01*
X570526Y-99853D01*
X571111Y-100730D01*
X570503Y-102000D01*
X564000D01*
Y-116000D01*
X579000D01*
Y-102000D01*
X579000D01*
X578907Y-100937D01*
X579842Y-100021D01*
X580158D01*
X581093Y-100937D01*
X581000Y-102000D01*
X581000D01*
Y-116000D01*
X596000D01*
Y-102843D01*
X596000Y-102843D01*
X597853Y-102474D01*
X599425Y-101425D01*
X600474Y-99853D01*
X600843Y-98000D01*
X600474Y-96147D01*
X599425Y-94576D01*
X597853Y-93526D01*
X596000Y-93157D01*
D02*
G37*
G36*
X747635Y16019D02*
X742685Y11069D01*
X737387Y5771D01*
X737470Y4906D01*
X734373Y1808D01*
X734087Y1380D01*
X729694Y-3013D01*
X736058Y-9377D01*
X737555Y-7880D01*
X739837Y-10163D01*
X739837Y-10163D01*
X740829Y-10826D01*
X742000Y-11059D01*
X742000Y-11059D01*
X746331D01*
X746575Y-11425D01*
X748147Y-12474D01*
X750000Y-12843D01*
X751853Y-12474D01*
X753425Y-11425D01*
X754474Y-9853D01*
X754843Y-8000D01*
X754474Y-6147D01*
X753425Y-4575D01*
X751853Y-3526D01*
X750000Y-3157D01*
X748147Y-3526D01*
X746575Y-4575D01*
X746331Y-4941D01*
X743267D01*
X741880Y-3555D01*
X743377Y-2058D01*
X741268Y51D01*
X742536Y1319D01*
X742918Y936D01*
X752818Y10836D01*
X747635Y16019D01*
D02*
G37*
G36*
X723130Y-84598D02*
X722312Y-84706D01*
X720366Y-85512D01*
X718694Y-86794D01*
X717412Y-88465D01*
X716606Y-90412D01*
X716331Y-92500D01*
Y-97730D01*
X723130D01*
Y-84598D01*
D02*
G37*
G36*
X859000Y1843D02*
X857147Y1474D01*
X855575Y425D01*
X854526Y-1147D01*
X854157Y-3000D01*
X854402Y-4230D01*
X853547Y-5500D01*
X852750D01*
Y-18000D01*
X865250D01*
Y-5500D01*
X864454D01*
X863598Y-4230D01*
X863843Y-3000D01*
X863474Y-1147D01*
X862425Y425D01*
X860853Y1474D01*
X859000Y1843D01*
D02*
G37*
%LPD*%
G36*
X804000Y186500D02*
X805500Y184000D01*
X808500Y181000D01*
X810500Y179500D01*
X813500Y178000D01*
X815500Y177500D01*
X820000Y177000D01*
X793500D01*
Y187500D01*
X803500D01*
X804000Y186500D01*
D02*
G37*
G36*
X846500Y177000D02*
X820000D01*
X824000Y177500D01*
X826000Y178000D01*
X827000Y178500D01*
X830000Y180000D01*
X832000Y181500D01*
X833500Y183000D01*
X835000Y185000D01*
X836500Y187500D01*
X846500D01*
Y177000D01*
D02*
G37*
G36*
Y202500D02*
X836500D01*
X835000Y205000D01*
X833500Y207000D01*
X831000Y209500D01*
X829500Y210500D01*
X826500Y212000D01*
X824500Y212500D01*
X820000Y213000D01*
X846500D01*
Y202500D01*
D02*
G37*
G36*
X815500Y212500D02*
X812500Y211500D01*
X811500Y211000D01*
X809000Y209500D01*
X805500Y206000D01*
X804500Y204500D01*
X803500Y202500D01*
X793500D01*
Y213000D01*
X820000D01*
X815500Y212500D01*
D02*
G37*
G36*
X899000Y-82706D02*
Y-84000D01*
X914000D01*
X914000Y-85270D01*
Y-86000D01*
X919041D01*
X919246Y-86408D01*
X919380Y-87270D01*
X918186Y-88186D01*
X917104Y-89596D01*
X916424Y-91238D01*
X916192Y-93000D01*
X916296Y-93795D01*
X915459Y-94750D01*
X912541D01*
X911703Y-93795D01*
X911808Y-93000D01*
X911576Y-91238D01*
X910896Y-89596D01*
X909814Y-88186D01*
X908404Y-87104D01*
X906762Y-86424D01*
X905000Y-86192D01*
X903238Y-86424D01*
X901596Y-87104D01*
X900186Y-88186D01*
X899104Y-89596D01*
X898424Y-91238D01*
X898192Y-93000D01*
X898367Y-94332D01*
X898000Y-94750D01*
X898000D01*
Y-96750D01*
X886297D01*
X884898Y-95352D01*
X883741Y-94578D01*
X882375Y-94306D01*
X877125D01*
X875759Y-94578D01*
X875212Y-94944D01*
X874875D01*
X874270Y-95064D01*
X873940Y-95047D01*
X873132Y-94567D01*
X872819Y-94264D01*
Y-92250D01*
X884000D01*
Y-88319D01*
X890250D01*
X891616Y-88047D01*
X892773Y-87273D01*
X897827Y-82220D01*
X899000Y-82706D01*
D02*
G37*
G36*
X1181300Y-69072D02*
Y-70850D01*
X1190922D01*
Y-106777D01*
X1189652Y-107162D01*
X1189326Y-106674D01*
X1187341Y-105348D01*
X1185000Y-104882D01*
X1182659Y-105348D01*
X1180674Y-106674D01*
X1179348Y-108659D01*
X1178883Y-111000D01*
X1179348Y-113341D01*
X1180674Y-115326D01*
X1182272Y-116393D01*
Y-117214D01*
X1181593Y-118230D01*
X1181201Y-120200D01*
Y-129300D01*
X1181593Y-131270D01*
X1182709Y-132941D01*
X1184380Y-134057D01*
X1186350Y-134449D01*
X1188320Y-134057D01*
X1189652Y-133167D01*
X1190922Y-133660D01*
Y-188209D01*
X1189652Y-188419D01*
X1188210Y-184173D01*
X1185818Y-179321D01*
X1182812Y-174823D01*
X1179245Y-170755D01*
X1175178Y-167188D01*
X1170679Y-164182D01*
X1165827Y-161790D01*
X1160704Y-160051D01*
X1157794Y-159472D01*
X1157526Y-158124D01*
X1157882Y-157886D01*
X1157882Y-157886D01*
X1162884Y-152884D01*
X1162884Y-152884D01*
X1163768Y-151561D01*
X1164078Y-150000D01*
X1164078Y-150000D01*
X1164078Y-80000D01*
X1164078Y-80000D01*
X1163768Y-78439D01*
X1162884Y-77116D01*
X1162884Y-77116D01*
X1162019Y-76252D01*
X1162505Y-75078D01*
X1170056D01*
X1170255Y-75039D01*
X1170456Y-75058D01*
X1171030Y-74885D01*
X1171617Y-74768D01*
X1171785Y-74655D01*
X1171979Y-74597D01*
X1172442Y-74216D01*
X1172940Y-73884D01*
X1173053Y-73715D01*
X1173209Y-73587D01*
X1173491Y-73059D01*
X1173595Y-72904D01*
X1173650Y-72911D01*
X1175490Y-72668D01*
X1177205Y-71958D01*
X1178678Y-70828D01*
X1179808Y-69355D01*
X1180030Y-68820D01*
X1181300Y-69072D01*
D02*
G37*
G36*
X1160000Y-80000D02*
X1160000Y-150000D01*
X1154998Y-155002D01*
X1129998Y-155002D01*
X1105000Y-180000D01*
X1105000Y-255000D01*
X1100000Y-260000D01*
X945000Y-260000D01*
X940000Y-255000D01*
Y-155000D01*
Y-151880D01*
X940561Y-151768D01*
X941884Y-150884D01*
X949784Y-142984D01*
X949784Y-142984D01*
X950668Y-141661D01*
X950978Y-140100D01*
X950978Y-140100D01*
Y-135750D01*
X953400D01*
Y-85750D01*
X950978D01*
Y-84491D01*
X951226Y-84326D01*
X952552Y-82341D01*
X953018Y-80000D01*
X952552Y-77659D01*
X951624Y-76270D01*
X952303Y-75000D01*
X1061597Y-75000D01*
X1062276Y-76270D01*
X1061348Y-77659D01*
X1060882Y-80000D01*
X1061348Y-82341D01*
X1062674Y-84326D01*
X1062922Y-84491D01*
Y-85750D01*
X1060400D01*
Y-106172D01*
X1054000D01*
Y-102750D01*
X1036000D01*
Y-117750D01*
X1054000D01*
Y-114328D01*
X1060400D01*
Y-135750D01*
X1062822D01*
Y-143750D01*
X1060000D01*
Y-156250D01*
X1072500D01*
Y-143750D01*
X1070978D01*
Y-135750D01*
X1073400D01*
Y-85750D01*
X1071078D01*
Y-84491D01*
X1071326Y-84326D01*
X1072652Y-82341D01*
X1073118Y-80000D01*
X1072652Y-77659D01*
X1071724Y-76270D01*
X1072403Y-75000D01*
X1155000Y-75000D01*
X1160000Y-80000D01*
D02*
G37*
G36*
X1245000Y-55000D02*
X1250000Y-60000D01*
X1250000Y-144999D01*
X1255001Y-150000D01*
X1355000D01*
X1360000Y-155000D01*
Y-255000D01*
X1355000Y-260000D01*
X1200000D01*
X1195000Y-255000D01*
Y-60000D01*
X1200000Y-55000D01*
X1245000Y-55000D01*
D02*
G37*
G36*
X935922Y-173931D02*
X933000D01*
Y-173000D01*
X914000D01*
X913750Y-171834D01*
Y-159000D01*
X933250D01*
Y-154117D01*
X935922D01*
Y-173931D01*
D02*
G37*
G36*
X1360000Y255000D02*
Y145000D01*
X1355000Y140000D01*
X1245000D01*
X1240000Y145000D01*
Y255000D01*
X1245000Y260000D01*
X1355000D01*
X1360000Y255000D01*
D02*
G37*
G36*
X914431Y61522D02*
Y54500D01*
X911750D01*
Y43775D01*
X910238Y43576D01*
X908596Y42896D01*
X907186Y41814D01*
X906814D01*
X905404Y42896D01*
X903762Y43576D01*
X902000Y43808D01*
X901205Y43703D01*
X900250Y44541D01*
Y54500D01*
X887750D01*
Y51309D01*
X886059D01*
Y56000D01*
X886059Y56000D01*
X885826Y57171D01*
X885163Y58163D01*
X885163Y58163D01*
X883163Y60163D01*
X882170Y60826D01*
X881000Y61059D01*
X881000Y61059D01*
X875669D01*
X875425Y61425D01*
X873853Y62474D01*
X872000Y62843D01*
X870147Y62474D01*
X870056Y62414D01*
X868644Y62998D01*
X868474Y63853D01*
X868158Y64327D01*
X869073Y65243D01*
X870147Y64526D01*
X872000Y64157D01*
X873853Y64526D01*
X875209Y65431D01*
X910522D01*
X914431Y61522D01*
D02*
G37*
G36*
X1055000Y260000D02*
X1060000Y255000D01*
X1060001Y100000D01*
X1055000Y95000D01*
X940000Y95000D01*
X940000Y255000D01*
X945000Y260000D01*
X1055000Y260000D01*
D02*
G37*
G36*
X1375000Y80000D02*
Y-140000D01*
X1370000Y-145000D01*
X1279000D01*
X1258000Y-145000D01*
X1255000Y-142000D01*
X1255000Y-60000D01*
X1260000Y-55000D01*
X1271000D01*
Y80000D01*
X1276000Y85000D01*
X1370000D01*
X1375000Y80000D01*
D02*
G37*
G36*
X1055000Y85000D02*
X1115000Y85000D01*
X1115000Y70000D01*
X1120000Y65000D01*
X1144927D01*
X1145052Y63730D01*
X1144659Y63652D01*
X1142674Y62326D01*
X1141348Y60341D01*
X1140882Y58000D01*
X1141348Y55659D01*
X1142674Y53674D01*
X1144659Y52348D01*
X1147000Y51883D01*
X1151500D01*
Y51750D01*
X1164000D01*
Y51883D01*
X1168000D01*
Y51250D01*
X1186000D01*
Y56982D01*
X1194250D01*
Y56600D01*
X1244250D01*
Y65000D01*
X1260000D01*
X1265000Y60000D01*
Y-25000D01*
X1260000Y-30000D01*
X1185000D01*
X1180000Y-35000D01*
X1180000Y-56229D01*
X1178730Y-56354D01*
X1178407Y-54730D01*
X1177291Y-53059D01*
X1175620Y-51943D01*
X1174920Y-51804D01*
Y-61250D01*
X1173650D01*
Y-62520D01*
X1168501D01*
Y-65800D01*
X1168893Y-67770D01*
X1170009Y-69441D01*
X1170442Y-69730D01*
X1170056Y-71000D01*
X935000D01*
X930000Y-66000D01*
X930000Y40000D01*
X940000Y50000D01*
X940000Y85000D01*
X1055000Y85000D01*
D02*
G37*
%LPC*%
G36*
X1172380Y-126020D02*
X1168501D01*
Y-129300D01*
X1168893Y-131270D01*
X1170009Y-132941D01*
X1171680Y-134057D01*
X1172380Y-134196D01*
Y-126020D01*
D02*
G37*
G36*
X1178799D02*
X1174920D01*
Y-134196D01*
X1175620Y-134057D01*
X1177291Y-132941D01*
X1178407Y-131270D01*
X1178799Y-129300D01*
Y-126020D01*
D02*
G37*
G36*
X1174920Y-115304D02*
Y-123480D01*
X1178799D01*
Y-120200D01*
X1178407Y-118230D01*
X1177291Y-116559D01*
X1175620Y-115443D01*
X1174920Y-115304D01*
D02*
G37*
G36*
X1172380Y-115304D02*
X1171680Y-115443D01*
X1170009Y-116559D01*
X1168893Y-118230D01*
X1168501Y-120200D01*
Y-123480D01*
X1172380D01*
Y-115304D01*
D02*
G37*
G36*
Y-51804D02*
X1171680Y-51943D01*
X1170009Y-53059D01*
X1168893Y-54730D01*
X1168501Y-56700D01*
Y-59980D01*
X1172380D01*
Y-51804D01*
D02*
G37*
G36*
X137100Y-107006D02*
X133277Y-107382D01*
X129602Y-108497D01*
X126214Y-110308D01*
X123245Y-112745D01*
X120808Y-115714D01*
X118997Y-119101D01*
X117882Y-122777D01*
X117506Y-126600D01*
X117882Y-130423D01*
X118997Y-134098D01*
X120808Y-137486D01*
X123245Y-140455D01*
X126214Y-142892D01*
X129602Y-144703D01*
X133277Y-145818D01*
X137100Y-146194D01*
X140923Y-145818D01*
X144598Y-144703D01*
X147986Y-142892D01*
X150955Y-140455D01*
X153392Y-137486D01*
X155203Y-134098D01*
X156318Y-130423D01*
X156694Y-126600D01*
X156318Y-122777D01*
X155203Y-119101D01*
X153392Y-115714D01*
X150955Y-112745D01*
X147986Y-110308D01*
X144598Y-108497D01*
X140923Y-107382D01*
X137100Y-107006D01*
D02*
G37*
G36*
Y146194D02*
X133277Y145818D01*
X129602Y144703D01*
X126214Y142892D01*
X123245Y140455D01*
X120808Y137486D01*
X118997Y134098D01*
X117882Y130423D01*
X117506Y126600D01*
X117882Y122777D01*
X118997Y119102D01*
X120808Y115714D01*
X123245Y112745D01*
X126214Y110308D01*
X129602Y108497D01*
X133277Y107382D01*
X137100Y107006D01*
X140923Y107382D01*
X144598Y108497D01*
X147986Y110308D01*
X150955Y112745D01*
X153392Y115714D01*
X155203Y119102D01*
X156318Y122777D01*
X156694Y126600D01*
X156318Y130423D01*
X155203Y134098D01*
X153392Y137486D01*
X150955Y140455D01*
X147986Y142892D01*
X144598Y144703D01*
X140923Y145818D01*
X137100Y146194D01*
D02*
G37*
%LPD*%
D10*
X984000Y275000D02*
D03*
X1016000D02*
D03*
D11*
X572000Y223500D02*
D03*
Y206500D02*
D03*
X587000D02*
D03*
Y189500D02*
D03*
Y223500D02*
D03*
Y240500D02*
D03*
X585000Y-137500D02*
D03*
Y-154500D02*
D03*
X701000Y-229500D02*
D03*
Y-212500D02*
D03*
X886000Y24500D02*
D03*
Y7500D02*
D03*
X901000Y24500D02*
D03*
Y7500D02*
D03*
X916000Y24500D02*
D03*
Y7500D02*
D03*
X839000Y-197500D02*
D03*
Y-180500D02*
D03*
Y-214500D02*
D03*
Y-231500D02*
D03*
X202000Y-129500D02*
D03*
Y-146500D02*
D03*
Y129500D02*
D03*
Y146500D02*
D03*
D12*
X1199500Y107000D02*
D03*
D13*
X1137000Y84000D02*
D03*
Y130000D02*
D03*
D14*
X713536Y95535D02*
D03*
X706464Y88464D02*
D03*
X810464Y31465D02*
D03*
X817535Y38535D02*
D03*
X785536Y133535D02*
D03*
X778465Y126465D02*
D03*
X683536Y131536D02*
D03*
X676464Y124465D02*
D03*
X690464Y138464D02*
D03*
X697535Y145535D02*
D03*
X801535Y103393D02*
D03*
X808607Y110464D02*
D03*
X808607Y96322D02*
D03*
X815678Y103393D02*
D03*
X787393Y117536D02*
D03*
X794464Y124607D02*
D03*
D15*
X729464Y4536D02*
D03*
X736535Y-2535D02*
D03*
X798465Y12536D02*
D03*
X805536Y5465D02*
D03*
X791393Y5465D02*
D03*
X798464Y-1607D02*
D03*
X805536Y19607D02*
D03*
X812607Y12536D02*
D03*
D16*
X670000Y56000D02*
D03*
X680000D02*
D03*
X791000Y-79000D02*
D03*
X801000D02*
D03*
X791000Y-69000D02*
D03*
X801000D02*
D03*
X716000Y-229000D02*
D03*
X726000D02*
D03*
X670000Y77000D02*
D03*
X680000D02*
D03*
Y-26000D02*
D03*
X670000D02*
D03*
X680000Y-36000D02*
D03*
X670000D02*
D03*
X704000Y-56000D02*
D03*
X694000D02*
D03*
X704000Y-46000D02*
D03*
X694000D02*
D03*
X680000Y66000D02*
D03*
X670000D02*
D03*
X680000Y88000D02*
D03*
X670000D02*
D03*
X1226000Y-41000D02*
D03*
X1236000D02*
D03*
X688000Y-70000D02*
D03*
X698000D02*
D03*
X680000Y-56000D02*
D03*
X670000D02*
D03*
X680000Y-46000D02*
D03*
X670000D02*
D03*
Y-16000D02*
D03*
X680000D02*
D03*
X670000Y-6000D02*
D03*
X680000D02*
D03*
X670000Y4000D02*
D03*
X680000D02*
D03*
X670000Y15000D02*
D03*
X680000D02*
D03*
X670000Y25000D02*
D03*
X680000D02*
D03*
X670000Y45000D02*
D03*
X680000D02*
D03*
X670000Y35000D02*
D03*
X680000D02*
D03*
X727000Y-76000D02*
D03*
X717000D02*
D03*
D17*
X891000Y-104250D02*
D03*
Y-121750D02*
D03*
X900000Y-11250D02*
D03*
Y-28750D02*
D03*
X918000Y-11250D02*
D03*
Y-28750D02*
D03*
X882000Y-11250D02*
D03*
Y-28750D02*
D03*
X875000Y-84750D02*
D03*
Y-67250D02*
D03*
X526000Y-247250D02*
D03*
Y-264750D02*
D03*
Y-201250D02*
D03*
Y-218750D02*
D03*
Y-155250D02*
D03*
Y-172750D02*
D03*
Y-109250D02*
D03*
Y-126750D02*
D03*
Y-63250D02*
D03*
Y-80750D02*
D03*
Y-17250D02*
D03*
Y-34750D02*
D03*
Y28750D02*
D03*
Y11250D02*
D03*
Y74750D02*
D03*
Y57250D02*
D03*
Y120750D02*
D03*
Y103250D02*
D03*
Y166750D02*
D03*
Y149250D02*
D03*
Y212750D02*
D03*
Y195250D02*
D03*
Y258750D02*
D03*
Y241250D02*
D03*
X909000Y-61750D02*
D03*
Y-44250D02*
D03*
X844000Y269250D02*
D03*
Y286750D02*
D03*
X820000Y269250D02*
D03*
Y286750D02*
D03*
X796000Y269250D02*
D03*
Y286750D02*
D03*
X927000Y-104250D02*
D03*
Y-121750D02*
D03*
X1177000Y58750D02*
D03*
Y41250D02*
D03*
X1045000Y-127750D02*
D03*
Y-110250D02*
D03*
X1105000Y98750D02*
D03*
Y81250D02*
D03*
X909000Y-104250D02*
D03*
Y-121750D02*
D03*
X335000Y-250250D02*
D03*
Y-267750D02*
D03*
Y-204250D02*
D03*
Y-221750D02*
D03*
Y-158250D02*
D03*
Y-175750D02*
D03*
Y-112250D02*
D03*
Y-129750D02*
D03*
Y-66250D02*
D03*
Y-83750D02*
D03*
Y-20250D02*
D03*
Y-37750D02*
D03*
Y25750D02*
D03*
Y8250D02*
D03*
Y71750D02*
D03*
Y54250D02*
D03*
Y117750D02*
D03*
Y100250D02*
D03*
Y163750D02*
D03*
Y146250D02*
D03*
Y209750D02*
D03*
Y192250D02*
D03*
Y255750D02*
D03*
Y238250D02*
D03*
X796000Y236250D02*
D03*
Y253750D02*
D03*
X844000Y236250D02*
D03*
Y253750D02*
D03*
X820000Y236250D02*
D03*
Y253750D02*
D03*
D18*
X801000Y-222000D02*
D03*
Y-212000D02*
D03*
X574000Y-188000D02*
D03*
Y-178000D02*
D03*
X878000Y-43000D02*
D03*
Y-53000D02*
D03*
X889000Y-43000D02*
D03*
Y-53000D02*
D03*
X648000Y-135000D02*
D03*
Y-145000D02*
D03*
X662000Y-135000D02*
D03*
Y-145000D02*
D03*
X717000Y0D02*
D03*
Y10000D02*
D03*
X872000Y27000D02*
D03*
Y37000D02*
D03*
X859000Y-75000D02*
D03*
Y-85000D02*
D03*
X849000Y-75000D02*
D03*
Y-85000D02*
D03*
X839000Y-75000D02*
D03*
Y-85000D02*
D03*
X829000Y-75000D02*
D03*
Y-85000D02*
D03*
X920000Y116000D02*
D03*
Y106000D02*
D03*
X821000Y87000D02*
D03*
Y77000D02*
D03*
X585000Y-178000D02*
D03*
Y-188000D02*
D03*
X698000Y0D02*
D03*
Y10000D02*
D03*
X771000Y162000D02*
D03*
Y172000D02*
D03*
X887000Y-179000D02*
D03*
Y-189000D02*
D03*
D19*
X625500Y-135000D02*
D03*
X608500D02*
D03*
X648500Y-215000D02*
D03*
X631500D02*
D03*
X914500Y168000D02*
D03*
X897500D02*
D03*
X316500Y-236000D02*
D03*
X333500D02*
D03*
X316500Y-190000D02*
D03*
X333500D02*
D03*
X316500Y-144000D02*
D03*
X333500D02*
D03*
X316500Y-98000D02*
D03*
X333500D02*
D03*
X316500Y-52000D02*
D03*
X333500D02*
D03*
X316500Y-6000D02*
D03*
X333500D02*
D03*
X316500Y40000D02*
D03*
X333500D02*
D03*
X316500Y86000D02*
D03*
X333500D02*
D03*
X316500Y132000D02*
D03*
X333500D02*
D03*
X316500Y178000D02*
D03*
X333500D02*
D03*
X316500Y224000D02*
D03*
X333500D02*
D03*
X316500Y270000D02*
D03*
X333500D02*
D03*
X638500Y125000D02*
D03*
X621500D02*
D03*
X588500Y-109000D02*
D03*
X571500D02*
D03*
X923500Y-77000D02*
D03*
X906500D02*
D03*
X923500Y-182000D02*
D03*
X906500D02*
D03*
X491500Y-246000D02*
D03*
X474500D02*
D03*
X491500Y-200000D02*
D03*
X474500D02*
D03*
X491500Y-154000D02*
D03*
X474500D02*
D03*
X491500Y-108000D02*
D03*
X474500D02*
D03*
X491500Y-62000D02*
D03*
X474500D02*
D03*
X491500Y-16000D02*
D03*
X474500D02*
D03*
X491500Y30000D02*
D03*
X474500D02*
D03*
X491500Y76000D02*
D03*
X474500D02*
D03*
X491500Y122000D02*
D03*
X474500D02*
D03*
X491500Y168000D02*
D03*
X474500D02*
D03*
X491500Y214000D02*
D03*
X474500D02*
D03*
X491500Y260000D02*
D03*
X474500D02*
D03*
X491500Y-266000D02*
D03*
X474500D02*
D03*
X491500Y-220000D02*
D03*
X474500D02*
D03*
X491500Y-174000D02*
D03*
X474500D02*
D03*
X491500Y-128000D02*
D03*
X474500D02*
D03*
X491500Y-82000D02*
D03*
X474500D02*
D03*
X491500Y-36000D02*
D03*
X474500D02*
D03*
X491500Y10000D02*
D03*
X474500D02*
D03*
X491500Y56000D02*
D03*
X474500D02*
D03*
X491500Y102000D02*
D03*
X474500D02*
D03*
X491500Y148000D02*
D03*
X474500D02*
D03*
X491500Y194000D02*
D03*
X474500D02*
D03*
X491500Y240000D02*
D03*
X474500D02*
D03*
X897500Y182000D02*
D03*
X914500D02*
D03*
X508500Y-283000D02*
D03*
X525500D02*
D03*
X581500Y87000D02*
D03*
X598500D02*
D03*
D20*
X820250Y-281000D02*
D03*
X837750D02*
D03*
X906250Y-166000D02*
D03*
X923750D02*
D03*
X581250Y62000D02*
D03*
X598750D02*
D03*
X743250Y232000D02*
D03*
X760750D02*
D03*
X820250Y-259000D02*
D03*
X837750D02*
D03*
X923750Y-148000D02*
D03*
X906250D02*
D03*
X886750Y104000D02*
D03*
X869250D02*
D03*
Y125000D02*
D03*
X886750D02*
D03*
X958750Y275000D02*
D03*
X941250D02*
D03*
D21*
X860000Y148000D02*
D03*
X830000D02*
D03*
X881000D02*
D03*
X911000D02*
D03*
D22*
X778000Y-232500D02*
D03*
X768500Y-211500D02*
D03*
X787500D02*
D03*
X607000Y-212500D02*
D03*
X616500Y-233500D02*
D03*
X597500D02*
D03*
D23*
X1173650Y-124750D02*
D03*
X1186350D02*
D03*
X1173650Y-61250D02*
D03*
X699350Y-121250D02*
D03*
X686650D02*
D03*
X699350Y-184750D02*
D03*
D24*
X1186350Y-61250D02*
D03*
X686650Y-184750D02*
D03*
D25*
X717000Y-33500D02*
D03*
Y-12500D02*
D03*
X698000Y-33500D02*
D03*
Y-12500D02*
D03*
D26*
X1173250Y-41000D02*
D03*
X1206750D02*
D03*
X1124250Y58000D02*
D03*
X1157750D02*
D03*
X1099750Y-150000D02*
D03*
X1066250D02*
D03*
D27*
X1219000Y-67600D02*
D03*
Y-118400D02*
D03*
D28*
X1325000Y-93000D02*
D03*
D29*
X1215000Y-276400D02*
D03*
Y-233600D02*
D03*
X1085000Y-276400D02*
D03*
Y-233600D02*
D03*
Y178600D02*
D03*
Y221400D02*
D03*
D30*
X793156Y149844D02*
D03*
X816844Y126156D02*
D03*
D31*
X1080000Y112750D02*
D03*
Y79250D02*
D03*
X872000Y81750D02*
D03*
Y48250D02*
D03*
X905000Y96250D02*
D03*
Y129750D02*
D03*
X859000Y-11750D02*
D03*
Y21750D02*
D03*
X918000Y48250D02*
D03*
Y81750D02*
D03*
X837000Y-11750D02*
D03*
Y21750D02*
D03*
X894000Y81750D02*
D03*
Y48250D02*
D03*
X645000Y54250D02*
D03*
Y87750D02*
D03*
X620000Y54250D02*
D03*
Y87750D02*
D03*
D32*
X617000Y106000D02*
D03*
X645000D02*
D03*
D33*
X508000Y-244750D02*
D03*
Y-267250D02*
D03*
Y-198750D02*
D03*
Y-221250D02*
D03*
Y-152750D02*
D03*
Y-175250D02*
D03*
Y-106750D02*
D03*
Y-129250D02*
D03*
Y-60750D02*
D03*
Y-83250D02*
D03*
Y-14750D02*
D03*
Y-37250D02*
D03*
Y31250D02*
D03*
Y8750D02*
D03*
Y77250D02*
D03*
Y54750D02*
D03*
Y123250D02*
D03*
Y100750D02*
D03*
Y169250D02*
D03*
Y146750D02*
D03*
Y215250D02*
D03*
Y192750D02*
D03*
Y261250D02*
D03*
Y238750D02*
D03*
D34*
X325000Y-236000D02*
D03*
Y-190000D02*
D03*
Y-144000D02*
D03*
Y-98000D02*
D03*
Y-52000D02*
D03*
Y-6000D02*
D03*
Y40000D02*
D03*
Y86000D02*
D03*
Y132000D02*
D03*
Y178000D02*
D03*
Y224000D02*
D03*
Y270000D02*
D03*
D35*
X766677Y107568D02*
D03*
X770213Y104033D02*
D03*
X773748Y100497D02*
D03*
X777284Y96962D02*
D03*
X780819Y93426D02*
D03*
X784355Y89890D02*
D03*
X787890Y86355D02*
D03*
X791426Y82819D02*
D03*
X794962Y79284D02*
D03*
X798497Y75748D02*
D03*
X802033Y72213D02*
D03*
X805568Y68677D02*
D03*
X745323Y8432D02*
D03*
X741787Y11967D02*
D03*
X738252Y15503D02*
D03*
X734716Y19038D02*
D03*
X731181Y22574D02*
D03*
X727645Y26109D02*
D03*
X724109Y29645D02*
D03*
X720574Y33181D02*
D03*
X717038Y36716D02*
D03*
X713503Y40252D02*
D03*
X709967Y43787D02*
D03*
X706432Y47323D02*
D03*
D36*
X805568D02*
D03*
X802033Y43787D02*
D03*
X798497Y40252D02*
D03*
X794962Y36716D02*
D03*
X791426Y33181D02*
D03*
X787890Y29645D02*
D03*
X784355Y26109D02*
D03*
X780819Y22574D02*
D03*
X777284Y19038D02*
D03*
X773748Y15503D02*
D03*
X770213Y11967D02*
D03*
X766677Y8432D02*
D03*
X706432Y68677D02*
D03*
X709967Y72213D02*
D03*
X713503Y75748D02*
D03*
X717038Y79284D02*
D03*
X720574Y82819D02*
D03*
X724109Y86355D02*
D03*
X727645Y89890D02*
D03*
X731181Y93426D02*
D03*
X734716Y96962D02*
D03*
X738252Y100497D02*
D03*
X741787Y104033D02*
D03*
X745323Y107568D02*
D03*
D37*
X885500Y192500D02*
D03*
Y197500D02*
D03*
X854500Y192500D02*
D03*
Y197500D02*
D03*
D38*
X870000Y195000D02*
D03*
D39*
Y180250D02*
D03*
X860000D02*
D03*
X865000D02*
D03*
X875000D02*
D03*
X880000D02*
D03*
X860000Y209750D02*
D03*
X865000D02*
D03*
X875000D02*
D03*
X880000D02*
D03*
X870000D02*
D03*
D40*
X724400Y-189000D02*
D03*
X749800D02*
D03*
X775200D02*
D03*
X800600D02*
D03*
X724400Y-99000D02*
D03*
X749800D02*
D03*
X775200D02*
D03*
D41*
X800600D02*
D03*
D42*
X599000Y-174500D02*
D03*
Y-169500D02*
D03*
Y-164500D02*
D03*
Y-189500D02*
D03*
Y-184500D02*
D03*
Y-179500D02*
D03*
X639000Y-174500D02*
D03*
Y-169500D02*
D03*
Y-164500D02*
D03*
Y-189500D02*
D03*
Y-184500D02*
D03*
Y-179500D02*
D03*
D43*
X621500Y-197000D02*
D03*
X626500D02*
D03*
X631500D02*
D03*
X606500D02*
D03*
X611500D02*
D03*
X616500D02*
D03*
Y-157000D02*
D03*
X611500D02*
D03*
X606500D02*
D03*
X631500D02*
D03*
X626500D02*
D03*
X621500D02*
D03*
D44*
X619000Y-177000D02*
D03*
D45*
X861000Y-40000D02*
D03*
Y-45000D02*
D03*
Y-50000D02*
D03*
Y-35000D02*
D03*
Y-30000D02*
D03*
X817000Y-50000D02*
D03*
Y-45000D02*
D03*
Y-30000D02*
D03*
Y-35000D02*
D03*
Y-40000D02*
D03*
D46*
X875750Y-105000D02*
D03*
D47*
X869250D02*
D03*
X862750D02*
D03*
X856250D02*
D03*
X849750D02*
D03*
X843250D02*
D03*
X836750D02*
D03*
X830250D02*
D03*
X875750Y-161000D02*
D03*
X869250D02*
D03*
X862750D02*
D03*
X856250D02*
D03*
X849750D02*
D03*
X843250D02*
D03*
X836750D02*
D03*
X830250D02*
D03*
D48*
X633500Y-258200D02*
D03*
X586500D02*
D03*
D49*
X623000Y-254000D02*
D03*
X616500D02*
D03*
X597000D02*
D03*
X603500D02*
D03*
X610000D02*
D03*
D50*
X598750Y-280500D02*
D03*
X621250D02*
D03*
D51*
X790500Y-275000D02*
D03*
X689500D02*
D03*
X669500Y205000D02*
D03*
X770500D02*
D03*
X669500Y276000D02*
D03*
X770500D02*
D03*
D52*
X765000Y-245500D02*
D03*
X715000D02*
D03*
X740000D02*
D03*
X727500D02*
D03*
X752500D02*
D03*
D53*
X191900Y-105000D02*
D03*
Y-75000D02*
D03*
Y-45000D02*
D03*
X192000Y-15000D02*
D03*
X191900Y15000D02*
D03*
Y45000D02*
D03*
Y75000D02*
D03*
Y105000D02*
D03*
X238100Y45000D02*
D03*
Y15000D02*
D03*
Y-75000D02*
D03*
Y-105000D02*
D03*
Y-45000D02*
D03*
Y-15000D02*
D03*
Y75000D02*
D03*
Y105000D02*
D03*
D54*
X695000Y179000D02*
D03*
X745000D02*
D03*
X720000D02*
D03*
X732500D02*
D03*
X707500D02*
D03*
X695000Y250000D02*
D03*
X745000D02*
D03*
X720000D02*
D03*
X732500D02*
D03*
X707500D02*
D03*
D55*
X820000Y217750D02*
D03*
Y172250D02*
D03*
D56*
X1219250Y63100D02*
D03*
Y50370D02*
D03*
Y37700D02*
D03*
Y12300D02*
D03*
Y-400D02*
D03*
Y-13100D02*
D03*
D57*
X1318750Y25000D02*
D03*
D58*
X1066900Y-110750D02*
D03*
X1079630D02*
D03*
X1092300D02*
D03*
X1117700D02*
D03*
X1130400D02*
D03*
X1143100D02*
D03*
X946900D02*
D03*
X959630D02*
D03*
X972300D02*
D03*
X997700D02*
D03*
X1010400D02*
D03*
X1023100D02*
D03*
D59*
X1105000Y-11250D02*
D03*
X985000D02*
D03*
D60*
X438000Y-256000D02*
D03*
X458000Y-265500D02*
D03*
X438000Y-210000D02*
D03*
X458000Y-219500D02*
D03*
X438000Y-164000D02*
D03*
X458000Y-173500D02*
D03*
X438000Y-118000D02*
D03*
X458000Y-127500D02*
D03*
X438000Y-72000D02*
D03*
X458000Y-81500D02*
D03*
X438000Y-26000D02*
D03*
X458000Y-35500D02*
D03*
X438000Y20000D02*
D03*
X458000Y10500D02*
D03*
X438000Y66000D02*
D03*
X458000Y56500D02*
D03*
X438000Y112000D02*
D03*
X458000Y102500D02*
D03*
X438000Y158000D02*
D03*
X458000Y148500D02*
D03*
X438000Y204000D02*
D03*
X458000Y194500D02*
D03*
X438000Y250000D02*
D03*
X458000Y240500D02*
D03*
X854000Y117000D02*
D03*
X834000Y126500D02*
D03*
X854000Y82000D02*
D03*
X834000Y91500D02*
D03*
X833000Y48000D02*
D03*
X853000Y38500D02*
D03*
X874000Y-189000D02*
D03*
X854000Y-179500D02*
D03*
D61*
X458000Y-246500D02*
D03*
Y-200500D02*
D03*
Y-154500D02*
D03*
Y-108500D02*
D03*
Y-62500D02*
D03*
Y-16500D02*
D03*
Y29500D02*
D03*
Y75500D02*
D03*
Y121500D02*
D03*
Y167500D02*
D03*
Y213500D02*
D03*
Y259500D02*
D03*
X834000Y107500D02*
D03*
Y72500D02*
D03*
X853000Y57500D02*
D03*
X854000Y-198500D02*
D03*
D62*
X756000Y121000D02*
D03*
X765500Y141000D02*
D03*
X693000Y-103000D02*
D03*
X702500Y-83000D02*
D03*
X746000Y-51000D02*
D03*
X755500Y-31000D02*
D03*
X781000Y-51000D02*
D03*
X790500Y-31000D02*
D03*
D63*
X746500Y141000D02*
D03*
X683500Y-83000D02*
D03*
X736500Y-31000D02*
D03*
X771500D02*
D03*
D64*
X178500Y-270000D02*
D03*
X241500D02*
D03*
X178500Y270000D02*
D03*
X241500D02*
D03*
X356500Y-256000D02*
D03*
X419500D02*
D03*
X356500Y-210000D02*
D03*
X419500D02*
D03*
X356500Y-164000D02*
D03*
X419500D02*
D03*
X356500Y-118000D02*
D03*
X419500D02*
D03*
X356500Y-72000D02*
D03*
X419500D02*
D03*
X356500Y-26000D02*
D03*
X419500D02*
D03*
X356500Y20000D02*
D03*
X419500D02*
D03*
X356500Y66000D02*
D03*
X419500D02*
D03*
X356500Y112000D02*
D03*
X419500D02*
D03*
X356500Y158000D02*
D03*
X419500D02*
D03*
X356500Y204000D02*
D03*
X419500D02*
D03*
X356500Y250000D02*
D03*
X419500D02*
D03*
D65*
X1000002Y107002D02*
D03*
X1000000Y73000D02*
D03*
D66*
X1259000Y110000D02*
D03*
X1341000D02*
D03*
D67*
X900500Y260000D02*
D03*
X879500D02*
D03*
D68*
X580250Y34500D02*
D03*
D69*
Y29500D02*
D03*
Y24500D02*
D03*
Y19500D02*
D03*
Y14500D02*
D03*
Y9500D02*
D03*
Y4500D02*
D03*
Y-500D02*
D03*
Y-5500D02*
D03*
Y-10500D02*
D03*
Y-15500D02*
D03*
Y-20500D02*
D03*
Y-25500D02*
D03*
Y-30500D02*
D03*
Y-35500D02*
D03*
Y-40500D02*
D03*
Y-45500D02*
D03*
Y-50500D02*
D03*
Y-55500D02*
D03*
Y-60500D02*
D03*
Y-65500D02*
D03*
Y-70500D02*
D03*
X649750Y34500D02*
D03*
Y29500D02*
D03*
Y24500D02*
D03*
Y19500D02*
D03*
Y14500D02*
D03*
Y9500D02*
D03*
Y4500D02*
D03*
Y-500D02*
D03*
Y-5500D02*
D03*
Y-10500D02*
D03*
Y-15500D02*
D03*
Y-20500D02*
D03*
Y-25500D02*
D03*
Y-30500D02*
D03*
Y-35500D02*
D03*
Y-40500D02*
D03*
Y-45500D02*
D03*
Y-50500D02*
D03*
Y-55500D02*
D03*
Y-60500D02*
D03*
Y-65500D02*
D03*
Y-70500D02*
D03*
D70*
X717434Y131434D02*
D03*
X690566Y104565D02*
D03*
D71*
X1255000Y55000D02*
Y70000D01*
X305000Y270000D02*
X316500D01*
X316500Y270000D01*
X191000Y-146500D02*
X213000D01*
X191900Y-105000D02*
X202000D01*
X191000Y146500D02*
X213000D01*
X820000Y172250D02*
X833750D01*
X841750Y180250D01*
X853250D01*
X866000Y148000D02*
X881000D01*
X863000Y151000D02*
X866000Y148000D01*
X1305000Y110000D02*
X1315000D01*
X1147000Y58000D02*
X1157750D01*
X1176250D01*
X1177000Y58750D01*
X1181350Y63100D01*
X1219250D01*
X956600Y-182000D02*
X961900Y-187300D01*
X923500Y-182000D02*
X956600D01*
X333500Y-248750D02*
Y-236000D01*
X335000Y-267750D02*
X356500D01*
Y-256000D01*
X316000Y-267750D02*
X335000D01*
X316000D02*
Y-267500D01*
X323000Y-250000D02*
X332250D01*
X333500Y-248750D01*
X419500Y-256000D02*
X438000D01*
X451500Y-240000D02*
X458000Y-246500D01*
X333500Y-202750D02*
Y-190000D01*
X335000Y-221750D02*
X356500D01*
Y-210000D01*
X419500D02*
X438000D01*
X323000Y-204000D02*
X332250D01*
X333500Y-202750D01*
X451500Y-194000D02*
X458000Y-200500D01*
X333500Y-221750D02*
X335000D01*
X333500Y-236000D02*
Y-221750D01*
Y-221750D01*
Y-156750D02*
Y-144000D01*
X335000Y-175750D02*
X356500D01*
Y-164000D01*
X419500D02*
X438000D01*
X323000Y-158000D02*
X332250D01*
X333500Y-156750D01*
X451500Y-148000D02*
X458000Y-154500D01*
X333500Y-110750D02*
Y-98000D01*
X335000Y-129750D02*
X356500D01*
Y-118000D01*
X419500D02*
X438000D01*
X323000Y-112000D02*
X332250D01*
X333500Y-110750D01*
X451500Y-102000D02*
X458000Y-108500D01*
X333500Y-190000D02*
Y-177250D01*
X335000Y-175750D01*
X333500Y-144000D02*
Y-131250D01*
X335000Y-129750D01*
X333500Y-64750D02*
Y-52000D01*
X335000Y-83750D02*
X356500D01*
Y-72000D01*
X419500D02*
X438000D01*
X323000Y-66000D02*
X332250D01*
X333500Y-64750D01*
X451500Y-56000D02*
X458000Y-62500D01*
X333500Y-85250D02*
X335000Y-83750D01*
X333500Y-18750D02*
Y-6000D01*
X335000Y-37750D02*
X356500D01*
Y-26000D01*
X419500D02*
X438000D01*
X323000Y-20000D02*
X332250D01*
X333500Y-18750D01*
X451500Y-10000D02*
X458000Y-16500D01*
X333500Y-39250D02*
X335000Y-37750D01*
X333500Y27250D02*
Y40000D01*
X335000Y8250D02*
X356500D01*
Y20000D01*
X419500D02*
X438000D01*
X323000Y26000D02*
X332250D01*
X333500Y27250D01*
X451500Y36000D02*
X458000Y29500D01*
X333500Y6750D02*
X335000Y8250D01*
X333500Y119250D02*
Y132000D01*
X335000Y100250D02*
X356500D01*
Y112000D01*
X419500D02*
X438000D01*
X323000Y118000D02*
X332250D01*
X333500Y119250D01*
X451500Y128000D02*
X458000Y121500D01*
X333500Y98750D02*
X335000Y100250D01*
X333500Y165250D02*
Y178000D01*
X335000Y146250D02*
X356500D01*
Y158000D01*
X419500D02*
X438000D01*
X323000Y164000D02*
X332250D01*
X333500Y165250D01*
X451500Y174000D02*
X458000Y167500D01*
X333500Y144750D02*
X335000Y146250D01*
X333500Y73250D02*
Y86000D01*
X335000Y54250D02*
X356500D01*
Y66000D01*
X419500D02*
X438000D01*
X323000Y72000D02*
X332250D01*
X333500Y73250D01*
X451500Y82000D02*
X458000Y75500D01*
X333500Y52750D02*
X335000Y54250D01*
X333500Y211250D02*
Y224000D01*
X335000Y192250D02*
X356500D01*
Y204000D01*
X419500D02*
X438000D01*
X323000Y210000D02*
X332250D01*
X333500Y211250D01*
X451500Y220000D02*
X458000Y213500D01*
X333500Y190750D02*
X335000Y192250D01*
X333500Y257250D02*
Y270000D01*
X335000Y238250D02*
X356500D01*
Y250000D01*
X419500D02*
X438000D01*
X323000Y256000D02*
X332250D01*
X333500Y257250D01*
X451500Y266000D02*
X458000Y259500D01*
X333500Y-98000D02*
Y-85250D01*
Y-52000D02*
Y-39250D01*
Y-6000D02*
Y6750D01*
Y40000D02*
Y52750D01*
Y86000D02*
Y98750D01*
Y132000D02*
Y144750D01*
Y178000D02*
Y190750D01*
Y236750D02*
X335000Y238250D01*
X333500Y224000D02*
Y236750D01*
X305000Y-268000D02*
X315500D01*
X316000Y-267500D01*
X317000Y-97500D02*
Y-87000D01*
X316500Y-98000D02*
X317000Y-97500D01*
Y-5500D02*
Y5000D01*
X316500Y-6000D02*
X317000Y-5500D01*
Y86500D02*
Y97000D01*
X316500Y86000D02*
X317000Y86500D01*
Y178500D02*
Y189000D01*
X316500Y178000D02*
X317000Y178500D01*
Y-189500D02*
Y-179000D01*
X316500Y-190000D02*
X317000Y-189500D01*
X863000Y151000D02*
Y162000D01*
Y169000D01*
X213000Y15000D02*
X213000Y15000D01*
X213000Y-45000D02*
X213000Y-45000D01*
X213000Y-75000D02*
X213000Y-75000D01*
X213000Y-105000D02*
X213000Y-105000D01*
X1315000Y110000D02*
X1341000D01*
X1199500Y107000D02*
X1202500Y110000D01*
X1259000D01*
X1105000Y81250D02*
X1107750Y84000D01*
X1137000D01*
D72*
X238100Y45000D02*
X260000D01*
X238100Y15000D02*
X260000D01*
X238100Y-15000D02*
X260000D01*
X238100Y-45000D02*
X260000D01*
X238100Y-75000D02*
X260000D01*
X238100Y-105000D02*
X260000D01*
X238100Y75000D02*
Y86900D01*
X230000Y105000D02*
Y115000D01*
Y105000D02*
X238100D01*
X202000Y-105000D02*
X213000D01*
X202000Y-129500D02*
Y-105000D01*
Y105000D02*
Y129500D01*
X1038100Y212700D02*
X1046800Y221400D01*
X1085000D01*
X201900Y75000D02*
X213000D01*
X191900Y45000D02*
X213000D01*
X191900Y15000D02*
X213000D01*
X192000Y-15000D02*
X213000D01*
X191900Y-45000D02*
X213000D01*
X191900Y-75000D02*
X213000D01*
D73*
X260000Y-105000D02*
X280000D01*
X297000Y219000D02*
X302000Y224000D01*
X297000Y172000D02*
Y219000D01*
X270000Y145000D02*
X297000Y172000D01*
X302000Y224000D02*
X316500D01*
X305000Y40000D02*
X316500D01*
X300000Y35000D02*
X305000Y40000D01*
X300000Y-10000D02*
Y35000D01*
X295000Y-15000D02*
X300000Y-10000D01*
X248100Y-15000D02*
X295000D01*
X248100Y-15000D02*
X248100Y-15000D01*
X248100Y-45000D02*
X293000D01*
X300000Y-52000D01*
X316500D01*
X316500Y-52000D01*
X304000Y-144000D02*
X316500D01*
X248100Y-75000D02*
X295000D01*
X248100Y-75000D02*
X248100Y-75000D01*
X304000Y-236000D02*
X316500D01*
X300000Y-232000D02*
X304000Y-236000D01*
X248100Y15000D02*
X248100Y15000D01*
X295000Y-75000D02*
X300000Y-80000D01*
Y-140000D02*
X304000Y-144000D01*
X300000Y-140000D02*
Y-80000D01*
X248100Y15000D02*
X279000D01*
X285000Y21000D01*
X289000Y132000D02*
X316500D01*
X285000Y21000D02*
Y128000D01*
X289000Y132000D01*
X280000Y-105000D02*
X285000Y-110000D01*
Y-158000D02*
Y-110000D01*
Y-158000D02*
X300000Y-173000D01*
Y-232000D02*
Y-173000D01*
X238100Y45000D02*
X263000D01*
X270000Y52000D01*
Y145000D01*
D74*
X230000Y115000D02*
Y135000D01*
X564000Y32000D02*
Y173000D01*
X562000Y175000D02*
X564000Y173000D01*
X549000Y175000D02*
X562000D01*
X547000Y177000D02*
X549000Y175000D01*
X560000Y22000D02*
Y169000D01*
X558000Y171000D02*
X560000Y169000D01*
X545000Y171000D02*
X558000D01*
X543000Y173000D02*
X545000Y171000D01*
X526000Y258750D02*
X545000D01*
X547000Y256750D01*
Y177000D02*
Y256750D01*
X543000Y173000D02*
Y211000D01*
X541250Y212750D02*
X543000Y211000D01*
X526000Y212750D02*
X541250D01*
X658000Y-128000D02*
X675000D01*
X657000Y-129000D02*
X658000Y-128000D01*
X657000Y-132000D02*
Y-129000D01*
Y-132000D02*
X660000Y-135000D01*
X653000Y-132000D02*
Y-127000D01*
X650000Y-135000D02*
X653000Y-132000D01*
Y-127000D02*
X656000Y-124000D01*
X658000Y-149000D02*
X662000Y-145000D01*
X658000Y-183000D02*
Y-149000D01*
X648000Y-145000D02*
X652000Y-149000D01*
Y-178000D02*
Y-149000D01*
X657500Y-60500D02*
X661000Y-64000D01*
X649750Y-60500D02*
X657500D01*
X661000Y-79000D02*
Y-64000D01*
X734716Y96962D02*
X741678Y90000D01*
X741000D02*
X741678D01*
X741787Y104033D02*
X750309Y95511D01*
Y89884D02*
Y95511D01*
X740000Y79575D02*
X750309Y89884D01*
X747000Y78000D02*
X750000Y81000D01*
X747000Y70000D02*
Y78000D01*
Y70000D02*
X772000Y45000D01*
Y31393D02*
Y45000D01*
Y31393D02*
X780819Y22574D01*
X740000Y73000D02*
Y79575D01*
X675000Y96000D02*
X680000Y91000D01*
Y88000D02*
Y91000D01*
X689048Y81952D02*
X707300D01*
X683000Y88000D02*
X689048Y81952D01*
X680000Y88000D02*
X683000D01*
X707300Y81952D02*
X713503Y75748D01*
X723000Y68000D02*
Y73322D01*
X717038Y79284D02*
X723000Y73322D01*
X663000Y88000D02*
X670000D01*
X618500Y-65500D02*
X649750D01*
X600000Y-84000D02*
X618500Y-65500D01*
X560000Y-84000D02*
X600000D01*
X750000Y-24500D02*
Y-24000D01*
X769000Y-79000D02*
Y-67000D01*
X774000Y-81000D02*
X775400Y-82400D01*
X771000Y-81000D02*
X774000D01*
X769000Y-79000D02*
X771000Y-81000D01*
X761000Y-79000D02*
Y-67000D01*
X750000Y-83000D02*
X752000Y-81000D01*
X759000D01*
X761000Y-79000D01*
X724941Y-50000D02*
X746000D01*
X750000Y-24500D02*
X755500Y-30000D01*
X742000Y-8000D02*
X750000D01*
X736535Y-2535D02*
X742000Y-8000D01*
X790500Y-37500D02*
Y-30000D01*
X789000Y-39000D02*
X790500Y-37500D01*
X757000Y-39000D02*
X789000D01*
X755500Y-37500D02*
X757000Y-39000D01*
X755500Y-37500D02*
Y-30000D01*
X779000Y-14000D02*
Y3180D01*
X796000Y-17000D02*
Y-14000D01*
X783000Y-9000D02*
Y6251D01*
X719000Y-120000D02*
X812000D01*
X717000Y-122000D02*
X719000Y-120000D01*
X717000Y-138000D02*
Y-122000D01*
X812000Y-120000D02*
X818000Y-114000D01*
X765000Y91749D02*
X773748Y100497D01*
X764000Y32322D02*
Y41000D01*
Y32322D02*
X777284Y19038D01*
X656000Y-124000D02*
X666000D01*
X669000Y-121000D01*
X677000Y-126000D02*
Y-121000D01*
X675000Y-128000D02*
X677000Y-126000D01*
X633000Y-79000D02*
Y-73000D01*
X818000Y-114000D02*
Y-110000D01*
X633000Y-73000D02*
X635500Y-70500D01*
X649750D01*
X556000Y-88000D02*
X560000Y-84000D01*
X556000Y-244000D02*
Y-88000D01*
X763000Y162000D02*
X771000D01*
X763000Y172000D02*
X771000D01*
X886500Y-179500D02*
X887000Y-179000D01*
X863000Y-179500D02*
X886500D01*
X863000Y-189000D02*
Y-179500D01*
X854000D02*
X863000D01*
X725000Y-249000D02*
X728000Y-246000D01*
X663000Y-26000D02*
X670000D01*
X658500Y-30500D02*
X663000Y-26000D01*
X649750Y-30500D02*
X658500D01*
X817000Y-35000D02*
X823000D01*
X847000Y-43000D02*
X850000Y-40000D01*
X846000Y-43000D02*
X847000D01*
X850000Y-40000D02*
X861000D01*
X851849Y-45000D02*
X861000D01*
X792000Y46749D02*
Y54000D01*
Y46749D02*
X798497Y40252D01*
X626500Y-169500D02*
Y-157000D01*
X619000Y-177000D02*
X626500Y-169500D01*
Y-151500D02*
X630000Y-148000D01*
X626500Y-157000D02*
Y-151500D01*
X872000Y58000D02*
X881000D01*
X883000Y56000D01*
Y50000D02*
Y56000D01*
Y50000D02*
X884750Y48250D01*
X894000D01*
X878000Y-136000D02*
X906000D01*
X923000Y-130000D02*
Y-121750D01*
X906000Y-136000D02*
X910000Y-132000D01*
X921000D01*
X923000Y-130000D01*
X727000Y-76000D02*
X730000Y-73000D01*
X836750Y-119000D02*
X848000D01*
X836750D02*
Y-105000D01*
X796000Y64000D02*
Y66180D01*
X802033Y72213D01*
X864000Y50500D02*
Y62000D01*
X833000Y48000D02*
Y62000D01*
X833000Y62000D01*
X680000Y77000D02*
X705180D01*
X709967Y72213D01*
X874000Y-222000D02*
Y-189000D01*
X839000Y-184500D02*
Y-173000D01*
X836750Y-170750D02*
X839000Y-173000D01*
X836750Y-170750D02*
Y-161000D01*
X839000Y-217250D02*
X839750Y-218000D01*
X851000D01*
X788678Y71322D02*
X790000Y70000D01*
X544000Y-106000D02*
Y-53000D01*
X540750Y-109250D02*
X544000Y-106000D01*
X526000Y-109250D02*
X540750D01*
X554500Y-70500D02*
X580250D01*
X552000Y-73000D02*
X554500Y-70500D01*
X548000Y-63000D02*
X550500Y-60500D01*
X580250D01*
X544000Y-53000D02*
X546500Y-50500D01*
X580250D01*
X540000Y-28000D02*
Y-20000D01*
X537250Y-17250D02*
X540000Y-20000D01*
X526000Y-17250D02*
X537250D01*
X540000Y-28000D02*
X542500Y-30500D01*
X580250D01*
X543500Y-40500D02*
X580250D01*
X540000Y-44000D02*
X543500Y-40500D01*
X540000Y-60000D02*
Y-44000D01*
X536750Y-63250D02*
X540000Y-60000D01*
X526000Y-63250D02*
X536750D01*
X744000Y28322D02*
Y29000D01*
X734716Y19038D02*
X744000Y28322D01*
X839000Y-75000D02*
Y-67000D01*
X717465Y23000D02*
X724109Y29645D01*
X714000Y23000D02*
X717465D01*
X859000Y-75000D02*
Y-67000D01*
X737000Y28393D02*
Y34000D01*
X731181Y22574D02*
X737000Y28393D01*
X849000Y-75000D02*
Y-67000D01*
X829000Y-75000D02*
Y-67000D01*
X745749Y23000D02*
X750000D01*
X738252Y15503D02*
X745749Y23000D01*
X698000Y10000D02*
X705000D01*
X698000Y10000D02*
X698000Y10000D01*
X837000Y22500D02*
X853000Y38500D01*
X837000Y21750D02*
Y22500D01*
X866750Y21750D02*
X872000Y27000D01*
X859000Y21750D02*
X866750D01*
X687000Y-46000D02*
X694000D01*
X687000Y-56000D02*
X694000D01*
X680000D02*
X687000D01*
X680000Y-46000D02*
X687000D01*
X717000Y-12500D02*
Y0D01*
X698000Y-12500D02*
Y0D01*
X717000Y10000D02*
Y15465D01*
X727645Y26109D01*
X736535Y-2535D02*
Y-355D01*
X745323Y8432D01*
X724109Y86355D02*
X731464Y79000D01*
X705464Y87465D02*
X708858D01*
X717038Y79284D01*
X680000Y66000D02*
X687000D01*
X680000Y56000D02*
Y66000D01*
X663000D02*
X670000D01*
X704536Y113000D02*
X727645Y89890D01*
X699000Y113000D02*
X704536D01*
X690566Y104565D02*
X699000Y113000D01*
X697535Y145535D02*
X703333D01*
X717434Y131434D01*
X676464Y118667D02*
Y124465D01*
Y118667D02*
X690566Y104565D01*
X708000Y122000D02*
X717434Y131434D01*
X708000Y116607D02*
Y122000D01*
Y116607D02*
X731181Y93426D01*
X639000Y-184500D02*
X656500D01*
X658000Y-183000D01*
X650500Y-179500D02*
X652000Y-178000D01*
X639000Y-179500D02*
X650500D01*
X610000Y-240000D02*
X616500Y-233500D01*
X610000Y-254000D02*
Y-240000D01*
X597500Y-233500D02*
X603500Y-239500D01*
Y-254000D02*
Y-239500D01*
X603000Y-228000D02*
Y-225000D01*
X597500Y-233500D02*
X603000Y-228000D01*
X611000Y-228000D02*
Y-225000D01*
Y-228000D02*
X616500Y-233500D01*
X604000Y-146000D02*
X609000D01*
X585000Y-178000D02*
X588500Y-174500D01*
X599000D01*
X608500Y-135000D02*
X609000Y-135500D01*
X606500Y-151500D02*
X609000Y-149000D01*
X606500Y-157000D02*
Y-151500D01*
X609000Y-149000D02*
X611500Y-151500D01*
Y-157000D02*
Y-151500D01*
X621500Y-147500D02*
X623000Y-146000D01*
X621500Y-157000D02*
Y-147500D01*
X615000Y-146000D02*
X616500Y-147500D01*
Y-157000D02*
Y-147500D01*
X918000Y103000D02*
X921000Y106000D01*
X918000Y81750D02*
Y103000D01*
X853250Y180250D02*
X860000D01*
X863000Y169000D02*
Y171000D01*
X865000Y173000D01*
Y180250D01*
X881000Y167000D02*
X896500D01*
X875000Y173000D02*
X881000Y167000D01*
X875000Y173000D02*
Y180250D01*
X880000Y177000D02*
Y180250D01*
Y177000D02*
X882000Y175000D01*
X884000D01*
X885000Y176000D01*
Y180000D01*
X886000Y181000D01*
X896500D01*
X881000Y148000D02*
X886750Y142250D01*
Y125000D02*
Y142250D01*
Y104000D02*
Y125000D01*
X833656Y126156D02*
X834000Y126500D01*
X816844Y126156D02*
X833656D01*
X846000Y104000D02*
X869250D01*
X844000Y106000D02*
X846000Y104000D01*
X844000Y106000D02*
Y124000D01*
X841500Y126500D02*
X844000Y124000D01*
X834000Y126500D02*
X841500D01*
X869250Y84500D02*
X871750Y82000D01*
X869250Y84500D02*
Y104000D01*
X871750Y82000D02*
X872000Y81750D01*
X854000Y82000D02*
X871750D01*
X872000Y81750D02*
X894000D01*
X903750D01*
X906000Y84000D01*
Y94250D01*
X508000Y-282500D02*
X508500Y-283000D01*
X829000Y-91000D02*
Y-85000D01*
Y-91000D02*
X830250Y-92250D01*
Y-105000D02*
Y-92250D01*
X839000Y-91000D02*
Y-85000D01*
Y-91000D02*
X843250Y-95250D01*
Y-105000D02*
Y-95250D01*
X849000Y-85000D02*
X849750Y-85750D01*
Y-105000D02*
Y-85750D01*
X859000Y-85000D02*
X859000Y-85000D01*
Y-91000D02*
Y-85000D01*
X856250Y-93750D02*
X859000Y-91000D01*
X856250Y-105000D02*
Y-93750D01*
X848000Y-119000D02*
X849750Y-117250D01*
Y-105000D01*
X847000Y-27000D02*
X850000Y-30000D01*
X861000D01*
X847000Y-35000D02*
X861000D01*
X882000Y-11250D02*
X886000Y-7250D01*
Y24500D02*
Y35000D01*
X901000Y24500D02*
X904000Y27500D01*
X905000Y-104250D02*
Y-93000D01*
X923000Y-104250D02*
Y-93000D01*
X895250Y-166250D02*
X906500D01*
Y-182000D02*
Y-166250D01*
X843000Y-148000D02*
X843250Y-148250D01*
Y-161000D02*
Y-148250D01*
X850000Y-148000D02*
X851000D01*
X849750Y-148250D02*
X850000Y-148000D01*
X839000Y-217250D02*
Y-201500D01*
X727500Y-245500D02*
X728000Y-246000D01*
X688500Y-212500D02*
X701000D01*
X686650Y-210650D02*
X688500Y-212500D01*
X686650Y-210650D02*
Y-184750D01*
X703500Y-245500D02*
X715000D01*
X701000Y-243000D02*
X703500Y-245500D01*
X701000Y-243000D02*
Y-229500D01*
X895000Y-148000D02*
X906250D01*
X849750Y-161000D02*
Y-148250D01*
X865000Y-132000D02*
X903000D01*
X862750Y-134250D02*
X865000Y-132000D01*
X862750Y-161000D02*
Y-134250D01*
X905000Y-130000D02*
Y-121750D01*
X903000Y-132000D02*
X905000Y-130000D01*
X875750Y-138250D02*
X878000Y-136000D01*
X875750Y-161000D02*
Y-138250D01*
X854000Y117000D02*
Y127000D01*
X869250D01*
Y125000D02*
Y127000D01*
X875000Y209750D02*
Y219000D01*
X876000Y220000D01*
X870000Y209750D02*
Y218000D01*
X868000Y220000D02*
X870000Y218000D01*
X844750Y237000D02*
X856000D01*
X766677Y107568D02*
X772000Y112891D01*
X782000Y112142D02*
X787393Y117536D01*
X782000Y112000D02*
Y112142D01*
X801393Y103393D02*
X801535D01*
X796000Y98000D02*
X801393Y103393D01*
X808322Y96322D02*
X808607D01*
X777284Y96962D02*
X782000Y101678D01*
Y112000D01*
X784355Y89890D02*
X792465Y98000D01*
X796000D01*
X804000Y92000D02*
X808322Y96322D01*
X793536Y92000D02*
X804000D01*
X787890Y86355D02*
X793536Y92000D01*
X791426Y82819D02*
X796607Y88000D01*
X799000D01*
X825500Y91500D02*
X834000D01*
X821000Y87000D02*
X825500Y91500D01*
X808607Y110464D02*
X815678Y103393D01*
X805568Y47323D02*
X814355Y38535D01*
X817535D01*
X886000Y-7250D02*
Y-2000D01*
Y7500D01*
X930000Y85000D02*
X940000D01*
X941000Y84000D01*
X930000Y95000D02*
X940000D01*
X941000Y96000D01*
X913000Y4500D02*
X916000Y7500D01*
X913000Y-2000D02*
Y4500D01*
Y-6250D02*
Y-2000D01*
Y-6250D02*
X918000Y-11250D01*
X901000Y-10250D02*
X905000Y-6250D01*
Y-2000D01*
X901000Y7500D02*
X905000Y3500D01*
Y-2000D02*
Y3500D01*
X902000Y29500D02*
X904000Y27500D01*
X912000Y28500D02*
Y37000D01*
Y28500D02*
X916000Y24500D01*
X902000Y29500D02*
Y37000D01*
X680000Y35000D02*
X687000D01*
X680000Y45000D02*
X691000D01*
X693000Y43000D01*
Y27000D02*
Y43000D01*
X691000Y25000D02*
X693000Y27000D01*
X680000Y25000D02*
X691000D01*
X670000Y-26000D02*
X680000Y-16000D01*
X670000Y-26000D02*
Y-26000D01*
X680000Y-16000D02*
Y-6000D01*
Y4000D01*
Y15000D01*
Y25000D01*
X670000Y-56000D02*
Y-46000D01*
Y-36000D01*
X649750Y-35500D02*
X669500D01*
X670000Y-36000D01*
X649750Y-15500D02*
X669500D01*
X670000Y-16000D01*
X649750Y-10500D02*
X660500D01*
X665000Y-6000D01*
X670000D01*
X649750Y-5500D02*
X658500D01*
X661000Y-3000D01*
Y2000D01*
X663000Y4000D01*
X670000D01*
X649750Y19500D02*
X658500D01*
X663000Y15000D01*
X649750Y24500D02*
X662500D01*
X663000Y25000D01*
X670000D01*
X663000Y15000D02*
X670000D01*
X649750Y29500D02*
X657500D01*
X663000Y35000D01*
X670000D01*
X649750Y34500D02*
X654500D01*
X657000Y37000D01*
Y43000D01*
X659000Y45000D01*
X698000Y24749D02*
X713503Y40252D01*
X698000Y18000D02*
Y24749D01*
X720574Y33181D02*
X727393Y40000D01*
X730000D01*
X717038Y36716D02*
X724000Y43678D01*
Y46000D01*
X718000Y51820D02*
Y52000D01*
X709967Y43787D02*
X718000Y51820D01*
X659000Y45000D02*
X663000D01*
X670000D01*
X637500Y-40500D02*
X649750D01*
X636000Y-39000D02*
X637500Y-40500D01*
X637500Y-45500D02*
X649750D01*
X636000Y-47000D02*
X637500Y-45500D01*
X824000Y32000D02*
Y32071D01*
X817535Y38535D02*
X824000Y32071D01*
X780819Y22574D02*
X787000Y16393D01*
Y10000D02*
Y16393D01*
X787890Y29645D02*
X793536Y24000D01*
X801000D01*
X805393Y19607D02*
X805536D01*
X801000Y24000D02*
X805393Y19607D01*
X791393Y5465D02*
Y5607D01*
X787000Y10000D02*
X791393Y5607D01*
X784355Y26109D02*
X793465Y17000D01*
X794000D02*
X798465Y12536D01*
X793465Y17000D02*
X794000D01*
X817000Y-45000D02*
X830000D01*
X830000Y-45000D01*
X817000Y-50000D02*
X827000D01*
X830000Y-53000D01*
X706432Y47323D02*
Y47432D01*
X708000Y49000D01*
X775400Y-99000D02*
Y-82400D01*
X750000Y-99000D02*
Y-83000D01*
X786678Y45000D02*
X794962Y36716D01*
X786000Y45000D02*
X786678D01*
X785607Y39000D02*
X791426Y33181D01*
X780000Y39000D02*
X785607D01*
X706432Y47323D02*
X709801Y50691D01*
Y53853D01*
X708000Y55654D02*
X709801Y53853D01*
X708000Y55654D02*
Y56000D01*
X706432Y68568D02*
Y68677D01*
Y68568D02*
X708000Y67000D01*
Y66000D02*
Y67000D01*
X700000Y58000D02*
X708000Y66000D01*
X700000Y56000D02*
Y58000D01*
X580250Y34500D02*
X585250D01*
X587593Y36843D01*
X546500Y-20500D02*
X580250D01*
X544000Y-18000D02*
X546500Y-20500D01*
X526000Y28750D02*
X541250D01*
X544000Y26000D01*
Y-18000D02*
Y26000D01*
X550500Y-10500D02*
X580250D01*
X548000Y-8000D02*
X550500Y-10500D01*
X548000Y-8000D02*
Y72000D01*
X526000Y74750D02*
X545250D01*
X548000Y72000D01*
X554500Y-500D02*
X580250D01*
X552000Y2000D02*
X554500Y-500D01*
X526000Y120750D02*
X549250D01*
X552000Y118000D01*
Y2000D02*
Y118000D01*
X558500Y9500D02*
X580250D01*
X556000Y12000D02*
X558500Y9500D01*
X526000Y166750D02*
X554250D01*
X556000Y165000D01*
Y12000D02*
Y165000D01*
X562500Y19500D02*
X580250D01*
X560000Y22000D02*
X562500Y19500D01*
X566500Y29500D02*
X580250D01*
X564000Y32000D02*
X566500Y29500D01*
X585000Y-195000D02*
Y-188000D01*
X591500Y-169500D02*
X599000D01*
X589000Y-167000D02*
X591500Y-169500D01*
X589000Y-167000D02*
Y-164500D01*
X599000D01*
X526000Y-247250D02*
X552750D01*
X556000Y-244000D01*
X526000Y-201250D02*
X548233D01*
X552000Y-197483D01*
Y-73000D01*
X526000Y-155250D02*
X544750D01*
X548000Y-152000D01*
Y-63000D01*
X734500Y232000D02*
X743250D01*
X732500Y234000D02*
X734500Y232000D01*
X732500Y234000D02*
Y250000D01*
X764750Y228000D02*
X772000D01*
X760750Y232000D02*
X764750Y228000D01*
X580250Y24500D02*
X593500D01*
X594000Y24000D01*
X580250Y4500D02*
X593500D01*
X594000Y4000D01*
X580250Y-15500D02*
X593500D01*
X594000Y-16000D01*
X580250Y-35500D02*
X593500D01*
X594000Y-36000D01*
X580250Y-55500D02*
X593500D01*
X594000Y-56000D01*
X805568Y68677D02*
X807891Y71000D01*
X811000D01*
X814000Y68000D01*
Y67000D02*
Y68000D01*
X732500Y179000D02*
Y186500D01*
X737000Y191000D01*
Y198000D01*
X720000Y179000D02*
Y188000D01*
X722000Y190000D01*
X726000D01*
X729000Y193000D01*
Y198000D01*
X707500Y179000D02*
Y195500D01*
X710000Y198000D01*
X721000D01*
X772000Y112891D02*
Y120000D01*
X773000Y121000D02*
X773000D01*
X773284D01*
X772000Y120000D02*
X773000Y121000D01*
X778465Y126465D01*
X599500Y14500D02*
X600000Y14000D01*
X580250Y14500D02*
X599500D01*
X599500Y-5500D02*
X600000Y-6000D01*
X580250Y-5500D02*
X599500D01*
X599500Y-25500D02*
X600000Y-26000D01*
X580250Y-25500D02*
X599500D01*
X599500Y-45500D02*
X600000Y-46000D01*
X580250Y-45500D02*
X599500D01*
X599500Y-65500D02*
X600000Y-66000D01*
X580250Y-65500D02*
X599500D01*
X820000Y86000D02*
X821000Y87000D01*
X801000Y86000D02*
X820000D01*
X799000Y88000D02*
X801000Y86000D01*
X798497Y75748D02*
X802749Y80000D01*
X809000D01*
X810000Y79000D01*
X788678Y73000D02*
X794962Y79284D01*
X707500Y213500D02*
Y250000D01*
Y213500D02*
X710000Y211000D01*
X745000D01*
X788678Y71322D02*
Y73000D01*
X235000Y90000D02*
X238100Y86900D01*
X218000Y90000D02*
X235000D01*
X215000Y93000D02*
X218000Y90000D01*
X215000Y93000D02*
Y135000D01*
X765500Y141000D02*
X782500Y158000D01*
X785000D01*
X906000Y128750D02*
X906250Y129000D01*
X920000D01*
Y116000D02*
Y129000D01*
X709967Y72213D02*
X716000Y66180D01*
Y62000D02*
Y66180D01*
X853000Y38500D02*
X870500D01*
X872000Y37000D01*
Y48250D01*
X866250D02*
X872000D01*
X864000Y50500D02*
X866250Y48250D01*
X714000Y-141000D02*
X717000Y-138000D01*
X690000Y-141000D02*
X714000D01*
X686650Y-137650D02*
X690000Y-141000D01*
X686650Y-137650D02*
Y-121250D01*
X930000Y105000D02*
X941000D01*
X815678Y103393D02*
X822000Y109716D01*
Y113000D01*
X770213Y11967D02*
X779000Y3180D01*
X773748Y15503D02*
X783000Y6251D01*
X773000Y-17000D02*
X775000Y-15000D01*
Y109D01*
X766677Y8432D02*
X775000Y109D01*
X782000Y-17000D02*
X787000D01*
X779000Y-14000D02*
X782000Y-17000D01*
X793000Y-11000D02*
X796000Y-14000D01*
X785000Y-11000D02*
X793000D01*
X783000Y-9000D02*
X785000Y-11000D01*
X796000Y64000D02*
X800000Y60000D01*
X806000D01*
X816000Y50000D01*
X637500Y-55500D02*
X649750D01*
X636000Y-57000D02*
X637500Y-55500D01*
X622000Y-88000D02*
X652000D01*
X661000Y-79000D01*
X732000Y106749D02*
X738252Y100497D01*
X732000Y106749D02*
Y110000D01*
X743000Y121000D01*
X756000D01*
X721000Y-67000D02*
Y-53941D01*
X724941Y-50000D01*
X729000Y-72000D02*
X730000Y-73000D01*
X729000Y-72000D02*
Y-67000D01*
X672000Y96000D02*
X675000D01*
X731464Y79000D02*
X734000D01*
X765000Y65000D02*
Y91749D01*
X737000Y-67000D02*
Y-62000D01*
X739000Y-60000D01*
X779000D01*
X781000Y-58000D01*
Y-50000D01*
D75*
X562000Y225000D02*
X570500D01*
X586000Y223500D02*
X586000Y223500D01*
X572000Y223500D02*
X586000D01*
X562000Y225000D02*
Y229000D01*
Y221000D02*
Y225000D01*
X570500D02*
X572000Y223500D01*
X562000Y205000D02*
X570500D01*
X572000Y206500D02*
X586000D01*
X562000Y205000D02*
Y209000D01*
Y201000D02*
Y205000D01*
X570500D02*
X572000Y206500D01*
X529750Y230250D02*
Y237500D01*
X521750Y230250D02*
Y237000D01*
X526000Y241250D02*
X529750Y237500D01*
X521750Y237000D02*
X526000Y241250D01*
X529750Y184250D02*
Y191500D01*
X526000Y195250D02*
X529750Y191500D01*
X526000Y149250D02*
X530250Y145000D01*
X526000Y149250D02*
X529750Y153000D01*
X530250Y145000D02*
X537000D01*
X529750Y153000D02*
X537000D01*
X800800Y-99000D02*
Y-69200D01*
X530000Y-44000D02*
Y-38750D01*
X526000Y-34750D02*
X530000Y-38750D01*
X521750Y184250D02*
Y191000D01*
X526000Y195250D01*
X529750Y92250D02*
Y99500D01*
X521750Y92250D02*
Y99000D01*
X526000Y103250D02*
X529750Y99500D01*
X521750Y99000D02*
X526000Y103250D01*
X529750Y46250D02*
Y53500D01*
X521750Y46250D02*
Y53000D01*
X526000Y57250D02*
X529750Y53500D01*
X521750Y53000D02*
X526000Y57250D01*
X529750Y250D02*
Y7500D01*
X521750Y250D02*
Y7000D01*
X526000Y11250D02*
X529750Y7500D01*
X521750Y7000D02*
X526000Y11250D01*
X521750Y-45750D02*
Y-39000D01*
X526000Y-34750D01*
X529750Y-91750D02*
Y-84500D01*
X521750Y-91750D02*
Y-85000D01*
X526000Y-80750D02*
X529750Y-84500D01*
X521750Y-85000D02*
X526000Y-80750D01*
X529750Y-137750D02*
Y-130500D01*
X521750Y-137750D02*
Y-131000D01*
X526000Y-126750D02*
X529750Y-130500D01*
X521750Y-131000D02*
X526000Y-126750D01*
X529750Y-183750D02*
Y-176500D01*
X521750Y-183750D02*
Y-177000D01*
X526000Y-172750D02*
X529750Y-176500D01*
X521750Y-177000D02*
X526000Y-172750D01*
X529750Y-229750D02*
Y-222500D01*
X521750Y-229750D02*
Y-223000D01*
X526000Y-218750D02*
X529750Y-222500D01*
X521750Y-223000D02*
X526000Y-218750D01*
X529750Y-261000D02*
X537000D01*
X530250Y-269000D02*
X537000D01*
X526000Y-264750D02*
X529750Y-261000D01*
X526000Y-264750D02*
X530250Y-269000D01*
X590000Y-245000D02*
X595000D01*
X582000D02*
X590000D01*
X595000D02*
X597000Y-247000D01*
Y-254000D02*
Y-247000D01*
X537000Y-283000D02*
X545000D01*
X525500D02*
X537000D01*
X1185000Y-111000D02*
X1186350Y-112350D01*
Y-124750D02*
Y-112350D01*
X946900Y-110750D02*
Y-80000D01*
X939000Y-148000D02*
X946900Y-140100D01*
Y-110750D01*
X923750Y-148000D02*
X939000D01*
X1066400Y-110250D02*
X1066900Y-110750D01*
X1045000Y-110250D02*
X1066400D01*
X1066900Y-149350D02*
Y-110750D01*
X1066250Y-150000D02*
X1066900Y-149350D01*
X617000Y120500D02*
X621500Y125000D01*
X617000Y106000D02*
Y120500D01*
X1066900Y-110750D02*
X1067000Y-110650D01*
Y-80000D01*
X1080000Y99000D02*
Y112750D01*
X1104750Y99000D02*
X1105000Y99250D01*
X1080000Y99000D02*
X1104750D01*
X1105000Y99250D02*
Y125000D01*
X1110000Y130000D01*
X1137000D01*
X581250Y62000D02*
Y86750D01*
X617000Y90750D02*
Y106000D01*
Y90750D02*
X620000Y87750D01*
X598500Y87000D02*
X644250D01*
X868000Y260000D02*
X879500D01*
D76*
X570000Y193000D02*
X582500D01*
X562000D02*
X570000D01*
X582500D02*
X586000Y189500D01*
X570000Y237000D02*
X582500D01*
X562000D02*
X570000D01*
X582500D02*
X586000Y240500D01*
X808000Y-69000D02*
X813000Y-64000D01*
X812000Y-100000D02*
X819000D01*
X801800D02*
X812000D01*
X800800Y-99000D02*
X801800Y-100000D01*
X780000Y-133000D02*
X787000D01*
X191900Y105000D02*
X202000D01*
X820000Y217750D02*
X838750D01*
X844000Y223000D01*
Y236250D01*
X801250Y217750D02*
X820000D01*
X796000Y223000D02*
X801250Y217750D01*
X796000Y223000D02*
Y236250D01*
X820000Y217750D02*
Y236250D01*
X781000Y245000D02*
Y253000D01*
Y237000D02*
Y245000D01*
X795250Y253000D02*
X796000Y253750D01*
X781000Y253000D02*
X795250D01*
X796000Y253750D02*
Y269250D01*
X844000Y253750D02*
Y269250D01*
X820000Y253750D02*
Y269250D01*
X970000Y275000D02*
Y279000D01*
Y271000D02*
Y275000D01*
X984000D01*
X958750D02*
X970000D01*
X931000D02*
X941250D01*
X745000Y179000D02*
Y190000D01*
X720000Y250000D02*
X720000Y250000D01*
X720000Y250000D02*
Y263000D01*
Y271000D01*
X745000Y190000D02*
Y198000D01*
X695000Y263000D02*
Y271000D01*
X1012700Y238100D02*
X1016000Y241400D01*
Y275000D02*
X1226000D01*
X1247000Y254000D01*
X924000Y275000D02*
X931000D01*
X649000Y125000D02*
X656000D01*
X650000Y235000D02*
Y245000D01*
D77*
X752500Y-256500D02*
Y-245500D01*
X749000Y-260000D02*
X752500Y-256500D01*
X740000Y-249500D02*
Y-245500D01*
Y-260000D02*
Y-249500D01*
X912000Y69000D02*
X918000Y63000D01*
Y48250D02*
Y63000D01*
X585000Y-105500D02*
Y-98000D01*
X575000Y-105500D02*
Y-98000D01*
X810000Y-2000D02*
Y1000D01*
X805536Y5465D02*
X810000Y1000D01*
X571500Y-109000D02*
X575000Y-105500D01*
X585000D02*
X588500Y-109000D01*
X725000Y-260000D02*
Y-249000D01*
X726000Y-229000D02*
X727500Y-230500D01*
X726000Y-229000D02*
Y-229000D01*
X765000Y-265000D02*
Y-260000D01*
X761000Y-269000D02*
X765000Y-265000D01*
X718000Y-269000D02*
X761000D01*
X715000Y-266000D02*
X718000Y-269000D01*
X715000Y-266000D02*
Y-245500D01*
X801000Y-212000D02*
X808000D01*
X869250Y-90500D02*
X875000Y-84750D01*
X869250Y-105000D02*
Y-90500D01*
X877125Y-97875D02*
X882375D01*
X875750Y-99250D02*
X877125Y-97875D01*
X875750Y-105000D02*
Y-99250D01*
X882375Y-97875D02*
X889000Y-104500D01*
X872500Y-121500D02*
X889000D01*
X869250Y-118250D02*
X872500Y-121500D01*
X869250Y-118250D02*
Y-105000D01*
X775400Y-199400D02*
X787500Y-211500D01*
X775400Y-199400D02*
Y-189000D01*
X750000Y-193000D02*
X768500Y-211500D01*
X750000Y-193000D02*
Y-189000D01*
X768500Y-211500D02*
X773000Y-216000D01*
Y-221000D02*
Y-216000D01*
X783000Y-216000D02*
X787500Y-211500D01*
X783000Y-221000D02*
Y-216000D01*
X800800Y-211800D02*
X801000Y-212000D01*
X800800Y-211800D02*
Y-189000D01*
X859000Y-11750D02*
Y-3000D01*
X800800Y-69200D02*
X801000Y-69000D01*
X808000D01*
X624000Y-215000D02*
X631500D01*
X621500Y-212500D02*
X624000Y-215000D01*
X621500Y-212500D02*
Y-197000D01*
X609000Y-146000D02*
Y-135500D01*
Y-149000D02*
Y-146000D01*
X508000Y215250D02*
Y238750D01*
Y169250D02*
Y192750D01*
Y123250D02*
Y146750D01*
Y77250D02*
Y100750D01*
Y31250D02*
Y54750D01*
Y-14750D02*
Y8750D01*
Y-60750D02*
Y-37250D01*
Y-106750D02*
Y-83250D01*
Y-152750D02*
Y-129250D01*
Y-198750D02*
Y-175250D01*
Y-282500D02*
Y-267250D01*
Y-244750D02*
Y-221250D01*
X805536Y5465D02*
X812607Y12536D01*
X798464Y-1607D02*
X805536Y5465D01*
X875000Y-84750D02*
X890250D01*
X898000Y-77000D01*
X906500D01*
Y-64250D02*
X909000Y-61750D01*
X906500Y-77000D02*
Y-64250D01*
X934500Y-66000D02*
X936000D01*
X923500Y-77000D02*
X934500Y-66000D01*
X889000Y-60000D02*
Y-53000D01*
X861000Y-50000D02*
X871000D01*
X874000Y-53000D01*
X878000D01*
X889000D01*
X727500Y-245500D02*
Y-230500D01*
X1189000Y-41000D02*
X1196250D01*
X1186350Y-43650D02*
X1189000Y-41000D01*
X1186350Y-61250D02*
Y-43650D01*
X1196250Y-41000D02*
X1226000D01*
X1236000D02*
X1275000D01*
X458500Y-246000D02*
X474500D01*
X458000Y-246500D02*
X458500Y-246000D01*
X458500Y-266000D02*
X474500D01*
X458000Y-265500D02*
X458500Y-266000D01*
X492750Y-244750D02*
X508000D01*
X491500Y-246000D02*
X492750Y-244750D01*
X508000D02*
X523500D01*
X526000Y-247250D01*
X492000Y-265500D02*
Y-257000D01*
X491500Y-266000D02*
X492000Y-265500D01*
X491500Y-200000D02*
X492750Y-198750D01*
X508000D01*
X523500D01*
X526000Y-201250D01*
X458000Y-219500D02*
X458500Y-220000D01*
X474500D01*
X491500D02*
X492000Y-219500D01*
Y-211000D01*
X458000Y-200500D02*
X458500Y-200000D01*
X474500D01*
X491500Y-154000D02*
X492750Y-152750D01*
X508000D01*
X523500D01*
X526000Y-155250D01*
X458000Y-173500D02*
X458500Y-174000D01*
X474500D01*
X491500D02*
X492000Y-173500D01*
Y-165000D01*
X458000Y-154500D02*
X458500Y-154000D01*
X474500D01*
X491500Y-108000D02*
X492750Y-106750D01*
X508000D01*
X523500D01*
X526000Y-109250D01*
X458000Y-127500D02*
X458500Y-128000D01*
X474500D01*
X491500D02*
X492000Y-127500D01*
Y-119000D01*
X458000Y-108500D02*
X458500Y-108000D01*
X474500D01*
X491500Y-62000D02*
X492750Y-60750D01*
X508000D01*
X523500D01*
X526000Y-63250D01*
X458000Y-81500D02*
X458500Y-82000D01*
X474500D01*
X491500D02*
X492000Y-81500D01*
Y-73000D01*
X458000Y-62500D02*
X458500Y-62000D01*
X474500D01*
X491500Y-16000D02*
X492750Y-14750D01*
X508000D01*
X523500D01*
X526000Y-17250D01*
X458000Y-35500D02*
X458500Y-36000D01*
X474500D01*
X491500D02*
X492000Y-35500D01*
Y-27000D01*
X458000Y-16500D02*
X458500Y-16000D01*
X474500D01*
X491500Y30000D02*
X492750Y31250D01*
X508000D01*
X523500D01*
X526000Y28750D01*
X458000Y10500D02*
X458500Y10000D01*
X474500D01*
X491500D02*
X492000Y10500D01*
Y19000D01*
X458000Y29500D02*
X458500Y30000D01*
X474500D01*
X491500Y122000D02*
X492750Y123250D01*
X508000D01*
X523500D01*
X526000Y120750D01*
X458000Y102500D02*
X458500Y102000D01*
X474500D01*
X491500D02*
X492000Y102500D01*
Y111000D01*
X458000Y121500D02*
X458500Y122000D01*
X474500D01*
X491500Y168000D02*
X492750Y169250D01*
X508000D01*
X523500D01*
X526000Y166750D01*
X458000Y148500D02*
X458500Y148000D01*
X474500D01*
X491500D02*
X492000Y148500D01*
Y157000D01*
X458000Y167500D02*
X458500Y168000D01*
X474500D01*
X491500Y76000D02*
X492750Y77250D01*
X508000D01*
X523500D01*
X526000Y74750D01*
X458000Y56500D02*
X458500Y56000D01*
X474500D01*
X491500D02*
X492000Y56500D01*
Y65000D01*
X458000Y75500D02*
X458500Y76000D01*
X474500D01*
X491500Y214000D02*
X492750Y215250D01*
X508000D01*
X523500D01*
X526000Y212750D01*
X458000Y194500D02*
X458500Y194000D01*
X474500D01*
X491500D02*
X492000Y194500D01*
Y203000D01*
X458000Y213500D02*
X458500Y214000D01*
X474500D01*
X491500Y260000D02*
X492750Y261250D01*
X508000D01*
X523500D01*
X526000Y258750D01*
X458000Y240500D02*
X458500Y240000D01*
X474500D01*
X491500D02*
X492000Y240500D01*
Y249000D01*
X458000Y259500D02*
X458500Y260000D01*
X474500D01*
X702500Y-83000D02*
Y-74500D01*
X698000Y-70000D02*
X702500Y-74500D01*
Y-92500D02*
Y-83000D01*
Y-92500D02*
X704000Y-94000D01*
Y-103000D02*
Y-94000D01*
X587593Y36843D02*
Y51657D01*
X581250Y58000D02*
X587593Y51657D01*
X581000Y-167000D02*
X589000D01*
X581000Y-158500D02*
X585000Y-154500D01*
X581000Y-167000D02*
Y-158500D01*
X585000Y-154500D02*
X589000Y-158500D01*
X574000Y-178000D02*
Y-169157D01*
X576157Y-167000D01*
X581000D01*
X589000Y-164500D02*
Y-158500D01*
X872000Y69000D02*
X912000D01*
X638500Y125000D02*
X649000D01*
X26187Y40000D02*
X27139Y38096D01*
X29996Y35239D01*
X10000D01*
D78*
X686650Y-121250D02*
Y-109350D01*
X693000Y-103000D01*
D79*
X1385000Y-160000D02*
D03*
Y125000D02*
D03*
X25000Y-65000D02*
D03*
Y65000D02*
D03*
Y275000D02*
D03*
Y-275000D02*
D03*
X1375000D02*
D03*
Y275000D02*
D03*
D80*
X1150000Y-200000D02*
D03*
Y200000D02*
D03*
X250000D02*
D03*
Y-200000D02*
D03*
D81*
X877500Y200000D02*
D03*
Y190000D02*
D03*
X862500D02*
D03*
Y200000D02*
D03*
X870000Y195000D02*
D03*
D82*
X1312700Y-238100D02*
D03*
X1287300D02*
D03*
X1261900D02*
D03*
X1338100D02*
D03*
Y-212700D02*
D03*
Y-187300D02*
D03*
Y-161900D02*
D03*
X1312700D02*
D03*
X1287300D02*
D03*
X1261900D02*
D03*
Y-187300D02*
D03*
Y-212700D02*
D03*
X1012700Y161900D02*
D03*
X987300D02*
D03*
X961900D02*
D03*
X1038100D02*
D03*
Y187300D02*
D03*
Y212700D02*
D03*
Y238100D02*
D03*
X1012700D02*
D03*
X987300D02*
D03*
X961900D02*
D03*
Y212700D02*
D03*
Y187300D02*
D03*
X1012700Y-238100D02*
D03*
X987300D02*
D03*
X961900D02*
D03*
X1038100D02*
D03*
Y-212700D02*
D03*
Y-187300D02*
D03*
Y-161900D02*
D03*
X1012700D02*
D03*
X987300D02*
D03*
X961900D02*
D03*
Y-187300D02*
D03*
Y-212700D02*
D03*
X112700Y161900D02*
D03*
X87300D02*
D03*
X61900D02*
D03*
X138100D02*
D03*
Y187300D02*
D03*
Y212700D02*
D03*
Y238100D02*
D03*
X112700D02*
D03*
X87300D02*
D03*
X61900D02*
D03*
Y212700D02*
D03*
Y187300D02*
D03*
X112700Y-238100D02*
D03*
X87300D02*
D03*
X61900D02*
D03*
X138100D02*
D03*
Y-212700D02*
D03*
Y-187300D02*
D03*
Y-161900D02*
D03*
X112700D02*
D03*
X87300D02*
D03*
X61900D02*
D03*
Y-187300D02*
D03*
Y-212700D02*
D03*
X1312700Y161900D02*
D03*
X1287300D02*
D03*
X1261900D02*
D03*
X1338100D02*
D03*
Y187300D02*
D03*
Y212700D02*
D03*
Y238100D02*
D03*
X1312700D02*
D03*
X1287300D02*
D03*
X1261900D02*
D03*
Y212700D02*
D03*
Y187300D02*
D03*
X900000Y-222000D02*
D03*
Y-272000D02*
D03*
D83*
X645750Y-280500D02*
D03*
X574250D02*
D03*
D84*
X137100Y126600D02*
D03*
Y-126600D02*
D03*
D85*
X859000Y-59000D02*
D03*
X588000Y140000D02*
D03*
X597000Y223000D02*
D03*
Y207000D02*
D03*
X570000Y237000D02*
D03*
X562000D02*
D03*
X570000Y193000D02*
D03*
X562000D02*
D03*
Y209000D02*
D03*
Y201000D02*
D03*
X529750Y184250D02*
D03*
X521750D02*
D03*
X529750Y230250D02*
D03*
X521750D02*
D03*
X741000Y90000D02*
D03*
X732000Y63000D02*
D03*
X635000Y54000D02*
D03*
X645000Y65000D02*
D03*
X680000Y170000D02*
D03*
X661000Y244000D02*
D03*
X585000Y260000D02*
D03*
X610000D02*
D03*
X613000Y144000D02*
D03*
X750000Y81000D02*
D03*
X740000Y73000D02*
D03*
X584000Y148000D02*
D03*
X537000Y145000D02*
D03*
Y153000D02*
D03*
X723000Y68000D02*
D03*
X663000Y77000D02*
D03*
Y88000D02*
D03*
X850000Y-131000D02*
D03*
X752000Y45000D02*
D03*
X673000Y-147000D02*
D03*
X1287000Y116000D02*
D03*
X1215000Y250000D02*
D03*
X1245000Y275000D02*
D03*
X1000000Y290000D02*
D03*
X750000Y-16000D02*
D03*
Y-24000D02*
D03*
X710000Y-23000D02*
D03*
X761000Y-67000D02*
D03*
X769000D02*
D03*
X750000Y-8000D02*
D03*
X663000Y4000D02*
D03*
X787000Y-17000D02*
D03*
X796000D02*
D03*
X645000Y-255000D02*
D03*
Y-265000D02*
D03*
X565000Y-144000D02*
D03*
X571000Y-159000D02*
D03*
X565000Y-225000D02*
D03*
X570000Y-215000D02*
D03*
X582000Y-245000D02*
D03*
X813000Y-64000D02*
D03*
X622000Y-88000D02*
D03*
X819000Y-100000D02*
D03*
X812000D02*
D03*
X764000Y41000D02*
D03*
X669000Y-121000D02*
D03*
X677000D02*
D03*
X633000Y-79000D02*
D03*
X787000Y-133000D02*
D03*
X780000D02*
D03*
X818000Y-110000D02*
D03*
X709000Y-165000D02*
D03*
X636000Y-57000D02*
D03*
Y-25000D02*
D03*
X565000Y-125000D02*
D03*
X585000Y-98000D02*
D03*
X575000D02*
D03*
X607000D02*
D03*
X596000D02*
D03*
X574000Y-125000D02*
D03*
X810000Y-2000D02*
D03*
X566000Y-97000D02*
D03*
X763000Y172000D02*
D03*
Y162000D02*
D03*
X920000Y-272000D02*
D03*
X725000Y-260000D02*
D03*
X740000Y-285000D02*
D03*
X749000Y-260000D02*
D03*
X765000D02*
D03*
X740000D02*
D03*
X911000Y260000D02*
D03*
X905000Y215000D02*
D03*
X864000Y237000D02*
D03*
X656000Y101000D02*
D03*
Y111000D02*
D03*
X846000Y-43000D02*
D03*
X792000Y54000D02*
D03*
X808000Y-212000D02*
D03*
X844000Y48000D02*
D03*
X856000Y71000D02*
D03*
X895000Y58000D02*
D03*
X864000Y62000D02*
D03*
X833000D02*
D03*
X874000Y-222000D02*
D03*
X863000Y-189000D02*
D03*
X851000Y-218000D02*
D03*
X790000Y70000D02*
D03*
X785000Y175000D02*
D03*
X595000Y99000D02*
D03*
X636000Y-2000D02*
D03*
Y7000D02*
D03*
X375000Y235000D02*
D03*
X401000D02*
D03*
Y255000D02*
D03*
X375000D02*
D03*
X388000Y235000D02*
D03*
X375000Y245000D02*
D03*
X388000D02*
D03*
X401000D02*
D03*
X388000Y255000D02*
D03*
X375000Y189000D02*
D03*
X401000D02*
D03*
Y209000D02*
D03*
X375000D02*
D03*
X388000Y189000D02*
D03*
X375000Y199000D02*
D03*
X388000D02*
D03*
X401000D02*
D03*
X388000Y209000D02*
D03*
X375000Y143000D02*
D03*
X401000D02*
D03*
Y163000D02*
D03*
X375000D02*
D03*
X388000Y143000D02*
D03*
X375000Y153000D02*
D03*
X388000D02*
D03*
X401000D02*
D03*
X388000Y163000D02*
D03*
X375000Y97000D02*
D03*
X401000D02*
D03*
Y117000D02*
D03*
X375000D02*
D03*
X388000Y97000D02*
D03*
X375000Y107000D02*
D03*
X388000D02*
D03*
X401000D02*
D03*
X388000Y117000D02*
D03*
X375000Y51000D02*
D03*
X401000D02*
D03*
Y71000D02*
D03*
X375000D02*
D03*
X388000Y51000D02*
D03*
X375000Y61000D02*
D03*
X388000D02*
D03*
X401000D02*
D03*
X388000Y71000D02*
D03*
X375000Y5000D02*
D03*
X401000D02*
D03*
Y25000D02*
D03*
X375000D02*
D03*
X388000Y5000D02*
D03*
X375000Y15000D02*
D03*
X388000D02*
D03*
X401000D02*
D03*
X388000Y25000D02*
D03*
X375000Y-41000D02*
D03*
X401000D02*
D03*
Y-21000D02*
D03*
X375000D02*
D03*
X388000Y-41000D02*
D03*
X375000Y-31000D02*
D03*
X388000D02*
D03*
X401000D02*
D03*
X388000Y-21000D02*
D03*
X375000Y-87000D02*
D03*
X401000D02*
D03*
Y-67000D02*
D03*
X375000D02*
D03*
X388000Y-87000D02*
D03*
X375000Y-77000D02*
D03*
X388000D02*
D03*
X401000D02*
D03*
X388000Y-67000D02*
D03*
X375000Y-133000D02*
D03*
X401000D02*
D03*
Y-113000D02*
D03*
X375000D02*
D03*
X388000Y-133000D02*
D03*
X375000Y-123000D02*
D03*
X388000D02*
D03*
X401000D02*
D03*
X388000Y-113000D02*
D03*
X375000Y-179000D02*
D03*
X401000D02*
D03*
Y-159000D02*
D03*
X375000D02*
D03*
X388000Y-179000D02*
D03*
X375000Y-169000D02*
D03*
X388000D02*
D03*
X401000D02*
D03*
X388000Y-159000D02*
D03*
X375000Y-225000D02*
D03*
X401000D02*
D03*
Y-205000D02*
D03*
X375000D02*
D03*
X388000Y-225000D02*
D03*
X375000Y-215000D02*
D03*
X388000D02*
D03*
X401000D02*
D03*
X388000Y-205000D02*
D03*
Y-251000D02*
D03*
X401000Y-261000D02*
D03*
X388000D02*
D03*
X375000D02*
D03*
X388000Y-271000D02*
D03*
X375000Y-251000D02*
D03*
X401000D02*
D03*
Y-271000D02*
D03*
X375000D02*
D03*
X530000Y-44000D02*
D03*
X821000Y-67000D02*
D03*
X714000Y-85000D02*
D03*
X744000Y29000D02*
D03*
X839000Y-67000D02*
D03*
X714000Y23000D02*
D03*
X859000Y-67000D02*
D03*
X737000Y34000D02*
D03*
X849000Y-67000D02*
D03*
X829000D02*
D03*
X750000Y23000D02*
D03*
X705000Y10000D02*
D03*
X707000Y0D02*
D03*
X706000Y23000D02*
D03*
X750000Y1000D02*
D03*
X529750Y92250D02*
D03*
X521750D02*
D03*
X529750Y46250D02*
D03*
X521750D02*
D03*
X529750Y250D02*
D03*
X521750D02*
D03*
Y-45750D02*
D03*
X529750Y-91750D02*
D03*
X521750D02*
D03*
X529750Y-137750D02*
D03*
X521750D02*
D03*
X529750Y-183750D02*
D03*
X521750D02*
D03*
X529750Y-229750D02*
D03*
X521750D02*
D03*
X537000Y-261000D02*
D03*
Y-269000D02*
D03*
X897000Y-64000D02*
D03*
X783000Y-221000D02*
D03*
X773000D02*
D03*
X637000Y-130000D02*
D03*
X570000Y-265000D02*
D03*
Y-255000D02*
D03*
X590000Y-245000D02*
D03*
X859000Y-3000D02*
D03*
X787000Y-113000D02*
D03*
X808000Y-69000D02*
D03*
X687000Y-46000D02*
D03*
Y-56000D02*
D03*
X663000Y66000D02*
D03*
X687000D02*
D03*
X645000Y-156000D02*
D03*
X597000Y-266000D02*
D03*
X623000D02*
D03*
X625000Y-243000D02*
D03*
X632000Y-233000D02*
D03*
X619000Y-221000D02*
D03*
X597000Y-213000D02*
D03*
X603000Y-225000D02*
D03*
X611000D02*
D03*
X650000D02*
D03*
Y-205000D02*
D03*
X660000Y-215000D02*
D03*
X604000Y-146000D02*
D03*
X610000Y-186000D02*
D03*
X628000D02*
D03*
Y-168000D02*
D03*
X610000D02*
D03*
X637000Y-146000D02*
D03*
X623000D02*
D03*
X615000D02*
D03*
X781000Y228000D02*
D03*
Y253000D02*
D03*
Y245000D02*
D03*
Y237000D02*
D03*
X832000Y245000D02*
D03*
X808000D02*
D03*
Y276000D02*
D03*
X832000D02*
D03*
Y268000D02*
D03*
X808000D02*
D03*
X931000Y275000D02*
D03*
X970000Y271000D02*
D03*
Y279000D02*
D03*
X843000Y140000D02*
D03*
Y155000D02*
D03*
Y148000D02*
D03*
X925000Y141000D02*
D03*
Y148000D02*
D03*
Y155000D02*
D03*
Y163000D02*
D03*
Y174000D02*
D03*
Y185000D02*
D03*
X863000Y162000D02*
D03*
Y169000D02*
D03*
X872000Y167000D02*
D03*
X877000Y162000D02*
D03*
X545000Y-283000D02*
D03*
X537000D02*
D03*
X914000Y-89000D02*
D03*
X889000Y-91000D02*
D03*
Y-77000D02*
D03*
X897000Y-53000D02*
D03*
X889000Y-60000D02*
D03*
X847000Y-51000D02*
D03*
Y-27000D02*
D03*
Y-35000D02*
D03*
X886000Y-2000D02*
D03*
Y35000D02*
D03*
X905000Y-93000D02*
D03*
X923000D02*
D03*
X839000Y-242000D02*
D03*
X854000Y-189000D02*
D03*
X823000Y-157000D02*
D03*
X895000Y-166000D02*
D03*
X843000Y-148000D02*
D03*
X851000D02*
D03*
X795000Y-255000D02*
D03*
X775000Y-285000D02*
D03*
X705000D02*
D03*
Y-260000D02*
D03*
X685000Y-255000D02*
D03*
X699000Y-197000D02*
D03*
X714000Y-189000D02*
D03*
X735000D02*
D03*
X725000Y-170000D02*
D03*
X801000Y-229000D02*
D03*
X783000Y-245000D02*
D03*
X712000Y-221000D02*
D03*
X930000Y-134000D02*
D03*
X886000Y-158000D02*
D03*
X895000Y-148000D02*
D03*
X933000Y-162000D02*
D03*
Y-170000D02*
D03*
X492000Y-257000D02*
D03*
Y-211000D02*
D03*
Y-165000D02*
D03*
Y-119000D02*
D03*
Y-73000D02*
D03*
Y-27000D02*
D03*
Y19000D02*
D03*
Y111000D02*
D03*
Y157000D02*
D03*
Y65000D02*
D03*
Y203000D02*
D03*
Y249000D02*
D03*
X745000Y190000D02*
D03*
X720000Y263000D02*
D03*
Y271000D02*
D03*
X695000Y263000D02*
D03*
Y271000D02*
D03*
X745000Y263000D02*
D03*
Y271000D02*
D03*
X686000Y233000D02*
D03*
Y223000D02*
D03*
X696000Y190000D02*
D03*
Y198000D02*
D03*
X745000D02*
D03*
X860000Y220000D02*
D03*
X854000Y127000D02*
D03*
X915000Y195000D02*
D03*
X897000Y155000D02*
D03*
Y142000D02*
D03*
X868000Y220000D02*
D03*
X876000D02*
D03*
X853000Y216000D02*
D03*
X840000Y195000D02*
D03*
X820000D02*
D03*
X801000D02*
D03*
X856000Y237000D02*
D03*
Y268000D02*
D03*
Y276000D02*
D03*
X890000Y210000D02*
D03*
X782000Y112000D02*
D03*
X796000Y98000D02*
D03*
X804000Y92000D02*
D03*
X834000Y82000D02*
D03*
X810000Y79000D02*
D03*
X822000Y67000D02*
D03*
X897000Y-43000D02*
D03*
X930000Y95000D02*
D03*
Y85000D02*
D03*
X913000Y-2000D02*
D03*
X905000D02*
D03*
X912000Y37000D02*
D03*
X902000D02*
D03*
X687000Y35000D02*
D03*
Y-37000D02*
D03*
X663000Y35000D02*
D03*
Y15000D02*
D03*
Y25000D02*
D03*
Y45000D02*
D03*
X698000Y18000D02*
D03*
X730000Y40000D02*
D03*
X724000Y46000D02*
D03*
X718000Y52000D02*
D03*
X636000Y-39000D02*
D03*
Y-47000D02*
D03*
X704000Y-103000D02*
D03*
X824000Y32000D02*
D03*
X801000Y24000D02*
D03*
X794000Y17000D02*
D03*
X830000Y-45000D02*
D03*
Y-53000D02*
D03*
X700000Y56000D02*
D03*
X786000Y45000D02*
D03*
X780000Y39000D02*
D03*
X708000Y56000D02*
D03*
X689000Y4000D02*
D03*
X585000Y-195000D02*
D03*
X581000Y-167000D02*
D03*
X589000D02*
D03*
X596000Y-146000D02*
D03*
X772000Y228000D02*
D03*
Y237000D02*
D03*
X594000Y-56000D02*
D03*
Y-36000D02*
D03*
Y-16000D02*
D03*
Y4000D02*
D03*
Y24000D02*
D03*
X814000Y67000D02*
D03*
X737000Y198000D02*
D03*
X729000D02*
D03*
X721000D02*
D03*
X773000Y121000D02*
D03*
X600000Y14000D02*
D03*
Y-6000D02*
D03*
Y-26000D02*
D03*
Y-46000D02*
D03*
Y-66000D02*
D03*
X606000Y-56000D02*
D03*
Y-36000D02*
D03*
Y-16000D02*
D03*
Y4000D02*
D03*
Y24000D02*
D03*
X596000Y47000D02*
D03*
X726000Y222000D02*
D03*
X780000Y55000D02*
D03*
X745000Y211000D02*
D03*
X753000Y198000D02*
D03*
X746000Y167000D02*
D03*
X230000Y135000D02*
D03*
X215000D02*
D03*
X597000Y-130000D02*
D03*
X785000Y158000D02*
D03*
X800000Y143000D02*
D03*
X920000Y129000D02*
D03*
X716000Y62000D02*
D03*
X872000Y69000D02*
D03*
Y58000D02*
D03*
X711000Y-111000D02*
D03*
X737000D02*
D03*
X837000Y-3000D02*
D03*
X930000Y105000D02*
D03*
Y116000D02*
D03*
X822000Y113000D02*
D03*
X858000Y95000D02*
D03*
X818000Y26000D02*
D03*
X905000Y115000D02*
D03*
X924000Y275000D02*
D03*
X744000Y151000D02*
D03*
X773000Y-17000D02*
D03*
X728000Y-128000D02*
D03*
X740000D02*
D03*
X752000D02*
D03*
X775000Y-143000D02*
D03*
X649000Y125000D02*
D03*
X656000D02*
D03*
X595000Y74000D02*
D03*
X816000Y50000D02*
D03*
X565000Y-134000D02*
D03*
X650000Y245000D02*
D03*
Y235000D02*
D03*
X584000Y156000D02*
D03*
X721000Y-67000D02*
D03*
X729000D02*
D03*
X737000D02*
D03*
X745000D02*
D03*
X672000Y96000D02*
D03*
X734000Y79000D02*
D03*
X765000Y65000D02*
D03*
X610000Y201000D02*
D03*
X562000Y221000D02*
D03*
Y229000D02*
D03*
X610000Y193000D02*
D03*
X600000Y165000D02*
D03*
X610000D02*
D03*
X677000Y136000D02*
D03*
X688000Y125000D02*
D03*
X635000Y150000D02*
D03*
X660000D02*
D03*
X635000Y175000D02*
D03*
X584000Y165000D02*
D03*
X607000Y135000D02*
D03*
X669000Y235000D02*
D03*
X639000Y205000D02*
D03*
Y255000D02*
D03*
X610000Y211000D02*
D03*
X868000Y260000D02*
D03*
X789000Y105000D02*
D03*
D86*
X1354000Y-130000D02*
D03*
X1334000D02*
D03*
X1314000D02*
D03*
X1294000D02*
D03*
Y-110000D02*
D03*
Y-90000D02*
D03*
Y-70000D02*
D03*
Y-50000D02*
D03*
X1358000Y65000D02*
D03*
Y45000D02*
D03*
Y25000D02*
D03*
Y5000D02*
D03*
Y-15000D02*
D03*
X1318000Y65000D02*
D03*
Y45000D02*
D03*
Y25000D02*
D03*
Y5000D02*
D03*
Y-15000D02*
D03*
X1338000D02*
D03*
Y5000D02*
D03*
Y25000D02*
D03*
Y45000D02*
D03*
Y65000D02*
D03*
X1314000Y-50000D02*
D03*
Y-70000D02*
D03*
Y-90000D02*
D03*
Y-110000D02*
D03*
X1334000Y-50000D02*
D03*
Y-70000D02*
D03*
Y-90000D02*
D03*
Y-110000D02*
D03*
X1354000Y-50000D02*
D03*
Y-70000D02*
D03*
Y-90000D02*
D03*
Y-110000D02*
D03*
X1298000Y-15000D02*
D03*
Y5000D02*
D03*
Y25000D02*
D03*
Y45000D02*
D03*
Y65000D02*
D03*
X1278000Y-15000D02*
D03*
Y5000D02*
D03*
Y25000D02*
D03*
Y45000D02*
D03*
Y65000D02*
D03*
X945000Y-65000D02*
D03*
X965000D02*
D03*
X985000D02*
D03*
X1005000D02*
D03*
X1025000D02*
D03*
X1045000D02*
D03*
X1065000D02*
D03*
X1085000D02*
D03*
X1105000D02*
D03*
X1125000D02*
D03*
X1145000D02*
D03*
X945000Y-43000D02*
D03*
X965000D02*
D03*
X985000D02*
D03*
X1005000D02*
D03*
X1025000D02*
D03*
X1045000D02*
D03*
X1065000D02*
D03*
X1085000D02*
D03*
X1105000D02*
D03*
X1125000D02*
D03*
X1145000D02*
D03*
X945000Y-23000D02*
D03*
X965000D02*
D03*
X985000D02*
D03*
X1005000D02*
D03*
X1025000D02*
D03*
X1045000D02*
D03*
X1065000D02*
D03*
X1085000D02*
D03*
X1105000D02*
D03*
X1125000D02*
D03*
X1145000D02*
D03*
X945000Y-3000D02*
D03*
X965000D02*
D03*
X985000D02*
D03*
X1005000D02*
D03*
X1025000D02*
D03*
X1045000D02*
D03*
X1065000D02*
D03*
X1085000D02*
D03*
X1105000D02*
D03*
X1125000D02*
D03*
X1145000D02*
D03*
X945000Y17000D02*
D03*
X965000D02*
D03*
X985000D02*
D03*
X1005000D02*
D03*
X1025000D02*
D03*
X1045000D02*
D03*
X1065000D02*
D03*
X1085000D02*
D03*
X1105000D02*
D03*
X1125000D02*
D03*
X1145000D02*
D03*
X305000Y270000D02*
D03*
X1255000Y70000D02*
D03*
X163000Y-285000D02*
D03*
Y-270000D02*
D03*
Y-255000D02*
D03*
Y255000D02*
D03*
Y270000D02*
D03*
Y285000D02*
D03*
X213000Y-146500D02*
D03*
X191000D02*
D03*
X213000Y146500D02*
D03*
X191000D02*
D03*
X930000Y-200000D02*
D03*
X905000D02*
D03*
X1154000Y-80000D02*
D03*
X1140000D02*
D03*
X1125000D02*
D03*
X1110000D02*
D03*
X1095000D02*
D03*
X1080000D02*
D03*
X1050000D02*
D03*
X1035000D02*
D03*
X1020000D02*
D03*
X1005000D02*
D03*
X990000D02*
D03*
X975000D02*
D03*
X960000D02*
D03*
X1100000Y165000D02*
D03*
X1070000D02*
D03*
X1085000D02*
D03*
X257000Y285000D02*
D03*
X1155000Y-142000D02*
D03*
X1148000Y-150000D02*
D03*
X1219000Y-132000D02*
D03*
X1185000Y-111000D02*
D03*
X1315000Y110000D02*
D03*
X1305000D02*
D03*
X1175000Y-111000D02*
D03*
X1255000Y55000D02*
D03*
Y40000D02*
D03*
Y25000D02*
D03*
Y10000D02*
D03*
Y-5000D02*
D03*
Y-20000D02*
D03*
X1195000Y-25000D02*
D03*
X1215000D02*
D03*
X1235000D02*
D03*
Y25000D02*
D03*
X1215000D02*
D03*
X1195000D02*
D03*
X1180000Y-25000D02*
D03*
Y-10000D02*
D03*
Y5000D02*
D03*
Y20000D02*
D03*
X1165000D02*
D03*
Y5000D02*
D03*
Y-10000D02*
D03*
Y-25000D02*
D03*
X1164000Y45000D02*
D03*
X1145000Y43000D02*
D03*
X1125000D02*
D03*
X946900Y-80000D02*
D03*
X1110000Y55000D02*
D03*
X1105000Y43000D02*
D03*
X1090000Y55000D02*
D03*
X1085000Y43000D02*
D03*
X1070000Y55000D02*
D03*
X1065000Y43000D02*
D03*
X1050000Y55000D02*
D03*
X1045000Y43000D02*
D03*
X1030000Y55000D02*
D03*
X1025000Y43000D02*
D03*
X1010000Y55000D02*
D03*
X1005000Y43000D02*
D03*
X990000Y55000D02*
D03*
X985000Y43000D02*
D03*
X970000Y55000D02*
D03*
X965000Y43000D02*
D03*
X950000Y55000D02*
D03*
X945000Y43000D02*
D03*
X1147000Y58000D02*
D03*
X1225000Y-250000D02*
D03*
X1215000D02*
D03*
X1205000D02*
D03*
Y-220000D02*
D03*
X1225000D02*
D03*
X1215000D02*
D03*
X1245000Y-105000D02*
D03*
Y-92000D02*
D03*
Y-80000D02*
D03*
X1205000Y-132000D02*
D03*
X1233000D02*
D03*
Y-92000D02*
D03*
X1219000D02*
D03*
X1205000D02*
D03*
Y-80000D02*
D03*
X1233000D02*
D03*
X1219000D02*
D03*
Y-105000D02*
D03*
X1233000D02*
D03*
X1205000D02*
D03*
X1245000Y-132000D02*
D03*
Y-118000D02*
D03*
Y-67000D02*
D03*
X1100000Y-171000D02*
D03*
X1055000Y-200000D02*
D03*
Y-225000D02*
D03*
Y-250000D02*
D03*
X1070000D02*
D03*
X1100000D02*
D03*
X1085000D02*
D03*
X1100000Y-185000D02*
D03*
Y-200000D02*
D03*
Y-215000D02*
D03*
X1070000D02*
D03*
Y-185000D02*
D03*
Y-200000D02*
D03*
X1085000Y-215000D02*
D03*
Y-200000D02*
D03*
Y-185000D02*
D03*
Y-169000D02*
D03*
X1070000Y-170000D02*
D03*
X1100000Y-160000D02*
D03*
X1080000Y-158000D02*
D03*
Y-140000D02*
D03*
X1089000Y-149000D02*
D03*
X1100000Y-140000D02*
D03*
X1115000Y-160000D02*
D03*
X1105000Y-120000D02*
D03*
Y-100000D02*
D03*
X1115000Y-140000D02*
D03*
X1135000Y-150000D02*
D03*
Y-140000D02*
D03*
X1155000Y-120000D02*
D03*
Y-100000D02*
D03*
X1035000Y-140000D02*
D03*
X1010000D02*
D03*
X960000D02*
D03*
X985000D02*
D03*
Y-120000D02*
D03*
Y-100000D02*
D03*
X257000Y-285000D02*
D03*
Y-270000D02*
D03*
Y-255000D02*
D03*
X323000Y-250000D02*
D03*
X451500Y-240000D02*
D03*
X323000Y-204000D02*
D03*
X451500Y-194000D02*
D03*
X323000Y-158000D02*
D03*
X451500Y-148000D02*
D03*
X323000Y-112000D02*
D03*
X451500Y-102000D02*
D03*
X323000Y-66000D02*
D03*
X451500Y-56000D02*
D03*
X323000Y-20000D02*
D03*
X451500Y-10000D02*
D03*
X323000Y26000D02*
D03*
X451500Y36000D02*
D03*
X323000Y118000D02*
D03*
X451500Y128000D02*
D03*
X323000Y164000D02*
D03*
X451500Y174000D02*
D03*
X323000Y72000D02*
D03*
X451500Y82000D02*
D03*
X323000Y210000D02*
D03*
X451500Y220000D02*
D03*
X323000Y256000D02*
D03*
X451500Y266000D02*
D03*
X305000Y-268000D02*
D03*
X317000Y-179000D02*
D03*
Y-87000D02*
D03*
Y5000D02*
D03*
Y97000D02*
D03*
Y189000D02*
D03*
X1051000Y125000D02*
D03*
Y135000D02*
D03*
X949000Y125000D02*
D03*
Y135000D02*
D03*
X962000D02*
D03*
Y125000D02*
D03*
X975000Y135000D02*
D03*
Y125000D02*
D03*
X988000Y135000D02*
D03*
Y125000D02*
D03*
X1038000D02*
D03*
Y135000D02*
D03*
X1025000Y125000D02*
D03*
Y135000D02*
D03*
X1012000Y125000D02*
D03*
Y135000D02*
D03*
X1000000Y125000D02*
D03*
Y135000D02*
D03*
X257000Y270000D02*
D03*
Y255000D02*
D03*
X213000Y45000D02*
D03*
Y-105000D02*
D03*
Y-75000D02*
D03*
Y-45000D02*
D03*
Y-15000D02*
D03*
Y15000D02*
D03*
Y75000D02*
D03*
X1160000Y150000D02*
D03*
X1231000Y163000D02*
D03*
X1215000Y-290000D02*
D03*
X1200000D02*
D03*
X1230000D02*
D03*
X1085000D02*
D03*
X1100000D02*
D03*
X1070000D02*
D03*
X1180000Y-160000D02*
D03*
X860000Y-285000D02*
D03*
X988000Y-290000D02*
D03*
X1067000Y-80000D02*
D03*
X1054000Y-150000D02*
D03*
Y-163000D02*
D03*
Y-175000D02*
D03*
X1275000Y-78000D02*
D03*
Y-90000D02*
D03*
Y-102000D02*
D03*
Y-115000D02*
D03*
Y-128000D02*
D03*
X1068000Y95000D02*
D03*
X1080000Y99000D02*
D03*
X1070000Y130000D02*
D03*
X1095000D02*
D03*
X1125000Y102000D02*
D03*
X1159000D02*
D03*
X1260000Y-128000D02*
D03*
Y-115000D02*
D03*
Y-102000D02*
D03*
Y-90000D02*
D03*
Y-78000D02*
D03*
Y-66000D02*
D03*
X1275000D02*
D03*
M02*
