G04 Layer_Color=16711935*
%FSLAX25Y25*%
%MOIN*%
G70*
G01*
G75*
%ADD118R,0.05131X0.06312*%
%ADD149R,0.09068X0.12611*%
%ADD150R,0.03950X0.07099*%
%ADD163R,0.44894X0.08871*%
%ADD169C,0.04737*%
%ADD170C,0.28359*%
%ADD172C,0.00800*%
%ADD173C,0.08674*%
%ADD174C,0.08280*%
%ADD175C,0.14579*%
%ADD176R,0.13780X0.33465*%
%ADD177R,0.03950X0.07414*%
%ADD178R,0.07099X0.06706*%
%ADD179R,0.05879X0.06312*%
%ADD180R,0.07493X0.06706*%
%ADD181R,0.05879X0.05918*%
%ADD182R,0.06706X0.07493*%
G04:AMPARAMS|DCode=183|XSize=67.06mil|YSize=32.02mil|CornerRadius=7.6mil|HoleSize=0mil|Usage=FLASHONLY|Rotation=90.000|XOffset=0mil|YOffset=0mil|HoleType=Round|Shape=RoundedRectangle|*
%AMROUNDEDRECTD183*
21,1,0.06706,0.01681,0,0,90.0*
21,1,0.05185,0.03202,0,0,90.0*
1,1,0.01520,0.00841,0.02593*
1,1,0.01520,0.00841,-0.02593*
1,1,0.01520,-0.00841,-0.02593*
1,1,0.01520,-0.00841,0.02593*
%
%ADD183ROUNDEDRECTD183*%
G04:AMPARAMS|DCode=184|XSize=67.06mil|YSize=32.02mil|CornerRadius=7.6mil|HoleSize=0mil|Usage=FLASHONLY|Rotation=180.000|XOffset=0mil|YOffset=0mil|HoleType=Round|Shape=RoundedRectangle|*
%AMROUNDEDRECTD184*
21,1,0.06706,0.01681,0,0,180.0*
21,1,0.05185,0.03202,0,0,180.0*
1,1,0.01520,-0.02593,0.00841*
1,1,0.01520,0.02593,0.00841*
1,1,0.01520,0.02593,-0.00841*
1,1,0.01520,-0.02593,-0.00841*
%
%ADD184ROUNDEDRECTD184*%
G04:AMPARAMS|DCode=185|XSize=47.37mil|YSize=47.37mil|CornerRadius=9.9mil|HoleSize=0mil|Usage=FLASHONLY|Rotation=180.000|XOffset=0mil|YOffset=0mil|HoleType=Round|Shape=RoundedRectangle|*
%AMROUNDEDRECTD185*
21,1,0.04737,0.02756,0,0,180.0*
21,1,0.02756,0.04737,0,0,180.0*
1,1,0.01981,-0.01378,0.01378*
1,1,0.01981,0.01378,0.01378*
1,1,0.01981,0.01378,-0.01378*
1,1,0.01981,-0.01378,-0.01378*
%
%ADD185ROUNDEDRECTD185*%
D118*
X229429Y-33071D02*
D03*
X222539D02*
D03*
X285531Y-87008D02*
D03*
X292421D02*
D03*
D149*
X271457Y-108268D02*
D03*
X311221D02*
D03*
X303346Y108465D02*
D03*
X263583D02*
D03*
X271457Y-67323D02*
D03*
X311221D02*
D03*
D150*
X281496Y-96653D02*
D03*
X301181D02*
D03*
X291339D02*
D03*
X296260D02*
D03*
X286417D02*
D03*
X293307Y96850D02*
D03*
X273622D02*
D03*
X283465D02*
D03*
X278543D02*
D03*
X288386D02*
D03*
X281496Y-55709D02*
D03*
X301181D02*
D03*
X291339D02*
D03*
X296260D02*
D03*
X286417D02*
D03*
D163*
X393700Y42127D02*
D03*
X393701Y28740D02*
D03*
D169*
X545276Y-62992D02*
D03*
Y49213D02*
D03*
X9843Y-25591D02*
D03*
Y25591D02*
D03*
Y108268D02*
D03*
Y-108268D02*
D03*
X541339D02*
D03*
Y108268D02*
D03*
D170*
X452756Y-78740D02*
D03*
Y78740D02*
D03*
X98425D02*
D03*
Y-78740D02*
D03*
D172*
X511811D02*
D03*
X393701Y78740D02*
D03*
Y-78740D02*
D03*
X39370Y78740D02*
D03*
Y-78740D02*
D03*
X511811Y78740D02*
D03*
D173*
X516811Y-93740D02*
D03*
X506811D02*
D03*
X496811D02*
D03*
X526811D02*
D03*
Y-83740D02*
D03*
Y-73740D02*
D03*
Y-63740D02*
D03*
X516811D02*
D03*
X506811D02*
D03*
X496811D02*
D03*
Y-73740D02*
D03*
Y-83740D02*
D03*
X398701Y63740D02*
D03*
X388701D02*
D03*
X378701D02*
D03*
X408701D02*
D03*
Y73740D02*
D03*
Y83740D02*
D03*
Y93740D02*
D03*
X398701D02*
D03*
X388701D02*
D03*
X378701D02*
D03*
Y83740D02*
D03*
Y73740D02*
D03*
X398701Y-93740D02*
D03*
X388701D02*
D03*
X378701D02*
D03*
X408701D02*
D03*
Y-83740D02*
D03*
Y-73740D02*
D03*
Y-63740D02*
D03*
X398701D02*
D03*
X388701D02*
D03*
X378701D02*
D03*
Y-73740D02*
D03*
Y-83740D02*
D03*
X44370Y63740D02*
D03*
X34370D02*
D03*
X24370D02*
D03*
X54370D02*
D03*
Y73740D02*
D03*
Y83740D02*
D03*
Y93740D02*
D03*
X44370D02*
D03*
X34370D02*
D03*
X24370D02*
D03*
Y83740D02*
D03*
Y73740D02*
D03*
X44370Y-93740D02*
D03*
X34370D02*
D03*
X24370D02*
D03*
X54370D02*
D03*
Y-83740D02*
D03*
Y-73740D02*
D03*
Y-63740D02*
D03*
X44370D02*
D03*
X34370D02*
D03*
X24370D02*
D03*
Y-73740D02*
D03*
Y-83740D02*
D03*
X516811Y63740D02*
D03*
X506811D02*
D03*
X496811D02*
D03*
X526811D02*
D03*
Y73740D02*
D03*
Y83740D02*
D03*
Y93740D02*
D03*
X516811D02*
D03*
X506811D02*
D03*
X496811D02*
D03*
Y83740D02*
D03*
Y73740D02*
D03*
X354331Y-87402D02*
D03*
Y-107087D02*
D03*
D174*
X254232Y-110433D02*
D03*
X226083D02*
D03*
D175*
X53976Y49843D02*
D03*
Y-49843D02*
D03*
D176*
X493110Y-40354D02*
D03*
D177*
X225984Y-43760D02*
D03*
X221654D02*
D03*
X217323D02*
D03*
X212992D02*
D03*
X243307D02*
D03*
X238976D02*
D03*
X234646D02*
D03*
X230315D02*
D03*
D178*
X207480Y-43406D02*
D03*
D179*
X204902Y-78839D02*
D03*
D180*
X257283Y-43406D02*
D03*
D181*
X204902Y-49508D02*
D03*
D182*
X258465Y-102264D02*
D03*
X205315D02*
D03*
D183*
X216535Y70472D02*
D03*
X220472D02*
D03*
X224410D02*
D03*
X228346D02*
D03*
X232283D02*
D03*
X236221D02*
D03*
X240158D02*
D03*
X244094D02*
D03*
D184*
X246496Y76772D02*
D03*
Y80709D02*
D03*
Y84646D02*
D03*
Y88583D02*
D03*
Y92520D02*
D03*
Y96457D02*
D03*
Y100394D02*
D03*
Y104331D02*
D03*
X214134D02*
D03*
Y100394D02*
D03*
Y96457D02*
D03*
Y92520D02*
D03*
Y88583D02*
D03*
Y84646D02*
D03*
Y80709D02*
D03*
Y76772D02*
D03*
D185*
X245709Y112205D02*
D03*
X234252Y99409D02*
D03*
X214921Y112205D02*
D03*
X226378Y99409D02*
D03*
M02*
