G04 Layer_Physical_Order=2*
G04 Layer_Color=36540*
%FSLAX25Y25*%
%MOIN*%
G70*
G01*
G75*
%ADD77C,0.01181*%
%ADD79C,0.03937*%
%ADD81C,0.01968*%
%ADD82C,0.07874*%
%ADD83C,0.07480*%
%ADD85C,0.02165*%
%ADD86C,0.03150*%
G36*
X533910Y116761D02*
X536282Y116289D01*
X538573Y115511D01*
X540743Y114441D01*
X542754Y113097D01*
X544573Y111502D01*
X546168Y109683D01*
X547512Y107672D01*
X548582Y105502D01*
X549360Y103212D01*
X549831Y100839D01*
X549986Y98473D01*
X549977Y98425D01*
Y-98425D01*
X549986Y-98473D01*
X549831Y-100839D01*
X549360Y-103212D01*
X548582Y-105502D01*
X547512Y-107672D01*
X546168Y-109683D01*
X544573Y-111502D01*
X542754Y-113097D01*
X540743Y-114441D01*
X538573Y-115511D01*
X536282Y-116289D01*
X533910Y-116761D01*
X531544Y-116916D01*
X531496Y-116906D01*
X328347D01*
X328346Y-96063D01*
X324803Y-92520D01*
Y-64961D01*
X318898Y-59055D01*
X267717Y-59055D01*
X261811Y-64961D01*
X261811Y-116906D01*
X78740D01*
Y-96457D01*
X68898Y-86614D01*
Y86614D01*
X78740Y96457D01*
Y116906D01*
X190945D01*
X190945Y106299D01*
X192913Y104331D01*
X255906Y104331D01*
X257874Y106299D01*
Y116906D01*
X531496D01*
X531544Y116916D01*
X533910Y116761D01*
D02*
G37*
G36*
X19685Y116906D02*
X74802D01*
X74802Y98424D01*
X70866Y94488D01*
X62992Y86614D01*
Y-86614D01*
X70866Y-94488D01*
X74803Y-98425D01*
X74803Y-116906D01*
X19685D01*
X19637Y-116916D01*
X17271Y-116761D01*
X14899Y-116289D01*
X12608Y-115511D01*
X10438Y-114441D01*
X8427Y-113097D01*
X6608Y-111502D01*
X5013Y-109683D01*
X3669Y-107672D01*
X2599Y-105502D01*
X1822Y-103212D01*
X1350Y-100839D01*
X1195Y-98473D01*
X1204Y-98425D01*
Y-19685D01*
X15748D01*
Y19685D01*
X1204D01*
Y98425D01*
X1195Y98473D01*
X1350Y100839D01*
X1822Y103212D01*
X2599Y105502D01*
X3669Y107672D01*
X5013Y109683D01*
X6608Y111502D01*
X8427Y113097D01*
X10438Y114441D01*
X12608Y115511D01*
X14899Y116289D01*
X17271Y116761D01*
X19637Y116916D01*
X19685Y116906D01*
D02*
G37*
%LPC*%
G36*
X250394Y-13448D02*
X249664Y-13593D01*
X249045Y-14006D01*
X248632Y-14625D01*
X248487Y-15354D01*
X248632Y-16084D01*
X249045Y-16703D01*
Y-17156D01*
X248632Y-17774D01*
X248487Y-18504D01*
X248632Y-19234D01*
X249045Y-19852D01*
X249664Y-20266D01*
X250394Y-20411D01*
X251123Y-20266D01*
X251742Y-19852D01*
X252155Y-19234D01*
X252300Y-18504D01*
X252155Y-17774D01*
X251742Y-17156D01*
Y-16703D01*
X252155Y-16084D01*
X252300Y-15354D01*
X252155Y-14625D01*
X251742Y-14006D01*
X251123Y-13593D01*
X250394Y-13448D01*
D02*
G37*
G36*
X83858Y-14540D02*
X83036Y-14648D01*
X82270Y-14965D01*
X81612Y-15470D01*
X81107Y-16128D01*
X80790Y-16894D01*
X80682Y-17717D01*
X80790Y-18539D01*
X81107Y-19305D01*
X81612Y-19963D01*
X82270Y-20468D01*
X83036Y-20785D01*
X83858Y-20893D01*
X84680Y-20785D01*
X85447Y-20468D01*
X86105Y-19963D01*
X86609Y-19305D01*
X86927Y-18539D01*
X87035Y-17717D01*
X86927Y-16894D01*
X86609Y-16128D01*
X86105Y-15470D01*
X85447Y-14965D01*
X84680Y-14648D01*
X83858Y-14540D01*
D02*
G37*
G36*
X379921Y-13752D02*
X379099Y-13861D01*
X378333Y-14178D01*
X377675Y-14683D01*
X377170Y-15341D01*
X376853Y-16107D01*
X376745Y-16929D01*
X376853Y-17751D01*
X377170Y-18518D01*
X377675Y-19175D01*
X378333Y-19680D01*
X379099Y-19998D01*
X379921Y-20106D01*
X380744Y-19998D01*
X381510Y-19680D01*
X382168Y-19175D01*
X382672Y-18518D01*
X382990Y-17751D01*
X383098Y-16929D01*
X382990Y-16107D01*
X382672Y-15341D01*
X382168Y-14683D01*
X381510Y-14178D01*
X380744Y-13861D01*
X379921Y-13752D01*
D02*
G37*
G36*
X372047D02*
X371225Y-13861D01*
X370459Y-14178D01*
X369801Y-14683D01*
X369296Y-15341D01*
X368979Y-16107D01*
X368870Y-16929D01*
X368979Y-17751D01*
X369296Y-18518D01*
X369801Y-19175D01*
X370459Y-19680D01*
X371225Y-19998D01*
X372047Y-20106D01*
X372869Y-19998D01*
X373636Y-19680D01*
X374294Y-19175D01*
X374798Y-18518D01*
X375116Y-17751D01*
X375224Y-16929D01*
X375116Y-16107D01*
X374798Y-15341D01*
X374294Y-14683D01*
X373636Y-14178D01*
X372869Y-13861D01*
X372047Y-13752D01*
D02*
G37*
G36*
X326772Y-15810D02*
X326042Y-15955D01*
X325423Y-16368D01*
X325010Y-16987D01*
X324865Y-17717D01*
X325010Y-18446D01*
X325423Y-19065D01*
Y-19518D01*
X325010Y-20136D01*
X324865Y-20866D01*
X325010Y-21596D01*
X325423Y-22214D01*
X326042Y-22628D01*
X326772Y-22773D01*
X327501Y-22628D01*
X328120Y-22214D01*
X328533Y-21596D01*
X328678Y-20866D01*
X328533Y-20136D01*
X328120Y-19518D01*
Y-19065D01*
X328533Y-18446D01*
X328678Y-17717D01*
X328533Y-16987D01*
X328120Y-16368D01*
X327501Y-15955D01*
X326772Y-15810D01*
D02*
G37*
G36*
X517323Y-16508D02*
X516501Y-16616D01*
X515734Y-16934D01*
X515076Y-17439D01*
X514572Y-18097D01*
X514254Y-18863D01*
X514146Y-19685D01*
X514254Y-20507D01*
X514572Y-21273D01*
X515076Y-21931D01*
X515734Y-22436D01*
X516501Y-22754D01*
X517323Y-22862D01*
X518145Y-22754D01*
X518911Y-22436D01*
X519569Y-21931D01*
X520074Y-21273D01*
X520391Y-20507D01*
X520500Y-19685D01*
X520391Y-18863D01*
X520074Y-18097D01*
X519569Y-17439D01*
X518911Y-16934D01*
X518145Y-16616D01*
X517323Y-16508D01*
D02*
G37*
G36*
X509449D02*
X508627Y-16616D01*
X507860Y-16934D01*
X507202Y-17439D01*
X506698Y-18097D01*
X506380Y-18863D01*
X506272Y-19685D01*
X506380Y-20507D01*
X506698Y-21273D01*
X507202Y-21931D01*
X507860Y-22436D01*
X508627Y-22754D01*
X509449Y-22862D01*
X510271Y-22754D01*
X511037Y-22436D01*
X511695Y-21931D01*
X512200Y-21273D01*
X512517Y-20507D01*
X512626Y-19685D01*
X512517Y-18863D01*
X512200Y-18097D01*
X511695Y-17439D01*
X511037Y-16934D01*
X510271Y-16616D01*
X509449Y-16508D01*
D02*
G37*
G36*
X533071D02*
X532249Y-16616D01*
X531483Y-16934D01*
X530825Y-17439D01*
X530320Y-18097D01*
X530002Y-18863D01*
X529894Y-19685D01*
X530002Y-20507D01*
X530320Y-21273D01*
X530825Y-21931D01*
X531483Y-22436D01*
X532249Y-22754D01*
X533071Y-22862D01*
X533893Y-22754D01*
X534659Y-22436D01*
X535317Y-21931D01*
X535822Y-21273D01*
X536139Y-20507D01*
X536248Y-19685D01*
X536139Y-18863D01*
X535822Y-18097D01*
X535317Y-17439D01*
X534659Y-16934D01*
X533893Y-16616D01*
X533071Y-16508D01*
D02*
G37*
G36*
X525197D02*
X524375Y-16616D01*
X523608Y-16934D01*
X522951Y-17439D01*
X522446Y-18097D01*
X522128Y-18863D01*
X522020Y-19685D01*
X522128Y-20507D01*
X522446Y-21273D01*
X522951Y-21931D01*
X523608Y-22436D01*
X524375Y-22754D01*
X525197Y-22862D01*
X526019Y-22754D01*
X526785Y-22436D01*
X527443Y-21931D01*
X527948Y-21273D01*
X528265Y-20507D01*
X528374Y-19685D01*
X528265Y-18863D01*
X527948Y-18097D01*
X527443Y-17439D01*
X526785Y-16934D01*
X526019Y-16616D01*
X525197Y-16508D01*
D02*
G37*
G36*
X435039Y-13752D02*
X434217Y-13861D01*
X433451Y-14178D01*
X432793Y-14683D01*
X432288Y-15341D01*
X431971Y-16107D01*
X431863Y-16929D01*
X431971Y-17751D01*
X432288Y-18518D01*
X432793Y-19175D01*
X433451Y-19680D01*
X434217Y-19998D01*
X435039Y-20106D01*
X435862Y-19998D01*
X436628Y-19680D01*
X437286Y-19175D01*
X437790Y-18518D01*
X438108Y-17751D01*
X438216Y-16929D01*
X438108Y-16107D01*
X437790Y-15341D01*
X437286Y-14683D01*
X436628Y-14178D01*
X435862Y-13861D01*
X435039Y-13752D01*
D02*
G37*
G36*
X427165D02*
X426343Y-13861D01*
X425577Y-14178D01*
X424919Y-14683D01*
X424414Y-15341D01*
X424097Y-16107D01*
X423989Y-16929D01*
X424097Y-17751D01*
X424414Y-18518D01*
X424919Y-19175D01*
X425577Y-19680D01*
X426343Y-19998D01*
X427165Y-20106D01*
X427988Y-19998D01*
X428754Y-19680D01*
X429412Y-19175D01*
X429916Y-18518D01*
X430234Y-17751D01*
X430342Y-16929D01*
X430234Y-16107D01*
X429916Y-15341D01*
X429412Y-14683D01*
X428754Y-14178D01*
X427988Y-13861D01*
X427165Y-13752D01*
D02*
G37*
G36*
X450787D02*
X449965Y-13861D01*
X449199Y-14178D01*
X448541Y-14683D01*
X448036Y-15341D01*
X447719Y-16107D01*
X447611Y-16929D01*
X447719Y-17751D01*
X448036Y-18518D01*
X448541Y-19175D01*
X449199Y-19680D01*
X449965Y-19998D01*
X450787Y-20106D01*
X451610Y-19998D01*
X452376Y-19680D01*
X453034Y-19175D01*
X453539Y-18518D01*
X453856Y-17751D01*
X453964Y-16929D01*
X453856Y-16107D01*
X453539Y-15341D01*
X453034Y-14683D01*
X452376Y-14178D01*
X451610Y-13861D01*
X450787Y-13752D01*
D02*
G37*
G36*
X442913D02*
X442091Y-13861D01*
X441325Y-14178D01*
X440667Y-14683D01*
X440162Y-15341D01*
X439845Y-16107D01*
X439737Y-16929D01*
X439845Y-17751D01*
X440162Y-18518D01*
X440667Y-19175D01*
X441325Y-19680D01*
X442091Y-19998D01*
X442913Y-20106D01*
X443736Y-19998D01*
X444502Y-19680D01*
X445160Y-19175D01*
X445665Y-18518D01*
X445982Y-17751D01*
X446090Y-16929D01*
X445982Y-16107D01*
X445665Y-15341D01*
X445160Y-14683D01*
X444502Y-14178D01*
X443736Y-13861D01*
X442913Y-13752D01*
D02*
G37*
G36*
X419291D02*
X418469Y-13861D01*
X417703Y-14178D01*
X417045Y-14683D01*
X416540Y-15341D01*
X416223Y-16107D01*
X416115Y-16929D01*
X416223Y-17751D01*
X416540Y-18518D01*
X417045Y-19175D01*
X417703Y-19680D01*
X418469Y-19998D01*
X419291Y-20106D01*
X420114Y-19998D01*
X420880Y-19680D01*
X421538Y-19175D01*
X422043Y-18518D01*
X422360Y-17751D01*
X422468Y-16929D01*
X422360Y-16107D01*
X422043Y-15341D01*
X421538Y-14683D01*
X420880Y-14178D01*
X420114Y-13861D01*
X419291Y-13752D01*
D02*
G37*
G36*
X395669D02*
X394847Y-13861D01*
X394081Y-14178D01*
X393423Y-14683D01*
X392918Y-15341D01*
X392601Y-16107D01*
X392493Y-16929D01*
X392601Y-17751D01*
X392918Y-18518D01*
X393423Y-19175D01*
X394081Y-19680D01*
X394847Y-19998D01*
X395669Y-20106D01*
X396492Y-19998D01*
X397258Y-19680D01*
X397916Y-19175D01*
X398421Y-18518D01*
X398738Y-17751D01*
X398846Y-16929D01*
X398738Y-16107D01*
X398421Y-15341D01*
X397916Y-14683D01*
X397258Y-14178D01*
X396492Y-13861D01*
X395669Y-13752D01*
D02*
G37*
G36*
X387795D02*
X386973Y-13861D01*
X386207Y-14178D01*
X385549Y-14683D01*
X385044Y-15341D01*
X384727Y-16107D01*
X384618Y-16929D01*
X384727Y-17751D01*
X385044Y-18518D01*
X385549Y-19175D01*
X386207Y-19680D01*
X386973Y-19998D01*
X387795Y-20106D01*
X388617Y-19998D01*
X389384Y-19680D01*
X390042Y-19175D01*
X390546Y-18518D01*
X390864Y-17751D01*
X390972Y-16929D01*
X390864Y-16107D01*
X390546Y-15341D01*
X390042Y-14683D01*
X389384Y-14178D01*
X388617Y-13861D01*
X387795Y-13752D01*
D02*
G37*
G36*
X411417D02*
X410595Y-13861D01*
X409829Y-14178D01*
X409171Y-14683D01*
X408666Y-15341D01*
X408349Y-16107D01*
X408241Y-16929D01*
X408349Y-17751D01*
X408666Y-18518D01*
X409171Y-19175D01*
X409829Y-19680D01*
X410595Y-19998D01*
X411417Y-20106D01*
X412240Y-19998D01*
X413006Y-19680D01*
X413664Y-19175D01*
X414169Y-18518D01*
X414486Y-17751D01*
X414594Y-16929D01*
X414486Y-16107D01*
X414169Y-15341D01*
X413664Y-14683D01*
X413006Y-14178D01*
X412240Y-13861D01*
X411417Y-13752D01*
D02*
G37*
G36*
X403543D02*
X402721Y-13861D01*
X401955Y-14178D01*
X401297Y-14683D01*
X400792Y-15341D01*
X400475Y-16107D01*
X400366Y-16929D01*
X400475Y-17751D01*
X400792Y-18518D01*
X401297Y-19175D01*
X401955Y-19680D01*
X402721Y-19998D01*
X403543Y-20106D01*
X404365Y-19998D01*
X405132Y-19680D01*
X405790Y-19175D01*
X406294Y-18518D01*
X406612Y-17751D01*
X406720Y-16929D01*
X406612Y-16107D01*
X406294Y-15341D01*
X405790Y-14683D01*
X405132Y-14178D01*
X404365Y-13861D01*
X403543Y-13752D01*
D02*
G37*
G36*
X533071Y-24382D02*
X532249Y-24490D01*
X531483Y-24808D01*
X530825Y-25313D01*
X530320Y-25971D01*
X530002Y-26737D01*
X529894Y-27559D01*
X530002Y-28381D01*
X530320Y-29147D01*
X530825Y-29805D01*
X531483Y-30310D01*
X532249Y-30628D01*
X533071Y-30736D01*
X533893Y-30628D01*
X534659Y-30310D01*
X535317Y-29805D01*
X535822Y-29147D01*
X536139Y-28381D01*
X536248Y-27559D01*
X536139Y-26737D01*
X535822Y-25971D01*
X535317Y-25313D01*
X534659Y-24808D01*
X533893Y-24490D01*
X533071Y-24382D01*
D02*
G37*
G36*
X525197D02*
X524375Y-24490D01*
X523608Y-24808D01*
X522951Y-25313D01*
X522446Y-25971D01*
X522128Y-26737D01*
X522020Y-27559D01*
X522128Y-28381D01*
X522446Y-29147D01*
X522951Y-29805D01*
X523608Y-30310D01*
X524375Y-30628D01*
X525197Y-30736D01*
X526019Y-30628D01*
X526785Y-30310D01*
X527443Y-29805D01*
X527948Y-29147D01*
X528265Y-28381D01*
X528374Y-27559D01*
X528265Y-26737D01*
X527948Y-25971D01*
X527443Y-25313D01*
X526785Y-24808D01*
X526019Y-24490D01*
X525197Y-24382D01*
D02*
G37*
G36*
X127165Y-22807D02*
X126343Y-22916D01*
X125577Y-23233D01*
X124919Y-23738D01*
X124414Y-24396D01*
X124097Y-25162D01*
X123989Y-25984D01*
X124097Y-26807D01*
X124414Y-27573D01*
X124919Y-28231D01*
X125577Y-28735D01*
X126343Y-29053D01*
X127165Y-29161D01*
X127988Y-29053D01*
X128754Y-28735D01*
X129412Y-28231D01*
X129917Y-27573D01*
X130234Y-26807D01*
X130342Y-25984D01*
X130234Y-25162D01*
X129917Y-24396D01*
X129412Y-23738D01*
X128754Y-23233D01*
X127988Y-22916D01*
X127165Y-22807D01*
D02*
G37*
G36*
X450787Y-22414D02*
X449965Y-22522D01*
X449199Y-22839D01*
X448541Y-23344D01*
X448036Y-24002D01*
X447719Y-24768D01*
X447611Y-25591D01*
X447719Y-26413D01*
X448036Y-27179D01*
X448541Y-27837D01*
X448557Y-27849D01*
X448417Y-28372D01*
X447997Y-28427D01*
X447230Y-28745D01*
X446573Y-29250D01*
X446157Y-29791D01*
X445970Y-29835D01*
X445762D01*
X445575Y-29791D01*
X445160Y-29250D01*
X444619Y-28835D01*
X444574Y-28648D01*
Y-28439D01*
X444619Y-28252D01*
X445160Y-27837D01*
X445665Y-27179D01*
X445982Y-26413D01*
X446090Y-25591D01*
X445982Y-24768D01*
X445665Y-24002D01*
X445160Y-23344D01*
X444502Y-22839D01*
X443736Y-22522D01*
X442913Y-22414D01*
X442091Y-22522D01*
X441325Y-22839D01*
X440667Y-23344D01*
X440162Y-24002D01*
X439845Y-24768D01*
X439737Y-25591D01*
X439845Y-26413D01*
X440162Y-27179D01*
X440667Y-27837D01*
X441208Y-28252D01*
X441253Y-28439D01*
Y-28648D01*
X441208Y-28835D01*
X440667Y-29250D01*
X440252Y-29791D01*
X440065Y-29835D01*
X439856D01*
X439669Y-29791D01*
X439254Y-29250D01*
X438596Y-28745D01*
X437830Y-28427D01*
X437409Y-28372D01*
X437269Y-27849D01*
X437286Y-27837D01*
X437790Y-27179D01*
X438108Y-26413D01*
X438216Y-25591D01*
X438108Y-24768D01*
X437790Y-24002D01*
X437286Y-23344D01*
X436628Y-22839D01*
X435862Y-22522D01*
X435039Y-22414D01*
X434217Y-22522D01*
X433451Y-22839D01*
X432793Y-23344D01*
X432288Y-24002D01*
X431971Y-24768D01*
X431863Y-25591D01*
X431971Y-26413D01*
X432288Y-27179D01*
X432793Y-27837D01*
X433451Y-28342D01*
X434217Y-28659D01*
X434638Y-28714D01*
X434778Y-29237D01*
X434761Y-29250D01*
X434346Y-29791D01*
X434159Y-29835D01*
X433951D01*
X433764Y-29791D01*
X433349Y-29250D01*
X432691Y-28745D01*
X431925Y-28427D01*
X431102Y-28319D01*
X430280Y-28427D01*
X429514Y-28745D01*
X428856Y-29250D01*
X428441Y-29791D01*
X428254Y-29835D01*
X428045D01*
X427858Y-29791D01*
X427443Y-29250D01*
X427427Y-29237D01*
X427567Y-28714D01*
X427988Y-28659D01*
X428754Y-28342D01*
X429412Y-27837D01*
X429916Y-27179D01*
X430234Y-26413D01*
X430342Y-25591D01*
X430234Y-24768D01*
X429916Y-24002D01*
X429412Y-23344D01*
X428754Y-22839D01*
X427988Y-22522D01*
X427165Y-22414D01*
X426343Y-22522D01*
X425577Y-22839D01*
X424919Y-23344D01*
X424414Y-24002D01*
X424097Y-24768D01*
X423989Y-25591D01*
X424097Y-26413D01*
X424414Y-27179D01*
X424919Y-27837D01*
X424935Y-27849D01*
X424795Y-28372D01*
X424375Y-28427D01*
X423608Y-28745D01*
X422954Y-29247D01*
X422840Y-29331D01*
X422436D01*
X422322Y-29247D01*
X421667Y-28745D01*
X421348Y-28613D01*
X421273Y-28040D01*
X421538Y-27837D01*
X422043Y-27179D01*
X422360Y-26413D01*
X422468Y-25591D01*
X422360Y-24768D01*
X422043Y-24002D01*
X421538Y-23344D01*
X420880Y-22839D01*
X420114Y-22522D01*
X419291Y-22414D01*
X418469Y-22522D01*
X417703Y-22839D01*
X417045Y-23344D01*
X416540Y-24002D01*
X416223Y-24768D01*
X416115Y-25591D01*
X416223Y-26413D01*
X416540Y-27179D01*
X417045Y-27837D01*
X417703Y-28342D01*
X418022Y-28474D01*
X418097Y-29046D01*
X417832Y-29250D01*
X417328Y-29908D01*
X417010Y-30674D01*
X416984Y-30870D01*
X416480D01*
X416454Y-30674D01*
X416137Y-29908D01*
X415632Y-29250D01*
X414974Y-28745D01*
X414208Y-28427D01*
X413787Y-28372D01*
X413647Y-27849D01*
X413664Y-27837D01*
X414169Y-27179D01*
X414486Y-26413D01*
X414594Y-25591D01*
X414486Y-24768D01*
X414169Y-24002D01*
X413664Y-23344D01*
X413006Y-22839D01*
X412240Y-22522D01*
X411417Y-22414D01*
X410595Y-22522D01*
X409829Y-22839D01*
X409171Y-23344D01*
X408666Y-24002D01*
X408349Y-24768D01*
X408241Y-25591D01*
X408349Y-26413D01*
X408666Y-27179D01*
X409171Y-27837D01*
X409829Y-28342D01*
X410595Y-28659D01*
X411016Y-28714D01*
X411156Y-29237D01*
X411139Y-29250D01*
X410724Y-29791D01*
X410537Y-29835D01*
X410329D01*
X410142Y-29791D01*
X409727Y-29250D01*
X409069Y-28745D01*
X408302Y-28427D01*
X407480Y-28319D01*
X406658Y-28427D01*
X405892Y-28745D01*
X405234Y-29250D01*
X404819Y-29791D01*
X404632Y-29835D01*
X404423D01*
X404236Y-29791D01*
X403821Y-29250D01*
X403805Y-29237D01*
X403945Y-28714D01*
X404365Y-28659D01*
X405132Y-28342D01*
X405790Y-27837D01*
X406294Y-27179D01*
X406612Y-26413D01*
X406720Y-25591D01*
X406612Y-24768D01*
X406294Y-24002D01*
X405790Y-23344D01*
X405132Y-22839D01*
X404365Y-22522D01*
X403543Y-22414D01*
X402721Y-22522D01*
X401955Y-22839D01*
X401297Y-23344D01*
X400792Y-24002D01*
X400475Y-24768D01*
X400366Y-25591D01*
X400475Y-26413D01*
X400792Y-27179D01*
X401297Y-27837D01*
X401313Y-27849D01*
X401173Y-28372D01*
X400753Y-28427D01*
X399986Y-28745D01*
X399328Y-29250D01*
X398913Y-29791D01*
X398726Y-29835D01*
X398518D01*
X398331Y-29791D01*
X397916Y-29250D01*
X397375Y-28835D01*
X397330Y-28648D01*
Y-28439D01*
X397375Y-28252D01*
X397916Y-27837D01*
X398421Y-27179D01*
X398738Y-26413D01*
X398846Y-25591D01*
X398738Y-24768D01*
X398421Y-24002D01*
X397916Y-23344D01*
X397258Y-22839D01*
X396492Y-22522D01*
X395669Y-22414D01*
X394847Y-22522D01*
X394081Y-22839D01*
X393423Y-23344D01*
X392918Y-24002D01*
X392601Y-24768D01*
X392493Y-25591D01*
X392601Y-26413D01*
X392918Y-27179D01*
X393423Y-27837D01*
X393964Y-28252D01*
X394008Y-28439D01*
Y-28648D01*
X393964Y-28835D01*
X393423Y-29250D01*
X393008Y-29791D01*
X392821Y-29835D01*
X392612D01*
X392425Y-29791D01*
X392010Y-29250D01*
X391352Y-28745D01*
X390586Y-28427D01*
X390165Y-28372D01*
X390025Y-27849D01*
X390042Y-27837D01*
X390546Y-27179D01*
X390864Y-26413D01*
X390972Y-25591D01*
X390864Y-24768D01*
X390546Y-24002D01*
X390042Y-23344D01*
X389384Y-22839D01*
X388617Y-22522D01*
X387795Y-22414D01*
X386973Y-22522D01*
X386207Y-22839D01*
X385549Y-23344D01*
X385044Y-24002D01*
X384727Y-24768D01*
X384618Y-25591D01*
X384727Y-26413D01*
X385044Y-27179D01*
X385549Y-27837D01*
X386207Y-28342D01*
X386973Y-28659D01*
X387394Y-28714D01*
X387534Y-29237D01*
X387517Y-29250D01*
X387102Y-29791D01*
X386915Y-29835D01*
X386707D01*
X386520Y-29791D01*
X386105Y-29250D01*
X385447Y-28745D01*
X384681Y-28427D01*
X383858Y-28319D01*
X383036Y-28427D01*
X382270Y-28745D01*
X381612Y-29250D01*
X381197Y-29791D01*
X381010Y-29835D01*
X380801D01*
X380614Y-29791D01*
X380199Y-29250D01*
X380183Y-29237D01*
X380323Y-28714D01*
X380744Y-28659D01*
X381510Y-28342D01*
X382168Y-27837D01*
X382672Y-27179D01*
X382990Y-26413D01*
X383098Y-25591D01*
X382990Y-24768D01*
X382672Y-24002D01*
X382168Y-23344D01*
X381510Y-22839D01*
X380744Y-22522D01*
X379921Y-22414D01*
X379099Y-22522D01*
X378333Y-22839D01*
X377675Y-23344D01*
X377170Y-24002D01*
X376853Y-24768D01*
X376745Y-25591D01*
X376853Y-26413D01*
X377170Y-27179D01*
X377675Y-27837D01*
X377691Y-27849D01*
X377551Y-28372D01*
X377131Y-28427D01*
X376364Y-28745D01*
X375706Y-29250D01*
X375624Y-29357D01*
X375124D01*
X375042Y-29250D01*
X374384Y-28745D01*
X374090Y-28623D01*
X374015Y-28051D01*
X374294Y-27837D01*
X374798Y-27179D01*
X375116Y-26413D01*
X375224Y-25591D01*
X375116Y-24768D01*
X374798Y-24002D01*
X374294Y-23344D01*
X373636Y-22839D01*
X372869Y-22522D01*
X372047Y-22414D01*
X371225Y-22522D01*
X370459Y-22839D01*
X369801Y-23344D01*
X369296Y-24002D01*
X368979Y-24768D01*
X368870Y-25591D01*
X368979Y-26413D01*
X369296Y-27179D01*
X369801Y-27837D01*
X370459Y-28342D01*
X370753Y-28463D01*
X370828Y-29036D01*
X370549Y-29250D01*
X370044Y-29908D01*
X369727Y-30674D01*
X369619Y-31496D01*
X369727Y-32318D01*
X370044Y-33084D01*
X370549Y-33742D01*
X371207Y-34247D01*
X371973Y-34565D01*
X372795Y-34673D01*
X373618Y-34565D01*
X374384Y-34247D01*
X375042Y-33742D01*
X375124Y-33635D01*
X375624D01*
X375706Y-33742D01*
X376364Y-34247D01*
X377131Y-34565D01*
X377953Y-34673D01*
X378775Y-34565D01*
X379541Y-34247D01*
X380199Y-33742D01*
X380614Y-33201D01*
X380801Y-33157D01*
X381010D01*
X381197Y-33201D01*
X381612Y-33742D01*
X382270Y-34247D01*
X383036Y-34565D01*
X383858Y-34673D01*
X384681Y-34565D01*
X385447Y-34247D01*
X386105Y-33742D01*
X386520Y-33201D01*
X386707Y-33157D01*
X386915D01*
X387102Y-33201D01*
X387517Y-33742D01*
X388175Y-34247D01*
X388942Y-34565D01*
X389764Y-34673D01*
X390586Y-34565D01*
X391352Y-34247D01*
X392010Y-33742D01*
X392425Y-33201D01*
X392612Y-33157D01*
X392821D01*
X393008Y-33201D01*
X393423Y-33742D01*
X394081Y-34247D01*
X394847Y-34565D01*
X395669Y-34673D01*
X396492Y-34565D01*
X397258Y-34247D01*
X397916Y-33742D01*
X398331Y-33201D01*
X398518Y-33157D01*
X398726D01*
X398913Y-33201D01*
X399328Y-33742D01*
X399986Y-34247D01*
X400753Y-34565D01*
X401575Y-34673D01*
X402397Y-34565D01*
X403163Y-34247D01*
X403821Y-33742D01*
X404236Y-33201D01*
X404423Y-33157D01*
X404632D01*
X404819Y-33201D01*
X405234Y-33742D01*
X405892Y-34247D01*
X406658Y-34565D01*
X407480Y-34673D01*
X408302Y-34565D01*
X409069Y-34247D01*
X409727Y-33742D01*
X410142Y-33201D01*
X410329Y-33157D01*
X410537D01*
X410724Y-33201D01*
X411139Y-33742D01*
X411797Y-34247D01*
X412564Y-34565D01*
X413386Y-34673D01*
X414208Y-34565D01*
X414974Y-34247D01*
X415632Y-33742D01*
X416137Y-33084D01*
X416454Y-32318D01*
X416480Y-32123D01*
X416984D01*
X417010Y-32318D01*
X417328Y-33084D01*
X417832Y-33742D01*
X418490Y-34247D01*
X419256Y-34565D01*
X420079Y-34673D01*
X420901Y-34565D01*
X421667Y-34247D01*
X422322Y-33745D01*
X422436Y-33661D01*
X422840D01*
X422954Y-33745D01*
X423608Y-34247D01*
X424375Y-34565D01*
X425197Y-34673D01*
X426019Y-34565D01*
X426785Y-34247D01*
X427443Y-33742D01*
X427858Y-33201D01*
X428045Y-33157D01*
X428254D01*
X428441Y-33201D01*
X428856Y-33742D01*
X429514Y-34247D01*
X430280Y-34565D01*
X431102Y-34673D01*
X431925Y-34565D01*
X432691Y-34247D01*
X433349Y-33742D01*
X433764Y-33201D01*
X433951Y-33157D01*
X434159D01*
X434346Y-33201D01*
X434761Y-33742D01*
X435420Y-34247D01*
X436186Y-34565D01*
X437008Y-34673D01*
X437830Y-34565D01*
X438596Y-34247D01*
X439254Y-33742D01*
X439669Y-33201D01*
X439856Y-33157D01*
X440065D01*
X440252Y-33201D01*
X440667Y-33742D01*
X441325Y-34247D01*
X442091Y-34565D01*
X442913Y-34673D01*
X443736Y-34565D01*
X444502Y-34247D01*
X445160Y-33742D01*
X445575Y-33201D01*
X445762Y-33157D01*
X445970D01*
X446157Y-33201D01*
X446573Y-33742D01*
X447230Y-34247D01*
X447997Y-34565D01*
X448819Y-34673D01*
X449641Y-34565D01*
X450407Y-34247D01*
X451065Y-33742D01*
X451260Y-33489D01*
X451890D01*
X452084Y-33742D01*
X452742Y-34247D01*
X453509Y-34565D01*
X454331Y-34673D01*
X455153Y-34565D01*
X455919Y-34247D01*
X456577Y-33742D01*
X457082Y-33084D01*
X457399Y-32318D01*
X457508Y-31496D01*
X457399Y-30674D01*
X457082Y-29908D01*
X456577Y-29250D01*
X455919Y-28745D01*
X455153Y-28427D01*
X454331Y-28319D01*
X453509Y-28427D01*
X452742Y-28745D01*
X452084Y-29250D01*
X451902Y-29488D01*
X451416Y-29488D01*
X451186Y-29192D01*
X451359Y-28692D01*
X451610Y-28659D01*
X452376Y-28342D01*
X453034Y-27837D01*
X453539Y-27179D01*
X453856Y-26413D01*
X453964Y-25591D01*
X453856Y-24768D01*
X453539Y-24002D01*
X453034Y-23344D01*
X452376Y-22839D01*
X451610Y-22522D01*
X450787Y-22414D01*
D02*
G37*
G36*
X517323Y-24382D02*
X516501Y-24490D01*
X515734Y-24808D01*
X515076Y-25313D01*
X514572Y-25971D01*
X514254Y-26737D01*
X514146Y-27559D01*
X514254Y-28381D01*
X514572Y-29147D01*
X515076Y-29805D01*
X515734Y-30310D01*
X516501Y-30628D01*
X517323Y-30736D01*
X518145Y-30628D01*
X518911Y-30310D01*
X519569Y-29805D01*
X520074Y-29147D01*
X520391Y-28381D01*
X520500Y-27559D01*
X520391Y-26737D01*
X520074Y-25971D01*
X519569Y-25313D01*
X518911Y-24808D01*
X518145Y-24490D01*
X517323Y-24382D01*
D02*
G37*
G36*
X249213Y-28422D02*
X248519Y-28513D01*
X247872Y-28781D01*
X247317Y-29207D01*
X246891Y-29762D01*
X246623Y-30409D01*
X246532Y-31102D01*
X246623Y-31796D01*
X246749Y-32098D01*
X246338Y-32413D01*
X246222Y-32324D01*
X245576Y-32057D01*
X244882Y-31965D01*
X244188Y-32057D01*
X243542Y-32324D01*
X242987Y-32750D01*
X242561Y-33305D01*
X242293Y-33952D01*
X242201Y-34646D01*
X242293Y-35339D01*
X242561Y-35986D01*
X242987Y-36541D01*
X243542Y-36967D01*
X244188Y-37235D01*
X244882Y-37326D01*
X245576Y-37235D01*
X246222Y-36967D01*
X246777Y-36541D01*
X247203Y-35986D01*
X247471Y-35339D01*
X247562Y-34646D01*
X247471Y-33952D01*
X247346Y-33650D01*
X247757Y-33335D01*
X247872Y-33424D01*
X248519Y-33691D01*
X249213Y-33783D01*
X249906Y-33691D01*
X250553Y-33424D01*
X251108Y-32998D01*
X251534Y-32443D01*
X251802Y-31796D01*
X251893Y-31102D01*
X251802Y-30409D01*
X251534Y-29762D01*
X251108Y-29207D01*
X250553Y-28781D01*
X249906Y-28513D01*
X249213Y-28422D01*
D02*
G37*
G36*
X83858Y-26351D02*
X83036Y-26459D01*
X82270Y-26776D01*
X81612Y-27281D01*
X81107Y-27939D01*
X80790Y-28705D01*
X80682Y-29528D01*
X80790Y-30350D01*
X81107Y-31116D01*
X81612Y-31774D01*
X82270Y-32279D01*
X83036Y-32596D01*
X83858Y-32704D01*
X84680Y-32596D01*
X85447Y-32279D01*
X86105Y-31774D01*
X86609Y-31116D01*
X86927Y-30350D01*
X87035Y-29528D01*
X86927Y-28705D01*
X86609Y-27939D01*
X86105Y-27281D01*
X85447Y-26776D01*
X84680Y-26459D01*
X83858Y-26351D01*
D02*
G37*
G36*
X509449Y-24382D02*
X508627Y-24490D01*
X507860Y-24808D01*
X507202Y-25313D01*
X506698Y-25971D01*
X506380Y-26737D01*
X506272Y-27559D01*
X506380Y-28381D01*
X506698Y-29147D01*
X507202Y-29805D01*
X507860Y-30310D01*
X508627Y-30628D01*
X509449Y-30736D01*
X510271Y-30628D01*
X511037Y-30310D01*
X511695Y-29805D01*
X512200Y-29147D01*
X512517Y-28381D01*
X512626Y-27559D01*
X512517Y-26737D01*
X512200Y-25971D01*
X511695Y-25313D01*
X511037Y-24808D01*
X510271Y-24490D01*
X509449Y-24382D01*
D02*
G37*
G36*
X193701Y-26060D02*
X193007Y-26151D01*
X192361Y-26419D01*
X191806Y-26845D01*
X191379Y-27400D01*
X191112Y-28046D01*
X191020Y-28740D01*
X191112Y-29434D01*
X191379Y-30080D01*
X191806Y-30635D01*
X192361Y-31062D01*
X193007Y-31329D01*
X193701Y-31421D01*
X194395Y-31329D01*
X195041Y-31062D01*
X195596Y-30635D01*
X196022Y-30080D01*
X196290Y-29434D01*
X196381Y-28740D01*
X196290Y-28046D01*
X196022Y-27400D01*
X195596Y-26845D01*
X195041Y-26419D01*
X194395Y-26151D01*
X193701Y-26060D01*
D02*
G37*
G36*
X302756Y-24471D02*
X302026Y-24616D01*
X301408Y-25030D01*
X300955D01*
X300336Y-24616D01*
X299606Y-24471D01*
X298877Y-24616D01*
X298258Y-25030D01*
X297845Y-25648D01*
X297700Y-26378D01*
X297845Y-27108D01*
X298258Y-27726D01*
X298877Y-28139D01*
X299606Y-28285D01*
X300336Y-28139D01*
X300955Y-27726D01*
X301408D01*
X302026Y-28139D01*
X302756Y-28285D01*
X303486Y-28139D01*
X304104Y-27726D01*
X304518Y-27108D01*
X304663Y-26378D01*
X304518Y-25648D01*
X304104Y-25030D01*
X303486Y-24616D01*
X302756Y-24471D01*
D02*
G37*
G36*
X293307D02*
X292577Y-24616D01*
X291959Y-25030D01*
X291506D01*
X290887Y-24616D01*
X290158Y-24471D01*
X289428Y-24616D01*
X288809Y-25030D01*
X288356D01*
X287737Y-24616D01*
X287008Y-24471D01*
X286278Y-24616D01*
X285660Y-25030D01*
X285207D01*
X284588Y-24616D01*
X283858Y-24471D01*
X283129Y-24616D01*
X282510Y-25030D01*
X282097Y-25648D01*
X281952Y-26378D01*
X282097Y-27108D01*
X282510Y-27726D01*
X283129Y-28139D01*
X283858Y-28285D01*
X284588Y-28139D01*
X285207Y-27726D01*
X285660D01*
X286278Y-28139D01*
X287008Y-28285D01*
X287737Y-28139D01*
X288356Y-27726D01*
X288809D01*
X289428Y-28139D01*
X290158Y-28285D01*
X290887Y-28139D01*
X291506Y-27726D01*
X291959D01*
X292577Y-28139D01*
X293307Y-28285D01*
X294037Y-28139D01*
X294655Y-27726D01*
X295069Y-27108D01*
X295214Y-26378D01*
X295069Y-25648D01*
X294655Y-25030D01*
X294037Y-24616D01*
X293307Y-24471D01*
D02*
G37*
G36*
X270472Y-16204D02*
X269743Y-16349D01*
X269124Y-16762D01*
X268711Y-17381D01*
X268566Y-18110D01*
X268711Y-18840D01*
X269124Y-19458D01*
X269637Y-19801D01*
X269677Y-19985D01*
Y-20173D01*
X269637Y-20357D01*
X269124Y-20699D01*
X268711Y-21318D01*
X268566Y-22047D01*
X268711Y-22777D01*
X269124Y-23395D01*
X269743Y-23809D01*
X270472Y-23954D01*
X271202Y-23809D01*
X271821Y-23395D01*
X272234Y-22777D01*
X272379Y-22047D01*
X272234Y-21318D01*
X271821Y-20699D01*
X271308Y-20357D01*
X271268Y-20173D01*
Y-19985D01*
X271308Y-19801D01*
X271821Y-19458D01*
X272234Y-18840D01*
X272379Y-18110D01*
X272234Y-17381D01*
X271821Y-16762D01*
X271202Y-16349D01*
X270472Y-16204D01*
D02*
G37*
G36*
X501968Y-22807D02*
X501146Y-22916D01*
X500380Y-23233D01*
X499722Y-23738D01*
X499307Y-24279D01*
X499120Y-24323D01*
X498911D01*
X498725Y-24279D01*
X498309Y-23738D01*
X497651Y-23233D01*
X496885Y-22916D01*
X496063Y-22807D01*
X495241Y-22916D01*
X494475Y-23233D01*
X493817Y-23738D01*
X493312Y-24396D01*
X493286Y-24459D01*
X492713Y-24535D01*
X492404Y-24132D01*
X491746Y-23627D01*
X490980Y-23309D01*
X490158Y-23201D01*
X489335Y-23309D01*
X488569Y-23627D01*
X487911Y-24132D01*
X487406Y-24790D01*
X487089Y-25556D01*
X486981Y-26378D01*
X487089Y-27200D01*
X487406Y-27966D01*
X487759Y-28426D01*
X487686Y-28947D01*
X487617Y-29048D01*
X487515Y-29096D01*
X487474Y-29092D01*
X487021Y-28745D01*
X486255Y-28427D01*
X485433Y-28319D01*
X484611Y-28427D01*
X483845Y-28745D01*
X483187Y-29250D01*
X482992Y-29503D01*
X482362D01*
X482168Y-29250D01*
X481510Y-28745D01*
X480744Y-28427D01*
X479921Y-28319D01*
X479099Y-28427D01*
X478333Y-28745D01*
X477675Y-29250D01*
X477481Y-29503D01*
X476850D01*
X476656Y-29250D01*
X475998Y-28745D01*
X475232Y-28427D01*
X474409Y-28319D01*
X473587Y-28427D01*
X472821Y-28745D01*
X472163Y-29250D01*
X471658Y-29908D01*
X471341Y-30674D01*
X471233Y-31496D01*
X471341Y-32318D01*
X471658Y-33084D01*
X471971Y-33492D01*
X472117Y-33858D01*
X471971Y-34225D01*
X471658Y-34632D01*
X471341Y-35398D01*
X471233Y-36220D01*
X471341Y-37043D01*
X471658Y-37809D01*
X472161Y-38464D01*
X472245Y-38578D01*
Y-38982D01*
X472161Y-39095D01*
X471658Y-39750D01*
X471341Y-40516D01*
X471233Y-41339D01*
X471341Y-42161D01*
X471658Y-42927D01*
X472163Y-43585D01*
X472821Y-44090D01*
X473587Y-44407D01*
X474409Y-44515D01*
X475232Y-44407D01*
X475998Y-44090D01*
X476656Y-43585D01*
X476850Y-43332D01*
X477481D01*
X477675Y-43585D01*
X478333Y-44090D01*
X479099Y-44407D01*
X479921Y-44515D01*
X480744Y-44407D01*
X481510Y-44090D01*
X482168Y-43585D01*
X482362Y-43332D01*
X482992D01*
X483187Y-43585D01*
X483845Y-44090D01*
X484611Y-44407D01*
X485433Y-44515D01*
X486255Y-44407D01*
X487021Y-44090D01*
X487429Y-43777D01*
X487493Y-43752D01*
X487612Y-43830D01*
X487631Y-43855D01*
X487717Y-44463D01*
X487406Y-44868D01*
X487089Y-45634D01*
X486981Y-46457D01*
X487089Y-47279D01*
X487406Y-48045D01*
X487911Y-48703D01*
X488165Y-48897D01*
Y-49391D01*
X487712Y-49643D01*
X487429Y-49530D01*
X487021Y-49217D01*
X486255Y-48900D01*
X485433Y-48792D01*
X484611Y-48900D01*
X483845Y-49217D01*
X483187Y-49722D01*
X482992Y-49976D01*
X482362D01*
X482168Y-49722D01*
X481510Y-49217D01*
X480744Y-48900D01*
X479921Y-48792D01*
X479099Y-48900D01*
X478333Y-49217D01*
X477675Y-49722D01*
X477481Y-49976D01*
X476850D01*
X476656Y-49722D01*
X475998Y-49217D01*
X475232Y-48900D01*
X474409Y-48792D01*
X473587Y-48900D01*
X472821Y-49217D01*
X472163Y-49722D01*
X471658Y-50380D01*
X471341Y-51146D01*
X471233Y-51968D01*
X471341Y-52791D01*
X471658Y-53557D01*
X472163Y-54215D01*
X472821Y-54720D01*
X473587Y-55037D01*
X474409Y-55145D01*
X475232Y-55037D01*
X475998Y-54720D01*
X476656Y-54215D01*
X476850Y-53961D01*
X477481D01*
X477675Y-54215D01*
X478333Y-54720D01*
X479099Y-55037D01*
X479921Y-55145D01*
X480744Y-55037D01*
X481510Y-54720D01*
X482168Y-54215D01*
X482362Y-53961D01*
X482992D01*
X483187Y-54215D01*
X483845Y-54720D01*
X484611Y-55037D01*
X485433Y-55145D01*
X486255Y-55037D01*
X487021Y-54720D01*
X487668Y-54224D01*
X488109Y-54394D01*
X488140Y-54865D01*
X487054Y-55951D01*
X486706Y-56472D01*
X486583Y-57087D01*
X486583Y-57087D01*
Y-100394D01*
X486583Y-100394D01*
X486706Y-101008D01*
X487054Y-101529D01*
X489022Y-103498D01*
X489543Y-103846D01*
X490158Y-103968D01*
X490158Y-103968D01*
X533464D01*
X533465Y-103968D01*
X534079Y-103846D01*
X534600Y-103498D01*
X536568Y-101529D01*
X536916Y-101008D01*
X537039Y-100394D01*
X537039Y-100394D01*
Y-57087D01*
X537039Y-57087D01*
X536916Y-56472D01*
X536568Y-55951D01*
X534950Y-54333D01*
X534997Y-53673D01*
X535317Y-53427D01*
X535822Y-52770D01*
X536139Y-52003D01*
X536248Y-51181D01*
X536139Y-50359D01*
X535822Y-49593D01*
X535317Y-48935D01*
X534659Y-48430D01*
X533893Y-48113D01*
X533071Y-48004D01*
X532249Y-48113D01*
X531483Y-48430D01*
X530825Y-48935D01*
X530320Y-49593D01*
X530002Y-50359D01*
X529894Y-51181D01*
X530002Y-52003D01*
X530320Y-52770D01*
X530506Y-53013D01*
X530260Y-53513D01*
X528008D01*
X527762Y-53013D01*
X527948Y-52770D01*
X528265Y-52003D01*
X528374Y-51181D01*
X528265Y-50359D01*
X527948Y-49593D01*
X527443Y-48935D01*
X526785Y-48430D01*
X526019Y-48113D01*
X525197Y-48004D01*
X524375Y-48113D01*
X523608Y-48430D01*
X522951Y-48935D01*
X522446Y-49593D01*
X522128Y-50359D01*
X522020Y-51181D01*
X522128Y-52003D01*
X522446Y-52770D01*
X522632Y-53013D01*
X522386Y-53513D01*
X520134D01*
X519888Y-53013D01*
X520074Y-52770D01*
X520391Y-52003D01*
X520500Y-51181D01*
X520391Y-50359D01*
X520074Y-49593D01*
X519569Y-48935D01*
X518911Y-48430D01*
X518145Y-48113D01*
X517323Y-48004D01*
X516501Y-48113D01*
X515734Y-48430D01*
X515076Y-48935D01*
X514572Y-49593D01*
X514254Y-50359D01*
X514146Y-51181D01*
X514254Y-52003D01*
X514572Y-52770D01*
X514758Y-53013D01*
X514511Y-53513D01*
X512260D01*
X512014Y-53013D01*
X512200Y-52770D01*
X512517Y-52003D01*
X512626Y-51181D01*
X512517Y-50359D01*
X512200Y-49593D01*
X511695Y-48935D01*
X511037Y-48430D01*
X510271Y-48113D01*
X509449Y-48004D01*
X508627Y-48113D01*
X507860Y-48430D01*
X507202Y-48935D01*
X506698Y-49593D01*
X506380Y-50359D01*
X506272Y-51181D01*
X506380Y-52003D01*
X506698Y-52770D01*
X506884Y-53013D01*
X506637Y-53513D01*
X503899D01*
X503729Y-53013D01*
X504215Y-52640D01*
X504720Y-51982D01*
X505037Y-51216D01*
X505145Y-50394D01*
X505037Y-49571D01*
X504720Y-48805D01*
X504217Y-48150D01*
X504133Y-48037D01*
Y-47633D01*
X504217Y-47519D01*
X504720Y-46864D01*
X505037Y-46098D01*
X505145Y-45276D01*
X505037Y-44453D01*
X504720Y-43687D01*
X504217Y-43032D01*
X504133Y-42919D01*
Y-42515D01*
X504217Y-42401D01*
X504720Y-41746D01*
X505037Y-40980D01*
X505145Y-40157D01*
X505037Y-39335D01*
X504720Y-38569D01*
X504407Y-38162D01*
X504261Y-37795D01*
X504407Y-37429D01*
X504720Y-37021D01*
X505037Y-36255D01*
X505145Y-35433D01*
X505037Y-34611D01*
X504720Y-33845D01*
X504407Y-33437D01*
X504261Y-33071D01*
X504407Y-32704D01*
X504720Y-32297D01*
X505037Y-31531D01*
X505145Y-30709D01*
X505037Y-29886D01*
X504720Y-29120D01*
X504407Y-28713D01*
X504261Y-28346D01*
X504407Y-27980D01*
X504720Y-27573D01*
X505037Y-26807D01*
X505145Y-25984D01*
X505037Y-25162D01*
X504720Y-24396D01*
X504215Y-23738D01*
X503557Y-23233D01*
X502791Y-22916D01*
X501968Y-22807D01*
D02*
G37*
G36*
X177756Y-18870D02*
X176934Y-18979D01*
X176168Y-19296D01*
X175510Y-19801D01*
X175005Y-20459D01*
X174687Y-21225D01*
X174579Y-22047D01*
X174687Y-22870D01*
X175005Y-23636D01*
X175510Y-24294D01*
X176168Y-24798D01*
X176934Y-25116D01*
X177756Y-25224D01*
X178578Y-25116D01*
X179344Y-24798D01*
X180002Y-24294D01*
X180507Y-23636D01*
X180824Y-22870D01*
X180933Y-22047D01*
X180824Y-21225D01*
X180507Y-20459D01*
X180002Y-19801D01*
X179344Y-19296D01*
X178578Y-18979D01*
X177756Y-18870D01*
D02*
G37*
G36*
X233858Y12129D02*
X233165Y12038D01*
X232518Y11770D01*
X231963Y11344D01*
X231537Y10789D01*
X231269Y10143D01*
X231178Y9449D01*
X231269Y8755D01*
X231537Y8109D01*
X231963Y7553D01*
X232518Y7128D01*
X233165Y6860D01*
X233351Y6835D01*
X233666Y6289D01*
X233631Y6206D01*
X233540Y5512D01*
X233631Y4818D01*
X233666Y4734D01*
X233351Y4188D01*
X233165Y4164D01*
X232518Y3896D01*
X231963Y3470D01*
X231537Y2915D01*
X231269Y2269D01*
X231178Y1575D01*
X231269Y881D01*
X231537Y235D01*
X231963Y-320D01*
X232518Y-746D01*
X233165Y-1014D01*
X233351Y-1039D01*
X233666Y-1585D01*
X233631Y-1668D01*
X233540Y-2362D01*
X233631Y-3056D01*
X233666Y-3140D01*
X233351Y-3686D01*
X233165Y-3710D01*
X232518Y-3978D01*
X231963Y-4404D01*
X231537Y-4959D01*
X231269Y-5605D01*
X231178Y-6299D01*
X231269Y-6993D01*
X231537Y-7639D01*
X231963Y-8195D01*
X232518Y-8620D01*
X233165Y-8888D01*
X233351Y-8913D01*
X233666Y-9459D01*
X233631Y-9543D01*
X233540Y-10236D01*
X233631Y-10930D01*
X233666Y-11014D01*
X233351Y-11560D01*
X233165Y-11584D01*
X232518Y-11852D01*
X231963Y-12278D01*
X231537Y-12833D01*
X231269Y-13479D01*
X231178Y-14173D01*
X231269Y-14867D01*
X231537Y-15513D01*
X231963Y-16069D01*
X232518Y-16495D01*
X233165Y-16762D01*
X233351Y-16787D01*
X233666Y-17333D01*
X233631Y-17416D01*
X233540Y-18110D01*
X233631Y-18804D01*
X233666Y-18888D01*
X233351Y-19434D01*
X233165Y-19458D01*
X232518Y-19726D01*
X231963Y-20152D01*
X231537Y-20707D01*
X231269Y-21353D01*
X231178Y-22047D01*
X231269Y-22741D01*
X231537Y-23387D01*
X231963Y-23943D01*
X232518Y-24369D01*
X233165Y-24636D01*
X233351Y-24661D01*
X233666Y-25207D01*
X233631Y-25291D01*
X233540Y-25984D01*
X233631Y-26678D01*
X233899Y-27325D01*
X234325Y-27880D01*
X234880Y-28306D01*
X235527Y-28573D01*
X236221Y-28665D01*
X236914Y-28573D01*
X237561Y-28306D01*
X238116Y-27880D01*
X238542Y-27325D01*
X238809Y-26678D01*
X238901Y-25984D01*
X238809Y-25291D01*
X238542Y-24644D01*
X238116Y-24089D01*
X237561Y-23663D01*
X236914Y-23395D01*
X236728Y-23371D01*
X236413Y-22825D01*
X236447Y-22741D01*
X236539Y-22047D01*
X236447Y-21353D01*
X236413Y-21270D01*
X236728Y-20724D01*
X236914Y-20699D01*
X237561Y-20432D01*
X238116Y-20006D01*
X238542Y-19450D01*
X238809Y-18804D01*
X238901Y-18110D01*
X238809Y-17416D01*
X238542Y-16770D01*
X238116Y-16215D01*
X237561Y-15789D01*
X236914Y-15521D01*
X236728Y-15497D01*
X236413Y-14951D01*
X236447Y-14867D01*
X236539Y-14173D01*
X236447Y-13479D01*
X236413Y-13396D01*
X236728Y-12850D01*
X236914Y-12825D01*
X237561Y-12558D01*
X238116Y-12132D01*
X238542Y-11576D01*
X238809Y-10930D01*
X238901Y-10236D01*
X238809Y-9543D01*
X238542Y-8896D01*
X238116Y-8341D01*
X237561Y-7915D01*
X236914Y-7647D01*
X236728Y-7623D01*
X236413Y-7077D01*
X236447Y-6993D01*
X236539Y-6299D01*
X236447Y-5605D01*
X236413Y-5522D01*
X236728Y-4976D01*
X236914Y-4951D01*
X237561Y-4684D01*
X238116Y-4258D01*
X238542Y-3702D01*
X238809Y-3056D01*
X238901Y-2362D01*
X238809Y-1668D01*
X238542Y-1022D01*
X238116Y-467D01*
X237561Y-41D01*
X236914Y227D01*
X236728Y251D01*
X236413Y797D01*
X236447Y881D01*
X236539Y1575D01*
X236447Y2269D01*
X236413Y2352D01*
X236728Y2898D01*
X236914Y2923D01*
X237561Y3190D01*
X238116Y3616D01*
X238542Y4172D01*
X238809Y4818D01*
X238901Y5512D01*
X238809Y6206D01*
X238542Y6852D01*
X238116Y7407D01*
X237561Y7833D01*
X236914Y8101D01*
X236728Y8125D01*
X236413Y8671D01*
X236447Y8755D01*
X236539Y9449D01*
X236447Y10143D01*
X236180Y10789D01*
X235754Y11344D01*
X235198Y11770D01*
X234552Y12038D01*
X233858Y12129D01*
D02*
G37*
G36*
X320079Y-23290D02*
X319349Y-23435D01*
X318730Y-23849D01*
X318317Y-24467D01*
X318255Y-24778D01*
X318110Y-25259D01*
X317381Y-25404D01*
X316762Y-25817D01*
X316349Y-26436D01*
X316203Y-27165D01*
X316349Y-27895D01*
X316762Y-28514D01*
X317381Y-28927D01*
X318110Y-29072D01*
X318840Y-28927D01*
X319459Y-28514D01*
X319872Y-27895D01*
X319934Y-27584D01*
X320079Y-27104D01*
X320808Y-26958D01*
X321427Y-26545D01*
X321840Y-25927D01*
X321985Y-25197D01*
X321840Y-24467D01*
X321427Y-23849D01*
X320808Y-23435D01*
X320079Y-23290D01*
D02*
G37*
G36*
X350000Y-21715D02*
X349270Y-21860D01*
X348652Y-22274D01*
X348238Y-22892D01*
X348093Y-23622D01*
X348238Y-24352D01*
X348652Y-24970D01*
X349270Y-25384D01*
X350000Y-25529D01*
X350730Y-25384D01*
X351348Y-24970D01*
X351762Y-24352D01*
X351907Y-23622D01*
X351762Y-22892D01*
X351348Y-22274D01*
X350730Y-21860D01*
X350000Y-21715D01*
D02*
G37*
G36*
X338189Y-24471D02*
X337459Y-24616D01*
X336841Y-25030D01*
X336498Y-25542D01*
X336315Y-25582D01*
X336126D01*
X335943Y-25542D01*
X335600Y-25030D01*
X334982Y-24616D01*
X334252Y-24471D01*
X333522Y-24616D01*
X332904Y-25030D01*
X332561Y-25542D01*
X332378Y-25582D01*
X332189D01*
X332006Y-25542D01*
X331663Y-25030D01*
X331045Y-24616D01*
X330315Y-24471D01*
X329585Y-24616D01*
X328967Y-25030D01*
X328624Y-25542D01*
X328441Y-25582D01*
X328252D01*
X328069Y-25542D01*
X327726Y-25030D01*
X327108Y-24616D01*
X326378Y-24471D01*
X325648Y-24616D01*
X325030Y-25030D01*
X324616Y-25648D01*
X324471Y-26378D01*
X324616Y-27108D01*
X325030Y-27726D01*
X325648Y-28139D01*
X326378Y-28285D01*
X327108Y-28139D01*
X327726Y-27726D01*
X328069Y-27214D01*
X328252Y-27174D01*
X328441D01*
X328624Y-27214D01*
X328967Y-27726D01*
X329585Y-28139D01*
X330315Y-28285D01*
X331045Y-28139D01*
X331663Y-27726D01*
X332006Y-27214D01*
X332189Y-27174D01*
X332378D01*
X332561Y-27214D01*
X332904Y-27726D01*
X333522Y-28139D01*
X334252Y-28285D01*
X334982Y-28139D01*
X335600Y-27726D01*
X335943Y-27214D01*
X336126Y-27174D01*
X336315D01*
X336498Y-27214D01*
X336841Y-27726D01*
X337459Y-28139D01*
X338189Y-28285D01*
X338919Y-28139D01*
X339537Y-27726D01*
X339951Y-27108D01*
X340096Y-26378D01*
X339951Y-25648D01*
X339537Y-25030D01*
X338919Y-24616D01*
X338189Y-24471D01*
D02*
G37*
G36*
X304331Y-4786D02*
X303601Y-4931D01*
X302982Y-5345D01*
X302569Y-5963D01*
X302424Y-6693D01*
X302569Y-7423D01*
X302982Y-8041D01*
X303601Y-8455D01*
X304331Y-8600D01*
X305060Y-8455D01*
X305679Y-8041D01*
X306092Y-7423D01*
X306237Y-6693D01*
X306092Y-5963D01*
X305679Y-5345D01*
X305060Y-4931D01*
X304331Y-4786D01*
D02*
G37*
G36*
X534646Y-2729D02*
X533823Y-2837D01*
X533057Y-3154D01*
X532399Y-3659D01*
X531894Y-4317D01*
X531577Y-5083D01*
X531469Y-5906D01*
X531577Y-6728D01*
X531894Y-7494D01*
X532399Y-8152D01*
X533057Y-8657D01*
X533823Y-8974D01*
X534646Y-9082D01*
X535468Y-8974D01*
X536234Y-8657D01*
X536892Y-8152D01*
X537397Y-7494D01*
X537714Y-6728D01*
X537822Y-5906D01*
X537714Y-5083D01*
X537397Y-4317D01*
X536892Y-3659D01*
X536234Y-3154D01*
X535468Y-2837D01*
X534646Y-2729D01*
D02*
G37*
G36*
X313386Y-4786D02*
X312656Y-4931D01*
X312038Y-5345D01*
X311915Y-5528D01*
X311314D01*
X311191Y-5345D01*
X310572Y-4931D01*
X309842Y-4786D01*
X309113Y-4931D01*
X308494Y-5345D01*
X308081Y-5963D01*
X307936Y-6693D01*
X308081Y-7423D01*
X308494Y-8041D01*
X309113Y-8455D01*
X309842Y-8600D01*
X310572Y-8455D01*
X311191Y-8041D01*
X311314Y-7858D01*
X311915D01*
X312038Y-8041D01*
X312656Y-8455D01*
X313386Y-8600D01*
X314116Y-8455D01*
X314734Y-8041D01*
X315147Y-7423D01*
X315293Y-6693D01*
X315147Y-5963D01*
X314734Y-5345D01*
X314116Y-4931D01*
X313386Y-4786D01*
D02*
G37*
G36*
X177756Y-760D02*
X176934Y-869D01*
X176168Y-1186D01*
X175510Y-1691D01*
X175005Y-2349D01*
X174687Y-3115D01*
X174579Y-3937D01*
X174687Y-4759D01*
X175005Y-5525D01*
X175510Y-6183D01*
X176168Y-6688D01*
X176934Y-7006D01*
X177756Y-7114D01*
X178578Y-7006D01*
X179344Y-6688D01*
X180002Y-6183D01*
X180507Y-5525D01*
X180824Y-4759D01*
X180933Y-3937D01*
X180824Y-3115D01*
X180507Y-2349D01*
X180002Y-1691D01*
X179344Y-1186D01*
X178578Y-869D01*
X177756Y-760D01*
D02*
G37*
G36*
X526772Y-2729D02*
X525949Y-2837D01*
X525183Y-3154D01*
X524525Y-3659D01*
X524020Y-4317D01*
X523703Y-5083D01*
X523595Y-5906D01*
X523703Y-6728D01*
X524020Y-7494D01*
X524525Y-8152D01*
X525183Y-8657D01*
X525949Y-8974D01*
X526772Y-9082D01*
X527594Y-8974D01*
X528360Y-8657D01*
X529018Y-8152D01*
X529523Y-7494D01*
X529840Y-6728D01*
X529948Y-5906D01*
X529840Y-5083D01*
X529523Y-4317D01*
X529018Y-3659D01*
X528360Y-3154D01*
X527594Y-2837D01*
X526772Y-2729D01*
D02*
G37*
G36*
X503150D02*
X502327Y-2837D01*
X501561Y-3154D01*
X500903Y-3659D01*
X500398Y-4317D01*
X500081Y-5083D01*
X499973Y-5906D01*
X500081Y-6728D01*
X500398Y-7494D01*
X500903Y-8152D01*
X501561Y-8657D01*
X502327Y-8974D01*
X503150Y-9082D01*
X503972Y-8974D01*
X504738Y-8657D01*
X505396Y-8152D01*
X505901Y-7494D01*
X506218Y-6728D01*
X506326Y-5906D01*
X506218Y-5083D01*
X505901Y-4317D01*
X505396Y-3659D01*
X504738Y-3154D01*
X503972Y-2837D01*
X503150Y-2729D01*
D02*
G37*
G36*
X83858D02*
X83036Y-2837D01*
X82270Y-3154D01*
X81612Y-3659D01*
X81107Y-4317D01*
X80790Y-5083D01*
X80682Y-5906D01*
X80790Y-6728D01*
X81107Y-7494D01*
X81612Y-8152D01*
X82270Y-8657D01*
X83036Y-8974D01*
X83858Y-9082D01*
X84680Y-8974D01*
X85447Y-8657D01*
X86105Y-8152D01*
X86609Y-7494D01*
X86927Y-6728D01*
X87035Y-5906D01*
X86927Y-5083D01*
X86609Y-4317D01*
X86105Y-3659D01*
X85447Y-3154D01*
X84680Y-2837D01*
X83858Y-2729D01*
D02*
G37*
G36*
X518898D02*
X518075Y-2837D01*
X517309Y-3154D01*
X516651Y-3659D01*
X516147Y-4317D01*
X515829Y-5083D01*
X515721Y-5906D01*
X515829Y-6728D01*
X516147Y-7494D01*
X516651Y-8152D01*
X517309Y-8657D01*
X518075Y-8974D01*
X518898Y-9082D01*
X519720Y-8974D01*
X520486Y-8657D01*
X521144Y-8152D01*
X521649Y-7494D01*
X521966Y-6728D01*
X522074Y-5906D01*
X521966Y-5083D01*
X521649Y-4317D01*
X521144Y-3659D01*
X520486Y-3154D01*
X519720Y-2837D01*
X518898Y-2729D01*
D02*
G37*
G36*
X511024D02*
X510201Y-2837D01*
X509435Y-3154D01*
X508777Y-3659D01*
X508273Y-4317D01*
X507955Y-5083D01*
X507847Y-5906D01*
X507955Y-6728D01*
X508273Y-7494D01*
X508777Y-8152D01*
X509435Y-8657D01*
X510201Y-8974D01*
X511024Y-9082D01*
X511846Y-8974D01*
X512612Y-8657D01*
X513270Y-8152D01*
X513775Y-7494D01*
X514092Y-6728D01*
X514200Y-5906D01*
X514092Y-5083D01*
X513775Y-4317D01*
X513270Y-3659D01*
X512612Y-3154D01*
X511846Y-2837D01*
X511024Y-2729D01*
D02*
G37*
G36*
X411417Y1996D02*
X410595Y1887D01*
X409829Y1570D01*
X409171Y1065D01*
X408666Y407D01*
X408349Y-359D01*
X408241Y-1181D01*
X408349Y-2003D01*
X408666Y-2770D01*
X409171Y-3427D01*
X409829Y-3932D01*
X410595Y-4250D01*
X411417Y-4358D01*
X412240Y-4250D01*
X413006Y-3932D01*
X413664Y-3427D01*
X414169Y-2770D01*
X414486Y-2003D01*
X414594Y-1181D01*
X414486Y-359D01*
X414169Y407D01*
X413664Y1065D01*
X413006Y1570D01*
X412240Y1887D01*
X411417Y1996D01*
D02*
G37*
G36*
X403543D02*
X402721Y1887D01*
X401955Y1570D01*
X401297Y1065D01*
X400792Y407D01*
X400475Y-359D01*
X400366Y-1181D01*
X400475Y-2003D01*
X400792Y-2770D01*
X401297Y-3427D01*
X401955Y-3932D01*
X402721Y-4250D01*
X403543Y-4358D01*
X404365Y-4250D01*
X405132Y-3932D01*
X405790Y-3427D01*
X406294Y-2770D01*
X406612Y-2003D01*
X406720Y-1181D01*
X406612Y-359D01*
X406294Y407D01*
X405790Y1065D01*
X405132Y1570D01*
X404365Y1887D01*
X403543Y1996D01*
D02*
G37*
G36*
X427165D02*
X426343Y1887D01*
X425577Y1570D01*
X424919Y1065D01*
X424414Y407D01*
X424097Y-359D01*
X423989Y-1181D01*
X424097Y-2003D01*
X424414Y-2770D01*
X424919Y-3427D01*
X425577Y-3932D01*
X426343Y-4250D01*
X427165Y-4358D01*
X427988Y-4250D01*
X428754Y-3932D01*
X429412Y-3427D01*
X429916Y-2770D01*
X430234Y-2003D01*
X430342Y-1181D01*
X430234Y-359D01*
X429916Y407D01*
X429412Y1065D01*
X428754Y1570D01*
X427988Y1887D01*
X427165Y1996D01*
D02*
G37*
G36*
X419291D02*
X418469Y1887D01*
X417703Y1570D01*
X417045Y1065D01*
X416540Y407D01*
X416223Y-359D01*
X416115Y-1181D01*
X416223Y-2003D01*
X416540Y-2770D01*
X417045Y-3427D01*
X417703Y-3932D01*
X418469Y-4250D01*
X419291Y-4358D01*
X420114Y-4250D01*
X420880Y-3932D01*
X421538Y-3427D01*
X422043Y-2770D01*
X422360Y-2003D01*
X422468Y-1181D01*
X422360Y-359D01*
X422043Y407D01*
X421538Y1065D01*
X420880Y1570D01*
X420114Y1887D01*
X419291Y1996D01*
D02*
G37*
G36*
X395669D02*
X394847Y1887D01*
X394081Y1570D01*
X393423Y1065D01*
X392918Y407D01*
X392601Y-359D01*
X392493Y-1181D01*
X392601Y-2003D01*
X392918Y-2770D01*
X393423Y-3427D01*
X394081Y-3932D01*
X394847Y-4250D01*
X395669Y-4358D01*
X396492Y-4250D01*
X397258Y-3932D01*
X397916Y-3427D01*
X398421Y-2770D01*
X398738Y-2003D01*
X398846Y-1181D01*
X398738Y-359D01*
X398421Y407D01*
X397916Y1065D01*
X397258Y1570D01*
X396492Y1887D01*
X395669Y1996D01*
D02*
G37*
G36*
X372047D02*
X371225Y1887D01*
X370459Y1570D01*
X369801Y1065D01*
X369296Y407D01*
X368979Y-359D01*
X368870Y-1181D01*
X368979Y-2003D01*
X369296Y-2770D01*
X369801Y-3427D01*
X370459Y-3932D01*
X371225Y-4250D01*
X372047Y-4358D01*
X372869Y-4250D01*
X373636Y-3932D01*
X374294Y-3427D01*
X374798Y-2770D01*
X375116Y-2003D01*
X375224Y-1181D01*
X375116Y-359D01*
X374798Y407D01*
X374294Y1065D01*
X373636Y1570D01*
X372869Y1887D01*
X372047Y1996D01*
D02*
G37*
G36*
X295276Y-1243D02*
X294546Y-1388D01*
X293927Y-1801D01*
X293514Y-2420D01*
X293369Y-3150D01*
X293514Y-3879D01*
X293927Y-4498D01*
X294546Y-4911D01*
X295276Y-5056D01*
X296005Y-4911D01*
X296624Y-4498D01*
X297037Y-3879D01*
X297182Y-3150D01*
X297037Y-2420D01*
X296624Y-1801D01*
X296005Y-1388D01*
X295276Y-1243D01*
D02*
G37*
G36*
X387795Y1996D02*
X386973Y1887D01*
X386207Y1570D01*
X385549Y1065D01*
X385044Y407D01*
X384727Y-359D01*
X384618Y-1181D01*
X384727Y-2003D01*
X385044Y-2770D01*
X385549Y-3427D01*
X386207Y-3932D01*
X386973Y-4250D01*
X387795Y-4358D01*
X388617Y-4250D01*
X389384Y-3932D01*
X390042Y-3427D01*
X390546Y-2770D01*
X390864Y-2003D01*
X390972Y-1181D01*
X390864Y-359D01*
X390546Y407D01*
X390042Y1065D01*
X389384Y1570D01*
X388617Y1887D01*
X387795Y1996D01*
D02*
G37*
G36*
X379921D02*
X379099Y1887D01*
X378333Y1570D01*
X377675Y1065D01*
X377170Y407D01*
X376853Y-359D01*
X376745Y-1181D01*
X376853Y-2003D01*
X377170Y-2770D01*
X377675Y-3427D01*
X378333Y-3932D01*
X379099Y-4250D01*
X379921Y-4358D01*
X380744Y-4250D01*
X381510Y-3932D01*
X382168Y-3427D01*
X382672Y-2770D01*
X382990Y-2003D01*
X383098Y-1181D01*
X382990Y-359D01*
X382672Y407D01*
X382168Y1065D01*
X381510Y1570D01*
X380744Y1887D01*
X379921Y1996D01*
D02*
G37*
G36*
X387795Y-5878D02*
X386973Y-5987D01*
X386207Y-6304D01*
X385549Y-6809D01*
X385044Y-7467D01*
X384727Y-8233D01*
X384618Y-9055D01*
X384727Y-9877D01*
X385044Y-10644D01*
X385549Y-11301D01*
X386207Y-11806D01*
X386973Y-12124D01*
X387795Y-12232D01*
X388617Y-12124D01*
X389384Y-11806D01*
X390042Y-11301D01*
X390546Y-10644D01*
X390864Y-9877D01*
X390972Y-9055D01*
X390864Y-8233D01*
X390546Y-7467D01*
X390042Y-6809D01*
X389384Y-6304D01*
X388617Y-5987D01*
X387795Y-5878D01*
D02*
G37*
G36*
X379921D02*
X379099Y-5987D01*
X378333Y-6304D01*
X377675Y-6809D01*
X377170Y-7467D01*
X376853Y-8233D01*
X376745Y-9055D01*
X376853Y-9877D01*
X377170Y-10644D01*
X377675Y-11301D01*
X378333Y-11806D01*
X379099Y-12124D01*
X379921Y-12232D01*
X380744Y-12124D01*
X381510Y-11806D01*
X382168Y-11301D01*
X382672Y-10644D01*
X382990Y-9877D01*
X383098Y-9055D01*
X382990Y-8233D01*
X382672Y-7467D01*
X382168Y-6809D01*
X381510Y-6304D01*
X380744Y-5987D01*
X379921Y-5878D01*
D02*
G37*
G36*
X403543D02*
X402721Y-5987D01*
X401955Y-6304D01*
X401297Y-6809D01*
X400792Y-7467D01*
X400475Y-8233D01*
X400366Y-9055D01*
X400475Y-9877D01*
X400792Y-10644D01*
X401297Y-11301D01*
X401955Y-11806D01*
X402721Y-12124D01*
X403543Y-12232D01*
X404365Y-12124D01*
X405132Y-11806D01*
X405790Y-11301D01*
X406294Y-10644D01*
X406612Y-9877D01*
X406720Y-9055D01*
X406612Y-8233D01*
X406294Y-7467D01*
X405790Y-6809D01*
X405132Y-6304D01*
X404365Y-5987D01*
X403543Y-5878D01*
D02*
G37*
G36*
X395669D02*
X394847Y-5987D01*
X394081Y-6304D01*
X393423Y-6809D01*
X392918Y-7467D01*
X392601Y-8233D01*
X392493Y-9055D01*
X392601Y-9877D01*
X392918Y-10644D01*
X393423Y-11301D01*
X394081Y-11806D01*
X394847Y-12124D01*
X395669Y-12232D01*
X396492Y-12124D01*
X397258Y-11806D01*
X397916Y-11301D01*
X398421Y-10644D01*
X398738Y-9877D01*
X398846Y-9055D01*
X398738Y-8233D01*
X398421Y-7467D01*
X397916Y-6809D01*
X397258Y-6304D01*
X396492Y-5987D01*
X395669Y-5878D01*
D02*
G37*
G36*
X372047D02*
X371225Y-5987D01*
X370459Y-6304D01*
X369801Y-6809D01*
X369296Y-7467D01*
X368979Y-8233D01*
X368870Y-9055D01*
X368979Y-9877D01*
X369296Y-10644D01*
X369801Y-11301D01*
X370459Y-11806D01*
X371225Y-12124D01*
X372047Y-12232D01*
X372869Y-12124D01*
X373636Y-11806D01*
X374294Y-11301D01*
X374798Y-10644D01*
X375116Y-9877D01*
X375224Y-9055D01*
X375116Y-8233D01*
X374798Y-7467D01*
X374294Y-6809D01*
X373636Y-6304D01*
X372869Y-5987D01*
X372047Y-5878D01*
D02*
G37*
G36*
X193701Y-7949D02*
X193007Y-8041D01*
X192361Y-8309D01*
X191806Y-8735D01*
X191379Y-9290D01*
X191112Y-9936D01*
X191020Y-10630D01*
X191112Y-11324D01*
X191379Y-11970D01*
X191806Y-12525D01*
X192361Y-12951D01*
X193007Y-13219D01*
X193701Y-13310D01*
X194395Y-13219D01*
X195041Y-12951D01*
X195596Y-12525D01*
X196022Y-11970D01*
X196290Y-11324D01*
X196381Y-10630D01*
X196290Y-9936D01*
X196022Y-9290D01*
X195596Y-8735D01*
X195041Y-8309D01*
X194395Y-8041D01*
X193701Y-7949D01*
D02*
G37*
G36*
X333465Y-8723D02*
X332735Y-8868D01*
X332116Y-9282D01*
X331703Y-9900D01*
X331558Y-10630D01*
X331703Y-11360D01*
X332116Y-11978D01*
Y-12431D01*
X331703Y-13050D01*
X331558Y-13780D01*
X331703Y-14509D01*
X331926Y-14843D01*
X331843Y-15501D01*
X331723Y-15581D01*
X331309Y-16199D01*
X331164Y-16929D01*
X331309Y-17659D01*
X331723Y-18277D01*
X332341Y-18691D01*
X333071Y-18836D01*
X333801Y-18691D01*
X334419Y-18277D01*
X334832Y-17659D01*
X334978Y-16929D01*
X334832Y-16199D01*
X334609Y-15865D01*
X334693Y-15208D01*
X334813Y-15128D01*
X335226Y-14509D01*
X335371Y-13780D01*
X335226Y-13050D01*
X334813Y-12431D01*
Y-11978D01*
X335226Y-11360D01*
X335371Y-10630D01*
X335226Y-9900D01*
X334813Y-9282D01*
X334194Y-8868D01*
X333465Y-8723D01*
D02*
G37*
G36*
X486221Y-6666D02*
X485398Y-6774D01*
X484632Y-7091D01*
X483974Y-7596D01*
X483469Y-8254D01*
X483152Y-9020D01*
X483044Y-9843D01*
X483152Y-10665D01*
X483469Y-11431D01*
X483974Y-12089D01*
X484632Y-12594D01*
X485398Y-12911D01*
X486221Y-13019D01*
X487043Y-12911D01*
X487809Y-12594D01*
X488467Y-12089D01*
X488972Y-11431D01*
X489289Y-10665D01*
X489397Y-9843D01*
X489289Y-9020D01*
X488972Y-8254D01*
X488467Y-7596D01*
X487809Y-7091D01*
X487043Y-6774D01*
X486221Y-6666D01*
D02*
G37*
G36*
X478346D02*
X477524Y-6774D01*
X476758Y-7091D01*
X476100Y-7596D01*
X475595Y-8254D01*
X475278Y-9020D01*
X475170Y-9843D01*
X475278Y-10665D01*
X475595Y-11431D01*
X476100Y-12089D01*
X476758Y-12594D01*
X477524Y-12911D01*
X478346Y-13019D01*
X479169Y-12911D01*
X479935Y-12594D01*
X480593Y-12089D01*
X481098Y-11431D01*
X481415Y-10665D01*
X481523Y-9843D01*
X481415Y-9020D01*
X481098Y-8254D01*
X480593Y-7596D01*
X479935Y-7091D01*
X479169Y-6774D01*
X478346Y-6666D01*
D02*
G37*
G36*
X295276Y-7542D02*
X294546Y-7687D01*
X293927Y-8101D01*
X293514Y-8719D01*
X293369Y-9449D01*
X293514Y-10178D01*
X293927Y-10797D01*
X294546Y-11210D01*
X295276Y-11355D01*
X296005Y-11210D01*
X296624Y-10797D01*
X297037Y-10178D01*
X297182Y-9449D01*
X297037Y-8719D01*
X296624Y-8101D01*
X296005Y-7687D01*
X295276Y-7542D01*
D02*
G37*
G36*
X450787Y-5878D02*
X449965Y-5987D01*
X449199Y-6304D01*
X448541Y-6809D01*
X448036Y-7467D01*
X447719Y-8233D01*
X447611Y-9055D01*
X447719Y-9877D01*
X448036Y-10644D01*
X448541Y-11301D01*
X449199Y-11806D01*
X449965Y-12124D01*
X450787Y-12232D01*
X451610Y-12124D01*
X452376Y-11806D01*
X453034Y-11301D01*
X453539Y-10644D01*
X453856Y-9877D01*
X453964Y-9055D01*
X453856Y-8233D01*
X453539Y-7467D01*
X453034Y-6809D01*
X452376Y-6304D01*
X451610Y-5987D01*
X450787Y-5878D01*
D02*
G37*
G36*
X494095Y30736D02*
X493272Y30628D01*
X492506Y30310D01*
X491848Y29805D01*
X491343Y29147D01*
X491026Y28381D01*
X490918Y27559D01*
X491026Y26737D01*
X491343Y25971D01*
X491848Y25313D01*
X492389Y24897D01*
X492434Y24711D01*
Y24502D01*
X492389Y24315D01*
X491848Y23900D01*
X491343Y23242D01*
X491026Y22476D01*
X490918Y21654D01*
X491026Y20831D01*
X491343Y20065D01*
X491848Y19407D01*
X492389Y18992D01*
X492434Y18805D01*
Y18597D01*
X492389Y18410D01*
X491848Y17994D01*
X491343Y17336D01*
X491026Y16570D01*
X490918Y15748D01*
X491026Y14926D01*
X491343Y14160D01*
X491848Y13502D01*
X492389Y13086D01*
X492434Y12900D01*
Y12691D01*
X492389Y12504D01*
X491848Y12089D01*
X491343Y11431D01*
X491026Y10665D01*
X490918Y9843D01*
X491026Y9020D01*
X491343Y8254D01*
X491848Y7596D01*
X492389Y7181D01*
X492434Y6994D01*
Y6786D01*
X492389Y6599D01*
X491848Y6183D01*
X491343Y5525D01*
X491026Y4759D01*
X490918Y3937D01*
X491026Y3115D01*
X491343Y2349D01*
X491848Y1691D01*
X492389Y1276D01*
X492434Y1089D01*
Y880D01*
X492389Y693D01*
X491848Y278D01*
X491343Y-380D01*
X491026Y-1146D01*
X490918Y-1969D01*
X491026Y-2791D01*
X491343Y-3557D01*
X491848Y-4215D01*
X492389Y-4630D01*
X492434Y-4817D01*
Y-5026D01*
X492389Y-5212D01*
X491848Y-5628D01*
X491343Y-6286D01*
X491026Y-7052D01*
X490918Y-7874D01*
X491026Y-8696D01*
X491343Y-9462D01*
X491848Y-10120D01*
X492506Y-10625D01*
X493272Y-10943D01*
X494095Y-11051D01*
X494917Y-10943D01*
X495683Y-10625D01*
X496341Y-10120D01*
X496846Y-9462D01*
X497163Y-8696D01*
X497271Y-7874D01*
X497163Y-7052D01*
X496846Y-6286D01*
X496341Y-5628D01*
X495800Y-5212D01*
X495755Y-5026D01*
Y-4817D01*
X495800Y-4630D01*
X496341Y-4215D01*
X496846Y-3557D01*
X497163Y-2791D01*
X497271Y-1969D01*
X497163Y-1146D01*
X496846Y-380D01*
X496341Y278D01*
X495800Y693D01*
X495755Y880D01*
Y1089D01*
X495800Y1276D01*
X496341Y1691D01*
X496846Y2349D01*
X497163Y3115D01*
X497271Y3937D01*
X497163Y4759D01*
X496846Y5525D01*
X496341Y6183D01*
X495800Y6599D01*
X495755Y6786D01*
Y6994D01*
X495800Y7181D01*
X496341Y7596D01*
X496846Y8254D01*
X497163Y9020D01*
X497271Y9843D01*
X497163Y10665D01*
X496846Y11431D01*
X496341Y12089D01*
X495800Y12504D01*
X495755Y12691D01*
Y12900D01*
X495800Y13086D01*
X496341Y13502D01*
X496846Y14160D01*
X497163Y14926D01*
X497271Y15748D01*
X497163Y16570D01*
X496846Y17336D01*
X496341Y17994D01*
X495800Y18410D01*
X495755Y18597D01*
Y18805D01*
X495800Y18992D01*
X496341Y19407D01*
X496846Y20065D01*
X497163Y20831D01*
X497271Y21654D01*
X497163Y22476D01*
X496846Y23242D01*
X496341Y23900D01*
X495800Y24315D01*
X495755Y24502D01*
Y24711D01*
X495800Y24897D01*
X496341Y25313D01*
X496846Y25971D01*
X497163Y26737D01*
X497271Y27559D01*
X497163Y28381D01*
X496846Y29147D01*
X496341Y29805D01*
X495683Y30310D01*
X494917Y30628D01*
X494095Y30736D01*
D02*
G37*
G36*
X127165Y-4697D02*
X126343Y-4806D01*
X125577Y-5123D01*
X124919Y-5628D01*
X124414Y-6286D01*
X124097Y-7052D01*
X123989Y-7874D01*
X124097Y-8696D01*
X124414Y-9462D01*
X124919Y-10120D01*
X125577Y-10625D01*
X126343Y-10943D01*
X127165Y-11051D01*
X127988Y-10943D01*
X128754Y-10625D01*
X129412Y-10120D01*
X129917Y-9462D01*
X130234Y-8696D01*
X130342Y-7874D01*
X130234Y-7052D01*
X129917Y-6286D01*
X129412Y-5628D01*
X128754Y-5123D01*
X127988Y-4806D01*
X127165Y-4697D01*
D02*
G37*
G36*
X442913Y-5878D02*
X442091Y-5987D01*
X441325Y-6304D01*
X440667Y-6809D01*
X440162Y-7467D01*
X439845Y-8233D01*
X439737Y-9055D01*
X439845Y-9877D01*
X440162Y-10644D01*
X440667Y-11301D01*
X441325Y-11806D01*
X442091Y-12124D01*
X442913Y-12232D01*
X443736Y-12124D01*
X444502Y-11806D01*
X445160Y-11301D01*
X445665Y-10644D01*
X445982Y-9877D01*
X446090Y-9055D01*
X445982Y-8233D01*
X445665Y-7467D01*
X445160Y-6809D01*
X444502Y-6304D01*
X443736Y-5987D01*
X442913Y-5878D01*
D02*
G37*
G36*
X419291D02*
X418469Y-5987D01*
X417703Y-6304D01*
X417045Y-6809D01*
X416540Y-7467D01*
X416223Y-8233D01*
X416115Y-9055D01*
X416223Y-9877D01*
X416540Y-10644D01*
X417045Y-11301D01*
X417703Y-11806D01*
X418469Y-12124D01*
X419291Y-12232D01*
X420114Y-12124D01*
X420880Y-11806D01*
X421538Y-11301D01*
X422043Y-10644D01*
X422360Y-9877D01*
X422468Y-9055D01*
X422360Y-8233D01*
X422043Y-7467D01*
X421538Y-6809D01*
X420880Y-6304D01*
X420114Y-5987D01*
X419291Y-5878D01*
D02*
G37*
G36*
X411417D02*
X410595Y-5987D01*
X409829Y-6304D01*
X409171Y-6809D01*
X408666Y-7467D01*
X408349Y-8233D01*
X408241Y-9055D01*
X408349Y-9877D01*
X408666Y-10644D01*
X409171Y-11301D01*
X409829Y-11806D01*
X410595Y-12124D01*
X411417Y-12232D01*
X412240Y-12124D01*
X413006Y-11806D01*
X413664Y-11301D01*
X414169Y-10644D01*
X414486Y-9877D01*
X414594Y-9055D01*
X414486Y-8233D01*
X414169Y-7467D01*
X413664Y-6809D01*
X413006Y-6304D01*
X412240Y-5987D01*
X411417Y-5878D01*
D02*
G37*
G36*
X435039D02*
X434217Y-5987D01*
X433451Y-6304D01*
X432793Y-6809D01*
X432288Y-7467D01*
X431971Y-8233D01*
X431863Y-9055D01*
X431971Y-9877D01*
X432288Y-10644D01*
X432793Y-11301D01*
X433451Y-11806D01*
X434217Y-12124D01*
X435039Y-12232D01*
X435862Y-12124D01*
X436628Y-11806D01*
X437286Y-11301D01*
X437790Y-10644D01*
X438108Y-9877D01*
X438216Y-9055D01*
X438108Y-8233D01*
X437790Y-7467D01*
X437286Y-6809D01*
X436628Y-6304D01*
X435862Y-5987D01*
X435039Y-5878D01*
D02*
G37*
G36*
X427165D02*
X426343Y-5987D01*
X425577Y-6304D01*
X424919Y-6809D01*
X424414Y-7467D01*
X424097Y-8233D01*
X423989Y-9055D01*
X424097Y-9877D01*
X424414Y-10644D01*
X424919Y-11301D01*
X425577Y-11806D01*
X426343Y-12124D01*
X427165Y-12232D01*
X427988Y-12124D01*
X428754Y-11806D01*
X429412Y-11301D01*
X429916Y-10644D01*
X430234Y-9877D01*
X430342Y-9055D01*
X430234Y-8233D01*
X429916Y-7467D01*
X429412Y-6809D01*
X428754Y-6304D01*
X427988Y-5987D01*
X427165Y-5878D01*
D02*
G37*
G36*
X124803Y-31075D02*
X123981Y-31183D01*
X123215Y-31501D01*
X122557Y-32006D01*
X122052Y-32664D01*
X121735Y-33430D01*
X121626Y-34252D01*
X121735Y-35074D01*
X122052Y-35840D01*
X122557Y-36498D01*
X123215Y-37003D01*
X123981Y-37321D01*
X124803Y-37429D01*
X125625Y-37321D01*
X126391Y-37003D01*
X127050Y-36498D01*
X127554Y-35840D01*
X127872Y-35074D01*
X127980Y-34252D01*
X127872Y-33430D01*
X127554Y-32664D01*
X127050Y-32006D01*
X126391Y-31501D01*
X125625Y-31183D01*
X124803Y-31075D01*
D02*
G37*
G36*
X482283Y-83437D02*
X481461Y-83546D01*
X480695Y-83863D01*
X480315Y-84155D01*
X479935Y-83863D01*
X479169Y-83546D01*
X478346Y-83437D01*
X477524Y-83546D01*
X476758Y-83863D01*
X476378Y-84155D01*
X475998Y-83863D01*
X475232Y-83546D01*
X474409Y-83437D01*
X473587Y-83546D01*
X472821Y-83863D01*
X472163Y-84368D01*
X471658Y-85026D01*
X471341Y-85792D01*
X471233Y-86614D01*
X471341Y-87436D01*
X471658Y-88203D01*
X472163Y-88860D01*
X472821Y-89365D01*
X473587Y-89683D01*
X474409Y-89791D01*
X475232Y-89683D01*
X475998Y-89365D01*
X476378Y-89074D01*
X476758Y-89365D01*
X477524Y-89683D01*
X478346Y-89791D01*
X479169Y-89683D01*
X479935Y-89365D01*
X480315Y-89074D01*
X480695Y-89365D01*
X481461Y-89683D01*
X482283Y-89791D01*
X483106Y-89683D01*
X483872Y-89365D01*
X484530Y-88860D01*
X485035Y-88203D01*
X485352Y-87436D01*
X485460Y-86614D01*
X485352Y-85792D01*
X485035Y-85026D01*
X484530Y-84368D01*
X483872Y-83863D01*
X483106Y-83546D01*
X482283Y-83437D01*
D02*
G37*
G36*
X193701Y-80391D02*
X193007Y-80482D01*
X192361Y-80750D01*
X191806Y-81176D01*
X191379Y-81731D01*
X191112Y-82377D01*
X191020Y-83071D01*
X191112Y-83765D01*
X191379Y-84411D01*
X191806Y-84966D01*
X192361Y-85392D01*
X193007Y-85660D01*
X193701Y-85751D01*
X194395Y-85660D01*
X195041Y-85392D01*
X195596Y-84966D01*
X196022Y-84411D01*
X196290Y-83765D01*
X196381Y-83071D01*
X196290Y-82377D01*
X196022Y-81731D01*
X195596Y-81176D01*
X195041Y-80750D01*
X194395Y-80482D01*
X193701Y-80391D01*
D02*
G37*
G36*
X177756Y-73201D02*
X176934Y-73309D01*
X176168Y-73627D01*
X175510Y-74132D01*
X175005Y-74790D01*
X174687Y-75556D01*
X174579Y-76378D01*
X174687Y-77200D01*
X175005Y-77966D01*
X175510Y-78624D01*
X176168Y-79129D01*
X176934Y-79447D01*
X177756Y-79555D01*
X178578Y-79447D01*
X179344Y-79129D01*
X180002Y-78624D01*
X180507Y-77966D01*
X180824Y-77200D01*
X180933Y-76378D01*
X180824Y-75556D01*
X180507Y-74790D01*
X180002Y-74132D01*
X179344Y-73627D01*
X178578Y-73309D01*
X177756Y-73201D01*
D02*
G37*
G36*
X127165Y-77138D02*
X126343Y-77246D01*
X125577Y-77564D01*
X124919Y-78069D01*
X124414Y-78727D01*
X124097Y-79493D01*
X123989Y-80315D01*
X124097Y-81137D01*
X124414Y-81903D01*
X124919Y-82561D01*
X125577Y-83066D01*
X126343Y-83384D01*
X127165Y-83492D01*
X127988Y-83384D01*
X128754Y-83066D01*
X129412Y-82561D01*
X129917Y-81903D01*
X130234Y-81137D01*
X130342Y-80315D01*
X130234Y-79493D01*
X129917Y-78727D01*
X129412Y-78069D01*
X128754Y-77564D01*
X127988Y-77246D01*
X127165Y-77138D01*
D02*
G37*
G36*
X224410Y-82739D02*
X223680Y-82884D01*
X223061Y-83297D01*
X222648Y-83916D01*
X222503Y-84646D01*
X222648Y-85375D01*
X223061Y-85994D01*
X223680Y-86407D01*
X224410Y-86552D01*
X225139Y-86407D01*
X225758Y-85994D01*
X226171Y-85375D01*
X226316Y-84646D01*
X226171Y-83916D01*
X225758Y-83297D01*
X225139Y-82884D01*
X224410Y-82739D01*
D02*
G37*
G36*
X344094Y-85495D02*
X343365Y-85640D01*
X342746Y-86053D01*
X342333Y-86672D01*
X342188Y-87402D01*
X342333Y-88131D01*
X342746Y-88750D01*
X343365Y-89163D01*
X344094Y-89308D01*
X344824Y-89163D01*
X345443Y-88750D01*
X345856Y-88131D01*
X346001Y-87402D01*
X345856Y-86672D01*
X345443Y-86053D01*
X344824Y-85640D01*
X344094Y-85495D01*
D02*
G37*
G36*
X354331Y-82636D02*
X353097Y-82799D01*
X351948Y-83275D01*
X350961Y-84032D01*
X350204Y-85019D01*
X349728Y-86168D01*
X349566Y-87402D01*
X349728Y-88635D01*
X350204Y-89784D01*
X350961Y-90771D01*
X351948Y-91528D01*
X353097Y-92004D01*
X354331Y-92167D01*
X355564Y-92004D01*
X356713Y-91528D01*
X357700Y-90771D01*
X358457Y-89784D01*
X358933Y-88635D01*
X359096Y-87402D01*
X358933Y-86168D01*
X358457Y-85019D01*
X357700Y-84032D01*
X356713Y-83275D01*
X355564Y-82799D01*
X354331Y-82636D01*
D02*
G37*
G36*
X240551Y-86676D02*
X239822Y-86821D01*
X239203Y-87234D01*
X238750D01*
X238131Y-86821D01*
X237402Y-86676D01*
X236672Y-86821D01*
X236053Y-87234D01*
X235640Y-87853D01*
X235495Y-88583D01*
X235640Y-89312D01*
X236053Y-89931D01*
X236672Y-90344D01*
X237402Y-90489D01*
X238131Y-90344D01*
X238750Y-89931D01*
X239203D01*
X239822Y-90344D01*
X240551Y-90489D01*
X241281Y-90344D01*
X241899Y-89931D01*
X242313Y-89312D01*
X242458Y-88583D01*
X242313Y-87853D01*
X241899Y-87234D01*
X241281Y-86821D01*
X240551Y-86676D01*
D02*
G37*
G36*
X335039Y-83920D02*
X334310Y-84065D01*
X333691Y-84478D01*
X333278Y-85097D01*
X333133Y-85827D01*
X333278Y-86556D01*
X333691Y-87175D01*
X334310Y-87588D01*
X335039Y-87734D01*
X335769Y-87588D01*
X336388Y-87175D01*
X336801Y-86556D01*
X336946Y-85827D01*
X336801Y-85097D01*
X336388Y-84478D01*
X335769Y-84065D01*
X335039Y-83920D01*
D02*
G37*
G36*
X231890Y-63841D02*
X231160Y-63986D01*
X230541Y-64400D01*
X230088D01*
X229470Y-63986D01*
X228740Y-63841D01*
X228011Y-63986D01*
X227392Y-64400D01*
X226979Y-65018D01*
X226833Y-65748D01*
X226979Y-66478D01*
X227392Y-67096D01*
X228011Y-67510D01*
X228740Y-67655D01*
X229470Y-67510D01*
X230088Y-67096D01*
X230541D01*
X231160Y-67510D01*
X231890Y-67655D01*
X232619Y-67510D01*
X233238Y-67096D01*
X233651Y-66478D01*
X233797Y-65748D01*
X233651Y-65018D01*
X233238Y-64400D01*
X232619Y-63986D01*
X231890Y-63841D01*
D02*
G37*
G36*
X127165Y-59028D02*
X126343Y-59136D01*
X125577Y-59454D01*
X124919Y-59958D01*
X124414Y-60616D01*
X124097Y-61383D01*
X123989Y-62205D01*
X124097Y-63027D01*
X124414Y-63793D01*
X124919Y-64451D01*
X125577Y-64956D01*
X126343Y-65273D01*
X127165Y-65381D01*
X127988Y-65273D01*
X128754Y-64956D01*
X129412Y-64451D01*
X129917Y-63793D01*
X130234Y-63027D01*
X130342Y-62205D01*
X130234Y-61383D01*
X129917Y-60616D01*
X129412Y-59958D01*
X128754Y-59454D01*
X127988Y-59136D01*
X127165Y-59028D01*
D02*
G37*
G36*
X352362Y-55587D02*
X351669Y-55679D01*
X351022Y-55946D01*
X350467Y-56372D01*
X350041Y-56928D01*
X349773Y-57574D01*
X349682Y-58268D01*
X349773Y-58961D01*
X350041Y-59608D01*
X350467Y-60163D01*
X351022Y-60589D01*
X351669Y-60857D01*
X352362Y-60948D01*
X353056Y-60857D01*
X353702Y-60589D01*
X354257Y-60163D01*
X354683Y-59608D01*
X354951Y-58961D01*
X355043Y-58268D01*
X354951Y-57574D01*
X354683Y-56928D01*
X354257Y-56372D01*
X353702Y-55946D01*
X353056Y-55679D01*
X352362Y-55587D01*
D02*
G37*
G36*
X177756Y-55091D02*
X176934Y-55199D01*
X176168Y-55516D01*
X175510Y-56021D01*
X175005Y-56679D01*
X174687Y-57446D01*
X174579Y-58268D01*
X174687Y-59090D01*
X175005Y-59856D01*
X175510Y-60514D01*
X176168Y-61019D01*
X176934Y-61336D01*
X177756Y-61444D01*
X178578Y-61336D01*
X179344Y-61019D01*
X180002Y-60514D01*
X180507Y-59856D01*
X180824Y-59090D01*
X180933Y-58268D01*
X180824Y-57446D01*
X180507Y-56679D01*
X180002Y-56021D01*
X179344Y-55516D01*
X178578Y-55199D01*
X177756Y-55091D01*
D02*
G37*
G36*
X352362Y-63448D02*
X351632Y-63593D01*
X351014Y-64006D01*
X350601Y-64625D01*
X350455Y-65354D01*
X350601Y-66084D01*
X351014Y-66703D01*
X351632Y-67116D01*
X352362Y-67261D01*
X353092Y-67116D01*
X353710Y-66703D01*
X354124Y-66084D01*
X354269Y-65354D01*
X354124Y-64625D01*
X353710Y-64006D01*
X353092Y-63593D01*
X352362Y-63448D01*
D02*
G37*
G36*
X339764Y-72503D02*
X339034Y-72648D01*
X338416Y-73061D01*
X338002Y-73680D01*
X337857Y-74410D01*
X338002Y-75139D01*
X338416Y-75758D01*
X339034Y-76171D01*
X339764Y-76316D01*
X340493Y-76171D01*
X341112Y-75758D01*
X341525Y-75139D01*
X341670Y-74410D01*
X341525Y-73680D01*
X341112Y-73061D01*
X340493Y-72648D01*
X339764Y-72503D01*
D02*
G37*
G36*
X230315Y-74865D02*
X229585Y-75010D01*
X228967Y-75423D01*
X228553Y-76042D01*
X228408Y-76772D01*
X228553Y-77501D01*
X228967Y-78120D01*
X229585Y-78533D01*
X230315Y-78678D01*
X231045Y-78533D01*
X231663Y-78120D01*
X232077Y-77501D01*
X232222Y-76772D01*
X232077Y-76042D01*
X231663Y-75423D01*
X231045Y-75010D01*
X230315Y-74865D01*
D02*
G37*
G36*
X193701Y-62280D02*
X193007Y-62372D01*
X192361Y-62639D01*
X191806Y-63065D01*
X191379Y-63620D01*
X191112Y-64267D01*
X191020Y-64961D01*
X191112Y-65654D01*
X191379Y-66301D01*
X191806Y-66856D01*
X192361Y-67282D01*
X193007Y-67550D01*
X193701Y-67641D01*
X194395Y-67550D01*
X195041Y-67282D01*
X195596Y-66856D01*
X196022Y-66301D01*
X196290Y-65654D01*
X196381Y-64961D01*
X196290Y-64267D01*
X196022Y-63620D01*
X195596Y-63065D01*
X195041Y-62639D01*
X194395Y-62372D01*
X193701Y-62280D01*
D02*
G37*
G36*
X124803Y-67296D02*
X123981Y-67404D01*
X123215Y-67721D01*
X122557Y-68226D01*
X122052Y-68884D01*
X121735Y-69650D01*
X121626Y-70472D01*
X121735Y-71295D01*
X122052Y-72061D01*
X122557Y-72719D01*
X123215Y-73224D01*
X123981Y-73541D01*
X124803Y-73649D01*
X125625Y-73541D01*
X126391Y-73224D01*
X127050Y-72719D01*
X127554Y-72061D01*
X127872Y-71295D01*
X127980Y-70472D01*
X127872Y-69650D01*
X127554Y-68884D01*
X127050Y-68226D01*
X126391Y-67721D01*
X125625Y-67404D01*
X124803Y-67296D01*
D02*
G37*
G36*
X226583Y-105932D02*
Y-109933D01*
X230584D01*
X230494Y-109251D01*
X230037Y-108150D01*
X229312Y-107204D01*
X228366Y-106478D01*
X227265Y-106022D01*
X226583Y-105932D01*
D02*
G37*
G36*
X225583Y-105932D02*
X224901Y-106022D01*
X223799Y-106478D01*
X222854Y-107204D01*
X222128Y-108150D01*
X221672Y-109251D01*
X221582Y-109933D01*
X225583D01*
Y-105932D01*
D02*
G37*
G36*
X254732Y-105932D02*
Y-109933D01*
X258733D01*
X258643Y-109251D01*
X258187Y-108150D01*
X257461Y-107204D01*
X256516Y-106478D01*
X255414Y-106022D01*
X254732Y-105932D01*
D02*
G37*
G36*
X253732Y-105932D02*
X253050Y-106022D01*
X251949Y-106478D01*
X251003Y-107204D01*
X250277Y-108150D01*
X249821Y-109251D01*
X249731Y-109933D01*
X253732D01*
Y-105932D01*
D02*
G37*
G36*
X354331Y-102321D02*
X353097Y-102484D01*
X351948Y-102960D01*
X350961Y-103717D01*
X350204Y-104704D01*
X349728Y-105853D01*
X349566Y-107087D01*
X349728Y-108320D01*
X350204Y-109469D01*
X350961Y-110456D01*
X351948Y-111213D01*
X353097Y-111689D01*
X354331Y-111852D01*
X355564Y-111689D01*
X356713Y-111213D01*
X357700Y-110456D01*
X358457Y-109469D01*
X358933Y-108320D01*
X359096Y-107087D01*
X358933Y-105853D01*
X358457Y-104704D01*
X357700Y-103717D01*
X356713Y-102960D01*
X355564Y-102484D01*
X354331Y-102321D01*
D02*
G37*
G36*
X258733Y-110933D02*
X254732D01*
Y-114934D01*
X255414Y-114844D01*
X256516Y-114388D01*
X257461Y-113662D01*
X258187Y-112716D01*
X258643Y-111615D01*
X258733Y-110933D01*
D02*
G37*
G36*
X225583Y-110933D02*
X221582D01*
X221672Y-111615D01*
X222128Y-112716D01*
X222854Y-113662D01*
X223799Y-114388D01*
X224901Y-114844D01*
X225583Y-114934D01*
Y-110933D01*
D02*
G37*
G36*
X230584D02*
X226583D01*
Y-114934D01*
X227265Y-114844D01*
X228366Y-114388D01*
X229312Y-113662D01*
X230037Y-112716D01*
X230494Y-111615D01*
X230584Y-110933D01*
D02*
G37*
G36*
X253732Y-110933D02*
X249731D01*
X249821Y-111615D01*
X250277Y-112716D01*
X251003Y-113662D01*
X251949Y-114388D01*
X253050Y-114844D01*
X253732Y-114934D01*
Y-110933D01*
D02*
G37*
G36*
X232283Y-94550D02*
X231554Y-94695D01*
X231038Y-95040D01*
X230709Y-95081D01*
X230380Y-95040D01*
X229864Y-94695D01*
X229134Y-94550D01*
X228404Y-94695D01*
X227786Y-95108D01*
X227372Y-95727D01*
X227227Y-96457D01*
X227372Y-97186D01*
X227786Y-97805D01*
X228404Y-98218D01*
X229134Y-98363D01*
X229864Y-98218D01*
X230482Y-97805D01*
X230935D01*
X231554Y-98218D01*
X232283Y-98363D01*
X233013Y-98218D01*
X233632Y-97805D01*
X234045Y-97186D01*
X234190Y-96457D01*
X234045Y-95727D01*
X233632Y-95108D01*
X233013Y-94695D01*
X232283Y-94550D01*
D02*
G37*
G36*
X482283Y-95248D02*
X481461Y-95357D01*
X480695Y-95674D01*
X480315Y-95966D01*
X479935Y-95674D01*
X479169Y-95357D01*
X478346Y-95248D01*
X477524Y-95357D01*
X476758Y-95674D01*
X476378Y-95966D01*
X475998Y-95674D01*
X475232Y-95357D01*
X474409Y-95248D01*
X473587Y-95357D01*
X472821Y-95674D01*
X472163Y-96179D01*
X471658Y-96837D01*
X471341Y-97603D01*
X471233Y-98425D01*
X471341Y-99247D01*
X471658Y-100014D01*
X472163Y-100672D01*
X472821Y-101176D01*
X473587Y-101494D01*
X474409Y-101602D01*
X475232Y-101494D01*
X475998Y-101176D01*
X476378Y-100885D01*
X476758Y-101176D01*
X477524Y-101494D01*
X478346Y-101602D01*
X479169Y-101494D01*
X479935Y-101176D01*
X480315Y-100885D01*
X480695Y-101176D01*
X481461Y-101494D01*
X482283Y-101602D01*
X483106Y-101494D01*
X483872Y-101176D01*
X484530Y-100672D01*
X485035Y-100014D01*
X485352Y-99247D01*
X485460Y-98425D01*
X485352Y-97603D01*
X485035Y-96837D01*
X484530Y-96179D01*
X483872Y-95674D01*
X483106Y-95357D01*
X482283Y-95248D01*
D02*
G37*
G36*
X415354Y-51544D02*
X415354Y-51544D01*
X372047Y-51544D01*
X371433Y-51666D01*
X370912Y-52014D01*
X370912Y-52014D01*
X368943Y-53983D01*
X368943Y-53983D01*
X368595Y-54504D01*
X368473Y-55118D01*
X368473Y-55118D01*
X368473Y-100394D01*
X368473Y-100394D01*
X368595Y-101008D01*
X368943Y-101529D01*
X370912Y-103498D01*
X371433Y-103846D01*
X372047Y-103968D01*
X372047Y-103968D01*
X415354D01*
X415354Y-103968D01*
X415969Y-103846D01*
X416490Y-103498D01*
X418458Y-101529D01*
X418747Y-101097D01*
X419127Y-100928D01*
X419183Y-100914D01*
X419334Y-100917D01*
X419671Y-101176D01*
X420438Y-101494D01*
X421260Y-101602D01*
X422082Y-101494D01*
X422848Y-101176D01*
X423506Y-100672D01*
X423921Y-100130D01*
X424108Y-100086D01*
X424317D01*
X424504Y-100130D01*
X424919Y-100672D01*
X425577Y-101176D01*
X426343Y-101494D01*
X427165Y-101602D01*
X427988Y-101494D01*
X428754Y-101176D01*
X429412Y-100672D01*
X429827Y-100130D01*
X430014Y-100086D01*
X430222D01*
X430409Y-100130D01*
X430825Y-100672D01*
X431483Y-101176D01*
X432249Y-101494D01*
X433071Y-101602D01*
X433893Y-101494D01*
X434659Y-101176D01*
X435317Y-100672D01*
X435822Y-100014D01*
X436139Y-99247D01*
X436248Y-98425D01*
X436139Y-97603D01*
X435822Y-96837D01*
X435317Y-96179D01*
X434659Y-95674D01*
X433893Y-95357D01*
X433071Y-95248D01*
X432249Y-95357D01*
X431483Y-95674D01*
X430825Y-96179D01*
X430409Y-96720D01*
X430222Y-96764D01*
X430014D01*
X429827Y-96720D01*
X429412Y-96179D01*
X428754Y-95674D01*
X427988Y-95357D01*
X427165Y-95248D01*
X426343Y-95357D01*
X425577Y-95674D01*
X424919Y-96179D01*
X424504Y-96720D01*
X424317Y-96764D01*
X424108D01*
X423921Y-96720D01*
X423506Y-96179D01*
X422848Y-95674D01*
X422082Y-95357D01*
X421260Y-95248D01*
X420438Y-95357D01*
X419671Y-95674D01*
X419428Y-95860D01*
X418928Y-95614D01*
Y-87457D01*
X419428Y-87210D01*
X419671Y-87397D01*
X420438Y-87714D01*
X421260Y-87823D01*
X422082Y-87714D01*
X422848Y-87397D01*
X423506Y-86892D01*
X423921Y-86351D01*
X424108Y-86307D01*
X424317D01*
X424504Y-86351D01*
X424919Y-86892D01*
X425577Y-87397D01*
X426343Y-87714D01*
X427165Y-87823D01*
X427988Y-87714D01*
X428754Y-87397D01*
X429412Y-86892D01*
X429827Y-86351D01*
X430014Y-86307D01*
X430222D01*
X430409Y-86351D01*
X430825Y-86892D01*
X431483Y-87397D01*
X432249Y-87714D01*
X433071Y-87823D01*
X433893Y-87714D01*
X434659Y-87397D01*
X435317Y-86892D01*
X435822Y-86234D01*
X436139Y-85468D01*
X436248Y-84646D01*
X436139Y-83824D01*
X435822Y-83057D01*
X435317Y-82399D01*
X434776Y-81984D01*
X434732Y-81797D01*
Y-81589D01*
X434776Y-81402D01*
X435317Y-80986D01*
X435822Y-80329D01*
X436041Y-79799D01*
X436548Y-79883D01*
X436612Y-80866D01*
X437028Y-82955D01*
X437712Y-84971D01*
X438655Y-86882D01*
X439838Y-88653D01*
X441242Y-90254D01*
X442843Y-91658D01*
X444615Y-92842D01*
X446525Y-93784D01*
X448542Y-94468D01*
X450631Y-94884D01*
X452756Y-95023D01*
X454881Y-94884D01*
X456970Y-94468D01*
X458987Y-93784D01*
X460897Y-92842D01*
X462668Y-91658D01*
X464270Y-90254D01*
X465674Y-88653D01*
X466857Y-86882D01*
X467799Y-84971D01*
X468484Y-82955D01*
X468899Y-80866D01*
X469039Y-78740D01*
X468899Y-76615D01*
X468484Y-74526D01*
X467799Y-72509D01*
X466857Y-70599D01*
X465674Y-68828D01*
X464270Y-67226D01*
X462668Y-65822D01*
X460897Y-64639D01*
X458987Y-63697D01*
X456970Y-63012D01*
X454881Y-62597D01*
X453219Y-62488D01*
X453135Y-61981D01*
X453557Y-61806D01*
X454215Y-61301D01*
X454720Y-60644D01*
X455037Y-59877D01*
X455145Y-59055D01*
X455142Y-59027D01*
X455547Y-58974D01*
X456313Y-58657D01*
X456971Y-58152D01*
X457476Y-57494D01*
X457793Y-56728D01*
X457901Y-55905D01*
X457793Y-55083D01*
X457476Y-54317D01*
X456971Y-53659D01*
X456313Y-53154D01*
X455547Y-52837D01*
X454724Y-52729D01*
X453902Y-52837D01*
X453136Y-53154D01*
X452478Y-53659D01*
X451973Y-54317D01*
X451656Y-55083D01*
X451548Y-55905D01*
X451551Y-55933D01*
X451146Y-55987D01*
X450380Y-56304D01*
X450277Y-56383D01*
X449866Y-56068D01*
X449919Y-55940D01*
X450027Y-55118D01*
X449919Y-54296D01*
X449602Y-53530D01*
X449097Y-52872D01*
X448439Y-52367D01*
X447673Y-52050D01*
X446850Y-51941D01*
X446028Y-52050D01*
X445262Y-52367D01*
X444604Y-52872D01*
X444099Y-53530D01*
X443782Y-54296D01*
X443674Y-55118D01*
X443782Y-55940D01*
X444099Y-56707D01*
X444391Y-57087D01*
X444099Y-57467D01*
X443782Y-58233D01*
X443674Y-59055D01*
X443782Y-59877D01*
X444099Y-60644D01*
X444604Y-61301D01*
X445262Y-61806D01*
X446028Y-62124D01*
X446850Y-62232D01*
X447673Y-62124D01*
X448439Y-61806D01*
X449094Y-61304D01*
X449207Y-61220D01*
X449611D01*
X449725Y-61304D01*
X450380Y-61806D01*
X451017Y-62070D01*
X450934Y-62577D01*
X450631Y-62597D01*
X448542Y-63012D01*
X446525Y-63697D01*
X444615Y-64639D01*
X442843Y-65822D01*
X441242Y-67226D01*
X439838Y-68828D01*
X438655Y-70599D01*
X437712Y-72509D01*
X437028Y-74526D01*
X436612Y-76615D01*
X436548Y-77598D01*
X436041Y-77681D01*
X435822Y-77152D01*
X435317Y-76494D01*
X434776Y-76079D01*
X434732Y-75892D01*
Y-75683D01*
X434776Y-75496D01*
X435317Y-75081D01*
X435822Y-74423D01*
X436139Y-73657D01*
X436248Y-72835D01*
X436139Y-72012D01*
X435822Y-71246D01*
X435317Y-70588D01*
X435064Y-70394D01*
Y-69764D01*
X435317Y-69569D01*
X435822Y-68911D01*
X436139Y-68145D01*
X436248Y-67323D01*
X436139Y-66501D01*
X435822Y-65734D01*
X435379Y-65158D01*
X435732Y-64697D01*
X435919Y-64653D01*
X436128D01*
X436315Y-64697D01*
X436730Y-65238D01*
X437388Y-65743D01*
X438154Y-66061D01*
X438976Y-66169D01*
X439799Y-66061D01*
X440565Y-65743D01*
X441223Y-65238D01*
X441727Y-64581D01*
X442045Y-63814D01*
X442153Y-62992D01*
X442045Y-62170D01*
X441727Y-61404D01*
X441223Y-60746D01*
X440565Y-60241D01*
X439799Y-59924D01*
X438976Y-59815D01*
X438154Y-59924D01*
X437388Y-60241D01*
X436730Y-60746D01*
X436315Y-61287D01*
X436128Y-61331D01*
X435919D01*
X435732Y-61287D01*
X435317Y-60746D01*
X434659Y-60241D01*
X433893Y-59924D01*
X433071Y-59815D01*
X432249Y-59924D01*
X432101Y-59985D01*
X431748Y-59631D01*
X431809Y-59484D01*
X431917Y-58661D01*
X431898Y-58518D01*
X432361Y-58201D01*
X433071Y-58295D01*
X433893Y-58187D01*
X434659Y-57869D01*
X435317Y-57364D01*
X435732Y-56823D01*
X435919Y-56779D01*
X436128D01*
X436315Y-56823D01*
X436730Y-57364D01*
X437388Y-57869D01*
X438154Y-58187D01*
X438976Y-58295D01*
X439799Y-58187D01*
X440565Y-57869D01*
X441223Y-57364D01*
X441727Y-56707D01*
X442045Y-55940D01*
X442153Y-55118D01*
X442045Y-54296D01*
X441727Y-53530D01*
X441223Y-52872D01*
X440565Y-52367D01*
X439799Y-52050D01*
X438976Y-51941D01*
X438154Y-52050D01*
X437388Y-52367D01*
X436730Y-52872D01*
X436315Y-53413D01*
X436128Y-53457D01*
X435919D01*
X435732Y-53413D01*
X435317Y-52872D01*
X434659Y-52367D01*
X433893Y-52050D01*
X433071Y-51941D01*
X432249Y-52050D01*
X431483Y-52367D01*
X430825Y-52872D01*
X430320Y-53530D01*
X430002Y-54296D01*
X429894Y-55118D01*
X429913Y-55262D01*
X429450Y-55578D01*
X428828Y-55496D01*
X428598Y-55360D01*
X428498Y-55260D01*
X428362Y-55030D01*
X428265Y-54296D01*
X427948Y-53530D01*
X427443Y-52872D01*
X426785Y-52367D01*
X426019Y-52050D01*
X425197Y-51941D01*
X424375Y-52050D01*
X423608Y-52367D01*
X422951Y-52872D01*
X422446Y-53530D01*
X422128Y-54296D01*
X422020Y-55118D01*
X422128Y-55940D01*
X422446Y-56707D01*
X422951Y-57364D01*
X423608Y-57869D01*
X424375Y-58187D01*
X425109Y-58283D01*
X425203Y-58339D01*
X425256Y-58534D01*
X425249Y-58591D01*
X424906Y-59066D01*
X424375Y-59136D01*
X423608Y-59453D01*
X422951Y-59958D01*
X422446Y-60616D01*
X422128Y-61383D01*
X422020Y-62205D01*
X422128Y-63027D01*
X422284Y-63403D01*
X422224Y-63539D01*
X421924Y-63840D01*
X421260Y-63752D01*
X420438Y-63861D01*
X419671Y-64178D01*
X419428Y-64364D01*
X418928Y-64118D01*
X418928Y-55118D01*
X418868Y-54813D01*
X418806Y-54504D01*
X418806Y-54504D01*
X418806Y-54504D01*
X418573Y-54155D01*
X418458Y-53983D01*
X418458Y-53983D01*
X418458Y-53983D01*
X416490Y-52014D01*
X416490Y-52014D01*
X416490Y-52014D01*
X416211Y-51828D01*
X415969Y-51666D01*
X415969Y-51666D01*
X415969Y-51666D01*
X415708Y-51614D01*
X415354Y-51544D01*
D02*
G37*
G36*
X98425Y-62457D02*
X96300Y-62597D01*
X94211Y-63012D01*
X92194Y-63697D01*
X90284Y-64639D01*
X88513Y-65822D01*
X86911Y-67226D01*
X85507Y-68828D01*
X84324Y-70599D01*
X83382Y-72509D01*
X82697Y-74526D01*
X82282Y-76615D01*
X82142Y-78740D01*
X82282Y-80866D01*
X82697Y-82955D01*
X83382Y-84971D01*
X84324Y-86882D01*
X85507Y-88653D01*
X86911Y-90254D01*
X88513Y-91658D01*
X90284Y-92842D01*
X92194Y-93784D01*
X94211Y-94468D01*
X96300Y-94884D01*
X98425Y-95023D01*
X100550Y-94884D01*
X102639Y-94468D01*
X104656Y-93784D01*
X106567Y-92842D01*
X108338Y-91658D01*
X109939Y-90254D01*
X111343Y-88653D01*
X112527Y-86882D01*
X113469Y-84971D01*
X114153Y-82955D01*
X114569Y-80866D01*
X114708Y-78740D01*
X114569Y-76615D01*
X114153Y-74526D01*
X113469Y-72509D01*
X112527Y-70599D01*
X111343Y-68828D01*
X109939Y-67226D01*
X108338Y-65822D01*
X106567Y-64639D01*
X104656Y-63697D01*
X102639Y-63012D01*
X100550Y-62597D01*
X98425Y-62457D01*
D02*
G37*
G36*
X177756Y-91311D02*
X176934Y-91420D01*
X176168Y-91737D01*
X175510Y-92242D01*
X175005Y-92900D01*
X174687Y-93666D01*
X174579Y-94488D01*
X174687Y-95310D01*
X175005Y-96077D01*
X175510Y-96734D01*
X176168Y-97239D01*
X176934Y-97557D01*
X177756Y-97665D01*
X178578Y-97557D01*
X179344Y-97239D01*
X180002Y-96734D01*
X180507Y-96077D01*
X180824Y-95310D01*
X180933Y-94488D01*
X180824Y-93666D01*
X180507Y-92900D01*
X180002Y-92242D01*
X179344Y-91737D01*
X178578Y-91420D01*
X177756Y-91311D01*
D02*
G37*
G36*
X120079Y-103103D02*
X119157Y-103287D01*
X118376Y-103809D01*
X117854Y-104590D01*
X117670Y-105512D01*
X117854Y-106433D01*
X118376Y-107215D01*
X119157Y-107737D01*
X120079Y-107920D01*
X121000Y-107737D01*
X121782Y-107215D01*
X122304Y-106433D01*
X122487Y-105512D01*
X122304Y-104590D01*
X121782Y-103809D01*
X121000Y-103287D01*
X120079Y-103103D01*
D02*
G37*
G36*
X362205Y-105180D02*
X361475Y-105325D01*
X360857Y-105738D01*
X360443Y-106357D01*
X360298Y-107087D01*
X360443Y-107816D01*
X360857Y-108435D01*
X361475Y-108848D01*
X362205Y-108993D01*
X362934Y-108848D01*
X363553Y-108435D01*
X363966Y-107816D01*
X364111Y-107087D01*
X363966Y-106357D01*
X363553Y-105738D01*
X362934Y-105325D01*
X362205Y-105180D01*
D02*
G37*
G36*
X127165Y-95248D02*
X126343Y-95357D01*
X125577Y-95674D01*
X124919Y-96179D01*
X124414Y-96837D01*
X124097Y-97603D01*
X123989Y-98425D01*
X124097Y-99247D01*
X124414Y-100014D01*
X124919Y-100672D01*
X125577Y-101176D01*
X126343Y-101494D01*
X127165Y-101602D01*
X127988Y-101494D01*
X128754Y-101176D01*
X129412Y-100672D01*
X129917Y-100014D01*
X130234Y-99247D01*
X130342Y-98425D01*
X130234Y-97603D01*
X129917Y-96837D01*
X129412Y-96179D01*
X128754Y-95674D01*
X127988Y-95357D01*
X127165Y-95248D01*
D02*
G37*
G36*
X193701Y-98501D02*
X193007Y-98592D01*
X192361Y-98860D01*
X191806Y-99286D01*
X191379Y-99841D01*
X191112Y-100487D01*
X191020Y-101181D01*
X191112Y-101875D01*
X191379Y-102521D01*
X191806Y-103076D01*
X192361Y-103502D01*
X193007Y-103770D01*
X193701Y-103861D01*
X194395Y-103770D01*
X195041Y-103502D01*
X195596Y-103076D01*
X196022Y-102521D01*
X196290Y-101875D01*
X196381Y-101181D01*
X196290Y-100487D01*
X196022Y-99841D01*
X195596Y-99286D01*
X195041Y-98860D01*
X194395Y-98592D01*
X193701Y-98501D01*
D02*
G37*
G36*
X454724Y-36193D02*
X453902Y-36301D01*
X453136Y-36619D01*
X452478Y-37124D01*
X451973Y-37782D01*
X451656Y-38548D01*
X451548Y-39370D01*
X451656Y-40192D01*
X451973Y-40958D01*
X452478Y-41616D01*
X453136Y-42121D01*
X453902Y-42439D01*
X454724Y-42547D01*
X455547Y-42439D01*
X456313Y-42121D01*
X456971Y-41616D01*
X457476Y-40958D01*
X457793Y-40192D01*
X457901Y-39370D01*
X457793Y-38548D01*
X457476Y-37782D01*
X456971Y-37124D01*
X456313Y-36619D01*
X455547Y-36301D01*
X454724Y-36193D01*
D02*
G37*
G36*
X435039D02*
X434217Y-36301D01*
X433451Y-36619D01*
X432793Y-37124D01*
X432288Y-37782D01*
X431971Y-38548D01*
X431863Y-39370D01*
X431971Y-40192D01*
X432288Y-40958D01*
X432793Y-41616D01*
X433451Y-42121D01*
X434217Y-42439D01*
X435039Y-42547D01*
X435862Y-42439D01*
X436628Y-42121D01*
X437286Y-41616D01*
X437790Y-40958D01*
X438108Y-40192D01*
X438216Y-39370D01*
X438108Y-38548D01*
X437790Y-37782D01*
X437286Y-37124D01*
X436628Y-36619D01*
X435862Y-36301D01*
X435039Y-36193D01*
D02*
G37*
G36*
X234646Y-36676D02*
X233916Y-36821D01*
X233297Y-37234D01*
X232884Y-37853D01*
X232739Y-38583D01*
X232884Y-39312D01*
X233297Y-39931D01*
X233916Y-40344D01*
X234646Y-40489D01*
X235375Y-40344D01*
X235994Y-39931D01*
X236407Y-39312D01*
X236552Y-38583D01*
X236407Y-37853D01*
X235994Y-37234D01*
X235375Y-36821D01*
X234646Y-36676D01*
D02*
G37*
G36*
X277165Y-38644D02*
X276436Y-38790D01*
X275817Y-39203D01*
X275404Y-39821D01*
X275259Y-40551D01*
X275404Y-41281D01*
X275817Y-41899D01*
X276436Y-42313D01*
X277165Y-42458D01*
X277895Y-42313D01*
X278514Y-41899D01*
X278927Y-41281D01*
X279072Y-40551D01*
X278927Y-39821D01*
X278514Y-39203D01*
X277895Y-38790D01*
X277165Y-38644D01*
D02*
G37*
G36*
X387795Y-36193D02*
X386973Y-36301D01*
X386207Y-36619D01*
X385549Y-37124D01*
X385044Y-37782D01*
X384727Y-38548D01*
X384618Y-39370D01*
X384727Y-40192D01*
X385044Y-40958D01*
X385549Y-41616D01*
X386207Y-42121D01*
X386973Y-42439D01*
X387795Y-42547D01*
X388617Y-42439D01*
X389384Y-42121D01*
X390042Y-41616D01*
X390546Y-40958D01*
X390864Y-40192D01*
X390972Y-39370D01*
X390864Y-38548D01*
X390546Y-37782D01*
X390042Y-37124D01*
X389384Y-36619D01*
X388617Y-36301D01*
X387795Y-36193D01*
D02*
G37*
G36*
X466535Y-41292D02*
X465614Y-41476D01*
X464832Y-41998D01*
X464310Y-42779D01*
X464127Y-43701D01*
X464310Y-44622D01*
X464832Y-45404D01*
X465614Y-45926D01*
X466535Y-46109D01*
X467457Y-45926D01*
X468238Y-45404D01*
X468761Y-44622D01*
X468944Y-43701D01*
X468761Y-42779D01*
X468238Y-41998D01*
X467457Y-41476D01*
X466535Y-41292D01*
D02*
G37*
G36*
X266535Y-45731D02*
X265806Y-45876D01*
X265187Y-46290D01*
X264734D01*
X264116Y-45876D01*
X263386Y-45731D01*
X262656Y-45876D01*
X262038Y-46290D01*
X261624Y-46908D01*
X261479Y-47638D01*
X261624Y-48368D01*
X262038Y-48986D01*
X262656Y-49399D01*
X263386Y-49545D01*
X264116Y-49399D01*
X264734Y-48986D01*
X265187D01*
X265806Y-49399D01*
X266535Y-49545D01*
X267265Y-49399D01*
X267884Y-48986D01*
X268297Y-48368D01*
X268442Y-47638D01*
X268297Y-46908D01*
X267884Y-46290D01*
X267265Y-45876D01*
X266535Y-45731D01*
D02*
G37*
G36*
X177756Y-36981D02*
X176934Y-37089D01*
X176168Y-37406D01*
X175510Y-37911D01*
X175005Y-38569D01*
X174687Y-39335D01*
X174579Y-40157D01*
X174687Y-40980D01*
X175005Y-41746D01*
X175510Y-42404D01*
X176168Y-42909D01*
X176934Y-43226D01*
X177756Y-43334D01*
X178578Y-43226D01*
X179344Y-42909D01*
X180002Y-42404D01*
X180507Y-41746D01*
X180824Y-40980D01*
X180933Y-40157D01*
X180824Y-39335D01*
X180507Y-38569D01*
X180002Y-37911D01*
X179344Y-37406D01*
X178578Y-37089D01*
X177756Y-36981D01*
D02*
G37*
G36*
X83858Y-38930D02*
X82937Y-39113D01*
X82155Y-39636D01*
X81633Y-40417D01*
X81450Y-41339D01*
X81633Y-42260D01*
X82155Y-43042D01*
X82937Y-43564D01*
X83858Y-43747D01*
X84780Y-43564D01*
X85561Y-43042D01*
X86083Y-42260D01*
X86267Y-41339D01*
X86083Y-40417D01*
X85561Y-39636D01*
X84780Y-39113D01*
X83858Y-38930D01*
D02*
G37*
G36*
X533071Y-32256D02*
X532249Y-32364D01*
X531483Y-32682D01*
X530825Y-33187D01*
X530320Y-33845D01*
X530002Y-34611D01*
X529894Y-35433D01*
X530002Y-36255D01*
X530320Y-37021D01*
X530825Y-37679D01*
X531483Y-38184D01*
X532249Y-38502D01*
X533071Y-38610D01*
X533893Y-38502D01*
X534659Y-38184D01*
X535317Y-37679D01*
X535822Y-37021D01*
X536139Y-36255D01*
X536248Y-35433D01*
X536139Y-34611D01*
X535822Y-33845D01*
X535317Y-33187D01*
X534659Y-32682D01*
X533893Y-32364D01*
X533071Y-32256D01*
D02*
G37*
G36*
X525197D02*
X524375Y-32364D01*
X523608Y-32682D01*
X522951Y-33187D01*
X522446Y-33845D01*
X522128Y-34611D01*
X522020Y-35433D01*
X522128Y-36255D01*
X522446Y-37021D01*
X522951Y-37679D01*
X523608Y-38184D01*
X524375Y-38502D01*
X525197Y-38610D01*
X526019Y-38502D01*
X526785Y-38184D01*
X527443Y-37679D01*
X527948Y-37021D01*
X528265Y-36255D01*
X528374Y-35433D01*
X528265Y-34611D01*
X527948Y-33845D01*
X527443Y-33187D01*
X526785Y-32682D01*
X526019Y-32364D01*
X525197Y-32256D01*
D02*
G37*
G36*
X230315Y-36676D02*
X229585Y-36821D01*
X228967Y-37234D01*
X228624Y-37747D01*
X228441Y-37787D01*
X228252D01*
X228069Y-37747D01*
X227726Y-37234D01*
X227108Y-36821D01*
X226378Y-36676D01*
X225648Y-36821D01*
X225030Y-37234D01*
X224616Y-37853D01*
X224471Y-38583D01*
X224616Y-39312D01*
X225030Y-39931D01*
X225648Y-40344D01*
X226378Y-40489D01*
X227108Y-40344D01*
X227726Y-39931D01*
X228069Y-39418D01*
X228252Y-39378D01*
X228441D01*
X228624Y-39418D01*
X228967Y-39931D01*
X229585Y-40344D01*
X230315Y-40489D01*
X231045Y-40344D01*
X231663Y-39931D01*
X232077Y-39312D01*
X232222Y-38583D01*
X232077Y-37853D01*
X231663Y-37234D01*
X231045Y-36821D01*
X230315Y-36676D01*
D02*
G37*
G36*
X322441Y-37463D02*
X321711Y-37609D01*
X321093Y-38022D01*
X321033D01*
X320415Y-37609D01*
X319685Y-37463D01*
X318955Y-37609D01*
X318337Y-38022D01*
X317923Y-38640D01*
X317778Y-39370D01*
X317923Y-40100D01*
X318337Y-40718D01*
X318955Y-41132D01*
X319685Y-41277D01*
X320415Y-41132D01*
X321033Y-40718D01*
X321093D01*
X321510Y-40997D01*
X321405Y-41528D01*
X321318Y-41546D01*
X320699Y-41959D01*
X320286Y-42577D01*
X320141Y-43307D01*
X320286Y-44037D01*
X320699Y-44655D01*
X321318Y-45069D01*
X322047Y-45214D01*
X322777Y-45069D01*
X323395Y-44655D01*
X323809Y-44037D01*
X323954Y-43307D01*
X323809Y-42577D01*
X323395Y-41959D01*
X322978Y-41680D01*
X323083Y-41149D01*
X323171Y-41132D01*
X323789Y-40718D01*
X324202Y-40100D01*
X324348Y-39370D01*
X324202Y-38640D01*
X323789Y-38022D01*
X323171Y-37609D01*
X322441Y-37463D01*
D02*
G37*
G36*
X517323Y-32256D02*
X516501Y-32364D01*
X515734Y-32682D01*
X515076Y-33187D01*
X514572Y-33845D01*
X514254Y-34611D01*
X514146Y-35433D01*
X514254Y-36255D01*
X514572Y-37021D01*
X515076Y-37679D01*
X515734Y-38184D01*
X516501Y-38502D01*
X517323Y-38610D01*
X518145Y-38502D01*
X518911Y-38184D01*
X519569Y-37679D01*
X520074Y-37021D01*
X520391Y-36255D01*
X520500Y-35433D01*
X520391Y-34611D01*
X520074Y-33845D01*
X519569Y-33187D01*
X518911Y-32682D01*
X518145Y-32364D01*
X517323Y-32256D01*
D02*
G37*
G36*
X356299Y-33934D02*
X355606Y-34025D01*
X354959Y-34293D01*
X354404Y-34719D01*
X353978Y-35274D01*
X353710Y-35920D01*
X353619Y-36614D01*
X353710Y-37308D01*
X353978Y-37954D01*
X354404Y-38510D01*
X354959Y-38936D01*
X355606Y-39203D01*
X356299Y-39295D01*
X356993Y-39203D01*
X357639Y-38936D01*
X358194Y-38510D01*
X358621Y-37954D01*
X358888Y-37308D01*
X358980Y-36614D01*
X358888Y-35920D01*
X358621Y-35274D01*
X358194Y-34719D01*
X357639Y-34293D01*
X356993Y-34025D01*
X356299Y-33934D01*
D02*
G37*
G36*
X238976Y-36676D02*
X238247Y-36821D01*
X237628Y-37234D01*
X237215Y-37853D01*
X237070Y-38583D01*
X237215Y-39312D01*
X237628Y-39931D01*
X238247Y-40344D01*
X238976Y-40489D01*
X239706Y-40344D01*
X240325Y-39931D01*
X240738Y-39312D01*
X240883Y-38583D01*
X240738Y-37853D01*
X240325Y-37234D01*
X239706Y-36821D01*
X238976Y-36676D01*
D02*
G37*
G36*
X509449Y-32256D02*
X508627Y-32364D01*
X507860Y-32682D01*
X507202Y-33187D01*
X506698Y-33845D01*
X506380Y-34611D01*
X506272Y-35433D01*
X506380Y-36255D01*
X506698Y-37021D01*
X507202Y-37679D01*
X507860Y-38184D01*
X508627Y-38502D01*
X509449Y-38610D01*
X510271Y-38502D01*
X511037Y-38184D01*
X511695Y-37679D01*
X512200Y-37021D01*
X512517Y-36255D01*
X512626Y-35433D01*
X512517Y-34611D01*
X512200Y-33845D01*
X511695Y-33187D01*
X511037Y-32682D01*
X510271Y-32364D01*
X509449Y-32256D01*
D02*
G37*
G36*
X363386Y-33934D02*
X362692Y-34025D01*
X362046Y-34293D01*
X361491Y-34719D01*
X361065Y-35274D01*
X360797Y-35920D01*
X360705Y-36614D01*
X360797Y-37308D01*
X361065Y-37954D01*
X361491Y-38510D01*
X362046Y-38936D01*
X362692Y-39203D01*
X363386Y-39295D01*
X364080Y-39203D01*
X364726Y-38936D01*
X365281Y-38510D01*
X365707Y-37954D01*
X365975Y-37308D01*
X366066Y-36614D01*
X365975Y-35920D01*
X365707Y-35274D01*
X365281Y-34719D01*
X364726Y-34293D01*
X364080Y-34025D01*
X363386Y-33934D01*
D02*
G37*
G36*
X291339Y-48487D02*
X290609Y-48632D01*
X289990Y-49045D01*
X289577Y-49664D01*
X289432Y-50394D01*
X289577Y-51123D01*
X289990Y-51742D01*
X290609Y-52155D01*
X291339Y-52300D01*
X292068Y-52155D01*
X292687Y-51742D01*
X293100Y-51123D01*
X293245Y-50394D01*
X293100Y-49664D01*
X292687Y-49045D01*
X292068Y-48632D01*
X291339Y-48487D01*
D02*
G37*
G36*
X286614D02*
X285884Y-48632D01*
X285266Y-49045D01*
X284853Y-49664D01*
X284707Y-50394D01*
X284853Y-51123D01*
X285266Y-51742D01*
X285884Y-52155D01*
X286614Y-52300D01*
X287344Y-52155D01*
X287962Y-51742D01*
X288376Y-51123D01*
X288521Y-50394D01*
X288376Y-49664D01*
X287962Y-49045D01*
X287344Y-48632D01*
X286614Y-48487D01*
D02*
G37*
G36*
X309842Y-50455D02*
X309113Y-50601D01*
X308494Y-51014D01*
X308435D01*
X307816Y-50601D01*
X307087Y-50455D01*
X306357Y-50601D01*
X305738Y-51014D01*
X305325Y-51632D01*
X305180Y-52362D01*
X305325Y-53092D01*
X305738Y-53711D01*
X306357Y-54124D01*
X307087Y-54269D01*
X307816Y-54124D01*
X308435Y-53711D01*
X308494D01*
X309113Y-54124D01*
X309842Y-54269D01*
X310572Y-54124D01*
X311191Y-53711D01*
X311604Y-53092D01*
X311749Y-52362D01*
X311604Y-51632D01*
X311191Y-51014D01*
X310572Y-50601D01*
X309842Y-50455D01*
D02*
G37*
G36*
X225984Y-47306D02*
X225255Y-47451D01*
X224636Y-47864D01*
X224223Y-48483D01*
X224078Y-49213D01*
X224223Y-49942D01*
X224636Y-50561D01*
X225255Y-50974D01*
X225984Y-51119D01*
X226714Y-50974D01*
X227332Y-50561D01*
X227746Y-49942D01*
X227891Y-49213D01*
X227746Y-48483D01*
X227332Y-47864D01*
X226714Y-47451D01*
X225984Y-47306D01*
D02*
G37*
G36*
X222441Y-50849D02*
X221711Y-50994D01*
X221093Y-51408D01*
X220679Y-52026D01*
X220534Y-52756D01*
X220679Y-53486D01*
X221093Y-54104D01*
X221711Y-54518D01*
X222441Y-54663D01*
X223171Y-54518D01*
X223789Y-54104D01*
X224202Y-53486D01*
X224348Y-52756D01*
X224202Y-52026D01*
X223789Y-51408D01*
X223171Y-50994D01*
X222441Y-50849D01*
D02*
G37*
G36*
X237795Y-55574D02*
X237066Y-55719D01*
X236447Y-56132D01*
X236034Y-56751D01*
X235889Y-57480D01*
X236034Y-58210D01*
X236447Y-58829D01*
X237066Y-59242D01*
X237795Y-59387D01*
X238525Y-59242D01*
X239143Y-58829D01*
X239557Y-58210D01*
X239702Y-57480D01*
X239557Y-56751D01*
X239143Y-56132D01*
X238525Y-55719D01*
X237795Y-55574D01*
D02*
G37*
G36*
X245276D02*
X244546Y-55719D01*
X243927Y-56132D01*
X243474D01*
X242856Y-55719D01*
X242126Y-55574D01*
X241396Y-55719D01*
X240778Y-56132D01*
X240364Y-56751D01*
X240219Y-57480D01*
X240364Y-58210D01*
X240778Y-58829D01*
X241396Y-59242D01*
X242126Y-59387D01*
X242856Y-59242D01*
X243474Y-58829D01*
X243927D01*
X244546Y-59242D01*
X245276Y-59387D01*
X246005Y-59242D01*
X246624Y-58829D01*
X247037Y-58210D01*
X247182Y-57480D01*
X247037Y-56751D01*
X246624Y-56132D01*
X246005Y-55719D01*
X245276Y-55574D01*
D02*
G37*
G36*
X335039Y-55587D02*
X334346Y-55679D01*
X333699Y-55946D01*
X333144Y-56372D01*
X332898Y-56692D01*
X332619Y-56506D01*
X331890Y-56361D01*
X331160Y-56506D01*
X330541Y-56919D01*
X330128Y-57538D01*
X329983Y-58268D01*
X330128Y-58997D01*
X330541Y-59616D01*
X331160Y-60029D01*
X331890Y-60174D01*
X332619Y-60029D01*
X332898Y-59843D01*
X333144Y-60163D01*
X333699Y-60589D01*
X334346Y-60857D01*
X335039Y-60948D01*
X335733Y-60857D01*
X336380Y-60589D01*
X336935Y-60163D01*
X337361Y-59608D01*
X337628Y-58961D01*
X337720Y-58268D01*
X337628Y-57574D01*
X337361Y-56928D01*
X336935Y-56372D01*
X336380Y-55946D01*
X335733Y-55679D01*
X335039Y-55587D01*
D02*
G37*
G36*
X517323Y-40130D02*
X516501Y-40239D01*
X515734Y-40556D01*
X515076Y-41061D01*
X514572Y-41719D01*
X514254Y-42485D01*
X514146Y-43307D01*
X514254Y-44129D01*
X514572Y-44895D01*
X515076Y-45553D01*
X515734Y-46058D01*
X516501Y-46376D01*
X517323Y-46484D01*
X518145Y-46376D01*
X518911Y-46058D01*
X519569Y-45553D01*
X520074Y-44895D01*
X520391Y-44129D01*
X520500Y-43307D01*
X520391Y-42485D01*
X520074Y-41719D01*
X519569Y-41061D01*
X518911Y-40556D01*
X518145Y-40239D01*
X517323Y-40130D01*
D02*
G37*
G36*
X509449D02*
X508627Y-40239D01*
X507860Y-40556D01*
X507202Y-41061D01*
X506698Y-41719D01*
X506380Y-42485D01*
X506272Y-43307D01*
X506380Y-44129D01*
X506698Y-44895D01*
X507202Y-45553D01*
X507860Y-46058D01*
X508627Y-46376D01*
X509449Y-46484D01*
X510271Y-46376D01*
X511037Y-46058D01*
X511695Y-45553D01*
X512200Y-44895D01*
X512517Y-44129D01*
X512626Y-43307D01*
X512517Y-42485D01*
X512200Y-41719D01*
X511695Y-41061D01*
X511037Y-40556D01*
X510271Y-40239D01*
X509449Y-40130D01*
D02*
G37*
G36*
X533071D02*
X532249Y-40239D01*
X531483Y-40556D01*
X530825Y-41061D01*
X530320Y-41719D01*
X530002Y-42485D01*
X529894Y-43307D01*
X530002Y-44129D01*
X530320Y-44895D01*
X530825Y-45553D01*
X531483Y-46058D01*
X532249Y-46376D01*
X533071Y-46484D01*
X533893Y-46376D01*
X534659Y-46058D01*
X535317Y-45553D01*
X535822Y-44895D01*
X536139Y-44129D01*
X536248Y-43307D01*
X536139Y-42485D01*
X535822Y-41719D01*
X535317Y-41061D01*
X534659Y-40556D01*
X533893Y-40239D01*
X533071Y-40130D01*
D02*
G37*
G36*
X525197D02*
X524375Y-40239D01*
X523608Y-40556D01*
X522951Y-41061D01*
X522446Y-41719D01*
X522128Y-42485D01*
X522020Y-43307D01*
X522128Y-44129D01*
X522446Y-44895D01*
X522951Y-45553D01*
X523608Y-46058D01*
X524375Y-46376D01*
X525197Y-46484D01*
X526019Y-46376D01*
X526785Y-46058D01*
X527443Y-45553D01*
X527948Y-44895D01*
X528265Y-44129D01*
X528374Y-43307D01*
X528265Y-42485D01*
X527948Y-41719D01*
X527443Y-41061D01*
X526785Y-40556D01*
X526019Y-40239D01*
X525197Y-40130D01*
D02*
G37*
G36*
X127165Y-40918D02*
X126343Y-41026D01*
X125577Y-41343D01*
X124919Y-41848D01*
X124414Y-42506D01*
X124097Y-43272D01*
X123989Y-44094D01*
X124097Y-44917D01*
X124414Y-45683D01*
X124919Y-46341D01*
X125577Y-46846D01*
X126343Y-47163D01*
X127165Y-47271D01*
X127988Y-47163D01*
X128754Y-46846D01*
X129412Y-46341D01*
X129917Y-45683D01*
X130234Y-44917D01*
X130342Y-44094D01*
X130234Y-43272D01*
X129917Y-42506D01*
X129412Y-41848D01*
X128754Y-41343D01*
X127988Y-41026D01*
X127165Y-40918D01*
D02*
G37*
G36*
X435039Y-44067D02*
X434217Y-44176D01*
X433451Y-44493D01*
X432793Y-44998D01*
X432288Y-45656D01*
X431971Y-46422D01*
X431863Y-47244D01*
X431971Y-48066D01*
X432288Y-48832D01*
X432793Y-49490D01*
X433451Y-49995D01*
X434217Y-50313D01*
X435039Y-50421D01*
X435862Y-50313D01*
X436628Y-49995D01*
X437286Y-49490D01*
X437790Y-48832D01*
X438108Y-48066D01*
X438216Y-47244D01*
X438108Y-46422D01*
X437790Y-45656D01*
X437286Y-44998D01*
X436628Y-44493D01*
X435862Y-44176D01*
X435039Y-44067D01*
D02*
G37*
G36*
X387795D02*
X386973Y-44176D01*
X386207Y-44493D01*
X385549Y-44998D01*
X385044Y-45656D01*
X384727Y-46422D01*
X384618Y-47244D01*
X384727Y-48066D01*
X385044Y-48832D01*
X385549Y-49490D01*
X386207Y-49995D01*
X386973Y-50313D01*
X387795Y-50421D01*
X388617Y-50313D01*
X389384Y-49995D01*
X390042Y-49490D01*
X390546Y-48832D01*
X390864Y-48066D01*
X390972Y-47244D01*
X390864Y-46422D01*
X390546Y-45656D01*
X390042Y-44998D01*
X389384Y-44493D01*
X388617Y-44176D01*
X387795Y-44067D01*
D02*
G37*
G36*
X193701Y-44170D02*
X193007Y-44261D01*
X192361Y-44529D01*
X191806Y-44955D01*
X191379Y-45510D01*
X191112Y-46157D01*
X191020Y-46850D01*
X191112Y-47544D01*
X191379Y-48191D01*
X191806Y-48746D01*
X192361Y-49172D01*
X193007Y-49439D01*
X193701Y-49531D01*
X194395Y-49439D01*
X195041Y-49172D01*
X195596Y-48746D01*
X196022Y-48191D01*
X196290Y-47544D01*
X196381Y-46850D01*
X196290Y-46157D01*
X196022Y-45510D01*
X195596Y-44955D01*
X195041Y-44529D01*
X194395Y-44261D01*
X193701Y-44170D01*
D02*
G37*
G36*
X454724Y-44067D02*
X453902Y-44176D01*
X453136Y-44493D01*
X452478Y-44998D01*
X451973Y-45656D01*
X451656Y-46422D01*
X451548Y-47244D01*
X451656Y-48066D01*
X451973Y-48832D01*
X452478Y-49490D01*
X453136Y-49995D01*
X453902Y-50313D01*
X454724Y-50421D01*
X455547Y-50313D01*
X456313Y-49995D01*
X456971Y-49490D01*
X457476Y-48832D01*
X457793Y-48066D01*
X457901Y-47244D01*
X457793Y-46422D01*
X457476Y-45656D01*
X456971Y-44998D01*
X456313Y-44493D01*
X455547Y-44176D01*
X454724Y-44067D01*
D02*
G37*
G36*
X323622Y46395D02*
X322892Y46250D01*
X322274Y45836D01*
X321861Y45218D01*
X321715Y44488D01*
X321861Y43758D01*
X322274Y43140D01*
X322892Y42727D01*
X323622Y42581D01*
X324352Y42727D01*
X324970Y43140D01*
X325384Y43758D01*
X325529Y44488D01*
X325384Y45218D01*
X324970Y45836D01*
X324352Y46250D01*
X323622Y46395D01*
D02*
G37*
G36*
X307874Y46001D02*
X307144Y45856D01*
X306526Y45443D01*
X306112Y44824D01*
X305967Y44094D01*
X306112Y43365D01*
X306526Y42746D01*
X307144Y42333D01*
X307874Y42188D01*
X308604Y42333D01*
X309222Y42746D01*
X309636Y43365D01*
X309781Y44094D01*
X309636Y44824D01*
X309222Y45443D01*
X308604Y45856D01*
X307874Y46001D01*
D02*
G37*
G36*
X304331Y49545D02*
X303601Y49399D01*
X302982Y48986D01*
X302569Y48368D01*
X302424Y47638D01*
X302569Y46908D01*
X302982Y46290D01*
X303601Y45876D01*
X304331Y45731D01*
X305060Y45876D01*
X305679Y46290D01*
X306092Y46908D01*
X306237Y47638D01*
X306092Y48368D01*
X305679Y48986D01*
X305060Y49399D01*
X304331Y49545D01*
D02*
G37*
G36*
X127165Y49633D02*
X126343Y49525D01*
X125577Y49208D01*
X124919Y48703D01*
X124414Y48045D01*
X124097Y47279D01*
X123989Y46457D01*
X124097Y45634D01*
X124414Y44868D01*
X124919Y44210D01*
X125577Y43705D01*
X126343Y43388D01*
X127165Y43280D01*
X127988Y43388D01*
X128754Y43705D01*
X129412Y44210D01*
X129917Y44868D01*
X130234Y45634D01*
X130342Y46457D01*
X130234Y47279D01*
X129917Y48045D01*
X129412Y48703D01*
X128754Y49208D01*
X127988Y49525D01*
X127165Y49633D01*
D02*
G37*
G36*
X425197Y42153D02*
X424375Y42045D01*
X423608Y41728D01*
X422951Y41223D01*
X422446Y40565D01*
X422128Y39799D01*
X422020Y38976D01*
X422128Y38154D01*
X422446Y37388D01*
X422951Y36730D01*
X423608Y36225D01*
X424375Y35908D01*
X425197Y35800D01*
X426019Y35908D01*
X426785Y36225D01*
X427443Y36730D01*
X427948Y37388D01*
X428265Y38154D01*
X428374Y38976D01*
X428265Y39799D01*
X427948Y40565D01*
X427443Y41223D01*
X426785Y41728D01*
X426019Y42045D01*
X425197Y42153D01*
D02*
G37*
G36*
X124803Y41366D02*
X123981Y41258D01*
X123215Y40940D01*
X122557Y40435D01*
X122052Y39777D01*
X121735Y39011D01*
X121626Y38189D01*
X121735Y37367D01*
X122052Y36601D01*
X122557Y35943D01*
X123215Y35438D01*
X123981Y35120D01*
X124803Y35012D01*
X125625Y35120D01*
X126391Y35438D01*
X127050Y35943D01*
X127554Y36601D01*
X127872Y37367D01*
X127980Y38189D01*
X127872Y39011D01*
X127554Y39777D01*
X127050Y40435D01*
X126391Y40940D01*
X125625Y41258D01*
X124803Y41366D01*
D02*
G37*
G36*
X193701Y46381D02*
X193007Y46290D01*
X192361Y46022D01*
X191806Y45596D01*
X191379Y45041D01*
X191112Y44394D01*
X191020Y43701D01*
X191112Y43007D01*
X191379Y42361D01*
X191806Y41805D01*
X192361Y41379D01*
X193007Y41112D01*
X193701Y41020D01*
X194395Y41112D01*
X195041Y41379D01*
X195596Y41805D01*
X196022Y42361D01*
X196290Y43007D01*
X196381Y43701D01*
X196290Y44394D01*
X196022Y45041D01*
X195596Y45596D01*
X195041Y46022D01*
X194395Y46290D01*
X193701Y46381D01*
D02*
G37*
G36*
X264567Y39702D02*
X263837Y39557D01*
X263219Y39143D01*
X262805Y38525D01*
X262660Y37795D01*
X262805Y37066D01*
X263219Y36447D01*
X263837Y36034D01*
X264567Y35889D01*
X265297Y36034D01*
X265915Y36447D01*
X266329Y37066D01*
X266474Y37795D01*
X266329Y38525D01*
X265915Y39143D01*
X265297Y39557D01*
X264567Y39702D01*
D02*
G37*
G36*
X258268Y51893D02*
X257574Y51802D01*
X256927Y51534D01*
X256890Y51505D01*
X256852Y51534D01*
X256206Y51802D01*
X255512Y51893D01*
X254818Y51802D01*
X254172Y51534D01*
X253616Y51108D01*
X253190Y50553D01*
X252923Y49906D01*
X252831Y49213D01*
X252923Y48519D01*
X253190Y47872D01*
X253616Y47317D01*
X254172Y46891D01*
X254818Y46624D01*
X255512Y46532D01*
X256206Y46624D01*
X256852Y46891D01*
X256890Y46920D01*
X256927Y46891D01*
X257574Y46624D01*
X258268Y46532D01*
X258962Y46624D01*
X259608Y46891D01*
X260163Y47317D01*
X260589Y47872D01*
X260857Y48519D01*
X260948Y49213D01*
X260857Y49906D01*
X260589Y50553D01*
X260163Y51108D01*
X259608Y51534D01*
X258962Y51802D01*
X258268Y51893D01*
D02*
G37*
G36*
X90551Y55056D02*
X89821Y54911D01*
X89203Y54498D01*
X88790Y53879D01*
X88644Y53150D01*
X88790Y52420D01*
X89203Y51801D01*
X89821Y51388D01*
X90551Y51243D01*
X91281Y51388D01*
X91899Y51801D01*
X92313Y52420D01*
X92458Y53150D01*
X92313Y53879D01*
X91899Y54498D01*
X91281Y54911D01*
X90551Y55056D01*
D02*
G37*
G36*
X413779Y56326D02*
X412957Y56218D01*
X412191Y55901D01*
X411536Y55398D01*
X411422Y55314D01*
X411019D01*
X410905Y55398D01*
X410250Y55901D01*
X409484Y56218D01*
X408661Y56326D01*
X407839Y56218D01*
X407073Y55901D01*
X406418Y55398D01*
X406304Y55314D01*
X405900D01*
X405787Y55398D01*
X405132Y55901D01*
X404365Y56218D01*
X403543Y56326D01*
X402721Y56218D01*
X401955Y55901D01*
X401300Y55398D01*
X401186Y55314D01*
X400782D01*
X400668Y55398D01*
X400014Y55901D01*
X399247Y56218D01*
X398425Y56326D01*
X397603Y56218D01*
X396837Y55901D01*
X396179Y55396D01*
X395947D01*
X395289Y55901D01*
X394523Y56218D01*
X393701Y56326D01*
X392879Y56218D01*
X392112Y55901D01*
X391455Y55396D01*
X391223D01*
X390565Y55901D01*
X389799Y56218D01*
X388976Y56326D01*
X388154Y56218D01*
X387388Y55901D01*
X386733Y55398D01*
X386619Y55314D01*
X386215D01*
X386102Y55398D01*
X385447Y55901D01*
X384681Y56218D01*
X383858Y56326D01*
X383036Y56218D01*
X382270Y55901D01*
X381615Y55398D01*
X381501Y55314D01*
X381097D01*
X380983Y55398D01*
X380328Y55901D01*
X379562Y56218D01*
X378740Y56326D01*
X377918Y56218D01*
X377152Y55901D01*
X376497Y55398D01*
X376383Y55314D01*
X375979D01*
X375865Y55398D01*
X375210Y55901D01*
X374444Y56218D01*
X373622Y56326D01*
X372800Y56218D01*
X372034Y55901D01*
X371376Y55396D01*
X370871Y54738D01*
X370553Y53972D01*
X370445Y53150D01*
X370553Y52327D01*
X370871Y51561D01*
X371163Y51181D01*
X370871Y50801D01*
X370553Y50035D01*
X370445Y49213D01*
X370553Y48390D01*
X370871Y47624D01*
X371376Y46966D01*
X372034Y46461D01*
X372800Y46144D01*
X373622Y46036D01*
X374444Y46144D01*
X375210Y46461D01*
X375865Y46964D01*
X375979Y47048D01*
X376383D01*
X376497Y46964D01*
X377152Y46461D01*
X377918Y46144D01*
X378740Y46036D01*
X379562Y46144D01*
X380328Y46461D01*
X380983Y46964D01*
X381097Y47048D01*
X381501D01*
X381615Y46964D01*
X382270Y46461D01*
X383036Y46144D01*
X383858Y46036D01*
X384681Y46144D01*
X385447Y46461D01*
X386102Y46964D01*
X386215Y47048D01*
X386619D01*
X386733Y46964D01*
X387388Y46461D01*
X388154Y46144D01*
X388976Y46036D01*
X389799Y46144D01*
X390565Y46461D01*
X391223Y46966D01*
X391455D01*
X392112Y46461D01*
X392879Y46144D01*
X393701Y46036D01*
X394523Y46144D01*
X395289Y46461D01*
X395947Y46966D01*
X396179D01*
X396837Y46461D01*
X397603Y46144D01*
X398425Y46036D01*
X399247Y46144D01*
X400014Y46461D01*
X400668Y46964D01*
X400782Y47048D01*
X401186D01*
X401300Y46964D01*
X401955Y46461D01*
X402721Y46144D01*
X403543Y46036D01*
X404365Y46144D01*
X405132Y46461D01*
X405787Y46964D01*
X405900Y47048D01*
X406304D01*
X406418Y46964D01*
X407073Y46461D01*
X407839Y46144D01*
X408661Y46036D01*
X409484Y46144D01*
X410250Y46461D01*
X410905Y46964D01*
X411019Y47048D01*
X411422D01*
X411536Y46964D01*
X412191Y46461D01*
X412957Y46144D01*
X413779Y46036D01*
X414602Y46144D01*
X415368Y46461D01*
X416026Y46966D01*
X416531Y47624D01*
X416848Y48390D01*
X416956Y49213D01*
X416848Y50035D01*
X416531Y50801D01*
X416239Y51181D01*
X416531Y51561D01*
X416848Y52327D01*
X416956Y53150D01*
X416848Y53972D01*
X416531Y54738D01*
X416026Y55396D01*
X415368Y55901D01*
X414602Y56218D01*
X413779Y56326D01*
D02*
G37*
G36*
X241339Y58600D02*
X240609Y58455D01*
X239990Y58041D01*
X239577Y57423D01*
X239432Y56693D01*
X239577Y55963D01*
X239990Y55345D01*
X240609Y54931D01*
X241339Y54786D01*
X242068Y54931D01*
X242687Y55345D01*
X243100Y55963D01*
X243245Y56693D01*
X243100Y57423D01*
X242687Y58041D01*
X242068Y58455D01*
X241339Y58600D01*
D02*
G37*
G36*
X84646Y55056D02*
X83916Y54911D01*
X83297Y54498D01*
X82884Y53879D01*
X82739Y53150D01*
X82884Y52420D01*
X83297Y51801D01*
X83916Y51388D01*
X84646Y51243D01*
X85375Y51388D01*
X85994Y51801D01*
X86407Y52420D01*
X86552Y53150D01*
X86407Y53879D01*
X85994Y54498D01*
X85375Y54911D01*
X84646Y55056D01*
D02*
G37*
G36*
X177756Y53570D02*
X176934Y53462D01*
X176168Y53145D01*
X175510Y52640D01*
X175005Y51982D01*
X174687Y51216D01*
X174579Y50394D01*
X174687Y49571D01*
X175005Y48805D01*
X175510Y48147D01*
X176168Y47642D01*
X176934Y47325D01*
X177756Y47217D01*
X178578Y47325D01*
X179344Y47642D01*
X180002Y48147D01*
X180507Y48805D01*
X180824Y49571D01*
X180933Y50394D01*
X180824Y51216D01*
X180507Y51982D01*
X180002Y52640D01*
X179344Y53145D01*
X178578Y53462D01*
X177756Y53570D01*
D02*
G37*
G36*
X517717Y46484D02*
X516894Y46376D01*
X516128Y46058D01*
X515748Y45767D01*
X515368Y46058D01*
X514602Y46376D01*
X513779Y46484D01*
X512957Y46376D01*
X512191Y46058D01*
X511533Y45553D01*
X511028Y44895D01*
X510711Y44129D01*
X510603Y43307D01*
X510711Y42485D01*
X511028Y41719D01*
X511533Y41061D01*
X512191Y40556D01*
X512957Y40239D01*
X513779Y40130D01*
X514602Y40239D01*
X515368Y40556D01*
X515748Y40848D01*
X516128Y40556D01*
X516894Y40239D01*
X517717Y40130D01*
X518539Y40239D01*
X519305Y40556D01*
X519963Y41061D01*
X520468Y41719D01*
X520785Y42485D01*
X520893Y43307D01*
X520785Y44129D01*
X520468Y44895D01*
X519963Y45553D01*
X519305Y46058D01*
X518539Y46376D01*
X517717Y46484D01*
D02*
G37*
G36*
X362205Y52694D02*
X361475Y52549D01*
X360857Y52136D01*
X360443Y51517D01*
X360298Y50787D01*
X360443Y50058D01*
X360857Y49439D01*
X361475Y49026D01*
X362205Y48881D01*
X362934Y49026D01*
X363553Y49439D01*
X363966Y50058D01*
X364111Y50787D01*
X363966Y51517D01*
X363553Y52136D01*
X362934Y52549D01*
X362205Y52694D01*
D02*
G37*
G36*
X336221Y51907D02*
X335491Y51762D01*
X334872Y51348D01*
X334459Y50730D01*
X334314Y50000D01*
X334459Y49270D01*
X334872Y48652D01*
X335491Y48238D01*
X336221Y48093D01*
X336950Y48238D01*
X337569Y48652D01*
X337982Y49270D01*
X338127Y50000D01*
X337982Y50730D01*
X337569Y51348D01*
X336950Y51762D01*
X336221Y51907D01*
D02*
G37*
G36*
X311024Y29466D02*
X310294Y29321D01*
X309675Y28907D01*
X309262Y28289D01*
X309117Y27559D01*
X309262Y26829D01*
X309675Y26211D01*
X310294Y25798D01*
X311024Y25652D01*
X311753Y25798D01*
X312372Y26211D01*
X312785Y26829D01*
X312930Y27559D01*
X312785Y28289D01*
X312372Y28907D01*
X311753Y29321D01*
X311024Y29466D01*
D02*
G37*
G36*
X127165Y31523D02*
X126343Y31415D01*
X125577Y31098D01*
X124919Y30593D01*
X124414Y29935D01*
X124097Y29169D01*
X123989Y28346D01*
X124097Y27524D01*
X124414Y26758D01*
X124919Y26100D01*
X125577Y25595D01*
X126343Y25278D01*
X127165Y25170D01*
X127988Y25278D01*
X128754Y25595D01*
X129412Y26100D01*
X129917Y26758D01*
X130234Y27524D01*
X130342Y28346D01*
X130234Y29169D01*
X129917Y29935D01*
X129412Y30593D01*
X128754Y31098D01*
X127988Y31415D01*
X127165Y31523D01*
D02*
G37*
G36*
X284646Y28678D02*
X283916Y28533D01*
X283297Y28120D01*
X282884Y27501D01*
X282739Y26772D01*
X282768Y26628D01*
X282337Y26227D01*
X281890Y26316D01*
X281160Y26171D01*
X280541Y25758D01*
X280128Y25139D01*
X279983Y24409D01*
X280062Y24015D01*
X279612Y23714D01*
X279470Y23809D01*
X278740Y23954D01*
X278011Y23809D01*
X277392Y23395D01*
X276939D01*
X276320Y23809D01*
X275590Y23954D01*
X274861Y23809D01*
X274242Y23395D01*
X273829Y22777D01*
X273684Y22047D01*
X273829Y21318D01*
X274242Y20699D01*
X274861Y20286D01*
X275590Y20141D01*
X276320Y20286D01*
X276939Y20699D01*
X277392D01*
X278011Y20286D01*
X278740Y20141D01*
X279470Y20286D01*
X280088Y20699D01*
X280353Y21095D01*
X280398Y21162D01*
X280869Y20967D01*
X280855Y20896D01*
X280770Y20472D01*
X280916Y19743D01*
X281329Y19124D01*
X281947Y18711D01*
X282677Y18566D01*
X282804Y18591D01*
X283158Y18237D01*
X283133Y18110D01*
X283278Y17381D01*
X283691Y16762D01*
X284310Y16349D01*
X285039Y16204D01*
X285167Y16229D01*
X285520Y15875D01*
X285495Y15748D01*
X285640Y15018D01*
X286053Y14400D01*
X286672Y13986D01*
X287402Y13841D01*
X287849Y13930D01*
X288279Y13530D01*
X288251Y13386D01*
X288396Y12656D01*
X288809Y12038D01*
X289428Y11624D01*
X290158Y11479D01*
X290524Y11552D01*
X290961Y11430D01*
X291053Y11186D01*
X291152Y10688D01*
X291565Y10069D01*
X292184Y9656D01*
X292913Y9511D01*
X293041Y9536D01*
X293394Y9182D01*
X293369Y9055D01*
X293514Y8325D01*
X293927Y7707D01*
X294546Y7294D01*
X295276Y7148D01*
X296005Y7294D01*
X296624Y7707D01*
X297037Y8325D01*
X297182Y9055D01*
X297037Y9785D01*
X296624Y10403D01*
X296005Y10817D01*
X295276Y10962D01*
X295148Y10937D01*
X294795Y11290D01*
X294820Y11417D01*
X294675Y12147D01*
X294262Y12766D01*
X293643Y13179D01*
X292913Y13324D01*
X292547Y13251D01*
X292110Y13373D01*
X292018Y13617D01*
X291919Y14116D01*
X291506Y14734D01*
X290887Y15147D01*
X290158Y15292D01*
X289710Y15203D01*
X289280Y15604D01*
X289308Y15748D01*
X289163Y16478D01*
X288750Y17096D01*
X288131Y17510D01*
X287402Y17655D01*
X287274Y17629D01*
X286921Y17983D01*
X286946Y18110D01*
X286801Y18840D01*
X286388Y19458D01*
X285769Y19872D01*
X285039Y20017D01*
X284912Y19992D01*
X284559Y20345D01*
X284584Y20472D01*
X284439Y21202D01*
X284025Y21821D01*
X283407Y22234D01*
X283016Y22312D01*
X282911Y22842D01*
X283238Y23061D01*
X283651Y23680D01*
X283797Y24409D01*
X283768Y24554D01*
X284198Y24954D01*
X284646Y24865D01*
X285375Y25010D01*
X285994Y25423D01*
X286407Y26042D01*
X286552Y26772D01*
X286407Y27501D01*
X285994Y28120D01*
X285375Y28533D01*
X284646Y28678D01*
D02*
G37*
G36*
X343307Y29072D02*
X342577Y28927D01*
X341959Y28514D01*
X341546Y27895D01*
X341400Y27165D01*
X341546Y26436D01*
X341670Y26249D01*
X341310Y25889D01*
X340887Y26171D01*
X340158Y26316D01*
X339428Y26171D01*
X338809Y25758D01*
X338396Y25139D01*
X338251Y24409D01*
X338396Y23680D01*
X338809Y23061D01*
X339428Y22648D01*
X340158Y22503D01*
X340887Y22648D01*
X340923Y22672D01*
X341478Y22442D01*
X341546Y22105D01*
X341959Y21486D01*
X342577Y21073D01*
X343307Y20928D01*
X344037Y21073D01*
X344655Y21486D01*
X345069Y22105D01*
X345214Y22835D01*
X345069Y23564D01*
X344655Y24183D01*
X344037Y24596D01*
X343307Y24741D01*
X342577Y24596D01*
X342542Y24572D01*
X341986Y24802D01*
X341919Y25139D01*
X341794Y25326D01*
X342155Y25686D01*
X342577Y25404D01*
X343307Y25259D01*
X344037Y25404D01*
X344655Y25817D01*
X345069Y26436D01*
X345214Y27165D01*
X345069Y27895D01*
X344655Y28514D01*
X344037Y28927D01*
X343307Y29072D01*
D02*
G37*
G36*
X320472Y28285D02*
X319743Y28139D01*
X319124Y27726D01*
X318711Y27108D01*
X318566Y26378D01*
X318711Y25648D01*
X319124Y25030D01*
X319743Y24616D01*
X320472Y24471D01*
X321202Y24616D01*
X321821Y25030D01*
X322234Y25648D01*
X322379Y26378D01*
X322234Y27108D01*
X321821Y27726D01*
X321202Y28139D01*
X320472Y28285D01*
D02*
G37*
G36*
X301181Y27497D02*
X300451Y27352D01*
X299833Y26939D01*
X299419Y26320D01*
X299274Y25591D01*
X299419Y24861D01*
X299833Y24242D01*
X300451Y23829D01*
X301181Y23684D01*
X301911Y23829D01*
X302529Y24242D01*
X302943Y24861D01*
X303088Y25591D01*
X302943Y26320D01*
X302529Y26939D01*
X301911Y27352D01*
X301181Y27497D01*
D02*
G37*
G36*
X193701Y28271D02*
X193007Y28180D01*
X192361Y27912D01*
X191806Y27486D01*
X191379Y26931D01*
X191112Y26284D01*
X191020Y25591D01*
X191112Y24897D01*
X191379Y24250D01*
X191806Y23695D01*
X192361Y23269D01*
X193007Y23001D01*
X193701Y22910D01*
X194395Y23001D01*
X195041Y23269D01*
X195596Y23695D01*
X196022Y24250D01*
X196290Y24897D01*
X196381Y25591D01*
X196290Y26284D01*
X196022Y26931D01*
X195596Y27486D01*
X195041Y27912D01*
X194395Y28180D01*
X193701Y28271D01*
D02*
G37*
G36*
X270472Y27891D02*
X269743Y27746D01*
X269124Y27332D01*
X268711Y26714D01*
X268566Y25984D01*
X268711Y25255D01*
X269124Y24636D01*
X269743Y24223D01*
X270472Y24078D01*
X271202Y24223D01*
X271821Y24636D01*
X272234Y25255D01*
X272379Y25984D01*
X272234Y26714D01*
X271821Y27332D01*
X271202Y27746D01*
X270472Y27891D01*
D02*
G37*
G36*
X261024D02*
X260294Y27746D01*
X259675Y27332D01*
X259262Y26714D01*
X259117Y25984D01*
X259262Y25255D01*
X259675Y24636D01*
X260294Y24223D01*
X261024Y24078D01*
X261753Y24223D01*
X262372Y24636D01*
X262785Y25255D01*
X262930Y25984D01*
X262785Y26714D01*
X262372Y27332D01*
X261753Y27746D01*
X261024Y27891D01*
D02*
G37*
G36*
Y36552D02*
X260294Y36407D01*
X259675Y35994D01*
X259262Y35375D01*
X259117Y34646D01*
X259262Y33916D01*
X259675Y33297D01*
X260294Y32884D01*
X261024Y32739D01*
X261753Y32884D01*
X262372Y33297D01*
X262785Y33916D01*
X262930Y34646D01*
X262785Y35375D01*
X262372Y35994D01*
X261753Y36407D01*
X261024Y36552D01*
D02*
G37*
G36*
X366142Y44019D02*
X365448Y43928D01*
X364802Y43660D01*
X364246Y43234D01*
X363820Y42679D01*
X363553Y42032D01*
X363461Y41339D01*
X363553Y40645D01*
X363820Y39998D01*
X364246Y39443D01*
Y39297D01*
X363820Y38742D01*
X363553Y38095D01*
X363461Y37402D01*
X363553Y36708D01*
X363820Y36061D01*
X364013Y35811D01*
X364209Y35433D01*
X364013Y35055D01*
X363820Y34805D01*
X363553Y34158D01*
X363461Y33465D01*
X363553Y32771D01*
X363820Y32124D01*
X364246Y31569D01*
X364802Y31143D01*
X365448Y30876D01*
X366142Y30784D01*
X366835Y30876D01*
X367482Y31143D01*
X368037Y31569D01*
X368463Y32124D01*
X368731Y32771D01*
X368822Y33465D01*
X368731Y34158D01*
X368463Y34805D01*
X368271Y35055D01*
X368075Y35433D01*
X368271Y35811D01*
X368463Y36061D01*
X368731Y36708D01*
X368822Y37402D01*
X368731Y38095D01*
X368463Y38742D01*
X368037Y39297D01*
Y39443D01*
X368463Y39998D01*
X368731Y40645D01*
X368822Y41339D01*
X368731Y42032D01*
X368463Y42679D01*
X368037Y43234D01*
X367482Y43660D01*
X366835Y43928D01*
X366142Y44019D01*
D02*
G37*
G36*
X313386Y40489D02*
X312656Y40344D01*
X312038Y39931D01*
X311624Y39312D01*
X311479Y38583D01*
X311624Y37853D01*
X312038Y37234D01*
X312656Y36821D01*
X313386Y36676D01*
X314116Y36821D01*
X314257Y36916D01*
X314707Y36615D01*
X314629Y36220D01*
X314774Y35491D01*
X315187Y34872D01*
X315806Y34459D01*
X316535Y34314D01*
X317265Y34459D01*
X317884Y34872D01*
X318297Y35491D01*
X318442Y36220D01*
X318297Y36950D01*
X317884Y37569D01*
X317265Y37982D01*
X316535Y38127D01*
X315806Y37982D01*
X315664Y37887D01*
X315214Y38188D01*
X315293Y38583D01*
X315147Y39312D01*
X314734Y39931D01*
X314116Y40344D01*
X313386Y40489D01*
D02*
G37*
G36*
X291732Y37340D02*
X291003Y37195D01*
X290384Y36781D01*
X289971Y36163D01*
X289826Y35433D01*
X289971Y34703D01*
X290384Y34085D01*
X291003Y33672D01*
X291732Y33526D01*
X292462Y33672D01*
X293080Y34085D01*
X293494Y34703D01*
X293639Y35433D01*
X293494Y36163D01*
X293080Y36781D01*
X292462Y37195D01*
X291732Y37340D01*
D02*
G37*
G36*
X295276Y33797D02*
X294546Y33651D01*
X293927Y33238D01*
X293514Y32619D01*
X293369Y31890D01*
X293514Y31160D01*
X293927Y30542D01*
X294546Y30128D01*
X295276Y29983D01*
X296005Y30128D01*
X296624Y30542D01*
X297037Y31160D01*
X297182Y31890D01*
X297037Y32619D01*
X296624Y33238D01*
X296005Y33651D01*
X295276Y33797D01*
D02*
G37*
G36*
X288976Y33009D02*
X288247Y32864D01*
X287628Y32451D01*
X287215Y31832D01*
X287070Y31102D01*
X287215Y30373D01*
X287628Y29754D01*
X288247Y29341D01*
X288976Y29196D01*
X289104Y29221D01*
X289457Y28867D01*
X289432Y28740D01*
X289577Y28010D01*
X289990Y27392D01*
X290609Y26979D01*
X291339Y26833D01*
X292068Y26979D01*
X292687Y27392D01*
X293100Y28010D01*
X293245Y28740D01*
X293100Y29470D01*
X292687Y30088D01*
X292068Y30502D01*
X291339Y30647D01*
X291211Y30622D01*
X290858Y30975D01*
X290883Y31102D01*
X290738Y31832D01*
X290325Y32451D01*
X289706Y32864D01*
X288976Y33009D01*
D02*
G37*
G36*
X83858Y32704D02*
X83036Y32596D01*
X82270Y32279D01*
X81612Y31774D01*
X81107Y31116D01*
X80790Y30350D01*
X80682Y29528D01*
X80790Y28705D01*
X81107Y27939D01*
X81612Y27281D01*
X82270Y26776D01*
X83036Y26459D01*
X83858Y26351D01*
X84680Y26459D01*
X85447Y26776D01*
X86105Y27281D01*
X86609Y27939D01*
X86927Y28705D01*
X87035Y29528D01*
X86927Y30350D01*
X86609Y31116D01*
X86105Y31774D01*
X85447Y32279D01*
X84680Y32596D01*
X83858Y32704D01*
D02*
G37*
G36*
X318898Y33009D02*
X318168Y32864D01*
X317549Y32451D01*
X317136Y31832D01*
X316991Y31102D01*
X317136Y30373D01*
X317549Y29754D01*
X318168Y29341D01*
X318898Y29196D01*
X319627Y29341D01*
X320246Y29754D01*
X320659Y30373D01*
X320804Y31102D01*
X320659Y31832D01*
X320246Y32451D01*
X319627Y32864D01*
X318898Y33009D01*
D02*
G37*
G36*
X177756Y35460D02*
X176934Y35352D01*
X176168Y35035D01*
X175510Y34530D01*
X175005Y33872D01*
X174687Y33106D01*
X174579Y32283D01*
X174687Y31461D01*
X175005Y30695D01*
X175510Y30037D01*
X176168Y29532D01*
X176934Y29215D01*
X177756Y29107D01*
X178578Y29215D01*
X179344Y29532D01*
X180002Y30037D01*
X180507Y30695D01*
X180824Y31461D01*
X180933Y32283D01*
X180824Y33106D01*
X180507Y33872D01*
X180002Y34530D01*
X179344Y35035D01*
X178578Y35352D01*
X177756Y35460D01*
D02*
G37*
G36*
X337008Y95214D02*
X336278Y95069D01*
X335660Y94655D01*
X335246Y94037D01*
X335101Y93307D01*
X335246Y92577D01*
X335660Y91959D01*
X336278Y91545D01*
X337008Y91400D01*
X337737Y91545D01*
X338356Y91959D01*
X338769Y92577D01*
X338915Y93307D01*
X338769Y94037D01*
X338356Y94655D01*
X337737Y95069D01*
X337008Y95214D01*
D02*
G37*
G36*
X307480Y101513D02*
X306751Y101368D01*
X306132Y100954D01*
X305719Y100336D01*
X305574Y99606D01*
X305719Y98877D01*
X306132Y98258D01*
Y97805D01*
X305719Y97186D01*
X305574Y96457D01*
X305719Y95727D01*
X306132Y95108D01*
Y94655D01*
X305719Y94037D01*
X305574Y93307D01*
X305719Y92577D01*
X306132Y91959D01*
X306751Y91545D01*
X307480Y91400D01*
X308210Y91545D01*
X308829Y91959D01*
X309242Y92577D01*
X309387Y93307D01*
X309242Y94037D01*
X308829Y94655D01*
Y95108D01*
X309242Y95727D01*
X309387Y96457D01*
X309242Y97186D01*
X308829Y97805D01*
Y98258D01*
X309242Y98877D01*
X309387Y99606D01*
X309242Y100336D01*
X308829Y100954D01*
X308210Y101368D01*
X307480Y101513D01*
D02*
G37*
G36*
X408701Y99300D02*
X407262Y99110D01*
X405921Y98555D01*
X404770Y97671D01*
X403997Y96664D01*
X403862Y96623D01*
X403540D01*
X403405Y96664D01*
X402632Y97671D01*
X401480Y98555D01*
X400140Y99110D01*
X398701Y99300D01*
X397262Y99110D01*
X395921Y98555D01*
X394770Y97671D01*
X393997Y96664D01*
X393862Y96623D01*
X393540D01*
X393405Y96664D01*
X392632Y97671D01*
X391480Y98555D01*
X390140Y99110D01*
X388701Y99300D01*
X387262Y99110D01*
X385921Y98555D01*
X384770Y97671D01*
X383997Y96664D01*
X383862Y96623D01*
X383540D01*
X383405Y96664D01*
X382632Y97671D01*
X381481Y98555D01*
X380140Y99110D01*
X378701Y99300D01*
X377262Y99110D01*
X375921Y98555D01*
X374770Y97671D01*
X373886Y96520D01*
X373331Y95179D01*
X373141Y93740D01*
X373331Y92301D01*
X373886Y90961D01*
X374770Y89809D01*
X375777Y89036D01*
X375817Y88901D01*
Y88579D01*
X375777Y88444D01*
X374770Y87671D01*
X373886Y86520D01*
X373331Y85179D01*
X373141Y83740D01*
X373331Y82301D01*
X373886Y80961D01*
X374770Y79809D01*
X375777Y79036D01*
X375817Y78901D01*
Y78579D01*
X375777Y78444D01*
X374770Y77671D01*
X373886Y76520D01*
X373331Y75179D01*
X373141Y73740D01*
X373331Y72301D01*
X373886Y70960D01*
X374770Y69809D01*
X375777Y69036D01*
X375817Y68901D01*
Y68579D01*
X375777Y68444D01*
X374770Y67671D01*
X373886Y66520D01*
X373331Y65179D01*
X373141Y63740D01*
X373331Y62301D01*
X373886Y60961D01*
X374770Y59809D01*
X375921Y58926D01*
X377262Y58370D01*
X378701Y58181D01*
X380140Y58370D01*
X381481Y58926D01*
X382632Y59809D01*
X383405Y60816D01*
X383540Y60857D01*
X383862D01*
X383997Y60816D01*
X384770Y59809D01*
X385921Y58926D01*
X387262Y58370D01*
X388701Y58181D01*
X390140Y58370D01*
X391480Y58926D01*
X392632Y59809D01*
X393405Y60816D01*
X393540Y60857D01*
X393862D01*
X393997Y60816D01*
X394770Y59809D01*
X395921Y58926D01*
X397262Y58370D01*
X398701Y58181D01*
X400140Y58370D01*
X401480Y58926D01*
X402632Y59809D01*
X403405Y60816D01*
X403540Y60857D01*
X403862D01*
X403997Y60816D01*
X404770Y59809D01*
X405921Y58926D01*
X407262Y58370D01*
X408701Y58181D01*
X410140Y58370D01*
X411481Y58926D01*
X412632Y59809D01*
X413515Y60961D01*
X414071Y62301D01*
X414260Y63740D01*
X414071Y65179D01*
X413515Y66520D01*
X412632Y67671D01*
X411625Y68444D01*
X411584Y68579D01*
Y68901D01*
X411625Y69036D01*
X412632Y69809D01*
X413515Y70960D01*
X414071Y72301D01*
X414260Y73740D01*
X414071Y75179D01*
X413515Y76520D01*
X412632Y77671D01*
X411625Y78444D01*
X411584Y78579D01*
Y78901D01*
X411625Y79036D01*
X412632Y79809D01*
X413515Y80961D01*
X414071Y82301D01*
X414260Y83740D01*
X414071Y85179D01*
X413515Y86520D01*
X412632Y87671D01*
X411625Y88444D01*
X411584Y88579D01*
Y88901D01*
X411625Y89036D01*
X412632Y89809D01*
X413515Y90961D01*
X414071Y92301D01*
X414260Y93740D01*
X414071Y95179D01*
X413515Y96520D01*
X412632Y97671D01*
X411481Y98555D01*
X410140Y99110D01*
X408701Y99300D01*
D02*
G37*
G36*
X193701Y100712D02*
X193007Y100621D01*
X192361Y100353D01*
X191806Y99927D01*
X191379Y99372D01*
X191112Y98725D01*
X191020Y98032D01*
X191112Y97338D01*
X191379Y96691D01*
X191806Y96136D01*
X192361Y95710D01*
X193007Y95442D01*
X193701Y95351D01*
X194395Y95442D01*
X195041Y95710D01*
X195596Y96136D01*
X196022Y96691D01*
X196290Y97338D01*
X196381Y98032D01*
X196290Y98725D01*
X196022Y99372D01*
X195596Y99927D01*
X195041Y100353D01*
X194395Y100621D01*
X193701Y100712D01*
D02*
G37*
G36*
X263386Y94426D02*
X262656Y94281D01*
X262038Y93868D01*
X261624Y93249D01*
X261479Y92520D01*
X261624Y91790D01*
X262038Y91171D01*
X262656Y90758D01*
X263386Y90613D01*
X264116Y90758D01*
X264734Y91171D01*
X265147Y91790D01*
X265293Y92520D01*
X265147Y93249D01*
X264734Y93868D01*
X264116Y94281D01*
X263386Y94426D01*
D02*
G37*
G36*
X303937Y91671D02*
X303207Y91525D01*
X302589Y91112D01*
X302175Y90493D01*
X302030Y89764D01*
X302175Y89034D01*
X302589Y88415D01*
X303207Y88002D01*
X303937Y87857D01*
X304667Y88002D01*
X305285Y88415D01*
X305699Y89034D01*
X305844Y89764D01*
X305699Y90493D01*
X305285Y91112D01*
X304667Y91525D01*
X303937Y91671D01*
D02*
G37*
G36*
X221260Y92064D02*
X220530Y91919D01*
X219912Y91506D01*
X219498Y90887D01*
X219353Y90158D01*
X219498Y89428D01*
X219912Y88809D01*
Y88356D01*
X219498Y87738D01*
X219353Y87008D01*
X219498Y86278D01*
X219912Y85660D01*
X220530Y85246D01*
X221260Y85101D01*
X221989Y85246D01*
X222608Y85660D01*
X223021Y86278D01*
X223167Y87008D01*
X223021Y87738D01*
X222608Y88356D01*
Y88809D01*
X223021Y89428D01*
X223167Y90158D01*
X223021Y90887D01*
X222608Y91506D01*
X221989Y91919D01*
X221260Y92064D01*
D02*
G37*
G36*
X255906Y99137D02*
X255212Y99046D01*
X254565Y98778D01*
X254010Y98352D01*
X253584Y97797D01*
X253316Y97150D01*
X253225Y96457D01*
X253316Y95763D01*
X253584Y95117D01*
X253777Y94866D01*
X253972Y94488D01*
X253777Y94111D01*
X253584Y93860D01*
X253316Y93213D01*
X253225Y92520D01*
X253316Y91826D01*
X253584Y91180D01*
X254010Y90624D01*
X254565Y90198D01*
X255212Y89931D01*
X255906Y89839D01*
X256599Y89931D01*
X257246Y90198D01*
X257801Y90624D01*
X258227Y91180D01*
X258495Y91826D01*
X258586Y92520D01*
X258495Y93213D01*
X258227Y93860D01*
X258034Y94111D01*
X257839Y94488D01*
X258034Y94866D01*
X258227Y95117D01*
X258495Y95763D01*
X258586Y96457D01*
X258495Y97150D01*
X258227Y97797D01*
X257801Y98352D01*
X257246Y98778D01*
X256599Y99046D01*
X255906Y99137D01*
D02*
G37*
G36*
X344882Y88521D02*
X344152Y88376D01*
X343534Y87962D01*
X343080D01*
X342462Y88376D01*
X341732Y88521D01*
X341003Y88376D01*
X340384Y87962D01*
X339971Y87344D01*
X339826Y86614D01*
X339971Y85884D01*
X340384Y85266D01*
X341003Y84853D01*
X341732Y84707D01*
X342462Y84853D01*
X343080Y85266D01*
X343534D01*
X344152Y84853D01*
X344882Y84707D01*
X345612Y84853D01*
X346230Y85266D01*
X346643Y85884D01*
X346789Y86614D01*
X346643Y87344D01*
X346230Y87962D01*
X345612Y88376D01*
X344882Y88521D01*
D02*
G37*
G36*
X533465Y103968D02*
X533464Y103968D01*
X490158D01*
X490158Y103968D01*
X489543Y103846D01*
X489022Y103498D01*
X487054Y101529D01*
X486706Y101008D01*
X486583Y100394D01*
X486583Y100394D01*
Y57087D01*
X486583Y57087D01*
X486706Y56472D01*
X487054Y55951D01*
X489022Y53983D01*
X489543Y53635D01*
X490158Y53513D01*
X490158Y53513D01*
X533464D01*
X533465Y53513D01*
X534079Y53635D01*
X534600Y53983D01*
X536568Y55951D01*
X536916Y56472D01*
X537039Y57087D01*
X537039Y57087D01*
Y100394D01*
X537039Y100394D01*
X536916Y101008D01*
X536568Y101529D01*
X534600Y103498D01*
X534079Y103846D01*
X533977Y103866D01*
X533465Y103968D01*
D02*
G37*
G36*
X120079Y109476D02*
X119256Y109368D01*
X118490Y109050D01*
X117832Y108545D01*
X117328Y107888D01*
X117010Y107121D01*
X116902Y106299D01*
X117010Y105477D01*
X117328Y104711D01*
X117832Y104053D01*
X118490Y103548D01*
X119256Y103231D01*
X120079Y103122D01*
X120901Y103231D01*
X121667Y103548D01*
X122325Y104053D01*
X122830Y104711D01*
X123147Y105477D01*
X123256Y106299D01*
X123147Y107121D01*
X122830Y107888D01*
X122325Y108545D01*
X121667Y109050D01*
X120901Y109368D01*
X120079Y109476D01*
D02*
G37*
G36*
X366535Y110174D02*
X365806Y110029D01*
X365187Y109616D01*
X365128D01*
X364509Y110029D01*
X363779Y110174D01*
X363050Y110029D01*
X362431Y109616D01*
X362018Y108997D01*
X361873Y108268D01*
X362018Y107538D01*
X362431Y106920D01*
X363050Y106506D01*
X363779Y106361D01*
X364509Y106506D01*
X365128Y106920D01*
X365187D01*
X365806Y106506D01*
X366535Y106361D01*
X367265Y106506D01*
X367884Y106920D01*
X368297Y107538D01*
X368442Y108268D01*
X368297Y108997D01*
X367884Y109616D01*
X367265Y110029D01*
X366535Y110174D01*
D02*
G37*
G36*
X381890Y112523D02*
X381196Y112432D01*
X380550Y112164D01*
X379994Y111738D01*
X379569Y111183D01*
X379301Y110536D01*
X379209Y109843D01*
X379301Y109149D01*
X379569Y108502D01*
X379749Y108268D01*
X379569Y108033D01*
X379301Y107387D01*
X379209Y106693D01*
X379301Y105999D01*
X379569Y105353D01*
X379994Y104798D01*
X380550Y104372D01*
X381196Y104104D01*
X381890Y104013D01*
X382583Y104104D01*
X383230Y104372D01*
X383785Y104798D01*
X384211Y105353D01*
X384479Y105999D01*
X384570Y106693D01*
X384479Y107387D01*
X384211Y108033D01*
X384031Y108268D01*
X384211Y108502D01*
X384479Y109149D01*
X384570Y109843D01*
X384479Y110536D01*
X384211Y111183D01*
X383785Y111738D01*
X383230Y112164D01*
X382583Y112432D01*
X381890Y112523D01*
D02*
G37*
G36*
X283465Y108600D02*
X282735Y108455D01*
X282116Y108041D01*
X281703Y107423D01*
X281558Y106693D01*
X281703Y105963D01*
X282116Y105345D01*
Y104892D01*
X281703Y104273D01*
X281558Y103543D01*
X281703Y102814D01*
X282116Y102195D01*
X282735Y101782D01*
X283465Y101637D01*
X284194Y101782D01*
X284813Y102195D01*
X285226Y102814D01*
X285371Y103543D01*
X285226Y104273D01*
X284813Y104892D01*
Y105345D01*
X285226Y105963D01*
X285371Y106693D01*
X285226Y107423D01*
X284813Y108041D01*
X284194Y108455D01*
X283465Y108600D01*
D02*
G37*
G36*
X341732Y104269D02*
X341003Y104124D01*
X340384Y103710D01*
X339971Y103092D01*
X339826Y102362D01*
X339971Y101632D01*
X340384Y101014D01*
X341003Y100601D01*
X341732Y100455D01*
X342462Y100601D01*
X343080Y101014D01*
X343494Y101632D01*
X343639Y102362D01*
X343494Y103092D01*
X343080Y103710D01*
X342462Y104124D01*
X341732Y104269D01*
D02*
G37*
G36*
X127165Y103964D02*
X126343Y103856D01*
X125577Y103539D01*
X124919Y103034D01*
X124414Y102376D01*
X124097Y101610D01*
X123989Y100787D01*
X124097Y99965D01*
X124414Y99199D01*
X124919Y98541D01*
X125577Y98036D01*
X126343Y97719D01*
X127165Y97611D01*
X127988Y97719D01*
X128754Y98036D01*
X129412Y98541D01*
X129917Y99199D01*
X130234Y99965D01*
X130342Y100787D01*
X130234Y101610D01*
X129917Y102376D01*
X129412Y103034D01*
X128754Y103539D01*
X127988Y103856D01*
X127165Y103964D01*
D02*
G37*
G36*
X273622Y108600D02*
X272892Y108455D01*
X272274Y108041D01*
X271861Y107423D01*
X271715Y106693D01*
X271861Y105963D01*
X272274Y105345D01*
Y104892D01*
X271861Y104273D01*
X271715Y103543D01*
X271861Y102814D01*
X272274Y102195D01*
X272892Y101782D01*
X273622Y101637D01*
X274352Y101782D01*
X274970Y102195D01*
X275384Y102814D01*
X275529Y103543D01*
X275384Y104273D01*
X274970Y104892D01*
Y105345D01*
X275384Y105963D01*
X275529Y106693D01*
X275384Y107423D01*
X274970Y108041D01*
X274352Y108455D01*
X273622Y108600D01*
D02*
G37*
G36*
X177756Y107901D02*
X176934Y107793D01*
X176168Y107476D01*
X175510Y106971D01*
X175005Y106313D01*
X174687Y105547D01*
X174579Y104724D01*
X174687Y103902D01*
X175005Y103136D01*
X175510Y102478D01*
X176168Y101973D01*
X176934Y101656D01*
X177756Y101548D01*
X178578Y101656D01*
X179344Y101973D01*
X180002Y102478D01*
X180507Y103136D01*
X180824Y103902D01*
X180933Y104724D01*
X180824Y105547D01*
X180507Y106313D01*
X180002Y106971D01*
X179344Y107476D01*
X178578Y107793D01*
X177756Y107901D01*
D02*
G37*
G36*
X98425Y95023D02*
X96300Y94884D01*
X94211Y94468D01*
X92194Y93784D01*
X90284Y92842D01*
X88513Y91658D01*
X86911Y90254D01*
X85507Y88653D01*
X84324Y86882D01*
X83382Y84971D01*
X82697Y82955D01*
X82282Y80866D01*
X82142Y78740D01*
X82282Y76615D01*
X82697Y74526D01*
X83382Y72509D01*
X84324Y70599D01*
X85507Y68828D01*
X86911Y67226D01*
X88513Y65822D01*
X90284Y64639D01*
X92194Y63697D01*
X94211Y63012D01*
X96300Y62597D01*
X98425Y62457D01*
X100550Y62597D01*
X102639Y63012D01*
X104656Y63697D01*
X106567Y64639D01*
X108338Y65822D01*
X109939Y67226D01*
X111343Y68828D01*
X112527Y70599D01*
X113469Y72509D01*
X114153Y74526D01*
X114569Y76615D01*
X114708Y78740D01*
X114569Y80866D01*
X114153Y82955D01*
X113469Y84971D01*
X112527Y86882D01*
X111343Y88653D01*
X109939Y90254D01*
X108338Y91658D01*
X106567Y92842D01*
X104656Y93784D01*
X102639Y94468D01*
X100550Y94884D01*
X98425Y95023D01*
D02*
G37*
G36*
X339764Y68442D02*
X339034Y68297D01*
X338416Y67884D01*
X338002Y67265D01*
X337857Y66535D01*
X338002Y65806D01*
X338416Y65187D01*
Y65128D01*
X338002Y64509D01*
X337857Y63779D01*
X338002Y63050D01*
X338416Y62431D01*
X339034Y62018D01*
X339764Y61873D01*
X340493Y62018D01*
X341112Y62431D01*
X341525Y63050D01*
X341670Y63779D01*
X341525Y64509D01*
X341112Y65128D01*
Y65187D01*
X341525Y65806D01*
X341670Y66535D01*
X341525Y67265D01*
X341112Y67884D01*
X340493Y68297D01*
X339764Y68442D01*
D02*
G37*
G36*
X177756Y71681D02*
X176934Y71573D01*
X176168Y71255D01*
X175510Y70750D01*
X175005Y70092D01*
X174687Y69326D01*
X174579Y68504D01*
X174687Y67682D01*
X175005Y66916D01*
X175510Y66258D01*
X176168Y65753D01*
X176934Y65435D01*
X177756Y65327D01*
X178578Y65435D01*
X179344Y65753D01*
X180002Y66258D01*
X180507Y66916D01*
X180824Y67682D01*
X180933Y68504D01*
X180824Y69326D01*
X180507Y70092D01*
X180002Y70750D01*
X179344Y71255D01*
X178578Y71573D01*
X177756Y71681D01*
D02*
G37*
G36*
X452756Y95023D02*
X450631Y94884D01*
X448542Y94468D01*
X446525Y93784D01*
X444615Y92842D01*
X442843Y91658D01*
X441242Y90254D01*
X439838Y88653D01*
X438655Y86882D01*
X437712Y84971D01*
X437028Y82955D01*
X436612Y80866D01*
X436473Y78740D01*
X436612Y76615D01*
X437028Y74526D01*
X437712Y72509D01*
X438655Y70599D01*
X439838Y68828D01*
X441242Y67226D01*
X442843Y65822D01*
X444615Y64639D01*
X446525Y63697D01*
X448542Y63012D01*
X450631Y62597D01*
X452756Y62457D01*
X454881Y62597D01*
X456970Y63012D01*
X458987Y63697D01*
X460897Y64639D01*
X462668Y65822D01*
X464270Y67226D01*
X465674Y68828D01*
X466857Y70599D01*
X467799Y72509D01*
X468484Y74526D01*
X468899Y76615D01*
X469039Y78740D01*
X468899Y80866D01*
X468484Y82955D01*
X467799Y84971D01*
X466857Y86882D01*
X465674Y88653D01*
X464270Y90254D01*
X462668Y91658D01*
X460897Y92842D01*
X458987Y93784D01*
X456970Y94468D01*
X454881Y94884D01*
X452756Y95023D01*
D02*
G37*
G36*
X300394Y69623D02*
X299664Y69478D01*
X299045Y69065D01*
X298632Y68446D01*
X298487Y67716D01*
X298632Y66987D01*
X299045Y66368D01*
X299558Y66026D01*
X299598Y65842D01*
Y65654D01*
X299558Y65470D01*
X299045Y65128D01*
X298632Y64509D01*
X298487Y63779D01*
X298632Y63050D01*
X299045Y62431D01*
X299664Y62018D01*
X300394Y61873D01*
X301123Y62018D01*
X301742Y62431D01*
X302155Y63050D01*
X302300Y63779D01*
X302155Y64509D01*
X301742Y65128D01*
X301229Y65470D01*
X301189Y65654D01*
Y65842D01*
X301229Y66026D01*
X301742Y66368D01*
X302155Y66987D01*
X302300Y67716D01*
X302155Y68446D01*
X301742Y69065D01*
X301123Y69478D01*
X300394Y69623D01*
D02*
G37*
G36*
X193701Y64491D02*
X193007Y64400D01*
X192361Y64132D01*
X191806Y63706D01*
X191379Y63151D01*
X191112Y62505D01*
X191020Y61811D01*
X191112Y61117D01*
X191379Y60471D01*
X191806Y59916D01*
X192361Y59490D01*
X193007Y59222D01*
X193701Y59131D01*
X194395Y59222D01*
X195041Y59490D01*
X195596Y59916D01*
X196022Y60471D01*
X196290Y61117D01*
X196381Y61811D01*
X196290Y62505D01*
X196022Y63151D01*
X195596Y63706D01*
X195041Y64132D01*
X194395Y64400D01*
X193701Y64491D01*
D02*
G37*
G36*
X229921Y63324D02*
X229192Y63179D01*
X228573Y62766D01*
X228160Y62147D01*
X228015Y61417D01*
X228160Y60688D01*
X228573Y60069D01*
Y59616D01*
X228160Y58997D01*
X228015Y58268D01*
X228160Y57538D01*
X228573Y56919D01*
X229192Y56506D01*
X229921Y56361D01*
X230651Y56506D01*
X231270Y56919D01*
X231683Y57538D01*
X231828Y58268D01*
X231683Y58997D01*
X231270Y59616D01*
Y60069D01*
X231683Y60688D01*
X231828Y61417D01*
X231683Y62147D01*
X231270Y62766D01*
X230651Y63179D01*
X229921Y63324D01*
D02*
G37*
G36*
X127165Y67744D02*
X126343Y67636D01*
X125577Y67318D01*
X124919Y66813D01*
X124414Y66155D01*
X124097Y65389D01*
X123989Y64567D01*
X124097Y63745D01*
X124414Y62979D01*
X124919Y62321D01*
X125577Y61816D01*
X126343Y61498D01*
X127165Y61390D01*
X127988Y61498D01*
X128754Y61816D01*
X129412Y62321D01*
X129917Y62979D01*
X130234Y63745D01*
X130342Y64567D01*
X130234Y65389D01*
X129917Y66155D01*
X129412Y66813D01*
X128754Y67318D01*
X127988Y67636D01*
X127165Y67744D01*
D02*
G37*
G36*
X309055Y64111D02*
X308326Y63966D01*
X307707Y63553D01*
X307294Y62934D01*
X307148Y62205D01*
X307294Y61475D01*
X307707Y60856D01*
X308326Y60443D01*
X309055Y60298D01*
X309785Y60443D01*
X310403Y60856D01*
X310817Y61475D01*
X310962Y62205D01*
X310817Y62934D01*
X310403Y63553D01*
X309785Y63966D01*
X309055Y64111D01*
D02*
G37*
G36*
X127165Y85854D02*
X126343Y85746D01*
X125577Y85428D01*
X124919Y84923D01*
X124414Y84266D01*
X124097Y83499D01*
X123989Y82677D01*
X124097Y81855D01*
X124414Y81089D01*
X124919Y80431D01*
X125577Y79926D01*
X126343Y79609D01*
X127165Y79500D01*
X127988Y79609D01*
X128754Y79926D01*
X129412Y80431D01*
X129917Y81089D01*
X130234Y81855D01*
X130342Y82677D01*
X130234Y83499D01*
X129917Y84266D01*
X129412Y84923D01*
X128754Y85428D01*
X127988Y85746D01*
X127165Y85854D01*
D02*
G37*
G36*
X293307Y79860D02*
X292577Y79714D01*
X291959Y79301D01*
X291506D01*
X290887Y79714D01*
X290158Y79860D01*
X289428Y79714D01*
X288809Y79301D01*
X288356D01*
X287737Y79714D01*
X287008Y79860D01*
X286278Y79714D01*
X285660Y79301D01*
X285207D01*
X284588Y79714D01*
X283858Y79860D01*
X283129Y79714D01*
X282510Y79301D01*
X282097Y78682D01*
X281952Y77953D01*
X282097Y77223D01*
X282510Y76604D01*
X283129Y76191D01*
X283858Y76046D01*
X284588Y76191D01*
X285207Y76604D01*
X285660D01*
X286278Y76191D01*
X287008Y76046D01*
X287737Y76191D01*
X288356Y76604D01*
X288809D01*
X289428Y76191D01*
X290158Y76046D01*
X290887Y76191D01*
X291373Y76516D01*
X291747Y76392D01*
X291870Y76019D01*
X291546Y75533D01*
X291400Y74803D01*
X291546Y74073D01*
X291959Y73455D01*
X292577Y73042D01*
X293307Y72896D01*
X294037Y73042D01*
X294655Y73455D01*
X295069Y74073D01*
X295214Y74803D01*
X295069Y75533D01*
X294655Y76151D01*
Y76604D01*
X295069Y77223D01*
X295214Y77953D01*
X295069Y78682D01*
X294655Y79301D01*
X294037Y79714D01*
X293307Y79860D01*
D02*
G37*
G36*
X177756Y89791D02*
X176934Y89683D01*
X176168Y89365D01*
X175510Y88860D01*
X175005Y88203D01*
X174687Y87436D01*
X174579Y86614D01*
X174687Y85792D01*
X175005Y85026D01*
X175510Y84368D01*
X176168Y83863D01*
X176934Y83546D01*
X177756Y83437D01*
X178578Y83546D01*
X179344Y83863D01*
X180002Y84368D01*
X180507Y85026D01*
X180824Y85792D01*
X180933Y86614D01*
X180824Y87436D01*
X180507Y88203D01*
X180002Y88860D01*
X179344Y89365D01*
X178578Y89683D01*
X177756Y89791D01*
D02*
G37*
G36*
X293307Y84978D02*
X292577Y84832D01*
X291959Y84419D01*
X291546Y83801D01*
X291400Y83071D01*
X291546Y82341D01*
X291959Y81723D01*
X292577Y81309D01*
X293307Y81164D01*
X294037Y81309D01*
X294655Y81723D01*
X295069Y82341D01*
X295214Y83071D01*
X295069Y83801D01*
X294655Y84419D01*
X294037Y84832D01*
X293307Y84978D01*
D02*
G37*
G36*
X193701Y82602D02*
X193007Y82510D01*
X192361Y82243D01*
X191806Y81817D01*
X191379Y81261D01*
X191112Y80615D01*
X191020Y79921D01*
X191112Y79228D01*
X191379Y78581D01*
X191806Y78026D01*
X192361Y77600D01*
X193007Y77332D01*
X193701Y77241D01*
X194395Y77332D01*
X195041Y77600D01*
X195596Y78026D01*
X196022Y78581D01*
X196290Y79228D01*
X196381Y79921D01*
X196290Y80615D01*
X196022Y81261D01*
X195596Y81817D01*
X195041Y82243D01*
X194395Y82510D01*
X193701Y82602D01*
D02*
G37*
G36*
X124803Y77586D02*
X123981Y77478D01*
X123215Y77161D01*
X122557Y76656D01*
X122052Y75998D01*
X121735Y75232D01*
X121626Y74410D01*
X121735Y73587D01*
X122052Y72821D01*
X122557Y72163D01*
X123215Y71658D01*
X123981Y71341D01*
X124803Y71233D01*
X125625Y71341D01*
X126391Y71658D01*
X127050Y72163D01*
X127554Y72821D01*
X127872Y73587D01*
X127980Y74410D01*
X127872Y75232D01*
X127554Y75998D01*
X127050Y76656D01*
X126391Y77161D01*
X125625Y77478D01*
X124803Y77586D01*
D02*
G37*
G36*
X240158Y66867D02*
X239428Y66722D01*
X238809Y66309D01*
X238467Y65796D01*
X238283Y65756D01*
X238095D01*
X237911Y65796D01*
X237569Y66309D01*
X236950Y66722D01*
X236221Y66867D01*
X235491Y66722D01*
X234872Y66309D01*
X234459Y65690D01*
X234314Y64961D01*
X234459Y64231D01*
X234872Y63612D01*
X235491Y63199D01*
X236221Y63054D01*
X236950Y63199D01*
X237569Y63612D01*
X237911Y64125D01*
X238095Y64165D01*
X238283D01*
X238467Y64125D01*
X238809Y63612D01*
X239428Y63199D01*
X240158Y63054D01*
X240887Y63199D01*
X241506Y63612D01*
X241919Y64231D01*
X242064Y64961D01*
X241919Y65690D01*
X241506Y66309D01*
X240887Y66722D01*
X240158Y66867D01*
D02*
G37*
G36*
X221260Y84190D02*
X220530Y84045D01*
X219912Y83632D01*
X219498Y83013D01*
X219353Y82284D01*
X219498Y81554D01*
X219912Y80935D01*
Y80482D01*
X219498Y79864D01*
X219353Y79134D01*
X219498Y78404D01*
X219912Y77786D01*
X220530Y77372D01*
X221260Y77227D01*
X221989Y77372D01*
X222608Y77786D01*
X223021Y78404D01*
X223167Y79134D01*
X223021Y79864D01*
X222608Y80482D01*
Y80935D01*
X223021Y81554D01*
X223167Y82284D01*
X223021Y83013D01*
X222608Y83632D01*
X221989Y84045D01*
X221260Y84190D01*
D02*
G37*
G36*
X240158Y81041D02*
X239428Y80895D01*
X238809Y80482D01*
X238396Y79864D01*
X238251Y79134D01*
X238396Y78404D01*
X238809Y77786D01*
Y77333D01*
X238396Y76714D01*
X238251Y75984D01*
X238396Y75255D01*
X238809Y74636D01*
X239428Y74223D01*
X240158Y74077D01*
X240887Y74223D01*
X241506Y74636D01*
X241919Y75255D01*
X242064Y75984D01*
X241919Y76714D01*
X241506Y77333D01*
Y77786D01*
X241919Y78404D01*
X242064Y79134D01*
X241919Y79864D01*
X241506Y80482D01*
X240887Y80895D01*
X240158Y81041D01*
D02*
G37*
G36*
X327953Y26316D02*
X327223Y26171D01*
X326605Y25758D01*
X326191Y25139D01*
X326046Y24409D01*
X326191Y23680D01*
X326605Y23061D01*
X327223Y22648D01*
X327953Y22503D01*
X328682Y22648D01*
X329301Y23061D01*
X329714Y23680D01*
X329859Y24409D01*
X329714Y25139D01*
X329301Y25758D01*
X328682Y26171D01*
X327953Y26316D01*
D02*
G37*
G36*
X435039Y9870D02*
X434217Y9762D01*
X433451Y9444D01*
X432793Y8939D01*
X432288Y8281D01*
X431971Y7515D01*
X431863Y6693D01*
X431971Y5871D01*
X432288Y5105D01*
X432793Y4447D01*
X433451Y3942D01*
X434217Y3624D01*
X435039Y3516D01*
X435862Y3624D01*
X436628Y3942D01*
X437286Y4447D01*
X437790Y5105D01*
X438108Y5871D01*
X438216Y6693D01*
X438108Y7515D01*
X437790Y8281D01*
X437286Y8939D01*
X436628Y9444D01*
X435862Y9762D01*
X435039Y9870D01*
D02*
G37*
G36*
X427165D02*
X426343Y9762D01*
X425577Y9444D01*
X424919Y8939D01*
X424414Y8281D01*
X424097Y7515D01*
X423989Y6693D01*
X424097Y5871D01*
X424414Y5105D01*
X424919Y4447D01*
X425577Y3942D01*
X426343Y3624D01*
X427165Y3516D01*
X427988Y3624D01*
X428754Y3942D01*
X429412Y4447D01*
X429916Y5105D01*
X430234Y5871D01*
X430342Y6693D01*
X430234Y7515D01*
X429916Y8281D01*
X429412Y8939D01*
X428754Y9444D01*
X427988Y9762D01*
X427165Y9870D01*
D02*
G37*
G36*
X450787D02*
X449965Y9762D01*
X449199Y9444D01*
X448541Y8939D01*
X448036Y8281D01*
X447719Y7515D01*
X447611Y6693D01*
X447719Y5871D01*
X448036Y5105D01*
X448541Y4447D01*
X449199Y3942D01*
X449965Y3624D01*
X450787Y3516D01*
X451610Y3624D01*
X452376Y3942D01*
X453034Y4447D01*
X453539Y5105D01*
X453856Y5871D01*
X453964Y6693D01*
X453856Y7515D01*
X453539Y8281D01*
X453034Y8939D01*
X452376Y9444D01*
X451610Y9762D01*
X450787Y9870D01*
D02*
G37*
G36*
X442913D02*
X442091Y9762D01*
X441325Y9444D01*
X440667Y8939D01*
X440162Y8281D01*
X439845Y7515D01*
X439737Y6693D01*
X439845Y5871D01*
X440162Y5105D01*
X440667Y4447D01*
X441325Y3942D01*
X442091Y3624D01*
X442913Y3516D01*
X443736Y3624D01*
X444502Y3942D01*
X445160Y4447D01*
X445665Y5105D01*
X445982Y5871D01*
X446090Y6693D01*
X445982Y7515D01*
X445665Y8281D01*
X445160Y8939D01*
X444502Y9444D01*
X443736Y9762D01*
X442913Y9870D01*
D02*
G37*
G36*
X419291D02*
X418469Y9762D01*
X417703Y9444D01*
X417045Y8939D01*
X416540Y8281D01*
X416223Y7515D01*
X416115Y6693D01*
X416223Y5871D01*
X416540Y5105D01*
X417045Y4447D01*
X417703Y3942D01*
X418469Y3624D01*
X419291Y3516D01*
X420114Y3624D01*
X420880Y3942D01*
X421538Y4447D01*
X422043Y5105D01*
X422360Y5871D01*
X422468Y6693D01*
X422360Y7515D01*
X422043Y8281D01*
X421538Y8939D01*
X420880Y9444D01*
X420114Y9762D01*
X419291Y9870D01*
D02*
G37*
G36*
X395669D02*
X394847Y9762D01*
X394081Y9444D01*
X393423Y8939D01*
X392918Y8281D01*
X392601Y7515D01*
X392493Y6693D01*
X392601Y5871D01*
X392918Y5105D01*
X393423Y4447D01*
X394081Y3942D01*
X394847Y3624D01*
X395669Y3516D01*
X396492Y3624D01*
X397258Y3942D01*
X397916Y4447D01*
X398421Y5105D01*
X398738Y5871D01*
X398846Y6693D01*
X398738Y7515D01*
X398421Y8281D01*
X397916Y8939D01*
X397258Y9444D01*
X396492Y9762D01*
X395669Y9870D01*
D02*
G37*
G36*
X387795D02*
X386973Y9762D01*
X386207Y9444D01*
X385549Y8939D01*
X385044Y8281D01*
X384727Y7515D01*
X384618Y6693D01*
X384727Y5871D01*
X385044Y5105D01*
X385549Y4447D01*
X386207Y3942D01*
X386973Y3624D01*
X387795Y3516D01*
X388617Y3624D01*
X389384Y3942D01*
X390042Y4447D01*
X390546Y5105D01*
X390864Y5871D01*
X390972Y6693D01*
X390864Y7515D01*
X390546Y8281D01*
X390042Y8939D01*
X389384Y9444D01*
X388617Y9762D01*
X387795Y9870D01*
D02*
G37*
G36*
X411417D02*
X410595Y9762D01*
X409829Y9444D01*
X409171Y8939D01*
X408666Y8281D01*
X408349Y7515D01*
X408241Y6693D01*
X408349Y5871D01*
X408666Y5105D01*
X409171Y4447D01*
X409829Y3942D01*
X410595Y3624D01*
X411417Y3516D01*
X412240Y3624D01*
X413006Y3942D01*
X413664Y4447D01*
X414169Y5105D01*
X414486Y5871D01*
X414594Y6693D01*
X414486Y7515D01*
X414169Y8281D01*
X413664Y8939D01*
X413006Y9444D01*
X412240Y9762D01*
X411417Y9870D01*
D02*
G37*
G36*
X403543D02*
X402721Y9762D01*
X401955Y9444D01*
X401297Y8939D01*
X400792Y8281D01*
X400475Y7515D01*
X400366Y6693D01*
X400475Y5871D01*
X400792Y5105D01*
X401297Y4447D01*
X401955Y3942D01*
X402721Y3624D01*
X403543Y3516D01*
X404365Y3624D01*
X405132Y3942D01*
X405790Y4447D01*
X406294Y5105D01*
X406612Y5871D01*
X406720Y6693D01*
X406612Y7515D01*
X406294Y8281D01*
X405790Y8939D01*
X405132Y9444D01*
X404365Y9762D01*
X403543Y9870D01*
D02*
G37*
G36*
X518898Y13019D02*
X518075Y12911D01*
X517309Y12594D01*
X516651Y12089D01*
X516147Y11431D01*
X515829Y10665D01*
X515721Y9843D01*
X515829Y9020D01*
X516147Y8254D01*
X516651Y7596D01*
X517309Y7091D01*
X518075Y6774D01*
X518898Y6666D01*
X519720Y6774D01*
X520486Y7091D01*
X521144Y7596D01*
X521649Y8254D01*
X521966Y9020D01*
X522074Y9843D01*
X521966Y10665D01*
X521649Y11431D01*
X521144Y12089D01*
X520486Y12594D01*
X519720Y12911D01*
X518898Y13019D01*
D02*
G37*
G36*
X511024D02*
X510201Y12911D01*
X509435Y12594D01*
X508777Y12089D01*
X508273Y11431D01*
X507955Y10665D01*
X507847Y9843D01*
X507955Y9020D01*
X508273Y8254D01*
X508777Y7596D01*
X509435Y7091D01*
X510201Y6774D01*
X511024Y6666D01*
X511846Y6774D01*
X512612Y7091D01*
X513270Y7596D01*
X513775Y8254D01*
X514092Y9020D01*
X514200Y9843D01*
X514092Y10665D01*
X513775Y11431D01*
X513270Y12089D01*
X512612Y12594D01*
X511846Y12911D01*
X511024Y13019D01*
D02*
G37*
G36*
X534646D02*
X533823Y12911D01*
X533057Y12594D01*
X532399Y12089D01*
X531894Y11431D01*
X531577Y10665D01*
X531469Y9843D01*
X531577Y9020D01*
X531894Y8254D01*
X532399Y7596D01*
X533057Y7091D01*
X533823Y6774D01*
X534646Y6666D01*
X535468Y6774D01*
X536234Y7091D01*
X536892Y7596D01*
X537397Y8254D01*
X537714Y9020D01*
X537822Y9843D01*
X537714Y10665D01*
X537397Y11431D01*
X536892Y12089D01*
X536234Y12594D01*
X535468Y12911D01*
X534646Y13019D01*
D02*
G37*
G36*
X526772D02*
X525949Y12911D01*
X525183Y12594D01*
X524525Y12089D01*
X524020Y11431D01*
X523703Y10665D01*
X523595Y9843D01*
X523703Y9020D01*
X524020Y8254D01*
X524525Y7596D01*
X525183Y7091D01*
X525949Y6774D01*
X526772Y6666D01*
X527594Y6774D01*
X528360Y7091D01*
X529018Y7596D01*
X529523Y8254D01*
X529840Y9020D01*
X529948Y9843D01*
X529840Y10665D01*
X529523Y11431D01*
X529018Y12089D01*
X528360Y12594D01*
X527594Y12911D01*
X526772Y13019D01*
D02*
G37*
G36*
X503150D02*
X502327Y12911D01*
X501561Y12594D01*
X500903Y12089D01*
X500398Y11431D01*
X500081Y10665D01*
X499973Y9843D01*
X500081Y9020D01*
X500398Y8254D01*
X500903Y7596D01*
X501561Y7091D01*
X502327Y6774D01*
X503150Y6666D01*
X503972Y6774D01*
X504738Y7091D01*
X505396Y7596D01*
X505901Y8254D01*
X506218Y9020D01*
X506326Y9843D01*
X506218Y10665D01*
X505901Y11431D01*
X505396Y12089D01*
X504738Y12594D01*
X503972Y12911D01*
X503150Y13019D01*
D02*
G37*
G36*
X193701Y10161D02*
X193007Y10069D01*
X192361Y9802D01*
X191806Y9376D01*
X191379Y8821D01*
X191112Y8174D01*
X191020Y7480D01*
X191112Y6787D01*
X191379Y6140D01*
X191806Y5585D01*
X192361Y5159D01*
X193007Y4891D01*
X193701Y4800D01*
X194395Y4891D01*
X195041Y5159D01*
X195596Y5585D01*
X196022Y6140D01*
X196290Y6787D01*
X196381Y7480D01*
X196290Y8174D01*
X196022Y8821D01*
X195596Y9376D01*
X195041Y9802D01*
X194395Y10069D01*
X193701Y10161D01*
D02*
G37*
G36*
X261024Y19623D02*
X260294Y19478D01*
X259675Y19065D01*
X259262Y18446D01*
X259117Y17717D01*
X259262Y16987D01*
X259675Y16368D01*
X260188Y16026D01*
X260228Y15842D01*
Y15654D01*
X260188Y15470D01*
X259675Y15128D01*
X259262Y14509D01*
X259117Y13780D01*
X259262Y13050D01*
X259675Y12431D01*
X260188Y12089D01*
X260228Y11905D01*
Y11717D01*
X260188Y11533D01*
X259675Y11191D01*
X259262Y10572D01*
X259117Y9843D01*
X259262Y9113D01*
X259675Y8494D01*
X260188Y8152D01*
X260228Y7968D01*
Y7780D01*
X260188Y7596D01*
X259675Y7254D01*
X259262Y6635D01*
X259117Y5906D01*
X259262Y5176D01*
X259675Y4557D01*
X260294Y4144D01*
X261024Y3999D01*
X261753Y4144D01*
X262372Y4557D01*
X262785Y5176D01*
X262930Y5906D01*
X262785Y6635D01*
X262372Y7254D01*
X261859Y7596D01*
X261819Y7780D01*
Y7968D01*
X261859Y8152D01*
X262372Y8494D01*
X262785Y9113D01*
X262930Y9843D01*
X262785Y10572D01*
X262372Y11191D01*
X261859Y11533D01*
X261819Y11717D01*
Y11905D01*
X261859Y12089D01*
X262372Y12431D01*
X262785Y13050D01*
X262930Y13780D01*
X262785Y14509D01*
X262372Y15128D01*
X261859Y15470D01*
X261819Y15654D01*
Y15842D01*
X261859Y16026D01*
X262372Y16368D01*
X262785Y16987D01*
X262930Y17717D01*
X262785Y18446D01*
X262372Y19065D01*
X261753Y19478D01*
X261024Y19623D01*
D02*
G37*
G36*
X486221Y13019D02*
X485398Y12911D01*
X484632Y12594D01*
X483974Y12089D01*
X483469Y11431D01*
X483152Y10665D01*
X483044Y9843D01*
X483152Y9020D01*
X483469Y8254D01*
X483974Y7596D01*
X484632Y7091D01*
X485398Y6774D01*
X486221Y6666D01*
X487043Y6774D01*
X487809Y7091D01*
X488467Y7596D01*
X488972Y8254D01*
X489289Y9020D01*
X489397Y9843D01*
X489289Y10665D01*
X488972Y11431D01*
X488467Y12089D01*
X487809Y12594D01*
X487043Y12911D01*
X486221Y13019D01*
D02*
G37*
G36*
X478346D02*
X477524Y12911D01*
X476758Y12594D01*
X476100Y12089D01*
X475595Y11431D01*
X475278Y10665D01*
X475170Y9843D01*
X475278Y9020D01*
X475595Y8254D01*
X476100Y7596D01*
X476758Y7091D01*
X477524Y6774D01*
X478346Y6666D01*
X479169Y6774D01*
X479935Y7091D01*
X480593Y7596D01*
X481098Y8254D01*
X481415Y9020D01*
X481523Y9843D01*
X481415Y10665D01*
X481098Y11431D01*
X480593Y12089D01*
X479935Y12594D01*
X479169Y12911D01*
X478346Y13019D01*
D02*
G37*
G36*
X124803Y5145D02*
X123981Y5037D01*
X123215Y4720D01*
X122557Y4215D01*
X122052Y3557D01*
X121735Y2791D01*
X121626Y1969D01*
X121735Y1146D01*
X122052Y380D01*
X122557Y-278D01*
X123215Y-783D01*
X123981Y-1100D01*
X124803Y-1208D01*
X125625Y-1100D01*
X126391Y-783D01*
X127050Y-278D01*
X127554Y380D01*
X127872Y1146D01*
X127980Y1969D01*
X127872Y2791D01*
X127554Y3557D01*
X127050Y4215D01*
X126391Y4720D01*
X125625Y5037D01*
X124803Y5145D01*
D02*
G37*
G36*
X348819Y1119D02*
X348089Y974D01*
X347471Y561D01*
X347057Y-58D01*
X346912Y-787D01*
X347057Y-1517D01*
X347471Y-2136D01*
X348089Y-2549D01*
X348819Y-2694D01*
X349549Y-2549D01*
X350167Y-2136D01*
X350581Y-1517D01*
X350726Y-787D01*
X350581Y-58D01*
X350167Y561D01*
X349549Y974D01*
X348819Y1119D01*
D02*
G37*
G36*
X511024Y5145D02*
X510201Y5037D01*
X509435Y4720D01*
X508777Y4215D01*
X508273Y3557D01*
X507955Y2791D01*
X507847Y1969D01*
X507955Y1146D01*
X508273Y380D01*
X508777Y-278D01*
X509435Y-783D01*
X510201Y-1100D01*
X511024Y-1208D01*
X511846Y-1100D01*
X512612Y-783D01*
X513270Y-278D01*
X513775Y380D01*
X514092Y1146D01*
X514200Y1969D01*
X514092Y2791D01*
X513775Y3557D01*
X513270Y4215D01*
X512612Y4720D01*
X511846Y5037D01*
X511024Y5145D01*
D02*
G37*
G36*
X503150D02*
X502327Y5037D01*
X501561Y4720D01*
X500903Y4215D01*
X500398Y3557D01*
X500081Y2791D01*
X499973Y1969D01*
X500081Y1146D01*
X500398Y380D01*
X500903Y-278D01*
X501561Y-783D01*
X502327Y-1100D01*
X503150Y-1208D01*
X503972Y-1100D01*
X504738Y-783D01*
X505396Y-278D01*
X505901Y380D01*
X506218Y1146D01*
X506326Y1969D01*
X506218Y2791D01*
X505901Y3557D01*
X505396Y4215D01*
X504738Y4720D01*
X503972Y5037D01*
X503150Y5145D01*
D02*
G37*
G36*
X318898Y1119D02*
X318168Y974D01*
X317549Y561D01*
X317136Y-58D01*
X316991Y-787D01*
X317136Y-1517D01*
X317549Y-2136D01*
X318168Y-2549D01*
X318898Y-2694D01*
X319627Y-2549D01*
X320246Y-2136D01*
X320659Y-1517D01*
X320804Y-787D01*
X320659Y-58D01*
X320246Y561D01*
X319627Y974D01*
X318898Y1119D01*
D02*
G37*
G36*
X442913Y1996D02*
X442091Y1887D01*
X441325Y1570D01*
X440667Y1065D01*
X440162Y407D01*
X439845Y-359D01*
X439737Y-1181D01*
X439845Y-2003D01*
X440162Y-2770D01*
X440667Y-3427D01*
X441325Y-3932D01*
X442091Y-4250D01*
X442913Y-4358D01*
X443736Y-4250D01*
X444502Y-3932D01*
X445160Y-3427D01*
X445665Y-2770D01*
X445982Y-2003D01*
X446090Y-1181D01*
X445982Y-359D01*
X445665Y407D01*
X445160Y1065D01*
X444502Y1570D01*
X443736Y1887D01*
X442913Y1996D01*
D02*
G37*
G36*
X435039D02*
X434217Y1887D01*
X433451Y1570D01*
X432793Y1065D01*
X432288Y407D01*
X431971Y-359D01*
X431863Y-1181D01*
X431971Y-2003D01*
X432288Y-2770D01*
X432793Y-3427D01*
X433451Y-3932D01*
X434217Y-4250D01*
X435039Y-4358D01*
X435862Y-4250D01*
X436628Y-3932D01*
X437286Y-3427D01*
X437790Y-2770D01*
X438108Y-2003D01*
X438216Y-1181D01*
X438108Y-359D01*
X437790Y407D01*
X437286Y1065D01*
X436628Y1570D01*
X435862Y1887D01*
X435039Y1996D01*
D02*
G37*
G36*
X338189Y726D02*
X337459Y581D01*
X336841Y167D01*
X336427Y-451D01*
X336282Y-1181D01*
X336427Y-1911D01*
X336841Y-2529D01*
X337459Y-2943D01*
X338189Y-3088D01*
X338919Y-2943D01*
X339537Y-2529D01*
X339951Y-1911D01*
X340096Y-1181D01*
X339951Y-451D01*
X339537Y167D01*
X338919Y581D01*
X338189Y726D01*
D02*
G37*
G36*
X450787Y1996D02*
X449965Y1887D01*
X449199Y1570D01*
X448541Y1065D01*
X448036Y407D01*
X447719Y-359D01*
X447611Y-1181D01*
X447719Y-2003D01*
X448036Y-2770D01*
X448541Y-3427D01*
X449199Y-3932D01*
X449965Y-4250D01*
X450787Y-4358D01*
X451610Y-4250D01*
X452376Y-3932D01*
X453034Y-3427D01*
X453539Y-2770D01*
X453856Y-2003D01*
X453964Y-1181D01*
X453856Y-359D01*
X453539Y407D01*
X453034Y1065D01*
X452376Y1570D01*
X451610Y1887D01*
X450787Y1996D01*
D02*
G37*
G36*
X83858Y9082D02*
X83036Y8974D01*
X82270Y8657D01*
X81612Y8152D01*
X81107Y7494D01*
X80790Y6728D01*
X80682Y5906D01*
X80790Y5083D01*
X81107Y4317D01*
X81612Y3659D01*
X82270Y3154D01*
X83036Y2837D01*
X83858Y2729D01*
X84680Y2837D01*
X85447Y3154D01*
X86105Y3659D01*
X86609Y4317D01*
X86927Y5083D01*
X87035Y5906D01*
X86927Y6728D01*
X86609Y7494D01*
X86105Y8152D01*
X85447Y8657D01*
X84680Y8974D01*
X83858Y9082D01*
D02*
G37*
G36*
X274803Y8993D02*
X274074Y8848D01*
X273455Y8435D01*
X273042Y7816D01*
X272896Y7087D01*
X273042Y6357D01*
X273455Y5738D01*
X274074Y5325D01*
X274803Y5180D01*
X275533Y5325D01*
X275719Y5450D01*
X276080Y5089D01*
X275798Y4667D01*
X275652Y3937D01*
X275798Y3207D01*
X276211Y2589D01*
X276829Y2175D01*
X277559Y2030D01*
X278289Y2175D01*
X278907Y2589D01*
X279321Y3207D01*
X279466Y3937D01*
X279321Y4667D01*
X278907Y5285D01*
X278289Y5699D01*
X277559Y5844D01*
X276829Y5699D01*
X276643Y5574D01*
X276282Y5934D01*
X276565Y6357D01*
X276710Y7087D01*
X276565Y7816D01*
X276151Y8435D01*
X275533Y8848D01*
X274803Y8993D01*
D02*
G37*
G36*
X379921Y9870D02*
X379099Y9762D01*
X378333Y9444D01*
X377675Y8939D01*
X377170Y8281D01*
X376853Y7515D01*
X376745Y6693D01*
X376853Y5871D01*
X377170Y5105D01*
X377675Y4447D01*
X378333Y3942D01*
X379099Y3624D01*
X379921Y3516D01*
X380744Y3624D01*
X381510Y3942D01*
X382168Y4447D01*
X382672Y5105D01*
X382990Y5871D01*
X383098Y6693D01*
X382990Y7515D01*
X382672Y8281D01*
X382168Y8939D01*
X381510Y9444D01*
X380744Y9762D01*
X379921Y9870D01*
D02*
G37*
G36*
X372047D02*
X371225Y9762D01*
X370459Y9444D01*
X369801Y8939D01*
X369296Y8281D01*
X368979Y7515D01*
X368870Y6693D01*
X368979Y5871D01*
X369296Y5105D01*
X369801Y4447D01*
X370459Y3942D01*
X371225Y3624D01*
X372047Y3516D01*
X372869Y3624D01*
X373636Y3942D01*
X374294Y4447D01*
X374798Y5105D01*
X375116Y5871D01*
X375224Y6693D01*
X375116Y7515D01*
X374798Y8281D01*
X374294Y8939D01*
X373636Y9444D01*
X372869Y9762D01*
X372047Y9870D01*
D02*
G37*
G36*
X359449Y1119D02*
X358719Y974D01*
X358203Y629D01*
X357874Y589D01*
X357545Y629D01*
X357029Y974D01*
X356299Y1119D01*
X355570Y974D01*
X354951Y561D01*
X354538Y-58D01*
X354393Y-787D01*
X354538Y-1517D01*
X354951Y-2136D01*
X355570Y-2549D01*
X356299Y-2694D01*
X357029Y-2549D01*
X357647Y-2136D01*
X358101D01*
X358719Y-2549D01*
X359449Y-2694D01*
X360178Y-2549D01*
X360797Y-2136D01*
X361210Y-1517D01*
X361355Y-787D01*
X361210Y-58D01*
X360797Y561D01*
X360178Y974D01*
X359449Y1119D01*
D02*
G37*
G36*
X526772Y5145D02*
X525949Y5037D01*
X525183Y4720D01*
X524525Y4215D01*
X524020Y3557D01*
X523703Y2791D01*
X523595Y1969D01*
X523703Y1146D01*
X524020Y380D01*
X524525Y-278D01*
X525183Y-783D01*
X525949Y-1100D01*
X526772Y-1208D01*
X527594Y-1100D01*
X528360Y-783D01*
X529018Y-278D01*
X529523Y380D01*
X529840Y1146D01*
X529948Y1969D01*
X529840Y2791D01*
X529523Y3557D01*
X529018Y4215D01*
X528360Y4720D01*
X527594Y5037D01*
X526772Y5145D01*
D02*
G37*
G36*
X518898D02*
X518075Y5037D01*
X517309Y4720D01*
X516651Y4215D01*
X516147Y3557D01*
X515829Y2791D01*
X515721Y1969D01*
X515829Y1146D01*
X516147Y380D01*
X516651Y-278D01*
X517309Y-783D01*
X518075Y-1100D01*
X518898Y-1208D01*
X519720Y-1100D01*
X520486Y-783D01*
X521144Y-278D01*
X521649Y380D01*
X521966Y1146D01*
X522074Y1969D01*
X521966Y2791D01*
X521649Y3557D01*
X521144Y4215D01*
X520486Y4720D01*
X519720Y5037D01*
X518898Y5145D01*
D02*
G37*
G36*
X261024Y3481D02*
X260294Y3336D01*
X259675Y2923D01*
X259262Y2304D01*
X259117Y1575D01*
X259262Y845D01*
X259675Y227D01*
X260294Y-187D01*
X261024Y-332D01*
X261753Y-187D01*
X262372Y227D01*
X262785Y845D01*
X262930Y1575D01*
X262785Y2304D01*
X262372Y2923D01*
X261753Y3336D01*
X261024Y3481D01*
D02*
G37*
G36*
X534646Y5145D02*
X533823Y5037D01*
X533057Y4720D01*
X532399Y4215D01*
X531894Y3557D01*
X531577Y2791D01*
X531469Y1969D01*
X531577Y1146D01*
X531894Y380D01*
X532399Y-278D01*
X533057Y-783D01*
X533823Y-1100D01*
X534646Y-1208D01*
X535468Y-1100D01*
X536234Y-783D01*
X536892Y-278D01*
X537397Y380D01*
X537714Y1146D01*
X537822Y1969D01*
X537714Y2791D01*
X537397Y3557D01*
X536892Y4215D01*
X536234Y4720D01*
X535468Y5037D01*
X534646Y5145D01*
D02*
G37*
G36*
X127165Y13413D02*
X126343Y13305D01*
X125577Y12987D01*
X124919Y12483D01*
X124414Y11825D01*
X124097Y11058D01*
X123989Y10236D01*
X124097Y9414D01*
X124414Y8648D01*
X124919Y7990D01*
X125577Y7485D01*
X126343Y7168D01*
X127165Y7059D01*
X127988Y7168D01*
X128754Y7485D01*
X129412Y7990D01*
X129917Y8648D01*
X130234Y9414D01*
X130342Y10236D01*
X130234Y11058D01*
X129917Y11825D01*
X129412Y12483D01*
X128754Y12987D01*
X127988Y13305D01*
X127165Y13413D01*
D02*
G37*
G36*
X518898Y20893D02*
X518075Y20785D01*
X517309Y20468D01*
X516651Y19963D01*
X516147Y19305D01*
X515829Y18539D01*
X515721Y17717D01*
X515829Y16894D01*
X516147Y16128D01*
X516651Y15470D01*
X517309Y14965D01*
X518075Y14648D01*
X518898Y14540D01*
X519720Y14648D01*
X520486Y14965D01*
X521144Y15470D01*
X521649Y16128D01*
X521966Y16894D01*
X522074Y17717D01*
X521966Y18539D01*
X521649Y19305D01*
X521144Y19963D01*
X520486Y20468D01*
X519720Y20785D01*
X518898Y20893D01*
D02*
G37*
G36*
X511024D02*
X510201Y20785D01*
X509435Y20468D01*
X508777Y19963D01*
X508273Y19305D01*
X507955Y18539D01*
X507847Y17717D01*
X507955Y16894D01*
X508273Y16128D01*
X508777Y15470D01*
X509435Y14965D01*
X510201Y14648D01*
X511024Y14540D01*
X511846Y14648D01*
X512612Y14965D01*
X513270Y15470D01*
X513775Y16128D01*
X514092Y16894D01*
X514200Y17717D01*
X514092Y18539D01*
X513775Y19305D01*
X513270Y19963D01*
X512612Y20468D01*
X511846Y20785D01*
X511024Y20893D01*
D02*
G37*
G36*
X534646D02*
X533823Y20785D01*
X533057Y20468D01*
X532399Y19963D01*
X531894Y19305D01*
X531577Y18539D01*
X531469Y17717D01*
X531577Y16894D01*
X531894Y16128D01*
X532399Y15470D01*
X533057Y14965D01*
X533823Y14648D01*
X534646Y14540D01*
X535468Y14648D01*
X536234Y14965D01*
X536892Y15470D01*
X537397Y16128D01*
X537714Y16894D01*
X537822Y17717D01*
X537714Y18539D01*
X537397Y19305D01*
X536892Y19963D01*
X536234Y20468D01*
X535468Y20785D01*
X534646Y20893D01*
D02*
G37*
G36*
X526772D02*
X525949Y20785D01*
X525183Y20468D01*
X524525Y19963D01*
X524020Y19305D01*
X523703Y18539D01*
X523595Y17717D01*
X523703Y16894D01*
X524020Y16128D01*
X524525Y15470D01*
X525183Y14965D01*
X525949Y14648D01*
X526772Y14540D01*
X527594Y14648D01*
X528360Y14965D01*
X529018Y15470D01*
X529523Y16128D01*
X529840Y16894D01*
X529948Y17717D01*
X529840Y18539D01*
X529523Y19305D01*
X529018Y19963D01*
X528360Y20468D01*
X527594Y20785D01*
X526772Y20893D01*
D02*
G37*
G36*
X503150D02*
X502327Y20785D01*
X501561Y20468D01*
X500903Y19963D01*
X500398Y19305D01*
X500081Y18539D01*
X499973Y17717D01*
X500081Y16894D01*
X500398Y16128D01*
X500903Y15470D01*
X501561Y14965D01*
X502327Y14648D01*
X503150Y14540D01*
X503972Y14648D01*
X504738Y14965D01*
X505396Y15470D01*
X505901Y16128D01*
X506218Y16894D01*
X506326Y17717D01*
X506218Y18539D01*
X505901Y19305D01*
X505396Y19963D01*
X504738Y20468D01*
X503972Y20785D01*
X503150Y20893D01*
D02*
G37*
G36*
X300787Y18048D02*
X300058Y17903D01*
X299439Y17490D01*
X299026Y16871D01*
X298881Y16142D01*
X299026Y15412D01*
X299439Y14794D01*
X300058Y14380D01*
X300787Y14235D01*
X301517Y14380D01*
X302136Y14794D01*
X302549Y15412D01*
X302694Y16142D01*
X302549Y16871D01*
X302136Y17490D01*
X301517Y17903D01*
X300787Y18048D01*
D02*
G37*
G36*
X451575Y26011D02*
X450753Y25903D01*
X449986Y25586D01*
X449329Y25081D01*
X448824Y24423D01*
X448506Y23657D01*
X448398Y22835D01*
X448506Y22012D01*
X448824Y21246D01*
X449329Y20588D01*
X449594Y20385D01*
X449518Y19813D01*
X449199Y19680D01*
X448541Y19175D01*
X448036Y18518D01*
X447719Y17751D01*
X447611Y16929D01*
X447719Y16107D01*
X448036Y15341D01*
X448541Y14683D01*
X449199Y14178D01*
X449965Y13861D01*
X450787Y13752D01*
X451610Y13861D01*
X452376Y14178D01*
X453034Y14683D01*
X453539Y15341D01*
X453856Y16107D01*
X453964Y16929D01*
X453856Y17751D01*
X453539Y18518D01*
X453034Y19175D01*
X452769Y19379D01*
X452844Y19951D01*
X453163Y20084D01*
X453821Y20588D01*
X454326Y21246D01*
X454643Y22012D01*
X454752Y22835D01*
X454643Y23657D01*
X454326Y24423D01*
X453821Y25081D01*
X453163Y25586D01*
X452397Y25903D01*
X451575Y26011D01*
D02*
G37*
G36*
X458268Y20893D02*
X457445Y20785D01*
X456679Y20468D01*
X456021Y19963D01*
X455517Y19305D01*
X455199Y18539D01*
X455091Y17717D01*
X455199Y16894D01*
X455517Y16128D01*
X456021Y15470D01*
X456679Y14965D01*
X457445Y14648D01*
X458268Y14540D01*
X459090Y14648D01*
X459856Y14965D01*
X460514Y15470D01*
X461019Y16128D01*
X461336Y16894D01*
X461445Y17717D01*
X461336Y18539D01*
X461019Y19305D01*
X460514Y19963D01*
X459856Y20468D01*
X459090Y20785D01*
X458268Y20893D01*
D02*
G37*
G36*
X83858D02*
X83036Y20785D01*
X82270Y20468D01*
X81612Y19963D01*
X81107Y19305D01*
X80790Y18539D01*
X80682Y17717D01*
X80790Y16894D01*
X81107Y16128D01*
X81612Y15470D01*
X82270Y14965D01*
X83036Y14648D01*
X83858Y14540D01*
X84680Y14648D01*
X85447Y14965D01*
X86105Y15470D01*
X86609Y16128D01*
X86927Y16894D01*
X87035Y17717D01*
X86927Y18539D01*
X86609Y19305D01*
X86105Y19963D01*
X85447Y20468D01*
X84680Y20785D01*
X83858Y20893D01*
D02*
G37*
G36*
X518898Y28767D02*
X518075Y28659D01*
X517309Y28342D01*
X516651Y27837D01*
X516147Y27179D01*
X515829Y26413D01*
X515721Y25591D01*
X515829Y24768D01*
X516147Y24002D01*
X516651Y23344D01*
X517309Y22839D01*
X518075Y22522D01*
X518898Y22414D01*
X519720Y22522D01*
X520486Y22839D01*
X521144Y23344D01*
X521649Y24002D01*
X521966Y24768D01*
X522074Y25591D01*
X521966Y26413D01*
X521649Y27179D01*
X521144Y27837D01*
X520486Y28342D01*
X519720Y28659D01*
X518898Y28767D01*
D02*
G37*
G36*
X511024D02*
X510201Y28659D01*
X509435Y28342D01*
X508777Y27837D01*
X508273Y27179D01*
X507955Y26413D01*
X507847Y25591D01*
X507955Y24768D01*
X508273Y24002D01*
X508777Y23344D01*
X509435Y22839D01*
X510201Y22522D01*
X511024Y22414D01*
X511846Y22522D01*
X512612Y22839D01*
X513270Y23344D01*
X513775Y24002D01*
X514092Y24768D01*
X514200Y25591D01*
X514092Y26413D01*
X513775Y27179D01*
X513270Y27837D01*
X512612Y28342D01*
X511846Y28659D01*
X511024Y28767D01*
D02*
G37*
G36*
X534646D02*
X533823Y28659D01*
X533057Y28342D01*
X532399Y27837D01*
X531894Y27179D01*
X531577Y26413D01*
X531469Y25591D01*
X531577Y24768D01*
X531894Y24002D01*
X532399Y23344D01*
X533057Y22839D01*
X533823Y22522D01*
X534646Y22414D01*
X535468Y22522D01*
X536234Y22839D01*
X536892Y23344D01*
X537397Y24002D01*
X537714Y24768D01*
X537822Y25591D01*
X537714Y26413D01*
X537397Y27179D01*
X536892Y27837D01*
X536234Y28342D01*
X535468Y28659D01*
X534646Y28767D01*
D02*
G37*
G36*
X526772D02*
X525949Y28659D01*
X525183Y28342D01*
X524525Y27837D01*
X524020Y27179D01*
X523703Y26413D01*
X523595Y25591D01*
X523703Y24768D01*
X524020Y24002D01*
X524525Y23344D01*
X525183Y22839D01*
X525949Y22522D01*
X526772Y22414D01*
X527594Y22522D01*
X528360Y22839D01*
X529018Y23344D01*
X529523Y24002D01*
X529840Y24768D01*
X529948Y25591D01*
X529840Y26413D01*
X529523Y27179D01*
X529018Y27837D01*
X528360Y28342D01*
X527594Y28659D01*
X526772Y28767D01*
D02*
G37*
G36*
X503150D02*
X502327Y28659D01*
X501561Y28342D01*
X500903Y27837D01*
X500398Y27179D01*
X500081Y26413D01*
X499973Y25591D01*
X500081Y24768D01*
X500398Y24002D01*
X500903Y23344D01*
X501561Y22839D01*
X502327Y22522D01*
X503150Y22414D01*
X503972Y22522D01*
X504738Y22839D01*
X505396Y23344D01*
X505901Y24002D01*
X506218Y24768D01*
X506326Y25591D01*
X506218Y26413D01*
X505901Y27179D01*
X505396Y27837D01*
X504738Y28342D01*
X503972Y28659D01*
X503150Y28767D01*
D02*
G37*
G36*
X309449Y19623D02*
X308719Y19478D01*
X308101Y19065D01*
X307687Y18446D01*
X307542Y17717D01*
X307567Y17589D01*
X307214Y17236D01*
X307087Y17261D01*
X306357Y17116D01*
X305738Y16703D01*
X305325Y16084D01*
X305180Y15354D01*
X305325Y14625D01*
X305738Y14006D01*
X306357Y13593D01*
X307087Y13448D01*
X307816Y13593D01*
X308435Y14006D01*
X308848Y14625D01*
X308993Y15354D01*
X308968Y15482D01*
X309322Y15835D01*
X309449Y15810D01*
X310178Y15955D01*
X310797Y16368D01*
X311210Y16987D01*
X311355Y17717D01*
X311210Y18446D01*
X310797Y19065D01*
X310178Y19478D01*
X309449Y19623D01*
D02*
G37*
G36*
X359055Y17247D02*
X358361Y17156D01*
X357715Y16888D01*
X357464Y16696D01*
X357087Y16500D01*
X356709Y16696D01*
X356458Y16888D01*
X355812Y17156D01*
X355118Y17247D01*
X354424Y17156D01*
X353778Y16888D01*
X353223Y16462D01*
X352797Y15907D01*
X352529Y15261D01*
X352438Y14567D01*
X352529Y13873D01*
X352797Y13227D01*
X353223Y12672D01*
X353778Y12246D01*
X354424Y11978D01*
X355118Y11886D01*
X355812Y11978D01*
X356458Y12246D01*
X357013Y12672D01*
X357160D01*
X357715Y12246D01*
X358361Y11978D01*
X359055Y11886D01*
X359749Y11978D01*
X360395Y12246D01*
X360950Y12672D01*
X361376Y13227D01*
X361644Y13873D01*
X361736Y14567D01*
X361644Y15261D01*
X361376Y15907D01*
X360950Y16462D01*
X360395Y16888D01*
X359749Y17156D01*
X359055Y17247D01*
D02*
G37*
G36*
X311811Y23167D02*
X311081Y23021D01*
X310463Y22608D01*
X310049Y21990D01*
X309904Y21260D01*
X310049Y20530D01*
X310463Y19912D01*
X311081Y19498D01*
X311811Y19353D01*
X312541Y19498D01*
X313159Y19912D01*
X313573Y20530D01*
X313718Y21260D01*
X313573Y21990D01*
X313159Y22608D01*
X312541Y23021D01*
X311811Y23167D01*
D02*
G37*
G36*
X321260Y21592D02*
X320530Y21447D01*
X319912Y21033D01*
X319498Y20415D01*
X319353Y19685D01*
X319498Y18955D01*
X319912Y18337D01*
X320530Y17923D01*
X321260Y17778D01*
X321989Y17923D01*
X322608Y18337D01*
X323021Y18955D01*
X323167Y19685D01*
X323021Y20415D01*
X322608Y21033D01*
X321989Y21447D01*
X321260Y21592D01*
D02*
G37*
G36*
X270472Y15686D02*
X269743Y15541D01*
X269124Y15128D01*
X268711Y14509D01*
X268566Y13780D01*
X268711Y13050D01*
X269124Y12431D01*
X269743Y12018D01*
X270472Y11873D01*
X271202Y12018D01*
X271821Y12431D01*
X272234Y13050D01*
X272379Y13780D01*
X272234Y14509D01*
X271821Y15128D01*
X271202Y15541D01*
X270472Y15686D01*
D02*
G37*
G36*
X348819Y16460D02*
X348125Y16369D01*
X347479Y16101D01*
X346924Y15675D01*
X346498Y15120D01*
X346230Y14473D01*
X346139Y13780D01*
X346230Y13086D01*
X346498Y12439D01*
X346924Y11884D01*
X347479Y11458D01*
X348125Y11191D01*
X348819Y11099D01*
X349513Y11191D01*
X350159Y11458D01*
X350714Y11884D01*
X351140Y12439D01*
X351408Y13086D01*
X351499Y13780D01*
X351408Y14473D01*
X351140Y15120D01*
X350714Y15675D01*
X350159Y16101D01*
X349513Y16369D01*
X348819Y16460D01*
D02*
G37*
G36*
X381890Y24830D02*
X381067Y24722D01*
X380301Y24405D01*
X379643Y23900D01*
X379139Y23242D01*
X378821Y22476D01*
X378713Y21654D01*
X378821Y20831D01*
X378975Y20460D01*
X379088Y20038D01*
X378720Y19841D01*
X378333Y19680D01*
X377675Y19175D01*
X377170Y18518D01*
X376853Y17751D01*
X376745Y16929D01*
X376853Y16107D01*
X377170Y15341D01*
X377675Y14683D01*
X378333Y14178D01*
X379099Y13861D01*
X379921Y13752D01*
X380744Y13861D01*
X381510Y14178D01*
X382168Y14683D01*
X382672Y15341D01*
X382990Y16107D01*
X383098Y16929D01*
X382990Y17751D01*
X382836Y18123D01*
X382723Y18545D01*
X383091Y18742D01*
X383478Y18902D01*
X384136Y19407D01*
X384641Y20065D01*
X384958Y20831D01*
X385067Y21654D01*
X384958Y22476D01*
X384641Y23242D01*
X384136Y23900D01*
X383478Y24405D01*
X382712Y24722D01*
X381890Y24830D01*
D02*
G37*
G36*
X374016D02*
X373194Y24722D01*
X372427Y24405D01*
X371769Y23900D01*
X371265Y23242D01*
X370947Y22476D01*
X370839Y21654D01*
X370947Y20831D01*
X371101Y20460D01*
X371214Y20038D01*
X370846Y19841D01*
X370459Y19680D01*
X369801Y19175D01*
X369296Y18518D01*
X368979Y17751D01*
X368870Y16929D01*
X368979Y16107D01*
X369296Y15341D01*
X369801Y14683D01*
X370459Y14178D01*
X371225Y13861D01*
X372047Y13752D01*
X372869Y13861D01*
X373636Y14178D01*
X374294Y14683D01*
X374798Y15341D01*
X375116Y16107D01*
X375224Y16929D01*
X375116Y17751D01*
X374962Y18123D01*
X374849Y18545D01*
X375217Y18742D01*
X375604Y18902D01*
X376262Y19407D01*
X376767Y20065D01*
X377084Y20831D01*
X377192Y21654D01*
X377084Y22476D01*
X376767Y23242D01*
X376262Y23900D01*
X375604Y24405D01*
X374838Y24722D01*
X374016Y24830D01*
D02*
G37*
G36*
X177756Y17350D02*
X176934Y17242D01*
X176168Y16924D01*
X175510Y16420D01*
X175005Y15762D01*
X174687Y14995D01*
X174579Y14173D01*
X174687Y13351D01*
X175005Y12585D01*
X175510Y11927D01*
X176168Y11422D01*
X176934Y11105D01*
X177756Y10996D01*
X178578Y11105D01*
X179344Y11422D01*
X180002Y11927D01*
X180507Y12585D01*
X180824Y13351D01*
X180933Y14173D01*
X180824Y14995D01*
X180507Y15762D01*
X180002Y16420D01*
X179344Y16924D01*
X178578Y17242D01*
X177756Y17350D01*
D02*
G37*
G36*
X315354Y11355D02*
X314625Y11210D01*
X314006Y10797D01*
X313593Y10178D01*
X313448Y9449D01*
X313561Y8879D01*
X313520Y8804D01*
X313244Y8528D01*
X313168Y8486D01*
X312598Y8600D01*
X311869Y8455D01*
X311250Y8041D01*
X310837Y7423D01*
X310692Y6693D01*
X310837Y5963D01*
X311250Y5345D01*
X311869Y4931D01*
X312598Y4786D01*
X313328Y4931D01*
X313947Y5345D01*
X314360Y5963D01*
X314505Y6693D01*
X314392Y7263D01*
X314433Y7338D01*
X314709Y7614D01*
X314785Y7655D01*
X315354Y7542D01*
X316084Y7687D01*
X316703Y8101D01*
X317116Y8719D01*
X317261Y9449D01*
X317116Y10178D01*
X316703Y10797D01*
X316084Y11210D01*
X315354Y11355D01*
D02*
G37*
G36*
X281102Y10962D02*
X280373Y10817D01*
X279754Y10403D01*
X279341Y9785D01*
X279196Y9055D01*
X279341Y8325D01*
X279754Y7707D01*
X280373Y7294D01*
X281102Y7148D01*
X281832Y7294D01*
X282451Y7707D01*
X282864Y8325D01*
X283009Y9055D01*
X282864Y9785D01*
X282451Y10403D01*
X281832Y10817D01*
X281102Y10962D01*
D02*
G37*
G36*
X324410Y14505D02*
X323680Y14360D01*
X323061Y13947D01*
X322648Y13328D01*
X322503Y12598D01*
X322648Y11869D01*
X323061Y11250D01*
X323680Y10837D01*
X324410Y10692D01*
X325139Y10837D01*
X325758Y11250D01*
X326171Y11869D01*
X326316Y12598D01*
X326171Y13328D01*
X325758Y13947D01*
X325139Y14360D01*
X324410Y14505D01*
D02*
G37*
G36*
X470472Y13019D02*
X469650Y12911D01*
X468884Y12594D01*
X468226Y12089D01*
X467721Y11431D01*
X467404Y10665D01*
X467348Y10244D01*
X466826Y10104D01*
X466813Y10120D01*
X466155Y10625D01*
X465389Y10943D01*
X464567Y11051D01*
X463745Y10943D01*
X462979Y10625D01*
X462321Y10120D01*
X461905Y9579D01*
X461719Y9535D01*
X461510D01*
X461323Y9579D01*
X460908Y10120D01*
X460250Y10625D01*
X459484Y10943D01*
X458661Y11051D01*
X457839Y10943D01*
X457073Y10625D01*
X456415Y10120D01*
X455910Y9462D01*
X455593Y8696D01*
X455485Y7874D01*
X455593Y7052D01*
X455910Y6286D01*
X456415Y5628D01*
X456956Y5212D01*
X457000Y5026D01*
Y4817D01*
X456956Y4630D01*
X456415Y4215D01*
X455910Y3557D01*
X455593Y2791D01*
X455485Y1969D01*
X455593Y1146D01*
X455910Y380D01*
X456415Y-278D01*
X456956Y-693D01*
X457000Y-880D01*
Y-1089D01*
X456956Y-1276D01*
X456415Y-1691D01*
X455910Y-2349D01*
X455593Y-3115D01*
X455485Y-3937D01*
X455593Y-4759D01*
X455910Y-5525D01*
X456415Y-6183D01*
X456956Y-6599D01*
X457000Y-6786D01*
Y-6994D01*
X456956Y-7181D01*
X456415Y-7596D01*
X455910Y-8254D01*
X455593Y-9020D01*
X455485Y-9843D01*
X455593Y-10665D01*
X455910Y-11431D01*
X456415Y-12089D01*
X457073Y-12594D01*
X457839Y-12911D01*
X458661Y-13019D01*
X459484Y-12911D01*
X460250Y-12594D01*
X460908Y-12089D01*
X461323Y-11548D01*
X461510Y-11503D01*
X461719D01*
X461905Y-11548D01*
X462321Y-12089D01*
X462979Y-12594D01*
X463745Y-12911D01*
X464567Y-13019D01*
X465389Y-12911D01*
X466155Y-12594D01*
X466813Y-12089D01*
X467229Y-11548D01*
X467415Y-11503D01*
X467624D01*
X467811Y-11548D01*
X468226Y-12089D01*
X468884Y-12594D01*
X469650Y-12911D01*
X470472Y-13019D01*
X471295Y-12911D01*
X472061Y-12594D01*
X472719Y-12089D01*
X473224Y-11431D01*
X473541Y-10665D01*
X473649Y-9843D01*
X473541Y-9020D01*
X473224Y-8254D01*
X472719Y-7596D01*
X472061Y-7091D01*
X471295Y-6774D01*
X470472Y-6666D01*
X469650Y-6774D01*
X468884Y-7091D01*
X468226Y-7596D01*
X467811Y-8137D01*
X467624Y-8182D01*
X467415D01*
X467229Y-8137D01*
X466813Y-7596D01*
X466272Y-7181D01*
X466228Y-6994D01*
Y-6786D01*
X466272Y-6599D01*
X466813Y-6183D01*
X467318Y-5525D01*
X467635Y-4759D01*
X467744Y-3937D01*
X467635Y-3115D01*
X467318Y-2349D01*
X466813Y-1691D01*
X466272Y-1276D01*
X466228Y-1089D01*
Y-880D01*
X466272Y-693D01*
X466813Y-278D01*
X467318Y380D01*
X467635Y1146D01*
X467744Y1969D01*
X467635Y2791D01*
X467318Y3557D01*
X466813Y4215D01*
X466272Y4630D01*
X466228Y4817D01*
Y5026D01*
X466272Y5212D01*
X466813Y5628D01*
X467318Y6286D01*
X467635Y7052D01*
X467691Y7472D01*
X468214Y7613D01*
X468226Y7596D01*
X468884Y7091D01*
X469650Y6774D01*
X470472Y6666D01*
X471295Y6774D01*
X472061Y7091D01*
X472719Y7596D01*
X473224Y8254D01*
X473541Y9020D01*
X473649Y9843D01*
X473541Y10665D01*
X473224Y11431D01*
X472719Y12089D01*
X472061Y12594D01*
X471295Y12911D01*
X470472Y13019D01*
D02*
G37*
G36*
X389764Y24830D02*
X388942Y24722D01*
X388175Y24405D01*
X387517Y23900D01*
X387013Y23242D01*
X386695Y22476D01*
X386587Y21654D01*
X386695Y20831D01*
X386849Y20460D01*
X386962Y20038D01*
X386595Y19841D01*
X386207Y19680D01*
X385549Y19175D01*
X385044Y18518D01*
X384727Y17751D01*
X384618Y16929D01*
X384727Y16107D01*
X385044Y15341D01*
X385549Y14683D01*
X386207Y14178D01*
X386973Y13861D01*
X387795Y13752D01*
X388617Y13861D01*
X389384Y14178D01*
X390042Y14683D01*
X390546Y15341D01*
X390864Y16107D01*
X390972Y16929D01*
X390864Y17751D01*
X390710Y18123D01*
X390597Y18545D01*
X390965Y18742D01*
X391352Y18902D01*
X392010Y19407D01*
X392515Y20065D01*
X392832Y20831D01*
X392941Y21654D01*
X392832Y22476D01*
X392515Y23242D01*
X392010Y23900D01*
X391352Y24405D01*
X390586Y24722D01*
X389764Y24830D01*
D02*
G37*
G36*
X429134D02*
X428312Y24722D01*
X427545Y24405D01*
X426888Y23900D01*
X426383Y23242D01*
X426065Y22476D01*
X425957Y21654D01*
X426065Y20831D01*
X426219Y20460D01*
X426332Y20038D01*
X425964Y19841D01*
X425577Y19680D01*
X424919Y19175D01*
X424414Y18518D01*
X424097Y17751D01*
X423989Y16929D01*
X424097Y16107D01*
X424414Y15341D01*
X424919Y14683D01*
X425577Y14178D01*
X426343Y13861D01*
X427165Y13752D01*
X427988Y13861D01*
X428754Y14178D01*
X429412Y14683D01*
X429916Y15341D01*
X430234Y16107D01*
X430342Y16929D01*
X430234Y17751D01*
X430080Y18123D01*
X429967Y18545D01*
X430335Y18742D01*
X430722Y18902D01*
X431380Y19407D01*
X431885Y20065D01*
X432202Y20831D01*
X432311Y21654D01*
X432202Y22476D01*
X431885Y23242D01*
X431380Y23900D01*
X430722Y24405D01*
X429956Y24722D01*
X429134Y24830D01*
D02*
G37*
G36*
X421260D02*
X420438Y24722D01*
X419671Y24405D01*
X419014Y23900D01*
X418509Y23242D01*
X418191Y22476D01*
X418083Y21654D01*
X418191Y20831D01*
X418345Y20460D01*
X418458Y20038D01*
X418090Y19841D01*
X417703Y19680D01*
X417045Y19175D01*
X416540Y18518D01*
X416223Y17751D01*
X416115Y16929D01*
X416223Y16107D01*
X416540Y15341D01*
X417045Y14683D01*
X417703Y14178D01*
X418469Y13861D01*
X419291Y13752D01*
X420114Y13861D01*
X420880Y14178D01*
X421538Y14683D01*
X422043Y15341D01*
X422360Y16107D01*
X422468Y16929D01*
X422360Y17751D01*
X422206Y18123D01*
X422093Y18545D01*
X422461Y18742D01*
X422848Y18902D01*
X423506Y19407D01*
X424011Y20065D01*
X424328Y20831D01*
X424437Y21654D01*
X424328Y22476D01*
X424011Y23242D01*
X423506Y23900D01*
X422848Y24405D01*
X422082Y24722D01*
X421260Y24830D01*
D02*
G37*
G36*
X442913Y20106D02*
X442091Y19998D01*
X441325Y19680D01*
X440667Y19175D01*
X440162Y18518D01*
X439845Y17751D01*
X439737Y16929D01*
X439845Y16107D01*
X440162Y15341D01*
X440667Y14683D01*
X441325Y14178D01*
X442091Y13861D01*
X442913Y13752D01*
X443736Y13861D01*
X444502Y14178D01*
X445160Y14683D01*
X445665Y15341D01*
X445982Y16107D01*
X446090Y16929D01*
X445982Y17751D01*
X445665Y18518D01*
X445160Y19175D01*
X444502Y19680D01*
X443736Y19998D01*
X442913Y20106D01*
D02*
G37*
G36*
X437008Y24830D02*
X436186Y24722D01*
X435420Y24405D01*
X434761Y23900D01*
X434257Y23242D01*
X433939Y22476D01*
X433831Y21654D01*
X433939Y20831D01*
X434093Y20460D01*
X434206Y20038D01*
X433839Y19841D01*
X433451Y19680D01*
X432793Y19175D01*
X432288Y18518D01*
X431971Y17751D01*
X431863Y16929D01*
X431971Y16107D01*
X432288Y15341D01*
X432793Y14683D01*
X433451Y14178D01*
X434217Y13861D01*
X435039Y13752D01*
X435862Y13861D01*
X436628Y14178D01*
X437286Y14683D01*
X437790Y15341D01*
X438108Y16107D01*
X438216Y16929D01*
X438108Y17751D01*
X437954Y18123D01*
X437841Y18545D01*
X438209Y18742D01*
X438596Y18902D01*
X439254Y19407D01*
X439759Y20065D01*
X440076Y20831D01*
X440185Y21654D01*
X440076Y22476D01*
X439759Y23242D01*
X439254Y23900D01*
X438596Y24405D01*
X437830Y24722D01*
X437008Y24830D01*
D02*
G37*
G36*
X413386D02*
X412564Y24722D01*
X411797Y24405D01*
X411139Y23900D01*
X410635Y23242D01*
X410317Y22476D01*
X410209Y21654D01*
X410317Y20831D01*
X410471Y20460D01*
X410584Y20038D01*
X410217Y19841D01*
X409829Y19680D01*
X409171Y19175D01*
X408666Y18518D01*
X408349Y17751D01*
X408241Y16929D01*
X408349Y16107D01*
X408666Y15341D01*
X409171Y14683D01*
X409829Y14178D01*
X410595Y13861D01*
X411417Y13752D01*
X412240Y13861D01*
X413006Y14178D01*
X413664Y14683D01*
X414169Y15341D01*
X414486Y16107D01*
X414594Y16929D01*
X414486Y17751D01*
X414332Y18123D01*
X414219Y18545D01*
X414587Y18742D01*
X414974Y18902D01*
X415632Y19407D01*
X416137Y20065D01*
X416454Y20831D01*
X416563Y21654D01*
X416454Y22476D01*
X416137Y23242D01*
X415632Y23900D01*
X414974Y24405D01*
X414208Y24722D01*
X413386Y24830D01*
D02*
G37*
G36*
X405512D02*
X404690Y24722D01*
X403923Y24405D01*
X403265Y23900D01*
X402761Y23242D01*
X402443Y22476D01*
X402335Y21654D01*
X402443Y20831D01*
X402597Y20460D01*
X402710Y20038D01*
X402343Y19841D01*
X401955Y19680D01*
X401297Y19175D01*
X400792Y18518D01*
X400475Y17751D01*
X400366Y16929D01*
X400475Y16107D01*
X400792Y15341D01*
X401297Y14683D01*
X401955Y14178D01*
X402721Y13861D01*
X403543Y13752D01*
X404365Y13861D01*
X405132Y14178D01*
X405790Y14683D01*
X406294Y15341D01*
X406612Y16107D01*
X406720Y16929D01*
X406612Y17751D01*
X406458Y18123D01*
X406345Y18545D01*
X406713Y18742D01*
X407100Y18902D01*
X407758Y19407D01*
X408263Y20065D01*
X408580Y20831D01*
X408689Y21654D01*
X408580Y22476D01*
X408263Y23242D01*
X407758Y23900D01*
X407100Y24405D01*
X406334Y24722D01*
X405512Y24830D01*
D02*
G37*
G36*
X397638D02*
X396816Y24722D01*
X396049Y24405D01*
X395392Y23900D01*
X394887Y23242D01*
X394569Y22476D01*
X394461Y21654D01*
X394569Y20831D01*
X394723Y20460D01*
X394836Y20038D01*
X394468Y19841D01*
X394081Y19680D01*
X393423Y19175D01*
X392918Y18518D01*
X392601Y17751D01*
X392493Y16929D01*
X392601Y16107D01*
X392918Y15341D01*
X393423Y14683D01*
X394081Y14178D01*
X394847Y13861D01*
X395669Y13752D01*
X396492Y13861D01*
X397258Y14178D01*
X397916Y14683D01*
X398421Y15341D01*
X398738Y16107D01*
X398846Y16929D01*
X398738Y17751D01*
X398584Y18123D01*
X398471Y18545D01*
X398839Y18742D01*
X399226Y18902D01*
X399884Y19407D01*
X400389Y20065D01*
X400706Y20831D01*
X400815Y21654D01*
X400706Y22476D01*
X400389Y23242D01*
X399884Y23900D01*
X399226Y24405D01*
X398460Y24722D01*
X397638Y24830D01*
D02*
G37*
%LPD*%
G36*
X535433Y-57087D02*
Y-100394D01*
X533465Y-102362D01*
X490158D01*
X488189Y-100394D01*
Y-57087D01*
X490158Y-55118D01*
X533465D01*
X535433Y-57087D01*
D02*
G37*
G36*
X417323Y-55118D02*
X417323Y-100394D01*
X415354Y-102362D01*
X372047D01*
X370079Y-100394D01*
X370079Y-55118D01*
X372047Y-53150D01*
X415354Y-53149D01*
X417323Y-55118D01*
D02*
G37*
G36*
X535433Y100394D02*
Y57087D01*
X533465Y55118D01*
X490158D01*
X488189Y57087D01*
Y100394D01*
X490158Y102362D01*
X533465D01*
X535433Y100394D01*
D02*
G37*
%LPC*%
G36*
X53976Y-42128D02*
X52471Y-42276D01*
X51024Y-42715D01*
X49690Y-43428D01*
X48522Y-44388D01*
X47562Y-45557D01*
X46849Y-46890D01*
X46410Y-48338D01*
X46262Y-49843D01*
X46410Y-51348D01*
X46849Y-52795D01*
X47562Y-54128D01*
X48522Y-55297D01*
X49690Y-56257D01*
X51024Y-56970D01*
X52471Y-57409D01*
X53976Y-57557D01*
X55481Y-57409D01*
X56928Y-56970D01*
X58262Y-56257D01*
X59431Y-55297D01*
X60391Y-54128D01*
X61103Y-52795D01*
X61542Y-51348D01*
X61691Y-49843D01*
X61542Y-48338D01*
X61103Y-46890D01*
X60391Y-45557D01*
X59431Y-44388D01*
X58262Y-43428D01*
X56928Y-42715D01*
X55481Y-42276D01*
X53976Y-42128D01*
D02*
G37*
G36*
Y57557D02*
X52471Y57409D01*
X51024Y56970D01*
X49690Y56257D01*
X48522Y55297D01*
X47562Y54128D01*
X46849Y52795D01*
X46410Y51348D01*
X46262Y49843D01*
X46410Y48338D01*
X46849Y46890D01*
X47562Y45557D01*
X48522Y44388D01*
X49690Y43428D01*
X51024Y42715D01*
X52471Y42276D01*
X53976Y42128D01*
X55481Y42276D01*
X56928Y42715D01*
X58262Y43428D01*
X59431Y44388D01*
X60391Y45557D01*
X61103Y46890D01*
X61542Y48338D01*
X61691Y49843D01*
X61542Y51348D01*
X61103Y52795D01*
X60391Y54128D01*
X59431Y55297D01*
X58262Y56257D01*
X56928Y56970D01*
X55481Y57409D01*
X53976Y57557D01*
D02*
G37*
%LPD*%
D77*
X9935Y9468D02*
X10310D01*
X11060Y9093D01*
X11434Y8718D01*
X11809Y7968D01*
Y6469D01*
X11434Y5719D01*
X11060Y5344D01*
X10310Y4969D01*
X9560D01*
X8810Y5344D01*
X7686Y6094D01*
X3937Y9843D01*
Y4594D01*
D79*
X545276Y-62992D02*
D03*
Y49213D02*
D03*
X9843Y-25591D02*
D03*
Y25591D02*
D03*
Y108268D02*
D03*
Y-108268D02*
D03*
X541339D02*
D03*
Y108268D02*
D03*
D81*
X345472Y78740D02*
D03*
Y74803D02*
D03*
X339567D02*
D03*
Y78740D02*
D03*
X342520Y76772D02*
D03*
D82*
X516811Y-93740D02*
D03*
X506811D02*
D03*
X496811D02*
D03*
X526811D02*
D03*
Y-83740D02*
D03*
Y-73740D02*
D03*
Y-63740D02*
D03*
X516811D02*
D03*
X506811D02*
D03*
X496811D02*
D03*
Y-73740D02*
D03*
Y-83740D02*
D03*
X398701Y-93740D02*
D03*
X388701D02*
D03*
X378701D02*
D03*
X408701D02*
D03*
Y-83740D02*
D03*
Y-73740D02*
D03*
Y-63740D02*
D03*
X398701D02*
D03*
X388701D02*
D03*
X378701D02*
D03*
Y-73740D02*
D03*
Y-83740D02*
D03*
X44370Y63740D02*
D03*
X34370D02*
D03*
X24370D02*
D03*
X54370D02*
D03*
Y73740D02*
D03*
Y83740D02*
D03*
Y93740D02*
D03*
X44370D02*
D03*
X34370D02*
D03*
X24370D02*
D03*
Y83740D02*
D03*
Y73740D02*
D03*
X44370Y-93740D02*
D03*
X34370D02*
D03*
X24370D02*
D03*
X54370D02*
D03*
Y-83740D02*
D03*
Y-73740D02*
D03*
Y-63740D02*
D03*
X44370D02*
D03*
X34370D02*
D03*
X24370D02*
D03*
Y-73740D02*
D03*
Y-83740D02*
D03*
X516811Y63740D02*
D03*
X506811D02*
D03*
X496811D02*
D03*
X526811D02*
D03*
Y73740D02*
D03*
Y83740D02*
D03*
Y93740D02*
D03*
X516811D02*
D03*
X506811D02*
D03*
X496811D02*
D03*
Y83740D02*
D03*
Y73740D02*
D03*
D83*
X254232Y-110433D02*
D03*
X226083D02*
D03*
D85*
X338189Y-23228D02*
D03*
X231496Y55118D02*
D03*
X235039Y87795D02*
D03*
Y81496D02*
D03*
X224410Y93307D02*
D03*
X221260D02*
D03*
X224410Y75984D02*
D03*
X221260D02*
D03*
X208563Y72539D02*
D03*
X205413D02*
D03*
X208563Y90650D02*
D03*
X205413D02*
D03*
X288189Y24803D02*
D03*
X250000Y21260D02*
D03*
X253937Y25591D02*
D03*
X267717Y66929D02*
D03*
X260236Y96063D02*
D03*
X230315Y102362D02*
D03*
X240158D02*
D03*
X211417Y57087D02*
D03*
Y60236D02*
D03*
X261024Y30315D02*
D03*
X334646Y-51575D02*
D03*
X296063Y17717D02*
D03*
X264961Y-57874D02*
D03*
X506693Y45669D02*
D03*
X478346Y98425D02*
D03*
X490158Y108268D02*
D03*
X393701Y114173D02*
D03*
X295276Y-6299D02*
D03*
X279528Y-9055D02*
D03*
X253937Y-100394D02*
D03*
Y-104331D02*
D03*
X222441Y-56693D02*
D03*
X224803Y-62598D02*
D03*
X222441Y-88583D02*
D03*
X250394Y-22441D02*
D03*
Y-9843D02*
D03*
X222441Y-49213D02*
D03*
X222835Y-38189D02*
D03*
X358661Y102362D02*
D03*
X356299Y84646D02*
D03*
X340158Y93307D02*
D03*
X258268Y39764D02*
D03*
Y43701D02*
D03*
X332283Y18898D02*
D03*
X337008Y27953D02*
D03*
X352362Y22835D02*
D03*
X309055Y68898D02*
D03*
X234252Y38976D02*
D03*
X250394Y-787D02*
D03*
Y2756D02*
D03*
X147638Y92520D02*
D03*
X157874D02*
D03*
Y100394D02*
D03*
X147638D02*
D03*
X152756Y92520D02*
D03*
X147638Y96457D02*
D03*
X152756D02*
D03*
X157874D02*
D03*
X152756Y100394D02*
D03*
X147638Y74409D02*
D03*
X157874D02*
D03*
Y82284D02*
D03*
X147638D02*
D03*
X152756Y74409D02*
D03*
X147638Y78347D02*
D03*
X152756D02*
D03*
X157874D02*
D03*
X152756Y82284D02*
D03*
X147638Y56299D02*
D03*
X157874D02*
D03*
Y64173D02*
D03*
X147638D02*
D03*
X152756Y56299D02*
D03*
X147638Y60236D02*
D03*
X152756D02*
D03*
X157874D02*
D03*
X152756Y64173D02*
D03*
X147638Y38189D02*
D03*
X157874D02*
D03*
Y46063D02*
D03*
X147638D02*
D03*
X152756Y38189D02*
D03*
X147638Y42126D02*
D03*
X152756D02*
D03*
X157874D02*
D03*
X152756Y46063D02*
D03*
X147638Y20079D02*
D03*
X157874D02*
D03*
Y27953D02*
D03*
X147638D02*
D03*
X152756Y20079D02*
D03*
X147638Y24016D02*
D03*
X152756D02*
D03*
X157874D02*
D03*
X152756Y27953D02*
D03*
X147638Y1969D02*
D03*
X157874D02*
D03*
Y9843D02*
D03*
X147638D02*
D03*
X152756Y1969D02*
D03*
X147638Y5906D02*
D03*
X152756D02*
D03*
X157874D02*
D03*
X152756Y9843D02*
D03*
X147638Y-16142D02*
D03*
X157874D02*
D03*
Y-8268D02*
D03*
X147638D02*
D03*
X152756Y-16142D02*
D03*
X147638Y-12205D02*
D03*
X152756D02*
D03*
X157874D02*
D03*
X152756Y-8268D02*
D03*
X147638Y-34252D02*
D03*
X157874D02*
D03*
Y-26378D02*
D03*
X147638D02*
D03*
X152756Y-34252D02*
D03*
X147638Y-30315D02*
D03*
X152756D02*
D03*
X157874D02*
D03*
X152756Y-26378D02*
D03*
X147638Y-52362D02*
D03*
X157874D02*
D03*
Y-44488D02*
D03*
X147638D02*
D03*
X152756Y-52362D02*
D03*
X147638Y-48425D02*
D03*
X152756D02*
D03*
X157874D02*
D03*
X152756Y-44488D02*
D03*
X147638Y-70473D02*
D03*
X157874D02*
D03*
Y-62598D02*
D03*
X147638D02*
D03*
X152756Y-70473D02*
D03*
X147638Y-66535D02*
D03*
X152756D02*
D03*
X157874D02*
D03*
X152756Y-62598D02*
D03*
X147638Y-88583D02*
D03*
X157874D02*
D03*
Y-80709D02*
D03*
X147638D02*
D03*
X152756Y-88583D02*
D03*
X147638Y-84646D02*
D03*
X152756D02*
D03*
X157874D02*
D03*
X152756Y-80709D02*
D03*
Y-98819D02*
D03*
X157874Y-102756D02*
D03*
X152756D02*
D03*
X147638D02*
D03*
X152756Y-106693D02*
D03*
X147638Y-98819D02*
D03*
X157874D02*
D03*
Y-106693D02*
D03*
X147638D02*
D03*
X208661Y-17323D02*
D03*
X323228Y-26378D02*
D03*
X281102Y-33465D02*
D03*
X278346Y0D02*
D03*
X277953Y9055D02*
D03*
X295276Y394D02*
D03*
X208563Y36319D02*
D03*
X205413D02*
D03*
X208563Y18209D02*
D03*
X205413D02*
D03*
X208563Y98D02*
D03*
X205413D02*
D03*
Y-18012D02*
D03*
X208563Y-36122D02*
D03*
X205413D02*
D03*
X208563Y-54232D02*
D03*
X205413D02*
D03*
X208563Y-72342D02*
D03*
X205413D02*
D03*
X208563Y-90453D02*
D03*
X205413D02*
D03*
X211417Y-102756D02*
D03*
Y-105905D02*
D03*
X353150Y-25197D02*
D03*
X250787Y-51181D02*
D03*
X224410Y-104331D02*
D03*
Y-100394D02*
D03*
X309842Y-44488D02*
D03*
X253937Y-61417D02*
D03*
X235039Y-104724D02*
D03*
X245276D02*
D03*
X246063Y-95669D02*
D03*
X248819Y-91732D02*
D03*
X243701Y-87008D02*
D03*
X235039Y-83858D02*
D03*
X255906Y-88583D02*
D03*
Y-80709D02*
D03*
X259842Y-84646D02*
D03*
X240158Y-73228D02*
D03*
X247244D02*
D03*
Y-66142D02*
D03*
X240158D02*
D03*
X250787Y-57480D02*
D03*
X307480Y89764D02*
D03*
X327559Y96457D02*
D03*
X318110D02*
D03*
Y108661D02*
D03*
X327559D02*
D03*
Y105512D02*
D03*
X318110D02*
D03*
X331890Y55118D02*
D03*
Y61024D02*
D03*
Y58268D02*
D03*
X364173Y55512D02*
D03*
Y58268D02*
D03*
Y61024D02*
D03*
Y64173D02*
D03*
Y68504D02*
D03*
Y72835D02*
D03*
X343307Y65748D02*
D03*
X345276Y63779D02*
D03*
X214567Y-111417D02*
D03*
X211417D02*
D03*
X359842Y-35039D02*
D03*
X350000Y-35827D02*
D03*
Y-30315D02*
D03*
X353150Y-20866D02*
D03*
X333465Y-20079D02*
D03*
X330315Y-95276D02*
D03*
X336221Y-74410D02*
D03*
X324016Y-61811D02*
D03*
X366142Y-52756D02*
D03*
X348819Y-62205D02*
D03*
X367323Y-63779D02*
D03*
Y-66929D02*
D03*
X293307Y103543D02*
D03*
Y106693D02*
D03*
X270079Y91732D02*
D03*
Y87795D02*
D03*
X274016Y74803D02*
D03*
Y77953D02*
D03*
X338583Y86614D02*
D03*
X360236Y76772D02*
D03*
X353150Y61024D02*
D03*
Y55905D02*
D03*
X335827Y85039D02*
D03*
X330709Y76772D02*
D03*
X322835D02*
D03*
X315354D02*
D03*
X337008Y105512D02*
D03*
Y108661D02*
D03*
X350394Y82677D02*
D03*
X328346Y32283D02*
D03*
X323622Y26378D02*
D03*
X353150Y-16929D02*
D03*
X270472Y-14567D02*
D03*
X271260Y1575D02*
D03*
X234646Y-57480D02*
D03*
X303937Y93307D02*
D03*
X238583Y-22047D02*
D03*
Y-14173D02*
D03*
Y-6299D02*
D03*
Y1575D02*
D03*
Y9449D02*
D03*
X234646Y18504D02*
D03*
X285827Y87402D02*
D03*
X307087Y21654D02*
D03*
X296457Y77953D02*
D03*
X293701Y65748D02*
D03*
X235039Y-51181D02*
D03*
X314961Y56299D02*
D03*
X279921Y-43701D02*
D03*
X290158D02*
D03*
X329528Y-1181D02*
D03*
X366142Y45669D02*
D03*
X337795Y37402D02*
D03*
X322047Y10236D02*
D03*
X356299Y45276D02*
D03*
X292913Y59449D02*
D03*
X296063Y-50394D02*
D03*
X305118Y-56299D02*
D03*
X234252Y29134D02*
D03*
X266535Y53543D02*
D03*
X270866Y49213D02*
D03*
X250000Y59055D02*
D03*
X259842D02*
D03*
X250000Y68898D02*
D03*
X229921Y64961D02*
D03*
X238976Y53150D02*
D03*
X251575Y80709D02*
D03*
Y100394D02*
D03*
X240158Y83071D02*
D03*
X310630Y41339D02*
D03*
D86*
X64173Y-112205D02*
D03*
Y-106299D02*
D03*
Y-100394D02*
D03*
Y100394D02*
D03*
Y106299D02*
D03*
Y112205D02*
D03*
X83858Y-57677D02*
D03*
X75197D02*
D03*
X83858Y57677D02*
D03*
X75197D02*
D03*
X366142Y-78740D02*
D03*
X356299D02*
D03*
X433071Y64961D02*
D03*
X421260D02*
D03*
X427165D02*
D03*
X101181Y112205D02*
D03*
X462598Y-43701D02*
D03*
X415354Y-78740D02*
D03*
Y-88583D02*
D03*
Y-98425D02*
D03*
X407480Y-55118D02*
D03*
X397638D02*
D03*
X377953D02*
D03*
X387795D02*
D03*
X101181Y-112205D02*
D03*
Y-106299D02*
D03*
Y-100394D02*
D03*
Y106299D02*
D03*
Y100394D02*
D03*
X456693Y59055D02*
D03*
X484646Y64173D02*
D03*
X478346Y-114173D02*
D03*
X472441D02*
D03*
X484252D02*
D03*
X427165D02*
D03*
X433071D02*
D03*
X421260D02*
D03*
X464567Y-62992D02*
D03*
X338583Y-112205D02*
D03*
X388976Y-114173D02*
D03*
X414961Y-59055D02*
D03*
Y-64173D02*
D03*
Y-68898D02*
D03*
X420472Y37402D02*
D03*
X421260Y51181D02*
D03*
X431102D02*
D03*
X442913Y40157D02*
D03*
X456299D02*
D03*
M02*
