G04 Layer_Color=128*
%FSLAX25Y25*%
%MOIN*%
G70*
G01*
G75*
%ADD20R,0.04331X0.05512*%
%ADD51R,0.08268X0.11811*%
%ADD52R,0.03150X0.06299*%
%ADD65R,0.44094X0.08071*%
%ADD87R,0.03150X0.06614*%
%ADD88R,0.06299X0.05905*%
%ADD89R,0.05079X0.05512*%
%ADD90R,0.06693X0.05905*%
%ADD91R,0.05079X0.05118*%
%ADD92R,0.05905X0.06693*%
G04:AMPARAMS|DCode=93|XSize=59.05mil|YSize=24.02mil|CornerRadius=3.6mil|HoleSize=0mil|Usage=FLASHONLY|Rotation=90.000|XOffset=0mil|YOffset=0mil|HoleType=Round|Shape=RoundedRectangle|*
%AMROUNDEDRECTD93*
21,1,0.05905,0.01681,0,0,90.0*
21,1,0.05185,0.02402,0,0,90.0*
1,1,0.00721,0.00841,0.02593*
1,1,0.00721,0.00841,-0.02593*
1,1,0.00721,-0.00841,-0.02593*
1,1,0.00721,-0.00841,0.02593*
%
%ADD93ROUNDEDRECTD93*%
G04:AMPARAMS|DCode=94|XSize=59.05mil|YSize=24.02mil|CornerRadius=3.6mil|HoleSize=0mil|Usage=FLASHONLY|Rotation=180.000|XOffset=0mil|YOffset=0mil|HoleType=Round|Shape=RoundedRectangle|*
%AMROUNDEDRECTD94*
21,1,0.05905,0.01681,0,0,180.0*
21,1,0.05185,0.02402,0,0,180.0*
1,1,0.00721,-0.02593,0.00841*
1,1,0.00721,0.02593,0.00841*
1,1,0.00721,0.02593,-0.00841*
1,1,0.00721,-0.02593,-0.00841*
%
%ADD94ROUNDEDRECTD94*%
G04:AMPARAMS|DCode=95|XSize=39.37mil|YSize=39.37mil|CornerRadius=5.91mil|HoleSize=0mil|Usage=FLASHONLY|Rotation=180.000|XOffset=0mil|YOffset=0mil|HoleType=Round|Shape=RoundedRectangle|*
%AMROUNDEDRECTD95*
21,1,0.03937,0.02756,0,0,180.0*
21,1,0.02756,0.03937,0,0,180.0*
1,1,0.01181,-0.01378,0.01378*
1,1,0.01181,0.01378,0.01378*
1,1,0.01181,0.01378,-0.01378*
1,1,0.01181,-0.01378,-0.01378*
%
%ADD95ROUNDEDRECTD95*%
D20*
X229429Y-33071D02*
D03*
X222539D02*
D03*
X285531Y-87008D02*
D03*
X292421D02*
D03*
D51*
X271457Y-108268D02*
D03*
X311221D02*
D03*
X303346Y108465D02*
D03*
X263583D02*
D03*
X271457Y-67323D02*
D03*
X311221D02*
D03*
D52*
X281496Y-96653D02*
D03*
X301181D02*
D03*
X291339D02*
D03*
X296260D02*
D03*
X286417D02*
D03*
X293307Y96850D02*
D03*
X273622D02*
D03*
X283465D02*
D03*
X278543D02*
D03*
X288386D02*
D03*
X281496Y-55709D02*
D03*
X301181D02*
D03*
X291339D02*
D03*
X296260D02*
D03*
X286417D02*
D03*
D65*
X393700Y42127D02*
D03*
X393701Y28740D02*
D03*
D87*
X225984Y-43760D02*
D03*
X221654D02*
D03*
X217323D02*
D03*
X212992D02*
D03*
X243307D02*
D03*
X238976D02*
D03*
X234646D02*
D03*
X230315D02*
D03*
D88*
X207480Y-43406D02*
D03*
D89*
X204902Y-78839D02*
D03*
D90*
X257283Y-43406D02*
D03*
D91*
X204902Y-49508D02*
D03*
D92*
X258465Y-102264D02*
D03*
X205315D02*
D03*
D93*
X216535Y70472D02*
D03*
X220472D02*
D03*
X224410D02*
D03*
X228346D02*
D03*
X232283D02*
D03*
X236221D02*
D03*
X240158D02*
D03*
X244094D02*
D03*
D94*
X246496Y76772D02*
D03*
Y80709D02*
D03*
Y84646D02*
D03*
Y88583D02*
D03*
Y92520D02*
D03*
Y96457D02*
D03*
Y100394D02*
D03*
Y104331D02*
D03*
X214134D02*
D03*
Y100394D02*
D03*
Y96457D02*
D03*
Y92520D02*
D03*
Y88583D02*
D03*
Y84646D02*
D03*
Y80709D02*
D03*
Y76772D02*
D03*
D95*
X245709Y112205D02*
D03*
X234252Y99409D02*
D03*
X214921Y112205D02*
D03*
X226378Y99409D02*
D03*
M02*
