G04 Layer_Physical_Order=4*
G04 Layer_Color=16711680*
%FSLAX25Y25*%
%MOIN*%
G70*
G01*
G75*
%ADD20R,0.04331X0.05512*%
%ADD51R,0.08268X0.11811*%
%ADD52R,0.03150X0.06299*%
%ADD65R,0.44094X0.08071*%
%ADD71C,0.03150*%
%ADD73C,0.01968*%
%ADD74C,0.00787*%
%ADD75C,0.01575*%
%ADD76C,0.02362*%
%ADD77C,0.01181*%
%ADD79C,0.03937*%
%ADD80C,0.27559*%
%ADD81C,0.01968*%
%ADD82C,0.07874*%
%ADD83C,0.07480*%
%ADD84C,0.13780*%
%ADD85C,0.02165*%
%ADD86C,0.03150*%
%ADD87R,0.03150X0.06614*%
%ADD88R,0.06299X0.05905*%
%ADD89R,0.05079X0.05512*%
%ADD90R,0.06693X0.05905*%
%ADD91R,0.05079X0.05118*%
%ADD92R,0.05905X0.06693*%
G04:AMPARAMS|DCode=93|XSize=59.05mil|YSize=24.02mil|CornerRadius=3.6mil|HoleSize=0mil|Usage=FLASHONLY|Rotation=90.000|XOffset=0mil|YOffset=0mil|HoleType=Round|Shape=RoundedRectangle|*
%AMROUNDEDRECTD93*
21,1,0.05905,0.01681,0,0,90.0*
21,1,0.05185,0.02402,0,0,90.0*
1,1,0.00721,0.00841,0.02593*
1,1,0.00721,0.00841,-0.02593*
1,1,0.00721,-0.00841,-0.02593*
1,1,0.00721,-0.00841,0.02593*
%
%ADD93ROUNDEDRECTD93*%
G04:AMPARAMS|DCode=94|XSize=59.05mil|YSize=24.02mil|CornerRadius=3.6mil|HoleSize=0mil|Usage=FLASHONLY|Rotation=180.000|XOffset=0mil|YOffset=0mil|HoleType=Round|Shape=RoundedRectangle|*
%AMROUNDEDRECTD94*
21,1,0.05905,0.01681,0,0,180.0*
21,1,0.05185,0.02402,0,0,180.0*
1,1,0.00721,-0.02593,0.00841*
1,1,0.00721,0.02593,0.00841*
1,1,0.00721,0.02593,-0.00841*
1,1,0.00721,-0.02593,-0.00841*
%
%ADD94ROUNDEDRECTD94*%
G04:AMPARAMS|DCode=95|XSize=39.37mil|YSize=39.37mil|CornerRadius=5.91mil|HoleSize=0mil|Usage=FLASHONLY|Rotation=180.000|XOffset=0mil|YOffset=0mil|HoleType=Round|Shape=RoundedRectangle|*
%AMROUNDEDRECTD95*
21,1,0.03937,0.02756,0,0,180.0*
21,1,0.02756,0.03937,0,0,180.0*
1,1,0.01181,-0.01378,0.01378*
1,1,0.01181,0.01378,0.01378*
1,1,0.01181,0.01378,-0.01378*
1,1,0.01181,-0.01378,-0.01378*
%
%ADD95ROUNDEDRECTD95*%
G36*
X320866Y-66929D02*
X320866Y-94488D01*
X324803Y-98425D01*
X324803Y-116906D01*
X265748D01*
X265748Y-66929D01*
X269685Y-62992D01*
X316929Y-62992D01*
X320866Y-66929D01*
D02*
G37*
G36*
X19685Y116906D02*
X74802D01*
X74802Y98424D01*
X70866Y94488D01*
X62992Y86614D01*
Y-86614D01*
X70866Y-94488D01*
X74803Y-98425D01*
X74803Y-116906D01*
X19685D01*
X19637Y-116916D01*
X17271Y-116761D01*
X14899Y-116289D01*
X12608Y-115511D01*
X10438Y-114441D01*
X8427Y-113097D01*
X6608Y-111502D01*
X5013Y-109683D01*
X3669Y-107672D01*
X2599Y-105502D01*
X1822Y-103212D01*
X1350Y-100839D01*
X1195Y-98473D01*
X1204Y-98425D01*
Y-19685D01*
X15748D01*
Y19685D01*
X1204D01*
Y98425D01*
X1195Y98473D01*
X1350Y100839D01*
X1822Y103212D01*
X2599Y105502D01*
X3669Y107672D01*
X5013Y109683D01*
X6608Y111502D01*
X8427Y113097D01*
X10438Y114441D01*
X12608Y115511D01*
X14899Y116289D01*
X17271Y116761D01*
X19637Y116916D01*
X19685Y116906D01*
D02*
G37*
G36*
X533910Y116761D02*
X536282Y116289D01*
X538573Y115511D01*
X540743Y114441D01*
X542754Y113097D01*
X544573Y111502D01*
X546168Y109683D01*
X547512Y107672D01*
X548582Y105502D01*
X549360Y103212D01*
X549831Y100839D01*
X549986Y98473D01*
X549977Y98425D01*
Y-98425D01*
X549986Y-98473D01*
X549831Y-100839D01*
X549360Y-103212D01*
X548582Y-105502D01*
X547512Y-107672D01*
X546168Y-109683D01*
X544573Y-111502D01*
X542754Y-113097D01*
X540743Y-114441D01*
X538573Y-115511D01*
X536282Y-116289D01*
X533910Y-116761D01*
X531544Y-116916D01*
X531496Y-116906D01*
X328347D01*
X328346Y-96063D01*
X324803Y-92520D01*
Y-64961D01*
X318898Y-59055D01*
X303543D01*
Y-54413D01*
X303587Y-54369D01*
X309842D01*
X310611Y-54216D01*
X311262Y-53781D01*
X311697Y-53130D01*
X311850Y-52362D01*
X311697Y-51594D01*
X311262Y-50943D01*
X310611Y-50508D01*
X309842Y-50355D01*
X302756D01*
X301988Y-50508D01*
X301337Y-50943D01*
X300508Y-51772D01*
X298819D01*
Y-51772D01*
X298622D01*
Y-51772D01*
X293898D01*
Y-51772D01*
X293701D01*
X293230Y-51701D01*
X293001Y-51272D01*
X293100Y-51123D01*
X293245Y-50394D01*
X293100Y-49664D01*
X292687Y-49045D01*
X292068Y-48632D01*
X291339Y-48487D01*
X290609Y-48632D01*
X289990Y-49045D01*
X289577Y-49664D01*
X289432Y-50394D01*
X289577Y-51123D01*
X289676Y-51272D01*
X289447Y-51701D01*
X288976Y-51772D01*
X288779D01*
X288395Y-51493D01*
X288277Y-51272D01*
X288376Y-51123D01*
X288521Y-50394D01*
X288376Y-49664D01*
X287962Y-49045D01*
X287344Y-48632D01*
X286614Y-48487D01*
X285884Y-48632D01*
X285266Y-49045D01*
X284853Y-49664D01*
X284707Y-50394D01*
X284853Y-51123D01*
X284952Y-51272D01*
X284684Y-51772D01*
X284055D01*
Y-59055D01*
X267717D01*
X261811Y-64961D01*
X261811Y-116906D01*
X78740D01*
Y-96457D01*
X68898Y-86614D01*
Y86614D01*
X78740Y96457D01*
Y116906D01*
X190945D01*
X190945Y106299D01*
X192913Y104331D01*
X210371Y104331D01*
Y103490D01*
X210460Y103042D01*
X210714Y102663D01*
Y102062D01*
X210460Y101682D01*
X210371Y101234D01*
Y99553D01*
X210460Y99105D01*
X210714Y98726D01*
Y98125D01*
X210460Y97745D01*
X210371Y97297D01*
Y95616D01*
X210460Y95168D01*
X210714Y94789D01*
Y94188D01*
X210460Y93808D01*
X210371Y93360D01*
Y91679D01*
X210460Y91231D01*
X210714Y90852D01*
Y90251D01*
X210460Y89871D01*
X210371Y89423D01*
Y87742D01*
X210460Y87294D01*
X210714Y86915D01*
Y86314D01*
X210460Y85934D01*
X210371Y85486D01*
Y83805D01*
X210460Y83357D01*
X210714Y82978D01*
Y82377D01*
X210460Y81997D01*
X210371Y81549D01*
Y79868D01*
X210460Y79420D01*
X210714Y79041D01*
X211094Y78787D01*
X211541Y78698D01*
X216726D01*
X217174Y78787D01*
X217554Y79041D01*
X217595Y79103D01*
X219359D01*
X219498Y78404D01*
X219912Y77786D01*
X220530Y77372D01*
X221260Y77227D01*
X221989Y77372D01*
X222608Y77786D01*
X223021Y78404D01*
X223167Y79134D01*
X223021Y79864D01*
X222866Y80097D01*
Y81321D01*
X223021Y81554D01*
X223167Y82284D01*
X223021Y83013D01*
X222608Y83632D01*
X221989Y84045D01*
X221260Y84190D01*
X220530Y84045D01*
X219912Y83632D01*
X219498Y83013D01*
X219359Y82314D01*
X217595D01*
X217554Y82377D01*
Y82978D01*
X217807Y83357D01*
X217897Y83805D01*
Y85486D01*
X217807Y85934D01*
X217554Y86314D01*
Y86915D01*
X217807Y87294D01*
X217897Y87742D01*
Y89423D01*
X217807Y89871D01*
X217554Y90251D01*
Y90852D01*
X217807Y91231D01*
X217897Y91679D01*
Y93360D01*
X217807Y93808D01*
X217554Y94188D01*
Y94789D01*
X217807Y95168D01*
X217897Y95616D01*
Y97297D01*
X217807Y97745D01*
X217554Y98125D01*
Y98726D01*
X217807Y99105D01*
X217897Y99553D01*
Y101234D01*
X217807Y101682D01*
X217554Y102062D01*
Y102663D01*
X217807Y103042D01*
X217897Y103490D01*
Y104331D01*
X242733Y104331D01*
Y103490D01*
X242823Y103042D01*
X243076Y102663D01*
Y102062D01*
X242823Y101682D01*
X242733Y101234D01*
Y99553D01*
X242823Y99105D01*
X243076Y98726D01*
Y98125D01*
X242823Y97745D01*
X242733Y97297D01*
Y95616D01*
X242823Y95168D01*
X243076Y94789D01*
Y94188D01*
X242823Y93808D01*
X242733Y93360D01*
Y91679D01*
X242823Y91231D01*
X243076Y90852D01*
Y90251D01*
X242823Y89871D01*
X242733Y89423D01*
Y87742D01*
X242823Y87294D01*
X243076Y86915D01*
Y86314D01*
X242823Y85934D01*
X242733Y85486D01*
Y83805D01*
X242823Y83357D01*
X243076Y82978D01*
Y82377D01*
X242823Y81997D01*
X242733Y81549D01*
Y79868D01*
X242823Y79420D01*
X243076Y79041D01*
X243456Y78787D01*
X243903Y78698D01*
X249089D01*
X249536Y78787D01*
X249916Y79041D01*
X250170Y79420D01*
X250259Y79868D01*
Y81549D01*
X250170Y81997D01*
X249916Y82377D01*
Y82978D01*
X250170Y83357D01*
X250259Y83805D01*
Y85486D01*
X250170Y85934D01*
X249916Y86314D01*
Y86915D01*
X250170Y87294D01*
X250259Y87742D01*
Y89423D01*
X250170Y89871D01*
X249916Y90251D01*
Y90852D01*
X250170Y91231D01*
X250259Y91679D01*
Y93360D01*
X250170Y93808D01*
X249916Y94188D01*
Y94789D01*
X250170Y95168D01*
X250259Y95616D01*
Y97297D01*
X250170Y97745D01*
X249916Y98125D01*
Y98726D01*
X250170Y99105D01*
X250259Y99553D01*
Y101234D01*
X250170Y101682D01*
X249916Y102062D01*
Y102663D01*
X250170Y103042D01*
X250259Y103490D01*
Y104331D01*
X255906Y104331D01*
X257874Y106299D01*
Y116906D01*
X531496D01*
X531544Y116916D01*
X533910Y116761D01*
D02*
G37*
%LPC*%
G36*
X308268Y-85101D02*
X307538Y-85246D01*
X306920Y-85660D01*
X306577Y-86172D01*
X306393Y-86212D01*
X306205D01*
X306021Y-86172D01*
X305679Y-85660D01*
X305060Y-85246D01*
X304331Y-85101D01*
X303601Y-85246D01*
X302982Y-85660D01*
X302569Y-86278D01*
X302424Y-87008D01*
X302569Y-87738D01*
X302982Y-88356D01*
X303601Y-88769D01*
X304331Y-88915D01*
X305060Y-88769D01*
X305679Y-88356D01*
X306021Y-87844D01*
X306205Y-87803D01*
X306393D01*
X306577Y-87844D01*
X306920Y-88356D01*
X307538Y-88769D01*
X308268Y-88915D01*
X308997Y-88769D01*
X309616Y-88356D01*
X310029Y-87738D01*
X310174Y-87008D01*
X310029Y-86278D01*
X309616Y-85660D01*
X308997Y-85246D01*
X308268Y-85101D01*
D02*
G37*
G36*
X318110Y-81558D02*
X317381Y-81703D01*
X316762Y-82116D01*
X316349Y-82735D01*
X316203Y-83465D01*
X316349Y-84194D01*
X316762Y-84813D01*
X317381Y-85226D01*
X318110Y-85371D01*
X318840Y-85226D01*
X319459Y-84813D01*
X319872Y-84194D01*
X320017Y-83465D01*
X319872Y-82735D01*
X319459Y-82116D01*
X318840Y-81703D01*
X318110Y-81558D01*
D02*
G37*
G36*
X295374Y-83465D02*
X289469D01*
Y-90551D01*
X289934D01*
Y-92716D01*
X288976D01*
X288976Y-92716D01*
X288779D01*
Y-92716D01*
X288476Y-92716D01*
X287822D01*
Y-90551D01*
X288484D01*
Y-83465D01*
X282579D01*
Y-90551D01*
X285012D01*
Y-92716D01*
X284055D01*
Y-100591D01*
X284055Y-100591D01*
X284038Y-101084D01*
X283671Y-101632D01*
X283526Y-102362D01*
X283671Y-103092D01*
X284028Y-103626D01*
Y-105905D01*
X284135Y-106443D01*
X284440Y-106899D01*
X285621Y-108080D01*
X286076Y-108385D01*
X286614Y-108492D01*
X296457D01*
X296994Y-108385D01*
X297450Y-108080D01*
X298631Y-106899D01*
X298936Y-106443D01*
X299043Y-105905D01*
Y-103428D01*
X299543Y-103276D01*
X299833Y-103710D01*
X300451Y-104124D01*
X301181Y-104269D01*
X301911Y-104124D01*
X302529Y-103710D01*
X302943Y-103092D01*
X303088Y-102362D01*
X302943Y-101632D01*
X302586Y-101099D01*
Y-100591D01*
X303543D01*
Y-92716D01*
X298819D01*
X298819Y-92716D01*
X298622D01*
Y-92716D01*
X298319Y-92716D01*
X293898D01*
Y-92716D01*
X293701D01*
Y-92716D01*
X292743D01*
Y-90551D01*
X295374D01*
Y-83465D01*
D02*
G37*
G36*
X53976Y-42128D02*
X52471Y-42276D01*
X51024Y-42715D01*
X49690Y-43428D01*
X48522Y-44388D01*
X47562Y-45557D01*
X46849Y-46890D01*
X46410Y-48338D01*
X46262Y-49843D01*
X46410Y-51348D01*
X46849Y-52795D01*
X47562Y-54128D01*
X48522Y-55297D01*
X49690Y-56257D01*
X51024Y-56970D01*
X52471Y-57409D01*
X53976Y-57557D01*
X55481Y-57409D01*
X56928Y-56970D01*
X58262Y-56257D01*
X59431Y-55297D01*
X60391Y-54128D01*
X61103Y-52795D01*
X61542Y-51348D01*
X61691Y-49843D01*
X61542Y-48338D01*
X61103Y-46890D01*
X60391Y-45557D01*
X59431Y-44388D01*
X58262Y-43428D01*
X56928Y-42715D01*
X55481Y-42276D01*
X53976Y-42128D01*
D02*
G37*
G36*
Y57557D02*
X52471Y57409D01*
X51024Y56970D01*
X49690Y56257D01*
X48522Y55297D01*
X47562Y54128D01*
X46849Y52795D01*
X46410Y51348D01*
X46262Y49843D01*
X46410Y48338D01*
X46849Y46890D01*
X47562Y45557D01*
X48522Y44388D01*
X49690Y43428D01*
X51024Y42715D01*
X52471Y42276D01*
X53976Y42128D01*
X55481Y42276D01*
X56928Y42715D01*
X58262Y43428D01*
X59431Y44388D01*
X60391Y45557D01*
X61103Y46890D01*
X61542Y48338D01*
X61691Y49843D01*
X61542Y51348D01*
X61103Y52795D01*
X60391Y54128D01*
X59431Y55297D01*
X58262Y56257D01*
X56928Y56970D01*
X55481Y57409D01*
X53976Y57557D01*
D02*
G37*
G36*
X232382Y-29528D02*
X226476D01*
Y-36186D01*
X226385Y-36641D01*
X226031Y-36745D01*
X225648Y-36821D01*
X225030Y-37234D01*
X224616Y-37853D01*
X224471Y-38583D01*
X224587Y-39165D01*
X224297Y-39665D01*
X223622D01*
Y-47854D01*
X224041D01*
X224309Y-48354D01*
X224223Y-48483D01*
X224078Y-49213D01*
X224223Y-49942D01*
X224636Y-50561D01*
X225255Y-50974D01*
X225984Y-51119D01*
X226714Y-50974D01*
X227332Y-50561D01*
X227746Y-49942D01*
X227891Y-49213D01*
X227746Y-48483D01*
X227660Y-48354D01*
X227927Y-47854D01*
X245669D01*
Y-39665D01*
X241058D01*
X240767Y-39165D01*
X240883Y-38583D01*
X240738Y-37853D01*
X240325Y-37234D01*
X239706Y-36821D01*
X238976Y-36676D01*
X238247Y-36821D01*
X237628Y-37234D01*
X237215Y-37853D01*
X237070Y-38583D01*
X237117Y-38819D01*
X236811Y-39207D01*
X236505Y-38819D01*
X236552Y-38583D01*
X236407Y-37853D01*
X235994Y-37234D01*
X235375Y-36821D01*
X234646Y-36676D01*
X233916Y-36821D01*
X233297Y-37234D01*
X232884Y-37853D01*
X232822Y-38165D01*
X232322Y-38116D01*
Y-36614D01*
X232382D01*
Y-29528D01*
D02*
G37*
G36*
X219685Y-39665D02*
X210630D01*
Y-47854D01*
X215918D01*
Y-51181D01*
X216025Y-51719D01*
X216329Y-52175D01*
X217904Y-53749D01*
X218360Y-54054D01*
X218898Y-54161D01*
X221178D01*
X221711Y-54518D01*
X222441Y-54663D01*
X223171Y-54518D01*
X223789Y-54104D01*
X224202Y-53486D01*
X224348Y-52756D01*
X224202Y-52026D01*
X223789Y-51408D01*
X223171Y-50994D01*
X222441Y-50849D01*
X221711Y-50994D01*
X221178Y-51351D01*
X219480D01*
X218728Y-50599D01*
Y-47854D01*
X219685D01*
Y-39665D01*
D02*
G37*
G36*
X193701Y-44170D02*
X193007Y-44261D01*
X192361Y-44529D01*
X191806Y-44955D01*
X191379Y-45510D01*
X191112Y-46157D01*
X191020Y-46850D01*
X191112Y-47544D01*
X191379Y-48191D01*
X191806Y-48746D01*
X192361Y-49172D01*
X193007Y-49439D01*
X193701Y-49531D01*
X194395Y-49439D01*
X195041Y-49172D01*
X195596Y-48746D01*
X196022Y-48191D01*
X196290Y-47544D01*
X196381Y-46850D01*
X196290Y-46157D01*
X196022Y-45510D01*
X195596Y-44955D01*
X195041Y-44529D01*
X194395Y-44261D01*
X193701Y-44170D01*
D02*
G37*
G36*
X356299Y-33934D02*
X355606Y-34025D01*
X354959Y-34293D01*
X354404Y-34719D01*
X353978Y-35274D01*
X353710Y-35920D01*
X353619Y-36614D01*
X353710Y-37308D01*
X353978Y-37954D01*
X354404Y-38510D01*
X354959Y-38936D01*
X355606Y-39203D01*
X356299Y-39295D01*
X356993Y-39203D01*
X357639Y-38936D01*
X358194Y-38510D01*
X358621Y-37954D01*
X358888Y-37308D01*
X358980Y-36614D01*
X358888Y-35920D01*
X358621Y-35274D01*
X358194Y-34719D01*
X357639Y-34293D01*
X356993Y-34025D01*
X356299Y-33934D01*
D02*
G37*
G36*
X177756Y-36981D02*
X131102D01*
X130280Y-37089D01*
X129514Y-37406D01*
X128856Y-37911D01*
X124919Y-41848D01*
X124414Y-42506D01*
X124097Y-43272D01*
X123989Y-44094D01*
X124097Y-44917D01*
X124414Y-45683D01*
X124919Y-46341D01*
X125577Y-46846D01*
X126343Y-47163D01*
X127165Y-47271D01*
X127988Y-47163D01*
X128754Y-46846D01*
X129412Y-46341D01*
X132418Y-43334D01*
X177756D01*
X178578Y-43226D01*
X179344Y-42909D01*
X180002Y-42404D01*
X180507Y-41746D01*
X180824Y-40980D01*
X180933Y-40157D01*
X180824Y-39335D01*
X180507Y-38569D01*
X180002Y-37911D01*
X179344Y-37406D01*
X178578Y-37089D01*
X177756Y-36981D01*
D02*
G37*
G36*
Y-55091D02*
X131102D01*
X130280Y-55199D01*
X129514Y-55516D01*
X128856Y-56021D01*
X124919Y-59958D01*
X124414Y-60616D01*
X124097Y-61383D01*
X123989Y-62205D01*
X124097Y-63027D01*
X124414Y-63793D01*
X124919Y-64451D01*
X125577Y-64956D01*
X126343Y-65273D01*
X127165Y-65381D01*
X127988Y-65273D01*
X128754Y-64956D01*
X129412Y-64451D01*
X132418Y-61444D01*
X177756D01*
X178578Y-61336D01*
X179344Y-61019D01*
X180002Y-60514D01*
X180507Y-59856D01*
X180824Y-59090D01*
X180933Y-58268D01*
X180824Y-57446D01*
X180507Y-56679D01*
X180002Y-56021D01*
X179344Y-55516D01*
X178578Y-55199D01*
X177756Y-55091D01*
D02*
G37*
G36*
X193701Y-62280D02*
X193007Y-62372D01*
X192361Y-62639D01*
X191806Y-63065D01*
X191379Y-63620D01*
X191112Y-64267D01*
X191020Y-64961D01*
X191112Y-65654D01*
X191379Y-66301D01*
X191806Y-66856D01*
X192361Y-67282D01*
X193007Y-67550D01*
X193701Y-67641D01*
X194395Y-67550D01*
X195041Y-67282D01*
X195596Y-66856D01*
X196022Y-66301D01*
X196290Y-65654D01*
X196381Y-64961D01*
X196290Y-64267D01*
X196022Y-63620D01*
X195596Y-63065D01*
X195041Y-62639D01*
X194395Y-62372D01*
X193701Y-62280D01*
D02*
G37*
G36*
X277165Y-38644D02*
X276436Y-38790D01*
X275817Y-39203D01*
X275404Y-39821D01*
X275259Y-40551D01*
X275404Y-41281D01*
X275817Y-41899D01*
X275961Y-41996D01*
Y-51863D01*
X275485Y-52339D01*
X233071D01*
X232610Y-52431D01*
X232219Y-52692D01*
X231038Y-53873D01*
X230777Y-54264D01*
X230685Y-54724D01*
X230685Y-54725D01*
Y-64304D01*
X230626Y-64343D01*
X230003D01*
X229470Y-63986D01*
X228740Y-63841D01*
X228011Y-63986D01*
X227477Y-64343D01*
X227165D01*
X226628Y-64450D01*
X226172Y-64755D01*
X225384Y-65542D01*
X225080Y-65998D01*
X224973Y-66535D01*
Y-80315D01*
X225080Y-80853D01*
X225384Y-81308D01*
X226172Y-82096D01*
X226628Y-82400D01*
X227165Y-82507D01*
X229304D01*
Y-94411D01*
X229134Y-94550D01*
X228404Y-94695D01*
X227786Y-95108D01*
X227372Y-95727D01*
X227227Y-96457D01*
X227372Y-97186D01*
X227786Y-97805D01*
X228404Y-98218D01*
X229134Y-98363D01*
X229864Y-98218D01*
X230097Y-98062D01*
X231320D01*
X231554Y-98218D01*
X232283Y-98363D01*
X233013Y-98218D01*
X233632Y-97805D01*
X234045Y-97186D01*
X234190Y-96457D01*
X234045Y-95727D01*
X233632Y-95108D01*
X233013Y-94695D01*
X232283Y-94550D01*
X232114Y-94411D01*
Y-81890D01*
X232007Y-81352D01*
X231702Y-80896D01*
X230915Y-80109D01*
X230459Y-79804D01*
X229921Y-79697D01*
X227783D01*
Y-67913D01*
X228283Y-67564D01*
X228740Y-67655D01*
X229470Y-67510D01*
X230003Y-67153D01*
X230626D01*
X231160Y-67510D01*
X231890Y-67655D01*
X232619Y-67510D01*
X233238Y-67096D01*
X233651Y-66478D01*
X233797Y-65748D01*
X233651Y-65018D01*
X233238Y-64400D01*
X233094Y-64304D01*
Y-55223D01*
X233570Y-54748D01*
X275984D01*
X275984Y-54748D01*
X276445Y-54656D01*
X276836Y-54395D01*
X278017Y-53214D01*
X278278Y-52823D01*
X278370Y-52362D01*
Y-41996D01*
X278514Y-41899D01*
X278927Y-41281D01*
X279072Y-40551D01*
X278927Y-39821D01*
X278514Y-39203D01*
X277895Y-38790D01*
X277165Y-38644D01*
D02*
G37*
G36*
X245276Y-55574D02*
X244546Y-55719D01*
X243927Y-56132D01*
X243474D01*
X242856Y-55719D01*
X242126Y-55574D01*
X241396Y-55719D01*
X240778Y-56132D01*
X240364Y-56751D01*
X240219Y-57480D01*
X240364Y-58210D01*
X240778Y-58829D01*
X241396Y-59242D01*
X241709Y-59304D01*
Y-77060D01*
X237337Y-81432D01*
X237076Y-81823D01*
X236985Y-82284D01*
X236985Y-82284D01*
Y-86759D01*
X236672Y-86821D01*
X236053Y-87234D01*
X235640Y-87853D01*
X235495Y-88583D01*
X235640Y-89312D01*
X236053Y-89931D01*
X236672Y-90344D01*
X237402Y-90489D01*
X238131Y-90344D01*
X238750Y-89931D01*
X239203D01*
X239822Y-90344D01*
X240551Y-90489D01*
X241281Y-90344D01*
X241899Y-89931D01*
X242313Y-89312D01*
X242458Y-88583D01*
X242313Y-87853D01*
X241899Y-87234D01*
X241281Y-86821D01*
X240968Y-86759D01*
Y-83570D01*
X245340Y-79198D01*
X245340Y-79198D01*
X245601Y-78807D01*
X245692Y-78347D01*
Y-59304D01*
X246005Y-59242D01*
X246624Y-58829D01*
X247037Y-58210D01*
X247182Y-57480D01*
X247037Y-56751D01*
X246624Y-56132D01*
X246005Y-55719D01*
X245276Y-55574D01*
D02*
G37*
G36*
X363386Y-33934D02*
X362692Y-34025D01*
X362046Y-34293D01*
X361491Y-34719D01*
X361065Y-35274D01*
X360797Y-35920D01*
X360705Y-36614D01*
X360797Y-37308D01*
X361065Y-37954D01*
X361491Y-38510D01*
X362046Y-38936D01*
X362692Y-39203D01*
X363386Y-39295D01*
X364080Y-39203D01*
X364726Y-38936D01*
X365281Y-38510D01*
X365707Y-37954D01*
X365975Y-37308D01*
X366066Y-36614D01*
X365975Y-35920D01*
X365707Y-35274D01*
X365281Y-34719D01*
X364726Y-34293D01*
X364080Y-34025D01*
X363386Y-33934D01*
D02*
G37*
G36*
X229921Y63324D02*
X229192Y63179D01*
X228573Y62766D01*
X228160Y62147D01*
X228015Y61417D01*
X228160Y60688D01*
X228573Y60069D01*
Y59616D01*
X228160Y58997D01*
X228015Y58268D01*
X228160Y57538D01*
X228573Y56919D01*
X229192Y56506D01*
X229921Y56361D01*
X230651Y56506D01*
X231270Y56919D01*
X231683Y57538D01*
X231745Y57851D01*
X232966D01*
X233048Y57769D01*
Y44094D01*
X233048Y44094D01*
X233139Y43634D01*
X233400Y43243D01*
X234188Y42456D01*
X234578Y42195D01*
X235039Y42103D01*
X243989D01*
X244071Y42021D01*
Y-17323D01*
X244071Y-17323D01*
X244163Y-17784D01*
X244424Y-18174D01*
X245605Y-19355D01*
X245605Y-19355D01*
X245996Y-19616D01*
X246457Y-19708D01*
X246457Y-19708D01*
X248949D01*
X249045Y-19852D01*
X249664Y-20266D01*
X250394Y-20411D01*
X251123Y-20266D01*
X251742Y-19852D01*
X251838Y-19708D01*
X260525D01*
X263715Y-22899D01*
X263715Y-22899D01*
X264106Y-23160D01*
X264567Y-23252D01*
X269028D01*
X269124Y-23395D01*
X269743Y-23809D01*
X270472Y-23954D01*
X271202Y-23809D01*
X271821Y-23395D01*
X272234Y-22777D01*
X272379Y-22047D01*
X272234Y-21318D01*
X271821Y-20699D01*
X271308Y-20357D01*
X271268Y-20173D01*
Y-19985D01*
X271308Y-19801D01*
X271821Y-19458D01*
X272234Y-18840D01*
X272379Y-18110D01*
X272234Y-17381D01*
X271821Y-16762D01*
X271202Y-16349D01*
X270472Y-16204D01*
X269743Y-16349D01*
X269124Y-16762D01*
X269028Y-16906D01*
X265459D01*
X263056Y-14503D01*
X262666Y-14242D01*
X262205Y-14150D01*
X262205Y-14150D01*
X251838D01*
X251742Y-14006D01*
X251123Y-13593D01*
X250394Y-13448D01*
X249664Y-13593D01*
X249045Y-14006D01*
X248579Y-13805D01*
X248448Y-13674D01*
Y44094D01*
X248448Y44094D01*
X248357Y44555D01*
X248096Y44946D01*
X248096Y44946D01*
X246915Y46127D01*
X246524Y46388D01*
X246063Y46480D01*
X246063Y46480D01*
X237507D01*
X237425Y46562D01*
Y59055D01*
X237333Y59516D01*
X237072Y59907D01*
X237072Y59907D01*
X235497Y61481D01*
X235106Y61743D01*
X234646Y61834D01*
X234646Y61834D01*
X231745D01*
X231683Y62147D01*
X231270Y62766D01*
X230651Y63179D01*
X229921Y63324D01*
D02*
G37*
G36*
X350000Y-21715D02*
X349270Y-21860D01*
X348652Y-22274D01*
X348238Y-22892D01*
X348093Y-23622D01*
X348238Y-24352D01*
X348652Y-24970D01*
X349270Y-25384D01*
X350000Y-25529D01*
X350730Y-25384D01*
X351348Y-24970D01*
X351762Y-24352D01*
X351907Y-23622D01*
X351762Y-22892D01*
X351348Y-22274D01*
X350730Y-21860D01*
X350000Y-21715D01*
D02*
G37*
G36*
X333465Y-8723D02*
X332735Y-8868D01*
X332116Y-9282D01*
X331703Y-9900D01*
X331558Y-10630D01*
X331703Y-11360D01*
X332116Y-11978D01*
Y-12431D01*
X331703Y-13050D01*
X331558Y-13780D01*
X331703Y-14509D01*
X331926Y-14843D01*
X331843Y-15501D01*
X331723Y-15581D01*
X331309Y-16199D01*
X331164Y-16929D01*
X331309Y-17659D01*
X331723Y-18277D01*
X332341Y-18691D01*
X333071Y-18836D01*
X333801Y-18691D01*
X334419Y-18277D01*
X334832Y-17659D01*
X334978Y-16929D01*
X334832Y-16199D01*
X334609Y-15865D01*
X334693Y-15208D01*
X334813Y-15128D01*
X335226Y-14509D01*
X335371Y-13780D01*
X335226Y-13050D01*
X334813Y-12431D01*
Y-11978D01*
X335226Y-11360D01*
X335371Y-10630D01*
X335226Y-9900D01*
X334813Y-9282D01*
X334194Y-8868D01*
X333465Y-8723D01*
D02*
G37*
G36*
X338189Y726D02*
X337459Y581D01*
X336841Y167D01*
X336427Y-451D01*
X336282Y-1181D01*
X336427Y-1911D01*
X336841Y-2529D01*
X337459Y-2943D01*
X338189Y-3088D01*
X338919Y-2943D01*
X339537Y-2529D01*
X339951Y-1911D01*
X340096Y-1181D01*
X339951Y-451D01*
X339537Y167D01*
X338919Y581D01*
X338189Y726D01*
D02*
G37*
G36*
X177756Y-760D02*
X131102D01*
X130280Y-869D01*
X129514Y-1186D01*
X128856Y-1691D01*
X124919Y-5628D01*
X124414Y-6286D01*
X124097Y-7052D01*
X123989Y-7874D01*
X124097Y-8696D01*
X124414Y-9462D01*
X124919Y-10120D01*
X125577Y-10625D01*
X126343Y-10943D01*
X127165Y-11051D01*
X127988Y-10943D01*
X128754Y-10625D01*
X129412Y-10120D01*
X132418Y-7114D01*
X177756D01*
X178578Y-7006D01*
X179344Y-6688D01*
X180002Y-6183D01*
X180507Y-5525D01*
X180824Y-4759D01*
X180933Y-3937D01*
X180824Y-3115D01*
X180507Y-2349D01*
X180002Y-1691D01*
X179344Y-1186D01*
X178578Y-869D01*
X177756Y-760D01*
D02*
G37*
G36*
X249213Y-28422D02*
X248519Y-28513D01*
X247872Y-28781D01*
X247317Y-29207D01*
X246891Y-29762D01*
X246623Y-30409D01*
X246532Y-31102D01*
X246623Y-31796D01*
X246749Y-32098D01*
X246338Y-32413D01*
X246222Y-32324D01*
X245576Y-32057D01*
X244882Y-31965D01*
X244188Y-32057D01*
X243542Y-32324D01*
X242987Y-32750D01*
X242561Y-33305D01*
X242293Y-33952D01*
X242201Y-34646D01*
X242293Y-35339D01*
X242561Y-35986D01*
X242987Y-36541D01*
X243542Y-36967D01*
X244188Y-37235D01*
X244882Y-37326D01*
X245576Y-37235D01*
X246222Y-36967D01*
X246777Y-36541D01*
X247203Y-35986D01*
X247471Y-35339D01*
X247562Y-34646D01*
X247471Y-33952D01*
X247346Y-33650D01*
X247757Y-33335D01*
X247872Y-33424D01*
X248519Y-33691D01*
X249213Y-33783D01*
X249906Y-33691D01*
X250553Y-33424D01*
X251108Y-32998D01*
X251534Y-32443D01*
X251802Y-31796D01*
X251893Y-31102D01*
X251802Y-30409D01*
X251534Y-29762D01*
X251108Y-29207D01*
X250553Y-28781D01*
X249906Y-28513D01*
X249213Y-28422D01*
D02*
G37*
G36*
X83858Y-14540D02*
X83036Y-14648D01*
X82270Y-14965D01*
X81612Y-15470D01*
X81107Y-16128D01*
X80790Y-16894D01*
X80682Y-17717D01*
X80790Y-18539D01*
X81107Y-19305D01*
X81612Y-19963D01*
X82270Y-20468D01*
X83036Y-20785D01*
X83858Y-20893D01*
X84680Y-20785D01*
X85447Y-20468D01*
X85668Y-20298D01*
X114679D01*
X115529Y-21148D01*
Y-32283D01*
X115617Y-32952D01*
X115875Y-33574D01*
X116285Y-34109D01*
X118254Y-36077D01*
X118788Y-36487D01*
X119411Y-36745D01*
X120079Y-36833D01*
X122993D01*
X123215Y-37003D01*
X123981Y-37321D01*
X124803Y-37429D01*
X125625Y-37321D01*
X126391Y-37003D01*
X127050Y-36498D01*
X127554Y-35840D01*
X127872Y-35074D01*
X127980Y-34252D01*
X127872Y-33430D01*
X127554Y-32664D01*
X127050Y-32006D01*
X126391Y-31501D01*
X125625Y-31183D01*
X124803Y-31075D01*
X123981Y-31183D01*
X123215Y-31501D01*
X122993Y-31671D01*
X121148D01*
X120691Y-31214D01*
Y-20079D01*
X120603Y-19411D01*
X120346Y-18788D01*
X119935Y-18254D01*
X117573Y-15891D01*
X117039Y-15481D01*
X116416Y-15223D01*
X115748Y-15135D01*
X85668D01*
X85447Y-14965D01*
X84680Y-14648D01*
X83858Y-14540D01*
D02*
G37*
G36*
X320079Y-23190D02*
X319311Y-23343D01*
X318659Y-23778D01*
X316691Y-25746D01*
X316256Y-26397D01*
X316103Y-27165D01*
X316256Y-27933D01*
X316691Y-28585D01*
X317342Y-29020D01*
X318110Y-29172D01*
X318878Y-29020D01*
X319529Y-28585D01*
X321498Y-26616D01*
X321933Y-25965D01*
X322086Y-25197D01*
X321933Y-24429D01*
X321498Y-23778D01*
X320847Y-23343D01*
X320079Y-23190D01*
D02*
G37*
G36*
X338189Y-24471D02*
X337459Y-24616D01*
X336841Y-25030D01*
X336498Y-25542D01*
X336315Y-25582D01*
X336126D01*
X335943Y-25542D01*
X335600Y-25030D01*
X334982Y-24616D01*
X334252Y-24471D01*
X333522Y-24616D01*
X332904Y-25030D01*
X332561Y-25542D01*
X332378Y-25582D01*
X332189D01*
X332006Y-25542D01*
X331663Y-25030D01*
X331045Y-24616D01*
X330315Y-24471D01*
X329585Y-24616D01*
X328967Y-25030D01*
X328624Y-25542D01*
X328441Y-25582D01*
X328252D01*
X328069Y-25542D01*
X327726Y-25030D01*
X327108Y-24616D01*
X326378Y-24471D01*
X325648Y-24616D01*
X325030Y-25030D01*
X324616Y-25648D01*
X324471Y-26378D01*
X324616Y-27108D01*
X325030Y-27726D01*
X325648Y-28139D01*
X326378Y-28285D01*
X327108Y-28139D01*
X327726Y-27726D01*
X328069Y-27214D01*
X328252Y-27174D01*
X328441D01*
X328624Y-27214D01*
X328967Y-27726D01*
X329585Y-28139D01*
X330315Y-28285D01*
X331045Y-28139D01*
X331663Y-27726D01*
X332006Y-27214D01*
X332189Y-27174D01*
X332378D01*
X332561Y-27214D01*
X332904Y-27726D01*
X333522Y-28139D01*
X334252Y-28285D01*
X334982Y-28139D01*
X335600Y-27726D01*
X335943Y-27214D01*
X336126Y-27174D01*
X336315D01*
X336498Y-27214D01*
X336841Y-27726D01*
X337459Y-28139D01*
X338189Y-28285D01*
X338919Y-28139D01*
X339537Y-27726D01*
X339951Y-27108D01*
X340096Y-26378D01*
X339951Y-25648D01*
X339537Y-25030D01*
X338919Y-24616D01*
X338189Y-24471D01*
D02*
G37*
G36*
X177756Y-18870D02*
X131102D01*
X130280Y-18979D01*
X129514Y-19296D01*
X128856Y-19801D01*
X124919Y-23738D01*
X124414Y-24396D01*
X124097Y-25162D01*
X123989Y-25984D01*
X124097Y-26807D01*
X124414Y-27573D01*
X124919Y-28231D01*
X125577Y-28735D01*
X126343Y-29053D01*
X127165Y-29161D01*
X127988Y-29053D01*
X128754Y-28735D01*
X129412Y-28231D01*
X132418Y-25224D01*
X177756D01*
X178578Y-25116D01*
X179344Y-24798D01*
X180002Y-24294D01*
X180507Y-23636D01*
X180824Y-22870D01*
X180933Y-22047D01*
X180824Y-21225D01*
X180507Y-20459D01*
X180002Y-19801D01*
X179344Y-19296D01*
X178578Y-18979D01*
X177756Y-18870D01*
D02*
G37*
G36*
X237795Y-55574D02*
X237066Y-55719D01*
X236447Y-56132D01*
X236034Y-56751D01*
X235889Y-57480D01*
X236034Y-58210D01*
X236447Y-58829D01*
X236591Y-58925D01*
Y-68399D01*
X236115Y-68875D01*
X231102D01*
X230642Y-68966D01*
X230251Y-69227D01*
X229463Y-70015D01*
X229202Y-70405D01*
X229111Y-70866D01*
X229111Y-70866D01*
Y-75327D01*
X228967Y-75423D01*
X228553Y-76042D01*
X228408Y-76772D01*
X228553Y-77501D01*
X228967Y-78120D01*
X229585Y-78533D01*
X230315Y-78678D01*
X231045Y-78533D01*
X231663Y-78120D01*
X232077Y-77501D01*
X232222Y-76772D01*
X232077Y-76042D01*
X231663Y-75423D01*
X231519Y-75327D01*
Y-71365D01*
X231601Y-71283D01*
X236614D01*
X236614Y-71283D01*
X237075Y-71191D01*
X237466Y-70930D01*
X238647Y-69749D01*
X238908Y-69358D01*
X239000Y-68898D01*
Y-58925D01*
X239143Y-58829D01*
X239557Y-58210D01*
X239702Y-57480D01*
X239557Y-56751D01*
X239143Y-56132D01*
X238525Y-55719D01*
X237795Y-55574D01*
D02*
G37*
G36*
X226583Y-105932D02*
Y-109933D01*
X230584D01*
X230494Y-109251D01*
X230037Y-108150D01*
X229312Y-107204D01*
X228366Y-106478D01*
X227265Y-106022D01*
X226583Y-105932D01*
D02*
G37*
G36*
X225583Y-105932D02*
X224901Y-106022D01*
X223799Y-106478D01*
X222854Y-107204D01*
X222128Y-108150D01*
X221672Y-109251D01*
X221582Y-109933D01*
X225583D01*
Y-105932D01*
D02*
G37*
G36*
X253732Y-105932D02*
X253050Y-106022D01*
X251949Y-106478D01*
X251003Y-107204D01*
X250277Y-108150D01*
X249821Y-109251D01*
X249731Y-109933D01*
X253732D01*
Y-105932D01*
D02*
G37*
G36*
X83858Y-38930D02*
X82937Y-39113D01*
X82155Y-39636D01*
X81633Y-40417D01*
X81450Y-41339D01*
X81633Y-42260D01*
X82155Y-43042D01*
X82937Y-43564D01*
X83858Y-43747D01*
X84780Y-43564D01*
X85407Y-43145D01*
X100827D01*
X102524Y-44843D01*
Y-47729D01*
X102662Y-48421D01*
X103053Y-49007D01*
X109217Y-55170D01*
Y-64567D01*
X109355Y-65258D01*
X109746Y-65844D01*
X115910Y-72008D01*
Y-103150D01*
X116048Y-103841D01*
X116439Y-104427D01*
X117707Y-105694D01*
X117854Y-106433D01*
X118376Y-107215D01*
X119157Y-107737D01*
X120079Y-107920D01*
X121000Y-107737D01*
X121782Y-107215D01*
X122304Y-106433D01*
X122487Y-105512D01*
X122304Y-104590D01*
X121782Y-103809D01*
X121000Y-103287D01*
X120261Y-103140D01*
X119523Y-102401D01*
Y-71260D01*
X119385Y-70569D01*
X118994Y-69983D01*
X112830Y-63819D01*
Y-54422D01*
X112692Y-53731D01*
X112301Y-53145D01*
X106137Y-46981D01*
Y-44094D01*
X106000Y-43403D01*
X105608Y-42817D01*
X102852Y-40061D01*
X102266Y-39670D01*
X101575Y-39532D01*
X85407D01*
X84780Y-39113D01*
X83858Y-38930D01*
D02*
G37*
G36*
X254732Y-105932D02*
Y-109933D01*
X258733D01*
X258643Y-109251D01*
X258187Y-108150D01*
X257461Y-107204D01*
X256516Y-106478D01*
X255414Y-106022D01*
X254732Y-105932D01*
D02*
G37*
G36*
X258733Y-110933D02*
X254732D01*
Y-114934D01*
X255414Y-114844D01*
X256516Y-114388D01*
X257461Y-113662D01*
X258187Y-112716D01*
X258643Y-111615D01*
X258733Y-110933D01*
D02*
G37*
G36*
X225583Y-110933D02*
X221582D01*
X221672Y-111615D01*
X222128Y-112716D01*
X222854Y-113662D01*
X223799Y-114388D01*
X224901Y-114844D01*
X225583Y-114934D01*
Y-110933D01*
D02*
G37*
G36*
X253732Y-110933D02*
X249731D01*
X249821Y-111615D01*
X250277Y-112716D01*
X251003Y-113662D01*
X251949Y-114388D01*
X253050Y-114844D01*
X253732Y-114934D01*
Y-110933D01*
D02*
G37*
G36*
X354331Y-102321D02*
X353097Y-102484D01*
X351948Y-102960D01*
X350961Y-103717D01*
X350204Y-104704D01*
X349728Y-105853D01*
X349566Y-107087D01*
X349728Y-108320D01*
X350204Y-109469D01*
X350961Y-110456D01*
X351948Y-111213D01*
X353097Y-111689D01*
X354331Y-111852D01*
X355564Y-111689D01*
X356713Y-111213D01*
X357700Y-110456D01*
X358457Y-109469D01*
X358613Y-109094D01*
X362205D01*
X362973Y-108941D01*
X363624Y-108506D01*
X364059Y-107855D01*
X364212Y-107087D01*
X364059Y-106318D01*
X363624Y-105667D01*
X362973Y-105232D01*
X362205Y-105079D01*
X358613D01*
X358457Y-104704D01*
X357700Y-103717D01*
X356713Y-102960D01*
X355564Y-102484D01*
X354331Y-102321D01*
D02*
G37*
G36*
X230584Y-110933D02*
X226583D01*
Y-114934D01*
X227265Y-114844D01*
X228366Y-114388D01*
X229312Y-113662D01*
X230037Y-112716D01*
X230494Y-111615D01*
X230584Y-110933D01*
D02*
G37*
G36*
X193701Y-98501D02*
X193007Y-98592D01*
X192361Y-98860D01*
X191806Y-99286D01*
X191379Y-99841D01*
X191112Y-100487D01*
X191020Y-101181D01*
X191112Y-101875D01*
X191379Y-102521D01*
X191806Y-103076D01*
X192361Y-103502D01*
X193007Y-103770D01*
X193701Y-103861D01*
X194395Y-103770D01*
X195041Y-103502D01*
X195596Y-103076D01*
X196022Y-102521D01*
X196290Y-101875D01*
X196381Y-101181D01*
X196290Y-100487D01*
X196022Y-99841D01*
X195596Y-99286D01*
X195041Y-98860D01*
X194395Y-98592D01*
X193701Y-98501D01*
D02*
G37*
G36*
Y-80391D02*
X193007Y-80482D01*
X192361Y-80750D01*
X191806Y-81176D01*
X191379Y-81731D01*
X191112Y-82377D01*
X191020Y-83071D01*
X191112Y-83765D01*
X191379Y-84411D01*
X191806Y-84966D01*
X192361Y-85392D01*
X193007Y-85660D01*
X193701Y-85751D01*
X194395Y-85660D01*
X195041Y-85392D01*
X195596Y-84966D01*
X196022Y-84411D01*
X196290Y-83765D01*
X196381Y-83071D01*
X196290Y-82377D01*
X196022Y-81731D01*
X195596Y-81176D01*
X195041Y-80750D01*
X194395Y-80482D01*
X193701Y-80391D01*
D02*
G37*
G36*
X83858Y-26351D02*
X83036Y-26459D01*
X82270Y-26776D01*
X81612Y-27281D01*
X81107Y-27939D01*
X80790Y-28705D01*
X80682Y-29528D01*
X80790Y-30350D01*
X81107Y-31116D01*
X81612Y-31774D01*
X82270Y-32279D01*
X83036Y-32596D01*
X83858Y-32704D01*
X84680Y-32596D01*
X85447Y-32279D01*
X85668Y-32109D01*
X109167D01*
X109624Y-32565D01*
Y-43307D01*
X109712Y-43975D01*
X109969Y-44598D01*
X110380Y-45132D01*
X115529Y-50282D01*
Y-62205D01*
X115617Y-62873D01*
X115875Y-63495D01*
X116285Y-64030D01*
X121785Y-69529D01*
X121735Y-69650D01*
X121626Y-70472D01*
X121735Y-71295D01*
X122052Y-72061D01*
X122557Y-72719D01*
X123215Y-73224D01*
X123981Y-73541D01*
X124803Y-73649D01*
X125625Y-73541D01*
X126391Y-73224D01*
X127050Y-72719D01*
X127554Y-72061D01*
X127872Y-71295D01*
X127980Y-70472D01*
X127872Y-69650D01*
X127554Y-68884D01*
X127347Y-68614D01*
X127296Y-68230D01*
X127039Y-67607D01*
X126628Y-67072D01*
X120691Y-61136D01*
Y-49213D01*
X120603Y-48545D01*
X120346Y-47922D01*
X119935Y-47387D01*
X114786Y-42238D01*
Y-31496D01*
X114698Y-30828D01*
X114440Y-30206D01*
X114030Y-29671D01*
X112061Y-27702D01*
X111527Y-27292D01*
X110904Y-27034D01*
X110236Y-26946D01*
X85668D01*
X85447Y-26776D01*
X84680Y-26459D01*
X83858Y-26351D01*
D02*
G37*
G36*
X177756Y-73201D02*
X131102D01*
X130280Y-73309D01*
X129514Y-73627D01*
X128856Y-74132D01*
X124919Y-78069D01*
X124414Y-78727D01*
X124097Y-79493D01*
X123989Y-80315D01*
X124097Y-81137D01*
X124414Y-81903D01*
X124919Y-82561D01*
X125577Y-83066D01*
X126343Y-83384D01*
X127165Y-83492D01*
X127988Y-83384D01*
X128754Y-83066D01*
X129412Y-82561D01*
X132418Y-79555D01*
X177756D01*
X178578Y-79447D01*
X179344Y-79129D01*
X180002Y-78624D01*
X180507Y-77966D01*
X180824Y-77200D01*
X180933Y-76378D01*
X180824Y-75556D01*
X180507Y-74790D01*
X180002Y-74132D01*
X179344Y-73627D01*
X178578Y-73309D01*
X177756Y-73201D01*
D02*
G37*
G36*
X98425Y-62457D02*
X96300Y-62597D01*
X94211Y-63012D01*
X92194Y-63697D01*
X90284Y-64639D01*
X88513Y-65822D01*
X86911Y-67226D01*
X85507Y-68828D01*
X84324Y-70599D01*
X83382Y-72509D01*
X82697Y-74526D01*
X82282Y-76615D01*
X82142Y-78740D01*
X82282Y-80866D01*
X82697Y-82955D01*
X83382Y-84971D01*
X84324Y-86882D01*
X85507Y-88653D01*
X86911Y-90254D01*
X88513Y-91658D01*
X90284Y-92842D01*
X92194Y-93784D01*
X94211Y-94468D01*
X96300Y-94884D01*
X98425Y-95023D01*
X100550Y-94884D01*
X102639Y-94468D01*
X104656Y-93784D01*
X106567Y-92842D01*
X108338Y-91658D01*
X109939Y-90254D01*
X111343Y-88653D01*
X112527Y-86882D01*
X113469Y-84971D01*
X114153Y-82955D01*
X114569Y-80866D01*
X114708Y-78740D01*
X114569Y-76615D01*
X114153Y-74526D01*
X113469Y-72509D01*
X112527Y-70599D01*
X111343Y-68828D01*
X109939Y-67226D01*
X108338Y-65822D01*
X106567Y-64639D01*
X104656Y-63697D01*
X102639Y-63012D01*
X100550Y-62597D01*
X98425Y-62457D01*
D02*
G37*
G36*
X177756Y-91311D02*
X131102D01*
X130280Y-91420D01*
X129514Y-91737D01*
X128856Y-92242D01*
X124919Y-96179D01*
X124414Y-96837D01*
X124097Y-97603D01*
X123989Y-98425D01*
X124097Y-99247D01*
X124414Y-100014D01*
X124919Y-100672D01*
X125577Y-101176D01*
X126343Y-101494D01*
X127165Y-101602D01*
X127988Y-101494D01*
X128754Y-101176D01*
X129412Y-100672D01*
X132418Y-97665D01*
X177756D01*
X178578Y-97557D01*
X179344Y-97239D01*
X180002Y-96734D01*
X180507Y-96077D01*
X180824Y-95310D01*
X180933Y-94488D01*
X180824Y-93666D01*
X180507Y-92900D01*
X180002Y-92242D01*
X179344Y-91737D01*
X178578Y-91420D01*
X177756Y-91311D01*
D02*
G37*
G36*
X208228Y-75295D02*
X201575D01*
Y-82382D01*
X203697D01*
Y-83642D01*
X203697Y-83642D01*
X203789Y-84103D01*
X204050Y-84493D01*
X205054Y-85497D01*
X205054Y-85497D01*
X205445Y-85758D01*
X205906Y-85850D01*
X205906Y-85850D01*
X222965D01*
X223061Y-85994D01*
X223680Y-86407D01*
X224410Y-86552D01*
X225139Y-86407D01*
X225758Y-85994D01*
X226171Y-85375D01*
X226316Y-84646D01*
X226171Y-83916D01*
X225758Y-83297D01*
X225139Y-82884D01*
X224410Y-82739D01*
X223680Y-82884D01*
X223061Y-83297D01*
X222965Y-83441D01*
X206404D01*
X206106Y-83143D01*
Y-82382D01*
X208228D01*
Y-75295D01*
D02*
G37*
G36*
X354331Y-82636D02*
X353097Y-82799D01*
X351948Y-83275D01*
X350961Y-84032D01*
X350204Y-85019D01*
X350048Y-85395D01*
X344094D01*
X343326Y-85547D01*
X342675Y-85982D01*
X342240Y-86633D01*
X342087Y-87402D01*
X342240Y-88170D01*
X342675Y-88821D01*
X343326Y-89256D01*
X344094Y-89409D01*
X350048D01*
X350204Y-89784D01*
X350961Y-90771D01*
X351948Y-91528D01*
X353097Y-92004D01*
X354331Y-92167D01*
X355564Y-92004D01*
X356713Y-91528D01*
X357700Y-90771D01*
X358457Y-89784D01*
X358933Y-88635D01*
X359096Y-87402D01*
X358933Y-86168D01*
X358457Y-85019D01*
X357700Y-84032D01*
X356713Y-83275D01*
X355564Y-82799D01*
X354331Y-82636D01*
D02*
G37*
G36*
X452756Y95023D02*
X450631Y94884D01*
X448542Y94468D01*
X446525Y93784D01*
X444615Y92842D01*
X442843Y91658D01*
X441242Y90254D01*
X439838Y88653D01*
X438655Y86882D01*
X437712Y84971D01*
X437028Y82955D01*
X436612Y80866D01*
X436473Y78740D01*
X436612Y76615D01*
X437028Y74526D01*
X437712Y72509D01*
X438655Y70599D01*
X439838Y68828D01*
X441242Y67226D01*
X442843Y65822D01*
X444615Y64639D01*
X446525Y63697D01*
X448542Y63012D01*
X450631Y62597D01*
X452756Y62457D01*
X454881Y62597D01*
X456970Y63012D01*
X458987Y63697D01*
X460897Y64639D01*
X462668Y65822D01*
X464270Y67226D01*
X465674Y68828D01*
X466857Y70599D01*
X467799Y72509D01*
X468484Y74526D01*
X468899Y76615D01*
X469039Y78740D01*
X468899Y80866D01*
X468484Y82955D01*
X467799Y84971D01*
X466857Y86882D01*
X465674Y88653D01*
X464270Y90254D01*
X462668Y91658D01*
X460897Y92842D01*
X458987Y93784D01*
X456970Y94468D01*
X454881Y94884D01*
X452756Y95023D01*
D02*
G37*
G36*
X90551Y55056D02*
X89821Y54911D01*
X89203Y54498D01*
X88790Y53879D01*
X88644Y53150D01*
X88790Y52420D01*
X89203Y51801D01*
X89821Y51388D01*
X90551Y51243D01*
X91281Y51388D01*
X91899Y51801D01*
X92313Y52420D01*
X92458Y53150D01*
X92313Y53879D01*
X91899Y54498D01*
X91281Y54911D01*
X90551Y55056D01*
D02*
G37*
G36*
X240158Y81041D02*
X239428Y80895D01*
X238809Y80482D01*
X238713Y80338D01*
X229134D01*
X228673Y80246D01*
X228282Y79985D01*
X227495Y79198D01*
X227234Y78807D01*
X227142Y78347D01*
X227142Y78346D01*
Y76229D01*
X226863Y75811D01*
X226741Y75197D01*
Y73934D01*
X226678Y73892D01*
X226077D01*
X225698Y74146D01*
X225250Y74235D01*
X223569D01*
X223121Y74146D01*
X222742Y73892D01*
X222140D01*
X221761Y74146D01*
X221313Y74235D01*
X219632D01*
X219184Y74146D01*
X218805Y73892D01*
X218203D01*
X217824Y74146D01*
X217376Y74235D01*
X215695D01*
X215247Y74146D01*
X214867Y73892D01*
X214614Y73513D01*
X214525Y73065D01*
Y67880D01*
X214614Y67432D01*
X214867Y67053D01*
X215247Y66799D01*
X215695Y66710D01*
X217376D01*
X217824Y66799D01*
X218203Y67053D01*
X218805D01*
X219184Y66799D01*
X219632Y66710D01*
X221313D01*
X221761Y66799D01*
X222140Y67053D01*
X222742D01*
X223121Y66799D01*
X223569Y66710D01*
X225250D01*
X225698Y66799D01*
X226077Y67053D01*
X226678D01*
X227058Y66799D01*
X227506Y66710D01*
X229187D01*
X229635Y66799D01*
X230014Y67053D01*
X230615D01*
X230995Y66799D01*
X231443Y66710D01*
X233124D01*
X233572Y66799D01*
X233951Y67053D01*
X234132D01*
X234615Y66578D01*
Y65924D01*
X234459Y65690D01*
X234314Y64961D01*
X234459Y64231D01*
X234872Y63612D01*
X235491Y63199D01*
X236221Y63054D01*
X236950Y63199D01*
X237569Y63612D01*
X237911Y64125D01*
X238095Y64165D01*
X238283D01*
X238467Y64125D01*
X238809Y63612D01*
X239428Y63199D01*
X240158Y63054D01*
X240887Y63199D01*
X241506Y63612D01*
X241919Y64231D01*
X242022Y64747D01*
X242531D01*
X242611Y64346D01*
X242890Y63928D01*
Y58507D01*
X242390Y58239D01*
X242068Y58455D01*
X241339Y58600D01*
X240609Y58455D01*
X239990Y58041D01*
X239577Y57423D01*
X239432Y56693D01*
X239577Y55963D01*
X239990Y55345D01*
X240609Y54931D01*
X241339Y54786D01*
X242068Y54931D01*
X242687Y55345D01*
X242783Y55489D01*
X243307D01*
X243307Y55489D01*
X243768Y55580D01*
X244159Y55841D01*
X244946Y56629D01*
X245207Y57020D01*
X245299Y57480D01*
Y63928D01*
X245578Y64346D01*
X245700Y64961D01*
Y67011D01*
X245762Y67053D01*
X246016Y67432D01*
X246105Y67880D01*
Y73065D01*
X246016Y73513D01*
X245762Y73892D01*
X245383Y74146D01*
X244935Y74235D01*
X243254D01*
X242806Y74146D01*
X242427Y73892D01*
X241825D01*
X241559Y74070D01*
X241489Y74498D01*
X241506Y74636D01*
X241919Y75255D01*
X242064Y75984D01*
X241919Y76714D01*
X241506Y77333D01*
Y77786D01*
X241919Y78404D01*
X242064Y79134D01*
X241919Y79864D01*
X241506Y80482D01*
X240887Y80895D01*
X240158Y81041D01*
D02*
G37*
G36*
X177756Y89791D02*
X131102D01*
X130280Y89683D01*
X129514Y89365D01*
X128856Y88860D01*
X124919Y84923D01*
X124414Y84266D01*
X124097Y83499D01*
X123989Y82677D01*
X124097Y81855D01*
X124414Y81089D01*
X124919Y80431D01*
X125577Y79926D01*
X126343Y79609D01*
X127165Y79500D01*
X127988Y79609D01*
X128754Y79926D01*
X129412Y80431D01*
X132418Y83437D01*
X177756D01*
X178578Y83546D01*
X179344Y83863D01*
X180002Y84368D01*
X180507Y85026D01*
X180824Y85792D01*
X180933Y86614D01*
X180824Y87436D01*
X180507Y88203D01*
X180002Y88860D01*
X179344Y89365D01*
X178578Y89683D01*
X177756Y89791D01*
D02*
G37*
G36*
X293307Y79960D02*
X292539Y79807D01*
X292007Y79451D01*
X291506Y79301D01*
X290887Y79714D01*
X290158Y79860D01*
X289428Y79714D01*
X288809Y79301D01*
X288356D01*
X287737Y79714D01*
X287008Y79860D01*
X286278Y79714D01*
X285660Y79301D01*
X285207D01*
X284588Y79714D01*
X283858Y79860D01*
X283129Y79714D01*
X282510Y79301D01*
X282097Y78682D01*
X281952Y77953D01*
X282097Y77223D01*
X282510Y76604D01*
X282654Y76508D01*
Y59843D01*
X282654Y59842D01*
X282746Y59382D01*
X283007Y58991D01*
X309385Y32613D01*
X309385Y32613D01*
X309775Y32352D01*
X310236Y32260D01*
X313779D01*
X313779Y32260D01*
X314240Y32352D01*
X314631Y32613D01*
X316366Y34348D01*
X316535Y34314D01*
X317265Y34459D01*
X317884Y34872D01*
X318297Y35491D01*
X318442Y36220D01*
X318297Y36950D01*
X317884Y37569D01*
X317265Y37982D01*
X316535Y38127D01*
X315806Y37982D01*
X315664Y37887D01*
X315214Y38188D01*
X315293Y38583D01*
X315147Y39312D01*
X314734Y39931D01*
X314116Y40344D01*
X313386Y40489D01*
X312656Y40344D01*
X312038Y39931D01*
X311624Y39312D01*
X311479Y38583D01*
X311091Y38212D01*
X309554D01*
X306507Y41259D01*
X306577Y41429D01*
X306752Y41721D01*
X307154Y41801D01*
X307544Y42062D01*
X307704Y42222D01*
X307874Y42188D01*
X308604Y42333D01*
X309222Y42746D01*
X309636Y43365D01*
X309781Y44094D01*
X309636Y44824D01*
X309222Y45443D01*
X308604Y45856D01*
X307874Y46001D01*
X307144Y45856D01*
X306526Y45443D01*
X306112Y44824D01*
X306082Y44670D01*
X305603Y44525D01*
X304761Y45367D01*
X304906Y45846D01*
X305060Y45876D01*
X305679Y46290D01*
X306092Y46908D01*
X306237Y47638D01*
X306092Y48368D01*
X305679Y48986D01*
X305060Y49399D01*
X304331Y49545D01*
X303601Y49399D01*
X302982Y48986D01*
X302569Y48368D01*
X302538Y48213D01*
X302060Y48068D01*
X291362Y58767D01*
Y73271D01*
X291862Y73423D01*
X291888Y73384D01*
X292539Y72949D01*
X293307Y72796D01*
X294075Y72949D01*
X294726Y73384D01*
X295161Y74035D01*
X295314Y74803D01*
Y77953D01*
X295161Y78721D01*
X294726Y79372D01*
X294075Y79807D01*
X293307Y79960D01*
D02*
G37*
G36*
X84646Y55056D02*
X83916Y54911D01*
X83297Y54498D01*
X82884Y53879D01*
X82739Y53150D01*
X82884Y52420D01*
X83297Y51801D01*
X83916Y51388D01*
X84646Y51243D01*
X85375Y51388D01*
X85994Y51801D01*
X86407Y52420D01*
X86552Y53150D01*
X86407Y53879D01*
X85994Y54498D01*
X85375Y54911D01*
X84646Y55056D01*
D02*
G37*
G36*
X517717Y46484D02*
X513779D01*
X512957Y46376D01*
X512191Y46058D01*
X511533Y45553D01*
X511028Y44895D01*
X510711Y44129D01*
X510603Y43307D01*
X510711Y42485D01*
X511028Y41719D01*
X511533Y41061D01*
X512191Y40556D01*
X512957Y40239D01*
X513779Y40130D01*
X517717D01*
X518539Y40239D01*
X519305Y40556D01*
X519963Y41061D01*
X520468Y41719D01*
X520785Y42485D01*
X520893Y43307D01*
X520785Y44129D01*
X520468Y44895D01*
X519963Y45553D01*
X519305Y46058D01*
X518539Y46376D01*
X517717Y46484D01*
D02*
G37*
G36*
X177756Y53570D02*
X131102D01*
X130280Y53462D01*
X129514Y53145D01*
X128856Y52640D01*
X124919Y48703D01*
X124414Y48045D01*
X124097Y47279D01*
X123989Y46457D01*
X124097Y45634D01*
X124414Y44868D01*
X124919Y44210D01*
X125577Y43705D01*
X126343Y43388D01*
X127165Y43280D01*
X127988Y43388D01*
X128754Y43705D01*
X129412Y44210D01*
X132418Y47217D01*
X177756D01*
X178578Y47325D01*
X179344Y47642D01*
X180002Y48147D01*
X180507Y48805D01*
X180824Y49571D01*
X180933Y50394D01*
X180824Y51216D01*
X180507Y51982D01*
X180002Y52640D01*
X179344Y53145D01*
X178578Y53462D01*
X177756Y53570D01*
D02*
G37*
G36*
X273622Y108700D02*
X272854Y108547D01*
X272203Y108112D01*
X271768Y107461D01*
X271615Y106693D01*
Y103543D01*
Y100787D01*
X271260D01*
Y92913D01*
X275681D01*
X275984Y92913D01*
X276484Y92913D01*
X277339D01*
Y90853D01*
X270802Y84316D01*
X270541Y83925D01*
X270449Y83465D01*
X270449Y83464D01*
Y57874D01*
X270449Y57874D01*
X270541Y57413D01*
X270802Y57023D01*
X288336Y39489D01*
Y38858D01*
X284582Y35103D01*
X278676Y29198D01*
X278676Y29198D01*
X277871Y28393D01*
X271677D01*
X271216Y28301D01*
X270825Y28040D01*
X270825Y28040D01*
X270642Y27857D01*
X270472Y27891D01*
X269743Y27746D01*
X269124Y27332D01*
X268711Y26714D01*
X268566Y25984D01*
X268711Y25255D01*
X269124Y24636D01*
X269269Y24539D01*
X269118Y24039D01*
X262378D01*
X262227Y24539D01*
X262372Y24636D01*
X262785Y25255D01*
X262930Y25984D01*
X262785Y26714D01*
X262372Y27332D01*
X261753Y27746D01*
X261024Y27891D01*
X260294Y27746D01*
X259675Y27332D01*
X259262Y26714D01*
X259117Y25984D01*
X259262Y25255D01*
X259675Y24636D01*
X259821Y24539D01*
X259669Y24039D01*
X254331D01*
X253870Y23947D01*
X253479Y23686D01*
X252298Y22505D01*
X252037Y22114D01*
X251945Y21654D01*
X251945Y21654D01*
Y-6299D01*
X251945Y-6299D01*
X252037Y-6760D01*
X252298Y-7151D01*
X254267Y-9119D01*
X254657Y-9380D01*
X255118Y-9472D01*
X255118Y-9472D01*
X273517D01*
X274386Y-10341D01*
Y-26667D01*
X272729Y-28323D01*
X266142D01*
X266142Y-28323D01*
X265681Y-28415D01*
X265290Y-28676D01*
X263322Y-30645D01*
X263061Y-31035D01*
X262969Y-31496D01*
X262969Y-31496D01*
Y-45814D01*
X262656Y-45876D01*
X262038Y-46290D01*
X261624Y-46908D01*
X261479Y-47638D01*
X261624Y-48368D01*
X262038Y-48986D01*
X262656Y-49399D01*
X263386Y-49545D01*
X264116Y-49399D01*
X264632Y-49055D01*
X264961Y-49014D01*
X265290Y-49055D01*
X265806Y-49399D01*
X266535Y-49545D01*
X267265Y-49399D01*
X267884Y-48986D01*
X268297Y-48368D01*
X268442Y-47638D01*
X268297Y-46908D01*
X267884Y-46290D01*
X267265Y-45876D01*
X266952Y-45814D01*
Y-32782D01*
X267428Y-32307D01*
X274016D01*
X274016Y-32307D01*
X274477Y-32215D01*
X274867Y-31954D01*
X278017Y-28804D01*
X278017Y-28804D01*
X278278Y-28414D01*
X278370Y-27953D01*
X278370Y-27953D01*
Y-9055D01*
X278370Y-9055D01*
X278278Y-8594D01*
X278017Y-8204D01*
X278017Y-8204D01*
X275655Y-5841D01*
X275264Y-5580D01*
X274803Y-5489D01*
X274803Y-5489D01*
X256404D01*
X255929Y-5013D01*
Y19580D01*
X256011Y19662D01*
X259669D01*
X259821Y19162D01*
X259675Y19065D01*
X259262Y18446D01*
X259117Y17717D01*
X259262Y16987D01*
X259675Y16368D01*
X260188Y16026D01*
X260228Y15842D01*
Y15654D01*
X260188Y15470D01*
X259675Y15128D01*
X259262Y14509D01*
X259117Y13780D01*
X259262Y13050D01*
X259675Y12431D01*
X260188Y12089D01*
X260228Y11905D01*
Y11717D01*
X260188Y11533D01*
X259675Y11191D01*
X259262Y10572D01*
X259117Y9843D01*
X259262Y9113D01*
X259675Y8494D01*
X260188Y8152D01*
X260228Y7968D01*
Y7780D01*
X260188Y7596D01*
X259675Y7254D01*
X259262Y6635D01*
X259117Y5906D01*
X259262Y5176D01*
X259675Y4557D01*
X260294Y4144D01*
X261024Y3999D01*
X261753Y4144D01*
X262372Y4557D01*
X262468Y4701D01*
X273622D01*
X273622Y4701D01*
X274083Y4793D01*
X274474Y5054D01*
X274633Y5214D01*
X274803Y5180D01*
X275533Y5325D01*
X275719Y5450D01*
X276080Y5089D01*
X275798Y4667D01*
X275652Y3937D01*
X275798Y3207D01*
X276211Y2589D01*
X276829Y2175D01*
X277559Y2030D01*
X278289Y2175D01*
X278907Y2589D01*
X279321Y3207D01*
X279466Y3937D01*
X279321Y4667D01*
X278907Y5285D01*
X278289Y5699D01*
X277559Y5844D01*
X276829Y5699D01*
X276643Y5574D01*
X276282Y5934D01*
X276565Y6357D01*
X276710Y7087D01*
X276565Y7816D01*
X276151Y8435D01*
X275533Y8848D01*
X274803Y8993D01*
X274074Y8848D01*
X273455Y8435D01*
X273042Y7816D01*
X272901Y7110D01*
X262468D01*
X262372Y7254D01*
X261859Y7596D01*
X261819Y7780D01*
Y7968D01*
X261859Y8152D01*
X262372Y8494D01*
X262785Y9113D01*
X262926Y9819D01*
X271260D01*
X271260Y9819D01*
X271721Y9911D01*
X272111Y10172D01*
X274908Y12969D01*
X285827D01*
X285827Y12969D01*
X286288Y13061D01*
X286678Y13322D01*
X287232Y13875D01*
X287402Y13841D01*
X287746Y13910D01*
X288144Y13572D01*
X288153Y13084D01*
X287337Y12269D01*
X287076Y11878D01*
X286985Y11417D01*
X286985Y11417D01*
Y9860D01*
X286523Y9668D01*
X286285Y9907D01*
X285894Y10168D01*
X285433Y10259D01*
X285433Y10259D01*
X282547D01*
X282451Y10403D01*
X281832Y10817D01*
X281102Y10962D01*
X280373Y10817D01*
X279754Y10403D01*
X279341Y9785D01*
X279196Y9055D01*
X279341Y8325D01*
X279754Y7707D01*
X280373Y7294D01*
X281102Y7148D01*
X281832Y7294D01*
X282451Y7707D01*
X282547Y7851D01*
X284934D01*
X285016Y7769D01*
Y-21942D01*
X283007Y-23952D01*
X282746Y-24342D01*
X282654Y-24803D01*
X282654Y-24803D01*
Y-24934D01*
X282510Y-25030D01*
X282097Y-25648D01*
X281952Y-26378D01*
X282097Y-27108D01*
X282510Y-27726D01*
X283129Y-28139D01*
X283858Y-28285D01*
X284588Y-28139D01*
X285207Y-27726D01*
X285660D01*
X286278Y-28139D01*
X287008Y-28285D01*
X287737Y-28139D01*
X288356Y-27726D01*
X288809D01*
X289428Y-28139D01*
X290158Y-28285D01*
X290887Y-28139D01*
X291506Y-27726D01*
X291959D01*
X292577Y-28139D01*
X293307Y-28285D01*
X294037Y-28139D01*
X294655Y-27726D01*
X295069Y-27108D01*
X295214Y-26378D01*
X295069Y-25648D01*
X294655Y-25030D01*
X294511Y-24934D01*
Y-24409D01*
X294420Y-23949D01*
X294159Y-23558D01*
X293330Y-22729D01*
Y-10803D01*
X293830Y-10652D01*
X293927Y-10797D01*
X294546Y-11210D01*
X295276Y-11355D01*
X296005Y-11210D01*
X296327Y-10995D01*
X296827Y-11263D01*
Y-23123D01*
X296393Y-23558D01*
X296131Y-23949D01*
X296040Y-24409D01*
X296040Y-24409D01*
Y-29921D01*
X296040Y-29921D01*
X296131Y-30382D01*
X296393Y-30773D01*
X297967Y-32348D01*
X297967Y-32348D01*
X298358Y-32609D01*
X298819Y-32700D01*
X298819Y-32700D01*
X304097D01*
X304308Y-32910D01*
Y-46457D01*
X304308Y-46457D01*
X304399Y-46918D01*
X304660Y-47308D01*
X305448Y-48096D01*
X305838Y-48357D01*
X306299Y-48448D01*
X325485D01*
X326355Y-49318D01*
Y-84252D01*
X326355Y-84252D01*
X326447Y-84713D01*
X326708Y-85103D01*
X328282Y-86678D01*
X328282Y-86678D01*
X328673Y-86939D01*
X329134Y-87031D01*
X333595D01*
X333691Y-87175D01*
X334310Y-87588D01*
X335039Y-87734D01*
X335769Y-87588D01*
X336388Y-87175D01*
X336801Y-86556D01*
X336946Y-85827D01*
X336801Y-85097D01*
X336388Y-84478D01*
X335769Y-84065D01*
X335039Y-83920D01*
X334310Y-84065D01*
X333691Y-84478D01*
X333595Y-84623D01*
X329633D01*
X328763Y-83753D01*
Y-71277D01*
X329225Y-71086D01*
X329857Y-71718D01*
X329857Y-71718D01*
X330248Y-71979D01*
X330709Y-72070D01*
X330709Y-72070D01*
X338084D01*
X338516Y-72503D01*
X338485Y-73015D01*
X338416Y-73061D01*
X338002Y-73680D01*
X337857Y-74410D01*
X338002Y-75139D01*
X338416Y-75758D01*
X339034Y-76171D01*
X339764Y-76316D01*
X340493Y-76171D01*
X341112Y-75758D01*
X341525Y-75139D01*
X341670Y-74410D01*
X341525Y-73680D01*
X341112Y-73061D01*
X340968Y-72965D01*
Y-72047D01*
X340968Y-72047D01*
X340876Y-71586D01*
X340615Y-71196D01*
X340615Y-71196D01*
X339434Y-70015D01*
X339043Y-69754D01*
X338583Y-69662D01*
X338583Y-69662D01*
X331207D01*
X330732Y-69186D01*
Y-66213D01*
X331232Y-66006D01*
X331432Y-66206D01*
X331432Y-66206D01*
X331823Y-66467D01*
X332283Y-66559D01*
X332283Y-66559D01*
X350918D01*
X351014Y-66703D01*
X351632Y-67116D01*
X352362Y-67261D01*
X353092Y-67116D01*
X353710Y-66703D01*
X354124Y-66084D01*
X354269Y-65354D01*
X354124Y-64625D01*
X353710Y-64006D01*
X353092Y-63593D01*
X352362Y-63448D01*
X351632Y-63593D01*
X351014Y-64006D01*
X350918Y-64150D01*
X333094D01*
Y-60755D01*
X333594Y-60508D01*
X333699Y-60589D01*
X334346Y-60857D01*
X335039Y-60948D01*
X335733Y-60857D01*
X336380Y-60589D01*
X336789Y-60275D01*
X350612D01*
X351022Y-60589D01*
X351669Y-60857D01*
X352362Y-60948D01*
X353056Y-60857D01*
X353702Y-60589D01*
X354257Y-60163D01*
X354683Y-59608D01*
X354951Y-58961D01*
X355043Y-58268D01*
X354951Y-57574D01*
X354683Y-56928D01*
X354257Y-56372D01*
X353702Y-55946D01*
X353056Y-55679D01*
X352362Y-55587D01*
X351669Y-55679D01*
X351022Y-55946D01*
X350612Y-56261D01*
X336789D01*
X336380Y-55946D01*
X335733Y-55679D01*
X335039Y-55587D01*
X334346Y-55679D01*
X333699Y-55946D01*
X333144Y-56372D01*
X332898Y-56692D01*
X332619Y-56506D01*
X331890Y-56361D01*
X331232Y-56492D01*
X330838Y-56334D01*
X330732Y-56277D01*
Y-36614D01*
X330732Y-36614D01*
X330640Y-36153D01*
X330379Y-35763D01*
X330379Y-35763D01*
X329198Y-34582D01*
X328807Y-34321D01*
X328346Y-34229D01*
X328346Y-34229D01*
X315066D01*
X314590Y-33753D01*
Y-22243D01*
X315089Y-21744D01*
X318043D01*
X318043Y-21744D01*
X318504Y-21652D01*
X318895Y-21391D01*
X319749Y-20537D01*
X319749Y-20537D01*
X320010Y-20146D01*
X320102Y-19685D01*
Y-5906D01*
X320102Y-5906D01*
X320010Y-5445D01*
X319749Y-5054D01*
X312663Y2033D01*
X312272Y2294D01*
X311811Y2385D01*
X311811Y2385D01*
X309289D01*
X308684Y2989D01*
Y8556D01*
X318609Y18481D01*
X319815D01*
X319912Y18337D01*
X320530Y17923D01*
X321260Y17778D01*
X321989Y17923D01*
X322608Y18337D01*
X323021Y18955D01*
X323167Y19685D01*
X323036Y20343D01*
X323193Y20736D01*
X323250Y20843D01*
X342520D01*
X342520Y20843D01*
X342981Y20935D01*
X343048Y20979D01*
X343307Y20928D01*
X344037Y21073D01*
X344655Y21486D01*
X345069Y22105D01*
X345214Y22835D01*
X345069Y23564D01*
X344655Y24183D01*
X344037Y24596D01*
X343307Y24741D01*
X342577Y24596D01*
X342542Y24572D01*
X341986Y24802D01*
X341919Y25139D01*
X341794Y25326D01*
X342155Y25686D01*
X342577Y25404D01*
X343307Y25259D01*
X344037Y25404D01*
X344655Y25817D01*
X345069Y26436D01*
X345214Y27165D01*
X345069Y27895D01*
X344655Y28514D01*
X344037Y28927D01*
X343307Y29072D01*
X342577Y28927D01*
X341959Y28514D01*
X341546Y27895D01*
X341400Y27165D01*
X341546Y26436D01*
X341670Y26249D01*
X341310Y25889D01*
X340887Y26171D01*
X340158Y26316D01*
X339428Y26171D01*
X338809Y25758D01*
X338713Y25614D01*
X333570D01*
X333488Y25696D01*
Y32283D01*
X333396Y32744D01*
X333135Y33135D01*
X333135Y33135D01*
X324053Y42217D01*
X324198Y42696D01*
X324352Y42727D01*
X324970Y43140D01*
X325384Y43758D01*
X325529Y44488D01*
X325384Y45218D01*
X324970Y45836D01*
X324352Y46250D01*
X323622Y46395D01*
X322892Y46250D01*
X322274Y45836D01*
X321861Y45218D01*
X321830Y45064D01*
X321351Y44919D01*
X307110Y59160D01*
Y60850D01*
X307610Y61002D01*
X307707Y60856D01*
X308326Y60443D01*
X309055Y60298D01*
X309785Y60443D01*
X310403Y60856D01*
X310500Y61001D01*
X313281D01*
X329857Y44424D01*
X329857Y44424D01*
X330248Y44163D01*
X330709Y44071D01*
X330709Y44071D01*
X344094D01*
X344094Y44071D01*
X344555Y44163D01*
X344946Y44424D01*
X345733Y45211D01*
X345994Y45602D01*
X346086Y46063D01*
Y49501D01*
X346168Y49583D01*
X360760D01*
X360857Y49439D01*
X361475Y49026D01*
X362205Y48881D01*
X362934Y49026D01*
X363553Y49439D01*
X363966Y50058D01*
X364111Y50787D01*
X363966Y51517D01*
X363553Y52136D01*
X362934Y52549D01*
X362205Y52694D01*
X361475Y52549D01*
X360857Y52136D01*
X360760Y51992D01*
X345669D01*
X345208Y51900D01*
X344818Y51639D01*
X344030Y50852D01*
X343769Y50461D01*
X343678Y50000D01*
X343678Y50000D01*
Y46562D01*
X343596Y46480D01*
X331207D01*
X314631Y63056D01*
X314240Y63317D01*
X313779Y63409D01*
X313779Y63409D01*
X310500D01*
X310403Y63553D01*
X309785Y63966D01*
X309055Y64111D01*
X308326Y63966D01*
X307707Y63553D01*
X307610Y63408D01*
X307110Y63559D01*
Y87795D01*
X307110Y87795D01*
X307018Y88256D01*
X306757Y88647D01*
X305810Y89594D01*
X305844Y89764D01*
X305699Y90493D01*
X305285Y91112D01*
X304667Y91525D01*
X303937Y91671D01*
X303207Y91525D01*
X302589Y91112D01*
X302175Y90493D01*
X302030Y89764D01*
X302175Y89034D01*
X302589Y88415D01*
X303207Y88002D01*
X303937Y87857D01*
X304107Y87891D01*
X304701Y87296D01*
Y81513D01*
X304239Y81322D01*
X301639Y83922D01*
X301248Y84183D01*
X300787Y84275D01*
X300787Y84275D01*
X294752D01*
X294655Y84419D01*
X294037Y84832D01*
X293307Y84978D01*
X292577Y84832D01*
X291959Y84419D01*
X291546Y83801D01*
X291400Y83071D01*
X291546Y82341D01*
X291959Y81723D01*
X292577Y81309D01*
X293307Y81164D01*
X294037Y81309D01*
X294655Y81723D01*
X294752Y81867D01*
X300289D01*
X302733Y79422D01*
Y69397D01*
X302301Y68964D01*
X301788Y68996D01*
X301742Y69065D01*
X301123Y69478D01*
X300394Y69623D01*
X299664Y69478D01*
X299045Y69065D01*
X298632Y68446D01*
X298487Y67716D01*
X298632Y66987D01*
X299045Y66368D01*
X299558Y66026D01*
X299598Y65842D01*
Y65654D01*
X299558Y65470D01*
X299045Y65128D01*
X298632Y64509D01*
X298487Y63779D01*
X298632Y63050D01*
X299045Y62431D01*
X299664Y62018D01*
X300394Y61873D01*
X301123Y62018D01*
X301742Y62431D01*
X301838Y62575D01*
X302651D01*
X302733Y62493D01*
Y57087D01*
X302733Y57087D01*
X302824Y56626D01*
X303085Y56235D01*
X321630Y37690D01*
Y35538D01*
X319068Y32975D01*
X318898Y33009D01*
X318168Y32864D01*
X317549Y32451D01*
X317136Y31832D01*
X316991Y31102D01*
X317136Y30373D01*
X317549Y29754D01*
X318168Y29341D01*
X318898Y29196D01*
X319627Y29341D01*
X320246Y29754D01*
X320659Y30373D01*
X320804Y31102D01*
X320771Y31272D01*
X323686Y34188D01*
X323686Y34188D01*
X323947Y34578D01*
X324039Y35039D01*
Y38118D01*
X324207Y38244D01*
X324517Y38346D01*
X331079Y31785D01*
Y25197D01*
X331079Y25197D01*
X331171Y24736D01*
X331432Y24345D01*
X332026Y23752D01*
X331819Y23252D01*
X329943D01*
X329886Y23359D01*
X329729Y23752D01*
X329859Y24409D01*
X329714Y25139D01*
X329301Y25758D01*
X328682Y26171D01*
X327953Y26316D01*
X327223Y26171D01*
X326605Y25758D01*
X326443Y25515D01*
X322701D01*
X322307Y26015D01*
X322379Y26378D01*
X322234Y27108D01*
X321821Y27726D01*
X321202Y28139D01*
X320472Y28285D01*
X319743Y28139D01*
X319124Y27726D01*
X319028Y27582D01*
X318215D01*
X314631Y31166D01*
X314240Y31427D01*
X313779Y31519D01*
X313779Y31519D01*
X308767D01*
X280732Y59554D01*
Y81785D01*
X280814Y81867D01*
X287402D01*
X287402Y81867D01*
X287862Y81958D01*
X288253Y82219D01*
X289237Y83204D01*
X289237Y83204D01*
X289498Y83594D01*
X289590Y84055D01*
Y92913D01*
X290748D01*
Y100787D01*
X286327D01*
X286024Y100787D01*
X285524Y100787D01*
X281405D01*
X281102Y100787D01*
X280602Y100787D01*
X275983Y100787D01*
X275629Y101141D01*
Y103543D01*
Y106693D01*
X275476Y107461D01*
X275041Y108112D01*
X274390Y108547D01*
X273622Y108700D01*
D02*
G37*
G36*
X255906Y99236D02*
X255186Y99142D01*
X254516Y98864D01*
X253940Y98422D01*
X253498Y97847D01*
X253221Y97176D01*
X253126Y96457D01*
Y92520D01*
Y50630D01*
X253104Y50602D01*
X252827Y49932D01*
X252732Y49213D01*
X252827Y48493D01*
X253104Y47823D01*
X253546Y47247D01*
X254122Y46805D01*
X254792Y46528D01*
X255512Y46433D01*
X258268D01*
X258987Y46528D01*
X259658Y46805D01*
X260233Y47247D01*
X260675Y47823D01*
X260953Y48493D01*
X261047Y49213D01*
X260953Y49932D01*
X260675Y50602D01*
X260233Y51178D01*
X259658Y51620D01*
X258987Y51898D01*
X258685Y51937D01*
Y92520D01*
Y96457D01*
X258591Y97176D01*
X258313Y97847D01*
X257871Y98422D01*
X257295Y98864D01*
X256625Y99142D01*
X255906Y99236D01*
D02*
G37*
G36*
X193701Y100712D02*
X193007Y100621D01*
X192361Y100353D01*
X191806Y99927D01*
X191379Y99372D01*
X191112Y98725D01*
X191020Y98032D01*
X191112Y97338D01*
X191379Y96691D01*
X191806Y96136D01*
X192361Y95710D01*
X193007Y95442D01*
X193701Y95351D01*
X194395Y95442D01*
X195041Y95710D01*
X195450Y96024D01*
X198387D01*
Y81143D01*
X197887Y80936D01*
X197482Y81340D01*
X196831Y81775D01*
X196063Y81928D01*
X195450D01*
X195041Y82243D01*
X194395Y82510D01*
X193701Y82602D01*
X193007Y82510D01*
X192361Y82243D01*
X191806Y81817D01*
X191379Y81261D01*
X191112Y80615D01*
X191020Y79921D01*
X191112Y79228D01*
X191379Y78581D01*
X191806Y78026D01*
X192361Y77600D01*
X193007Y77332D01*
X193701Y77241D01*
X194343Y77325D01*
X194509Y77291D01*
X194843Y77068D01*
Y64664D01*
X194509Y64441D01*
X194343Y64407D01*
X193701Y64491D01*
X193007Y64400D01*
X192361Y64132D01*
X191806Y63706D01*
X191379Y63151D01*
X191112Y62505D01*
X191020Y61811D01*
X191112Y61117D01*
X191379Y60471D01*
X191694Y60061D01*
Y48031D01*
X191847Y47263D01*
X192282Y46612D01*
X192387Y46507D01*
X192250Y45937D01*
X191806Y45596D01*
X191379Y45041D01*
X191112Y44394D01*
X191020Y43701D01*
X191112Y43007D01*
X191379Y42361D01*
X191806Y41805D01*
X192361Y41379D01*
X193007Y41112D01*
X193701Y41020D01*
X194395Y41112D01*
X195041Y41379D01*
X195450Y41694D01*
X217678D01*
Y26759D01*
X217216Y26567D01*
X216774Y27010D01*
X216122Y27445D01*
X215354Y27598D01*
X195450D01*
X195041Y27912D01*
X194395Y28180D01*
X193701Y28271D01*
X193007Y28180D01*
X192361Y27912D01*
X191806Y27486D01*
X191379Y26931D01*
X191112Y26284D01*
X191020Y25591D01*
X191112Y24897D01*
X191379Y24250D01*
X191806Y23695D01*
X192361Y23269D01*
X193007Y23001D01*
X193701Y22910D01*
X194395Y23001D01*
X195041Y23269D01*
X195450Y23584D01*
X214523D01*
X214528Y23578D01*
Y8648D01*
X214066Y8457D01*
X213624Y8900D01*
X212973Y9335D01*
X212205Y9487D01*
X195450D01*
X195041Y9802D01*
X194395Y10069D01*
X193701Y10161D01*
X193007Y10069D01*
X192361Y9802D01*
X191806Y9376D01*
X191379Y8821D01*
X191112Y8174D01*
X191020Y7480D01*
X191112Y6787D01*
X191379Y6140D01*
X191806Y5585D01*
X192361Y5159D01*
X193007Y4891D01*
X193701Y4800D01*
X194395Y4891D01*
X195041Y5159D01*
X195450Y5473D01*
X211373D01*
X211379Y5468D01*
Y-9014D01*
X210879Y-9221D01*
X210868Y-9211D01*
X210217Y-8776D01*
X209449Y-8623D01*
X195450D01*
X195041Y-8309D01*
X194395Y-8041D01*
X193701Y-7949D01*
X193007Y-8041D01*
X192361Y-8309D01*
X191806Y-8735D01*
X191379Y-9290D01*
X191112Y-9936D01*
X191020Y-10630D01*
X191112Y-11324D01*
X191379Y-11970D01*
X191806Y-12525D01*
X192361Y-12951D01*
X193007Y-13219D01*
X193701Y-13310D01*
X194395Y-13219D01*
X195041Y-12951D01*
X195450Y-12637D01*
X208206D01*
Y-13386D01*
X208359Y-14154D01*
X208794Y-14805D01*
X209581Y-15592D01*
X210232Y-16027D01*
X210730Y-16127D01*
X210836Y-16657D01*
X210786Y-16691D01*
X208817Y-18659D01*
X208382Y-19311D01*
X208229Y-20079D01*
Y-26733D01*
X195450D01*
X195041Y-26419D01*
X194395Y-26151D01*
X193701Y-26060D01*
X193007Y-26151D01*
X192361Y-26419D01*
X191806Y-26845D01*
X191379Y-27400D01*
X191112Y-28046D01*
X191020Y-28740D01*
X191112Y-29434D01*
X191379Y-30080D01*
X191806Y-30635D01*
X192361Y-31062D01*
X193007Y-31329D01*
X193701Y-31421D01*
X194395Y-31329D01*
X195041Y-31062D01*
X195450Y-30747D01*
X209449D01*
X210217Y-30595D01*
X210868Y-30159D01*
X211655Y-29372D01*
X212090Y-28721D01*
X212243Y-27953D01*
Y-20910D01*
X213036Y-20117D01*
X231359D01*
X231606Y-20617D01*
X231537Y-20707D01*
X231269Y-21353D01*
X231178Y-22047D01*
X231269Y-22741D01*
X231537Y-23387D01*
X231963Y-23943D01*
X232518Y-24369D01*
X233165Y-24636D01*
X233351Y-24661D01*
X233666Y-25207D01*
X233631Y-25291D01*
X233540Y-25984D01*
X233631Y-26678D01*
X233899Y-27325D01*
X234325Y-27880D01*
X234880Y-28306D01*
X235527Y-28573D01*
X236221Y-28665D01*
X236914Y-28573D01*
X237561Y-28306D01*
X238116Y-27880D01*
X238542Y-27325D01*
X238809Y-26678D01*
X238901Y-25984D01*
X238809Y-25291D01*
X238542Y-24644D01*
X238116Y-24089D01*
X237561Y-23663D01*
X236914Y-23395D01*
X236728Y-23371D01*
X236413Y-22825D01*
X236447Y-22741D01*
X236539Y-22047D01*
X236447Y-21353D01*
X236413Y-21270D01*
X236728Y-20724D01*
X236914Y-20699D01*
X237561Y-20432D01*
X238116Y-20006D01*
X238542Y-19450D01*
X238809Y-18804D01*
X238901Y-18110D01*
X238809Y-17416D01*
X238542Y-16770D01*
X238116Y-16215D01*
X237561Y-15789D01*
X236914Y-15521D01*
X236728Y-15497D01*
X236413Y-14951D01*
X236447Y-14867D01*
X236539Y-14173D01*
X236447Y-13479D01*
X236413Y-13396D01*
X236728Y-12850D01*
X236914Y-12825D01*
X237561Y-12558D01*
X238116Y-12132D01*
X238542Y-11576D01*
X238809Y-10930D01*
X238901Y-10236D01*
X238809Y-9543D01*
X238542Y-8896D01*
X238116Y-8341D01*
X237561Y-7915D01*
X236914Y-7647D01*
X236728Y-7623D01*
X236413Y-7077D01*
X236447Y-6993D01*
X236539Y-6299D01*
X236447Y-5605D01*
X236413Y-5522D01*
X236728Y-4976D01*
X236914Y-4951D01*
X237561Y-4684D01*
X238116Y-4258D01*
X238542Y-3702D01*
X238809Y-3056D01*
X238901Y-2362D01*
X238809Y-1668D01*
X238542Y-1022D01*
X238116Y-467D01*
X237561Y-41D01*
X236914Y227D01*
X236728Y251D01*
X236413Y797D01*
X236447Y881D01*
X236539Y1575D01*
X236447Y2269D01*
X236413Y2352D01*
X236728Y2898D01*
X236914Y2923D01*
X237561Y3190D01*
X238116Y3616D01*
X238542Y4172D01*
X238809Y4818D01*
X238901Y5512D01*
X238809Y6206D01*
X238542Y6852D01*
X238116Y7407D01*
X237561Y7833D01*
X236914Y8101D01*
X236728Y8125D01*
X236413Y8671D01*
X236447Y8755D01*
X236539Y9449D01*
X236447Y10143D01*
X236180Y10789D01*
X235754Y11344D01*
X235198Y11770D01*
X234552Y12038D01*
X233858Y12129D01*
X233165Y12038D01*
X232518Y11770D01*
X232109Y11456D01*
X231141D01*
Y52362D01*
X230988Y53130D01*
X230553Y53781D01*
X229372Y54962D01*
X228721Y55398D01*
X227953Y55550D01*
X202401D01*
Y97244D01*
X202248Y98012D01*
X201813Y98663D01*
X201026Y99451D01*
X200374Y99886D01*
X199606Y100039D01*
X195450D01*
X195041Y100353D01*
X194395Y100621D01*
X193701Y100712D01*
D02*
G37*
G36*
X341732Y104269D02*
X341003Y104124D01*
X340384Y103710D01*
X339971Y103092D01*
X339826Y102362D01*
X339971Y101632D01*
X340384Y101014D01*
X341003Y100601D01*
X341732Y100455D01*
X342462Y100601D01*
X343080Y101014D01*
X343494Y101632D01*
X343639Y102362D01*
X343494Y103092D01*
X343080Y103710D01*
X342462Y104124D01*
X341732Y104269D01*
D02*
G37*
G36*
X177756Y107901D02*
X131102D01*
X130280Y107793D01*
X129514Y107476D01*
X128856Y106971D01*
X124919Y103034D01*
X124414Y102376D01*
X124097Y101610D01*
X123989Y100787D01*
X124097Y99965D01*
X124414Y99199D01*
X124919Y98541D01*
X125577Y98036D01*
X126343Y97719D01*
X127165Y97611D01*
X127988Y97719D01*
X128754Y98036D01*
X129412Y98541D01*
X132418Y101548D01*
X177756D01*
X178578Y101656D01*
X179344Y101973D01*
X180002Y102478D01*
X180507Y103136D01*
X180824Y103902D01*
X180933Y104724D01*
X180824Y105547D01*
X180507Y106313D01*
X180002Y106971D01*
X179344Y107476D01*
X178578Y107793D01*
X177756Y107901D01*
D02*
G37*
G36*
X283465Y108700D02*
X282697Y108547D01*
X282045Y108112D01*
X281610Y107461D01*
X281457Y106693D01*
Y103543D01*
X281610Y102775D01*
X282045Y102124D01*
X282697Y101689D01*
X283465Y101536D01*
X284233Y101689D01*
X284884Y102124D01*
X285319Y102775D01*
X285472Y103543D01*
Y106693D01*
X285319Y107461D01*
X284884Y108112D01*
X284233Y108547D01*
X283465Y108700D01*
D02*
G37*
G36*
X381890Y112523D02*
X381196Y112432D01*
X380550Y112164D01*
X379994Y111738D01*
X379569Y111183D01*
X379301Y110536D01*
X379209Y109843D01*
X379301Y109149D01*
X379569Y108502D01*
X379749Y108268D01*
X379569Y108033D01*
X379301Y107387D01*
X379209Y106693D01*
X379301Y105999D01*
X379569Y105353D01*
X379994Y104798D01*
X380424Y104468D01*
X380272Y103968D01*
X372047D01*
X372047Y103968D01*
X371433Y103846D01*
X370912Y103498D01*
X370912Y103498D01*
X369436Y102022D01*
X368936Y102229D01*
Y108268D01*
X368783Y109036D01*
X368348Y109687D01*
X367697Y110122D01*
X366929Y110275D01*
X363779D01*
X363012Y110122D01*
X362360Y109687D01*
X361925Y109036D01*
X361772Y108268D01*
X361925Y107500D01*
X362360Y106849D01*
X363012Y106413D01*
X363779Y106261D01*
X364922D01*
Y83115D01*
X364523Y82716D01*
X356299D01*
X355531Y82563D01*
X354880Y82128D01*
X352911Y80159D01*
X352476Y79508D01*
X352324Y78740D01*
Y73666D01*
X351531Y72873D01*
X341732D01*
X340964Y72720D01*
X340313Y72285D01*
X338345Y70317D01*
X337910Y69666D01*
X337757Y68898D01*
Y66535D01*
Y63779D01*
X337910Y63011D01*
X338345Y62360D01*
X338996Y61925D01*
X339764Y61773D01*
X340532Y61925D01*
X341183Y62360D01*
X341618Y63011D01*
X341771Y63779D01*
Y68066D01*
X342564Y68859D01*
X352362D01*
X353130Y69012D01*
X353781Y69447D01*
X355750Y71415D01*
X356185Y72067D01*
X356338Y72835D01*
Y77909D01*
X357131Y78702D01*
X365354D01*
X366122Y78854D01*
X366774Y79289D01*
X367973Y80489D01*
X368473Y80282D01*
X368473Y43487D01*
X368226Y43344D01*
X367973Y43283D01*
X367482Y43660D01*
X366835Y43928D01*
X366142Y44019D01*
X365448Y43928D01*
X364802Y43660D01*
X364246Y43234D01*
X363820Y42679D01*
X363553Y42032D01*
X363461Y41339D01*
X363553Y40645D01*
X363820Y39998D01*
X364246Y39443D01*
Y39297D01*
X363820Y38742D01*
X363553Y38095D01*
X363461Y37402D01*
X363553Y36708D01*
X363820Y36061D01*
X364013Y35811D01*
X364209Y35433D01*
X364013Y35055D01*
X363820Y34805D01*
X363553Y34158D01*
X363461Y33465D01*
X363553Y32771D01*
X363820Y32124D01*
X364246Y31569D01*
X364802Y31143D01*
X365448Y30876D01*
X366142Y30784D01*
X366835Y30876D01*
X366901Y30903D01*
X367184Y30479D01*
X366975Y30269D01*
X366975Y30269D01*
X366627Y29748D01*
X366505Y29134D01*
X366505Y29134D01*
X366505Y-25985D01*
X366570Y-26311D01*
X366627Y-26599D01*
X366627Y-26599D01*
X366627Y-26599D01*
X366815Y-26881D01*
X366975Y-27120D01*
X368943Y-29088D01*
X368943Y-29088D01*
X369321Y-29340D01*
X369464Y-29436D01*
X369464D01*
X369464Y-29436D01*
X369734Y-29490D01*
X369843Y-29636D01*
X369986Y-30048D01*
X369986Y-30048D01*
X369727Y-30674D01*
X369688Y-30970D01*
X369627Y-30995D01*
X369464Y-31027D01*
X369339Y-31111D01*
X369200Y-31167D01*
X369081Y-31283D01*
X368943Y-31375D01*
X368860Y-31500D01*
X368753Y-31605D01*
X368688Y-31758D01*
X368595Y-31896D01*
X368566Y-32043D01*
X368507Y-32182D01*
X368506Y-32348D01*
X368473Y-32510D01*
X368473Y-61024D01*
Y-100394D01*
X368473Y-100394D01*
X368595Y-101008D01*
X368943Y-101529D01*
X370912Y-103498D01*
X371433Y-103846D01*
X372047Y-103968D01*
X372047Y-103968D01*
X433071Y-103968D01*
X433071Y-103968D01*
X433685Y-103846D01*
X434206Y-103498D01*
X434206Y-103498D01*
X436175Y-101529D01*
X436175Y-101529D01*
X436523Y-101008D01*
X436645Y-100394D01*
X436645Y-100394D01*
X436645Y-83382D01*
X437145Y-83300D01*
X437712Y-84971D01*
X438655Y-86882D01*
X439838Y-88653D01*
X441242Y-90254D01*
X442843Y-91658D01*
X444615Y-92842D01*
X446525Y-93784D01*
X448542Y-94468D01*
X450631Y-94884D01*
X452756Y-95023D01*
X454881Y-94884D01*
X456970Y-94468D01*
X458987Y-93784D01*
X460897Y-92842D01*
X462668Y-91658D01*
X464270Y-90254D01*
X465674Y-88653D01*
X466857Y-86882D01*
X467799Y-84971D01*
X468367Y-83300D01*
X468867Y-83382D01*
Y-100394D01*
X468867Y-100394D01*
X468989Y-101008D01*
X469337Y-101529D01*
X471306Y-103498D01*
X471827Y-103846D01*
X472441Y-103968D01*
X472441Y-103968D01*
X535433Y-103968D01*
X535433Y-103968D01*
X536047Y-103846D01*
X536568Y-103498D01*
X536568Y-103498D01*
X538537Y-101529D01*
X538537Y-101529D01*
X538768Y-101183D01*
X538885Y-101008D01*
X539007Y-100394D01*
X539007Y-100394D01*
X539007Y-61024D01*
X539007Y-61024D01*
X539007Y-61024D01*
X538885Y-60409D01*
X538885Y-60409D01*
X538885Y-60409D01*
X538643Y-60047D01*
X538537Y-59888D01*
X538537Y-59888D01*
X538537Y-59888D01*
X536954Y-58305D01*
X536962Y-58222D01*
X536962Y-58222D01*
X538931Y-56253D01*
X538931Y-56253D01*
X539279Y-55733D01*
X539401Y-55118D01*
X539401Y-55118D01*
X539401Y30315D01*
X539334Y30651D01*
X539279Y30929D01*
X539279Y30929D01*
X539279Y30929D01*
X539046Y31278D01*
X538931Y31450D01*
X538931Y31450D01*
X538931Y31450D01*
X536962Y33419D01*
X536962Y33419D01*
X536962Y33419D01*
X536703Y33592D01*
X536442Y33767D01*
X536441Y33767D01*
X536441Y33767D01*
X536204Y33814D01*
X535827Y33889D01*
X535827Y33889D01*
X535827Y33889D01*
X501575Y33889D01*
X501575Y33889D01*
X500960Y33767D01*
X500960Y33767D01*
X500960Y33767D01*
X500439Y33419D01*
X500439Y33419D01*
X498819Y31798D01*
X497198Y33419D01*
X497198Y33419D01*
X496677Y33767D01*
X496063Y33889D01*
X496063Y33889D01*
X417323Y33889D01*
Y34350D01*
X372031D01*
X371498Y34884D01*
X370847Y35319D01*
X370670Y35354D01*
X370565Y35885D01*
X370710Y35982D01*
X371245Y36516D01*
X417322D01*
Y37627D01*
X418459Y38764D01*
X418807Y39285D01*
X418929Y39899D01*
X418929Y39899D01*
X418928Y100394D01*
X418928Y100394D01*
X418806Y101008D01*
X418458Y101529D01*
X416490Y103498D01*
X416490Y103498D01*
X415969Y103846D01*
X415969Y103846D01*
X415969Y103846D01*
X415354Y103968D01*
X415354Y103968D01*
X383508Y103968D01*
X383355Y104468D01*
X383785Y104798D01*
X384211Y105353D01*
X384479Y105999D01*
X384570Y106693D01*
X384479Y107387D01*
X384211Y108033D01*
X384031Y108268D01*
X384211Y108502D01*
X384479Y109149D01*
X384570Y109843D01*
X384479Y110536D01*
X384211Y111183D01*
X383785Y111738D01*
X383230Y112164D01*
X382583Y112432D01*
X381890Y112523D01*
D02*
G37*
G36*
X533465Y103968D02*
X533464Y103968D01*
X490158D01*
X490158Y103968D01*
X489543Y103846D01*
X489022Y103498D01*
X487054Y101529D01*
X486706Y101008D01*
X486583Y100394D01*
X486583Y100394D01*
Y57087D01*
X486583Y57087D01*
X486706Y56472D01*
X487054Y55951D01*
X489022Y53983D01*
X489543Y53635D01*
X490158Y53513D01*
X490158Y53513D01*
X533464D01*
X533465Y53513D01*
X534079Y53635D01*
X534600Y53983D01*
X536568Y55951D01*
X536916Y56472D01*
X537039Y57087D01*
X537039Y57087D01*
Y100394D01*
X537039Y100394D01*
X536916Y101008D01*
X536568Y101529D01*
X534600Y103498D01*
X534079Y103846D01*
X533977Y103866D01*
X533465Y103968D01*
D02*
G37*
G36*
X235630Y102192D02*
X232874D01*
X232336Y102085D01*
X231881Y101781D01*
X231576Y101325D01*
X231469Y100787D01*
Y98032D01*
X231576Y97494D01*
X231881Y97038D01*
X232336Y96733D01*
X232874Y96627D01*
X235630D01*
X236168Y96733D01*
X236623Y97038D01*
X236928Y97494D01*
X237035Y98032D01*
Y100787D01*
X236928Y101325D01*
X236623Y101781D01*
X236168Y102085D01*
X235630Y102192D01*
D02*
G37*
G36*
X120079Y109476D02*
X119256Y109368D01*
X118490Y109050D01*
X117832Y108545D01*
X117328Y107888D01*
X117010Y107121D01*
X116974Y106844D01*
X115104Y104975D01*
X114694Y104440D01*
X114436Y103818D01*
X114348Y103150D01*
Y83936D01*
X113848Y83854D01*
X113469Y84971D01*
X112527Y86882D01*
X111343Y88653D01*
X109939Y90254D01*
X108338Y91658D01*
X106567Y92842D01*
X104656Y93784D01*
X102639Y94468D01*
X100550Y94884D01*
X98425Y95023D01*
X96300Y94884D01*
X94211Y94468D01*
X92194Y93784D01*
X90284Y92842D01*
X88513Y91658D01*
X86911Y90254D01*
X85507Y88653D01*
X84324Y86882D01*
X83382Y84971D01*
X82697Y82955D01*
X82282Y80866D01*
X82142Y78740D01*
X82282Y76615D01*
X82697Y74526D01*
X83382Y72509D01*
X84324Y70599D01*
X85507Y68828D01*
X86911Y67226D01*
X88513Y65822D01*
X90284Y64639D01*
X92194Y63697D01*
X94211Y63012D01*
X96300Y62597D01*
X98425Y62457D01*
X100550Y62597D01*
X102639Y63012D01*
X104656Y63697D01*
X106567Y64639D01*
X108338Y65822D01*
X109939Y67226D01*
X111343Y68828D01*
X112527Y70599D01*
X113469Y72509D01*
X113848Y73627D01*
X114348Y73544D01*
Y64061D01*
X100537Y50250D01*
X100127Y49716D01*
X99869Y49093D01*
X99781Y48425D01*
Y33746D01*
X98144Y32109D01*
X85668D01*
X85447Y32279D01*
X84680Y32596D01*
X83858Y32704D01*
X83036Y32596D01*
X82270Y32279D01*
X81612Y31774D01*
X81107Y31116D01*
X80790Y30350D01*
X80682Y29528D01*
X80790Y28705D01*
X81107Y27939D01*
X81612Y27281D01*
X82270Y26776D01*
X83036Y26459D01*
X83858Y26351D01*
X84680Y26459D01*
X85447Y26776D01*
X85668Y26946D01*
X99213D01*
X99881Y27034D01*
X100503Y27292D01*
X101038Y27702D01*
X104187Y30852D01*
X104597Y31387D01*
X104855Y32009D01*
X104943Y32677D01*
Y47356D01*
X118754Y61167D01*
X118966Y61443D01*
X119466Y61273D01*
Y56975D01*
X108411Y45920D01*
X108001Y45385D01*
X107743Y44763D01*
X107655Y44094D01*
Y23116D01*
X104836Y20298D01*
X85668D01*
X85447Y20468D01*
X84680Y20785D01*
X83858Y20893D01*
X83036Y20785D01*
X82270Y20468D01*
X81612Y19963D01*
X81107Y19305D01*
X80790Y18539D01*
X80682Y17717D01*
X80790Y16894D01*
X81107Y16128D01*
X81612Y15470D01*
X82270Y14965D01*
X83036Y14648D01*
X83858Y14540D01*
X84680Y14648D01*
X85447Y14965D01*
X85668Y15135D01*
X105905D01*
X106574Y15223D01*
X107196Y15481D01*
X107731Y15891D01*
X112061Y20222D01*
X112471Y20757D01*
X112729Y21379D01*
X112817Y22047D01*
Y43025D01*
X123872Y54080D01*
X124283Y54615D01*
X124540Y55238D01*
X124628Y55905D01*
Y61913D01*
X125128Y62160D01*
X125577Y61816D01*
X126343Y61498D01*
X127165Y61390D01*
X127988Y61498D01*
X128754Y61816D01*
X129412Y62321D01*
X132418Y65327D01*
X177756D01*
X178578Y65435D01*
X179344Y65753D01*
X180002Y66258D01*
X180507Y66916D01*
X180824Y67682D01*
X180933Y68504D01*
X180824Y69326D01*
X180507Y70092D01*
X180002Y70750D01*
X179344Y71255D01*
X178578Y71573D01*
X177756Y71681D01*
X131102D01*
X130280Y71573D01*
X129514Y71255D01*
X128856Y70750D01*
X127758Y69652D01*
X127592Y69707D01*
X127311Y69912D01*
X127384Y70472D01*
Y72600D01*
X127554Y72821D01*
X127872Y73587D01*
X127980Y74410D01*
X127872Y75232D01*
X127554Y75998D01*
X127050Y76656D01*
X126391Y77161D01*
X125625Y77478D01*
X124803Y77586D01*
X123981Y77478D01*
X123215Y77161D01*
X122557Y76656D01*
X122052Y75998D01*
X121735Y75232D01*
X121626Y74410D01*
X121735Y73587D01*
X122052Y72821D01*
X122222Y72600D01*
Y71542D01*
X120222Y69542D01*
X120010Y69266D01*
X119510Y69435D01*
Y102081D01*
X120624Y103194D01*
X120901Y103231D01*
X121667Y103548D01*
X122325Y104053D01*
X122830Y104711D01*
X123147Y105477D01*
X123256Y106299D01*
X123147Y107121D01*
X122830Y107888D01*
X122325Y108545D01*
X121667Y109050D01*
X120901Y109368D01*
X120079Y109476D01*
D02*
G37*
G36*
X337008Y95214D02*
X336278Y95069D01*
X335660Y94655D01*
X335246Y94037D01*
X335101Y93307D01*
X335246Y92577D01*
X335660Y91959D01*
X335804Y91863D01*
Y90551D01*
X335804Y90551D01*
X335895Y90090D01*
X336156Y89700D01*
X336944Y88912D01*
X337334Y88651D01*
X337795Y88560D01*
X339989D01*
X340139Y88400D01*
X340384Y87962D01*
X339971Y87344D01*
X339826Y86614D01*
X339971Y85884D01*
X340384Y85266D01*
X341003Y84853D01*
X341732Y84707D01*
X342462Y84853D01*
X343080Y85266D01*
X343217D01*
X343678Y84826D01*
Y83963D01*
X343596Y83881D01*
X335433D01*
X334972Y83790D01*
X334581Y83529D01*
X333794Y82741D01*
X333533Y82351D01*
X333441Y81890D01*
X333441Y81890D01*
Y51575D01*
X333441Y51575D01*
X333533Y51114D01*
X333794Y50723D01*
X334348Y50170D01*
X334314Y50000D01*
X334459Y49270D01*
X334872Y48652D01*
X335491Y48238D01*
X336221Y48093D01*
X336950Y48238D01*
X337569Y48652D01*
X337982Y49270D01*
X338127Y50000D01*
X337982Y50730D01*
X337569Y51348D01*
X336950Y51762D01*
X336221Y51907D01*
X335850Y52294D01*
Y81391D01*
X335932Y81473D01*
X344094D01*
X344094Y81473D01*
X344555Y81565D01*
X344946Y81826D01*
X345733Y82613D01*
X345994Y83004D01*
X346086Y83465D01*
Y85170D01*
X346230Y85266D01*
X346643Y85884D01*
X346789Y86614D01*
X346643Y87344D01*
X346230Y87962D01*
X345612Y88376D01*
X344882Y88521D01*
X344152Y88376D01*
X343534Y87962D01*
X343397D01*
X342936Y88403D01*
Y88976D01*
X342845Y89437D01*
X342584Y89828D01*
X341796Y90615D01*
X341406Y90876D01*
X340945Y90968D01*
X340945Y90968D01*
X338294D01*
X338212Y91050D01*
Y91863D01*
X338356Y91959D01*
X338769Y92577D01*
X338915Y93307D01*
X338769Y94037D01*
X338356Y94655D01*
X337737Y95069D01*
X337008Y95214D01*
D02*
G37*
G36*
X221260Y92064D02*
X220530Y91919D01*
X219912Y91506D01*
X219498Y90887D01*
X219353Y90158D01*
X219498Y89428D01*
X219654Y89195D01*
Y87971D01*
X219498Y87738D01*
X219353Y87008D01*
X219498Y86278D01*
X219912Y85660D01*
X220530Y85246D01*
X221260Y85101D01*
X221989Y85246D01*
X222608Y85660D01*
X223021Y86278D01*
X223167Y87008D01*
X223021Y87738D01*
X222866Y87971D01*
Y89195D01*
X223021Y89428D01*
X223167Y90158D01*
X223021Y90887D01*
X222608Y91506D01*
X221989Y91919D01*
X221260Y92064D01*
D02*
G37*
G36*
X227756Y102192D02*
X225000D01*
X224462Y102085D01*
X224007Y101781D01*
X223702Y101325D01*
X223595Y100787D01*
Y98032D01*
X223702Y97494D01*
X224007Y97038D01*
X224462Y96733D01*
X225000Y96627D01*
X227756D01*
X228294Y96733D01*
X228749Y97038D01*
X229054Y97494D01*
X229161Y98032D01*
Y100787D01*
X229054Y101325D01*
X228749Y101781D01*
X228294Y102085D01*
X227756Y102192D01*
D02*
G37*
G36*
X307480Y101513D02*
X306751Y101368D01*
X306132Y100954D01*
X305719Y100336D01*
X305574Y99606D01*
X305719Y98877D01*
X306132Y98258D01*
Y97805D01*
X305719Y97186D01*
X305574Y96457D01*
X305719Y95727D01*
X306132Y95108D01*
Y94655D01*
X305719Y94037D01*
X305574Y93307D01*
X305719Y92577D01*
X306132Y91959D01*
X306751Y91545D01*
X307480Y91400D01*
X308210Y91545D01*
X308829Y91959D01*
X309242Y92577D01*
X309387Y93307D01*
X309242Y94037D01*
X308829Y94655D01*
Y95108D01*
X309242Y95727D01*
X309387Y96457D01*
X309242Y97186D01*
X308829Y97805D01*
Y98258D01*
X309242Y98877D01*
X309387Y99606D01*
X309242Y100336D01*
X308829Y100954D01*
X308210Y101368D01*
X307480Y101513D01*
D02*
G37*
G36*
X263386Y94426D02*
X262656Y94281D01*
X262038Y93868D01*
X261624Y93249D01*
X261479Y92520D01*
X261624Y91790D01*
X262038Y91171D01*
X262182Y91075D01*
Y38976D01*
X262182Y38976D01*
X262273Y38515D01*
X262534Y38125D01*
X262694Y37965D01*
X262660Y37795D01*
X262805Y37066D01*
X263219Y36447D01*
X263837Y36034D01*
X264567Y35889D01*
X265297Y36034D01*
X265915Y36447D01*
X266329Y37066D01*
X266474Y37795D01*
X266329Y38525D01*
X265915Y39143D01*
X265297Y39557D01*
X264590Y39697D01*
Y91075D01*
X264734Y91171D01*
X265147Y91790D01*
X265293Y92520D01*
X265147Y93249D01*
X264734Y93868D01*
X264116Y94281D01*
X263386Y94426D01*
D02*
G37*
G36*
X359055Y17247D02*
X358361Y17156D01*
X357715Y16888D01*
X357160Y16462D01*
X357013D01*
X356458Y16888D01*
X355812Y17156D01*
X355118Y17247D01*
X354424Y17156D01*
X353778Y16888D01*
X353223Y16462D01*
X352797Y15907D01*
X352529Y15261D01*
X352438Y14567D01*
X352529Y13873D01*
X352797Y13227D01*
X353223Y12672D01*
X353778Y12246D01*
X354424Y11978D01*
X355118Y11886D01*
X355812Y11978D01*
X356458Y12246D01*
X357013Y12672D01*
X357160D01*
X357715Y12246D01*
X358361Y11978D01*
X359055Y11886D01*
X359749Y11978D01*
X360395Y12246D01*
X360950Y12672D01*
X361376Y13227D01*
X361644Y13873D01*
X361736Y14567D01*
X361644Y15261D01*
X361376Y15907D01*
X360950Y16462D01*
X360395Y16888D01*
X359749Y17156D01*
X359055Y17247D01*
D02*
G37*
G36*
X359449Y1119D02*
X358719Y974D01*
X358203Y629D01*
X357874Y589D01*
X357545Y629D01*
X357029Y974D01*
X356299Y1119D01*
X355570Y974D01*
X354951Y561D01*
X354538Y-58D01*
X354393Y-787D01*
X354538Y-1517D01*
X354951Y-2136D01*
X355570Y-2549D01*
X356299Y-2694D01*
X357029Y-2549D01*
X357647Y-2136D01*
X358101D01*
X358719Y-2549D01*
X359449Y-2694D01*
X360178Y-2549D01*
X360797Y-2136D01*
X361210Y-1517D01*
X361355Y-787D01*
X361210Y-58D01*
X360797Y561D01*
X360178Y974D01*
X359449Y1119D01*
D02*
G37*
G36*
X261024Y3481D02*
X260294Y3336D01*
X259675Y2923D01*
X259262Y2304D01*
X259117Y1575D01*
X259262Y845D01*
X259675Y227D01*
X260294Y-187D01*
X261024Y-332D01*
X261753Y-187D01*
X262372Y227D01*
X262785Y845D01*
X262930Y1575D01*
X262785Y2304D01*
X262372Y2923D01*
X261753Y3336D01*
X261024Y3481D01*
D02*
G37*
G36*
X177756Y17350D02*
X131102D01*
X130280Y17242D01*
X129514Y16924D01*
X128856Y16420D01*
X124919Y12483D01*
X124414Y11825D01*
X124097Y11058D01*
X123989Y10236D01*
X124097Y9414D01*
X124414Y8648D01*
X124919Y7990D01*
X125577Y7485D01*
X126343Y7168D01*
X127165Y7059D01*
X127988Y7168D01*
X128754Y7485D01*
X129412Y7990D01*
X132418Y10996D01*
X177756D01*
X178578Y11105D01*
X179344Y11422D01*
X180002Y11927D01*
X180507Y12585D01*
X180824Y13351D01*
X180933Y14173D01*
X180824Y14995D01*
X180507Y15762D01*
X180002Y16420D01*
X179344Y16924D01*
X178578Y17242D01*
X177756Y17350D01*
D02*
G37*
G36*
X315354Y11355D02*
X314625Y11210D01*
X314006Y10797D01*
X313593Y10178D01*
X313448Y9449D01*
X313561Y8879D01*
X313520Y8804D01*
X313244Y8528D01*
X313168Y8486D01*
X312598Y8600D01*
X311869Y8455D01*
X311250Y8041D01*
X310837Y7423D01*
X310692Y6693D01*
X310837Y5963D01*
X311250Y5345D01*
X311869Y4931D01*
X312598Y4786D01*
X313328Y4931D01*
X313947Y5345D01*
X314043Y5489D01*
X314786D01*
X318687Y1587D01*
X318523Y1045D01*
X318168Y974D01*
X317549Y561D01*
X317136Y-58D01*
X316991Y-787D01*
X317136Y-1517D01*
X317549Y-2136D01*
X318168Y-2549D01*
X318898Y-2694D01*
X319627Y-2549D01*
X320246Y-2136D01*
X320659Y-1517D01*
X321204Y-1342D01*
X321237Y-1355D01*
Y-20079D01*
X321237Y-20079D01*
X321328Y-20540D01*
X321589Y-20930D01*
X322377Y-21718D01*
X322767Y-21979D01*
X323228Y-22070D01*
X325327D01*
X325423Y-22214D01*
X326042Y-22628D01*
X326772Y-22773D01*
X327501Y-22628D01*
X328120Y-22214D01*
X328533Y-21596D01*
X328678Y-20866D01*
X328533Y-20136D01*
X328120Y-19518D01*
Y-19065D01*
X328533Y-18446D01*
X328678Y-17717D01*
X328533Y-16987D01*
X328120Y-16368D01*
X327501Y-15955D01*
X326772Y-15810D01*
X326042Y-15955D01*
X325720Y-16170D01*
X325220Y-15903D01*
Y787D01*
X325220Y787D01*
X325128Y1248D01*
X324867Y1639D01*
X324867Y1639D01*
X317227Y9279D01*
X317261Y9449D01*
X317116Y10178D01*
X316703Y10797D01*
X316084Y11210D01*
X315354Y11355D01*
D02*
G37*
G36*
X324410Y14505D02*
X323680Y14360D01*
X323061Y13947D01*
X322648Y13328D01*
X322503Y12598D01*
X322648Y11869D01*
X323061Y11250D01*
X323680Y10837D01*
X324410Y10692D01*
X325139Y10837D01*
X325758Y11250D01*
X326171Y11869D01*
X326316Y12598D01*
X326171Y13328D01*
X325758Y13947D01*
X325139Y14360D01*
X324410Y14505D01*
D02*
G37*
G36*
X348819Y16460D02*
X348125Y16369D01*
X347479Y16101D01*
X346924Y15675D01*
X346498Y15120D01*
X346230Y14473D01*
X346139Y13780D01*
X346230Y13086D01*
X346498Y12439D01*
X346924Y11884D01*
X347479Y11458D01*
X348125Y11191D01*
X348819Y11099D01*
X349513Y11191D01*
X350159Y11458D01*
X350714Y11884D01*
X351140Y12439D01*
X351408Y13086D01*
X351499Y13780D01*
X351408Y14473D01*
X351140Y15120D01*
X350714Y15675D01*
X350159Y16101D01*
X349513Y16369D01*
X348819Y16460D01*
D02*
G37*
G36*
X261024Y36552D02*
X260294Y36407D01*
X259675Y35994D01*
X259262Y35375D01*
X259117Y34646D01*
X259262Y33916D01*
X259675Y33297D01*
X260294Y32884D01*
X261024Y32739D01*
X261753Y32884D01*
X262372Y33297D01*
X262785Y33916D01*
X262930Y34646D01*
X262785Y35375D01*
X262372Y35994D01*
X261753Y36407D01*
X261024Y36552D01*
D02*
G37*
G36*
X425197Y42153D02*
X424375Y42045D01*
X423608Y41728D01*
X422951Y41223D01*
X422446Y40565D01*
X422128Y39799D01*
X422020Y38976D01*
X422128Y38154D01*
X422446Y37388D01*
X422951Y36730D01*
X423608Y36225D01*
X424375Y35908D01*
X425197Y35800D01*
X426019Y35908D01*
X426785Y36225D01*
X427443Y36730D01*
X427948Y37388D01*
X428265Y38154D01*
X428374Y38976D01*
X428265Y39799D01*
X427948Y40565D01*
X427443Y41223D01*
X426785Y41728D01*
X426019Y42045D01*
X425197Y42153D01*
D02*
G37*
G36*
X124803Y41366D02*
X123981Y41258D01*
X123215Y40940D01*
X122993Y40770D01*
X120079D01*
X119411Y40682D01*
X118788Y40424D01*
X118254Y40014D01*
X116285Y38046D01*
X115875Y37511D01*
X115617Y36889D01*
X115529Y36220D01*
Y12880D01*
X111136Y8487D01*
X85668D01*
X85447Y8657D01*
X84680Y8974D01*
X83858Y9082D01*
X83036Y8974D01*
X82270Y8657D01*
X81612Y8152D01*
X81107Y7494D01*
X80790Y6728D01*
X80682Y5906D01*
X80790Y5083D01*
X81107Y4317D01*
X81612Y3659D01*
X82270Y3154D01*
X83036Y2837D01*
X83858Y2729D01*
X84680Y2837D01*
X85447Y3154D01*
X85668Y3324D01*
X112205D01*
X112873Y3412D01*
X113495Y3670D01*
X114030Y4080D01*
X119935Y9986D01*
X120346Y10520D01*
X120603Y11143D01*
X120691Y11811D01*
Y35151D01*
X121148Y35608D01*
X122993D01*
X123215Y35438D01*
X123981Y35120D01*
X124803Y35012D01*
X125625Y35120D01*
X126391Y35438D01*
X127050Y35943D01*
X127554Y36601D01*
X127872Y37367D01*
X127980Y38189D01*
X127872Y39011D01*
X127554Y39777D01*
X127050Y40435D01*
X126391Y40940D01*
X125625Y41258D01*
X124803Y41366D01*
D02*
G37*
G36*
X348819Y1119D02*
X348089Y974D01*
X347471Y561D01*
X347057Y-58D01*
X346912Y-787D01*
X347057Y-1517D01*
X347471Y-2136D01*
X348089Y-2549D01*
X348819Y-2694D01*
X349549Y-2549D01*
X350167Y-2136D01*
X350581Y-1517D01*
X350726Y-787D01*
X350581Y-58D01*
X350167Y561D01*
X349549Y974D01*
X348819Y1119D01*
D02*
G37*
G36*
X177756Y35460D02*
X131102D01*
X130280Y35352D01*
X129514Y35035D01*
X128856Y34530D01*
X124919Y30593D01*
X124414Y29935D01*
X124097Y29169D01*
X123989Y28346D01*
X124097Y27524D01*
X124414Y26758D01*
X124919Y26100D01*
X125577Y25595D01*
X126343Y25278D01*
X127165Y25170D01*
X127988Y25278D01*
X128754Y25595D01*
X129412Y26100D01*
X132418Y29107D01*
X177756D01*
X178578Y29215D01*
X179344Y29532D01*
X180002Y30037D01*
X180507Y30695D01*
X180824Y31461D01*
X180933Y32283D01*
X180824Y33106D01*
X180507Y33872D01*
X180002Y34530D01*
X179344Y35035D01*
X178578Y35352D01*
X177756Y35460D01*
D02*
G37*
G36*
X124803Y5145D02*
X123981Y5037D01*
X123215Y4720D01*
X122993Y4550D01*
X120079D01*
X119411Y4462D01*
X118788Y4204D01*
X118254Y3794D01*
X116285Y1825D01*
X115875Y1291D01*
X115617Y668D01*
X115529Y0D01*
Y-2868D01*
X115073Y-3324D01*
X85668D01*
X85447Y-3154D01*
X84680Y-2837D01*
X83858Y-2729D01*
X83036Y-2837D01*
X82270Y-3154D01*
X81612Y-3659D01*
X81107Y-4317D01*
X80790Y-5083D01*
X80682Y-5906D01*
X80790Y-6728D01*
X81107Y-7494D01*
X81612Y-8152D01*
X82270Y-8657D01*
X83036Y-8974D01*
X83858Y-9082D01*
X84680Y-8974D01*
X85447Y-8657D01*
X85668Y-8487D01*
X116142D01*
X116810Y-8399D01*
X117432Y-8141D01*
X117967Y-7731D01*
X119935Y-5762D01*
X120346Y-5228D01*
X120603Y-4605D01*
X120691Y-3937D01*
Y-1069D01*
X121148Y-613D01*
X122993D01*
X123215Y-783D01*
X123981Y-1100D01*
X124803Y-1208D01*
X125625Y-1100D01*
X126391Y-783D01*
X127050Y-278D01*
X127554Y380D01*
X127872Y1146D01*
X127980Y1969D01*
X127872Y2791D01*
X127554Y3557D01*
X127050Y4215D01*
X126391Y4720D01*
X125625Y5037D01*
X124803Y5145D01*
D02*
G37*
%LPD*%
G36*
X296827Y7241D02*
Y-1336D01*
X296327Y-1603D01*
X296005Y-1388D01*
X295276Y-1243D01*
X294546Y-1388D01*
X293927Y-1801D01*
X293830Y-1947D01*
X293330Y-1795D01*
Y5407D01*
X295106Y7182D01*
X295276Y7148D01*
X296005Y7294D01*
X296327Y7509D01*
X296827Y7241D01*
D02*
G37*
G36*
X304291Y10734D02*
X304701Y10236D01*
X304701Y10236D01*
Y1181D01*
X304701Y1181D01*
X304793Y720D01*
X305054Y330D01*
X307023Y-1639D01*
X307023Y-1639D01*
X307413Y-1900D01*
X307874Y-1992D01*
X310525D01*
X312955Y-4422D01*
X312810Y-4901D01*
X312656Y-4931D01*
X312038Y-5345D01*
X311915Y-5528D01*
X311314D01*
X311191Y-5345D01*
X310572Y-4931D01*
X309842Y-4786D01*
X309113Y-4931D01*
X308494Y-5345D01*
X308081Y-5963D01*
X307936Y-6693D01*
X308081Y-7423D01*
X308494Y-8041D01*
X309113Y-8455D01*
X309842Y-8600D01*
X310572Y-8455D01*
X311191Y-8041D01*
X311314Y-7858D01*
X311915D01*
X312038Y-8041D01*
X312656Y-8455D01*
X313386Y-8600D01*
X314116Y-8455D01*
X314734Y-8041D01*
X314970Y-7688D01*
X315576Y-7536D01*
X315620Y-7547D01*
X315725Y-7625D01*
Y-17611D01*
X315643Y-17693D01*
X312598D01*
X312138Y-17785D01*
X311747Y-18046D01*
X310566Y-19227D01*
X310305Y-19618D01*
X310213Y-20079D01*
X310213Y-20079D01*
Y-42126D01*
X310213Y-42126D01*
X310305Y-42587D01*
X310566Y-42977D01*
X311747Y-44159D01*
X312138Y-44420D01*
X312598Y-44511D01*
X320603D01*
X320699Y-44655D01*
X321318Y-45069D01*
X322047Y-45214D01*
X322777Y-45069D01*
X323395Y-44655D01*
X323809Y-44037D01*
X323954Y-43307D01*
X323809Y-42577D01*
X323395Y-41959D01*
X323094Y-41757D01*
X323199Y-41226D01*
X323209Y-41224D01*
X323860Y-40789D01*
X324295Y-40138D01*
X324448Y-39370D01*
X324295Y-38602D01*
X323860Y-37951D01*
X323209Y-37516D01*
X322441Y-37363D01*
X319685D01*
X318917Y-37516D01*
X318266Y-37951D01*
X317831Y-38602D01*
X317678Y-39370D01*
X317831Y-40138D01*
X318266Y-40789D01*
X318917Y-41224D01*
X319685Y-41377D01*
X320349D01*
X320589Y-41877D01*
X320409Y-42103D01*
X313097D01*
X312622Y-41627D01*
Y-35844D01*
X313084Y-35653D01*
X313715Y-36285D01*
X313715Y-36285D01*
X314106Y-36546D01*
X314567Y-36637D01*
X314567Y-36637D01*
X327848D01*
X328323Y-37113D01*
Y-47227D01*
X327861Y-47418D01*
X326836Y-46393D01*
X326445Y-46132D01*
X325984Y-46040D01*
X325984Y-46040D01*
X306798D01*
X306716Y-45958D01*
Y-32412D01*
X306716Y-32412D01*
X306624Y-31951D01*
X306363Y-31560D01*
X305448Y-30645D01*
X305057Y-30384D01*
X304596Y-30292D01*
X304596Y-30292D01*
X299318D01*
X298448Y-29422D01*
Y-28368D01*
X298555Y-28311D01*
X298948Y-28154D01*
X299606Y-28285D01*
X300336Y-28139D01*
X300955Y-27726D01*
X301408D01*
X302026Y-28139D01*
X302756Y-28285D01*
X303486Y-28139D01*
X304104Y-27726D01*
X304518Y-27108D01*
X304663Y-26378D01*
X304518Y-25648D01*
X304104Y-25030D01*
X303960Y-24934D01*
Y-24803D01*
X303869Y-24342D01*
X303607Y-23952D01*
X302779Y-23123D01*
Y-8507D01*
X303279Y-8239D01*
X303601Y-8455D01*
X304331Y-8600D01*
X305060Y-8455D01*
X305679Y-8041D01*
X306092Y-7423D01*
X306237Y-6693D01*
X306092Y-5963D01*
X305679Y-5345D01*
X305060Y-4931D01*
X304331Y-4786D01*
X303601Y-4931D01*
X303279Y-5147D01*
X302779Y-4879D01*
Y9344D01*
X304185Y10750D01*
X304291Y10734D01*
D02*
G37*
G36*
X287182Y84554D02*
X286903Y84275D01*
X280315D01*
X280315Y84275D01*
X279854Y84183D01*
X279463Y83922D01*
X279463Y83922D01*
X278676Y83135D01*
X278415Y82744D01*
X278323Y82284D01*
X278323Y82283D01*
Y59055D01*
X278323Y59055D01*
X278415Y58594D01*
X278676Y58204D01*
X307416Y29463D01*
X307807Y29202D01*
X308268Y29111D01*
X308268Y29111D01*
X309210D01*
X309477Y28611D01*
X309262Y28289D01*
X309117Y27559D01*
X309262Y26829D01*
X309675Y26211D01*
X310294Y25798D01*
X311024Y25652D01*
X311193Y25686D01*
X313420Y23460D01*
X313420Y23460D01*
X313811Y23198D01*
X314272Y23107D01*
X316366D01*
X316573Y22607D01*
X311835Y17869D01*
X311293Y18033D01*
X311210Y18446D01*
X310797Y19065D01*
X310178Y19478D01*
X309449Y19623D01*
X309189Y19572D01*
X309122Y19616D01*
X308661Y19708D01*
X308661Y19708D01*
X306693D01*
X306693Y19708D01*
X306232Y19616D01*
X305841Y19355D01*
X303058Y16572D01*
X302580Y16717D01*
X302549Y16871D01*
X302136Y17490D01*
X301517Y17903D01*
X300787Y18048D01*
X300058Y17903D01*
X299439Y17490D01*
X299026Y16871D01*
X298881Y16142D01*
X299026Y15412D01*
X299439Y14794D01*
X300058Y14380D01*
X300212Y14349D01*
X300357Y13871D01*
X299149Y12663D01*
X298887Y12272D01*
X298808Y11870D01*
X298515Y11695D01*
X298346Y11625D01*
X285422Y24548D01*
X285551Y25127D01*
X285994Y25423D01*
X286407Y26042D01*
X286552Y26772D01*
X286407Y27501D01*
X285994Y28120D01*
X285375Y28533D01*
X284646Y28678D01*
X283916Y28533D01*
X283297Y28120D01*
X282884Y27501D01*
X282739Y26772D01*
X282768Y26628D01*
X282337Y26227D01*
X281890Y26316D01*
X281160Y26171D01*
X280541Y25758D01*
X280128Y25139D01*
X280041Y24701D01*
X279857Y24608D01*
X279503Y24562D01*
X278804Y25261D01*
X278451Y25497D01*
X278439Y25651D01*
X278511Y26012D01*
X278830Y26076D01*
X279221Y26337D01*
X280379Y27495D01*
X280379Y27495D01*
X285433Y32549D01*
X287117Y30865D01*
X287215Y30373D01*
X287628Y29754D01*
X288247Y29341D01*
X288976Y29196D01*
X289104Y29221D01*
X289457Y28867D01*
X289432Y28740D01*
X289577Y28010D01*
X289990Y27392D01*
X290609Y26979D01*
X291339Y26833D01*
X292068Y26979D01*
X292687Y27392D01*
X293100Y28010D01*
X293245Y28740D01*
X293100Y29470D01*
X292687Y30088D01*
X292068Y30502D01*
X291339Y30647D01*
X291211Y30622D01*
X290858Y30975D01*
X290883Y31102D01*
X290738Y31832D01*
X290325Y32451D01*
X289706Y32864D01*
X288976Y33009D01*
X288478Y32910D01*
X287136Y34252D01*
X290615Y37731D01*
X290615Y37731D01*
X290876Y38122D01*
X290968Y38583D01*
Y39764D01*
X290968Y39764D01*
X290876Y40225D01*
X290615Y40615D01*
X290615Y40615D01*
X272858Y58373D01*
Y82966D01*
X279395Y89503D01*
X279395Y89503D01*
X279656Y89894D01*
X279748Y90354D01*
X279748Y90354D01*
Y92560D01*
X280101Y92913D01*
X280906Y92913D01*
X281405Y92913D01*
X282260D01*
Y87507D01*
X282178Y87425D01*
X279262D01*
X279262Y87425D01*
X278801Y87333D01*
X278411Y87072D01*
X278411Y87072D01*
X275526Y84188D01*
X275265Y83797D01*
X275174Y83336D01*
X275174Y83336D01*
Y57874D01*
X275174Y57874D01*
X275265Y57413D01*
X275526Y57023D01*
X305489Y27060D01*
Y26378D01*
X305489Y26378D01*
X305580Y25917D01*
X305841Y25526D01*
X309938Y21430D01*
X309904Y21260D01*
X310049Y20530D01*
X310463Y19912D01*
X311081Y19498D01*
X311811Y19353D01*
X312541Y19498D01*
X313159Y19912D01*
X313573Y20530D01*
X313718Y21260D01*
X313573Y21990D01*
X313159Y22608D01*
X312541Y23021D01*
X311811Y23167D01*
X311641Y23133D01*
X307897Y26877D01*
Y27559D01*
X307897Y27559D01*
X307805Y28020D01*
X307544Y28411D01*
X307544Y28411D01*
X277582Y58373D01*
Y82837D01*
X279761Y85016D01*
X282677D01*
X282677Y85016D01*
X283138Y85108D01*
X283529Y85369D01*
X284316Y86156D01*
X284577Y86547D01*
X284669Y87008D01*
Y92560D01*
X285022Y92913D01*
X285827Y92913D01*
X286327Y92913D01*
X287182D01*
Y84554D01*
D02*
G37*
%LPC*%
G36*
X291732Y37340D02*
X291003Y37195D01*
X290384Y36781D01*
X289971Y36163D01*
X289826Y35433D01*
X289971Y34703D01*
X290384Y34085D01*
X291003Y33672D01*
X291732Y33526D01*
X292462Y33672D01*
X293080Y34085D01*
X293494Y34703D01*
X293639Y35433D01*
X293494Y36163D01*
X293080Y36781D01*
X292462Y37195D01*
X291732Y37340D01*
D02*
G37*
G36*
X295276Y33797D02*
X294546Y33651D01*
X293927Y33238D01*
X293514Y32619D01*
X293369Y31890D01*
X293514Y31160D01*
X293927Y30542D01*
X294546Y30128D01*
X295276Y29983D01*
X296005Y30128D01*
X296624Y30542D01*
X297037Y31160D01*
X297182Y31890D01*
X297037Y32619D01*
X296624Y33238D01*
X296005Y33651D01*
X295276Y33797D01*
D02*
G37*
G36*
X301181Y27497D02*
X300451Y27352D01*
X299833Y26939D01*
X299419Y26320D01*
X299274Y25591D01*
X299419Y24861D01*
X299833Y24242D01*
X300451Y23829D01*
X301181Y23684D01*
X301911Y23829D01*
X302529Y24242D01*
X302943Y24861D01*
X303088Y25591D01*
X302943Y26320D01*
X302529Y26939D01*
X301911Y27352D01*
X301181Y27497D01*
D02*
G37*
%LPD*%
G36*
X535827Y32283D02*
X537795Y30315D01*
X537795Y-55118D01*
X535827Y-57087D01*
X494094Y-57087D01*
Y-15354D01*
X496063Y-13386D01*
X498425Y-13386D01*
X499606Y-12205D01*
Y30315D01*
X501575Y32283D01*
X535827Y32283D01*
D02*
G37*
G36*
X496063Y32283D02*
X498031Y30315D01*
X498032Y-9843D01*
X496063Y-11811D01*
X466535D01*
X464567Y-13779D01*
X464567Y-25984D01*
X462598Y-27953D01*
X370079Y-27953D01*
X368111Y-25985D01*
X368110Y29134D01*
X371260Y32283D01*
X496063Y32283D01*
D02*
G37*
G36*
X415354Y102362D02*
X417323Y100394D01*
X417323Y39899D01*
X415613Y38189D01*
X370079Y38189D01*
X370079Y100394D01*
X372047Y102362D01*
X415354Y102362D01*
D02*
G37*
G36*
X456693Y-31496D02*
X456693Y-59055D01*
X454724Y-61024D01*
X444881Y-61024D01*
X435039Y-70866D01*
X435039Y-100394D01*
X433071Y-102362D01*
X372047Y-102362D01*
X370079Y-100394D01*
Y-61024D01*
X370079Y-32510D01*
X370570Y-32418D01*
X371092Y-33199D01*
X371874Y-33721D01*
X372795Y-33904D01*
X373717Y-33721D01*
X374498Y-33199D01*
X375020Y-32418D01*
X375204Y-31496D01*
X375020Y-30574D01*
X374655Y-30028D01*
X374922Y-29528D01*
X417952Y-29528D01*
X418219Y-30028D01*
X417854Y-30574D01*
X417670Y-31496D01*
X417854Y-32418D01*
X418376Y-33199D01*
X419157Y-33721D01*
X420079Y-33904D01*
X421000Y-33721D01*
X421782Y-33199D01*
X422304Y-32418D01*
X422487Y-31496D01*
X422304Y-30574D01*
X421939Y-30028D01*
X422206Y-29528D01*
X454724Y-29528D01*
X456693Y-31496D01*
D02*
G37*
G36*
X492126Y-57087D02*
X494095Y-59055D01*
X535433Y-59055D01*
X537401Y-61024D01*
X537402Y-100394D01*
X535433Y-102362D01*
X472441Y-102362D01*
X470472Y-100394D01*
Y-23622D01*
X472441Y-21654D01*
X492126Y-21654D01*
X492126Y-57087D01*
D02*
G37*
G36*
X493299Y-13879D02*
X492959Y-14219D01*
X492959Y-14219D01*
X492611Y-14740D01*
X492489Y-15354D01*
X492489Y-15354D01*
Y-19750D01*
X492126Y-20048D01*
X472441Y-20048D01*
X471827Y-20170D01*
X471306Y-20518D01*
X471306Y-20518D01*
X469337Y-22487D01*
X468989Y-23008D01*
X468867Y-23622D01*
X468867Y-23622D01*
Y-42038D01*
X468367Y-42190D01*
X468238Y-41998D01*
X467457Y-41476D01*
X466535Y-41292D01*
X465614Y-41476D01*
X464832Y-41998D01*
X464310Y-42779D01*
X464127Y-43701D01*
X464310Y-44622D01*
X464832Y-45404D01*
X465614Y-45926D01*
X466535Y-46109D01*
X467457Y-45926D01*
X468238Y-45404D01*
X468367Y-45212D01*
X468867Y-45364D01*
Y-74098D01*
X468367Y-74181D01*
X467799Y-72509D01*
X466857Y-70599D01*
X465674Y-68828D01*
X464270Y-67226D01*
X462668Y-65822D01*
X460897Y-64639D01*
X458987Y-63697D01*
X456970Y-63012D01*
X455825Y-62784D01*
X455752Y-62639D01*
X455719Y-62253D01*
X455859Y-62160D01*
X455859Y-62160D01*
X457828Y-60191D01*
X457828Y-60190D01*
X458176Y-59670D01*
X458298Y-59055D01*
X458298Y-59055D01*
X458298Y-31496D01*
X458298Y-31496D01*
X458176Y-30882D01*
X457828Y-30361D01*
X457828Y-30361D01*
X457488Y-30020D01*
X457679Y-29558D01*
X462598D01*
X462598Y-29558D01*
X463213Y-29436D01*
X463734Y-29088D01*
X463734Y-29088D01*
X465702Y-27119D01*
X465702Y-27119D01*
X466050Y-26599D01*
X466173Y-25984D01*
X466173Y-25984D01*
X466173Y-14445D01*
X467201Y-13417D01*
X493108D01*
X493299Y-13879D01*
D02*
G37*
%LPC*%
G36*
X451575Y25243D02*
X450653Y25060D01*
X449872Y24538D01*
X449350Y23756D01*
X449166Y22835D01*
X449350Y21913D01*
X449872Y21132D01*
X450653Y20609D01*
X451575Y20426D01*
X452496Y20609D01*
X453278Y21132D01*
X453800Y21913D01*
X453983Y22835D01*
X453800Y23756D01*
X453278Y24538D01*
X452496Y25060D01*
X451575Y25243D01*
D02*
G37*
%LPD*%
G36*
X535433Y100394D02*
Y57087D01*
X533465Y55118D01*
X490158D01*
X488189Y57087D01*
Y100394D01*
X490158Y102362D01*
X533465D01*
X535433Y100394D01*
D02*
G37*
D20*
X229429Y-33071D02*
D03*
X222539D02*
D03*
X285531Y-87008D02*
D03*
X292421D02*
D03*
D51*
X271457Y-108268D02*
D03*
X311221D02*
D03*
X303346Y108465D02*
D03*
X263583D02*
D03*
X271457Y-67323D02*
D03*
X311221D02*
D03*
D52*
X281496Y-96653D02*
D03*
X301181D02*
D03*
X291339D02*
D03*
X296260D02*
D03*
X286417D02*
D03*
X293307Y96850D02*
D03*
X273622D02*
D03*
X283465D02*
D03*
X278543D02*
D03*
X288386D02*
D03*
X281496Y-55709D02*
D03*
X301181D02*
D03*
X291339D02*
D03*
X296260D02*
D03*
X286417D02*
D03*
D65*
X393700Y42127D02*
D03*
X393701Y28740D02*
D03*
D71*
X131102Y-94488D02*
X177756D01*
X127165Y-98425D02*
X131102Y-94488D01*
X127165Y-80315D02*
X131102Y-76378D01*
X177756D01*
X127165Y-62205D02*
X131102Y-58268D01*
X177756D01*
X127165Y-44094D02*
X131102Y-40157D01*
X177756D01*
X127165Y-25984D02*
X131102Y-22047D01*
X177756D01*
X127165Y-7874D02*
X131102Y-3937D01*
X177756D01*
X127165Y10236D02*
X131102Y14173D01*
X177756D01*
X127165Y46457D02*
X131102Y50394D01*
X177756D01*
X127165Y64567D02*
X131102Y68504D01*
X177756D01*
X127165Y28346D02*
X131102Y32283D01*
X177756D01*
X127165Y82677D02*
X131102Y86614D01*
X177756D01*
X127165Y100787D02*
X131102Y104724D01*
X177756D01*
X513779Y43307D02*
X517717D01*
D73*
X116929Y103150D02*
X120079Y106299D01*
X116929Y62992D02*
Y103150D01*
X102362Y48425D02*
X116929Y62992D01*
X122047Y55905D02*
Y67716D01*
X124803Y70472D01*
Y74410D01*
X104331Y-47729D02*
X111024Y-54422D01*
Y-64567D02*
Y-54422D01*
Y-64567D02*
X117717Y-71260D01*
X104331Y-47729D02*
Y-44094D01*
X101575Y-41339D02*
X104331Y-44094D01*
X117717Y-103150D02*
Y-71260D01*
X118110Y0D02*
X120079Y1969D01*
X118110Y-3937D02*
Y0D01*
X116142Y-5906D02*
X118110Y-3937D01*
X120079Y38189D02*
X124803D01*
X118110Y36220D02*
X120079Y38189D01*
X118110Y11811D02*
Y36220D01*
X112205Y5906D02*
X118110Y11811D01*
Y-62205D02*
X124803Y-68898D01*
X118110Y-62205D02*
Y-49213D01*
X124803Y-70472D02*
Y-68898D01*
X110236Y-29528D02*
X112205Y-31496D01*
Y-43307D02*
Y-31496D01*
Y-43307D02*
X118110Y-49213D01*
X115748Y-17717D02*
X118110Y-20079D01*
Y-32283D02*
Y-20079D01*
Y-32283D02*
X120079Y-34252D01*
X117717Y-103150D02*
X120079Y-105512D01*
Y-34252D02*
X124803D01*
X120079Y1969D02*
X124803D01*
X83858Y-41339D02*
X101575D01*
X83858Y-29528D02*
X110236D01*
X83858Y-17717D02*
X115748D01*
X83858Y-5906D02*
X116142D01*
X83858Y5906D02*
X112205D01*
X110236Y44094D02*
X122047Y55905D01*
X83858Y17717D02*
X105905D01*
X110236Y22047D01*
Y44094D01*
X83858Y29528D02*
X99213D01*
X102362Y32677D01*
Y48425D01*
D74*
X200394Y54331D02*
Y97244D01*
X193701Y98032D02*
X199606D01*
X200394Y97244D01*
X229921Y58268D02*
X230709Y59055D01*
X233465D01*
X229921Y61417D02*
X230709Y60630D01*
X234646D01*
X241339Y56693D02*
X243307D01*
X244094Y57480D01*
Y64961D01*
X229134Y10236D02*
Y52362D01*
X193701Y98032D02*
X193701Y98032D01*
X200394Y54331D02*
X201181Y53543D01*
X227953D01*
X229134Y52362D01*
X273228Y24409D02*
X277953D01*
X271654Y22835D02*
X273228Y24409D01*
X254331Y22835D02*
X271654D01*
X278370Y27189D02*
X279528Y28346D01*
X271677Y27189D02*
X278370D01*
X270472Y25984D02*
X271677Y27189D01*
X225984Y6299D02*
Y49213D01*
X193701Y79921D02*
X196063D01*
X196850Y79134D01*
Y51181D02*
Y79134D01*
Y51181D02*
X197638Y50394D01*
X224803D01*
X225984Y49213D01*
X222835Y2362D02*
Y46457D01*
X222047Y47244D02*
X222835Y46457D01*
X194488Y47244D02*
X222047D01*
X193701Y48031D02*
X194488Y47244D01*
X193701Y48031D02*
Y61811D01*
X253150Y21654D02*
X254331Y22835D01*
X253150Y-6299D02*
Y21654D01*
X255512Y20866D02*
X274410D01*
X254724Y20079D02*
X255512Y20866D01*
X254724Y-5512D02*
Y20079D01*
X274410Y20866D02*
X275590Y22047D01*
X390158Y32283D02*
X393701Y28740D01*
X371260Y32283D02*
X390158D01*
X370079Y33465D02*
X371260Y32283D01*
X366142Y33465D02*
X370079D01*
X374016Y42127D02*
X393700D01*
X369291Y37402D02*
X374016Y42127D01*
X366142Y37402D02*
X369291D01*
X300000Y-24409D02*
Y11811D01*
X299606Y-24803D02*
X300000Y-24409D01*
X299606Y-26378D02*
Y-24803D01*
X298031Y-23622D02*
Y10236D01*
X297244Y-24409D02*
X298031Y-23622D01*
X297244Y-29921D02*
Y-24409D01*
X301575Y-23622D02*
Y9843D01*
Y-23622D02*
X302756Y-24803D01*
Y-26378D02*
Y-24803D01*
X297244Y-29921D02*
X298819Y-31496D01*
X304596D01*
X277165Y-27953D02*
Y-9055D01*
X274016Y-31102D02*
X277165Y-27953D01*
X266929Y-31102D02*
X274016D01*
Y-8268D02*
X275590Y-9843D01*
Y-27165D02*
Y-9843D01*
X273228Y-29528D02*
X275590Y-27165D01*
X274803Y-6693D02*
X277165Y-9055D01*
X266142Y-29528D02*
X273228D01*
X283858Y24409D02*
X298031Y10236D01*
X306299Y-47244D02*
X325984D01*
X305512Y-46457D02*
X306299Y-47244D01*
X305512Y-46457D02*
Y-32412D01*
X304596Y-31496D02*
X305512Y-32412D01*
X316929Y-18110D02*
Y-6693D01*
X311024Y-787D02*
X316929Y-6693D01*
X307874Y-787D02*
X311024D01*
X305906Y1181D02*
X307874Y-787D01*
X305906Y1181D02*
Y10236D01*
X311811Y1181D02*
X318898Y-5906D01*
X308790Y1181D02*
X311811D01*
X307480Y2490D02*
X308790Y1181D01*
X307480Y2490D02*
Y9055D01*
X311417Y-42126D02*
Y-20079D01*
X316142Y-18898D02*
X316929Y-18110D01*
X312598Y-18898D02*
X316142D01*
X311417Y-20079D02*
X312598Y-18898D01*
X318898Y-19685D02*
Y-5906D01*
X318043Y-20540D02*
X318898Y-19685D01*
X314590Y-20540D02*
X318043D01*
X313386Y-21744D02*
X314590Y-20540D01*
X313386Y-34252D02*
Y-21744D01*
X204902Y-83642D02*
Y-78839D01*
Y-83642D02*
X205906Y-84646D01*
X224410D01*
X306693Y26378D02*
Y27559D01*
Y26378D02*
X311811Y21260D01*
X268504Y18898D02*
X281102D01*
X267323Y17717D02*
X268504Y18898D01*
X261024Y17717D02*
X267323D01*
X269685Y16535D02*
X283465D01*
X266929Y13780D02*
X269685Y16535D01*
X261024Y13780D02*
X266929D01*
X313386Y-34252D02*
X314567Y-35433D01*
X328346D01*
X329528Y-36614D01*
Y-69685D02*
Y-36614D01*
X300000Y11811D02*
X306693Y18504D01*
X308661D01*
X309449Y17717D01*
X301575Y9843D02*
X307087Y15354D01*
X265748Y-46850D02*
X266535Y-47638D01*
X265748Y-46850D02*
Y-32283D01*
X264173Y-46850D02*
Y-31496D01*
X263386Y-47638D02*
X264173Y-46850D01*
X325984Y-47244D02*
X327559Y-48819D01*
Y-84252D02*
Y-48819D01*
X312598Y-43307D02*
X322047D01*
X311417Y-42126D02*
X312598Y-43307D01*
X264173Y-31496D02*
X266142Y-29528D01*
X265748Y-32283D02*
X266929Y-31102D01*
X238976Y-43760D02*
X238976Y-43760D01*
Y-38583D01*
X234646Y-43760D02*
X234646Y-43760D01*
Y-38583D01*
X322441Y-20079D02*
Y-463D01*
X315285Y6693D02*
X322441Y-463D01*
X312598Y6693D02*
X315285D01*
X324016Y-16929D02*
Y787D01*
X315354Y9449D02*
X324016Y787D01*
X303150Y63779D02*
X303937Y62992D01*
Y57087D02*
Y62992D01*
Y57087D02*
X322835Y38189D01*
X303937Y68898D02*
Y79921D01*
X302756Y67716D02*
X303937Y68898D01*
X300394Y67716D02*
X302756D01*
X300394Y63779D02*
X303150D01*
X300787Y83071D02*
X303937Y79921D01*
Y89764D02*
X305906Y87795D01*
Y58661D02*
Y87795D01*
Y58661D02*
X332283Y32283D01*
X294882Y-103937D02*
Y-102362D01*
X294094Y-104724D02*
X294882Y-103937D01*
X289370Y-104724D02*
X294094D01*
X288277Y-103631D02*
X289370Y-104724D01*
X288277Y-103631D02*
Y-101091D01*
X286417Y-99231D02*
X288277Y-101091D01*
X286417Y-99231D02*
Y-96653D01*
X339764Y-74410D02*
Y-72047D01*
X338583Y-70866D02*
X339764Y-72047D01*
X330709Y-70866D02*
X338583D01*
X329528Y-69685D02*
X330709Y-70866D01*
X317717Y22047D02*
X342520D01*
X307480Y9055D02*
X318110Y19685D01*
X305906Y10236D02*
X317717Y22047D01*
X342520D02*
X343307Y22835D01*
X332283Y25197D02*
Y32283D01*
Y25197D02*
X333071Y24409D01*
X340158D01*
X311024Y27559D02*
X314272Y24311D01*
X327854D01*
X327953Y24409D01*
X329134Y-85827D02*
X335039D01*
X327559Y-84252D02*
X329134Y-85827D01*
X229134Y10236D02*
X229921Y9449D01*
X233858D01*
X225984Y6299D02*
X226772Y5512D01*
X222835Y2362D02*
X223622Y1575D01*
X233858D01*
X193701Y43701D02*
X218898D01*
X219685Y42913D01*
Y-1575D02*
Y42913D01*
Y-1575D02*
X220472Y-2362D01*
X193701Y25591D02*
X215354D01*
X216535Y24409D01*
Y-5512D02*
Y24409D01*
Y-5512D02*
X217323Y-6299D01*
X193701Y7480D02*
X212205D01*
X213386Y6299D01*
Y-9449D02*
Y6299D01*
Y-9449D02*
X214173Y-10236D01*
X193701Y-10630D02*
X209449D01*
X210213Y-11394D01*
Y-13386D02*
Y-11394D01*
Y-13386D02*
X211000Y-14173D01*
X233858D01*
X209449Y-28740D02*
X210236Y-27953D01*
X193701Y-28740D02*
X209449D01*
X281102Y9055D02*
X285433D01*
X286221Y8268D01*
X335039Y-58268D02*
X352362D01*
X332283Y-65354D02*
X352362D01*
X331890Y-64961D02*
X332283Y-65354D01*
X331890Y-64961D02*
Y-58268D01*
X344882Y83465D02*
Y86614D01*
X344094Y82677D02*
X344882Y83465D01*
X334646Y81890D02*
X335433Y82677D01*
X344094D01*
X341732Y86614D02*
Y88976D01*
X340945Y89764D02*
X341732Y88976D01*
X337795Y89764D02*
X340945D01*
X337008Y90551D02*
X337795Y89764D01*
X337008Y90551D02*
Y93307D01*
X261024Y5906D02*
X273622D01*
X274803Y7087D01*
X283465Y16535D02*
X285039Y18110D01*
X285827Y14173D02*
X287402Y15748D01*
X261024Y9843D02*
X262205Y11024D01*
X281102Y18898D02*
X282677Y20472D01*
X262205Y11024D02*
X271260D01*
X274410Y14173D01*
X285827D01*
X264961Y-18110D02*
X270472D01*
X262205Y-15354D02*
X264961Y-18110D01*
X250394Y-15354D02*
X262205D01*
X264567Y-22047D02*
X270472D01*
X261024Y-18504D02*
X264567Y-22047D01*
X250394Y-18504D02*
X261024D01*
X237795Y-68898D02*
Y-57480D01*
X236614Y-70079D02*
X237795Y-68898D01*
X244488Y-58268D02*
X245276Y-57480D01*
X242913Y-77559D02*
Y-58268D01*
X242126Y-57480D02*
X242913Y-58268D01*
X244488Y-78347D02*
Y-58268D01*
X239764Y-87795D02*
X240551Y-88583D01*
X239764Y-87795D02*
Y-83071D01*
X244488Y-78347D01*
X237402Y-88583D02*
X238189Y-87795D01*
Y-82284D01*
X242913Y-77559D01*
X322441Y-20079D02*
X323228Y-20866D01*
X326772D01*
X324016Y-16929D02*
X324803Y-17717D01*
X326772D01*
X254724Y-5512D02*
X255906Y-6693D01*
X278740Y22047D02*
Y23622D01*
X277953Y24409D02*
X278740Y23622D01*
X255906Y-6693D02*
X274803D01*
X255118Y-8268D02*
X274016D01*
X253150Y-6299D02*
X255118Y-8268D01*
X230315Y-76772D02*
Y-70866D01*
X231102Y-70079D01*
X236614D01*
X217323Y-6299D02*
X233858D01*
X306693Y42913D02*
X307874Y44094D01*
X305512Y42913D02*
X306693D01*
X290158Y58268D02*
X305512Y42913D01*
X290158Y58268D02*
Y77953D01*
X311811Y37008D02*
X313386Y38583D01*
X309055Y37008D02*
X311811D01*
X287008Y59055D02*
X309055Y37008D01*
X287008Y59055D02*
Y77953D01*
X283858Y59842D02*
Y77953D01*
X226772Y5512D02*
X236221D01*
X220472Y-2362D02*
X236221D01*
X214173Y-10236D02*
X236221D01*
X283858Y59842D02*
X310236Y33465D01*
X313779D01*
X316535Y36220D01*
X317717Y26378D02*
X320472D01*
X288386Y84055D02*
Y96850D01*
X283465Y87008D02*
Y96850D01*
X313779Y30315D02*
X317717Y26378D01*
X279528Y59055D02*
X308268Y30315D01*
X313779D01*
X276378Y57874D02*
X306693Y27559D01*
X280315Y83071D02*
X287402D01*
X279528Y82284D02*
X280315Y83071D01*
X279528Y59055D02*
Y82284D01*
X287402Y83071D02*
X288386Y84055D01*
X282677Y86221D02*
X283465Y87008D01*
X279528Y28346D02*
X285433Y34252D01*
X289764Y38583D01*
Y39764D01*
X271654Y57874D02*
X289764Y39764D01*
X276378Y57874D02*
Y83336D01*
X279262Y86221D01*
X282677D01*
X271654Y83465D02*
X278543Y90354D01*
Y96850D01*
X271654Y57874D02*
Y83465D01*
X318898Y31102D02*
X322835Y35039D01*
Y38189D01*
X293307Y83071D02*
X300787D01*
X334646Y51575D02*
Y81890D01*
Y51575D02*
X336221Y50000D01*
X248425Y-15354D02*
X250394D01*
X247244Y-14173D02*
X248425Y-15354D01*
X246457Y-18504D02*
X250394D01*
X245276Y-17323D02*
X246457Y-18504D01*
X288189Y11417D02*
X290158Y13386D01*
Y8661D02*
X292913Y11417D01*
X292126Y5906D02*
X295276Y9055D01*
X292126Y-23228D02*
Y5906D01*
X231890Y-65748D02*
Y-54724D01*
X233071Y-53543D01*
X275984D01*
X277165Y-52362D01*
Y-40551D01*
X344882Y50000D02*
X345669Y50787D01*
X344882Y46063D02*
Y50000D01*
X344094Y45276D02*
X344882Y46063D01*
X309055Y62205D02*
X313779D01*
X330709Y45276D01*
X344094D01*
X345669Y50787D02*
X362205D01*
X281890Y24409D02*
X283858D01*
X318110Y19685D02*
X321260D01*
X210236Y-27953D02*
Y-20079D01*
X212205Y-18110D01*
X236221D01*
X234252Y44094D02*
X235039Y43307D01*
X244488D01*
X245276Y42520D01*
Y-17323D02*
Y42520D01*
X236221Y46063D02*
X237008Y45276D01*
X246063D01*
X247244Y44094D01*
Y-14173D02*
Y44094D01*
X290158Y-26378D02*
Y8661D01*
X292126Y-23228D02*
X293307Y-24409D01*
Y-26378D02*
Y-24409D01*
X283858Y-26378D02*
Y-24803D01*
X286221Y-22441D01*
Y8268D01*
X287008Y-26378D02*
Y-24803D01*
X288189Y-23622D01*
Y11417D01*
X285433Y34252D02*
X288583Y31102D01*
X288976D01*
X233071Y75984D02*
X240158D01*
X232283Y75197D02*
X233071Y75984D01*
X229134Y79134D02*
X240158D01*
X228346Y70472D02*
X228346Y70473D01*
X233465Y59055D02*
X234252Y58268D01*
Y44094D02*
Y58268D01*
X234646Y60630D02*
X236221Y59055D01*
Y46063D02*
Y59055D01*
X228346Y75197D02*
Y78347D01*
X229134Y79134D01*
X263386Y38976D02*
X264567Y37795D01*
X263386Y38976D02*
Y92520D01*
D75*
X221260Y80709D02*
Y82284D01*
Y79134D02*
Y80709D01*
X221260Y80709D02*
X221260Y80709D01*
X214134Y80709D02*
X221260D01*
X221260Y87008D02*
Y90158D01*
X230709Y-96457D02*
X232283D01*
X229134D02*
X230709D01*
X232283Y70472D02*
Y75197D01*
X236221Y64961D02*
Y70472D01*
X240158Y64961D02*
Y70472D01*
X244094Y64961D02*
Y70472D01*
X228346Y70473D02*
Y75197D01*
D76*
X318110Y-27165D02*
X320079Y-25197D01*
X319685Y-39370D02*
X322441D01*
X307087Y-52362D02*
X309842D01*
X302756D02*
X307087D01*
X344094Y-87402D02*
X354331D01*
Y-107087D02*
X362205D01*
X273622Y96850D02*
Y103543D01*
Y106693D01*
X366535Y108268D02*
X366929D01*
X354331Y78740D02*
X356299Y80709D01*
X354331Y72835D02*
Y78740D01*
X352362Y70866D02*
X354331Y72835D01*
X341732Y70866D02*
X352362D01*
X339764Y68898D02*
X341732Y70866D01*
X339764Y63779D02*
Y66535D01*
Y68898D01*
X356299Y80709D02*
X365354D01*
X366929Y82284D01*
Y108268D01*
X283465Y103543D02*
Y106693D01*
X293307Y74803D02*
Y77953D01*
X363779Y108268D02*
X366535D01*
X301181Y-55709D02*
Y-53937D01*
X302756Y-52362D01*
X229429Y-33071D02*
X230315Y-33957D01*
Y-38583D02*
Y-34646D01*
Y-33957D01*
X230315Y-43760D02*
Y-38583D01*
X255512Y49213D02*
X255906D01*
X258268D01*
X255906D02*
Y92520D01*
Y96457D01*
D77*
X226378Y-80315D02*
Y-66535D01*
X230709Y-96457D02*
Y-81890D01*
X226378Y-80315D02*
X227165Y-81102D01*
X229921D01*
X230709Y-81890D01*
X217323Y-51181D02*
Y-43760D01*
X225984Y-49213D02*
Y-43760D01*
X285138Y-87008D02*
X286417Y-88287D01*
Y-96653D02*
Y-88287D01*
X291339Y-87697D02*
X292028Y-87008D01*
X291339Y-96653D02*
Y-87697D01*
X285433Y-105905D02*
Y-102362D01*
Y-105905D02*
X286614Y-107087D01*
X296457D01*
X297638Y-105905D01*
Y-100806D01*
X296260Y-99428D02*
X297638Y-100806D01*
X296260Y-99428D02*
Y-96653D01*
X291339Y-102362D02*
Y-96653D01*
X301181Y-102362D02*
Y-96653D01*
X228740Y-65748D02*
X231890D01*
X226378Y-66535D02*
X227165Y-65748D01*
X228740D01*
X286614Y-55512D02*
Y-50394D01*
X291339Y-55709D02*
Y-50394D01*
X217323Y-51181D02*
X218898Y-52756D01*
X222441D01*
X11809Y-11999D02*
X6561Y-15748D01*
Y-10125D01*
X11809Y-11999D02*
X3937D01*
D79*
X545276Y-62992D02*
D03*
Y49213D02*
D03*
X9843Y-25591D02*
D03*
Y25591D02*
D03*
Y108268D02*
D03*
Y-108268D02*
D03*
X541339D02*
D03*
Y108268D02*
D03*
D80*
X452756Y-78740D02*
D03*
Y78740D02*
D03*
X98425D02*
D03*
Y-78740D02*
D03*
D81*
X345472Y78740D02*
D03*
Y74803D02*
D03*
X339567D02*
D03*
Y78740D02*
D03*
X342520Y76772D02*
D03*
D82*
X516811Y-93740D02*
D03*
X506811D02*
D03*
X496811D02*
D03*
X526811D02*
D03*
Y-83740D02*
D03*
Y-73740D02*
D03*
Y-63740D02*
D03*
X516811D02*
D03*
X506811D02*
D03*
X496811D02*
D03*
Y-73740D02*
D03*
Y-83740D02*
D03*
X398701Y63740D02*
D03*
X388701D02*
D03*
X378701D02*
D03*
X408701D02*
D03*
Y73740D02*
D03*
Y83740D02*
D03*
Y93740D02*
D03*
X398701D02*
D03*
X388701D02*
D03*
X378701D02*
D03*
Y83740D02*
D03*
Y73740D02*
D03*
X398701Y-93740D02*
D03*
X388701D02*
D03*
X378701D02*
D03*
X408701D02*
D03*
Y-83740D02*
D03*
Y-73740D02*
D03*
Y-63740D02*
D03*
X398701D02*
D03*
X388701D02*
D03*
X378701D02*
D03*
Y-73740D02*
D03*
Y-83740D02*
D03*
X44370Y63740D02*
D03*
X34370D02*
D03*
X24370D02*
D03*
X54370D02*
D03*
Y73740D02*
D03*
Y83740D02*
D03*
Y93740D02*
D03*
X44370D02*
D03*
X34370D02*
D03*
X24370D02*
D03*
Y83740D02*
D03*
Y73740D02*
D03*
X44370Y-93740D02*
D03*
X34370D02*
D03*
X24370D02*
D03*
X54370D02*
D03*
Y-83740D02*
D03*
Y-73740D02*
D03*
Y-63740D02*
D03*
X44370D02*
D03*
X34370D02*
D03*
X24370D02*
D03*
Y-73740D02*
D03*
Y-83740D02*
D03*
X516811Y63740D02*
D03*
X506811D02*
D03*
X496811D02*
D03*
X526811D02*
D03*
Y73740D02*
D03*
Y83740D02*
D03*
Y93740D02*
D03*
X516811D02*
D03*
X506811D02*
D03*
X496811D02*
D03*
Y83740D02*
D03*
Y73740D02*
D03*
X354331Y-87402D02*
D03*
Y-107087D02*
D03*
D83*
X254232Y-110433D02*
D03*
X226083D02*
D03*
D84*
X53976Y49843D02*
D03*
Y-49843D02*
D03*
D85*
X338189Y-23228D02*
D03*
X231496Y55118D02*
D03*
X235039Y87795D02*
D03*
Y81496D02*
D03*
X224410Y93307D02*
D03*
X221260D02*
D03*
X224410Y75984D02*
D03*
X221260D02*
D03*
Y82284D02*
D03*
Y79134D02*
D03*
X208563Y72539D02*
D03*
X205413D02*
D03*
X208563Y90650D02*
D03*
X205413D02*
D03*
X291732Y35433D02*
D03*
X288189Y24803D02*
D03*
X250000Y21260D02*
D03*
X253937Y25591D02*
D03*
X267717Y66929D02*
D03*
X260236Y96063D02*
D03*
X230315Y102362D02*
D03*
X240158D02*
D03*
X241339Y56693D02*
D03*
X295276Y31890D02*
D03*
X291339Y28740D02*
D03*
X229921Y58268D02*
D03*
X211417Y57087D02*
D03*
Y60236D02*
D03*
X284646Y26772D02*
D03*
X261024Y30315D02*
D03*
Y34646D02*
D03*
X334646Y-51575D02*
D03*
X296063Y17717D02*
D03*
X264961Y-57874D02*
D03*
X506693Y45669D02*
D03*
X478346Y98425D02*
D03*
X490158Y108268D02*
D03*
X393701Y114173D02*
D03*
X295276Y-6299D02*
D03*
Y-9449D02*
D03*
X279528Y-9055D02*
D03*
X299606Y-26378D02*
D03*
X302756D02*
D03*
X295276Y-3150D02*
D03*
X261024Y1575D02*
D03*
X309842Y-6693D02*
D03*
X313386D02*
D03*
X253937Y-100394D02*
D03*
Y-104331D02*
D03*
X222441Y-56693D02*
D03*
X224803Y-62598D02*
D03*
X222441Y-88583D02*
D03*
X224410Y-84646D02*
D03*
X229134Y-96457D02*
D03*
X320079Y-25197D02*
D03*
X244882Y-34646D02*
D03*
X322441Y-39370D02*
D03*
X319685D02*
D03*
X300787Y16142D02*
D03*
X263386Y-47638D02*
D03*
X266535D02*
D03*
X249213Y-31102D02*
D03*
X309842Y-52362D02*
D03*
X307087D02*
D03*
X322047Y-43307D02*
D03*
X279134Y-64961D02*
D03*
X250394Y-22441D02*
D03*
Y-9843D02*
D03*
X222441Y-49213D02*
D03*
X230315Y-38583D02*
D03*
X226378D02*
D03*
X238976D02*
D03*
X234646D02*
D03*
X225984Y-49213D02*
D03*
X318898Y-787D02*
D03*
X222835Y-38189D02*
D03*
X300394Y67716D02*
D03*
Y63779D02*
D03*
X362205Y-107087D02*
D03*
X285433Y-102362D02*
D03*
X291339Y-112205D02*
D03*
X294882Y-102362D02*
D03*
X301181D02*
D03*
X291339D02*
D03*
X358661Y102362D02*
D03*
X356299Y84646D02*
D03*
X340158Y93307D02*
D03*
X258268Y39764D02*
D03*
Y43701D02*
D03*
X333071Y-16929D02*
D03*
X311811Y21260D02*
D03*
X318110Y-83465D02*
D03*
X332283Y18898D02*
D03*
X337008Y27953D02*
D03*
X352362Y22835D02*
D03*
X340158Y24409D02*
D03*
X327953D02*
D03*
X344094Y-87402D02*
D03*
X339764Y-74410D02*
D03*
X335039Y-85827D02*
D03*
X311024Y27559D02*
D03*
X309055Y68898D02*
D03*
X234252Y38976D02*
D03*
X250394Y-787D02*
D03*
Y2756D02*
D03*
X147638Y92520D02*
D03*
X157874D02*
D03*
Y100394D02*
D03*
X147638D02*
D03*
X152756Y92520D02*
D03*
X147638Y96457D02*
D03*
X152756D02*
D03*
X157874D02*
D03*
X152756Y100394D02*
D03*
X147638Y74409D02*
D03*
X157874D02*
D03*
Y82284D02*
D03*
X147638D02*
D03*
X152756Y74409D02*
D03*
X147638Y78347D02*
D03*
X152756D02*
D03*
X157874D02*
D03*
X152756Y82284D02*
D03*
X147638Y56299D02*
D03*
X157874D02*
D03*
Y64173D02*
D03*
X147638D02*
D03*
X152756Y56299D02*
D03*
X147638Y60236D02*
D03*
X152756D02*
D03*
X157874D02*
D03*
X152756Y64173D02*
D03*
X147638Y38189D02*
D03*
X157874D02*
D03*
Y46063D02*
D03*
X147638D02*
D03*
X152756Y38189D02*
D03*
X147638Y42126D02*
D03*
X152756D02*
D03*
X157874D02*
D03*
X152756Y46063D02*
D03*
X147638Y20079D02*
D03*
X157874D02*
D03*
Y27953D02*
D03*
X147638D02*
D03*
X152756Y20079D02*
D03*
X147638Y24016D02*
D03*
X152756D02*
D03*
X157874D02*
D03*
X152756Y27953D02*
D03*
X147638Y1969D02*
D03*
X157874D02*
D03*
Y9843D02*
D03*
X147638D02*
D03*
X152756Y1969D02*
D03*
X147638Y5906D02*
D03*
X152756D02*
D03*
X157874D02*
D03*
X152756Y9843D02*
D03*
X147638Y-16142D02*
D03*
X157874D02*
D03*
Y-8268D02*
D03*
X147638D02*
D03*
X152756Y-16142D02*
D03*
X147638Y-12205D02*
D03*
X152756D02*
D03*
X157874D02*
D03*
X152756Y-8268D02*
D03*
X147638Y-34252D02*
D03*
X157874D02*
D03*
Y-26378D02*
D03*
X147638D02*
D03*
X152756Y-34252D02*
D03*
X147638Y-30315D02*
D03*
X152756D02*
D03*
X157874D02*
D03*
X152756Y-26378D02*
D03*
X147638Y-52362D02*
D03*
X157874D02*
D03*
Y-44488D02*
D03*
X147638D02*
D03*
X152756Y-52362D02*
D03*
X147638Y-48425D02*
D03*
X152756D02*
D03*
X157874D02*
D03*
X152756Y-44488D02*
D03*
X147638Y-70473D02*
D03*
X157874D02*
D03*
Y-62598D02*
D03*
X147638D02*
D03*
X152756Y-70473D02*
D03*
X147638Y-66535D02*
D03*
X152756D02*
D03*
X157874D02*
D03*
X152756Y-62598D02*
D03*
X147638Y-88583D02*
D03*
X157874D02*
D03*
Y-80709D02*
D03*
X147638D02*
D03*
X152756Y-88583D02*
D03*
X147638Y-84646D02*
D03*
X152756D02*
D03*
X157874D02*
D03*
X152756Y-80709D02*
D03*
Y-98819D02*
D03*
X157874Y-102756D02*
D03*
X152756D02*
D03*
X147638D02*
D03*
X152756Y-106693D02*
D03*
X147638Y-98819D02*
D03*
X157874D02*
D03*
Y-106693D02*
D03*
X147638D02*
D03*
X208661Y-17323D02*
D03*
X323228Y-26378D02*
D03*
X281102Y-33465D02*
D03*
X292913Y11417D02*
D03*
X330315Y-26378D02*
D03*
X281102Y9055D02*
D03*
X338189Y-26378D02*
D03*
X290158Y13386D02*
D03*
X334252Y-26378D02*
D03*
X326378D02*
D03*
X295276Y9055D02*
D03*
X277559Y3937D02*
D03*
X278346Y0D02*
D03*
X277953Y9055D02*
D03*
X295276Y394D02*
D03*
X208563Y36319D02*
D03*
X205413D02*
D03*
X208563Y18209D02*
D03*
X205413D02*
D03*
X208563Y98D02*
D03*
X205413D02*
D03*
Y-18012D02*
D03*
X208563Y-36122D02*
D03*
X205413D02*
D03*
X208563Y-54232D02*
D03*
X205413D02*
D03*
X208563Y-72342D02*
D03*
X205413D02*
D03*
X208563Y-90453D02*
D03*
X205413D02*
D03*
X211417Y-102756D02*
D03*
Y-105905D02*
D03*
X353150Y-25197D02*
D03*
X308268Y-87008D02*
D03*
X304331D02*
D03*
X250787Y-51181D02*
D03*
X224410Y-104331D02*
D03*
Y-100394D02*
D03*
X232283Y-96457D02*
D03*
X338189Y-1181D02*
D03*
X309842Y-44488D02*
D03*
X318110Y-27165D02*
D03*
X270472Y-18110D02*
D03*
Y-22047D02*
D03*
X261024Y25984D02*
D03*
X270472D02*
D03*
X253937Y-61417D02*
D03*
X235039Y-104724D02*
D03*
X245276D02*
D03*
X246063Y-95669D02*
D03*
X248819Y-91732D02*
D03*
X243701Y-87008D02*
D03*
X235039Y-83858D02*
D03*
X237402Y-88583D02*
D03*
X240551D02*
D03*
X255906D02*
D03*
Y-80709D02*
D03*
X259842Y-84646D02*
D03*
X237795Y-57480D02*
D03*
X240158Y-73228D02*
D03*
X247244D02*
D03*
Y-66142D02*
D03*
X240158D02*
D03*
X250787Y-57480D02*
D03*
X245276D02*
D03*
X242126D02*
D03*
X307480Y89764D02*
D03*
Y99606D02*
D03*
Y96457D02*
D03*
Y93307D02*
D03*
X327559Y96457D02*
D03*
X318110D02*
D03*
Y108661D02*
D03*
X327559D02*
D03*
Y105512D02*
D03*
X318110D02*
D03*
X366535Y108268D02*
D03*
X381890Y106693D02*
D03*
Y109843D02*
D03*
X331890Y55118D02*
D03*
Y61024D02*
D03*
Y58268D02*
D03*
X364173Y55512D02*
D03*
Y58268D02*
D03*
Y61024D02*
D03*
Y64173D02*
D03*
Y68504D02*
D03*
Y72835D02*
D03*
X339764Y63779D02*
D03*
Y66535D02*
D03*
X343307Y65748D02*
D03*
X345276Y63779D02*
D03*
X214567Y-111417D02*
D03*
X211417D02*
D03*
X359842Y-35039D02*
D03*
X350000Y-35827D02*
D03*
Y-30315D02*
D03*
X353150Y-20866D02*
D03*
X350000Y-23622D02*
D03*
X333465Y-20079D02*
D03*
Y-10630D02*
D03*
Y-13780D02*
D03*
X348819Y-787D02*
D03*
Y13780D02*
D03*
X356299Y-36614D02*
D03*
X363386D02*
D03*
X330315Y-95276D02*
D03*
X336221Y-74410D02*
D03*
X324016Y-61811D02*
D03*
X352362Y-65354D02*
D03*
X331890Y-58268D02*
D03*
X335039D02*
D03*
X312992Y-100394D02*
D03*
X305118Y-112205D02*
D03*
X277559D02*
D03*
Y-102362D02*
D03*
X269685Y-100394D02*
D03*
X275197Y-77559D02*
D03*
X281102Y-74410D02*
D03*
X289370D02*
D03*
X285433Y-66929D02*
D03*
X315354Y-90158D02*
D03*
X308268Y-96457D02*
D03*
X280315Y-87008D02*
D03*
X366142Y-52756D02*
D03*
X348819Y-62205D02*
D03*
X352362Y-58268D02*
D03*
X367323Y-63779D02*
D03*
Y-66929D02*
D03*
X193701Y-101181D02*
D03*
Y-83071D02*
D03*
Y-64961D02*
D03*
Y-46850D02*
D03*
Y-28740D02*
D03*
Y-10630D02*
D03*
Y7480D02*
D03*
Y43701D02*
D03*
Y61811D02*
D03*
Y25591D02*
D03*
Y79921D02*
D03*
Y98032D02*
D03*
X293307Y74803D02*
D03*
X283465Y103543D02*
D03*
Y106693D02*
D03*
X273622Y103543D02*
D03*
Y106693D02*
D03*
X293307Y103543D02*
D03*
Y106693D02*
D03*
X270079Y91732D02*
D03*
Y87795D02*
D03*
X274016Y74803D02*
D03*
Y77953D02*
D03*
X293307D02*
D03*
X338583Y86614D02*
D03*
X336221Y50000D02*
D03*
X360236Y76772D02*
D03*
X353150Y61024D02*
D03*
Y55905D02*
D03*
X341732Y86614D02*
D03*
X344882D02*
D03*
X335827Y85039D02*
D03*
X330709Y76772D02*
D03*
X322835D02*
D03*
X315354D02*
D03*
X337008Y93307D02*
D03*
Y105512D02*
D03*
Y108661D02*
D03*
X350394Y82677D02*
D03*
X307874Y44094D02*
D03*
X313386Y38583D02*
D03*
X316535Y36220D02*
D03*
X328346Y32283D02*
D03*
X318898Y31102D02*
D03*
X323622Y26378D02*
D03*
X353150Y-16929D02*
D03*
X366142Y37402D02*
D03*
Y33465D02*
D03*
X359449Y-787D02*
D03*
X356299D02*
D03*
X359055Y14567D02*
D03*
X355118D02*
D03*
X270472Y13780D02*
D03*
Y-14567D02*
D03*
X261024Y13780D02*
D03*
Y5906D02*
D03*
Y9843D02*
D03*
Y17717D02*
D03*
X274803Y7087D02*
D03*
X287402Y15748D02*
D03*
X285039Y18110D02*
D03*
X282677Y20472D02*
D03*
X250394Y-15354D02*
D03*
Y-18504D02*
D03*
X277165Y-40551D02*
D03*
X324410Y12598D02*
D03*
X315354Y9449D02*
D03*
X312598Y6693D02*
D03*
X326772Y-17717D02*
D03*
Y-20866D02*
D03*
X275590Y22047D02*
D03*
X309449Y17717D02*
D03*
X307087Y15354D02*
D03*
X278740Y22047D02*
D03*
X271260Y1575D02*
D03*
X230315Y-76772D02*
D03*
X228740Y-65748D02*
D03*
X231890D02*
D03*
X234646Y-57480D02*
D03*
X303937Y89764D02*
D03*
Y93307D02*
D03*
X233858Y-22047D02*
D03*
Y-14173D02*
D03*
Y-6299D02*
D03*
Y1575D02*
D03*
Y9449D02*
D03*
X320472Y26378D02*
D03*
X290158Y77953D02*
D03*
X287008D02*
D03*
X283858D02*
D03*
X304331Y47638D02*
D03*
X236221Y5512D02*
D03*
Y-2362D02*
D03*
Y-10236D02*
D03*
Y-18110D02*
D03*
Y-25984D02*
D03*
X238583Y-22047D02*
D03*
Y-14173D02*
D03*
Y-6299D02*
D03*
Y1575D02*
D03*
Y9449D02*
D03*
X234646Y18504D02*
D03*
X285827Y87402D02*
D03*
X307087Y21654D02*
D03*
X293307Y83071D02*
D03*
X296457Y77953D02*
D03*
X293701Y65748D02*
D03*
X90551Y53150D02*
D03*
X84646D02*
D03*
X235039Y-51181D02*
D03*
X309055Y62205D02*
D03*
X314961Y56299D02*
D03*
X362205Y50787D02*
D03*
X281890Y24409D02*
D03*
X343307Y27165D02*
D03*
Y22835D02*
D03*
X279921Y-43701D02*
D03*
X290158D02*
D03*
X329528Y-1181D02*
D03*
X366142Y41339D02*
D03*
Y45669D02*
D03*
X323622Y44488D02*
D03*
X337795Y37402D02*
D03*
X322047Y10236D02*
D03*
X356299Y45276D02*
D03*
X363779Y108268D02*
D03*
X292913Y59449D02*
D03*
X304331Y-6693D02*
D03*
X286614Y-50394D02*
D03*
X291339D02*
D03*
X296063D02*
D03*
X305118Y-56299D02*
D03*
X255512Y49213D02*
D03*
X258268D02*
D03*
X234252Y29134D02*
D03*
X321260Y19685D02*
D03*
X222441Y-52756D02*
D03*
X255906Y96457D02*
D03*
Y92520D02*
D03*
X229921Y61417D02*
D03*
X283858Y-26378D02*
D03*
X287008D02*
D03*
X290158D02*
D03*
X293307D02*
D03*
X264567Y37795D02*
D03*
X288976Y31102D02*
D03*
X301181Y25591D02*
D03*
X240158Y79134D02*
D03*
X221260Y87008D02*
D03*
Y90158D02*
D03*
X240158Y75984D02*
D03*
X236221Y64961D02*
D03*
X240158D02*
D03*
X266535Y53543D02*
D03*
X270866Y49213D02*
D03*
X250000Y59055D02*
D03*
X259842D02*
D03*
X250000Y68898D02*
D03*
X229921Y64961D02*
D03*
X238976Y53150D02*
D03*
X263386Y92520D02*
D03*
X251575Y80709D02*
D03*
Y100394D02*
D03*
X240158Y83071D02*
D03*
X341732Y102362D02*
D03*
X310630Y41339D02*
D03*
D86*
X533071Y-51181D02*
D03*
X525197D02*
D03*
X517323D02*
D03*
X509449D02*
D03*
Y-43307D02*
D03*
Y-35433D02*
D03*
Y-27559D02*
D03*
Y-19685D02*
D03*
X534646Y25591D02*
D03*
Y17717D02*
D03*
Y9843D02*
D03*
Y1969D02*
D03*
Y-5906D02*
D03*
X518898Y25591D02*
D03*
Y17717D02*
D03*
Y9843D02*
D03*
Y1969D02*
D03*
Y-5906D02*
D03*
X526772D02*
D03*
Y1969D02*
D03*
Y9843D02*
D03*
Y17717D02*
D03*
Y25591D02*
D03*
X517323Y-19685D02*
D03*
Y-27559D02*
D03*
Y-35433D02*
D03*
Y-43307D02*
D03*
X525197Y-19685D02*
D03*
Y-27559D02*
D03*
Y-35433D02*
D03*
Y-43307D02*
D03*
X533071Y-19685D02*
D03*
Y-27559D02*
D03*
Y-35433D02*
D03*
Y-43307D02*
D03*
X511024Y-5906D02*
D03*
Y1969D02*
D03*
Y9843D02*
D03*
Y17717D02*
D03*
Y25591D02*
D03*
X503150Y-5906D02*
D03*
Y1969D02*
D03*
Y9843D02*
D03*
Y17717D02*
D03*
Y25591D02*
D03*
X372047Y-25591D02*
D03*
X379921D02*
D03*
X387795D02*
D03*
X395669D02*
D03*
X403543D02*
D03*
X411417D02*
D03*
X419291D02*
D03*
X427165D02*
D03*
X435039D02*
D03*
X442913D02*
D03*
X450787D02*
D03*
X372047Y-16929D02*
D03*
X379921D02*
D03*
X387795D02*
D03*
X395669D02*
D03*
X403543D02*
D03*
X411417D02*
D03*
X419291D02*
D03*
X427165D02*
D03*
X435039D02*
D03*
X442913D02*
D03*
X450787D02*
D03*
X372047Y-9055D02*
D03*
X379921D02*
D03*
X387795D02*
D03*
X395669D02*
D03*
X403543D02*
D03*
X411417D02*
D03*
X419291D02*
D03*
X427165D02*
D03*
X435039D02*
D03*
X442913D02*
D03*
X450787D02*
D03*
X372047Y-1181D02*
D03*
X379921D02*
D03*
X387795D02*
D03*
X395669D02*
D03*
X403543D02*
D03*
X411417D02*
D03*
X419291D02*
D03*
X427165D02*
D03*
X435039D02*
D03*
X442913D02*
D03*
X450787D02*
D03*
X372047Y6693D02*
D03*
X379921D02*
D03*
X387795D02*
D03*
X395669D02*
D03*
X403543D02*
D03*
X411417D02*
D03*
X419291D02*
D03*
X427165D02*
D03*
X435039D02*
D03*
X442913D02*
D03*
X450787D02*
D03*
X120079Y106299D02*
D03*
X494095Y27559D02*
D03*
X64173Y-112205D02*
D03*
Y-106299D02*
D03*
Y-100394D02*
D03*
Y100394D02*
D03*
Y106299D02*
D03*
Y112205D02*
D03*
X83858Y-57677D02*
D03*
X75197D02*
D03*
X83858Y57677D02*
D03*
X75197D02*
D03*
X366142Y-78740D02*
D03*
X356299D02*
D03*
X454331Y-31496D02*
D03*
X448819D02*
D03*
X442913D02*
D03*
X437008D02*
D03*
X431102D02*
D03*
X425197D02*
D03*
X413386D02*
D03*
X407480D02*
D03*
X401575D02*
D03*
X395669D02*
D03*
X389764D02*
D03*
X383858D02*
D03*
X377953D02*
D03*
X433071Y64961D02*
D03*
X421260D02*
D03*
X427165D02*
D03*
X101181Y112205D02*
D03*
X454724Y-55905D02*
D03*
X451968Y-59055D02*
D03*
X479921Y-51968D02*
D03*
X466535Y-43701D02*
D03*
X517717Y43307D02*
D03*
X513779D02*
D03*
X462598Y-43701D02*
D03*
X494095Y21654D02*
D03*
Y15748D02*
D03*
Y9843D02*
D03*
Y3937D02*
D03*
Y-1969D02*
D03*
Y-7874D02*
D03*
X470472Y-9843D02*
D03*
X478346D02*
D03*
X486221D02*
D03*
Y9843D02*
D03*
X478346D02*
D03*
X470472D02*
D03*
X464567Y-9843D02*
D03*
Y-3937D02*
D03*
Y1969D02*
D03*
Y7874D02*
D03*
X458661D02*
D03*
Y1969D02*
D03*
Y-3937D02*
D03*
Y-9843D02*
D03*
X458268Y17717D02*
D03*
X450787Y16929D02*
D03*
X442913D02*
D03*
X372795Y-31496D02*
D03*
X437008Y21654D02*
D03*
X435039Y16929D02*
D03*
X429134Y21654D02*
D03*
X427165Y16929D02*
D03*
X421260Y21654D02*
D03*
X419291Y16929D02*
D03*
X413386Y21654D02*
D03*
X411417Y16929D02*
D03*
X405512Y21654D02*
D03*
X403543Y16929D02*
D03*
X397638Y21654D02*
D03*
X395669Y16929D02*
D03*
X389764Y21654D02*
D03*
X387795Y16929D02*
D03*
X381890Y21654D02*
D03*
X379921Y16929D02*
D03*
X374016Y21654D02*
D03*
X372047Y16929D02*
D03*
X451575Y22835D02*
D03*
X482283Y-98425D02*
D03*
X478346D02*
D03*
X474409D02*
D03*
Y-86614D02*
D03*
X482283D02*
D03*
X478346D02*
D03*
X490158Y-41339D02*
D03*
Y-36220D02*
D03*
Y-31496D02*
D03*
X474409Y-51968D02*
D03*
X485433D02*
D03*
Y-36220D02*
D03*
X479921D02*
D03*
X474409D02*
D03*
Y-31496D02*
D03*
X485433D02*
D03*
X479921D02*
D03*
Y-41339D02*
D03*
X485433D02*
D03*
X474409D02*
D03*
X490158Y-51968D02*
D03*
Y-46457D02*
D03*
Y-26378D02*
D03*
X433071Y-67323D02*
D03*
X415354Y-78740D02*
D03*
Y-88583D02*
D03*
Y-98425D02*
D03*
X421260D02*
D03*
X433071D02*
D03*
X427165D02*
D03*
X433071Y-72835D02*
D03*
Y-78740D02*
D03*
Y-84646D02*
D03*
X421260D02*
D03*
Y-72835D02*
D03*
Y-78740D02*
D03*
X427165Y-84646D02*
D03*
Y-78740D02*
D03*
Y-72835D02*
D03*
Y-66535D02*
D03*
X421260Y-66929D02*
D03*
X433071Y-62992D02*
D03*
X425197Y-62205D02*
D03*
Y-55118D02*
D03*
X428740Y-58661D02*
D03*
X433071Y-55118D02*
D03*
X438976Y-62992D02*
D03*
X435039Y-47244D02*
D03*
Y-39370D02*
D03*
X438976Y-55118D02*
D03*
X446850Y-59055D02*
D03*
Y-55118D02*
D03*
X454724Y-47244D02*
D03*
Y-39370D02*
D03*
X407480Y-55118D02*
D03*
X397638D02*
D03*
X377953D02*
D03*
X387795D02*
D03*
Y-47244D02*
D03*
Y-39370D02*
D03*
X101181Y-112205D02*
D03*
Y-106299D02*
D03*
Y-100394D02*
D03*
X127165Y-98425D02*
D03*
X177756Y-94488D02*
D03*
X127165Y-80315D02*
D03*
X177756Y-76378D02*
D03*
X127165Y-62205D02*
D03*
X177756Y-58268D02*
D03*
X127165Y-44094D02*
D03*
X177756Y-40157D02*
D03*
X127165Y-25984D02*
D03*
X177756Y-22047D02*
D03*
X127165Y-7874D02*
D03*
X177756Y-3937D02*
D03*
X127165Y10236D02*
D03*
X177756Y14173D02*
D03*
X127165Y46457D02*
D03*
X177756Y50394D02*
D03*
X127165Y64567D02*
D03*
X177756Y68504D02*
D03*
X127165Y28346D02*
D03*
X177756Y32283D02*
D03*
X127165Y82677D02*
D03*
X177756Y86614D02*
D03*
X127165Y100787D02*
D03*
X177756Y104724D02*
D03*
X120079Y-105512D02*
D03*
X124803Y-70472D02*
D03*
Y-34252D02*
D03*
Y1969D02*
D03*
Y38189D02*
D03*
Y74410D02*
D03*
X413779Y49213D02*
D03*
Y53150D02*
D03*
X373622Y49213D02*
D03*
Y53150D02*
D03*
X378740D02*
D03*
Y49213D02*
D03*
X383858Y53150D02*
D03*
Y49213D02*
D03*
X388976Y53150D02*
D03*
Y49213D02*
D03*
X408661D02*
D03*
Y53150D02*
D03*
X403543Y49213D02*
D03*
Y53150D02*
D03*
X398425Y49213D02*
D03*
Y53150D02*
D03*
X393701Y49213D02*
D03*
Y53150D02*
D03*
X101181Y106299D02*
D03*
Y100394D02*
D03*
X83858Y17717D02*
D03*
Y-41339D02*
D03*
Y-29528D02*
D03*
Y-17717D02*
D03*
Y-5906D02*
D03*
Y5906D02*
D03*
Y29528D02*
D03*
X456693Y59055D02*
D03*
X484646Y64173D02*
D03*
X478346Y-114173D02*
D03*
X472441D02*
D03*
X484252D02*
D03*
X427165D02*
D03*
X433071D02*
D03*
X421260D02*
D03*
X464567Y-62992D02*
D03*
X338583Y-112205D02*
D03*
X388976Y-114173D02*
D03*
X420079Y-31496D02*
D03*
X414961Y-59055D02*
D03*
Y-64173D02*
D03*
Y-68898D02*
D03*
X501968Y-30709D02*
D03*
Y-35433D02*
D03*
Y-40157D02*
D03*
Y-45276D02*
D03*
Y-50394D02*
D03*
X420472Y37402D02*
D03*
X425197Y38976D02*
D03*
X421260Y51181D02*
D03*
X431102D02*
D03*
X442913Y40157D02*
D03*
X456299D02*
D03*
X496063Y-50394D02*
D03*
Y-45276D02*
D03*
Y-40157D02*
D03*
Y-35433D02*
D03*
Y-30709D02*
D03*
Y-25984D02*
D03*
X501968D02*
D03*
D87*
X225984Y-43760D02*
D03*
X221654D02*
D03*
X217323D02*
D03*
X212992D02*
D03*
X243307D02*
D03*
X238976D02*
D03*
X234646D02*
D03*
X230315D02*
D03*
D88*
X207480Y-43406D02*
D03*
D89*
X204902Y-78839D02*
D03*
D90*
X257283Y-43406D02*
D03*
D91*
X204902Y-49508D02*
D03*
D92*
X258465Y-102264D02*
D03*
X205315D02*
D03*
D93*
X216535Y70472D02*
D03*
X220472D02*
D03*
X224410D02*
D03*
X228346D02*
D03*
X232283D02*
D03*
X236221D02*
D03*
X240158D02*
D03*
X244094D02*
D03*
D94*
X246496Y76772D02*
D03*
Y80709D02*
D03*
Y84646D02*
D03*
Y88583D02*
D03*
Y92520D02*
D03*
Y96457D02*
D03*
Y100394D02*
D03*
Y104331D02*
D03*
X214134D02*
D03*
Y100394D02*
D03*
Y96457D02*
D03*
Y92520D02*
D03*
Y88583D02*
D03*
Y84646D02*
D03*
Y80709D02*
D03*
Y76772D02*
D03*
D95*
X245709Y112205D02*
D03*
X234252Y99409D02*
D03*
X214921Y112205D02*
D03*
X226378Y99409D02*
D03*
M02*
