G04 Layer_Color=8388736*
%FSLAX25Y25*%
%MOIN*%
G70*
G01*
G75*
%ADD74C,0.00787*%
%ADD75C,0.01575*%
%ADD108R,0.07296X0.08792*%
%ADD109R,0.04737X0.05131*%
%ADD110R,0.26391X0.24422*%
%ADD111R,0.12611X0.06312*%
G04:AMPARAMS|DCode=112|XSize=33mil|YSize=27.68mil|CornerRadius=0mil|HoleSize=0mil|Usage=FLASHONLY|Rotation=315.000|XOffset=0mil|YOffset=0mil|HoleType=Round|Shape=Rectangle|*
%AMROTATEDRECTD112*
4,1,4,-0.02145,0.00188,-0.00188,0.02145,0.02145,-0.00188,0.00188,-0.02145,-0.02145,0.00188,0.0*
%
%ADD112ROTATEDRECTD112*%

G04:AMPARAMS|DCode=113|XSize=33mil|YSize=27.68mil|CornerRadius=0mil|HoleSize=0mil|Usage=FLASHONLY|Rotation=45.000|XOffset=0mil|YOffset=0mil|HoleType=Round|Shape=Rectangle|*
%AMROTATEDRECTD113*
4,1,4,-0.00188,-0.02145,-0.02145,-0.00188,0.00188,0.02145,0.02145,0.00188,-0.00188,-0.02145,0.0*
%
%ADD113ROTATEDRECTD113*%

%ADD114R,0.02768X0.03300*%
%ADD115R,0.06312X0.05131*%
%ADD116R,0.03300X0.02768*%
%ADD117R,0.05131X0.04737*%
%ADD118R,0.05131X0.06312*%
%ADD119R,0.07099X0.07887*%
%ADD120R,0.04737X0.04737*%
%ADD121O,0.03202X0.06784*%
%ADD122R,0.03202X0.06784*%
%ADD123R,0.06706X0.05131*%
%ADD124R,0.04147X0.04147*%
%ADD125R,0.15367X0.05918*%
%ADD126R,0.35839X0.41351*%
%ADD127R,0.09855X0.06784*%
%ADD128P,0.05864X4X360.0*%
%ADD129R,0.04147X0.04147*%
%ADD130R,0.05524X0.05524*%
%ADD131R,0.04147X0.03359*%
%ADD132R,0.04737X0.01587*%
G04:AMPARAMS|DCode=133|XSize=20.6mil|YSize=47.37mil|CornerRadius=0mil|HoleSize=0mil|Usage=FLASHONLY|Rotation=315.000|XOffset=0mil|YOffset=0mil|HoleType=Round|Shape=Rectangle|*
%AMROTATEDRECTD133*
4,1,4,-0.02403,-0.00946,0.00946,0.02403,0.02403,0.00946,-0.00946,-0.02403,-0.02403,-0.00946,0.0*
%
%ADD133ROTATEDRECTD133*%

G04:AMPARAMS|DCode=134|XSize=20.6mil|YSize=47.37mil|CornerRadius=0mil|HoleSize=0mil|Usage=FLASHONLY|Rotation=45.000|XOffset=0mil|YOffset=0mil|HoleType=Round|Shape=Rectangle|*
%AMROTATEDRECTD134*
4,1,4,0.00946,-0.02403,-0.02403,0.00946,-0.00946,0.02403,0.02403,-0.00946,0.00946,-0.02403,0.0*
%
%ADD134ROTATEDRECTD134*%

%ADD135R,0.03556X0.01902*%
%ADD136R,0.10249X0.07296*%
G04:AMPARAMS|DCode=137|XSize=17.06mil|YSize=39.5mil|CornerRadius=5.81mil|HoleSize=0mil|Usage=FLASHONLY|Rotation=180.000|XOffset=0mil|YOffset=0mil|HoleType=Round|Shape=RoundedRectangle|*
%AMROUNDEDRECTD137*
21,1,0.01706,0.02787,0,0,180.0*
21,1,0.00543,0.03950,0,0,180.0*
1,1,0.01162,-0.00272,0.01394*
1,1,0.01162,0.00272,0.01394*
1,1,0.01162,0.00272,-0.01394*
1,1,0.01162,-0.00272,-0.01394*
%
%ADD137ROUNDEDRECTD137*%
%ADD138O,0.05524X0.10642*%
%ADD139R,0.05524X0.10642*%
%ADD140R,0.03753X0.01981*%
%ADD141R,0.01981X0.03753*%
%ADD142R,0.11036X0.11036*%
%ADD143R,0.06312X0.01981*%
G04:AMPARAMS|DCode=144|XSize=70.99mil|YSize=21.78mil|CornerRadius=7.45mil|HoleSize=0mil|Usage=FLASHONLY|Rotation=270.000|XOffset=0mil|YOffset=0mil|HoleType=Round|Shape=RoundedRectangle|*
%AMROUNDEDRECTD144*
21,1,0.07099,0.00689,0,0,270.0*
21,1,0.05610,0.02178,0,0,270.0*
1,1,0.01489,-0.00344,-0.02805*
1,1,0.01489,-0.00344,0.02805*
1,1,0.01489,0.00344,0.02805*
1,1,0.01489,0.00344,-0.02805*
%
%ADD144ROUNDEDRECTD144*%
%ADD145R,0.02178X0.07099*%
%ADD146R,0.05328X0.06509*%
%ADD147R,0.02375X0.06312*%
%ADD148R,0.07690X0.08280*%
%ADD149R,0.09068X0.12611*%
%ADD150R,0.03950X0.07099*%
%ADD151R,0.12296X0.05800*%
%ADD152R,0.03950X0.05918*%
%ADD153R,0.21666X0.04540*%
%ADD154R,0.18910X0.04343*%
%ADD155R,0.40170X0.43320*%
%ADD156R,0.04343X0.18910*%
%ADD157R,0.43320X0.40170*%
%ADD158R,0.04540X0.04343*%
%ADD159R,0.04540X0.04343*%
%ADD160R,0.04343X0.04540*%
%ADD161R,0.04343X0.04540*%
%ADD162R,0.06312X0.14579*%
%ADD163R,0.44894X0.08871*%
%ADD164R,0.13398X0.10642*%
%ADD165R,0.05131X0.06706*%
%ADD166O,0.05721X0.01784*%
%ADD167R,0.05721X0.01784*%
G04:AMPARAMS|DCode=168|XSize=74mil|YSize=89mil|CornerRadius=0mil|HoleSize=0mil|Usage=FLASHONLY|Rotation=225.000|XOffset=0mil|YOffset=0mil|HoleType=Round|Shape=Rectangle|*
%AMROTATEDRECTD168*
4,1,4,-0.00530,0.05763,0.05763,-0.00530,0.00530,-0.05763,-0.05763,0.00530,-0.00530,0.05763,0.0*
%
%ADD168ROTATEDRECTD168*%

%ADD169C,0.04737*%
%ADD170C,0.28359*%
%ADD171C,0.02768*%
%ADD172C,0.00800*%
%ADD173C,0.08674*%
%ADD174C,0.08280*%
%ADD175C,0.14579*%
G36*
X333320Y74216D02*
X333371Y74206D01*
X333421Y74189D01*
X333468Y74166D01*
X333512Y74137D01*
X333551Y74102D01*
X333586Y74063D01*
X333615Y74019D01*
X333638Y73972D01*
X333655Y73923D01*
X333665Y73871D01*
X333669Y73819D01*
Y69685D01*
X333665Y69633D01*
X333655Y69581D01*
X333638Y69532D01*
X333615Y69485D01*
X333586Y69441D01*
X333551Y69402D01*
X333512Y69367D01*
X333468Y69338D01*
X333421Y69315D01*
X333371Y69298D01*
X333320Y69288D01*
X333268Y69284D01*
X312402D01*
X312349Y69288D01*
X312298Y69298D01*
X312248Y69315D01*
X312201Y69338D01*
X312158Y69367D01*
X312118Y69402D01*
X312084Y69441D01*
X312054Y69485D01*
X312031Y69532D01*
X312014Y69581D01*
X312004Y69633D01*
X312001Y69685D01*
Y73819D01*
X312004Y73871D01*
X312014Y73923D01*
X312031Y73972D01*
X312054Y74019D01*
X312084Y74063D01*
X312118Y74102D01*
X312158Y74137D01*
X312201Y74166D01*
X312248Y74189D01*
X312298Y74206D01*
X312349Y74216D01*
X312402Y74220D01*
X316339D01*
X316351Y74219D01*
X316363Y74219D01*
X316377Y74217D01*
X316391Y74216D01*
X316403Y74214D01*
X316415Y74212D01*
X316428Y74209D01*
X316442Y74206D01*
X316454Y74202D01*
X316465Y74199D01*
X316478Y74194D01*
X316492Y74189D01*
X316503Y74184D01*
X316514Y74179D01*
X316526Y74172D01*
X316539Y74166D01*
X316549Y74159D01*
X316560Y74153D01*
X316571Y74145D01*
X316583Y74137D01*
X316592Y74129D01*
X316601Y74122D01*
X316611Y74112D01*
X316622Y74102D01*
X316630Y74093D01*
X316638Y74085D01*
X316647Y74074D01*
X316657Y74063D01*
X316663Y74053D01*
X316671Y74043D01*
X316678Y74031D01*
X316686Y74019D01*
X316691Y74009D01*
X316697Y73998D01*
X316887Y73618D01*
X317444Y72689D01*
X318570Y71564D01*
X319306Y71012D01*
X320415Y70457D01*
X321134Y70277D01*
X322832Y70089D01*
X324336Y70277D01*
X325057Y70457D01*
X325411Y70634D01*
X326560Y71209D01*
X327296Y71760D01*
X327846Y72311D01*
X328407Y73059D01*
X328987Y74025D01*
X329000Y74044D01*
X329013Y74063D01*
X329015Y74066D01*
X329017Y74068D01*
X329032Y74085D01*
X329047Y74102D01*
X329050Y74105D01*
X329052Y74107D01*
X329070Y74122D01*
X329087Y74137D01*
X329089Y74139D01*
X329092Y74141D01*
X329111Y74153D01*
X329130Y74166D01*
X329133Y74168D01*
X329136Y74169D01*
X329156Y74179D01*
X329177Y74189D01*
X329181Y74190D01*
X329184Y74192D01*
X329205Y74199D01*
X329227Y74206D01*
X329230Y74207D01*
X329234Y74208D01*
X329256Y74212D01*
X329278Y74216D01*
X329282Y74217D01*
X329285Y74217D01*
X329308Y74218D01*
X329331Y74220D01*
X333268D01*
X333320Y74216D01*
D02*
G37*
G36*
Y84256D02*
X333371Y84246D01*
X333421Y84229D01*
X333468Y84205D01*
X333512Y84176D01*
X333551Y84142D01*
X333586Y84102D01*
X333615Y84059D01*
X333638Y84012D01*
X333655Y83962D01*
X333665Y83911D01*
X333669Y83858D01*
Y79724D01*
X333665Y79672D01*
X333655Y79621D01*
X333638Y79571D01*
X333615Y79524D01*
X333586Y79480D01*
X333551Y79441D01*
X333512Y79406D01*
X333468Y79377D01*
X333421Y79354D01*
X333371Y79337D01*
X333320Y79327D01*
X333268Y79324D01*
X329331D01*
X329308Y79325D01*
X329285Y79326D01*
X329282Y79327D01*
X329278Y79327D01*
X329256Y79331D01*
X329234Y79335D01*
X329230Y79337D01*
X329227Y79337D01*
X329205Y79345D01*
X329184Y79352D01*
X329181Y79353D01*
X329177Y79354D01*
X329156Y79364D01*
X329136Y79374D01*
X329133Y79376D01*
X329130Y79377D01*
X329111Y79390D01*
X329092Y79402D01*
X329089Y79404D01*
X329087Y79406D01*
X329070Y79421D01*
X329052Y79436D01*
X329050Y79439D01*
X329047Y79441D01*
X329032Y79458D01*
X329017Y79475D01*
X329015Y79478D01*
X329013Y79480D01*
X329000Y79500D01*
X328987Y79518D01*
X328407Y80485D01*
X327846Y81233D01*
X326910Y82169D01*
X326373Y82527D01*
X325254Y83086D01*
X324535Y83266D01*
X322835Y83455D01*
X321149Y83268D01*
X320036Y82896D01*
X319681Y82719D01*
X318753Y82162D01*
X317438Y80847D01*
X317080Y80310D01*
X316697Y79545D01*
X316691Y79535D01*
X316686Y79524D01*
X316678Y79512D01*
X316671Y79500D01*
X316663Y79490D01*
X316657Y79480D01*
X316647Y79470D01*
X316638Y79458D01*
X316630Y79450D01*
X316622Y79441D01*
X316611Y79432D01*
X316601Y79422D01*
X316592Y79414D01*
X316583Y79406D01*
X316571Y79399D01*
X316560Y79390D01*
X316549Y79384D01*
X316539Y79377D01*
X316526Y79371D01*
X316514Y79364D01*
X316503Y79359D01*
X316492Y79354D01*
X316478Y79349D01*
X316465Y79344D01*
X316454Y79341D01*
X316442Y79337D01*
X316428Y79334D01*
X316415Y79331D01*
X316403Y79329D01*
X316391Y79327D01*
X316377Y79326D01*
X316363Y79324D01*
X316351Y79324D01*
X316339Y79324D01*
X312402D01*
X312349Y79327D01*
X312298Y79337D01*
X312248Y79354D01*
X312201Y79377D01*
X312158Y79406D01*
X312118Y79441D01*
X312084Y79480D01*
X312054Y79524D01*
X312031Y79571D01*
X312014Y79621D01*
X312004Y79672D01*
X312001Y79724D01*
Y83858D01*
X312004Y83911D01*
X312014Y83962D01*
X312031Y84012D01*
X312054Y84059D01*
X312084Y84102D01*
X312118Y84142D01*
X312158Y84176D01*
X312201Y84205D01*
X312248Y84229D01*
X312298Y84246D01*
X312349Y84256D01*
X312402Y84259D01*
X333268D01*
X333320Y84256D01*
D02*
G37*
D74*
X22084Y43026D02*
X22384Y43176D01*
X22684Y43476D01*
X22834Y43776D01*
Y44376D01*
X22684Y44676D01*
X22384Y44976D01*
X22084Y45126D01*
X21634Y45276D01*
X20885D01*
X20435Y45126D01*
X20135Y44976D01*
X19835Y44676D01*
X19685Y44376D01*
Y43776D01*
X19835Y43476D01*
X20135Y43176D01*
X20435Y43026D01*
X20885D01*
Y43776D02*
Y43026D01*
X22834Y42307D02*
X19685D01*
X22834D02*
X19685Y40207D01*
X22834D02*
X19685D01*
X22834Y39338D02*
X19685D01*
X22834D02*
Y38288D01*
X22684Y37838D01*
X22384Y37538D01*
X22084Y37388D01*
X21634Y37238D01*
X20885D01*
X20435Y37388D01*
X20135Y37538D01*
X19835Y37838D01*
X19685Y38288D01*
Y39338D01*
X30708Y42257D02*
X27559D01*
X30708Y43307D02*
Y41208D01*
X29958Y40683D02*
X30108D01*
X30408Y40533D01*
X30558Y40383D01*
X30708Y40083D01*
Y39483D01*
X30558Y39184D01*
X30408Y39033D01*
X30108Y38884D01*
X29808D01*
X29508Y39033D01*
X29059Y39333D01*
X27559Y40833D01*
Y38734D01*
X30708Y30446D02*
X27559D01*
X30708Y31496D02*
Y29397D01*
X30108Y29022D02*
X30258Y28722D01*
X30708Y28272D01*
X27559D01*
X22084Y31215D02*
X22384Y31365D01*
X22684Y31665D01*
X22834Y31965D01*
Y32565D01*
X22684Y32865D01*
X22384Y33165D01*
X22084Y33315D01*
X21634Y33465D01*
X20885D01*
X20435Y33315D01*
X20135Y33165D01*
X19835Y32865D01*
X19685Y32565D01*
Y31965D01*
X19835Y31665D01*
X20135Y31365D01*
X20435Y31215D01*
X22234Y30331D02*
X22384Y30031D01*
X22834Y29581D01*
X19685D01*
X22084Y27872D02*
X22234D01*
X22534Y27722D01*
X22684Y27572D01*
X22834Y27272D01*
Y26672D01*
X22684Y26372D01*
X22534Y26222D01*
X22234Y26072D01*
X21934D01*
X21634Y26222D01*
X21184Y26522D01*
X19685Y28021D01*
Y25922D01*
X22084Y-39651D02*
X22384Y-39501D01*
X22684Y-39201D01*
X22834Y-38901D01*
Y-38301D01*
X22684Y-38001D01*
X22384Y-37701D01*
X22084Y-37552D01*
X21634Y-37402D01*
X20885D01*
X20435Y-37552D01*
X20135Y-37701D01*
X19835Y-38001D01*
X19685Y-38301D01*
Y-38901D01*
X19835Y-39201D01*
X20135Y-39501D01*
X20435Y-39651D01*
X20885D01*
Y-38901D02*
Y-39651D01*
X22834Y-40371D02*
X19685D01*
X22834D02*
X19685Y-42470D01*
X22834D02*
X19685D01*
X22834Y-43340D02*
X19685D01*
X22834D02*
Y-44389D01*
X22684Y-44839D01*
X22384Y-45139D01*
X22084Y-45289D01*
X21634Y-45439D01*
X20885D01*
X20435Y-45289D01*
X20135Y-45139D01*
X19835Y-44839D01*
X19685Y-44389D01*
Y-43340D01*
X29958Y-41619D02*
X30258Y-41469D01*
X30558Y-41170D01*
X30708Y-40870D01*
Y-40270D01*
X30558Y-39970D01*
X30258Y-39670D01*
X29958Y-39520D01*
X29508Y-39370D01*
X28759D01*
X28309Y-39520D01*
X28009Y-39670D01*
X27709Y-39970D01*
X27559Y-40270D01*
Y-40870D01*
X27709Y-41170D01*
X28009Y-41469D01*
X28309Y-41619D01*
X30108Y-42504D02*
X30258Y-42804D01*
X30708Y-43254D01*
X27559D01*
X22084Y-29021D02*
X22384Y-28871D01*
X22684Y-28571D01*
X22834Y-28271D01*
Y-27671D01*
X22684Y-27371D01*
X22384Y-27072D01*
X22084Y-26922D01*
X21634Y-26772D01*
X20885D01*
X20435Y-26922D01*
X20135Y-27072D01*
X19835Y-27371D01*
X19685Y-27671D01*
Y-28271D01*
X19835Y-28571D01*
X20135Y-28871D01*
X20435Y-29021D01*
X22084Y-30055D02*
X22234D01*
X22534Y-30206D01*
X22684Y-30355D01*
X22834Y-30655D01*
Y-31255D01*
X22684Y-31555D01*
X22534Y-31705D01*
X22234Y-31855D01*
X21934D01*
X21634Y-31705D01*
X21184Y-31405D01*
X19685Y-29906D01*
Y-32005D01*
X29958Y-29021D02*
X30258Y-28871D01*
X30558Y-28571D01*
X30708Y-28271D01*
Y-27671D01*
X30558Y-27371D01*
X30258Y-27072D01*
X29958Y-26922D01*
X29508Y-26772D01*
X28759D01*
X28309Y-26922D01*
X28009Y-27072D01*
X27709Y-27371D01*
X27559Y-27671D01*
Y-28271D01*
X27709Y-28571D01*
X28009Y-28871D01*
X28309Y-29021D01*
X30708Y-30206D02*
Y-31855D01*
X29508Y-30955D01*
Y-31405D01*
X29358Y-31705D01*
X29208Y-31855D01*
X28759Y-32005D01*
X28459D01*
X28009Y-31855D01*
X27709Y-31555D01*
X27559Y-31105D01*
Y-30655D01*
X27709Y-30206D01*
X27859Y-30055D01*
X28159Y-29906D01*
X22084Y-17604D02*
X22384Y-17454D01*
X22684Y-17154D01*
X22834Y-16854D01*
Y-16254D01*
X22684Y-15954D01*
X22384Y-15654D01*
X22084Y-15504D01*
X21634Y-15354D01*
X20885D01*
X20435Y-15504D01*
X20135Y-15654D01*
X19835Y-15954D01*
X19685Y-16254D01*
Y-16854D01*
X19835Y-17154D01*
X20135Y-17454D01*
X20435Y-17604D01*
X22834Y-19988D02*
X20735Y-18488D01*
Y-20738D01*
X22834Y-19988D02*
X19685D01*
X29958Y-17604D02*
X30258Y-17454D01*
X30558Y-17154D01*
X30708Y-16854D01*
Y-16254D01*
X30558Y-15954D01*
X30258Y-15654D01*
X29958Y-15504D01*
X29508Y-15354D01*
X28759D01*
X28309Y-15504D01*
X28009Y-15654D01*
X27709Y-15954D01*
X27559Y-16254D01*
Y-16854D01*
X27709Y-17154D01*
X28009Y-17454D01*
X28309Y-17604D01*
X30708Y-20288D02*
Y-18788D01*
X29358Y-18638D01*
X29508Y-18788D01*
X29658Y-19238D01*
Y-19688D01*
X29508Y-20138D01*
X29208Y-20438D01*
X28759Y-20588D01*
X28459D01*
X28009Y-20438D01*
X27709Y-20138D01*
X27559Y-19688D01*
Y-19238D01*
X27709Y-18788D01*
X27859Y-18638D01*
X28159Y-18488D01*
X22084Y-5793D02*
X22384Y-5643D01*
X22684Y-5343D01*
X22834Y-5043D01*
Y-4443D01*
X22684Y-4143D01*
X22384Y-3843D01*
X22084Y-3693D01*
X21634Y-3543D01*
X20885D01*
X20435Y-3693D01*
X20135Y-3843D01*
X19835Y-4143D01*
X19685Y-4443D01*
Y-5043D01*
X19835Y-5343D01*
X20135Y-5643D01*
X20435Y-5793D01*
X22384Y-8477D02*
X22684Y-8327D01*
X22834Y-7877D01*
Y-7577D01*
X22684Y-7127D01*
X22234Y-6827D01*
X21484Y-6677D01*
X20735D01*
X20135Y-6827D01*
X19835Y-7127D01*
X19685Y-7577D01*
Y-7727D01*
X19835Y-8177D01*
X20135Y-8477D01*
X20585Y-8627D01*
X20735D01*
X21184Y-8477D01*
X21484Y-8177D01*
X21634Y-7727D01*
Y-7577D01*
X21484Y-7127D01*
X21184Y-6827D01*
X20735Y-6677D01*
X29958Y-5793D02*
X30258Y-5643D01*
X30558Y-5343D01*
X30708Y-5043D01*
Y-4443D01*
X30558Y-4143D01*
X30258Y-3843D01*
X29958Y-3693D01*
X29508Y-3543D01*
X28759D01*
X28309Y-3693D01*
X28009Y-3843D01*
X27709Y-4143D01*
X27559Y-4443D01*
Y-5043D01*
X27709Y-5343D01*
X28009Y-5643D01*
X28309Y-5793D01*
X30708Y-8777D02*
X27559Y-7277D01*
X30708Y-6677D02*
Y-8777D01*
X22084Y6019D02*
X22384Y6168D01*
X22684Y6468D01*
X22834Y6768D01*
Y7368D01*
X22684Y7668D01*
X22384Y7968D01*
X22084Y8118D01*
X21634Y8268D01*
X20885D01*
X20435Y8118D01*
X20135Y7968D01*
X19835Y7668D01*
X19685Y7368D01*
Y6768D01*
X19835Y6468D01*
X20135Y6168D01*
X20435Y6019D01*
X22834Y4384D02*
X22684Y4834D01*
X22384Y4984D01*
X22084D01*
X21784Y4834D01*
X21634Y4534D01*
X21484Y3934D01*
X21335Y3484D01*
X21035Y3184D01*
X20735Y3035D01*
X20285D01*
X19985Y3184D01*
X19835Y3334D01*
X19685Y3784D01*
Y4384D01*
X19835Y4834D01*
X19985Y4984D01*
X20285Y5134D01*
X20735D01*
X21035Y4984D01*
X21335Y4684D01*
X21484Y4234D01*
X21634Y3634D01*
X21784Y3334D01*
X22084Y3184D01*
X22384D01*
X22684Y3334D01*
X22834Y3784D01*
Y4384D01*
X29958Y6019D02*
X30258Y6168D01*
X30558Y6468D01*
X30708Y6768D01*
Y7368D01*
X30558Y7668D01*
X30258Y7968D01*
X29958Y8118D01*
X29508Y8268D01*
X28759D01*
X28309Y8118D01*
X28009Y7968D01*
X27709Y7668D01*
X27559Y7368D01*
Y6768D01*
X27709Y6468D01*
X28009Y6168D01*
X28309Y6019D01*
X29658Y3184D02*
X29208Y3334D01*
X28909Y3634D01*
X28759Y4084D01*
Y4234D01*
X28909Y4684D01*
X29208Y4984D01*
X29658Y5134D01*
X29808D01*
X30258Y4984D01*
X30558Y4684D01*
X30708Y4234D01*
Y4084D01*
X30558Y3634D01*
X30258Y3334D01*
X29658Y3184D01*
X28909D01*
X28159Y3334D01*
X27709Y3634D01*
X27559Y4084D01*
Y4384D01*
X27709Y4834D01*
X28009Y4984D01*
X22084Y19404D02*
X22384Y19554D01*
X22684Y19854D01*
X22834Y20154D01*
Y20754D01*
X22684Y21054D01*
X22384Y21354D01*
X22084Y21504D01*
X21634Y21654D01*
X20885D01*
X20435Y21504D01*
X20135Y21354D01*
X19835Y21054D01*
X19685Y20754D01*
Y20154D01*
X19835Y19854D01*
X20135Y19554D01*
X20435Y19404D01*
X22234Y18520D02*
X22384Y18220D01*
X22834Y17770D01*
X19685D01*
X22834Y15311D02*
X22684Y15761D01*
X22234Y16060D01*
X21484Y16210D01*
X21035D01*
X20285Y16060D01*
X19835Y15761D01*
X19685Y15311D01*
Y15011D01*
X19835Y14561D01*
X20285Y14261D01*
X21035Y14111D01*
X21484D01*
X22234Y14261D01*
X22684Y14561D01*
X22834Y15011D01*
Y15311D01*
X29958Y19011D02*
X30258Y19161D01*
X30558Y19460D01*
X30708Y19760D01*
Y20360D01*
X30558Y20660D01*
X30258Y20960D01*
X29958Y21110D01*
X29508Y21260D01*
X28759D01*
X28309Y21110D01*
X28009Y20960D01*
X27709Y20660D01*
X27559Y20360D01*
Y19760D01*
X27709Y19460D01*
X28009Y19161D01*
X28309Y19011D01*
X30108Y18126D02*
X30258Y17826D01*
X30708Y17376D01*
X27559D01*
X30108Y15817D02*
X30258Y15517D01*
X30708Y15067D01*
X27559D01*
X440158Y-95276D02*
Y-99213D01*
X442782Y-95276D02*
Y-99213D01*
X440158Y-97151D02*
X442782D01*
X446118Y-96588D02*
Y-99213D01*
Y-97151D02*
X445743Y-96776D01*
X445368Y-96588D01*
X444806D01*
X444431Y-96776D01*
X444056Y-97151D01*
X443869Y-97713D01*
Y-98088D01*
X444056Y-98650D01*
X444431Y-99025D01*
X444806Y-99213D01*
X445368D01*
X445743Y-99025D01*
X446118Y-98650D01*
X447168Y-96588D02*
Y-99213D01*
Y-97713D02*
X447355Y-97151D01*
X447730Y-96776D01*
X448105Y-96588D01*
X448667D01*
X451272Y-95276D02*
Y-99213D01*
Y-97151D02*
X450898Y-96776D01*
X450523Y-96588D01*
X449960D01*
X449585Y-96776D01*
X449211Y-97151D01*
X449023Y-97713D01*
Y-98088D01*
X449211Y-98650D01*
X449585Y-99025D01*
X449960Y-99213D01*
X450523D01*
X450898Y-99025D01*
X451272Y-98650D01*
X452322Y-96588D02*
X453072Y-99213D01*
X453822Y-96588D02*
X453072Y-99213D01*
X453822Y-96588D02*
X454571Y-99213D01*
X455321Y-96588D02*
X454571Y-99213D01*
X458489Y-96588D02*
Y-99213D01*
Y-97151D02*
X458114Y-96776D01*
X457739Y-96588D01*
X457177D01*
X456802Y-96776D01*
X456427Y-97151D01*
X456240Y-97713D01*
Y-98088D01*
X456427Y-98650D01*
X456802Y-99025D01*
X457177Y-99213D01*
X457739D01*
X458114Y-99025D01*
X458489Y-98650D01*
X459538Y-96588D02*
Y-99213D01*
Y-97713D02*
X459726Y-97151D01*
X460101Y-96776D01*
X460476Y-96588D01*
X461038D01*
X461394Y-97713D02*
X463643D01*
Y-97338D01*
X463456Y-96963D01*
X463268Y-96776D01*
X462893Y-96588D01*
X462331D01*
X461956Y-96776D01*
X461582Y-97151D01*
X461394Y-97713D01*
Y-98088D01*
X461582Y-98650D01*
X461956Y-99025D01*
X462331Y-99213D01*
X462893D01*
X463268Y-99025D01*
X463643Y-98650D01*
X464674Y-96588D02*
X464487Y-96776D01*
X464674Y-96963D01*
X464862Y-96776D01*
X464674Y-96588D01*
Y-98838D02*
X464487Y-99025D01*
X464674Y-99213D01*
X464862Y-99025D01*
X464674Y-98838D01*
D75*
X436614Y-102365D02*
X441113Y-114173D01*
X445611Y-102365D02*
X441113Y-114173D01*
X450503Y-102365D02*
X448816Y-102927D01*
X447692Y-104614D01*
X447129Y-107425D01*
Y-109112D01*
X447692Y-111924D01*
X448816Y-113611D01*
X450503Y-114173D01*
X451628D01*
X453315Y-113611D01*
X454439Y-111924D01*
X455002Y-109112D01*
Y-107425D01*
X454439Y-104614D01*
X453315Y-102927D01*
X451628Y-102365D01*
X450503D01*
X458207Y-113049D02*
X457645Y-113611D01*
X458207Y-114173D01*
X458769Y-113611D01*
X458207Y-113049D01*
X466979Y-102365D02*
X461356Y-110237D01*
X469790D01*
X466979Y-102365D02*
Y-114173D01*
D108*
X387402Y108268D02*
D03*
X400000D02*
D03*
D109*
X225197Y87992D02*
D03*
Y81299D02*
D03*
X231102D02*
D03*
Y74606D02*
D03*
Y87992D02*
D03*
Y94685D02*
D03*
X230315Y-54134D02*
D03*
Y-60827D02*
D03*
X275984Y-90354D02*
D03*
Y-83661D02*
D03*
X348819Y9646D02*
D03*
Y2953D02*
D03*
X354724Y9646D02*
D03*
Y2953D02*
D03*
X360630Y9646D02*
D03*
Y2953D02*
D03*
X330315Y-77756D02*
D03*
Y-71063D02*
D03*
Y-84449D02*
D03*
Y-91142D02*
D03*
X79528Y-50984D02*
D03*
Y-57677D02*
D03*
Y50984D02*
D03*
Y57677D02*
D03*
D110*
X472244Y42126D02*
D03*
D111*
X447638Y33071D02*
D03*
Y51181D02*
D03*
D112*
X280920Y37612D02*
D03*
X278136Y34828D02*
D03*
X319080Y12388D02*
D03*
X321864Y15171D02*
D03*
X309266Y52573D02*
D03*
X306482Y49789D02*
D03*
X269109Y51786D02*
D03*
X266325Y49002D02*
D03*
X271836Y54514D02*
D03*
X274620Y57297D02*
D03*
X315565Y40706D02*
D03*
X318349Y43490D02*
D03*
X318349Y37922D02*
D03*
X321133Y40706D02*
D03*
X309997Y46274D02*
D03*
X312781Y49058D02*
D03*
D113*
X287191Y1786D02*
D03*
X289975Y-998D02*
D03*
X314356Y4935D02*
D03*
X317140Y2151D02*
D03*
X311572Y2151D02*
D03*
X314356Y-632D02*
D03*
X317140Y7719D02*
D03*
X319924Y4935D02*
D03*
D114*
X263779Y22047D02*
D03*
X267717D02*
D03*
X311417Y-31102D02*
D03*
X315354D02*
D03*
X311417Y-27165D02*
D03*
X315354D02*
D03*
X281890Y-90158D02*
D03*
X285827D02*
D03*
X263779Y30315D02*
D03*
X267717D02*
D03*
Y-10236D02*
D03*
X263779D02*
D03*
X267717Y-14173D02*
D03*
X263779D02*
D03*
X277165Y-22047D02*
D03*
X273228D02*
D03*
X277165Y-18110D02*
D03*
X273228D02*
D03*
X267717Y25984D02*
D03*
X263779D02*
D03*
X267717Y34646D02*
D03*
X263779D02*
D03*
X482677Y-16142D02*
D03*
X486614D02*
D03*
X270866Y-27559D02*
D03*
X274803D02*
D03*
X267717Y-22047D02*
D03*
X263779D02*
D03*
X267717Y-18110D02*
D03*
X263779D02*
D03*
Y-6299D02*
D03*
X267717D02*
D03*
X263779Y-2362D02*
D03*
X267717D02*
D03*
X263779Y1575D02*
D03*
X267717D02*
D03*
X263779Y5906D02*
D03*
X267717D02*
D03*
X263779Y9843D02*
D03*
X267717D02*
D03*
X263779Y17717D02*
D03*
X267717D02*
D03*
X263779Y13780D02*
D03*
X267717D02*
D03*
X286221Y-29921D02*
D03*
X282283D02*
D03*
D115*
X350787Y-41043D02*
D03*
Y-47933D02*
D03*
X354331Y-4429D02*
D03*
Y-11319D02*
D03*
X361417Y-4429D02*
D03*
Y-11319D02*
D03*
X347244Y-4429D02*
D03*
Y-11319D02*
D03*
X344488Y-33366D02*
D03*
Y-26476D02*
D03*
X207087Y-97342D02*
D03*
Y-104232D02*
D03*
Y-79232D02*
D03*
Y-86122D02*
D03*
Y-61122D02*
D03*
Y-68012D02*
D03*
Y-43012D02*
D03*
Y-49902D02*
D03*
Y-24902D02*
D03*
Y-31791D02*
D03*
Y-6791D02*
D03*
Y-13681D02*
D03*
Y11319D02*
D03*
Y4429D02*
D03*
Y29429D02*
D03*
Y22539D02*
D03*
Y47539D02*
D03*
Y40650D02*
D03*
Y65650D02*
D03*
Y58760D02*
D03*
Y83760D02*
D03*
Y76870D02*
D03*
Y101870D02*
D03*
Y94980D02*
D03*
X357874Y-24311D02*
D03*
Y-17421D02*
D03*
X332283Y106004D02*
D03*
Y112894D02*
D03*
X322835Y106004D02*
D03*
Y112894D02*
D03*
X313386Y106004D02*
D03*
Y112894D02*
D03*
X364961Y-41043D02*
D03*
Y-47933D02*
D03*
X463386Y23130D02*
D03*
Y16240D02*
D03*
X411417Y-50295D02*
D03*
Y-43406D02*
D03*
X435039Y38878D02*
D03*
Y31988D02*
D03*
X357874Y-41043D02*
D03*
Y-47933D02*
D03*
X131890Y-98524D02*
D03*
Y-105413D02*
D03*
Y-80413D02*
D03*
Y-87303D02*
D03*
Y-62303D02*
D03*
Y-69193D02*
D03*
Y-44193D02*
D03*
Y-51083D02*
D03*
Y-26083D02*
D03*
Y-32972D02*
D03*
Y-7972D02*
D03*
Y-14862D02*
D03*
Y10138D02*
D03*
Y3248D02*
D03*
Y28248D02*
D03*
Y21358D02*
D03*
Y46358D02*
D03*
Y39469D02*
D03*
Y64468D02*
D03*
Y57579D02*
D03*
Y82579D02*
D03*
Y75689D02*
D03*
Y100689D02*
D03*
Y93799D02*
D03*
X313386Y93012D02*
D03*
Y99902D02*
D03*
X332283Y93012D02*
D03*
Y99902D02*
D03*
X322835Y93012D02*
D03*
Y99902D02*
D03*
D116*
X315354Y-87402D02*
D03*
Y-83465D02*
D03*
X225984Y-74016D02*
D03*
Y-70079D02*
D03*
X345669Y-16929D02*
D03*
Y-20866D02*
D03*
X350000Y-16929D02*
D03*
Y-20866D02*
D03*
X255118Y-53150D02*
D03*
Y-57087D02*
D03*
X260630Y-53150D02*
D03*
Y-57087D02*
D03*
X282283Y0D02*
D03*
Y3937D02*
D03*
X343307Y10630D02*
D03*
Y14567D02*
D03*
X338189Y-29528D02*
D03*
Y-33465D02*
D03*
X334252Y-29528D02*
D03*
Y-33465D02*
D03*
X330315Y-29528D02*
D03*
Y-33465D02*
D03*
X326378Y-29528D02*
D03*
Y-33465D02*
D03*
X362205Y45669D02*
D03*
Y41732D02*
D03*
X323228Y34252D02*
D03*
Y30315D02*
D03*
X230315Y-70079D02*
D03*
Y-74016D02*
D03*
X274803Y0D02*
D03*
Y3937D02*
D03*
X303543Y63779D02*
D03*
Y67716D02*
D03*
X349213Y-70472D02*
D03*
Y-74409D02*
D03*
D117*
X246260Y-53150D02*
D03*
X239567D02*
D03*
X255315Y-84646D02*
D03*
X248622D02*
D03*
X360039Y66142D02*
D03*
X353346D02*
D03*
X124606Y-92913D02*
D03*
X131299D02*
D03*
X124606Y-74803D02*
D03*
X131299D02*
D03*
X124606Y-56693D02*
D03*
X131299D02*
D03*
X124606Y-38583D02*
D03*
X131299D02*
D03*
X124606Y-20472D02*
D03*
X131299D02*
D03*
X124606Y-2362D02*
D03*
X131299D02*
D03*
X124606Y15748D02*
D03*
X131299D02*
D03*
X124606Y33858D02*
D03*
X131299D02*
D03*
X124606Y51968D02*
D03*
X131299D02*
D03*
X124606Y70079D02*
D03*
X131299D02*
D03*
X124606Y88189D02*
D03*
X131299D02*
D03*
X124606Y106299D02*
D03*
X131299D02*
D03*
X251378Y49213D02*
D03*
X244685D02*
D03*
X231693Y-42913D02*
D03*
X225000D02*
D03*
X363583Y-30315D02*
D03*
X356890D02*
D03*
X363583Y-71653D02*
D03*
X356890D02*
D03*
X193504Y-96850D02*
D03*
X186811D02*
D03*
X193504Y-78740D02*
D03*
X186811D02*
D03*
X193504Y-60630D02*
D03*
X186811D02*
D03*
X193504Y-42520D02*
D03*
X186811D02*
D03*
X193504Y-24409D02*
D03*
X186811D02*
D03*
X193504Y-6299D02*
D03*
X186811D02*
D03*
X193504Y11811D02*
D03*
X186811D02*
D03*
X193504Y29921D02*
D03*
X186811D02*
D03*
X193504Y48031D02*
D03*
X186811D02*
D03*
X193504Y66142D02*
D03*
X186811D02*
D03*
X193504Y84252D02*
D03*
X186811D02*
D03*
X193504Y102362D02*
D03*
X186811D02*
D03*
X193504Y-104724D02*
D03*
X186811D02*
D03*
X193504Y-86614D02*
D03*
X186811D02*
D03*
X193504Y-68504D02*
D03*
X186811D02*
D03*
X193504Y-50394D02*
D03*
X186811D02*
D03*
X193504Y-32283D02*
D03*
X186811D02*
D03*
X193504Y-14173D02*
D03*
X186811D02*
D03*
X193504Y3937D02*
D03*
X186811D02*
D03*
X193504Y22047D02*
D03*
X186811D02*
D03*
X193504Y40157D02*
D03*
X186811D02*
D03*
X193504Y58268D02*
D03*
X186811D02*
D03*
X193504Y76378D02*
D03*
X186811D02*
D03*
X193504Y94488D02*
D03*
X186811D02*
D03*
X353346Y71653D02*
D03*
X360039D02*
D03*
X200197Y-111417D02*
D03*
X206890D02*
D03*
X228937Y34252D02*
D03*
X235630D02*
D03*
D118*
X322933Y-110630D02*
D03*
X329823D02*
D03*
X356791Y-65354D02*
D03*
X363681D02*
D03*
X228839Y24409D02*
D03*
X235728D02*
D03*
X292618Y91339D02*
D03*
X299508D02*
D03*
X322933Y-101969D02*
D03*
X329823D02*
D03*
X363681Y-58268D02*
D03*
X356791D02*
D03*
X349114Y40945D02*
D03*
X342224D02*
D03*
Y49213D02*
D03*
X349114D02*
D03*
X377461Y108268D02*
D03*
X370571D02*
D03*
D119*
X338583Y58268D02*
D03*
X326772D02*
D03*
X346850D02*
D03*
X358661D02*
D03*
D120*
X306299Y-91535D02*
D03*
X302559Y-83268D02*
D03*
X310039D02*
D03*
X238976Y-83661D02*
D03*
X242717Y-91929D02*
D03*
X235236D02*
D03*
D121*
X462067Y-49114D02*
D03*
X467067D02*
D03*
X462067Y-24114D02*
D03*
X275335Y-47736D02*
D03*
X270335D02*
D03*
X275335Y-72736D02*
D03*
D122*
X467067Y-24114D02*
D03*
X270335Y-72736D02*
D03*
D123*
X282283Y-13189D02*
D03*
Y-4921D02*
D03*
X274803Y-13189D02*
D03*
Y-4921D02*
D03*
D124*
X461909Y-16142D02*
D03*
X475098D02*
D03*
X442618Y22835D02*
D03*
X455807D02*
D03*
X432972Y-59055D02*
D03*
X419783D02*
D03*
D125*
X479921Y-26614D02*
D03*
Y-46614D02*
D03*
D126*
X521654Y-36614D02*
D03*
D127*
X478346Y-108819D02*
D03*
Y-91969D02*
D03*
X427165Y-108819D02*
D03*
Y-91969D02*
D03*
Y70315D02*
D03*
Y87165D02*
D03*
D128*
X312266Y58994D02*
D03*
X321592Y49668D02*
D03*
D129*
X425197Y44390D02*
D03*
Y31201D02*
D03*
X343307Y32185D02*
D03*
Y18996D02*
D03*
X356299Y37894D02*
D03*
Y51083D02*
D03*
X338189Y-4626D02*
D03*
Y8563D02*
D03*
X361417Y18996D02*
D03*
Y32185D02*
D03*
X329528Y-4626D02*
D03*
Y8563D02*
D03*
X351969Y32185D02*
D03*
Y18996D02*
D03*
X253937Y21358D02*
D03*
Y34547D02*
D03*
X244094Y21358D02*
D03*
Y34547D02*
D03*
D130*
X242913Y41732D02*
D03*
X253937D02*
D03*
D131*
X200000Y-96358D02*
D03*
Y-105217D02*
D03*
Y-78248D02*
D03*
Y-87106D02*
D03*
Y-60138D02*
D03*
Y-68996D02*
D03*
Y-42028D02*
D03*
Y-50886D02*
D03*
Y-23917D02*
D03*
Y-32776D02*
D03*
Y-5807D02*
D03*
Y-14665D02*
D03*
Y12303D02*
D03*
Y3445D02*
D03*
Y30413D02*
D03*
Y21555D02*
D03*
Y48524D02*
D03*
Y39665D02*
D03*
Y66634D02*
D03*
Y57776D02*
D03*
Y84744D02*
D03*
Y75886D02*
D03*
Y102854D02*
D03*
Y93996D02*
D03*
D132*
X127953Y-92913D02*
D03*
Y-74803D02*
D03*
Y-56693D02*
D03*
Y-38583D02*
D03*
Y-20472D02*
D03*
Y-2362D02*
D03*
Y15748D02*
D03*
Y33858D02*
D03*
Y51968D02*
D03*
Y70079D02*
D03*
Y88189D02*
D03*
Y106299D02*
D03*
D133*
X301841Y42350D02*
D03*
X303233Y40958D02*
D03*
X304625Y39566D02*
D03*
X306017Y38174D02*
D03*
X307409Y36782D02*
D03*
X308801Y35390D02*
D03*
X310193Y33998D02*
D03*
X311585Y32606D02*
D03*
X312977Y31214D02*
D03*
X314369Y29822D02*
D03*
X315761Y28430D02*
D03*
X317153Y27038D02*
D03*
X293434Y3320D02*
D03*
X292042Y4712D02*
D03*
X290650Y6103D02*
D03*
X289258Y7495D02*
D03*
X287866Y8887D02*
D03*
X286474Y10279D02*
D03*
X285083Y11671D02*
D03*
X283691Y13063D02*
D03*
X282299Y14455D02*
D03*
X280907Y15847D02*
D03*
X279515Y17239D02*
D03*
X278123Y18631D02*
D03*
D134*
X317153D02*
D03*
X315761Y17239D02*
D03*
X314369Y15847D02*
D03*
X312977Y14455D02*
D03*
X311585Y13063D02*
D03*
X310193Y11671D02*
D03*
X308801Y10279D02*
D03*
X307409Y8887D02*
D03*
X306017Y7495D02*
D03*
X304625Y6103D02*
D03*
X303233Y4712D02*
D03*
X301841Y3320D02*
D03*
X278123Y27038D02*
D03*
X279515Y28430D02*
D03*
X280907Y29822D02*
D03*
X282299Y31214D02*
D03*
X283691Y32606D02*
D03*
X285083Y33998D02*
D03*
X286474Y35390D02*
D03*
X287866Y36782D02*
D03*
X289258Y38174D02*
D03*
X290650Y39566D02*
D03*
X292042Y40958D02*
D03*
X293434Y42350D02*
D03*
D135*
X348622Y75787D02*
D03*
Y77756D02*
D03*
X336417Y75787D02*
D03*
Y77756D02*
D03*
D136*
X342520Y76772D02*
D03*
D137*
Y70965D02*
D03*
X338583D02*
D03*
X340551D02*
D03*
X344488D02*
D03*
X346457D02*
D03*
X338583Y82579D02*
D03*
X340551D02*
D03*
X344488D02*
D03*
X346457D02*
D03*
X342520D02*
D03*
D138*
X285197Y-74409D02*
D03*
X295197D02*
D03*
X305197D02*
D03*
X315197D02*
D03*
X285197Y-38976D02*
D03*
X295197D02*
D03*
X305197D02*
D03*
D139*
X315197D02*
D03*
D140*
X235827Y-68701D02*
D03*
Y-66732D02*
D03*
Y-64764D02*
D03*
Y-74606D02*
D03*
Y-72638D02*
D03*
Y-70669D02*
D03*
X251575Y-68701D02*
D03*
Y-66732D02*
D03*
Y-64764D02*
D03*
Y-74606D02*
D03*
Y-72638D02*
D03*
Y-70669D02*
D03*
D141*
X244685Y-77559D02*
D03*
X246654D02*
D03*
X248622D02*
D03*
X238779D02*
D03*
X240748D02*
D03*
X242717D02*
D03*
Y-61811D02*
D03*
X240748D02*
D03*
X238779D02*
D03*
X248622D02*
D03*
X246654D02*
D03*
X244685D02*
D03*
D142*
X243701Y-69685D02*
D03*
D143*
X338976Y-15748D02*
D03*
Y-17717D02*
D03*
Y-19685D02*
D03*
Y-13780D02*
D03*
Y-11811D02*
D03*
X321654Y-19685D02*
D03*
Y-17717D02*
D03*
Y-11811D02*
D03*
Y-13780D02*
D03*
Y-15748D02*
D03*
D144*
X344783Y-41339D02*
D03*
D145*
X342224D02*
D03*
X339665D02*
D03*
X337106D02*
D03*
X334547D02*
D03*
X331988D02*
D03*
X329429D02*
D03*
X326870D02*
D03*
X344783Y-63386D02*
D03*
X342224D02*
D03*
X339665D02*
D03*
X337106D02*
D03*
X334547D02*
D03*
X331988D02*
D03*
X329429D02*
D03*
X326870D02*
D03*
D146*
X249410Y-101654D02*
D03*
X230906D02*
D03*
D147*
X245276Y-100000D02*
D03*
X242717D02*
D03*
X235039D02*
D03*
X237598D02*
D03*
X240158D02*
D03*
D148*
X235728Y-110433D02*
D03*
X244587D02*
D03*
D149*
X311221Y-108268D02*
D03*
X271457D02*
D03*
X263583Y80708D02*
D03*
X303346D02*
D03*
X263583Y108661D02*
D03*
X303346D02*
D03*
D150*
X301181Y-96653D02*
D03*
X281496D02*
D03*
X291339D02*
D03*
X286417D02*
D03*
X296260D02*
D03*
D151*
X75551Y-41339D02*
D03*
Y-29528D02*
D03*
Y-17717D02*
D03*
X75590Y-5906D02*
D03*
X75551Y5906D02*
D03*
Y17717D02*
D03*
Y29528D02*
D03*
Y41339D02*
D03*
X93740Y17717D02*
D03*
Y5906D02*
D03*
Y-29528D02*
D03*
Y-41339D02*
D03*
Y-17717D02*
D03*
Y-5906D02*
D03*
Y29528D02*
D03*
Y41339D02*
D03*
D152*
X273622Y70472D02*
D03*
X293307D02*
D03*
X283465D02*
D03*
X288386D02*
D03*
X278543D02*
D03*
X273622Y98425D02*
D03*
X293307D02*
D03*
X283465D02*
D03*
X288386D02*
D03*
X278543D02*
D03*
D153*
X322835Y85728D02*
D03*
Y67815D02*
D03*
D154*
X480020Y24843D02*
D03*
Y19831D02*
D03*
Y14842D02*
D03*
Y4843D02*
D03*
Y-158D02*
D03*
Y-5158D02*
D03*
D155*
X519193Y9843D02*
D03*
D156*
X420039Y-43602D02*
D03*
X425051D02*
D03*
X430039D02*
D03*
X440039D02*
D03*
X445039D02*
D03*
X450039D02*
D03*
X372795D02*
D03*
X377807D02*
D03*
X382795D02*
D03*
X392795D02*
D03*
X397795D02*
D03*
X402795D02*
D03*
D157*
X435039Y-4429D02*
D03*
X387795D02*
D03*
D158*
X172441Y-100787D02*
D03*
X180315Y-104528D02*
D03*
X172441Y-82677D02*
D03*
X180315Y-86417D02*
D03*
X172441Y-64567D02*
D03*
X180315Y-68307D02*
D03*
X172441Y-46457D02*
D03*
X180315Y-50197D02*
D03*
X172441Y-28346D02*
D03*
X180315Y-32087D02*
D03*
X172441Y-10236D02*
D03*
X180315Y-13976D02*
D03*
X172441Y7874D02*
D03*
X180315Y4134D02*
D03*
X172441Y25984D02*
D03*
X180315Y22244D02*
D03*
X172441Y44094D02*
D03*
X180315Y40354D02*
D03*
X172441Y62205D02*
D03*
X180315Y58465D02*
D03*
X172441Y80315D02*
D03*
X180315Y76575D02*
D03*
X172441Y98425D02*
D03*
X180315Y94685D02*
D03*
X336221Y46063D02*
D03*
X328346Y49803D02*
D03*
X336221Y32283D02*
D03*
X328346Y36024D02*
D03*
X327953Y18898D02*
D03*
X335827Y15157D02*
D03*
X344094Y-74410D02*
D03*
X336221Y-70669D02*
D03*
D159*
X180315Y-97047D02*
D03*
Y-78937D02*
D03*
Y-60827D02*
D03*
Y-42717D02*
D03*
Y-24606D02*
D03*
Y-6496D02*
D03*
Y11614D02*
D03*
Y29724D02*
D03*
Y47835D02*
D03*
Y65945D02*
D03*
Y84055D02*
D03*
Y102165D02*
D03*
X328346Y42323D02*
D03*
Y28543D02*
D03*
X335827Y22638D02*
D03*
X336221Y-78150D02*
D03*
D160*
X297638Y47638D02*
D03*
X301378Y55512D02*
D03*
X272835Y-40551D02*
D03*
X276575Y-32677D02*
D03*
X293701Y-20079D02*
D03*
X297441Y-12205D02*
D03*
X307480Y-20079D02*
D03*
X311221Y-12205D02*
D03*
D161*
X293898Y55512D02*
D03*
X269094Y-32677D02*
D03*
X289961Y-12205D02*
D03*
X303740D02*
D03*
D162*
X70276Y-106299D02*
D03*
X95079D02*
D03*
X70276Y106299D02*
D03*
X95079D02*
D03*
X140354Y-100787D02*
D03*
X165157D02*
D03*
X140354Y-82677D02*
D03*
X165157D02*
D03*
X140354Y-64567D02*
D03*
X165157D02*
D03*
X140354Y-46457D02*
D03*
X165157D02*
D03*
X140354Y-28346D02*
D03*
X165157D02*
D03*
X140354Y-10236D02*
D03*
X165157D02*
D03*
X140354Y7874D02*
D03*
X165157D02*
D03*
X140354Y25984D02*
D03*
X165157D02*
D03*
X140354Y44094D02*
D03*
X165157D02*
D03*
X140354Y62205D02*
D03*
X165157D02*
D03*
X140354Y80315D02*
D03*
X165157D02*
D03*
X140354Y98425D02*
D03*
X165157D02*
D03*
D163*
X393701Y42127D02*
D03*
X393701Y28740D02*
D03*
D164*
X495669Y43307D02*
D03*
X527953D02*
D03*
D165*
X354528Y102362D02*
D03*
X346260D02*
D03*
D166*
X228445Y13583D02*
D03*
D167*
Y11614D02*
D03*
Y9646D02*
D03*
Y7677D02*
D03*
Y5709D02*
D03*
Y3740D02*
D03*
Y1772D02*
D03*
Y-197D02*
D03*
Y-2165D02*
D03*
Y-4134D02*
D03*
Y-6102D02*
D03*
Y-8071D02*
D03*
Y-10039D02*
D03*
Y-12008D02*
D03*
Y-13976D02*
D03*
Y-15945D02*
D03*
Y-17913D02*
D03*
Y-19882D02*
D03*
Y-21850D02*
D03*
Y-23819D02*
D03*
Y-25787D02*
D03*
Y-27756D02*
D03*
X255807Y13583D02*
D03*
Y11614D02*
D03*
Y9646D02*
D03*
Y7677D02*
D03*
Y5709D02*
D03*
Y3740D02*
D03*
Y1772D02*
D03*
Y-197D02*
D03*
Y-2165D02*
D03*
Y-4134D02*
D03*
Y-6102D02*
D03*
Y-8071D02*
D03*
Y-10039D02*
D03*
Y-12008D02*
D03*
Y-13976D02*
D03*
Y-15945D02*
D03*
Y-17913D02*
D03*
Y-19882D02*
D03*
Y-21850D02*
D03*
Y-23819D02*
D03*
Y-25787D02*
D03*
Y-27756D02*
D03*
D168*
X282454Y51746D02*
D03*
X271876Y41168D02*
D03*
D169*
X545276Y-62992D02*
D03*
Y49213D02*
D03*
X9843Y-25591D02*
D03*
Y25591D02*
D03*
Y108268D02*
D03*
Y-108268D02*
D03*
X541339D02*
D03*
Y108268D02*
D03*
D170*
X452756Y-78740D02*
D03*
Y78740D02*
D03*
X98425D02*
D03*
Y-78740D02*
D03*
D171*
X345472Y78740D02*
D03*
Y74803D02*
D03*
X339567D02*
D03*
Y78740D02*
D03*
X342520Y76772D02*
D03*
D172*
X511811Y-78740D02*
D03*
X393701Y78740D02*
D03*
Y-78740D02*
D03*
X39370Y78740D02*
D03*
Y-78740D02*
D03*
X511811Y78740D02*
D03*
D173*
X516811Y-93740D02*
D03*
X506811D02*
D03*
X496811D02*
D03*
X526811D02*
D03*
Y-83740D02*
D03*
Y-73740D02*
D03*
Y-63740D02*
D03*
X516811D02*
D03*
X506811D02*
D03*
X496811D02*
D03*
Y-73740D02*
D03*
Y-83740D02*
D03*
X398701Y63740D02*
D03*
X388701D02*
D03*
X378701D02*
D03*
X408701D02*
D03*
Y73740D02*
D03*
Y83740D02*
D03*
Y93740D02*
D03*
X398701D02*
D03*
X388701D02*
D03*
X378701D02*
D03*
Y83740D02*
D03*
Y73740D02*
D03*
X398701Y-93740D02*
D03*
X388701D02*
D03*
X378701D02*
D03*
X408701D02*
D03*
Y-83740D02*
D03*
Y-73740D02*
D03*
Y-63740D02*
D03*
X398701D02*
D03*
X388701D02*
D03*
X378701D02*
D03*
Y-73740D02*
D03*
Y-83740D02*
D03*
X44370Y63740D02*
D03*
X34370D02*
D03*
X24370D02*
D03*
X54370D02*
D03*
Y73740D02*
D03*
Y83740D02*
D03*
Y93740D02*
D03*
X44370D02*
D03*
X34370D02*
D03*
X24370D02*
D03*
Y83740D02*
D03*
Y73740D02*
D03*
X44370Y-93740D02*
D03*
X34370D02*
D03*
X24370D02*
D03*
X54370D02*
D03*
Y-83740D02*
D03*
Y-73740D02*
D03*
Y-63740D02*
D03*
X44370D02*
D03*
X34370D02*
D03*
X24370D02*
D03*
Y-73740D02*
D03*
Y-83740D02*
D03*
X516811Y63740D02*
D03*
X506811D02*
D03*
X496811D02*
D03*
X526811D02*
D03*
Y73740D02*
D03*
Y83740D02*
D03*
Y93740D02*
D03*
X516811D02*
D03*
X506811D02*
D03*
X496811D02*
D03*
Y83740D02*
D03*
Y73740D02*
D03*
X354331Y-87402D02*
D03*
Y-107087D02*
D03*
D174*
X254232Y-110433D02*
D03*
X226083D02*
D03*
D175*
X53976Y49843D02*
D03*
Y-49843D02*
D03*
M02*
