M48
;Layer_Color=9474304
;FILE_FORMAT=2:4
INCH
T10F00S00C0.2000
%
G90
G05
T10
G00X309055Y176165
M15
G01X309055Y176167
G01X309121Y176163
G01X309378Y176180
G01X309508Y176197
G01X309761Y176248
G01X309887Y176281
G01X310132Y176364
G01X310252Y176414
G01X310484Y176529
G01X310597Y176594
G01X310812Y176737
G01X310915Y176817
G01X311109Y176987
G01X311202Y177080
G01X311372Y177274
G01X311452Y177377
G01X311595Y177592
G01X311660Y177705
G01X311775Y177937
G01X311825Y178057
G01X311908Y178302
G01X311941Y178428
G01X311992Y178681
G01X312009Y178811
G01X312028Y179134
G01X312024Y198819
G01X312022Y198819
G01X312026Y198884
G01X312009Y199142
G01X311992Y199271
G01X311941Y199525
G01X311908Y199651
G01X311825Y199895
G01X311775Y200016
G01X311660Y200248
G01X311595Y200361
G01X311452Y200575
G01X311372Y200679
G01X311202Y200873
G01X311109Y200966
G01X310915Y201136
G01X310812Y201215
G01X310597Y201359
G01X310484Y201424
G01X310252Y201538
G01X310132Y201588
G01X309887Y201671
G01X309761Y201705
G01X309508Y201756
G01X309378Y201773
G01X309055Y201792
G01X257874Y201787
G01X257874Y201786
G01X257809Y201790
G01X257551Y201773
G01X257421Y201756
G01X257168Y201705
G01X257042Y201671
G01X256798Y201588
G01X256677Y201538
G01X256445Y201424
G01X256332Y201359
G01X256118Y201215
G01X256014Y201136
G01X255820Y200966
G01X255727Y200873
G01X255557Y200679
G01X255477Y200575
G01X255334Y200361
G01X255269Y200248
G01X255155Y200016
G01X255105Y199895
G01X255022Y199651
G01X254988Y199525
G01X254937Y199271
G01X254920Y199142
G01X254901Y198819
G01X254906Y179134
G01X254907Y179134
G01X254903Y179068
G01X254920Y178811
G01X254937Y178681
G01X254988Y178428
G01X255022Y178302
G01X255105Y178057
G01X255155Y177937
G01X255269Y177705
G01X255334Y177592
G01X255477Y177377
G01X255557Y177274
G01X255727Y177080
G01X255820Y176987
G01X256014Y176817
G01X256118Y176737
G01X256332Y176594
G01X256445Y176529
G01X256677Y176414
G01X256798Y176364
G01X257042Y176281
G01X257168Y176248
G01X257421Y176197
G01X257551Y176180
G01X257874Y176161
G01X309055Y176165
M16
M17
M30
